%TF.GenerationSoftware,KiCad,Pcbnew,(6.0.2)*%
%TF.CreationDate,2022-07-12T14:07:49-04:00*%
%TF.ProjectId,RDL_revD6,52444c5f-7265-4764-9436-2e6b69636164,Rev D6*%
%TF.SameCoordinates,Original*%
%TF.FileFunction,Legend,Top*%
%TF.FilePolarity,Positive*%
%FSLAX46Y46*%
G04 Gerber Fmt 4.6, Leading zero omitted, Abs format (unit mm)*
G04 Created by KiCad (PCBNEW (6.0.2)) date 2022-07-12 14:07:49*
%MOMM*%
%LPD*%
G01*
G04 APERTURE LIST*
%ADD10C,0.150000*%
%ADD11C,0.300000*%
%ADD12C,0.120000*%
%ADD13C,0.100000*%
G04 APERTURE END LIST*
D10*
X158115000Y-107950000D02*
X178435000Y-107950000D01*
X178435000Y-107950000D02*
X178435000Y-130810000D01*
X178435000Y-130810000D02*
X158115000Y-130810000D01*
X158115000Y-130810000D02*
X158115000Y-107950000D01*
X184150000Y-55880000D02*
X216535000Y-55880000D01*
X216535000Y-55880000D02*
X216535000Y-80010000D01*
X216535000Y-80010000D02*
X184150000Y-80010000D01*
X184150000Y-80010000D02*
X184150000Y-55880000D01*
X149225000Y-73025000D02*
X179070000Y-73025000D01*
X179070000Y-73025000D02*
X179070000Y-102235000D01*
X179070000Y-102235000D02*
X149225000Y-102235000D01*
X149225000Y-102235000D02*
X149225000Y-73025000D01*
X149225000Y-52070000D02*
X179070000Y-52070000D01*
X179070000Y-52070000D02*
X179070000Y-71120000D01*
X179070000Y-71120000D02*
X149225000Y-71120000D01*
X149225000Y-71120000D02*
X149225000Y-52070000D01*
X189928571Y-94417380D02*
X189595238Y-93941190D01*
X189357142Y-94417380D02*
X189357142Y-93417380D01*
X189738095Y-93417380D01*
X189833333Y-93465000D01*
X189880952Y-93512619D01*
X189928571Y-93607857D01*
X189928571Y-93750714D01*
X189880952Y-93845952D01*
X189833333Y-93893571D01*
X189738095Y-93941190D01*
X189357142Y-93941190D01*
X190357142Y-93893571D02*
X190690476Y-93893571D01*
X190833333Y-94417380D02*
X190357142Y-94417380D01*
X190357142Y-93417380D01*
X190833333Y-93417380D01*
X191595238Y-93893571D02*
X191261904Y-93893571D01*
X191261904Y-94417380D02*
X191261904Y-93417380D01*
X191738095Y-93417380D01*
X70104285Y-79747619D02*
X70866190Y-79747619D01*
X70866190Y-79747619D02*
X71628095Y-79747619D01*
X71628095Y-79747619D02*
X72390000Y-79747619D01*
X72390000Y-79747619D02*
X73151904Y-79747619D01*
X73151904Y-79747619D02*
X73913809Y-79747619D01*
X73913809Y-79747619D02*
X74675714Y-79747619D01*
X222781904Y-112197380D02*
X222781904Y-111197380D01*
X223020000Y-111197380D01*
X223162857Y-111245000D01*
X223258095Y-111340238D01*
X223305714Y-111435476D01*
X223353333Y-111625952D01*
X223353333Y-111768809D01*
X223305714Y-111959285D01*
X223258095Y-112054523D01*
X223162857Y-112149761D01*
X223020000Y-112197380D01*
X222781904Y-112197380D01*
X224210476Y-111530714D02*
X224210476Y-112197380D01*
X223972380Y-111149761D02*
X223734285Y-111864047D01*
X224353333Y-111864047D01*
X207486666Y-57602380D02*
X207153333Y-57126190D01*
X206915238Y-57602380D02*
X206915238Y-56602380D01*
X207296190Y-56602380D01*
X207391428Y-56650000D01*
X207439047Y-56697619D01*
X207486666Y-56792857D01*
X207486666Y-56935714D01*
X207439047Y-57030952D01*
X207391428Y-57078571D01*
X207296190Y-57126190D01*
X206915238Y-57126190D01*
X207772380Y-56602380D02*
X208343809Y-56602380D01*
X208058095Y-57602380D02*
X208058095Y-56602380D01*
X209248571Y-57507142D02*
X209200952Y-57554761D01*
X209058095Y-57602380D01*
X208962857Y-57602380D01*
X208820000Y-57554761D01*
X208724761Y-57459523D01*
X208677142Y-57364285D01*
X208629523Y-57173809D01*
X208629523Y-57030952D01*
X208677142Y-56840476D01*
X208724761Y-56745238D01*
X208820000Y-56650000D01*
X208962857Y-56602380D01*
X209058095Y-56602380D01*
X209200952Y-56650000D01*
X209248571Y-56697619D01*
X210867619Y-57554761D02*
X210772380Y-57602380D01*
X210581904Y-57602380D01*
X210486666Y-57554761D01*
X210439047Y-57507142D01*
X210391428Y-57411904D01*
X210391428Y-57126190D01*
X210439047Y-57030952D01*
X210486666Y-56983333D01*
X210581904Y-56935714D01*
X210772380Y-56935714D01*
X210867619Y-56983333D01*
X211296190Y-57602380D02*
X211296190Y-56935714D01*
X211296190Y-56602380D02*
X211248571Y-56650000D01*
X211296190Y-56697619D01*
X211343809Y-56650000D01*
X211296190Y-56602380D01*
X211296190Y-56697619D01*
X211772380Y-57602380D02*
X211772380Y-56935714D01*
X211772380Y-57126190D02*
X211820000Y-57030952D01*
X211867619Y-56983333D01*
X211962857Y-56935714D01*
X212058095Y-56935714D01*
X212820000Y-57554761D02*
X212724761Y-57602380D01*
X212534285Y-57602380D01*
X212439047Y-57554761D01*
X212391428Y-57507142D01*
X212343809Y-57411904D01*
X212343809Y-57126190D01*
X212391428Y-57030952D01*
X212439047Y-56983333D01*
X212534285Y-56935714D01*
X212724761Y-56935714D01*
X212820000Y-56983333D01*
X213677142Y-56935714D02*
X213677142Y-57602380D01*
X213248571Y-56935714D02*
X213248571Y-57459523D01*
X213296190Y-57554761D01*
X213391428Y-57602380D01*
X213534285Y-57602380D01*
X213629523Y-57554761D01*
X213677142Y-57507142D01*
X214153333Y-57602380D02*
X214153333Y-56935714D01*
X214153333Y-56602380D02*
X214105714Y-56650000D01*
X214153333Y-56697619D01*
X214200952Y-56650000D01*
X214153333Y-56602380D01*
X214153333Y-56697619D01*
X214486666Y-56935714D02*
X214867619Y-56935714D01*
X214629523Y-56602380D02*
X214629523Y-57459523D01*
X214677142Y-57554761D01*
X214772380Y-57602380D01*
X214867619Y-57602380D01*
X122154285Y-55915714D02*
X122082857Y-55987142D01*
X121868571Y-56058571D01*
X121725714Y-56058571D01*
X121511428Y-55987142D01*
X121368571Y-55844285D01*
X121297142Y-55701428D01*
X121225714Y-55415714D01*
X121225714Y-55201428D01*
X121297142Y-54915714D01*
X121368571Y-54772857D01*
X121511428Y-54630000D01*
X121725714Y-54558571D01*
X121868571Y-54558571D01*
X122082857Y-54630000D01*
X122154285Y-54701428D01*
X122797142Y-56058571D02*
X122797142Y-54558571D01*
X122797142Y-55272857D02*
X123654285Y-55272857D01*
X123654285Y-56058571D02*
X123654285Y-54558571D01*
X124440000Y-56058571D02*
X124725714Y-56058571D01*
X124868571Y-55987142D01*
X124940000Y-55915714D01*
X125082857Y-55701428D01*
X125154285Y-55415714D01*
X125154285Y-54844285D01*
X125082857Y-54701428D01*
X125011428Y-54630000D01*
X124868571Y-54558571D01*
X124582857Y-54558571D01*
X124440000Y-54630000D01*
X124368571Y-54701428D01*
X124297142Y-54844285D01*
X124297142Y-55201428D01*
X124368571Y-55344285D01*
X124440000Y-55415714D01*
X124582857Y-55487142D01*
X124868571Y-55487142D01*
X125011428Y-55415714D01*
X125082857Y-55344285D01*
X125154285Y-55201428D01*
X222781904Y-104577380D02*
X222781904Y-103577380D01*
X223020000Y-103577380D01*
X223162857Y-103625000D01*
X223258095Y-103720238D01*
X223305714Y-103815476D01*
X223353333Y-104005952D01*
X223353333Y-104148809D01*
X223305714Y-104339285D01*
X223258095Y-104434523D01*
X223162857Y-104529761D01*
X223020000Y-104577380D01*
X222781904Y-104577380D01*
X224210476Y-103577380D02*
X224020000Y-103577380D01*
X223924761Y-103625000D01*
X223877142Y-103672619D01*
X223781904Y-103815476D01*
X223734285Y-104005952D01*
X223734285Y-104386904D01*
X223781904Y-104482142D01*
X223829523Y-104529761D01*
X223924761Y-104577380D01*
X224115238Y-104577380D01*
X224210476Y-104529761D01*
X224258095Y-104482142D01*
X224305714Y-104386904D01*
X224305714Y-104148809D01*
X224258095Y-104053571D01*
X224210476Y-104005952D01*
X224115238Y-103958333D01*
X223924761Y-103958333D01*
X223829523Y-104005952D01*
X223781904Y-104053571D01*
X223734285Y-104148809D01*
X158806666Y-102957380D02*
X159140000Y-103957380D01*
X159473333Y-102957380D01*
X159806666Y-103957380D02*
X159806666Y-102957380D01*
X160282857Y-103957380D02*
X160282857Y-102957380D01*
X160854285Y-103957380D01*
X160854285Y-102957380D01*
X164140000Y-103005000D02*
X164044761Y-102957380D01*
X163901904Y-102957380D01*
X163759047Y-103005000D01*
X163663809Y-103100238D01*
X163616190Y-103195476D01*
X163568571Y-103385952D01*
X163568571Y-103528809D01*
X163616190Y-103719285D01*
X163663809Y-103814523D01*
X163759047Y-103909761D01*
X163901904Y-103957380D01*
X163997142Y-103957380D01*
X164140000Y-103909761D01*
X164187619Y-103862142D01*
X164187619Y-103528809D01*
X163997142Y-103528809D01*
X164616190Y-103957380D02*
X164616190Y-102957380D01*
X165187619Y-103957380D01*
X165187619Y-102957380D01*
X165663809Y-103957380D02*
X165663809Y-102957380D01*
X165901904Y-102957380D01*
X166044761Y-103005000D01*
X166140000Y-103100238D01*
X166187619Y-103195476D01*
X166235238Y-103385952D01*
X166235238Y-103528809D01*
X166187619Y-103719285D01*
X166140000Y-103814523D01*
X166044761Y-103909761D01*
X165901904Y-103957380D01*
X165663809Y-103957380D01*
X168901904Y-103909761D02*
X169044761Y-103957380D01*
X169282857Y-103957380D01*
X169378095Y-103909761D01*
X169425714Y-103862142D01*
X169473333Y-103766904D01*
X169473333Y-103671666D01*
X169425714Y-103576428D01*
X169378095Y-103528809D01*
X169282857Y-103481190D01*
X169092380Y-103433571D01*
X168997142Y-103385952D01*
X168949523Y-103338333D01*
X168901904Y-103243095D01*
X168901904Y-103147857D01*
X168949523Y-103052619D01*
X168997142Y-103005000D01*
X169092380Y-102957380D01*
X169330476Y-102957380D01*
X169473333Y-103005000D01*
X169901904Y-103957380D02*
X169901904Y-102957380D01*
X170140000Y-102957380D01*
X170282857Y-103005000D01*
X170378095Y-103100238D01*
X170425714Y-103195476D01*
X170473333Y-103385952D01*
X170473333Y-103528809D01*
X170425714Y-103719285D01*
X170378095Y-103814523D01*
X170282857Y-103909761D01*
X170140000Y-103957380D01*
X169901904Y-103957380D01*
X170854285Y-103671666D02*
X171330476Y-103671666D01*
X170759047Y-103957380D02*
X171092380Y-102957380D01*
X171425714Y-103957380D01*
X173997142Y-103909761D02*
X174140000Y-103957380D01*
X174378095Y-103957380D01*
X174473333Y-103909761D01*
X174520952Y-103862142D01*
X174568571Y-103766904D01*
X174568571Y-103671666D01*
X174520952Y-103576428D01*
X174473333Y-103528809D01*
X174378095Y-103481190D01*
X174187619Y-103433571D01*
X174092380Y-103385952D01*
X174044761Y-103338333D01*
X173997142Y-103243095D01*
X173997142Y-103147857D01*
X174044761Y-103052619D01*
X174092380Y-103005000D01*
X174187619Y-102957380D01*
X174425714Y-102957380D01*
X174568571Y-103005000D01*
X175568571Y-103862142D02*
X175520952Y-103909761D01*
X175378095Y-103957380D01*
X175282857Y-103957380D01*
X175140000Y-103909761D01*
X175044761Y-103814523D01*
X174997142Y-103719285D01*
X174949523Y-103528809D01*
X174949523Y-103385952D01*
X174997142Y-103195476D01*
X175044761Y-103100238D01*
X175140000Y-103005000D01*
X175282857Y-102957380D01*
X175378095Y-102957380D01*
X175520952Y-103005000D01*
X175568571Y-103052619D01*
X176473333Y-103957380D02*
X175997142Y-103957380D01*
X175997142Y-102957380D01*
X121440000Y-65265714D02*
X121368571Y-65337142D01*
X121154285Y-65408571D01*
X121011428Y-65408571D01*
X120797142Y-65337142D01*
X120654285Y-65194285D01*
X120582857Y-65051428D01*
X120511428Y-64765714D01*
X120511428Y-64551428D01*
X120582857Y-64265714D01*
X120654285Y-64122857D01*
X120797142Y-63980000D01*
X121011428Y-63908571D01*
X121154285Y-63908571D01*
X121368571Y-63980000D01*
X121440000Y-64051428D01*
X122082857Y-65408571D02*
X122082857Y-63908571D01*
X122082857Y-64622857D02*
X122940000Y-64622857D01*
X122940000Y-65408571D02*
X122940000Y-63908571D01*
X124440000Y-65408571D02*
X123582857Y-65408571D01*
X124011428Y-65408571D02*
X124011428Y-63908571D01*
X123868571Y-64122857D01*
X123725714Y-64265714D01*
X123582857Y-64337142D01*
X125368571Y-63908571D02*
X125511428Y-63908571D01*
X125654285Y-63980000D01*
X125725714Y-64051428D01*
X125797142Y-64194285D01*
X125868571Y-64480000D01*
X125868571Y-64837142D01*
X125797142Y-65122857D01*
X125725714Y-65265714D01*
X125654285Y-65337142D01*
X125511428Y-65408571D01*
X125368571Y-65408571D01*
X125225714Y-65337142D01*
X125154285Y-65265714D01*
X125082857Y-65122857D01*
X125011428Y-64837142D01*
X125011428Y-64480000D01*
X125082857Y-64194285D01*
X125154285Y-64051428D01*
X125225714Y-63980000D01*
X125368571Y-63908571D01*
X189952380Y-122357380D02*
X189619047Y-121881190D01*
X189380952Y-122357380D02*
X189380952Y-121357380D01*
X189761904Y-121357380D01*
X189857142Y-121405000D01*
X189904761Y-121452619D01*
X189952380Y-121547857D01*
X189952380Y-121690714D01*
X189904761Y-121785952D01*
X189857142Y-121833571D01*
X189761904Y-121881190D01*
X189380952Y-121881190D01*
X190333333Y-122309761D02*
X190476190Y-122357380D01*
X190714285Y-122357380D01*
X190809523Y-122309761D01*
X190857142Y-122262142D01*
X190904761Y-122166904D01*
X190904761Y-122071666D01*
X190857142Y-121976428D01*
X190809523Y-121928809D01*
X190714285Y-121881190D01*
X190523809Y-121833571D01*
X190428571Y-121785952D01*
X190380952Y-121738333D01*
X190333333Y-121643095D01*
X190333333Y-121547857D01*
X190380952Y-121452619D01*
X190428571Y-121405000D01*
X190523809Y-121357380D01*
X190761904Y-121357380D01*
X190904761Y-121405000D01*
X191190476Y-121357380D02*
X191761904Y-121357380D01*
X191476190Y-122357380D02*
X191476190Y-121357380D01*
X70104285Y-60237619D02*
X70866190Y-60237619D01*
X70866190Y-60237619D02*
X71628095Y-60237619D01*
X71628095Y-60237619D02*
X72390000Y-60237619D01*
X72390000Y-60237619D02*
X73151904Y-60237619D01*
X73151904Y-60237619D02*
X73913809Y-60237619D01*
X73913809Y-60237619D02*
X74675714Y-60237619D01*
X222781904Y-117277380D02*
X222781904Y-116277380D01*
X223020000Y-116277380D01*
X223162857Y-116325000D01*
X223258095Y-116420238D01*
X223305714Y-116515476D01*
X223353333Y-116705952D01*
X223353333Y-116848809D01*
X223305714Y-117039285D01*
X223258095Y-117134523D01*
X223162857Y-117229761D01*
X223020000Y-117277380D01*
X222781904Y-117277380D01*
X223734285Y-116372619D02*
X223781904Y-116325000D01*
X223877142Y-116277380D01*
X224115238Y-116277380D01*
X224210476Y-116325000D01*
X224258095Y-116372619D01*
X224305714Y-116467857D01*
X224305714Y-116563095D01*
X224258095Y-116705952D01*
X223686666Y-117277380D01*
X224305714Y-117277380D01*
X222281904Y-126437380D02*
X222853333Y-126437380D01*
X222567619Y-127437380D02*
X222567619Y-126437380D01*
X223091428Y-126437380D02*
X223758095Y-127437380D01*
X223758095Y-126437380D02*
X223091428Y-127437380D01*
X224662857Y-127437380D02*
X224091428Y-127437380D01*
X224377142Y-127437380D02*
X224377142Y-126437380D01*
X224281904Y-126580238D01*
X224186666Y-126675476D01*
X224091428Y-126723095D01*
X85979285Y-91987619D02*
X86741190Y-91987619D01*
X86741190Y-91987619D02*
X87503095Y-91987619D01*
X87503095Y-91987619D02*
X88265000Y-91987619D01*
X88265000Y-91987619D02*
X89026904Y-91987619D01*
X89026904Y-91987619D02*
X89788809Y-91987619D01*
X89788809Y-91987619D02*
X90550714Y-91987619D01*
X85979285Y-111672619D02*
X86741190Y-111672619D01*
X86741190Y-111672619D02*
X87503095Y-111672619D01*
X87503095Y-111672619D02*
X88265000Y-111672619D01*
X88265000Y-111672619D02*
X89026904Y-111672619D01*
X89026904Y-111672619D02*
X89788809Y-111672619D01*
X89788809Y-111672619D02*
X90550714Y-111672619D01*
X163830476Y-74747380D02*
X163830476Y-73747380D01*
X164259047Y-73842619D02*
X164306666Y-73795000D01*
X164401904Y-73747380D01*
X164640000Y-73747380D01*
X164735238Y-73795000D01*
X164782857Y-73842619D01*
X164830476Y-73937857D01*
X164830476Y-74033095D01*
X164782857Y-74175952D01*
X164211428Y-74747380D01*
X164830476Y-74747380D01*
X165830476Y-74652142D02*
X165782857Y-74699761D01*
X165640000Y-74747380D01*
X165544761Y-74747380D01*
X165401904Y-74699761D01*
X165306666Y-74604523D01*
X165259047Y-74509285D01*
X165211428Y-74318809D01*
X165211428Y-74175952D01*
X165259047Y-73985476D01*
X165306666Y-73890238D01*
X165401904Y-73795000D01*
X165544761Y-73747380D01*
X165640000Y-73747380D01*
X165782857Y-73795000D01*
X165830476Y-73842619D01*
X166973333Y-74699761D02*
X167068571Y-74747380D01*
X167259047Y-74747380D01*
X167354285Y-74699761D01*
X167401904Y-74604523D01*
X167401904Y-74556904D01*
X167354285Y-74461666D01*
X167259047Y-74414047D01*
X167116190Y-74414047D01*
X167020952Y-74366428D01*
X166973333Y-74271190D01*
X166973333Y-74223571D01*
X167020952Y-74128333D01*
X167116190Y-74080714D01*
X167259047Y-74080714D01*
X167354285Y-74128333D01*
X168211428Y-74699761D02*
X168116190Y-74747380D01*
X167925714Y-74747380D01*
X167830476Y-74699761D01*
X167782857Y-74604523D01*
X167782857Y-74223571D01*
X167830476Y-74128333D01*
X167925714Y-74080714D01*
X168116190Y-74080714D01*
X168211428Y-74128333D01*
X168259047Y-74223571D01*
X168259047Y-74318809D01*
X167782857Y-74414047D01*
X168687619Y-74080714D02*
X168687619Y-74747380D01*
X168687619Y-74175952D02*
X168735238Y-74128333D01*
X168830476Y-74080714D01*
X168973333Y-74080714D01*
X169068571Y-74128333D01*
X169116190Y-74223571D01*
X169116190Y-74747380D01*
X169544761Y-74699761D02*
X169640000Y-74747380D01*
X169830476Y-74747380D01*
X169925714Y-74699761D01*
X169973333Y-74604523D01*
X169973333Y-74556904D01*
X169925714Y-74461666D01*
X169830476Y-74414047D01*
X169687619Y-74414047D01*
X169592380Y-74366428D01*
X169544761Y-74271190D01*
X169544761Y-74223571D01*
X169592380Y-74128333D01*
X169687619Y-74080714D01*
X169830476Y-74080714D01*
X169925714Y-74128333D01*
X170544761Y-74747380D02*
X170449523Y-74699761D01*
X170401904Y-74652142D01*
X170354285Y-74556904D01*
X170354285Y-74271190D01*
X170401904Y-74175952D01*
X170449523Y-74128333D01*
X170544761Y-74080714D01*
X170687619Y-74080714D01*
X170782857Y-74128333D01*
X170830476Y-74175952D01*
X170878095Y-74271190D01*
X170878095Y-74556904D01*
X170830476Y-74652142D01*
X170782857Y-74699761D01*
X170687619Y-74747380D01*
X170544761Y-74747380D01*
X171306666Y-74747380D02*
X171306666Y-74080714D01*
X171306666Y-74271190D02*
X171354285Y-74175952D01*
X171401904Y-74128333D01*
X171497142Y-74080714D01*
X171592380Y-74080714D01*
X120904285Y-111037619D02*
X121666190Y-111037619D01*
X121666190Y-111037619D02*
X122428095Y-111037619D01*
X122428095Y-111037619D02*
X123190000Y-111037619D01*
X123190000Y-111037619D02*
X123951904Y-111037619D01*
X123951904Y-111037619D02*
X124713809Y-111037619D01*
X124713809Y-111037619D02*
X125475714Y-111037619D01*
X85344285Y-60237619D02*
X86106190Y-60237619D01*
X86106190Y-60237619D02*
X86868095Y-60237619D01*
X86868095Y-60237619D02*
X87630000Y-60237619D01*
X87630000Y-60237619D02*
X88391904Y-60237619D01*
X88391904Y-60237619D02*
X89153809Y-60237619D01*
X89153809Y-60237619D02*
X89915714Y-60237619D01*
X189404761Y-126437380D02*
X189738095Y-127437380D01*
X190071428Y-126437380D01*
X190404761Y-127437380D02*
X190404761Y-126437380D01*
X190880952Y-127437380D02*
X190880952Y-126437380D01*
X191452380Y-127437380D01*
X191452380Y-126437380D01*
X169215714Y-58955714D02*
X169144285Y-59027142D01*
X168930000Y-59098571D01*
X168787142Y-59098571D01*
X168572857Y-59027142D01*
X168430000Y-58884285D01*
X168358571Y-58741428D01*
X168287142Y-58455714D01*
X168287142Y-58241428D01*
X168358571Y-57955714D01*
X168430000Y-57812857D01*
X168572857Y-57670000D01*
X168787142Y-57598571D01*
X168930000Y-57598571D01*
X169144285Y-57670000D01*
X169215714Y-57741428D01*
X170644285Y-59098571D02*
X169787142Y-59098571D01*
X170215714Y-59098571D02*
X170215714Y-57598571D01*
X170072857Y-57812857D01*
X169930000Y-57955714D01*
X169787142Y-58027142D01*
X171144285Y-57598571D02*
X172144285Y-57598571D01*
X171501428Y-59098571D01*
X121440000Y-127535714D02*
X121368571Y-127607142D01*
X121154285Y-127678571D01*
X121011428Y-127678571D01*
X120797142Y-127607142D01*
X120654285Y-127464285D01*
X120582857Y-127321428D01*
X120511428Y-127035714D01*
X120511428Y-126821428D01*
X120582857Y-126535714D01*
X120654285Y-126392857D01*
X120797142Y-126250000D01*
X121011428Y-126178571D01*
X121154285Y-126178571D01*
X121368571Y-126250000D01*
X121440000Y-126321428D01*
X122082857Y-127678571D02*
X122082857Y-126178571D01*
X122082857Y-126892857D02*
X122940000Y-126892857D01*
X122940000Y-127678571D02*
X122940000Y-126178571D01*
X124440000Y-127678571D02*
X123582857Y-127678571D01*
X124011428Y-127678571D02*
X124011428Y-126178571D01*
X123868571Y-126392857D01*
X123725714Y-126535714D01*
X123582857Y-126607142D01*
X125725714Y-126178571D02*
X125440000Y-126178571D01*
X125297142Y-126250000D01*
X125225714Y-126321428D01*
X125082857Y-126535714D01*
X125011428Y-126821428D01*
X125011428Y-127392857D01*
X125082857Y-127535714D01*
X125154285Y-127607142D01*
X125297142Y-127678571D01*
X125582857Y-127678571D01*
X125725714Y-127607142D01*
X125797142Y-127535714D01*
X125868571Y-127392857D01*
X125868571Y-127035714D01*
X125797142Y-126892857D01*
X125725714Y-126821428D01*
X125582857Y-126750000D01*
X125297142Y-126750000D01*
X125154285Y-126821428D01*
X125082857Y-126892857D01*
X125011428Y-127035714D01*
X127200000Y-45787380D02*
X126866666Y-45311190D01*
X126628571Y-45787380D02*
X126628571Y-44787380D01*
X127009523Y-44787380D01*
X127104761Y-44835000D01*
X127152380Y-44882619D01*
X127200000Y-44977857D01*
X127200000Y-45120714D01*
X127152380Y-45215952D01*
X127104761Y-45263571D01*
X127009523Y-45311190D01*
X126628571Y-45311190D01*
X128009523Y-45739761D02*
X127914285Y-45787380D01*
X127723809Y-45787380D01*
X127628571Y-45739761D01*
X127580952Y-45644523D01*
X127580952Y-45263571D01*
X127628571Y-45168333D01*
X127723809Y-45120714D01*
X127914285Y-45120714D01*
X128009523Y-45168333D01*
X128057142Y-45263571D01*
X128057142Y-45358809D01*
X127580952Y-45454047D01*
X128438095Y-45739761D02*
X128533333Y-45787380D01*
X128723809Y-45787380D01*
X128819047Y-45739761D01*
X128866666Y-45644523D01*
X128866666Y-45596904D01*
X128819047Y-45501666D01*
X128723809Y-45454047D01*
X128580952Y-45454047D01*
X128485714Y-45406428D01*
X128438095Y-45311190D01*
X128438095Y-45263571D01*
X128485714Y-45168333D01*
X128580952Y-45120714D01*
X128723809Y-45120714D01*
X128819047Y-45168333D01*
X129295238Y-45787380D02*
X129295238Y-45120714D01*
X129295238Y-44787380D02*
X129247619Y-44835000D01*
X129295238Y-44882619D01*
X129342857Y-44835000D01*
X129295238Y-44787380D01*
X129295238Y-44882619D01*
X129723809Y-45739761D02*
X129819047Y-45787380D01*
X130009523Y-45787380D01*
X130104761Y-45739761D01*
X130152380Y-45644523D01*
X130152380Y-45596904D01*
X130104761Y-45501666D01*
X130009523Y-45454047D01*
X129866666Y-45454047D01*
X129771428Y-45406428D01*
X129723809Y-45311190D01*
X129723809Y-45263571D01*
X129771428Y-45168333D01*
X129866666Y-45120714D01*
X130009523Y-45120714D01*
X130104761Y-45168333D01*
X130438095Y-45120714D02*
X130819047Y-45120714D01*
X130580952Y-44787380D02*
X130580952Y-45644523D01*
X130628571Y-45739761D01*
X130723809Y-45787380D01*
X130819047Y-45787380D01*
X131152380Y-45787380D02*
X131152380Y-45120714D01*
X131152380Y-44787380D02*
X131104761Y-44835000D01*
X131152380Y-44882619D01*
X131200000Y-44835000D01*
X131152380Y-44787380D01*
X131152380Y-44882619D01*
X131533333Y-45120714D02*
X131771428Y-45787380D01*
X132009523Y-45120714D01*
X132771428Y-45739761D02*
X132676190Y-45787380D01*
X132485714Y-45787380D01*
X132390476Y-45739761D01*
X132342857Y-45644523D01*
X132342857Y-45263571D01*
X132390476Y-45168333D01*
X132485714Y-45120714D01*
X132676190Y-45120714D01*
X132771428Y-45168333D01*
X132819047Y-45263571D01*
X132819047Y-45358809D01*
X132342857Y-45454047D01*
X126961904Y-47349761D02*
X127104761Y-47397380D01*
X127342857Y-47397380D01*
X127438095Y-47349761D01*
X127485714Y-47302142D01*
X127533333Y-47206904D01*
X127533333Y-47111666D01*
X127485714Y-47016428D01*
X127438095Y-46968809D01*
X127342857Y-46921190D01*
X127152380Y-46873571D01*
X127057142Y-46825952D01*
X127009523Y-46778333D01*
X126961904Y-46683095D01*
X126961904Y-46587857D01*
X127009523Y-46492619D01*
X127057142Y-46445000D01*
X127152380Y-46397380D01*
X127390476Y-46397380D01*
X127533333Y-46445000D01*
X128342857Y-47349761D02*
X128247619Y-47397380D01*
X128057142Y-47397380D01*
X127961904Y-47349761D01*
X127914285Y-47254523D01*
X127914285Y-46873571D01*
X127961904Y-46778333D01*
X128057142Y-46730714D01*
X128247619Y-46730714D01*
X128342857Y-46778333D01*
X128390476Y-46873571D01*
X128390476Y-46968809D01*
X127914285Y-47064047D01*
X128819047Y-46730714D02*
X128819047Y-47397380D01*
X128819047Y-46825952D02*
X128866666Y-46778333D01*
X128961904Y-46730714D01*
X129104761Y-46730714D01*
X129200000Y-46778333D01*
X129247619Y-46873571D01*
X129247619Y-47397380D01*
X129676190Y-47349761D02*
X129771428Y-47397380D01*
X129961904Y-47397380D01*
X130057142Y-47349761D01*
X130104761Y-47254523D01*
X130104761Y-47206904D01*
X130057142Y-47111666D01*
X129961904Y-47064047D01*
X129819047Y-47064047D01*
X129723809Y-47016428D01*
X129676190Y-46921190D01*
X129676190Y-46873571D01*
X129723809Y-46778333D01*
X129819047Y-46730714D01*
X129961904Y-46730714D01*
X130057142Y-46778333D01*
X130676190Y-47397380D02*
X130580952Y-47349761D01*
X130533333Y-47302142D01*
X130485714Y-47206904D01*
X130485714Y-46921190D01*
X130533333Y-46825952D01*
X130580952Y-46778333D01*
X130676190Y-46730714D01*
X130819047Y-46730714D01*
X130914285Y-46778333D01*
X130961904Y-46825952D01*
X131009523Y-46921190D01*
X131009523Y-47206904D01*
X130961904Y-47302142D01*
X130914285Y-47349761D01*
X130819047Y-47397380D01*
X130676190Y-47397380D01*
X131438095Y-47397380D02*
X131438095Y-46730714D01*
X131438095Y-46921190D02*
X131485714Y-46825952D01*
X131533333Y-46778333D01*
X131628571Y-46730714D01*
X131723809Y-46730714D01*
X132009523Y-47349761D02*
X132104761Y-47397380D01*
X132295238Y-47397380D01*
X132390476Y-47349761D01*
X132438095Y-47254523D01*
X132438095Y-47206904D01*
X132390476Y-47111666D01*
X132295238Y-47064047D01*
X132152380Y-47064047D01*
X132057142Y-47016428D01*
X132009523Y-46921190D01*
X132009523Y-46873571D01*
X132057142Y-46778333D01*
X132152380Y-46730714D01*
X132295238Y-46730714D01*
X132390476Y-46778333D01*
X71354285Y-56415714D02*
X71282857Y-56487142D01*
X71068571Y-56558571D01*
X70925714Y-56558571D01*
X70711428Y-56487142D01*
X70568571Y-56344285D01*
X70497142Y-56201428D01*
X70425714Y-55915714D01*
X70425714Y-55701428D01*
X70497142Y-55415714D01*
X70568571Y-55272857D01*
X70711428Y-55130000D01*
X70925714Y-55058571D01*
X71068571Y-55058571D01*
X71282857Y-55130000D01*
X71354285Y-55201428D01*
X71997142Y-56558571D02*
X71997142Y-55058571D01*
X71997142Y-55772857D02*
X72854285Y-55772857D01*
X72854285Y-56558571D02*
X72854285Y-55058571D01*
X74354285Y-56558571D02*
X73497142Y-56558571D01*
X73925714Y-56558571D02*
X73925714Y-55058571D01*
X73782857Y-55272857D01*
X73640000Y-55415714D01*
X73497142Y-55487142D01*
X222877142Y-124897380D02*
X222543809Y-124421190D01*
X222305714Y-124897380D02*
X222305714Y-123897380D01*
X222686666Y-123897380D01*
X222781904Y-123945000D01*
X222829523Y-123992619D01*
X222877142Y-124087857D01*
X222877142Y-124230714D01*
X222829523Y-124325952D01*
X222781904Y-124373571D01*
X222686666Y-124421190D01*
X222305714Y-124421190D01*
X223210476Y-123897380D02*
X223877142Y-124897380D01*
X223877142Y-123897380D02*
X223210476Y-124897380D01*
X224448571Y-123897380D02*
X224543809Y-123897380D01*
X224639047Y-123945000D01*
X224686666Y-123992619D01*
X224734285Y-124087857D01*
X224781904Y-124278333D01*
X224781904Y-124516428D01*
X224734285Y-124706904D01*
X224686666Y-124802142D01*
X224639047Y-124849761D01*
X224543809Y-124897380D01*
X224448571Y-124897380D01*
X224353333Y-124849761D01*
X224305714Y-124802142D01*
X224258095Y-124706904D01*
X224210476Y-124516428D01*
X224210476Y-124278333D01*
X224258095Y-124087857D01*
X224305714Y-123992619D01*
X224353333Y-123945000D01*
X224448571Y-123897380D01*
X70104285Y-69587619D02*
X70866190Y-69587619D01*
X70866190Y-69587619D02*
X71628095Y-69587619D01*
X71628095Y-69587619D02*
X72390000Y-69587619D01*
X72390000Y-69587619D02*
X73151904Y-69587619D01*
X73151904Y-69587619D02*
X73913809Y-69587619D01*
X73913809Y-69587619D02*
X74675714Y-69587619D01*
X120904285Y-91987619D02*
X121666190Y-91987619D01*
X121666190Y-91987619D02*
X122428095Y-91987619D01*
X122428095Y-91987619D02*
X123190000Y-91987619D01*
X123190000Y-91987619D02*
X123951904Y-91987619D01*
X123951904Y-91987619D02*
X124713809Y-91987619D01*
X124713809Y-91987619D02*
X125475714Y-91987619D01*
X222305714Y-89337380D02*
X222305714Y-88337380D01*
X222543809Y-88337380D01*
X222686666Y-88385000D01*
X222781904Y-88480238D01*
X222829523Y-88575476D01*
X222877142Y-88765952D01*
X222877142Y-88908809D01*
X222829523Y-89099285D01*
X222781904Y-89194523D01*
X222686666Y-89289761D01*
X222543809Y-89337380D01*
X222305714Y-89337380D01*
X223829523Y-89337380D02*
X223258095Y-89337380D01*
X223543809Y-89337380D02*
X223543809Y-88337380D01*
X223448571Y-88480238D01*
X223353333Y-88575476D01*
X223258095Y-88623095D01*
X224210476Y-88432619D02*
X224258095Y-88385000D01*
X224353333Y-88337380D01*
X224591428Y-88337380D01*
X224686666Y-88385000D01*
X224734285Y-88432619D01*
X224781904Y-88527857D01*
X224781904Y-88623095D01*
X224734285Y-88765952D01*
X224162857Y-89337380D01*
X224781904Y-89337380D01*
X223023477Y-122364813D02*
X222690144Y-121888623D01*
X222452049Y-122364813D02*
X222452049Y-121364813D01*
X222833001Y-121364813D01*
X222928239Y-121412433D01*
X222975858Y-121460052D01*
X223023477Y-121555290D01*
X223023477Y-121698147D01*
X222975858Y-121793385D01*
X222928239Y-121841004D01*
X222833001Y-121888623D01*
X222452049Y-121888623D01*
X223404430Y-122317194D02*
X223547287Y-122364813D01*
X223785382Y-122364813D01*
X223880620Y-122317194D01*
X223928239Y-122269575D01*
X223975858Y-122174337D01*
X223975858Y-122079099D01*
X223928239Y-121983861D01*
X223880620Y-121936242D01*
X223785382Y-121888623D01*
X223594906Y-121841004D01*
X223499668Y-121793385D01*
X223452049Y-121745766D01*
X223404430Y-121650528D01*
X223404430Y-121555290D01*
X223452049Y-121460052D01*
X223499668Y-121412433D01*
X223594906Y-121364813D01*
X223833001Y-121364813D01*
X223975858Y-121412433D01*
X224261573Y-121364813D02*
X224833001Y-121364813D01*
X224547287Y-122364813D02*
X224547287Y-121364813D01*
X160632142Y-109672380D02*
X160632142Y-108672380D01*
X161203571Y-109672380D01*
X161203571Y-108672380D01*
X161822619Y-109672380D02*
X161727380Y-109624761D01*
X161679761Y-109577142D01*
X161632142Y-109481904D01*
X161632142Y-109196190D01*
X161679761Y-109100952D01*
X161727380Y-109053333D01*
X161822619Y-109005714D01*
X161965476Y-109005714D01*
X162060714Y-109053333D01*
X162108333Y-109100952D01*
X162155952Y-109196190D01*
X162155952Y-109481904D01*
X162108333Y-109577142D01*
X162060714Y-109624761D01*
X161965476Y-109672380D01*
X161822619Y-109672380D01*
X162584523Y-109672380D02*
X162584523Y-109005714D01*
X162584523Y-108672380D02*
X162536904Y-108720000D01*
X162584523Y-108767619D01*
X162632142Y-108720000D01*
X162584523Y-108672380D01*
X162584523Y-108767619D01*
X163013095Y-109624761D02*
X163108333Y-109672380D01*
X163298809Y-109672380D01*
X163394047Y-109624761D01*
X163441666Y-109529523D01*
X163441666Y-109481904D01*
X163394047Y-109386666D01*
X163298809Y-109339047D01*
X163155952Y-109339047D01*
X163060714Y-109291428D01*
X163013095Y-109196190D01*
X163013095Y-109148571D01*
X163060714Y-109053333D01*
X163155952Y-109005714D01*
X163298809Y-109005714D01*
X163394047Y-109053333D01*
X164251190Y-109624761D02*
X164155952Y-109672380D01*
X163965476Y-109672380D01*
X163870238Y-109624761D01*
X163822619Y-109529523D01*
X163822619Y-109148571D01*
X163870238Y-109053333D01*
X163965476Y-109005714D01*
X164155952Y-109005714D01*
X164251190Y-109053333D01*
X164298809Y-109148571D01*
X164298809Y-109243809D01*
X163822619Y-109339047D01*
X165346428Y-109005714D02*
X165727380Y-109005714D01*
X165489285Y-109672380D02*
X165489285Y-108815238D01*
X165536904Y-108720000D01*
X165632142Y-108672380D01*
X165727380Y-108672380D01*
X166060714Y-109672380D02*
X166060714Y-109005714D01*
X166060714Y-108672380D02*
X166013095Y-108720000D01*
X166060714Y-108767619D01*
X166108333Y-108720000D01*
X166060714Y-108672380D01*
X166060714Y-108767619D01*
X166679761Y-109672380D02*
X166584523Y-109624761D01*
X166536904Y-109529523D01*
X166536904Y-108672380D01*
X166917857Y-109005714D02*
X167298809Y-109005714D01*
X167060714Y-108672380D02*
X167060714Y-109529523D01*
X167108333Y-109624761D01*
X167203571Y-109672380D01*
X167298809Y-109672380D01*
X168013095Y-109624761D02*
X167917857Y-109672380D01*
X167727380Y-109672380D01*
X167632142Y-109624761D01*
X167584523Y-109529523D01*
X167584523Y-109148571D01*
X167632142Y-109053333D01*
X167727380Y-109005714D01*
X167917857Y-109005714D01*
X168013095Y-109053333D01*
X168060714Y-109148571D01*
X168060714Y-109243809D01*
X167584523Y-109339047D01*
X168489285Y-109672380D02*
X168489285Y-109005714D01*
X168489285Y-109196190D02*
X168536904Y-109100952D01*
X168584523Y-109053333D01*
X168679761Y-109005714D01*
X168775000Y-109005714D01*
X169870238Y-109291428D02*
X170632142Y-109291428D01*
X172441666Y-109577142D02*
X172394047Y-109624761D01*
X172251190Y-109672380D01*
X172155952Y-109672380D01*
X172013095Y-109624761D01*
X171917857Y-109529523D01*
X171870238Y-109434285D01*
X171822619Y-109243809D01*
X171822619Y-109100952D01*
X171870238Y-108910476D01*
X171917857Y-108815238D01*
X172013095Y-108720000D01*
X172155952Y-108672380D01*
X172251190Y-108672380D01*
X172394047Y-108720000D01*
X172441666Y-108767619D01*
X173298809Y-109672380D02*
X173298809Y-109148571D01*
X173251190Y-109053333D01*
X173155952Y-109005714D01*
X172965476Y-109005714D01*
X172870238Y-109053333D01*
X173298809Y-109624761D02*
X173203571Y-109672380D01*
X172965476Y-109672380D01*
X172870238Y-109624761D01*
X172822619Y-109529523D01*
X172822619Y-109434285D01*
X172870238Y-109339047D01*
X172965476Y-109291428D01*
X173203571Y-109291428D01*
X173298809Y-109243809D01*
X173775000Y-109005714D02*
X173775000Y-110005714D01*
X173775000Y-109053333D02*
X173870238Y-109005714D01*
X174060714Y-109005714D01*
X174155952Y-109053333D01*
X174203571Y-109100952D01*
X174251190Y-109196190D01*
X174251190Y-109481904D01*
X174203571Y-109577142D01*
X174155952Y-109624761D01*
X174060714Y-109672380D01*
X173870238Y-109672380D01*
X173775000Y-109624761D01*
X175965476Y-109672380D02*
X175394047Y-109672380D01*
X175679761Y-109672380D02*
X175679761Y-108672380D01*
X175584523Y-108815238D01*
X175489285Y-108910476D01*
X175394047Y-108958095D01*
X121440000Y-117375714D02*
X121368571Y-117447142D01*
X121154285Y-117518571D01*
X121011428Y-117518571D01*
X120797142Y-117447142D01*
X120654285Y-117304285D01*
X120582857Y-117161428D01*
X120511428Y-116875714D01*
X120511428Y-116661428D01*
X120582857Y-116375714D01*
X120654285Y-116232857D01*
X120797142Y-116090000D01*
X121011428Y-116018571D01*
X121154285Y-116018571D01*
X121368571Y-116090000D01*
X121440000Y-116161428D01*
X122082857Y-117518571D02*
X122082857Y-116018571D01*
X122082857Y-116732857D02*
X122940000Y-116732857D01*
X122940000Y-117518571D02*
X122940000Y-116018571D01*
X124440000Y-117518571D02*
X123582857Y-117518571D01*
X124011428Y-117518571D02*
X124011428Y-116018571D01*
X123868571Y-116232857D01*
X123725714Y-116375714D01*
X123582857Y-116447142D01*
X125797142Y-116018571D02*
X125082857Y-116018571D01*
X125011428Y-116732857D01*
X125082857Y-116661428D01*
X125225714Y-116590000D01*
X125582857Y-116590000D01*
X125725714Y-116661428D01*
X125797142Y-116732857D01*
X125868571Y-116875714D01*
X125868571Y-117232857D01*
X125797142Y-117375714D01*
X125725714Y-117447142D01*
X125582857Y-117518571D01*
X125225714Y-117518571D01*
X125082857Y-117447142D01*
X125011428Y-117375714D01*
X120904285Y-59737619D02*
X121666190Y-59737619D01*
X121666190Y-59737619D02*
X122428095Y-59737619D01*
X122428095Y-59737619D02*
X123190000Y-59737619D01*
X123190000Y-59737619D02*
X123951904Y-59737619D01*
X123951904Y-59737619D02*
X124713809Y-59737619D01*
X124713809Y-59737619D02*
X125475714Y-59737619D01*
X222305714Y-94417380D02*
X222305714Y-93417380D01*
X222543809Y-93417380D01*
X222686666Y-93465000D01*
X222781904Y-93560238D01*
X222829523Y-93655476D01*
X222877142Y-93845952D01*
X222877142Y-93988809D01*
X222829523Y-94179285D01*
X222781904Y-94274523D01*
X222686666Y-94369761D01*
X222543809Y-94417380D01*
X222305714Y-94417380D01*
X223829523Y-94417380D02*
X223258095Y-94417380D01*
X223543809Y-94417380D02*
X223543809Y-93417380D01*
X223448571Y-93560238D01*
X223353333Y-93655476D01*
X223258095Y-93703095D01*
X224448571Y-93417380D02*
X224543809Y-93417380D01*
X224639047Y-93465000D01*
X224686666Y-93512619D01*
X224734285Y-93607857D01*
X224781904Y-93798333D01*
X224781904Y-94036428D01*
X224734285Y-94226904D01*
X224686666Y-94322142D01*
X224639047Y-94369761D01*
X224543809Y-94417380D01*
X224448571Y-94417380D01*
X224353333Y-94369761D01*
X224305714Y-94322142D01*
X224258095Y-94226904D01*
X224210476Y-94036428D01*
X224210476Y-93798333D01*
X224258095Y-93607857D01*
X224305714Y-93512619D01*
X224353333Y-93465000D01*
X224448571Y-93417380D01*
X222270627Y-86239632D02*
X222603961Y-86239632D01*
X222746818Y-86763441D02*
X222270627Y-86763441D01*
X222270627Y-85763441D01*
X222746818Y-85763441D01*
X223175389Y-86763441D02*
X223175389Y-85763441D01*
X223508723Y-86477727D01*
X223842056Y-85763441D01*
X223842056Y-86763441D01*
X224318246Y-86763441D02*
X224318246Y-85763441D01*
X224699199Y-85763441D01*
X224794437Y-85811061D01*
X224842056Y-85858680D01*
X224889675Y-85953918D01*
X224889675Y-86096775D01*
X224842056Y-86192013D01*
X224794437Y-86239632D01*
X224699199Y-86287251D01*
X224318246Y-86287251D01*
X225175389Y-85763441D02*
X225746818Y-85763441D01*
X225461104Y-86763441D02*
X225461104Y-85763441D01*
X226270627Y-86287251D02*
X226270627Y-86763441D01*
X225937294Y-85763441D02*
X226270627Y-86287251D01*
X226603961Y-85763441D01*
X222781904Y-99497380D02*
X222781904Y-98497380D01*
X223020000Y-98497380D01*
X223162857Y-98545000D01*
X223258095Y-98640238D01*
X223305714Y-98735476D01*
X223353333Y-98925952D01*
X223353333Y-99068809D01*
X223305714Y-99259285D01*
X223258095Y-99354523D01*
X223162857Y-99449761D01*
X223020000Y-99497380D01*
X222781904Y-99497380D01*
X223924761Y-98925952D02*
X223829523Y-98878333D01*
X223781904Y-98830714D01*
X223734285Y-98735476D01*
X223734285Y-98687857D01*
X223781904Y-98592619D01*
X223829523Y-98545000D01*
X223924761Y-98497380D01*
X224115238Y-98497380D01*
X224210476Y-98545000D01*
X224258095Y-98592619D01*
X224305714Y-98687857D01*
X224305714Y-98735476D01*
X224258095Y-98830714D01*
X224210476Y-98878333D01*
X224115238Y-98925952D01*
X223924761Y-98925952D01*
X223829523Y-98973571D01*
X223781904Y-99021190D01*
X223734285Y-99116428D01*
X223734285Y-99306904D01*
X223781904Y-99402142D01*
X223829523Y-99449761D01*
X223924761Y-99497380D01*
X224115238Y-99497380D01*
X224210476Y-99449761D01*
X224258095Y-99402142D01*
X224305714Y-99306904D01*
X224305714Y-99116428D01*
X224258095Y-99021190D01*
X224210476Y-98973571D01*
X224115238Y-98925952D01*
X222758095Y-118865000D02*
X222662857Y-118817380D01*
X222520000Y-118817380D01*
X222377142Y-118865000D01*
X222281904Y-118960238D01*
X222234285Y-119055476D01*
X222186666Y-119245952D01*
X222186666Y-119388809D01*
X222234285Y-119579285D01*
X222281904Y-119674523D01*
X222377142Y-119769761D01*
X222520000Y-119817380D01*
X222615238Y-119817380D01*
X222758095Y-119769761D01*
X222805714Y-119722142D01*
X222805714Y-119388809D01*
X222615238Y-119388809D01*
X223234285Y-119817380D02*
X223234285Y-118817380D01*
X223805714Y-119817380D01*
X223805714Y-118817380D01*
X224281904Y-119817380D02*
X224281904Y-118817380D01*
X224520000Y-118817380D01*
X224662857Y-118865000D01*
X224758095Y-118960238D01*
X224805714Y-119055476D01*
X224853333Y-119245952D01*
X224853333Y-119388809D01*
X224805714Y-119579285D01*
X224758095Y-119674523D01*
X224662857Y-119769761D01*
X224520000Y-119817380D01*
X224281904Y-119817380D01*
X121440000Y-97055714D02*
X121368571Y-97127142D01*
X121154285Y-97198571D01*
X121011428Y-97198571D01*
X120797142Y-97127142D01*
X120654285Y-96984285D01*
X120582857Y-96841428D01*
X120511428Y-96555714D01*
X120511428Y-96341428D01*
X120582857Y-96055714D01*
X120654285Y-95912857D01*
X120797142Y-95770000D01*
X121011428Y-95698571D01*
X121154285Y-95698571D01*
X121368571Y-95770000D01*
X121440000Y-95841428D01*
X122082857Y-97198571D02*
X122082857Y-95698571D01*
X122082857Y-96412857D02*
X122940000Y-96412857D01*
X122940000Y-97198571D02*
X122940000Y-95698571D01*
X124440000Y-97198571D02*
X123582857Y-97198571D01*
X124011428Y-97198571D02*
X124011428Y-95698571D01*
X123868571Y-95912857D01*
X123725714Y-96055714D01*
X123582857Y-96127142D01*
X124940000Y-95698571D02*
X125868571Y-95698571D01*
X125368571Y-96270000D01*
X125582857Y-96270000D01*
X125725714Y-96341428D01*
X125797142Y-96412857D01*
X125868571Y-96555714D01*
X125868571Y-96912857D01*
X125797142Y-97055714D01*
X125725714Y-97127142D01*
X125582857Y-97198571D01*
X125154285Y-97198571D01*
X125011428Y-97127142D01*
X124940000Y-97055714D01*
X70104285Y-91987619D02*
X70866190Y-91987619D01*
X70866190Y-91987619D02*
X71628095Y-91987619D01*
X71628095Y-91987619D02*
X72390000Y-91987619D01*
X72390000Y-91987619D02*
X73151904Y-91987619D01*
X73151904Y-91987619D02*
X73913809Y-91987619D01*
X73913809Y-91987619D02*
X74675714Y-91987619D01*
X70104285Y-101377619D02*
X70866190Y-101377619D01*
X70866190Y-101377619D02*
X71628095Y-101377619D01*
X71628095Y-101377619D02*
X72390000Y-101377619D01*
X72390000Y-101377619D02*
X73151904Y-101377619D01*
X73151904Y-101377619D02*
X73913809Y-101377619D01*
X73913809Y-101377619D02*
X74675714Y-101377619D01*
X71354285Y-127535714D02*
X71282857Y-127607142D01*
X71068571Y-127678571D01*
X70925714Y-127678571D01*
X70711428Y-127607142D01*
X70568571Y-127464285D01*
X70497142Y-127321428D01*
X70425714Y-127035714D01*
X70425714Y-126821428D01*
X70497142Y-126535714D01*
X70568571Y-126392857D01*
X70711428Y-126250000D01*
X70925714Y-126178571D01*
X71068571Y-126178571D01*
X71282857Y-126250000D01*
X71354285Y-126321428D01*
X71997142Y-127678571D02*
X71997142Y-126178571D01*
X71997142Y-126892857D02*
X72854285Y-126892857D01*
X72854285Y-127678571D02*
X72854285Y-126178571D01*
X73782857Y-126821428D02*
X73640000Y-126750000D01*
X73568571Y-126678571D01*
X73497142Y-126535714D01*
X73497142Y-126464285D01*
X73568571Y-126321428D01*
X73640000Y-126250000D01*
X73782857Y-126178571D01*
X74068571Y-126178571D01*
X74211428Y-126250000D01*
X74282857Y-126321428D01*
X74354285Y-126464285D01*
X74354285Y-126535714D01*
X74282857Y-126678571D01*
X74211428Y-126750000D01*
X74068571Y-126821428D01*
X73782857Y-126821428D01*
X73640000Y-126892857D01*
X73568571Y-126964285D01*
X73497142Y-127107142D01*
X73497142Y-127392857D01*
X73568571Y-127535714D01*
X73640000Y-127607142D01*
X73782857Y-127678571D01*
X74068571Y-127678571D01*
X74211428Y-127607142D01*
X74282857Y-127535714D01*
X74354285Y-127392857D01*
X74354285Y-127107142D01*
X74282857Y-126964285D01*
X74211428Y-126892857D01*
X74068571Y-126821428D01*
X190309523Y-118817380D02*
X189833333Y-118817380D01*
X189785714Y-119293571D01*
X189833333Y-119245952D01*
X189928571Y-119198333D01*
X190166666Y-119198333D01*
X190261904Y-119245952D01*
X190309523Y-119293571D01*
X190357142Y-119388809D01*
X190357142Y-119626904D01*
X190309523Y-119722142D01*
X190261904Y-119769761D01*
X190166666Y-119817380D01*
X189928571Y-119817380D01*
X189833333Y-119769761D01*
X189785714Y-119722142D01*
X190642857Y-118817380D02*
X190976190Y-119817380D01*
X191309523Y-118817380D01*
X121440000Y-84315714D02*
X121368571Y-84387142D01*
X121154285Y-84458571D01*
X121011428Y-84458571D01*
X120797142Y-84387142D01*
X120654285Y-84244285D01*
X120582857Y-84101428D01*
X120511428Y-83815714D01*
X120511428Y-83601428D01*
X120582857Y-83315714D01*
X120654285Y-83172857D01*
X120797142Y-83030000D01*
X121011428Y-82958571D01*
X121154285Y-82958571D01*
X121368571Y-83030000D01*
X121440000Y-83101428D01*
X122082857Y-84458571D02*
X122082857Y-82958571D01*
X122082857Y-83672857D02*
X122940000Y-83672857D01*
X122940000Y-84458571D02*
X122940000Y-82958571D01*
X124440000Y-84458571D02*
X123582857Y-84458571D01*
X124011428Y-84458571D02*
X124011428Y-82958571D01*
X123868571Y-83172857D01*
X123725714Y-83315714D01*
X123582857Y-83387142D01*
X125011428Y-83101428D02*
X125082857Y-83030000D01*
X125225714Y-82958571D01*
X125582857Y-82958571D01*
X125725714Y-83030000D01*
X125797142Y-83101428D01*
X125868571Y-83244285D01*
X125868571Y-83387142D01*
X125797142Y-83601428D01*
X124940000Y-84458571D01*
X125868571Y-84458571D01*
D11*
X78708571Y-135155714D02*
X78637142Y-135227142D01*
X78422857Y-135298571D01*
X78280000Y-135298571D01*
X78065714Y-135227142D01*
X77922857Y-135084285D01*
X77851428Y-134941428D01*
X77780000Y-134655714D01*
X77780000Y-134441428D01*
X77851428Y-134155714D01*
X77922857Y-134012857D01*
X78065714Y-133870000D01*
X78280000Y-133798571D01*
X78422857Y-133798571D01*
X78637142Y-133870000D01*
X78708571Y-133941428D01*
X79565714Y-135298571D02*
X79422857Y-135227142D01*
X79351428Y-135155714D01*
X79280000Y-135012857D01*
X79280000Y-134584285D01*
X79351428Y-134441428D01*
X79422857Y-134370000D01*
X79565714Y-134298571D01*
X79780000Y-134298571D01*
X79922857Y-134370000D01*
X79994285Y-134441428D01*
X80065714Y-134584285D01*
X80065714Y-135012857D01*
X79994285Y-135155714D01*
X79922857Y-135227142D01*
X79780000Y-135298571D01*
X79565714Y-135298571D01*
X80708571Y-134298571D02*
X80708571Y-135798571D01*
X80708571Y-134370000D02*
X80851428Y-134298571D01*
X81137142Y-134298571D01*
X81280000Y-134370000D01*
X81351428Y-134441428D01*
X81422857Y-134584285D01*
X81422857Y-135012857D01*
X81351428Y-135155714D01*
X81280000Y-135227142D01*
X81137142Y-135298571D01*
X80851428Y-135298571D01*
X80708571Y-135227142D01*
X81922857Y-134298571D02*
X82280000Y-135298571D01*
X82637142Y-134298571D02*
X82280000Y-135298571D01*
X82137142Y-135655714D01*
X82065714Y-135727142D01*
X81922857Y-135798571D01*
X83208571Y-135298571D02*
X83208571Y-134298571D01*
X83208571Y-134584285D02*
X83280000Y-134441428D01*
X83351428Y-134370000D01*
X83494285Y-134298571D01*
X83637142Y-134298571D01*
X84137142Y-135298571D02*
X84137142Y-134298571D01*
X84137142Y-133798571D02*
X84065714Y-133870000D01*
X84137142Y-133941428D01*
X84208571Y-133870000D01*
X84137142Y-133798571D01*
X84137142Y-133941428D01*
X85494285Y-134298571D02*
X85494285Y-135512857D01*
X85422857Y-135655714D01*
X85351428Y-135727142D01*
X85208571Y-135798571D01*
X84994285Y-135798571D01*
X84851428Y-135727142D01*
X85494285Y-135227142D02*
X85351428Y-135298571D01*
X85065714Y-135298571D01*
X84922857Y-135227142D01*
X84851428Y-135155714D01*
X84780000Y-135012857D01*
X84780000Y-134584285D01*
X84851428Y-134441428D01*
X84922857Y-134370000D01*
X85065714Y-134298571D01*
X85351428Y-134298571D01*
X85494285Y-134370000D01*
X86208571Y-135298571D02*
X86208571Y-133798571D01*
X86851428Y-135298571D02*
X86851428Y-134512857D01*
X86780000Y-134370000D01*
X86637142Y-134298571D01*
X86422857Y-134298571D01*
X86280000Y-134370000D01*
X86208571Y-134441428D01*
X87351428Y-134298571D02*
X87922857Y-134298571D01*
X87565714Y-133798571D02*
X87565714Y-135084285D01*
X87637142Y-135227142D01*
X87780000Y-135298571D01*
X87922857Y-135298571D01*
X90780000Y-134155714D02*
X90637142Y-134084285D01*
X90351428Y-134084285D01*
X90208571Y-134155714D01*
X90065714Y-134298571D01*
X89994285Y-134441428D01*
X89994285Y-134727142D01*
X90065714Y-134870000D01*
X90208571Y-135012857D01*
X90351428Y-135084285D01*
X90637142Y-135084285D01*
X90780000Y-135012857D01*
X90494285Y-133584285D02*
X90137142Y-133655714D01*
X89780000Y-133870000D01*
X89565714Y-134227142D01*
X89494285Y-134584285D01*
X89565714Y-134941428D01*
X89780000Y-135298571D01*
X90137142Y-135512857D01*
X90494285Y-135584285D01*
X90851428Y-135512857D01*
X91208571Y-135298571D01*
X91422857Y-134941428D01*
X91494285Y-134584285D01*
X91422857Y-134227142D01*
X91208571Y-133870000D01*
X90851428Y-133655714D01*
X90494285Y-133584285D01*
X93208571Y-133941428D02*
X93280000Y-133870000D01*
X93422857Y-133798571D01*
X93780000Y-133798571D01*
X93922857Y-133870000D01*
X93994285Y-133941428D01*
X94065714Y-134084285D01*
X94065714Y-134227142D01*
X93994285Y-134441428D01*
X93137142Y-135298571D01*
X94065714Y-135298571D01*
X94994285Y-133798571D02*
X95137142Y-133798571D01*
X95280000Y-133870000D01*
X95351428Y-133941428D01*
X95422857Y-134084285D01*
X95494285Y-134370000D01*
X95494285Y-134727142D01*
X95422857Y-135012857D01*
X95351428Y-135155714D01*
X95280000Y-135227142D01*
X95137142Y-135298571D01*
X94994285Y-135298571D01*
X94851428Y-135227142D01*
X94780000Y-135155714D01*
X94708571Y-135012857D01*
X94637142Y-134727142D01*
X94637142Y-134370000D01*
X94708571Y-134084285D01*
X94780000Y-133941428D01*
X94851428Y-133870000D01*
X94994285Y-133798571D01*
X96065714Y-133941428D02*
X96137142Y-133870000D01*
X96280000Y-133798571D01*
X96637142Y-133798571D01*
X96780000Y-133870000D01*
X96851428Y-133941428D01*
X96922857Y-134084285D01*
X96922857Y-134227142D01*
X96851428Y-134441428D01*
X95994285Y-135298571D01*
X96922857Y-135298571D01*
X97494285Y-133941428D02*
X97565714Y-133870000D01*
X97708571Y-133798571D01*
X98065714Y-133798571D01*
X98208571Y-133870000D01*
X98280000Y-133941428D01*
X98351428Y-134084285D01*
X98351428Y-134227142D01*
X98280000Y-134441428D01*
X97422857Y-135298571D01*
X98351428Y-135298571D01*
X100565714Y-133798571D02*
X100565714Y-134870000D01*
X100494285Y-135084285D01*
X100351428Y-135227142D01*
X100137142Y-135298571D01*
X99994285Y-135298571D01*
X101851428Y-135227142D02*
X101708571Y-135298571D01*
X101422857Y-135298571D01*
X101280000Y-135227142D01*
X101208571Y-135084285D01*
X101208571Y-134512857D01*
X101280000Y-134370000D01*
X101422857Y-134298571D01*
X101708571Y-134298571D01*
X101851428Y-134370000D01*
X101922857Y-134512857D01*
X101922857Y-134655714D01*
X101208571Y-134798571D01*
X102565714Y-135298571D02*
X102565714Y-134298571D01*
X102565714Y-134584285D02*
X102637142Y-134441428D01*
X102708571Y-134370000D01*
X102851428Y-134298571D01*
X102994285Y-134298571D01*
X103494285Y-135298571D02*
X103494285Y-134298571D01*
X103494285Y-133798571D02*
X103422857Y-133870000D01*
X103494285Y-133941428D01*
X103565714Y-133870000D01*
X103494285Y-133798571D01*
X103494285Y-133941428D01*
X104851428Y-135227142D02*
X104708571Y-135298571D01*
X104422857Y-135298571D01*
X104280000Y-135227142D01*
X104208571Y-135155714D01*
X104137142Y-135012857D01*
X104137142Y-134584285D01*
X104208571Y-134441428D01*
X104280000Y-134370000D01*
X104422857Y-134298571D01*
X104708571Y-134298571D01*
X104851428Y-134370000D01*
X105494285Y-135298571D02*
X105494285Y-133798571D01*
X106137142Y-135298571D02*
X106137142Y-134512857D01*
X106065714Y-134370000D01*
X105922857Y-134298571D01*
X105708571Y-134298571D01*
X105565714Y-134370000D01*
X105494285Y-134441428D01*
X107065714Y-135298571D02*
X106922857Y-135227142D01*
X106851428Y-135155714D01*
X106780000Y-135012857D01*
X106780000Y-134584285D01*
X106851428Y-134441428D01*
X106922857Y-134370000D01*
X107065714Y-134298571D01*
X107280000Y-134298571D01*
X107422857Y-134370000D01*
X107494285Y-134441428D01*
X107565714Y-134584285D01*
X107565714Y-135012857D01*
X107494285Y-135155714D01*
X107422857Y-135227142D01*
X107280000Y-135298571D01*
X107065714Y-135298571D01*
X110065714Y-135298571D02*
X109351428Y-135298571D01*
X109351428Y-133798571D01*
X111208571Y-135298571D02*
X111208571Y-134512857D01*
X111137142Y-134370000D01*
X110994285Y-134298571D01*
X110708571Y-134298571D01*
X110565714Y-134370000D01*
X111208571Y-135227142D02*
X111065714Y-135298571D01*
X110708571Y-135298571D01*
X110565714Y-135227142D01*
X110494285Y-135084285D01*
X110494285Y-134941428D01*
X110565714Y-134798571D01*
X110708571Y-134727142D01*
X111065714Y-134727142D01*
X111208571Y-134655714D01*
X111922857Y-135298571D02*
X111922857Y-133798571D01*
X111922857Y-134370000D02*
X112065714Y-134298571D01*
X112351428Y-134298571D01*
X112494285Y-134370000D01*
X112565714Y-134441428D01*
X112637142Y-134584285D01*
X112637142Y-135012857D01*
X112565714Y-135155714D01*
X112494285Y-135227142D01*
X112351428Y-135298571D01*
X112065714Y-135298571D01*
X111922857Y-135227142D01*
X113494285Y-135298571D02*
X113351428Y-135227142D01*
X113280000Y-135155714D01*
X113208571Y-135012857D01*
X113208571Y-134584285D01*
X113280000Y-134441428D01*
X113351428Y-134370000D01*
X113494285Y-134298571D01*
X113708571Y-134298571D01*
X113851428Y-134370000D01*
X113922857Y-134441428D01*
X113994285Y-134584285D01*
X113994285Y-135012857D01*
X113922857Y-135155714D01*
X113851428Y-135227142D01*
X113708571Y-135298571D01*
X113494285Y-135298571D01*
X114637142Y-135298571D02*
X114637142Y-134298571D01*
X114637142Y-134584285D02*
X114708571Y-134441428D01*
X114780000Y-134370000D01*
X114922857Y-134298571D01*
X115065714Y-134298571D01*
X116208571Y-135298571D02*
X116208571Y-134512857D01*
X116137142Y-134370000D01*
X115994285Y-134298571D01*
X115708571Y-134298571D01*
X115565714Y-134370000D01*
X116208571Y-135227142D02*
X116065714Y-135298571D01*
X115708571Y-135298571D01*
X115565714Y-135227142D01*
X115494285Y-135084285D01*
X115494285Y-134941428D01*
X115565714Y-134798571D01*
X115708571Y-134727142D01*
X116065714Y-134727142D01*
X116208571Y-134655714D01*
X116708571Y-134298571D02*
X117280000Y-134298571D01*
X116922857Y-133798571D02*
X116922857Y-135084285D01*
X116994285Y-135227142D01*
X117137142Y-135298571D01*
X117280000Y-135298571D01*
X117994285Y-135298571D02*
X117851428Y-135227142D01*
X117780000Y-135155714D01*
X117708571Y-135012857D01*
X117708571Y-134584285D01*
X117780000Y-134441428D01*
X117851428Y-134370000D01*
X117994285Y-134298571D01*
X118208571Y-134298571D01*
X118351428Y-134370000D01*
X118422857Y-134441428D01*
X118494285Y-134584285D01*
X118494285Y-135012857D01*
X118422857Y-135155714D01*
X118351428Y-135227142D01*
X118208571Y-135298571D01*
X117994285Y-135298571D01*
X119137142Y-135298571D02*
X119137142Y-134298571D01*
X119137142Y-134584285D02*
X119208571Y-134441428D01*
X119280000Y-134370000D01*
X119422857Y-134298571D01*
X119565714Y-134298571D01*
X119922857Y-134298571D02*
X120280000Y-135298571D01*
X120637142Y-134298571D02*
X120280000Y-135298571D01*
X120137142Y-135655714D01*
X120065714Y-135727142D01*
X119922857Y-135798571D01*
X122351428Y-135298571D02*
X122351428Y-133798571D01*
X123065714Y-134298571D02*
X123065714Y-135298571D01*
X123065714Y-134441428D02*
X123137142Y-134370000D01*
X123280000Y-134298571D01*
X123494285Y-134298571D01*
X123637142Y-134370000D01*
X123708571Y-134512857D01*
X123708571Y-135298571D01*
X125065714Y-135227142D02*
X124922857Y-135298571D01*
X124637142Y-135298571D01*
X124494285Y-135227142D01*
X124422857Y-135155714D01*
X124351428Y-135012857D01*
X124351428Y-134584285D01*
X124422857Y-134441428D01*
X124494285Y-134370000D01*
X124637142Y-134298571D01*
X124922857Y-134298571D01*
X125065714Y-134370000D01*
X125708571Y-135155714D02*
X125780000Y-135227142D01*
X125708571Y-135298571D01*
X125637142Y-135227142D01*
X125708571Y-135155714D01*
X125708571Y-135298571D01*
X127565714Y-134727142D02*
X128708571Y-134727142D01*
X130565714Y-135298571D02*
X130565714Y-133798571D01*
X131065714Y-134870000D01*
X131565714Y-133798571D01*
X131565714Y-135298571D01*
X132280000Y-135298571D02*
X132280000Y-133798571D01*
X132780000Y-133798571D02*
X133637142Y-133798571D01*
X133208571Y-135298571D02*
X133208571Y-133798571D01*
X135494285Y-135298571D02*
X135351428Y-135227142D01*
X135280000Y-135084285D01*
X135280000Y-133798571D01*
X136065714Y-135298571D02*
X136065714Y-134298571D01*
X136065714Y-133798571D02*
X135994285Y-133870000D01*
X136065714Y-133941428D01*
X136137142Y-133870000D01*
X136065714Y-133798571D01*
X136065714Y-133941428D01*
X137422857Y-135227142D02*
X137280000Y-135298571D01*
X136994285Y-135298571D01*
X136851428Y-135227142D01*
X136780000Y-135155714D01*
X136708571Y-135012857D01*
X136708571Y-134584285D01*
X136780000Y-134441428D01*
X136851428Y-134370000D01*
X136994285Y-134298571D01*
X137280000Y-134298571D01*
X137422857Y-134370000D01*
X138637142Y-135227142D02*
X138494285Y-135298571D01*
X138208571Y-135298571D01*
X138065714Y-135227142D01*
X137994285Y-135084285D01*
X137994285Y-134512857D01*
X138065714Y-134370000D01*
X138208571Y-134298571D01*
X138494285Y-134298571D01*
X138637142Y-134370000D01*
X138708571Y-134512857D01*
X138708571Y-134655714D01*
X137994285Y-134798571D01*
X139351428Y-134298571D02*
X139351428Y-135298571D01*
X139351428Y-134441428D02*
X139422857Y-134370000D01*
X139565714Y-134298571D01*
X139780000Y-134298571D01*
X139922857Y-134370000D01*
X139994285Y-134512857D01*
X139994285Y-135298571D01*
X140637142Y-135227142D02*
X140780000Y-135298571D01*
X141065714Y-135298571D01*
X141208571Y-135227142D01*
X141280000Y-135084285D01*
X141280000Y-135012857D01*
X141208571Y-134870000D01*
X141065714Y-134798571D01*
X140851428Y-134798571D01*
X140708571Y-134727142D01*
X140637142Y-134584285D01*
X140637142Y-134512857D01*
X140708571Y-134370000D01*
X140851428Y-134298571D01*
X141065714Y-134298571D01*
X141208571Y-134370000D01*
X142494285Y-135227142D02*
X142351428Y-135298571D01*
X142065714Y-135298571D01*
X141922857Y-135227142D01*
X141851428Y-135084285D01*
X141851428Y-134512857D01*
X141922857Y-134370000D01*
X142065714Y-134298571D01*
X142351428Y-134298571D01*
X142494285Y-134370000D01*
X142565714Y-134512857D01*
X142565714Y-134655714D01*
X141851428Y-134798571D01*
X144351428Y-134727142D02*
X145494285Y-134727142D01*
X148208571Y-135298571D02*
X147708571Y-134584285D01*
X147351428Y-135298571D02*
X147351428Y-133798571D01*
X147922857Y-133798571D01*
X148065714Y-133870000D01*
X148137142Y-133941428D01*
X148208571Y-134084285D01*
X148208571Y-134298571D01*
X148137142Y-134441428D01*
X148065714Y-134512857D01*
X147922857Y-134584285D01*
X147351428Y-134584285D01*
X149422857Y-135227142D02*
X149280000Y-135298571D01*
X148994285Y-135298571D01*
X148851428Y-135227142D01*
X148780000Y-135084285D01*
X148780000Y-134512857D01*
X148851428Y-134370000D01*
X148994285Y-134298571D01*
X149280000Y-134298571D01*
X149422857Y-134370000D01*
X149494285Y-134512857D01*
X149494285Y-134655714D01*
X148780000Y-134798571D01*
X150065714Y-135227142D02*
X150208571Y-135298571D01*
X150494285Y-135298571D01*
X150637142Y-135227142D01*
X150708571Y-135084285D01*
X150708571Y-135012857D01*
X150637142Y-134870000D01*
X150494285Y-134798571D01*
X150280000Y-134798571D01*
X150137142Y-134727142D01*
X150065714Y-134584285D01*
X150065714Y-134512857D01*
X150137142Y-134370000D01*
X150280000Y-134298571D01*
X150494285Y-134298571D01*
X150637142Y-134370000D01*
X151351428Y-135298571D02*
X151351428Y-134298571D01*
X151351428Y-133798571D02*
X151280000Y-133870000D01*
X151351428Y-133941428D01*
X151422857Y-133870000D01*
X151351428Y-133798571D01*
X151351428Y-133941428D01*
X151994285Y-135227142D02*
X152137142Y-135298571D01*
X152422857Y-135298571D01*
X152565714Y-135227142D01*
X152637142Y-135084285D01*
X152637142Y-135012857D01*
X152565714Y-134870000D01*
X152422857Y-134798571D01*
X152208571Y-134798571D01*
X152065714Y-134727142D01*
X151994285Y-134584285D01*
X151994285Y-134512857D01*
X152065714Y-134370000D01*
X152208571Y-134298571D01*
X152422857Y-134298571D01*
X152565714Y-134370000D01*
X153065714Y-134298571D02*
X153637142Y-134298571D01*
X153280000Y-133798571D02*
X153280000Y-135084285D01*
X153351428Y-135227142D01*
X153494285Y-135298571D01*
X153637142Y-135298571D01*
X154780000Y-135298571D02*
X154780000Y-134512857D01*
X154708571Y-134370000D01*
X154565714Y-134298571D01*
X154280000Y-134298571D01*
X154137142Y-134370000D01*
X154780000Y-135227142D02*
X154637142Y-135298571D01*
X154280000Y-135298571D01*
X154137142Y-135227142D01*
X154065714Y-135084285D01*
X154065714Y-134941428D01*
X154137142Y-134798571D01*
X154280000Y-134727142D01*
X154637142Y-134727142D01*
X154780000Y-134655714D01*
X155494285Y-134298571D02*
X155494285Y-135298571D01*
X155494285Y-134441428D02*
X155565714Y-134370000D01*
X155708571Y-134298571D01*
X155922857Y-134298571D01*
X156065714Y-134370000D01*
X156137142Y-134512857D01*
X156137142Y-135298571D01*
X157494285Y-135227142D02*
X157351428Y-135298571D01*
X157065714Y-135298571D01*
X156922857Y-135227142D01*
X156851428Y-135155714D01*
X156780000Y-135012857D01*
X156780000Y-134584285D01*
X156851428Y-134441428D01*
X156922857Y-134370000D01*
X157065714Y-134298571D01*
X157351428Y-134298571D01*
X157494285Y-134370000D01*
X158708571Y-135227142D02*
X158565714Y-135298571D01*
X158280000Y-135298571D01*
X158137142Y-135227142D01*
X158065714Y-135084285D01*
X158065714Y-134512857D01*
X158137142Y-134370000D01*
X158280000Y-134298571D01*
X158565714Y-134298571D01*
X158708571Y-134370000D01*
X158780000Y-134512857D01*
X158780000Y-134655714D01*
X158065714Y-134798571D01*
X160565714Y-135298571D02*
X160565714Y-133798571D01*
X160922857Y-133798571D01*
X161137142Y-133870000D01*
X161280000Y-134012857D01*
X161351428Y-134155714D01*
X161422857Y-134441428D01*
X161422857Y-134655714D01*
X161351428Y-134941428D01*
X161280000Y-135084285D01*
X161137142Y-135227142D01*
X160922857Y-135298571D01*
X160565714Y-135298571D01*
X162708571Y-135298571D02*
X162708571Y-134512857D01*
X162637142Y-134370000D01*
X162494285Y-134298571D01*
X162208571Y-134298571D01*
X162065714Y-134370000D01*
X162708571Y-135227142D02*
X162565714Y-135298571D01*
X162208571Y-135298571D01*
X162065714Y-135227142D01*
X161994285Y-135084285D01*
X161994285Y-134941428D01*
X162065714Y-134798571D01*
X162208571Y-134727142D01*
X162565714Y-134727142D01*
X162708571Y-134655714D01*
X163208571Y-134298571D02*
X163780000Y-134298571D01*
X163422857Y-133798571D02*
X163422857Y-135084285D01*
X163494285Y-135227142D01*
X163637142Y-135298571D01*
X163780000Y-135298571D01*
X164922857Y-135298571D02*
X164922857Y-134512857D01*
X164851428Y-134370000D01*
X164708571Y-134298571D01*
X164422857Y-134298571D01*
X164280000Y-134370000D01*
X164922857Y-135227142D02*
X164780000Y-135298571D01*
X164422857Y-135298571D01*
X164280000Y-135227142D01*
X164208571Y-135084285D01*
X164208571Y-134941428D01*
X164280000Y-134798571D01*
X164422857Y-134727142D01*
X164780000Y-134727142D01*
X164922857Y-134655714D01*
X167494285Y-135298571D02*
X166780000Y-135298571D01*
X166780000Y-133798571D01*
X168208571Y-135298571D02*
X168065714Y-135227142D01*
X167994285Y-135155714D01*
X167922857Y-135012857D01*
X167922857Y-134584285D01*
X167994285Y-134441428D01*
X168065714Y-134370000D01*
X168208571Y-134298571D01*
X168422857Y-134298571D01*
X168565714Y-134370000D01*
X168637142Y-134441428D01*
X168708571Y-134584285D01*
X168708571Y-135012857D01*
X168637142Y-135155714D01*
X168565714Y-135227142D01*
X168422857Y-135298571D01*
X168208571Y-135298571D01*
X169994285Y-134298571D02*
X169994285Y-135512857D01*
X169922857Y-135655714D01*
X169851428Y-135727142D01*
X169708571Y-135798571D01*
X169494285Y-135798571D01*
X169351428Y-135727142D01*
X169994285Y-135227142D02*
X169851428Y-135298571D01*
X169565714Y-135298571D01*
X169422857Y-135227142D01*
X169351428Y-135155714D01*
X169280000Y-135012857D01*
X169280000Y-134584285D01*
X169351428Y-134441428D01*
X169422857Y-134370000D01*
X169565714Y-134298571D01*
X169851428Y-134298571D01*
X169994285Y-134370000D01*
X171351428Y-134298571D02*
X171351428Y-135512857D01*
X171280000Y-135655714D01*
X171208571Y-135727142D01*
X171065714Y-135798571D01*
X170851428Y-135798571D01*
X170708571Y-135727142D01*
X171351428Y-135227142D02*
X171208571Y-135298571D01*
X170922857Y-135298571D01*
X170780000Y-135227142D01*
X170708571Y-135155714D01*
X170637142Y-135012857D01*
X170637142Y-134584285D01*
X170708571Y-134441428D01*
X170780000Y-134370000D01*
X170922857Y-134298571D01*
X171208571Y-134298571D01*
X171351428Y-134370000D01*
X172637142Y-135227142D02*
X172494285Y-135298571D01*
X172208571Y-135298571D01*
X172065714Y-135227142D01*
X171994285Y-135084285D01*
X171994285Y-134512857D01*
X172065714Y-134370000D01*
X172208571Y-134298571D01*
X172494285Y-134298571D01*
X172637142Y-134370000D01*
X172708571Y-134512857D01*
X172708571Y-134655714D01*
X171994285Y-134798571D01*
X173351428Y-135298571D02*
X173351428Y-134298571D01*
X173351428Y-134584285D02*
X173422857Y-134441428D01*
X173494285Y-134370000D01*
X173637142Y-134298571D01*
X173780000Y-134298571D01*
X175422857Y-134727142D02*
X176565714Y-134727142D01*
X179280000Y-135298571D02*
X178780000Y-134584285D01*
X178422857Y-135298571D02*
X178422857Y-133798571D01*
X178994285Y-133798571D01*
X179137142Y-133870000D01*
X179208571Y-133941428D01*
X179280000Y-134084285D01*
X179280000Y-134298571D01*
X179208571Y-134441428D01*
X179137142Y-134512857D01*
X178994285Y-134584285D01*
X178422857Y-134584285D01*
X179922857Y-135298571D02*
X179922857Y-133798571D01*
X180280000Y-133798571D01*
X180494285Y-133870000D01*
X180637142Y-134012857D01*
X180708571Y-134155714D01*
X180780000Y-134441428D01*
X180780000Y-134655714D01*
X180708571Y-134941428D01*
X180637142Y-135084285D01*
X180494285Y-135227142D01*
X180280000Y-135298571D01*
X179922857Y-135298571D01*
X182137142Y-135298571D02*
X181422857Y-135298571D01*
X181422857Y-133798571D01*
X184637142Y-135298571D02*
X184137142Y-134584285D01*
X183780000Y-135298571D02*
X183780000Y-133798571D01*
X184351428Y-133798571D01*
X184494285Y-133870000D01*
X184565714Y-133941428D01*
X184637142Y-134084285D01*
X184637142Y-134298571D01*
X184565714Y-134441428D01*
X184494285Y-134512857D01*
X184351428Y-134584285D01*
X183780000Y-134584285D01*
X185851428Y-135227142D02*
X185708571Y-135298571D01*
X185422857Y-135298571D01*
X185280000Y-135227142D01*
X185208571Y-135084285D01*
X185208571Y-134512857D01*
X185280000Y-134370000D01*
X185422857Y-134298571D01*
X185708571Y-134298571D01*
X185851428Y-134370000D01*
X185922857Y-134512857D01*
X185922857Y-134655714D01*
X185208571Y-134798571D01*
X186422857Y-134298571D02*
X186780000Y-135298571D01*
X187137142Y-134298571D01*
X188851428Y-135298571D02*
X188851428Y-133798571D01*
X189208571Y-133798571D01*
X189422857Y-133870000D01*
X189565714Y-134012857D01*
X189637142Y-134155714D01*
X189708571Y-134441428D01*
X189708571Y-134655714D01*
X189637142Y-134941428D01*
X189565714Y-135084285D01*
X189422857Y-135227142D01*
X189208571Y-135298571D01*
X188851428Y-135298571D01*
X190994285Y-134298571D02*
X190994285Y-135298571D01*
X190637142Y-133727142D02*
X190280000Y-134798571D01*
X191208571Y-134798571D01*
X192922857Y-134727142D02*
X194065714Y-134727142D01*
X195922857Y-134298571D02*
X195922857Y-135584285D01*
X195851428Y-135727142D01*
X195708571Y-135798571D01*
X195637142Y-135798571D01*
X195922857Y-133798571D02*
X195851428Y-133870000D01*
X195922857Y-133941428D01*
X195994285Y-133870000D01*
X195922857Y-133798571D01*
X195922857Y-133941428D01*
X197208571Y-135227142D02*
X197065714Y-135298571D01*
X196780000Y-135298571D01*
X196637142Y-135227142D01*
X196565714Y-135084285D01*
X196565714Y-134512857D01*
X196637142Y-134370000D01*
X196780000Y-134298571D01*
X197065714Y-134298571D01*
X197208571Y-134370000D01*
X197280000Y-134512857D01*
X197280000Y-134655714D01*
X196565714Y-134798571D01*
X197922857Y-135298571D02*
X197922857Y-134298571D01*
X197922857Y-134584285D02*
X197994285Y-134441428D01*
X198065714Y-134370000D01*
X198208571Y-134298571D01*
X198351428Y-134298571D01*
X198851428Y-135298571D02*
X198851428Y-134298571D01*
X198851428Y-133798571D02*
X198780000Y-133870000D01*
X198851428Y-133941428D01*
X198922857Y-133870000D01*
X198851428Y-133798571D01*
X198851428Y-133941428D01*
X200208571Y-135227142D02*
X200065714Y-135298571D01*
X199780000Y-135298571D01*
X199637142Y-135227142D01*
X199565714Y-135155714D01*
X199494285Y-135012857D01*
X199494285Y-134584285D01*
X199565714Y-134441428D01*
X199637142Y-134370000D01*
X199780000Y-134298571D01*
X200065714Y-134298571D01*
X200208571Y-134370000D01*
X200851428Y-135298571D02*
X200851428Y-133798571D01*
X201494285Y-135298571D02*
X201494285Y-134512857D01*
X201422857Y-134370000D01*
X201280000Y-134298571D01*
X201065714Y-134298571D01*
X200922857Y-134370000D01*
X200851428Y-134441428D01*
X202422857Y-135298571D02*
X202280000Y-135227142D01*
X202208571Y-135155714D01*
X202137142Y-135012857D01*
X202137142Y-134584285D01*
X202208571Y-134441428D01*
X202280000Y-134370000D01*
X202422857Y-134298571D01*
X202637142Y-134298571D01*
X202780000Y-134370000D01*
X202851428Y-134441428D01*
X202922857Y-134584285D01*
X202922857Y-135012857D01*
X202851428Y-135155714D01*
X202780000Y-135227142D01*
X202637142Y-135298571D01*
X202422857Y-135298571D01*
X203780000Y-135298571D02*
X203637142Y-135227142D01*
X203565714Y-135084285D01*
X203565714Y-133798571D01*
X204994285Y-135298571D02*
X204994285Y-134512857D01*
X204922857Y-134370000D01*
X204780000Y-134298571D01*
X204494285Y-134298571D01*
X204351428Y-134370000D01*
X204994285Y-135227142D02*
X204851428Y-135298571D01*
X204494285Y-135298571D01*
X204351428Y-135227142D01*
X204280000Y-135084285D01*
X204280000Y-134941428D01*
X204351428Y-134798571D01*
X204494285Y-134727142D01*
X204851428Y-134727142D01*
X204994285Y-134655714D01*
X205708571Y-135298571D02*
X205708571Y-133798571D01*
X205708571Y-134370000D02*
X205851428Y-134298571D01*
X206137142Y-134298571D01*
X206280000Y-134370000D01*
X206351428Y-134441428D01*
X206422857Y-134584285D01*
X206422857Y-135012857D01*
X206351428Y-135155714D01*
X206280000Y-135227142D01*
X206137142Y-135298571D01*
X205851428Y-135298571D01*
X205708571Y-135227142D01*
X207065714Y-135155714D02*
X207137142Y-135227142D01*
X207065714Y-135298571D01*
X206994285Y-135227142D01*
X207065714Y-135155714D01*
X207065714Y-135298571D01*
X208422857Y-135227142D02*
X208280000Y-135298571D01*
X207994285Y-135298571D01*
X207851428Y-135227142D01*
X207780000Y-135155714D01*
X207708571Y-135012857D01*
X207708571Y-134584285D01*
X207780000Y-134441428D01*
X207851428Y-134370000D01*
X207994285Y-134298571D01*
X208280000Y-134298571D01*
X208422857Y-134370000D01*
X209280000Y-135298571D02*
X209137142Y-135227142D01*
X209065714Y-135155714D01*
X208994285Y-135012857D01*
X208994285Y-134584285D01*
X209065714Y-134441428D01*
X209137142Y-134370000D01*
X209280000Y-134298571D01*
X209494285Y-134298571D01*
X209637142Y-134370000D01*
X209708571Y-134441428D01*
X209780000Y-134584285D01*
X209780000Y-135012857D01*
X209708571Y-135155714D01*
X209637142Y-135227142D01*
X209494285Y-135298571D01*
X209280000Y-135298571D01*
X210422857Y-135298571D02*
X210422857Y-134298571D01*
X210422857Y-134441428D02*
X210494285Y-134370000D01*
X210637142Y-134298571D01*
X210851428Y-134298571D01*
X210994285Y-134370000D01*
X211065714Y-134512857D01*
X211065714Y-135298571D01*
X211065714Y-134512857D02*
X211137142Y-134370000D01*
X211280000Y-134298571D01*
X211494285Y-134298571D01*
X211637142Y-134370000D01*
X211708571Y-134512857D01*
X211708571Y-135298571D01*
X101668571Y-131488571D02*
X101668571Y-129988571D01*
X102168571Y-131060000D01*
X102668571Y-129988571D01*
X102668571Y-131488571D01*
X104025714Y-131488571D02*
X104025714Y-130702857D01*
X103954285Y-130560000D01*
X103811428Y-130488571D01*
X103525714Y-130488571D01*
X103382857Y-130560000D01*
X104025714Y-131417142D02*
X103882857Y-131488571D01*
X103525714Y-131488571D01*
X103382857Y-131417142D01*
X103311428Y-131274285D01*
X103311428Y-131131428D01*
X103382857Y-130988571D01*
X103525714Y-130917142D01*
X103882857Y-130917142D01*
X104025714Y-130845714D01*
X105382857Y-131488571D02*
X105382857Y-129988571D01*
X105382857Y-131417142D02*
X105240000Y-131488571D01*
X104954285Y-131488571D01*
X104811428Y-131417142D01*
X104740000Y-131345714D01*
X104668571Y-131202857D01*
X104668571Y-130774285D01*
X104740000Y-130631428D01*
X104811428Y-130560000D01*
X104954285Y-130488571D01*
X105240000Y-130488571D01*
X105382857Y-130560000D01*
X106668571Y-131417142D02*
X106525714Y-131488571D01*
X106240000Y-131488571D01*
X106097142Y-131417142D01*
X106025714Y-131274285D01*
X106025714Y-130702857D01*
X106097142Y-130560000D01*
X106240000Y-130488571D01*
X106525714Y-130488571D01*
X106668571Y-130560000D01*
X106740000Y-130702857D01*
X106740000Y-130845714D01*
X106025714Y-130988571D01*
X108525714Y-131488571D02*
X108525714Y-130488571D01*
X108525714Y-129988571D02*
X108454285Y-130060000D01*
X108525714Y-130131428D01*
X108597142Y-130060000D01*
X108525714Y-129988571D01*
X108525714Y-130131428D01*
X109240000Y-130488571D02*
X109240000Y-131488571D01*
X109240000Y-130631428D02*
X109311428Y-130560000D01*
X109454285Y-130488571D01*
X109668571Y-130488571D01*
X109811428Y-130560000D01*
X109882857Y-130702857D01*
X109882857Y-131488571D01*
X112597142Y-131345714D02*
X112525714Y-131417142D01*
X112311428Y-131488571D01*
X112168571Y-131488571D01*
X111954285Y-131417142D01*
X111811428Y-131274285D01*
X111740000Y-131131428D01*
X111668571Y-130845714D01*
X111668571Y-130631428D01*
X111740000Y-130345714D01*
X111811428Y-130202857D01*
X111954285Y-130060000D01*
X112168571Y-129988571D01*
X112311428Y-129988571D01*
X112525714Y-130060000D01*
X112597142Y-130131428D01*
X113882857Y-131488571D02*
X113882857Y-130702857D01*
X113811428Y-130560000D01*
X113668571Y-130488571D01*
X113382857Y-130488571D01*
X113240000Y-130560000D01*
X113882857Y-131417142D02*
X113740000Y-131488571D01*
X113382857Y-131488571D01*
X113240000Y-131417142D01*
X113168571Y-131274285D01*
X113168571Y-131131428D01*
X113240000Y-130988571D01*
X113382857Y-130917142D01*
X113740000Y-130917142D01*
X113882857Y-130845714D01*
X114597142Y-130488571D02*
X114597142Y-131488571D01*
X114597142Y-130631428D02*
X114668571Y-130560000D01*
X114811428Y-130488571D01*
X115025714Y-130488571D01*
X115168571Y-130560000D01*
X115240000Y-130702857D01*
X115240000Y-131488571D01*
X116597142Y-131488571D02*
X116597142Y-130702857D01*
X116525714Y-130560000D01*
X116382857Y-130488571D01*
X116097142Y-130488571D01*
X115954285Y-130560000D01*
X116597142Y-131417142D02*
X116454285Y-131488571D01*
X116097142Y-131488571D01*
X115954285Y-131417142D01*
X115882857Y-131274285D01*
X115882857Y-131131428D01*
X115954285Y-130988571D01*
X116097142Y-130917142D01*
X116454285Y-130917142D01*
X116597142Y-130845714D01*
X117954285Y-131488571D02*
X117954285Y-129988571D01*
X117954285Y-131417142D02*
X117811428Y-131488571D01*
X117525714Y-131488571D01*
X117382857Y-131417142D01*
X117311428Y-131345714D01*
X117240000Y-131202857D01*
X117240000Y-130774285D01*
X117311428Y-130631428D01*
X117382857Y-130560000D01*
X117525714Y-130488571D01*
X117811428Y-130488571D01*
X117954285Y-130560000D01*
X119311428Y-131488571D02*
X119311428Y-130702857D01*
X119240000Y-130560000D01*
X119097142Y-130488571D01*
X118811428Y-130488571D01*
X118668571Y-130560000D01*
X119311428Y-131417142D02*
X119168571Y-131488571D01*
X118811428Y-131488571D01*
X118668571Y-131417142D01*
X118597142Y-131274285D01*
X118597142Y-131131428D01*
X118668571Y-130988571D01*
X118811428Y-130917142D01*
X119168571Y-130917142D01*
X119311428Y-130845714D01*
D10*
X189785714Y-116991666D02*
X190261904Y-116991666D01*
X189690476Y-117277380D02*
X190023809Y-116277380D01*
X190357142Y-117277380D01*
X190595238Y-116277380D02*
X191261904Y-116277380D01*
X190833333Y-117277380D01*
X85344285Y-69127619D02*
X86106190Y-69127619D01*
X86106190Y-69127619D02*
X86868095Y-69127619D01*
X86868095Y-69127619D02*
X87630000Y-69127619D01*
X87630000Y-69127619D02*
X88391904Y-69127619D01*
X88391904Y-69127619D02*
X89153809Y-69127619D01*
X89153809Y-69127619D02*
X89915714Y-69127619D01*
X222781904Y-109657380D02*
X222781904Y-108657380D01*
X223020000Y-108657380D01*
X223162857Y-108705000D01*
X223258095Y-108800238D01*
X223305714Y-108895476D01*
X223353333Y-109085952D01*
X223353333Y-109228809D01*
X223305714Y-109419285D01*
X223258095Y-109514523D01*
X223162857Y-109609761D01*
X223020000Y-109657380D01*
X222781904Y-109657380D01*
X224258095Y-108657380D02*
X223781904Y-108657380D01*
X223734285Y-109133571D01*
X223781904Y-109085952D01*
X223877142Y-109038333D01*
X224115238Y-109038333D01*
X224210476Y-109085952D01*
X224258095Y-109133571D01*
X224305714Y-109228809D01*
X224305714Y-109466904D01*
X224258095Y-109562142D01*
X224210476Y-109609761D01*
X224115238Y-109657380D01*
X223877142Y-109657380D01*
X223781904Y-109609761D01*
X223734285Y-109562142D01*
X120904285Y-121197619D02*
X121666190Y-121197619D01*
X121666190Y-121197619D02*
X122428095Y-121197619D01*
X122428095Y-121197619D02*
X123190000Y-121197619D01*
X123190000Y-121197619D02*
X123951904Y-121197619D01*
X123951904Y-121197619D02*
X124713809Y-121197619D01*
X124713809Y-121197619D02*
X125475714Y-121197619D01*
X222781904Y-114737380D02*
X222781904Y-113737380D01*
X223020000Y-113737380D01*
X223162857Y-113785000D01*
X223258095Y-113880238D01*
X223305714Y-113975476D01*
X223353333Y-114165952D01*
X223353333Y-114308809D01*
X223305714Y-114499285D01*
X223258095Y-114594523D01*
X223162857Y-114689761D01*
X223020000Y-114737380D01*
X222781904Y-114737380D01*
X223686666Y-113737380D02*
X224305714Y-113737380D01*
X223972380Y-114118333D01*
X224115238Y-114118333D01*
X224210476Y-114165952D01*
X224258095Y-114213571D01*
X224305714Y-114308809D01*
X224305714Y-114546904D01*
X224258095Y-114642142D01*
X224210476Y-114689761D01*
X224115238Y-114737380D01*
X223829523Y-114737380D01*
X223734285Y-114689761D01*
X223686666Y-114642142D01*
X85979285Y-121832619D02*
X86741190Y-121832619D01*
X86741190Y-121832619D02*
X87503095Y-121832619D01*
X87503095Y-121832619D02*
X88265000Y-121832619D01*
X88265000Y-121832619D02*
X89026904Y-121832619D01*
X89026904Y-121832619D02*
X89788809Y-121832619D01*
X89788809Y-121832619D02*
X90550714Y-121832619D01*
X189785714Y-104291666D02*
X190261904Y-104291666D01*
X189690476Y-104577380D02*
X190023809Y-103577380D01*
X190357142Y-104577380D01*
X190595238Y-103577380D02*
X191214285Y-103577380D01*
X190880952Y-103958333D01*
X191023809Y-103958333D01*
X191119047Y-104005952D01*
X191166666Y-104053571D01*
X191214285Y-104148809D01*
X191214285Y-104386904D01*
X191166666Y-104482142D01*
X191119047Y-104529761D01*
X191023809Y-104577380D01*
X190738095Y-104577380D01*
X190642857Y-104529761D01*
X190595238Y-104482142D01*
X120904285Y-69087619D02*
X121666190Y-69087619D01*
X121666190Y-69087619D02*
X122428095Y-69087619D01*
X122428095Y-69087619D02*
X123190000Y-69087619D01*
X123190000Y-69087619D02*
X123951904Y-69087619D01*
X123951904Y-69087619D02*
X124713809Y-69087619D01*
X124713809Y-69087619D02*
X125475714Y-69087619D01*
X189785714Y-111911666D02*
X190261904Y-111911666D01*
X189690476Y-112197380D02*
X190023809Y-111197380D01*
X190357142Y-112197380D01*
X191166666Y-111197380D02*
X190690476Y-111197380D01*
X190642857Y-111673571D01*
X190690476Y-111625952D01*
X190785714Y-111578333D01*
X191023809Y-111578333D01*
X191119047Y-111625952D01*
X191166666Y-111673571D01*
X191214285Y-111768809D01*
X191214285Y-112006904D01*
X191166666Y-112102142D01*
X191119047Y-112149761D01*
X191023809Y-112197380D01*
X190785714Y-112197380D01*
X190690476Y-112149761D01*
X190642857Y-112102142D01*
X160632142Y-121102380D02*
X160632142Y-120102380D01*
X161203571Y-121102380D01*
X161203571Y-120102380D01*
X161822619Y-121102380D02*
X161727380Y-121054761D01*
X161679761Y-121007142D01*
X161632142Y-120911904D01*
X161632142Y-120626190D01*
X161679761Y-120530952D01*
X161727380Y-120483333D01*
X161822619Y-120435714D01*
X161965476Y-120435714D01*
X162060714Y-120483333D01*
X162108333Y-120530952D01*
X162155952Y-120626190D01*
X162155952Y-120911904D01*
X162108333Y-121007142D01*
X162060714Y-121054761D01*
X161965476Y-121102380D01*
X161822619Y-121102380D01*
X162584523Y-121102380D02*
X162584523Y-120435714D01*
X162584523Y-120102380D02*
X162536904Y-120150000D01*
X162584523Y-120197619D01*
X162632142Y-120150000D01*
X162584523Y-120102380D01*
X162584523Y-120197619D01*
X163013095Y-121054761D02*
X163108333Y-121102380D01*
X163298809Y-121102380D01*
X163394047Y-121054761D01*
X163441666Y-120959523D01*
X163441666Y-120911904D01*
X163394047Y-120816666D01*
X163298809Y-120769047D01*
X163155952Y-120769047D01*
X163060714Y-120721428D01*
X163013095Y-120626190D01*
X163013095Y-120578571D01*
X163060714Y-120483333D01*
X163155952Y-120435714D01*
X163298809Y-120435714D01*
X163394047Y-120483333D01*
X164251190Y-121054761D02*
X164155952Y-121102380D01*
X163965476Y-121102380D01*
X163870238Y-121054761D01*
X163822619Y-120959523D01*
X163822619Y-120578571D01*
X163870238Y-120483333D01*
X163965476Y-120435714D01*
X164155952Y-120435714D01*
X164251190Y-120483333D01*
X164298809Y-120578571D01*
X164298809Y-120673809D01*
X163822619Y-120769047D01*
X165346428Y-120435714D02*
X165727380Y-120435714D01*
X165489285Y-121102380D02*
X165489285Y-120245238D01*
X165536904Y-120150000D01*
X165632142Y-120102380D01*
X165727380Y-120102380D01*
X166060714Y-121102380D02*
X166060714Y-120435714D01*
X166060714Y-120102380D02*
X166013095Y-120150000D01*
X166060714Y-120197619D01*
X166108333Y-120150000D01*
X166060714Y-120102380D01*
X166060714Y-120197619D01*
X166679761Y-121102380D02*
X166584523Y-121054761D01*
X166536904Y-120959523D01*
X166536904Y-120102380D01*
X166917857Y-120435714D02*
X167298809Y-120435714D01*
X167060714Y-120102380D02*
X167060714Y-120959523D01*
X167108333Y-121054761D01*
X167203571Y-121102380D01*
X167298809Y-121102380D01*
X168013095Y-121054761D02*
X167917857Y-121102380D01*
X167727380Y-121102380D01*
X167632142Y-121054761D01*
X167584523Y-120959523D01*
X167584523Y-120578571D01*
X167632142Y-120483333D01*
X167727380Y-120435714D01*
X167917857Y-120435714D01*
X168013095Y-120483333D01*
X168060714Y-120578571D01*
X168060714Y-120673809D01*
X167584523Y-120769047D01*
X168489285Y-121102380D02*
X168489285Y-120435714D01*
X168489285Y-120626190D02*
X168536904Y-120530952D01*
X168584523Y-120483333D01*
X168679761Y-120435714D01*
X168775000Y-120435714D01*
X169870238Y-120721428D02*
X170632142Y-120721428D01*
X172441666Y-121007142D02*
X172394047Y-121054761D01*
X172251190Y-121102380D01*
X172155952Y-121102380D01*
X172013095Y-121054761D01*
X171917857Y-120959523D01*
X171870238Y-120864285D01*
X171822619Y-120673809D01*
X171822619Y-120530952D01*
X171870238Y-120340476D01*
X171917857Y-120245238D01*
X172013095Y-120150000D01*
X172155952Y-120102380D01*
X172251190Y-120102380D01*
X172394047Y-120150000D01*
X172441666Y-120197619D01*
X173298809Y-121102380D02*
X173298809Y-120578571D01*
X173251190Y-120483333D01*
X173155952Y-120435714D01*
X172965476Y-120435714D01*
X172870238Y-120483333D01*
X173298809Y-121054761D02*
X173203571Y-121102380D01*
X172965476Y-121102380D01*
X172870238Y-121054761D01*
X172822619Y-120959523D01*
X172822619Y-120864285D01*
X172870238Y-120769047D01*
X172965476Y-120721428D01*
X173203571Y-120721428D01*
X173298809Y-120673809D01*
X173775000Y-120435714D02*
X173775000Y-121435714D01*
X173775000Y-120483333D02*
X173870238Y-120435714D01*
X174060714Y-120435714D01*
X174155952Y-120483333D01*
X174203571Y-120530952D01*
X174251190Y-120626190D01*
X174251190Y-120911904D01*
X174203571Y-121007142D01*
X174155952Y-121054761D01*
X174060714Y-121102380D01*
X173870238Y-121102380D01*
X173775000Y-121054761D01*
X175394047Y-120197619D02*
X175441666Y-120150000D01*
X175536904Y-120102380D01*
X175775000Y-120102380D01*
X175870238Y-120150000D01*
X175917857Y-120197619D01*
X175965476Y-120292857D01*
X175965476Y-120388095D01*
X175917857Y-120530952D01*
X175346428Y-121102380D01*
X175965476Y-121102380D01*
X70104285Y-121697619D02*
X70866190Y-121697619D01*
X70866190Y-121697619D02*
X71628095Y-121697619D01*
X71628095Y-121697619D02*
X72390000Y-121697619D01*
X72390000Y-121697619D02*
X73151904Y-121697619D01*
X73151904Y-121697619D02*
X73913809Y-121697619D01*
X73913809Y-121697619D02*
X74675714Y-121697619D01*
X189738095Y-123945000D02*
X189642857Y-123897380D01*
X189500000Y-123897380D01*
X189357142Y-123945000D01*
X189261904Y-124040238D01*
X189214285Y-124135476D01*
X189166666Y-124325952D01*
X189166666Y-124468809D01*
X189214285Y-124659285D01*
X189261904Y-124754523D01*
X189357142Y-124849761D01*
X189500000Y-124897380D01*
X189595238Y-124897380D01*
X189738095Y-124849761D01*
X189785714Y-124802142D01*
X189785714Y-124468809D01*
X189595238Y-124468809D01*
X190214285Y-124897380D02*
X190214285Y-123897380D01*
X190785714Y-124897380D01*
X190785714Y-123897380D01*
X191261904Y-124897380D02*
X191261904Y-123897380D01*
X191500000Y-123897380D01*
X191642857Y-123945000D01*
X191738095Y-124040238D01*
X191785714Y-124135476D01*
X191833333Y-124325952D01*
X191833333Y-124468809D01*
X191785714Y-124659285D01*
X191738095Y-124754523D01*
X191642857Y-124849761D01*
X191500000Y-124897380D01*
X191261904Y-124897380D01*
X85979285Y-101512619D02*
X86741190Y-101512619D01*
X86741190Y-101512619D02*
X87503095Y-101512619D01*
X87503095Y-101512619D02*
X88265000Y-101512619D01*
X88265000Y-101512619D02*
X89026904Y-101512619D01*
X89026904Y-101512619D02*
X89788809Y-101512619D01*
X89788809Y-101512619D02*
X90550714Y-101512619D01*
X92083333Y-47027142D02*
X92035714Y-47074761D01*
X91892857Y-47122380D01*
X91797619Y-47122380D01*
X91654761Y-47074761D01*
X91559523Y-46979523D01*
X91511904Y-46884285D01*
X91464285Y-46693809D01*
X91464285Y-46550952D01*
X91511904Y-46360476D01*
X91559523Y-46265238D01*
X91654761Y-46170000D01*
X91797619Y-46122380D01*
X91892857Y-46122380D01*
X92035714Y-46170000D01*
X92083333Y-46217619D01*
X92940476Y-47122380D02*
X92940476Y-46598571D01*
X92892857Y-46503333D01*
X92797619Y-46455714D01*
X92607142Y-46455714D01*
X92511904Y-46503333D01*
X92940476Y-47074761D02*
X92845238Y-47122380D01*
X92607142Y-47122380D01*
X92511904Y-47074761D01*
X92464285Y-46979523D01*
X92464285Y-46884285D01*
X92511904Y-46789047D01*
X92607142Y-46741428D01*
X92845238Y-46741428D01*
X92940476Y-46693809D01*
X93416666Y-46455714D02*
X93416666Y-47455714D01*
X93416666Y-46503333D02*
X93511904Y-46455714D01*
X93702380Y-46455714D01*
X93797619Y-46503333D01*
X93845238Y-46550952D01*
X93892857Y-46646190D01*
X93892857Y-46931904D01*
X93845238Y-47027142D01*
X93797619Y-47074761D01*
X93702380Y-47122380D01*
X93511904Y-47122380D01*
X93416666Y-47074761D01*
X94750000Y-47122380D02*
X94750000Y-46598571D01*
X94702380Y-46503333D01*
X94607142Y-46455714D01*
X94416666Y-46455714D01*
X94321428Y-46503333D01*
X94750000Y-47074761D02*
X94654761Y-47122380D01*
X94416666Y-47122380D01*
X94321428Y-47074761D01*
X94273809Y-46979523D01*
X94273809Y-46884285D01*
X94321428Y-46789047D01*
X94416666Y-46741428D01*
X94654761Y-46741428D01*
X94750000Y-46693809D01*
X95654761Y-47074761D02*
X95559523Y-47122380D01*
X95369047Y-47122380D01*
X95273809Y-47074761D01*
X95226190Y-47027142D01*
X95178571Y-46931904D01*
X95178571Y-46646190D01*
X95226190Y-46550952D01*
X95273809Y-46503333D01*
X95369047Y-46455714D01*
X95559523Y-46455714D01*
X95654761Y-46503333D01*
X96083333Y-47122380D02*
X96083333Y-46455714D01*
X96083333Y-46122380D02*
X96035714Y-46170000D01*
X96083333Y-46217619D01*
X96130952Y-46170000D01*
X96083333Y-46122380D01*
X96083333Y-46217619D01*
X96416666Y-46455714D02*
X96797619Y-46455714D01*
X96559523Y-46122380D02*
X96559523Y-46979523D01*
X96607142Y-47074761D01*
X96702380Y-47122380D01*
X96797619Y-47122380D01*
X97273809Y-47122380D02*
X97178571Y-47074761D01*
X97130952Y-47027142D01*
X97083333Y-46931904D01*
X97083333Y-46646190D01*
X97130952Y-46550952D01*
X97178571Y-46503333D01*
X97273809Y-46455714D01*
X97416666Y-46455714D01*
X97511904Y-46503333D01*
X97559523Y-46550952D01*
X97607142Y-46646190D01*
X97607142Y-46931904D01*
X97559523Y-47027142D01*
X97511904Y-47074761D01*
X97416666Y-47122380D01*
X97273809Y-47122380D01*
X98035714Y-47122380D02*
X98035714Y-46455714D01*
X98035714Y-46646190D02*
X98083333Y-46550952D01*
X98130952Y-46503333D01*
X98226190Y-46455714D01*
X98321428Y-46455714D01*
X98607142Y-47074761D02*
X98702380Y-47122380D01*
X98892857Y-47122380D01*
X98988095Y-47074761D01*
X99035714Y-46979523D01*
X99035714Y-46931904D01*
X98988095Y-46836666D01*
X98892857Y-46789047D01*
X98750000Y-46789047D01*
X98654761Y-46741428D01*
X98607142Y-46646190D01*
X98607142Y-46598571D01*
X98654761Y-46503333D01*
X98750000Y-46455714D01*
X98892857Y-46455714D01*
X98988095Y-46503333D01*
X153726904Y-53427380D02*
X154060238Y-54427380D01*
X154393571Y-53427380D01*
X154869761Y-54427380D02*
X154774523Y-54379761D01*
X154726904Y-54332142D01*
X154679285Y-54236904D01*
X154679285Y-53951190D01*
X154726904Y-53855952D01*
X154774523Y-53808333D01*
X154869761Y-53760714D01*
X155012619Y-53760714D01*
X155107857Y-53808333D01*
X155155476Y-53855952D01*
X155203095Y-53951190D01*
X155203095Y-54236904D01*
X155155476Y-54332142D01*
X155107857Y-54379761D01*
X155012619Y-54427380D01*
X154869761Y-54427380D01*
X155774523Y-54427380D02*
X155679285Y-54379761D01*
X155631666Y-54284523D01*
X155631666Y-53427380D01*
X156012619Y-53760714D02*
X156393571Y-53760714D01*
X156155476Y-53427380D02*
X156155476Y-54284523D01*
X156203095Y-54379761D01*
X156298333Y-54427380D01*
X156393571Y-54427380D01*
X157155476Y-54427380D02*
X157155476Y-53903571D01*
X157107857Y-53808333D01*
X157012619Y-53760714D01*
X156822142Y-53760714D01*
X156726904Y-53808333D01*
X157155476Y-54379761D02*
X157060238Y-54427380D01*
X156822142Y-54427380D01*
X156726904Y-54379761D01*
X156679285Y-54284523D01*
X156679285Y-54189285D01*
X156726904Y-54094047D01*
X156822142Y-54046428D01*
X157060238Y-54046428D01*
X157155476Y-53998809D01*
X158060238Y-53760714D02*
X158060238Y-54570238D01*
X158012619Y-54665476D01*
X157965000Y-54713095D01*
X157869761Y-54760714D01*
X157726904Y-54760714D01*
X157631666Y-54713095D01*
X158060238Y-54379761D02*
X157965000Y-54427380D01*
X157774523Y-54427380D01*
X157679285Y-54379761D01*
X157631666Y-54332142D01*
X157584047Y-54236904D01*
X157584047Y-53951190D01*
X157631666Y-53855952D01*
X157679285Y-53808333D01*
X157774523Y-53760714D01*
X157965000Y-53760714D01*
X158060238Y-53808333D01*
X158917380Y-54379761D02*
X158822142Y-54427380D01*
X158631666Y-54427380D01*
X158536428Y-54379761D01*
X158488809Y-54284523D01*
X158488809Y-53903571D01*
X158536428Y-53808333D01*
X158631666Y-53760714D01*
X158822142Y-53760714D01*
X158917380Y-53808333D01*
X158965000Y-53903571D01*
X158965000Y-53998809D01*
X158488809Y-54094047D01*
X160441190Y-54808333D02*
X160393571Y-54760714D01*
X160298333Y-54617857D01*
X160250714Y-54522619D01*
X160203095Y-54379761D01*
X160155476Y-54141666D01*
X160155476Y-53951190D01*
X160203095Y-53713095D01*
X160250714Y-53570238D01*
X160298333Y-53475000D01*
X160393571Y-53332142D01*
X160441190Y-53284523D01*
X160774523Y-54141666D02*
X161250714Y-54141666D01*
X160679285Y-54427380D02*
X161012619Y-53427380D01*
X161345952Y-54427380D01*
X162203095Y-54427380D02*
X161631666Y-54427380D01*
X161917380Y-54427380D02*
X161917380Y-53427380D01*
X161822142Y-53570238D01*
X161726904Y-53665476D01*
X161631666Y-53713095D01*
X162536428Y-54808333D02*
X162584047Y-54760714D01*
X162679285Y-54617857D01*
X162726904Y-54522619D01*
X162774523Y-54379761D01*
X162822142Y-54141666D01*
X162822142Y-53951190D01*
X162774523Y-53713095D01*
X162726904Y-53570238D01*
X162679285Y-53475000D01*
X162584047Y-53332142D01*
X162536428Y-53284523D01*
X164869761Y-54427380D02*
X164822142Y-54427380D01*
X164726904Y-54379761D01*
X164584047Y-54236904D01*
X164345952Y-53951190D01*
X164250714Y-53808333D01*
X164203095Y-53665476D01*
X164203095Y-53570238D01*
X164250714Y-53475000D01*
X164345952Y-53427380D01*
X164393571Y-53427380D01*
X164488809Y-53475000D01*
X164536428Y-53570238D01*
X164536428Y-53617857D01*
X164488809Y-53713095D01*
X164441190Y-53760714D01*
X164155476Y-53951190D01*
X164107857Y-53998809D01*
X164060238Y-54094047D01*
X164060238Y-54236904D01*
X164107857Y-54332142D01*
X164155476Y-54379761D01*
X164250714Y-54427380D01*
X164393571Y-54427380D01*
X164488809Y-54379761D01*
X164536428Y-54332142D01*
X164679285Y-54141666D01*
X164726904Y-53998809D01*
X164726904Y-53903571D01*
X166631666Y-54332142D02*
X166584047Y-54379761D01*
X166441190Y-54427380D01*
X166345952Y-54427380D01*
X166203095Y-54379761D01*
X166107857Y-54284523D01*
X166060238Y-54189285D01*
X166012619Y-53998809D01*
X166012619Y-53855952D01*
X166060238Y-53665476D01*
X166107857Y-53570238D01*
X166203095Y-53475000D01*
X166345952Y-53427380D01*
X166441190Y-53427380D01*
X166584047Y-53475000D01*
X166631666Y-53522619D01*
X167203095Y-54427380D02*
X167107857Y-54379761D01*
X167060238Y-54332142D01*
X167012619Y-54236904D01*
X167012619Y-53951190D01*
X167060238Y-53855952D01*
X167107857Y-53808333D01*
X167203095Y-53760714D01*
X167345952Y-53760714D01*
X167441190Y-53808333D01*
X167488809Y-53855952D01*
X167536428Y-53951190D01*
X167536428Y-54236904D01*
X167488809Y-54332142D01*
X167441190Y-54379761D01*
X167345952Y-54427380D01*
X167203095Y-54427380D01*
X167965000Y-53760714D02*
X167965000Y-54427380D01*
X167965000Y-53855952D02*
X168012619Y-53808333D01*
X168107857Y-53760714D01*
X168250714Y-53760714D01*
X168345952Y-53808333D01*
X168393571Y-53903571D01*
X168393571Y-54427380D01*
X168726904Y-53760714D02*
X169107857Y-53760714D01*
X168869761Y-53427380D02*
X168869761Y-54284523D01*
X168917380Y-54379761D01*
X169012619Y-54427380D01*
X169107857Y-54427380D01*
X169441190Y-54427380D02*
X169441190Y-53760714D01*
X169441190Y-53951190D02*
X169488809Y-53855952D01*
X169536428Y-53808333D01*
X169631666Y-53760714D01*
X169726904Y-53760714D01*
X170203095Y-54427380D02*
X170107857Y-54379761D01*
X170060238Y-54332142D01*
X170012619Y-54236904D01*
X170012619Y-53951190D01*
X170060238Y-53855952D01*
X170107857Y-53808333D01*
X170203095Y-53760714D01*
X170345952Y-53760714D01*
X170441190Y-53808333D01*
X170488809Y-53855952D01*
X170536428Y-53951190D01*
X170536428Y-54236904D01*
X170488809Y-54332142D01*
X170441190Y-54379761D01*
X170345952Y-54427380D01*
X170203095Y-54427380D01*
X171107857Y-54427380D02*
X171012619Y-54379761D01*
X170965000Y-54284523D01*
X170965000Y-53427380D01*
X172536428Y-54808333D02*
X172488809Y-54760714D01*
X172393571Y-54617857D01*
X172345952Y-54522619D01*
X172298333Y-54379761D01*
X172250714Y-54141666D01*
X172250714Y-53951190D01*
X172298333Y-53713095D01*
X172345952Y-53570238D01*
X172393571Y-53475000D01*
X172488809Y-53332142D01*
X172536428Y-53284523D01*
X172917380Y-54427380D02*
X172917380Y-53427380D01*
X173155476Y-53427380D01*
X173298333Y-53475000D01*
X173393571Y-53570238D01*
X173441190Y-53665476D01*
X173488809Y-53855952D01*
X173488809Y-53998809D01*
X173441190Y-54189285D01*
X173393571Y-54284523D01*
X173298333Y-54379761D01*
X173155476Y-54427380D01*
X172917380Y-54427380D01*
X173965000Y-54427380D02*
X174155476Y-54427380D01*
X174250714Y-54379761D01*
X174298333Y-54332142D01*
X174393571Y-54189285D01*
X174441190Y-53998809D01*
X174441190Y-53617857D01*
X174393571Y-53522619D01*
X174345952Y-53475000D01*
X174250714Y-53427380D01*
X174060238Y-53427380D01*
X173965000Y-53475000D01*
X173917380Y-53522619D01*
X173869761Y-53617857D01*
X173869761Y-53855952D01*
X173917380Y-53951190D01*
X173965000Y-53998809D01*
X174060238Y-54046428D01*
X174250714Y-54046428D01*
X174345952Y-53998809D01*
X174393571Y-53951190D01*
X174441190Y-53855952D01*
X174774523Y-54808333D02*
X174822142Y-54760714D01*
X174917380Y-54617857D01*
X174965000Y-54522619D01*
X175012619Y-54379761D01*
X175060238Y-54141666D01*
X175060238Y-53951190D01*
X175012619Y-53713095D01*
X174965000Y-53570238D01*
X174917380Y-53475000D01*
X174822142Y-53332142D01*
X174774523Y-53284523D01*
X86020671Y-79731025D02*
X86782576Y-79731025D01*
X86782576Y-79731025D02*
X87544481Y-79731025D01*
X87544481Y-79731025D02*
X88306386Y-79731025D01*
X88306386Y-79731025D02*
X89068290Y-79731025D01*
X89068290Y-79731025D02*
X89830195Y-79731025D01*
X89830195Y-79731025D02*
X90592100Y-79731025D01*
X71354285Y-117875714D02*
X71282857Y-117947142D01*
X71068571Y-118018571D01*
X70925714Y-118018571D01*
X70711428Y-117947142D01*
X70568571Y-117804285D01*
X70497142Y-117661428D01*
X70425714Y-117375714D01*
X70425714Y-117161428D01*
X70497142Y-116875714D01*
X70568571Y-116732857D01*
X70711428Y-116590000D01*
X70925714Y-116518571D01*
X71068571Y-116518571D01*
X71282857Y-116590000D01*
X71354285Y-116661428D01*
X71997142Y-118018571D02*
X71997142Y-116518571D01*
X71997142Y-117232857D02*
X72854285Y-117232857D01*
X72854285Y-118018571D02*
X72854285Y-116518571D01*
X73425714Y-116518571D02*
X74425714Y-116518571D01*
X73782857Y-118018571D01*
X222781904Y-96957380D02*
X222781904Y-95957380D01*
X223020000Y-95957380D01*
X223162857Y-96005000D01*
X223258095Y-96100238D01*
X223305714Y-96195476D01*
X223353333Y-96385952D01*
X223353333Y-96528809D01*
X223305714Y-96719285D01*
X223258095Y-96814523D01*
X223162857Y-96909761D01*
X223020000Y-96957380D01*
X222781904Y-96957380D01*
X223829523Y-96957380D02*
X224020000Y-96957380D01*
X224115238Y-96909761D01*
X224162857Y-96862142D01*
X224258095Y-96719285D01*
X224305714Y-96528809D01*
X224305714Y-96147857D01*
X224258095Y-96052619D01*
X224210476Y-96005000D01*
X224115238Y-95957380D01*
X223924761Y-95957380D01*
X223829523Y-96005000D01*
X223781904Y-96052619D01*
X223734285Y-96147857D01*
X223734285Y-96385952D01*
X223781904Y-96481190D01*
X223829523Y-96528809D01*
X223924761Y-96576428D01*
X224115238Y-96576428D01*
X224210476Y-96528809D01*
X224258095Y-96481190D01*
X224305714Y-96385952D01*
X174295714Y-58955714D02*
X174224285Y-59027142D01*
X174010000Y-59098571D01*
X173867142Y-59098571D01*
X173652857Y-59027142D01*
X173510000Y-58884285D01*
X173438571Y-58741428D01*
X173367142Y-58455714D01*
X173367142Y-58241428D01*
X173438571Y-57955714D01*
X173510000Y-57812857D01*
X173652857Y-57670000D01*
X173867142Y-57598571D01*
X174010000Y-57598571D01*
X174224285Y-57670000D01*
X174295714Y-57741428D01*
X175724285Y-59098571D02*
X174867142Y-59098571D01*
X175295714Y-59098571D02*
X175295714Y-57598571D01*
X175152857Y-57812857D01*
X175010000Y-57955714D01*
X174867142Y-58027142D01*
X176581428Y-58241428D02*
X176438571Y-58170000D01*
X176367142Y-58098571D01*
X176295714Y-57955714D01*
X176295714Y-57884285D01*
X176367142Y-57741428D01*
X176438571Y-57670000D01*
X176581428Y-57598571D01*
X176867142Y-57598571D01*
X177010000Y-57670000D01*
X177081428Y-57741428D01*
X177152857Y-57884285D01*
X177152857Y-57955714D01*
X177081428Y-58098571D01*
X177010000Y-58170000D01*
X176867142Y-58241428D01*
X176581428Y-58241428D01*
X176438571Y-58312857D01*
X176367142Y-58384285D01*
X176295714Y-58527142D01*
X176295714Y-58812857D01*
X176367142Y-58955714D01*
X176438571Y-59027142D01*
X176581428Y-59098571D01*
X176867142Y-59098571D01*
X177010000Y-59027142D01*
X177081428Y-58955714D01*
X177152857Y-58812857D01*
X177152857Y-58527142D01*
X177081428Y-58384285D01*
X177010000Y-58312857D01*
X176867142Y-58241428D01*
X189785714Y-114451666D02*
X190261904Y-114451666D01*
X189690476Y-114737380D02*
X190023809Y-113737380D01*
X190357142Y-114737380D01*
X191119047Y-113737380D02*
X190928571Y-113737380D01*
X190833333Y-113785000D01*
X190785714Y-113832619D01*
X190690476Y-113975476D01*
X190642857Y-114165952D01*
X190642857Y-114546904D01*
X190690476Y-114642142D01*
X190738095Y-114689761D01*
X190833333Y-114737380D01*
X191023809Y-114737380D01*
X191119047Y-114689761D01*
X191166666Y-114642142D01*
X191214285Y-114546904D01*
X191214285Y-114308809D01*
X191166666Y-114213571D01*
X191119047Y-114165952D01*
X191023809Y-114118333D01*
X190833333Y-114118333D01*
X190738095Y-114165952D01*
X190690476Y-114213571D01*
X190642857Y-114308809D01*
X189785714Y-109371666D02*
X190261904Y-109371666D01*
X189690476Y-109657380D02*
X190023809Y-108657380D01*
X190357142Y-109657380D01*
X191119047Y-108990714D02*
X191119047Y-109657380D01*
X190880952Y-108609761D02*
X190642857Y-109324047D01*
X191261904Y-109324047D01*
X71354285Y-75925714D02*
X71282857Y-75997142D01*
X71068571Y-76068571D01*
X70925714Y-76068571D01*
X70711428Y-75997142D01*
X70568571Y-75854285D01*
X70497142Y-75711428D01*
X70425714Y-75425714D01*
X70425714Y-75211428D01*
X70497142Y-74925714D01*
X70568571Y-74782857D01*
X70711428Y-74640000D01*
X70925714Y-74568571D01*
X71068571Y-74568571D01*
X71282857Y-74640000D01*
X71354285Y-74711428D01*
X71997142Y-76068571D02*
X71997142Y-74568571D01*
X71997142Y-75282857D02*
X72854285Y-75282857D01*
X72854285Y-76068571D02*
X72854285Y-74568571D01*
X73425714Y-74568571D02*
X74354285Y-74568571D01*
X73854285Y-75140000D01*
X74068571Y-75140000D01*
X74211428Y-75211428D01*
X74282857Y-75282857D01*
X74354285Y-75425714D01*
X74354285Y-75782857D01*
X74282857Y-75925714D01*
X74211428Y-75997142D01*
X74068571Y-76068571D01*
X73640000Y-76068571D01*
X73497142Y-75997142D01*
X73425714Y-75925714D01*
X222781904Y-102037380D02*
X222781904Y-101037380D01*
X223020000Y-101037380D01*
X223162857Y-101085000D01*
X223258095Y-101180238D01*
X223305714Y-101275476D01*
X223353333Y-101465952D01*
X223353333Y-101608809D01*
X223305714Y-101799285D01*
X223258095Y-101894523D01*
X223162857Y-101989761D01*
X223020000Y-102037380D01*
X222781904Y-102037380D01*
X223686666Y-101037380D02*
X224353333Y-101037380D01*
X223924761Y-102037380D01*
X71354285Y-84815714D02*
X71282857Y-84887142D01*
X71068571Y-84958571D01*
X70925714Y-84958571D01*
X70711428Y-84887142D01*
X70568571Y-84744285D01*
X70497142Y-84601428D01*
X70425714Y-84315714D01*
X70425714Y-84101428D01*
X70497142Y-83815714D01*
X70568571Y-83672857D01*
X70711428Y-83530000D01*
X70925714Y-83458571D01*
X71068571Y-83458571D01*
X71282857Y-83530000D01*
X71354285Y-83601428D01*
X71997142Y-84958571D02*
X71997142Y-83458571D01*
X71997142Y-84172857D02*
X72854285Y-84172857D01*
X72854285Y-84958571D02*
X72854285Y-83458571D01*
X74211428Y-83958571D02*
X74211428Y-84958571D01*
X73854285Y-83387142D02*
X73497142Y-84458571D01*
X74425714Y-84458571D01*
X77510000Y-45827380D02*
X77176666Y-45351190D01*
X76938571Y-45827380D02*
X76938571Y-44827380D01*
X77319523Y-44827380D01*
X77414761Y-44875000D01*
X77462380Y-44922619D01*
X77510000Y-45017857D01*
X77510000Y-45160714D01*
X77462380Y-45255952D01*
X77414761Y-45303571D01*
X77319523Y-45351190D01*
X76938571Y-45351190D01*
X78319523Y-45779761D02*
X78224285Y-45827380D01*
X78033809Y-45827380D01*
X77938571Y-45779761D01*
X77890952Y-45684523D01*
X77890952Y-45303571D01*
X77938571Y-45208333D01*
X78033809Y-45160714D01*
X78224285Y-45160714D01*
X78319523Y-45208333D01*
X78367142Y-45303571D01*
X78367142Y-45398809D01*
X77890952Y-45494047D01*
X78748095Y-45779761D02*
X78843333Y-45827380D01*
X79033809Y-45827380D01*
X79129047Y-45779761D01*
X79176666Y-45684523D01*
X79176666Y-45636904D01*
X79129047Y-45541666D01*
X79033809Y-45494047D01*
X78890952Y-45494047D01*
X78795714Y-45446428D01*
X78748095Y-45351190D01*
X78748095Y-45303571D01*
X78795714Y-45208333D01*
X78890952Y-45160714D01*
X79033809Y-45160714D01*
X79129047Y-45208333D01*
X79605238Y-45827380D02*
X79605238Y-45160714D01*
X79605238Y-44827380D02*
X79557619Y-44875000D01*
X79605238Y-44922619D01*
X79652857Y-44875000D01*
X79605238Y-44827380D01*
X79605238Y-44922619D01*
X80033809Y-45779761D02*
X80129047Y-45827380D01*
X80319523Y-45827380D01*
X80414761Y-45779761D01*
X80462380Y-45684523D01*
X80462380Y-45636904D01*
X80414761Y-45541666D01*
X80319523Y-45494047D01*
X80176666Y-45494047D01*
X80081428Y-45446428D01*
X80033809Y-45351190D01*
X80033809Y-45303571D01*
X80081428Y-45208333D01*
X80176666Y-45160714D01*
X80319523Y-45160714D01*
X80414761Y-45208333D01*
X80748095Y-45160714D02*
X81129047Y-45160714D01*
X80890952Y-44827380D02*
X80890952Y-45684523D01*
X80938571Y-45779761D01*
X81033809Y-45827380D01*
X81129047Y-45827380D01*
X81462380Y-45827380D02*
X81462380Y-45160714D01*
X81462380Y-44827380D02*
X81414761Y-44875000D01*
X81462380Y-44922619D01*
X81510000Y-44875000D01*
X81462380Y-44827380D01*
X81462380Y-44922619D01*
X81843333Y-45160714D02*
X82081428Y-45827380D01*
X82319523Y-45160714D01*
X83081428Y-45779761D02*
X82986190Y-45827380D01*
X82795714Y-45827380D01*
X82700476Y-45779761D01*
X82652857Y-45684523D01*
X82652857Y-45303571D01*
X82700476Y-45208333D01*
X82795714Y-45160714D01*
X82986190Y-45160714D01*
X83081428Y-45208333D01*
X83129047Y-45303571D01*
X83129047Y-45398809D01*
X82652857Y-45494047D01*
X77271904Y-47389761D02*
X77414761Y-47437380D01*
X77652857Y-47437380D01*
X77748095Y-47389761D01*
X77795714Y-47342142D01*
X77843333Y-47246904D01*
X77843333Y-47151666D01*
X77795714Y-47056428D01*
X77748095Y-47008809D01*
X77652857Y-46961190D01*
X77462380Y-46913571D01*
X77367142Y-46865952D01*
X77319523Y-46818333D01*
X77271904Y-46723095D01*
X77271904Y-46627857D01*
X77319523Y-46532619D01*
X77367142Y-46485000D01*
X77462380Y-46437380D01*
X77700476Y-46437380D01*
X77843333Y-46485000D01*
X78652857Y-47389761D02*
X78557619Y-47437380D01*
X78367142Y-47437380D01*
X78271904Y-47389761D01*
X78224285Y-47294523D01*
X78224285Y-46913571D01*
X78271904Y-46818333D01*
X78367142Y-46770714D01*
X78557619Y-46770714D01*
X78652857Y-46818333D01*
X78700476Y-46913571D01*
X78700476Y-47008809D01*
X78224285Y-47104047D01*
X79129047Y-46770714D02*
X79129047Y-47437380D01*
X79129047Y-46865952D02*
X79176666Y-46818333D01*
X79271904Y-46770714D01*
X79414761Y-46770714D01*
X79510000Y-46818333D01*
X79557619Y-46913571D01*
X79557619Y-47437380D01*
X79986190Y-47389761D02*
X80081428Y-47437380D01*
X80271904Y-47437380D01*
X80367142Y-47389761D01*
X80414761Y-47294523D01*
X80414761Y-47246904D01*
X80367142Y-47151666D01*
X80271904Y-47104047D01*
X80129047Y-47104047D01*
X80033809Y-47056428D01*
X79986190Y-46961190D01*
X79986190Y-46913571D01*
X80033809Y-46818333D01*
X80129047Y-46770714D01*
X80271904Y-46770714D01*
X80367142Y-46818333D01*
X80986190Y-47437380D02*
X80890952Y-47389761D01*
X80843333Y-47342142D01*
X80795714Y-47246904D01*
X80795714Y-46961190D01*
X80843333Y-46865952D01*
X80890952Y-46818333D01*
X80986190Y-46770714D01*
X81129047Y-46770714D01*
X81224285Y-46818333D01*
X81271904Y-46865952D01*
X81319523Y-46961190D01*
X81319523Y-47246904D01*
X81271904Y-47342142D01*
X81224285Y-47389761D01*
X81129047Y-47437380D01*
X80986190Y-47437380D01*
X81748095Y-47437380D02*
X81748095Y-46770714D01*
X81748095Y-46961190D02*
X81795714Y-46865952D01*
X81843333Y-46818333D01*
X81938571Y-46770714D01*
X82033809Y-46770714D01*
X82319523Y-47389761D02*
X82414761Y-47437380D01*
X82605238Y-47437380D01*
X82700476Y-47389761D01*
X82748095Y-47294523D01*
X82748095Y-47246904D01*
X82700476Y-47151666D01*
X82605238Y-47104047D01*
X82462380Y-47104047D01*
X82367142Y-47056428D01*
X82319523Y-46961190D01*
X82319523Y-46913571D01*
X82367142Y-46818333D01*
X82462380Y-46770714D01*
X82605238Y-46770714D01*
X82700476Y-46818333D01*
X189261904Y-90877380D02*
X189880952Y-90877380D01*
X189547619Y-91258333D01*
X189690476Y-91258333D01*
X189785714Y-91305952D01*
X189833333Y-91353571D01*
X189880952Y-91448809D01*
X189880952Y-91686904D01*
X189833333Y-91782142D01*
X189785714Y-91829761D01*
X189690476Y-91877380D01*
X189404761Y-91877380D01*
X189309523Y-91829761D01*
X189261904Y-91782142D01*
X190166666Y-90877380D02*
X190500000Y-91877380D01*
X190833333Y-90877380D01*
X191071428Y-90877380D02*
X191690476Y-90877380D01*
X191357142Y-91258333D01*
X191500000Y-91258333D01*
X191595238Y-91305952D01*
X191642857Y-91353571D01*
X191690476Y-91448809D01*
X191690476Y-91686904D01*
X191642857Y-91782142D01*
X191595238Y-91829761D01*
X191500000Y-91877380D01*
X191214285Y-91877380D01*
X191119047Y-91829761D01*
X191071428Y-91782142D01*
X187598476Y-86256900D02*
X187931810Y-86256900D01*
X188074667Y-86780709D02*
X187598476Y-86780709D01*
X187598476Y-85780709D01*
X188074667Y-85780709D01*
X188503238Y-86780709D02*
X188503238Y-85780709D01*
X188836572Y-86494995D01*
X189169905Y-85780709D01*
X189169905Y-86780709D01*
X189646095Y-86780709D02*
X189646095Y-85780709D01*
X190027048Y-85780709D01*
X190122286Y-85828329D01*
X190169905Y-85875948D01*
X190217524Y-85971186D01*
X190217524Y-86114043D01*
X190169905Y-86209281D01*
X190122286Y-86256900D01*
X190027048Y-86304519D01*
X189646095Y-86304519D01*
X190503238Y-85780709D02*
X191074667Y-85780709D01*
X190788953Y-86780709D02*
X190788953Y-85780709D01*
X191598476Y-86304519D02*
X191598476Y-86780709D01*
X191265143Y-85780709D02*
X191598476Y-86304519D01*
X191931810Y-85780709D01*
X121440000Y-75425714D02*
X121368571Y-75497142D01*
X121154285Y-75568571D01*
X121011428Y-75568571D01*
X120797142Y-75497142D01*
X120654285Y-75354285D01*
X120582857Y-75211428D01*
X120511428Y-74925714D01*
X120511428Y-74711428D01*
X120582857Y-74425714D01*
X120654285Y-74282857D01*
X120797142Y-74140000D01*
X121011428Y-74068571D01*
X121154285Y-74068571D01*
X121368571Y-74140000D01*
X121440000Y-74211428D01*
X122082857Y-75568571D02*
X122082857Y-74068571D01*
X122082857Y-74782857D02*
X122940000Y-74782857D01*
X122940000Y-75568571D02*
X122940000Y-74068571D01*
X124440000Y-75568571D02*
X123582857Y-75568571D01*
X124011428Y-75568571D02*
X124011428Y-74068571D01*
X123868571Y-74282857D01*
X123725714Y-74425714D01*
X123582857Y-74497142D01*
X125868571Y-75568571D02*
X125011428Y-75568571D01*
X125440000Y-75568571D02*
X125440000Y-74068571D01*
X125297142Y-74282857D01*
X125154285Y-74425714D01*
X125011428Y-74497142D01*
X120904285Y-79247619D02*
X121666190Y-79247619D01*
X121666190Y-79247619D02*
X122428095Y-79247619D01*
X122428095Y-79247619D02*
X123190000Y-79247619D01*
X123190000Y-79247619D02*
X123951904Y-79247619D01*
X123951904Y-79247619D02*
X124713809Y-79247619D01*
X124713809Y-79247619D02*
X125475714Y-79247619D01*
X152070714Y-84990714D02*
X151999285Y-85062142D01*
X151785000Y-85133571D01*
X151642142Y-85133571D01*
X151427857Y-85062142D01*
X151285000Y-84919285D01*
X151213571Y-84776428D01*
X151142142Y-84490714D01*
X151142142Y-84276428D01*
X151213571Y-83990714D01*
X151285000Y-83847857D01*
X151427857Y-83705000D01*
X151642142Y-83633571D01*
X151785000Y-83633571D01*
X151999285Y-83705000D01*
X152070714Y-83776428D01*
X153499285Y-85133571D02*
X152642142Y-85133571D01*
X153070714Y-85133571D02*
X153070714Y-83633571D01*
X152927857Y-83847857D01*
X152785000Y-83990714D01*
X152642142Y-84062142D01*
X154213571Y-85133571D02*
X154499285Y-85133571D01*
X154642142Y-85062142D01*
X154713571Y-84990714D01*
X154856428Y-84776428D01*
X154927857Y-84490714D01*
X154927857Y-83919285D01*
X154856428Y-83776428D01*
X154785000Y-83705000D01*
X154642142Y-83633571D01*
X154356428Y-83633571D01*
X154213571Y-83705000D01*
X154142142Y-83776428D01*
X154070714Y-83919285D01*
X154070714Y-84276428D01*
X154142142Y-84419285D01*
X154213571Y-84490714D01*
X154356428Y-84562142D01*
X154642142Y-84562142D01*
X154785000Y-84490714D01*
X154856428Y-84419285D01*
X154927857Y-84276428D01*
X189785714Y-99211666D02*
X190261904Y-99211666D01*
X189690476Y-99497380D02*
X190023809Y-98497380D01*
X190357142Y-99497380D01*
X191214285Y-99497380D02*
X190642857Y-99497380D01*
X190928571Y-99497380D02*
X190928571Y-98497380D01*
X190833333Y-98640238D01*
X190738095Y-98735476D01*
X190642857Y-98783095D01*
X189285714Y-89337380D02*
X189285714Y-88337380D01*
X189523809Y-88337380D01*
X189666666Y-88385000D01*
X189761904Y-88480238D01*
X189809523Y-88575476D01*
X189857142Y-88765952D01*
X189857142Y-88908809D01*
X189809523Y-89099285D01*
X189761904Y-89194523D01*
X189666666Y-89289761D01*
X189523809Y-89337380D01*
X189285714Y-89337380D01*
X190809523Y-89337380D02*
X190238095Y-89337380D01*
X190523809Y-89337380D02*
X190523809Y-88337380D01*
X190428571Y-88480238D01*
X190333333Y-88575476D01*
X190238095Y-88623095D01*
X191142857Y-88337380D02*
X191761904Y-88337380D01*
X191428571Y-88718333D01*
X191571428Y-88718333D01*
X191666666Y-88765952D01*
X191714285Y-88813571D01*
X191761904Y-88908809D01*
X191761904Y-89146904D01*
X191714285Y-89242142D01*
X191666666Y-89289761D01*
X191571428Y-89337380D01*
X191285714Y-89337380D01*
X191190476Y-89289761D01*
X191142857Y-89242142D01*
X70104285Y-111537619D02*
X70866190Y-111537619D01*
X70866190Y-111537619D02*
X71628095Y-111537619D01*
X71628095Y-111537619D02*
X72390000Y-111537619D01*
X72390000Y-111537619D02*
X73151904Y-111537619D01*
X73151904Y-111537619D02*
X73913809Y-111537619D01*
X73913809Y-111537619D02*
X74675714Y-111537619D01*
X71354285Y-107715714D02*
X71282857Y-107787142D01*
X71068571Y-107858571D01*
X70925714Y-107858571D01*
X70711428Y-107787142D01*
X70568571Y-107644285D01*
X70497142Y-107501428D01*
X70425714Y-107215714D01*
X70425714Y-107001428D01*
X70497142Y-106715714D01*
X70568571Y-106572857D01*
X70711428Y-106430000D01*
X70925714Y-106358571D01*
X71068571Y-106358571D01*
X71282857Y-106430000D01*
X71354285Y-106501428D01*
X71997142Y-107858571D02*
X71997142Y-106358571D01*
X71997142Y-107072857D02*
X72854285Y-107072857D01*
X72854285Y-107858571D02*
X72854285Y-106358571D01*
X74211428Y-106358571D02*
X73925714Y-106358571D01*
X73782857Y-106430000D01*
X73711428Y-106501428D01*
X73568571Y-106715714D01*
X73497142Y-107001428D01*
X73497142Y-107572857D01*
X73568571Y-107715714D01*
X73640000Y-107787142D01*
X73782857Y-107858571D01*
X74068571Y-107858571D01*
X74211428Y-107787142D01*
X74282857Y-107715714D01*
X74354285Y-107572857D01*
X74354285Y-107215714D01*
X74282857Y-107072857D01*
X74211428Y-107001428D01*
X74068571Y-106930000D01*
X73782857Y-106930000D01*
X73640000Y-107001428D01*
X73568571Y-107072857D01*
X73497142Y-107215714D01*
X189785714Y-96671666D02*
X190261904Y-96671666D01*
X189690476Y-96957380D02*
X190023809Y-95957380D01*
X190357142Y-96957380D01*
X190880952Y-95957380D02*
X190976190Y-95957380D01*
X191071428Y-96005000D01*
X191119047Y-96052619D01*
X191166666Y-96147857D01*
X191214285Y-96338333D01*
X191214285Y-96576428D01*
X191166666Y-96766904D01*
X191119047Y-96862142D01*
X191071428Y-96909761D01*
X190976190Y-96957380D01*
X190880952Y-96957380D01*
X190785714Y-96909761D01*
X190738095Y-96862142D01*
X190690476Y-96766904D01*
X190642857Y-96576428D01*
X190642857Y-96338333D01*
X190690476Y-96147857D01*
X190738095Y-96052619D01*
X190785714Y-96005000D01*
X190880952Y-95957380D01*
X152070714Y-98325714D02*
X151999285Y-98397142D01*
X151785000Y-98468571D01*
X151642142Y-98468571D01*
X151427857Y-98397142D01*
X151285000Y-98254285D01*
X151213571Y-98111428D01*
X151142142Y-97825714D01*
X151142142Y-97611428D01*
X151213571Y-97325714D01*
X151285000Y-97182857D01*
X151427857Y-97040000D01*
X151642142Y-96968571D01*
X151785000Y-96968571D01*
X151999285Y-97040000D01*
X152070714Y-97111428D01*
X152642142Y-97111428D02*
X152713571Y-97040000D01*
X152856428Y-96968571D01*
X153213571Y-96968571D01*
X153356428Y-97040000D01*
X153427857Y-97111428D01*
X153499285Y-97254285D01*
X153499285Y-97397142D01*
X153427857Y-97611428D01*
X152570714Y-98468571D01*
X153499285Y-98468571D01*
X154427857Y-96968571D02*
X154570714Y-96968571D01*
X154713571Y-97040000D01*
X154785000Y-97111428D01*
X154856428Y-97254285D01*
X154927857Y-97540000D01*
X154927857Y-97897142D01*
X154856428Y-98182857D01*
X154785000Y-98325714D01*
X154713571Y-98397142D01*
X154570714Y-98468571D01*
X154427857Y-98468571D01*
X154285000Y-98397142D01*
X154213571Y-98325714D01*
X154142142Y-98182857D01*
X154070714Y-97897142D01*
X154070714Y-97540000D01*
X154142142Y-97254285D01*
X154213571Y-97111428D01*
X154285000Y-97040000D01*
X154427857Y-96968571D01*
X120904285Y-100877619D02*
X121666190Y-100877619D01*
X121666190Y-100877619D02*
X122428095Y-100877619D01*
X122428095Y-100877619D02*
X123190000Y-100877619D01*
X123190000Y-100877619D02*
X123951904Y-100877619D01*
X123951904Y-100877619D02*
X124713809Y-100877619D01*
X124713809Y-100877619D02*
X125475714Y-100877619D01*
X222305714Y-91877380D02*
X222305714Y-90877380D01*
X222543809Y-90877380D01*
X222686666Y-90925000D01*
X222781904Y-91020238D01*
X222829523Y-91115476D01*
X222877142Y-91305952D01*
X222877142Y-91448809D01*
X222829523Y-91639285D01*
X222781904Y-91734523D01*
X222686666Y-91829761D01*
X222543809Y-91877380D01*
X222305714Y-91877380D01*
X223829523Y-91877380D02*
X223258095Y-91877380D01*
X223543809Y-91877380D02*
X223543809Y-90877380D01*
X223448571Y-91020238D01*
X223353333Y-91115476D01*
X223258095Y-91163095D01*
X224781904Y-91877380D02*
X224210476Y-91877380D01*
X224496190Y-91877380D02*
X224496190Y-90877380D01*
X224400952Y-91020238D01*
X224305714Y-91115476D01*
X224210476Y-91163095D01*
X71354285Y-65765714D02*
X71282857Y-65837142D01*
X71068571Y-65908571D01*
X70925714Y-65908571D01*
X70711428Y-65837142D01*
X70568571Y-65694285D01*
X70497142Y-65551428D01*
X70425714Y-65265714D01*
X70425714Y-65051428D01*
X70497142Y-64765714D01*
X70568571Y-64622857D01*
X70711428Y-64480000D01*
X70925714Y-64408571D01*
X71068571Y-64408571D01*
X71282857Y-64480000D01*
X71354285Y-64551428D01*
X71997142Y-65908571D02*
X71997142Y-64408571D01*
X71997142Y-65122857D02*
X72854285Y-65122857D01*
X72854285Y-65908571D02*
X72854285Y-64408571D01*
X73497142Y-64551428D02*
X73568571Y-64480000D01*
X73711428Y-64408571D01*
X74068571Y-64408571D01*
X74211428Y-64480000D01*
X74282857Y-64551428D01*
X74354285Y-64694285D01*
X74354285Y-64837142D01*
X74282857Y-65051428D01*
X73425714Y-65908571D01*
X74354285Y-65908571D01*
X189785714Y-101751666D02*
X190261904Y-101751666D01*
X189690476Y-102037380D02*
X190023809Y-101037380D01*
X190357142Y-102037380D01*
X190642857Y-101132619D02*
X190690476Y-101085000D01*
X190785714Y-101037380D01*
X191023809Y-101037380D01*
X191119047Y-101085000D01*
X191166666Y-101132619D01*
X191214285Y-101227857D01*
X191214285Y-101323095D01*
X191166666Y-101465952D01*
X190595238Y-102037380D01*
X191214285Y-102037380D01*
X121440000Y-107215714D02*
X121368571Y-107287142D01*
X121154285Y-107358571D01*
X121011428Y-107358571D01*
X120797142Y-107287142D01*
X120654285Y-107144285D01*
X120582857Y-107001428D01*
X120511428Y-106715714D01*
X120511428Y-106501428D01*
X120582857Y-106215714D01*
X120654285Y-106072857D01*
X120797142Y-105930000D01*
X121011428Y-105858571D01*
X121154285Y-105858571D01*
X121368571Y-105930000D01*
X121440000Y-106001428D01*
X122082857Y-107358571D02*
X122082857Y-105858571D01*
X122082857Y-106572857D02*
X122940000Y-106572857D01*
X122940000Y-107358571D02*
X122940000Y-105858571D01*
X124440000Y-107358571D02*
X123582857Y-107358571D01*
X124011428Y-107358571D02*
X124011428Y-105858571D01*
X123868571Y-106072857D01*
X123725714Y-106215714D01*
X123582857Y-106287142D01*
X125725714Y-106358571D02*
X125725714Y-107358571D01*
X125368571Y-105787142D02*
X125011428Y-106858571D01*
X125940000Y-106858571D01*
X71354285Y-97555714D02*
X71282857Y-97627142D01*
X71068571Y-97698571D01*
X70925714Y-97698571D01*
X70711428Y-97627142D01*
X70568571Y-97484285D01*
X70497142Y-97341428D01*
X70425714Y-97055714D01*
X70425714Y-96841428D01*
X70497142Y-96555714D01*
X70568571Y-96412857D01*
X70711428Y-96270000D01*
X70925714Y-96198571D01*
X71068571Y-96198571D01*
X71282857Y-96270000D01*
X71354285Y-96341428D01*
X71997142Y-97698571D02*
X71997142Y-96198571D01*
X71997142Y-96912857D02*
X72854285Y-96912857D01*
X72854285Y-97698571D02*
X72854285Y-96198571D01*
X74282857Y-96198571D02*
X73568571Y-96198571D01*
X73497142Y-96912857D01*
X73568571Y-96841428D01*
X73711428Y-96770000D01*
X74068571Y-96770000D01*
X74211428Y-96841428D01*
X74282857Y-96912857D01*
X74354285Y-97055714D01*
X74354285Y-97412857D01*
X74282857Y-97555714D01*
X74211428Y-97627142D01*
X74068571Y-97698571D01*
X73711428Y-97698571D01*
X73568571Y-97627142D01*
X73497142Y-97555714D01*
X159245162Y-69105907D02*
X159578496Y-70105907D01*
X159911829Y-69105907D01*
X160245162Y-70105907D02*
X160245162Y-69105907D01*
X160721353Y-70105907D02*
X160721353Y-69105907D01*
X161292781Y-70105907D01*
X161292781Y-69105907D01*
X164578496Y-69153527D02*
X164483258Y-69105907D01*
X164340400Y-69105907D01*
X164197543Y-69153527D01*
X164102305Y-69248765D01*
X164054686Y-69344003D01*
X164007067Y-69534479D01*
X164007067Y-69677336D01*
X164054686Y-69867812D01*
X164102305Y-69963050D01*
X164197543Y-70058288D01*
X164340400Y-70105907D01*
X164435639Y-70105907D01*
X164578496Y-70058288D01*
X164626115Y-70010669D01*
X164626115Y-69677336D01*
X164435639Y-69677336D01*
X165054686Y-70105907D02*
X165054686Y-69105907D01*
X165626115Y-70105907D01*
X165626115Y-69105907D01*
X166102305Y-70105907D02*
X166102305Y-69105907D01*
X166340400Y-69105907D01*
X166483258Y-69153527D01*
X166578496Y-69248765D01*
X166626115Y-69344003D01*
X166673734Y-69534479D01*
X166673734Y-69677336D01*
X166626115Y-69867812D01*
X166578496Y-69963050D01*
X166483258Y-70058288D01*
X166340400Y-70105907D01*
X166102305Y-70105907D01*
X170102305Y-69820193D02*
X170578496Y-69820193D01*
X170007067Y-70105907D02*
X170340400Y-69105907D01*
X170673734Y-70105907D01*
X171530877Y-70105907D02*
X170959448Y-70105907D01*
X171245162Y-70105907D02*
X171245162Y-69105907D01*
X171149924Y-69248765D01*
X171054686Y-69344003D01*
X170959448Y-69391622D01*
X175007067Y-70105907D02*
X175007067Y-69105907D01*
X175245162Y-69105907D01*
X175388019Y-69153527D01*
X175483258Y-69248765D01*
X175530877Y-69344003D01*
X175578496Y-69534479D01*
X175578496Y-69677336D01*
X175530877Y-69867812D01*
X175483258Y-69963050D01*
X175388019Y-70058288D01*
X175245162Y-70105907D01*
X175007067Y-70105907D01*
X176054686Y-70105907D02*
X176245162Y-70105907D01*
X176340400Y-70058288D01*
X176388019Y-70010669D01*
X176483258Y-69867812D01*
X176530877Y-69677336D01*
X176530877Y-69296384D01*
X176483258Y-69201146D01*
X176435638Y-69153527D01*
X176340400Y-69105907D01*
X176149924Y-69105907D01*
X176054686Y-69153527D01*
X176007067Y-69201146D01*
X175959448Y-69296384D01*
X175959448Y-69534479D01*
X176007067Y-69629717D01*
X176054686Y-69677336D01*
X176149924Y-69724955D01*
X176340400Y-69724955D01*
X176435638Y-69677336D01*
X176483258Y-69629717D01*
X176530877Y-69534479D01*
X158806666Y-77557380D02*
X159140000Y-78557380D01*
X159473333Y-77557380D01*
X159806666Y-78557380D02*
X159806666Y-77557380D01*
X160282857Y-78557380D02*
X160282857Y-77557380D01*
X160854285Y-78557380D01*
X160854285Y-77557380D01*
X164140000Y-77605000D02*
X164044761Y-77557380D01*
X163901904Y-77557380D01*
X163759047Y-77605000D01*
X163663809Y-77700238D01*
X163616190Y-77795476D01*
X163568571Y-77985952D01*
X163568571Y-78128809D01*
X163616190Y-78319285D01*
X163663809Y-78414523D01*
X163759047Y-78509761D01*
X163901904Y-78557380D01*
X163997142Y-78557380D01*
X164140000Y-78509761D01*
X164187619Y-78462142D01*
X164187619Y-78128809D01*
X163997142Y-78128809D01*
X164616190Y-78557380D02*
X164616190Y-77557380D01*
X165187619Y-78557380D01*
X165187619Y-77557380D01*
X165663809Y-78557380D02*
X165663809Y-77557380D01*
X165901904Y-77557380D01*
X166044761Y-77605000D01*
X166140000Y-77700238D01*
X166187619Y-77795476D01*
X166235238Y-77985952D01*
X166235238Y-78128809D01*
X166187619Y-78319285D01*
X166140000Y-78414523D01*
X166044761Y-78509761D01*
X165901904Y-78557380D01*
X165663809Y-78557380D01*
X168901904Y-78509761D02*
X169044761Y-78557380D01*
X169282857Y-78557380D01*
X169378095Y-78509761D01*
X169425714Y-78462142D01*
X169473333Y-78366904D01*
X169473333Y-78271666D01*
X169425714Y-78176428D01*
X169378095Y-78128809D01*
X169282857Y-78081190D01*
X169092380Y-78033571D01*
X168997142Y-77985952D01*
X168949523Y-77938333D01*
X168901904Y-77843095D01*
X168901904Y-77747857D01*
X168949523Y-77652619D01*
X168997142Y-77605000D01*
X169092380Y-77557380D01*
X169330476Y-77557380D01*
X169473333Y-77605000D01*
X169901904Y-78557380D02*
X169901904Y-77557380D01*
X170140000Y-77557380D01*
X170282857Y-77605000D01*
X170378095Y-77700238D01*
X170425714Y-77795476D01*
X170473333Y-77985952D01*
X170473333Y-78128809D01*
X170425714Y-78319285D01*
X170378095Y-78414523D01*
X170282857Y-78509761D01*
X170140000Y-78557380D01*
X169901904Y-78557380D01*
X170854285Y-78271666D02*
X171330476Y-78271666D01*
X170759047Y-78557380D02*
X171092380Y-77557380D01*
X171425714Y-78557380D01*
X173997142Y-78509761D02*
X174140000Y-78557380D01*
X174378095Y-78557380D01*
X174473333Y-78509761D01*
X174520952Y-78462142D01*
X174568571Y-78366904D01*
X174568571Y-78271666D01*
X174520952Y-78176428D01*
X174473333Y-78128809D01*
X174378095Y-78081190D01*
X174187619Y-78033571D01*
X174092380Y-77985952D01*
X174044761Y-77938333D01*
X173997142Y-77843095D01*
X173997142Y-77747857D01*
X174044761Y-77652619D01*
X174092380Y-77605000D01*
X174187619Y-77557380D01*
X174425714Y-77557380D01*
X174568571Y-77605000D01*
X175568571Y-78462142D02*
X175520952Y-78509761D01*
X175378095Y-78557380D01*
X175282857Y-78557380D01*
X175140000Y-78509761D01*
X175044761Y-78414523D01*
X174997142Y-78319285D01*
X174949523Y-78128809D01*
X174949523Y-77985952D01*
X174997142Y-77795476D01*
X175044761Y-77700238D01*
X175140000Y-77605000D01*
X175282857Y-77557380D01*
X175378095Y-77557380D01*
X175520952Y-77605000D01*
X175568571Y-77652619D01*
X176473333Y-78557380D02*
X175997142Y-78557380D01*
X175997142Y-77557380D01*
%TO.C,R2*%
X187793333Y-76102380D02*
X187460000Y-75626190D01*
X187221904Y-76102380D02*
X187221904Y-75102380D01*
X187602857Y-75102380D01*
X187698095Y-75150000D01*
X187745714Y-75197619D01*
X187793333Y-75292857D01*
X187793333Y-75435714D01*
X187745714Y-75530952D01*
X187698095Y-75578571D01*
X187602857Y-75626190D01*
X187221904Y-75626190D01*
X188174285Y-75197619D02*
X188221904Y-75150000D01*
X188317142Y-75102380D01*
X188555238Y-75102380D01*
X188650476Y-75150000D01*
X188698095Y-75197619D01*
X188745714Y-75292857D01*
X188745714Y-75388095D01*
X188698095Y-75530952D01*
X188126666Y-76102380D01*
X188745714Y-76102380D01*
%TO.C,U1*%
X205602380Y-66801904D02*
X206411904Y-66801904D01*
X206507142Y-66754285D01*
X206554761Y-66706666D01*
X206602380Y-66611428D01*
X206602380Y-66420952D01*
X206554761Y-66325714D01*
X206507142Y-66278095D01*
X206411904Y-66230476D01*
X205602380Y-66230476D01*
X206602380Y-65230476D02*
X206602380Y-65801904D01*
X206602380Y-65516190D02*
X205602380Y-65516190D01*
X205745238Y-65611428D01*
X205840476Y-65706666D01*
X205888095Y-65801904D01*
%TO.C,R4*%
X113312380Y-66206666D02*
X112836190Y-66540000D01*
X113312380Y-66778095D02*
X112312380Y-66778095D01*
X112312380Y-66397142D01*
X112360000Y-66301904D01*
X112407619Y-66254285D01*
X112502857Y-66206666D01*
X112645714Y-66206666D01*
X112740952Y-66254285D01*
X112788571Y-66301904D01*
X112836190Y-66397142D01*
X112836190Y-66778095D01*
X112645714Y-65349523D02*
X113312380Y-65349523D01*
X112264761Y-65587619D02*
X112979047Y-65825714D01*
X112979047Y-65206666D01*
X108572380Y-66730476D02*
X108572380Y-67301904D01*
X108572380Y-67016190D02*
X107572380Y-67016190D01*
X107715238Y-67111428D01*
X107810476Y-67206666D01*
X107858095Y-67301904D01*
X107572380Y-66111428D02*
X107572380Y-66016190D01*
X107620000Y-65920952D01*
X107667619Y-65873333D01*
X107762857Y-65825714D01*
X107953333Y-65778095D01*
X108191428Y-65778095D01*
X108381904Y-65825714D01*
X108477142Y-65873333D01*
X108524761Y-65920952D01*
X108572380Y-66016190D01*
X108572380Y-66111428D01*
X108524761Y-66206666D01*
X108477142Y-66254285D01*
X108381904Y-66301904D01*
X108191428Y-66349523D01*
X107953333Y-66349523D01*
X107762857Y-66301904D01*
X107667619Y-66254285D01*
X107620000Y-66206666D01*
X107572380Y-66111428D01*
X108572380Y-65349523D02*
X107572380Y-65349523D01*
X108572380Y-64778095D02*
X108000952Y-65206666D01*
X107572380Y-64778095D02*
X108143809Y-65349523D01*
%TO.C,J9*%
X153971666Y-68667380D02*
X153971666Y-69381666D01*
X153924047Y-69524523D01*
X153828809Y-69619761D01*
X153685952Y-69667380D01*
X153590714Y-69667380D01*
X154495476Y-69667380D02*
X154685952Y-69667380D01*
X154781190Y-69619761D01*
X154828809Y-69572142D01*
X154924047Y-69429285D01*
X154971666Y-69238809D01*
X154971666Y-68857857D01*
X154924047Y-68762619D01*
X154876428Y-68715000D01*
X154781190Y-68667380D01*
X154590714Y-68667380D01*
X154495476Y-68715000D01*
X154447857Y-68762619D01*
X154400238Y-68857857D01*
X154400238Y-69095952D01*
X154447857Y-69191190D01*
X154495476Y-69238809D01*
X154590714Y-69286428D01*
X154781190Y-69286428D01*
X154876428Y-69238809D01*
X154924047Y-69191190D01*
X154971666Y-69095952D01*
%TO.C,J11*%
X193920476Y-81987380D02*
X193920476Y-82701666D01*
X193872857Y-82844523D01*
X193777619Y-82939761D01*
X193634761Y-82987380D01*
X193539523Y-82987380D01*
X194920476Y-82987380D02*
X194349047Y-82987380D01*
X194634761Y-82987380D02*
X194634761Y-81987380D01*
X194539523Y-82130238D01*
X194444285Y-82225476D01*
X194349047Y-82273095D01*
X195872857Y-82987380D02*
X195301428Y-82987380D01*
X195587142Y-82987380D02*
X195587142Y-81987380D01*
X195491904Y-82130238D01*
X195396666Y-82225476D01*
X195301428Y-82273095D01*
%TO.C,R1*%
X201128333Y-76102380D02*
X200795000Y-75626190D01*
X200556904Y-76102380D02*
X200556904Y-75102380D01*
X200937857Y-75102380D01*
X201033095Y-75150000D01*
X201080714Y-75197619D01*
X201128333Y-75292857D01*
X201128333Y-75435714D01*
X201080714Y-75530952D01*
X201033095Y-75578571D01*
X200937857Y-75626190D01*
X200556904Y-75626190D01*
X202080714Y-76102380D02*
X201509285Y-76102380D01*
X201795000Y-76102380D02*
X201795000Y-75102380D01*
X201699761Y-75245238D01*
X201604523Y-75340476D01*
X201509285Y-75388095D01*
%TO.C,J8*%
X219376666Y-81987380D02*
X219376666Y-82701666D01*
X219329047Y-82844523D01*
X219233809Y-82939761D01*
X219090952Y-82987380D01*
X218995714Y-82987380D01*
X219995714Y-82415952D02*
X219900476Y-82368333D01*
X219852857Y-82320714D01*
X219805238Y-82225476D01*
X219805238Y-82177857D01*
X219852857Y-82082619D01*
X219900476Y-82035000D01*
X219995714Y-81987380D01*
X220186190Y-81987380D01*
X220281428Y-82035000D01*
X220329047Y-82082619D01*
X220376666Y-82177857D01*
X220376666Y-82225476D01*
X220329047Y-82320714D01*
X220281428Y-82368333D01*
X220186190Y-82415952D01*
X219995714Y-82415952D01*
X219900476Y-82463571D01*
X219852857Y-82511190D01*
X219805238Y-82606428D01*
X219805238Y-82796904D01*
X219852857Y-82892142D01*
X219900476Y-82939761D01*
X219995714Y-82987380D01*
X220186190Y-82987380D01*
X220281428Y-82939761D01*
X220329047Y-82892142D01*
X220376666Y-82796904D01*
X220376666Y-82606428D01*
X220329047Y-82511190D01*
X220281428Y-82463571D01*
X220186190Y-82415952D01*
%TO.C,J15*%
X159845476Y-125182380D02*
X159845476Y-125896666D01*
X159797857Y-126039523D01*
X159702619Y-126134761D01*
X159559761Y-126182380D01*
X159464523Y-126182380D01*
X160845476Y-126182380D02*
X160274047Y-126182380D01*
X160559761Y-126182380D02*
X160559761Y-125182380D01*
X160464523Y-125325238D01*
X160369285Y-125420476D01*
X160274047Y-125468095D01*
X161750238Y-125182380D02*
X161274047Y-125182380D01*
X161226428Y-125658571D01*
X161274047Y-125610952D01*
X161369285Y-125563333D01*
X161607380Y-125563333D01*
X161702619Y-125610952D01*
X161750238Y-125658571D01*
X161797857Y-125753809D01*
X161797857Y-125991904D01*
X161750238Y-126087142D01*
X161702619Y-126134761D01*
X161607380Y-126182380D01*
X161369285Y-126182380D01*
X161274047Y-126134761D01*
X161226428Y-126087142D01*
%TO.C,J7*%
X219376666Y-128767380D02*
X219376666Y-129481666D01*
X219329047Y-129624523D01*
X219233809Y-129719761D01*
X219090952Y-129767380D01*
X218995714Y-129767380D01*
X219757619Y-128767380D02*
X220424285Y-128767380D01*
X219995714Y-129767380D01*
%TO.C,J5*%
X135556666Y-49337380D02*
X135556666Y-50051666D01*
X135509047Y-50194523D01*
X135413809Y-50289761D01*
X135270952Y-50337380D01*
X135175714Y-50337380D01*
X136509047Y-49337380D02*
X136032857Y-49337380D01*
X135985238Y-49813571D01*
X136032857Y-49765952D01*
X136128095Y-49718333D01*
X136366190Y-49718333D01*
X136461428Y-49765952D01*
X136509047Y-49813571D01*
X136556666Y-49908809D01*
X136556666Y-50146904D01*
X136509047Y-50242142D01*
X136461428Y-50289761D01*
X136366190Y-50337380D01*
X136128095Y-50337380D01*
X136032857Y-50289761D01*
X135985238Y-50242142D01*
%TO.C,U2*%
X109728095Y-79462380D02*
X109728095Y-80271904D01*
X109775714Y-80367142D01*
X109823333Y-80414761D01*
X109918571Y-80462380D01*
X110109047Y-80462380D01*
X110204285Y-80414761D01*
X110251904Y-80367142D01*
X110299523Y-80271904D01*
X110299523Y-79462380D01*
X110728095Y-79557619D02*
X110775714Y-79510000D01*
X110870952Y-79462380D01*
X111109047Y-79462380D01*
X111204285Y-79510000D01*
X111251904Y-79557619D01*
X111299523Y-79652857D01*
X111299523Y-79748095D01*
X111251904Y-79890952D01*
X110680476Y-80462380D01*
X111299523Y-80462380D01*
X104894761Y-77827142D02*
X104847142Y-77874761D01*
X104704285Y-77922380D01*
X104609047Y-77922380D01*
X104466190Y-77874761D01*
X104370952Y-77779523D01*
X104323333Y-77684285D01*
X104275714Y-77493809D01*
X104275714Y-77350952D01*
X104323333Y-77160476D01*
X104370952Y-77065238D01*
X104466190Y-76970000D01*
X104609047Y-76922380D01*
X104704285Y-76922380D01*
X104847142Y-76970000D01*
X104894761Y-77017619D01*
X105323333Y-77922380D02*
X105323333Y-76922380D01*
X105561428Y-76922380D01*
X105704285Y-76970000D01*
X105799523Y-77065238D01*
X105847142Y-77160476D01*
X105894761Y-77350952D01*
X105894761Y-77493809D01*
X105847142Y-77684285D01*
X105799523Y-77779523D01*
X105704285Y-77874761D01*
X105561428Y-77922380D01*
X105323333Y-77922380D01*
X106228095Y-76922380D02*
X106894761Y-76922380D01*
X106466190Y-77922380D01*
X107704285Y-77255714D02*
X107704285Y-77922380D01*
X107466190Y-76874761D02*
X107228095Y-77589047D01*
X107847142Y-77589047D01*
X108228095Y-77922380D02*
X108228095Y-76922380D01*
X108228095Y-77398571D02*
X108799523Y-77398571D01*
X108799523Y-77922380D02*
X108799523Y-76922380D01*
X109847142Y-77827142D02*
X109799523Y-77874761D01*
X109656666Y-77922380D01*
X109561428Y-77922380D01*
X109418571Y-77874761D01*
X109323333Y-77779523D01*
X109275714Y-77684285D01*
X109228095Y-77493809D01*
X109228095Y-77350952D01*
X109275714Y-77160476D01*
X109323333Y-77065238D01*
X109418571Y-76970000D01*
X109561428Y-76922380D01*
X109656666Y-76922380D01*
X109799523Y-76970000D01*
X109847142Y-77017619D01*
X110704285Y-77255714D02*
X110704285Y-77922380D01*
X110466190Y-76874761D02*
X110228095Y-77589047D01*
X110847142Y-77589047D01*
X111418571Y-76922380D02*
X111513809Y-76922380D01*
X111609047Y-76970000D01*
X111656666Y-77017619D01*
X111704285Y-77112857D01*
X111751904Y-77303333D01*
X111751904Y-77541428D01*
X111704285Y-77731904D01*
X111656666Y-77827142D01*
X111609047Y-77874761D01*
X111513809Y-77922380D01*
X111418571Y-77922380D01*
X111323333Y-77874761D01*
X111275714Y-77827142D01*
X111228095Y-77731904D01*
X111180476Y-77541428D01*
X111180476Y-77303333D01*
X111228095Y-77112857D01*
X111275714Y-77017619D01*
X111323333Y-76970000D01*
X111418571Y-76922380D01*
X112609047Y-76922380D02*
X112418571Y-76922380D01*
X112323333Y-76970000D01*
X112275714Y-77017619D01*
X112180476Y-77160476D01*
X112132857Y-77350952D01*
X112132857Y-77731904D01*
X112180476Y-77827142D01*
X112228095Y-77874761D01*
X112323333Y-77922380D01*
X112513809Y-77922380D01*
X112609047Y-77874761D01*
X112656666Y-77827142D01*
X112704285Y-77731904D01*
X112704285Y-77493809D01*
X112656666Y-77398571D01*
X112609047Y-77350952D01*
X112513809Y-77303333D01*
X112323333Y-77303333D01*
X112228095Y-77350952D01*
X112180476Y-77398571D01*
X112132857Y-77493809D01*
X113037619Y-76922380D02*
X113704285Y-76922380D01*
X113275714Y-77922380D01*
X114085238Y-77922380D02*
X114085238Y-76922380D01*
X114418571Y-77636666D01*
X114751904Y-76922380D01*
X114751904Y-77922380D01*
X115275714Y-77922380D02*
X115466190Y-77922380D01*
X115561428Y-77874761D01*
X115609047Y-77827142D01*
X115704285Y-77684285D01*
X115751904Y-77493809D01*
X115751904Y-77112857D01*
X115704285Y-77017619D01*
X115656666Y-76970000D01*
X115561428Y-76922380D01*
X115370952Y-76922380D01*
X115275714Y-76970000D01*
X115228095Y-77017619D01*
X115180476Y-77112857D01*
X115180476Y-77350952D01*
X115228095Y-77446190D01*
X115275714Y-77493809D01*
X115370952Y-77541428D01*
X115561428Y-77541428D01*
X115656666Y-77493809D01*
X115704285Y-77446190D01*
X115751904Y-77350952D01*
X116609047Y-76922380D02*
X116418571Y-76922380D01*
X116323333Y-76970000D01*
X116275714Y-77017619D01*
X116180476Y-77160476D01*
X116132857Y-77350952D01*
X116132857Y-77731904D01*
X116180476Y-77827142D01*
X116228095Y-77874761D01*
X116323333Y-77922380D01*
X116513809Y-77922380D01*
X116609047Y-77874761D01*
X116656666Y-77827142D01*
X116704285Y-77731904D01*
X116704285Y-77493809D01*
X116656666Y-77398571D01*
X116609047Y-77350952D01*
X116513809Y-77303333D01*
X116323333Y-77303333D01*
X116228095Y-77350952D01*
X116180476Y-77398571D01*
X116132857Y-77493809D01*
%TO.C,J13*%
X153495476Y-100417380D02*
X153495476Y-101131666D01*
X153447857Y-101274523D01*
X153352619Y-101369761D01*
X153209761Y-101417380D01*
X153114523Y-101417380D01*
X154495476Y-101417380D02*
X153924047Y-101417380D01*
X154209761Y-101417380D02*
X154209761Y-100417380D01*
X154114523Y-100560238D01*
X154019285Y-100655476D01*
X153924047Y-100703095D01*
X154828809Y-100417380D02*
X155447857Y-100417380D01*
X155114523Y-100798333D01*
X155257380Y-100798333D01*
X155352619Y-100845952D01*
X155400238Y-100893571D01*
X155447857Y-100988809D01*
X155447857Y-101226904D01*
X155400238Y-101322142D01*
X155352619Y-101369761D01*
X155257380Y-101417380D01*
X154971666Y-101417380D01*
X154876428Y-101369761D01*
X154828809Y-101322142D01*
%TO.C,J1*%
X91106666Y-90572380D02*
X91106666Y-91286666D01*
X91059047Y-91429523D01*
X90963809Y-91524761D01*
X90820952Y-91572380D01*
X90725714Y-91572380D01*
X92106666Y-91572380D02*
X91535238Y-91572380D01*
X91820952Y-91572380D02*
X91820952Y-90572380D01*
X91725714Y-90715238D01*
X91630476Y-90810476D01*
X91535238Y-90858095D01*
%TO.C,J14*%
X159845476Y-113752380D02*
X159845476Y-114466666D01*
X159797857Y-114609523D01*
X159702619Y-114704761D01*
X159559761Y-114752380D01*
X159464523Y-114752380D01*
X160845476Y-114752380D02*
X160274047Y-114752380D01*
X160559761Y-114752380D02*
X160559761Y-113752380D01*
X160464523Y-113895238D01*
X160369285Y-113990476D01*
X160274047Y-114038095D01*
X161702619Y-114085714D02*
X161702619Y-114752380D01*
X161464523Y-113704761D02*
X161226428Y-114419047D01*
X161845476Y-114419047D01*
%TO.C,J2*%
X91106666Y-131032380D02*
X91106666Y-131746666D01*
X91059047Y-131889523D01*
X90963809Y-131984761D01*
X90820952Y-132032380D01*
X90725714Y-132032380D01*
X91535238Y-131127619D02*
X91582857Y-131080000D01*
X91678095Y-131032380D01*
X91916190Y-131032380D01*
X92011428Y-131080000D01*
X92059047Y-131127619D01*
X92106666Y-131222857D01*
X92106666Y-131318095D01*
X92059047Y-131460952D01*
X91487619Y-132032380D01*
X92106666Y-132032380D01*
%TO.C,J12*%
X153495476Y-88352380D02*
X153495476Y-89066666D01*
X153447857Y-89209523D01*
X153352619Y-89304761D01*
X153209761Y-89352380D01*
X153114523Y-89352380D01*
X154495476Y-89352380D02*
X153924047Y-89352380D01*
X154209761Y-89352380D02*
X154209761Y-88352380D01*
X154114523Y-88495238D01*
X154019285Y-88590476D01*
X153924047Y-88638095D01*
X154876428Y-88447619D02*
X154924047Y-88400000D01*
X155019285Y-88352380D01*
X155257380Y-88352380D01*
X155352619Y-88400000D01*
X155400238Y-88447619D01*
X155447857Y-88542857D01*
X155447857Y-88638095D01*
X155400238Y-88780952D01*
X154828809Y-89352380D01*
X155447857Y-89352380D01*
%TO.C,A1*%
X205875714Y-132246666D02*
X206351904Y-132246666D01*
X205780476Y-132532380D02*
X206113809Y-131532380D01*
X206447142Y-132532380D01*
X207304285Y-132532380D02*
X206732857Y-132532380D01*
X207018571Y-132532380D02*
X207018571Y-131532380D01*
X206923333Y-131675238D01*
X206828095Y-131770476D01*
X206732857Y-131818095D01*
%TO.C,C1*%
X194143333Y-75977142D02*
X194095714Y-76024761D01*
X193952857Y-76072380D01*
X193857619Y-76072380D01*
X193714761Y-76024761D01*
X193619523Y-75929523D01*
X193571904Y-75834285D01*
X193524285Y-75643809D01*
X193524285Y-75500952D01*
X193571904Y-75310476D01*
X193619523Y-75215238D01*
X193714761Y-75120000D01*
X193857619Y-75072380D01*
X193952857Y-75072380D01*
X194095714Y-75120000D01*
X194143333Y-75167619D01*
X195095714Y-76072380D02*
X194524285Y-76072380D01*
X194810000Y-76072380D02*
X194810000Y-75072380D01*
X194714761Y-75215238D01*
X194619523Y-75310476D01*
X194524285Y-75358095D01*
%TO.C,J10*%
X193500476Y-128767380D02*
X193500476Y-129481666D01*
X193452857Y-129624523D01*
X193357619Y-129719761D01*
X193214761Y-129767380D01*
X193119523Y-129767380D01*
X194500476Y-129767380D02*
X193929047Y-129767380D01*
X194214761Y-129767380D02*
X194214761Y-128767380D01*
X194119523Y-128910238D01*
X194024285Y-129005476D01*
X193929047Y-129053095D01*
X195119523Y-128767380D02*
X195214761Y-128767380D01*
X195310000Y-128815000D01*
X195357619Y-128862619D01*
X195405238Y-128957857D01*
X195452857Y-129148333D01*
X195452857Y-129386428D01*
X195405238Y-129576904D01*
X195357619Y-129672142D01*
X195310000Y-129719761D01*
X195214761Y-129767380D01*
X195119523Y-129767380D01*
X195024285Y-129719761D01*
X194976666Y-129672142D01*
X194929047Y-129576904D01*
X194881428Y-129386428D01*
X194881428Y-129148333D01*
X194929047Y-128957857D01*
X194976666Y-128862619D01*
X195024285Y-128815000D01*
X195119523Y-128767380D01*
%TO.C,J3*%
X74596666Y-90572380D02*
X74596666Y-91286666D01*
X74549047Y-91429523D01*
X74453809Y-91524761D01*
X74310952Y-91572380D01*
X74215714Y-91572380D01*
X74977619Y-90572380D02*
X75596666Y-90572380D01*
X75263333Y-90953333D01*
X75406190Y-90953333D01*
X75501428Y-91000952D01*
X75549047Y-91048571D01*
X75596666Y-91143809D01*
X75596666Y-91381904D01*
X75549047Y-91477142D01*
X75501428Y-91524761D01*
X75406190Y-91572380D01*
X75120476Y-91572380D01*
X75025238Y-91524761D01*
X74977619Y-91477142D01*
%TO.C,J4*%
X74596666Y-131252380D02*
X74596666Y-131966666D01*
X74549047Y-132109523D01*
X74453809Y-132204761D01*
X74310952Y-132252380D01*
X74215714Y-132252380D01*
X75501428Y-131585714D02*
X75501428Y-132252380D01*
X75263333Y-131204761D02*
X75025238Y-131919047D01*
X75644285Y-131919047D01*
%TO.C,BAT1*%
X193730714Y-72063571D02*
X193873571Y-72111190D01*
X193921190Y-72158809D01*
X193968809Y-72254047D01*
X193968809Y-72396904D01*
X193921190Y-72492142D01*
X193873571Y-72539761D01*
X193778333Y-72587380D01*
X193397380Y-72587380D01*
X193397380Y-71587380D01*
X193730714Y-71587380D01*
X193825952Y-71635000D01*
X193873571Y-71682619D01*
X193921190Y-71777857D01*
X193921190Y-71873095D01*
X193873571Y-71968333D01*
X193825952Y-72015952D01*
X193730714Y-72063571D01*
X193397380Y-72063571D01*
X194349761Y-72301666D02*
X194825952Y-72301666D01*
X194254523Y-72587380D02*
X194587857Y-71587380D01*
X194921190Y-72587380D01*
X195111666Y-71587380D02*
X195683095Y-71587380D01*
X195397380Y-72587380D02*
X195397380Y-71587380D01*
X196540238Y-72587380D02*
X195968809Y-72587380D01*
X196254523Y-72587380D02*
X196254523Y-71587380D01*
X196159285Y-71730238D01*
X196064047Y-71825476D01*
X195968809Y-71873095D01*
%TO.C,Y1*%
X204446190Y-76676190D02*
X204922380Y-76676190D01*
X203922380Y-77009523D02*
X204446190Y-76676190D01*
X203922380Y-76342857D01*
X204922380Y-75485714D02*
X204922380Y-76057142D01*
X204922380Y-75771428D02*
X203922380Y-75771428D01*
X204065238Y-75866666D01*
X204160476Y-75961904D01*
X204208095Y-76057142D01*
%TO.C,J6*%
X135556666Y-92162380D02*
X135556666Y-92876666D01*
X135509047Y-93019523D01*
X135413809Y-93114761D01*
X135270952Y-93162380D01*
X135175714Y-93162380D01*
X136461428Y-92162380D02*
X136270952Y-92162380D01*
X136175714Y-92210000D01*
X136128095Y-92257619D01*
X136032857Y-92400476D01*
X135985238Y-92590952D01*
X135985238Y-92971904D01*
X136032857Y-93067142D01*
X136080476Y-93114761D01*
X136175714Y-93162380D01*
X136366190Y-93162380D01*
X136461428Y-93114761D01*
X136509047Y-93067142D01*
X136556666Y-92971904D01*
X136556666Y-92733809D01*
X136509047Y-92638571D01*
X136461428Y-92590952D01*
X136366190Y-92543333D01*
X136175714Y-92543333D01*
X136080476Y-92590952D01*
X136032857Y-92638571D01*
X135985238Y-92733809D01*
%TO.C,R3*%
X110323333Y-102602380D02*
X109990000Y-102126190D01*
X109751904Y-102602380D02*
X109751904Y-101602380D01*
X110132857Y-101602380D01*
X110228095Y-101650000D01*
X110275714Y-101697619D01*
X110323333Y-101792857D01*
X110323333Y-101935714D01*
X110275714Y-102030952D01*
X110228095Y-102078571D01*
X110132857Y-102126190D01*
X109751904Y-102126190D01*
X110656666Y-101602380D02*
X111275714Y-101602380D01*
X110942380Y-101983333D01*
X111085238Y-101983333D01*
X111180476Y-102030952D01*
X111228095Y-102078571D01*
X111275714Y-102173809D01*
X111275714Y-102411904D01*
X111228095Y-102507142D01*
X111180476Y-102554761D01*
X111085238Y-102602380D01*
X110799523Y-102602380D01*
X110704285Y-102554761D01*
X110656666Y-102507142D01*
D12*
%TO.C,R2*%
X187232936Y-78380000D02*
X188687064Y-78380000D01*
X187232936Y-76560000D02*
X188687064Y-76560000D01*
%TO.C,U1*%
X206990000Y-66040000D02*
X206990000Y-64090000D01*
X212110000Y-66040000D02*
X212110000Y-64090000D01*
X206990000Y-66040000D02*
X206990000Y-69490000D01*
X212110000Y-66040000D02*
X212110000Y-67990000D01*
%TO.C,R4*%
X110490000Y-72620000D02*
X110490000Y-69310000D01*
X109120000Y-69310000D02*
X111860000Y-69310000D01*
X111860000Y-69310000D02*
X111860000Y-62770000D01*
X109120000Y-62770000D02*
X109120000Y-69310000D01*
X110490000Y-59460000D02*
X110490000Y-62770000D01*
X111860000Y-62770000D02*
X109120000Y-62770000D01*
D13*
%TO.C,J9*%
X157540000Y-67985000D02*
X157540000Y-67485000D01*
X157540000Y-60285000D02*
X158040000Y-60285000D01*
X177740000Y-67985000D02*
X177240000Y-67985000D01*
X177740000Y-60285000D02*
X177240000Y-60285000D01*
X157540000Y-67985000D02*
X158040000Y-67985000D01*
X157540000Y-60285000D02*
X157540000Y-60735000D01*
X177740000Y-67985000D02*
X177740000Y-67485000D01*
X177740000Y-60285000D02*
X177740000Y-60735000D01*
D12*
%TO.C,J11*%
X192980000Y-102840000D02*
X192980000Y-85000000D01*
X195640000Y-85000000D02*
X192980000Y-85000000D01*
X195640000Y-102840000D02*
X192980000Y-102840000D01*
X195640000Y-102840000D02*
X195640000Y-85000000D01*
X195640000Y-104110000D02*
X195640000Y-105440000D01*
X195640000Y-105440000D02*
X194310000Y-105440000D01*
%TO.C,R1*%
X200567936Y-76560000D02*
X202022064Y-76560000D01*
X200567936Y-78380000D02*
X202022064Y-78380000D01*
%TO.C,J8*%
X221040000Y-104110000D02*
X221040000Y-105440000D01*
X218380000Y-102840000D02*
X218380000Y-85000000D01*
X221040000Y-102840000D02*
X218380000Y-102840000D01*
X221040000Y-102840000D02*
X221040000Y-85000000D01*
X221040000Y-105440000D02*
X219710000Y-105440000D01*
X221040000Y-85000000D02*
X218380000Y-85000000D01*
D13*
%TO.C,J15*%
X163135000Y-129580000D02*
X163635000Y-129580000D01*
X173335000Y-121880000D02*
X172835000Y-121880000D01*
X163135000Y-129580000D02*
X163135000Y-129080000D01*
X173335000Y-129580000D02*
X172835000Y-129580000D01*
X163135000Y-121880000D02*
X163135000Y-122330000D01*
X173335000Y-121880000D02*
X173335000Y-122330000D01*
X173335000Y-129580000D02*
X173335000Y-129080000D01*
X163135000Y-121880000D02*
X163635000Y-121880000D01*
D12*
%TO.C,J7*%
X221040000Y-125715000D02*
X221040000Y-107875000D01*
X218380000Y-125715000D02*
X218380000Y-107875000D01*
X221040000Y-126985000D02*
X221040000Y-128315000D01*
X221040000Y-125715000D02*
X218380000Y-125715000D01*
X221040000Y-107875000D02*
X218380000Y-107875000D01*
X221040000Y-128315000D02*
X219710000Y-128315000D01*
D13*
%TO.C,J5*%
X126960000Y-50105000D02*
X127460000Y-50105000D01*
X126960000Y-50105000D02*
X126960000Y-50605000D01*
X126960000Y-90305000D02*
X126960000Y-89805000D01*
X134660000Y-50105000D02*
X134210000Y-50105000D01*
X134660000Y-90305000D02*
X134210000Y-90305000D01*
X126960000Y-90305000D02*
X127460000Y-90305000D01*
X134660000Y-90305000D02*
X134660000Y-89805000D01*
X134660000Y-50105000D02*
X134660000Y-50605000D01*
%TO.C,U2*%
X114390000Y-96400000D02*
X114390000Y-96300000D01*
X106590000Y-96500000D02*
X106590000Y-96800000D01*
X114390000Y-96800000D02*
X113890000Y-96800000D01*
X107490000Y-81000000D02*
X107190000Y-81000000D01*
X107190000Y-81000000D02*
X106690000Y-81500000D01*
X106590000Y-96500000D02*
X106590000Y-96300000D01*
X106590000Y-96800000D02*
X107090000Y-96800000D01*
X114390000Y-81100000D02*
X113890000Y-81100000D01*
X106690000Y-81500000D02*
X105990000Y-81500000D01*
X114390000Y-96800000D02*
X114390000Y-96500000D01*
X114390000Y-81100000D02*
X114390000Y-81500000D01*
X114390000Y-96500000D02*
X114390000Y-96400000D01*
%TO.C,G1*%
G36*
X112955399Y-53270370D02*
G01*
X113024846Y-53313261D01*
X113075270Y-53377038D01*
X113100175Y-53453246D01*
X113093066Y-53533433D01*
X113047446Y-53609145D01*
X113041880Y-53614814D01*
X112966532Y-53667208D01*
X112885424Y-53689550D01*
X112829223Y-53682422D01*
X112747488Y-53630621D01*
X112696196Y-53556528D01*
X112676600Y-53471604D01*
X112689949Y-53387308D01*
X112737494Y-53315101D01*
X112785415Y-53281055D01*
X112873424Y-53256817D01*
X112955399Y-53270370D01*
G37*
G36*
X110131820Y-50704958D02*
G01*
X110104804Y-50442801D01*
X110079296Y-50193558D01*
X110055718Y-49961432D01*
X110034486Y-49750630D01*
X110016019Y-49565355D01*
X110000737Y-49409812D01*
X109989058Y-49288206D01*
X109982578Y-49217579D01*
X110079309Y-49217579D01*
X110079718Y-49242232D01*
X110084604Y-49308237D01*
X110093428Y-49409688D01*
X110105650Y-49540680D01*
X110120729Y-49695310D01*
X110138126Y-49867672D01*
X110143879Y-49923530D01*
X110167316Y-50149973D01*
X110193782Y-50405594D01*
X110221550Y-50673722D01*
X110248893Y-50937682D01*
X110274084Y-51180799D01*
X110287132Y-51306685D01*
X110305343Y-51483904D01*
X110321827Y-51647255D01*
X110335960Y-51790328D01*
X110347118Y-51906711D01*
X110354680Y-51989994D01*
X110358021Y-52033766D01*
X110358129Y-52037321D01*
X110365941Y-52074993D01*
X110376114Y-52083069D01*
X110396372Y-52066820D01*
X110446359Y-52020515D01*
X110522317Y-51947810D01*
X110620485Y-51852366D01*
X110737104Y-51737839D01*
X110868416Y-51607890D01*
X111010661Y-51466176D01*
X111035320Y-51441518D01*
X111676540Y-50799968D01*
X111676539Y-50799967D01*
X111843464Y-50799967D01*
X112472799Y-51429638D01*
X112615141Y-51571591D01*
X112747160Y-51702359D01*
X112865061Y-51818247D01*
X112965045Y-51915562D01*
X113043315Y-51990611D01*
X113096076Y-52039701D01*
X113119531Y-52059137D01*
X113120121Y-52059308D01*
X113137749Y-52041226D01*
X113138110Y-52036728D01*
X113140475Y-52009599D01*
X113147284Y-51939425D01*
X113158111Y-51830432D01*
X113172528Y-51686847D01*
X113190109Y-51512895D01*
X113210427Y-51312802D01*
X113233054Y-51090795D01*
X113257565Y-50851100D01*
X113280195Y-50630419D01*
X113305860Y-50379318D01*
X113329816Y-50142669D01*
X113351658Y-49924634D01*
X113370980Y-49729374D01*
X113387376Y-49561051D01*
X113400441Y-49423825D01*
X113409769Y-49321857D01*
X113414954Y-49259309D01*
X113415761Y-49240171D01*
X113398191Y-49255105D01*
X113350409Y-49300442D01*
X113275735Y-49372913D01*
X113177493Y-49469250D01*
X113059003Y-49586185D01*
X112923587Y-49720451D01*
X112774568Y-49868779D01*
X112626353Y-50016809D01*
X111843464Y-50799967D01*
X111676539Y-50799967D01*
X110881767Y-50004930D01*
X110721802Y-49845226D01*
X110572279Y-49696554D01*
X110436499Y-49562153D01*
X110317764Y-49445263D01*
X110219376Y-49349123D01*
X110144634Y-49276972D01*
X110096841Y-49232049D01*
X110079309Y-49217579D01*
X109982578Y-49217579D01*
X109981400Y-49204741D01*
X109978183Y-49163621D01*
X109978108Y-49161146D01*
X109970934Y-49141397D01*
X109948142Y-49107804D01*
X109907720Y-49058245D01*
X109847661Y-48990594D01*
X109765953Y-48902727D01*
X109660587Y-48792521D01*
X109529554Y-48657851D01*
X109370844Y-48496593D01*
X109182446Y-48306623D01*
X108962353Y-48085817D01*
X108931499Y-48054928D01*
X108718047Y-47841173D01*
X108535907Y-47658425D01*
X108382736Y-47504144D01*
X108256190Y-47375789D01*
X108153924Y-47270820D01*
X108073593Y-47186696D01*
X108012854Y-47120877D01*
X107969362Y-47070823D01*
X107940773Y-47033992D01*
X107924742Y-47007846D01*
X107918925Y-46989843D01*
X107920978Y-46977442D01*
X107928557Y-46968104D01*
X107928563Y-46968099D01*
X107939097Y-46961133D01*
X107952628Y-46959812D01*
X107971808Y-46966572D01*
X107999289Y-46983849D01*
X108037722Y-47014079D01*
X108089758Y-47059697D01*
X108158048Y-47123139D01*
X108245246Y-47206841D01*
X108354001Y-47313240D01*
X108486965Y-47444770D01*
X108646791Y-47603868D01*
X108836129Y-47792969D01*
X108945215Y-47902054D01*
X109122913Y-48079570D01*
X109290590Y-48246644D01*
X109445243Y-48400314D01*
X109583869Y-48537617D01*
X109703468Y-48655591D01*
X109801036Y-48751274D01*
X109873571Y-48821702D01*
X109918072Y-48863913D01*
X109931583Y-48875398D01*
X109936000Y-48854064D01*
X109933897Y-48798768D01*
X109927756Y-48738775D01*
X109917911Y-48653589D01*
X109910836Y-48580557D01*
X109908684Y-48548691D01*
X109901882Y-48519927D01*
X110001721Y-48519927D01*
X110004163Y-48552962D01*
X110010728Y-48621618D01*
X110020276Y-48714285D01*
X110026828Y-48775352D01*
X110051936Y-49006081D01*
X110899904Y-49855519D01*
X111065423Y-50021101D01*
X111220722Y-50176023D01*
X111362587Y-50317110D01*
X111487804Y-50441187D01*
X111593160Y-50545079D01*
X111675443Y-50625612D01*
X111731440Y-50679611D01*
X111757936Y-50703900D01*
X111759578Y-50704958D01*
X111779171Y-50688947D01*
X111827047Y-50644268D01*
X111897990Y-50575959D01*
X111986780Y-50489053D01*
X112088199Y-50388585D01*
X112110170Y-50366678D01*
X112213090Y-50263082D01*
X112303431Y-50170504D01*
X112376133Y-50094263D01*
X112426137Y-50039684D01*
X112448382Y-50012086D01*
X112449055Y-50010270D01*
X112426377Y-50005218D01*
X112362672Y-50000707D01*
X112264434Y-49996946D01*
X112138156Y-49994139D01*
X111990330Y-49992493D01*
X111878802Y-49992143D01*
X111308550Y-49992143D01*
X111308550Y-49730777D01*
X112472815Y-49730777D01*
X112472815Y-50003588D01*
X112957595Y-49519241D01*
X113096363Y-49381279D01*
X113206229Y-49271963D01*
X113290812Y-49185291D01*
X113319404Y-49153466D01*
X113518278Y-49153466D01*
X113540407Y-49175242D01*
X113607346Y-49184056D01*
X113625201Y-49184285D01*
X113732123Y-49184285D01*
X113732123Y-49065482D01*
X113729096Y-48997698D01*
X113721358Y-48954684D01*
X113715304Y-48946679D01*
X113685643Y-48963265D01*
X113639001Y-49004443D01*
X113587638Y-49057347D01*
X113543815Y-49109109D01*
X113519792Y-49146862D01*
X113518278Y-49153466D01*
X113319404Y-49153466D01*
X113353730Y-49115259D01*
X113398602Y-49055863D01*
X113429045Y-49001099D01*
X113448679Y-48944964D01*
X113459017Y-48892195D01*
X113557139Y-48892195D01*
X113580222Y-48893531D01*
X113608568Y-48870646D01*
X113635191Y-48830323D01*
X113622891Y-48807006D01*
X113604211Y-48804116D01*
X113572296Y-48824023D01*
X113558915Y-48851637D01*
X113557139Y-48892195D01*
X113459017Y-48892195D01*
X113461122Y-48881453D01*
X113469991Y-48804564D01*
X113478907Y-48708292D01*
X113485262Y-48643733D01*
X113500656Y-48495230D01*
X111751188Y-48495230D01*
X111376112Y-48495522D01*
X111047851Y-48496406D01*
X110765700Y-48497891D01*
X110528956Y-48499988D01*
X110336915Y-48502706D01*
X110188875Y-48506055D01*
X110084132Y-48510045D01*
X110021983Y-48514686D01*
X110001721Y-48519927D01*
X109901882Y-48519927D01*
X109900311Y-48513282D01*
X109869784Y-48498094D01*
X109816389Y-48495230D01*
X109732927Y-48484229D01*
X109686075Y-48447409D01*
X109669378Y-48379045D01*
X109669073Y-48364547D01*
X109764116Y-48364547D01*
X109768365Y-48371216D01*
X109783135Y-48377013D01*
X109811457Y-48381997D01*
X109856361Y-48386226D01*
X109920878Y-48389762D01*
X110008040Y-48392662D01*
X110120878Y-48394988D01*
X110262422Y-48396797D01*
X110435704Y-48398149D01*
X110643755Y-48399105D01*
X110889606Y-48399723D01*
X111176288Y-48400063D01*
X111506831Y-48400184D01*
X111581050Y-48400187D01*
X111920633Y-48400107D01*
X112215705Y-48399825D01*
X112469277Y-48399283D01*
X112684359Y-48398422D01*
X112863962Y-48397180D01*
X113011095Y-48395500D01*
X113128770Y-48393322D01*
X113219996Y-48390585D01*
X113287784Y-48387232D01*
X113335144Y-48383201D01*
X113365087Y-48378434D01*
X113380622Y-48372871D01*
X113384761Y-48366453D01*
X113384308Y-48364547D01*
X113377337Y-48357845D01*
X113359881Y-48352024D01*
X113328874Y-48347023D01*
X113281254Y-48342782D01*
X113213958Y-48339242D01*
X113123922Y-48336341D01*
X113008083Y-48334020D01*
X112863378Y-48332219D01*
X112686743Y-48330877D01*
X112475114Y-48329935D01*
X112225430Y-48329333D01*
X111934625Y-48329010D01*
X111599637Y-48328906D01*
X111567373Y-48328906D01*
X111228730Y-48328990D01*
X110934566Y-48329282D01*
X110681837Y-48329843D01*
X110467502Y-48330732D01*
X110288519Y-48332010D01*
X110141844Y-48333737D01*
X110024436Y-48335973D01*
X109933251Y-48338777D01*
X109865249Y-48342211D01*
X109817386Y-48346334D01*
X109786620Y-48351207D01*
X109769908Y-48356889D01*
X109764209Y-48363441D01*
X109764116Y-48364547D01*
X109669073Y-48364547D01*
X109681474Y-48290508D01*
X109722980Y-48248946D01*
X109800045Y-48234134D01*
X109816389Y-48233864D01*
X109873694Y-48231493D01*
X109899514Y-48215347D01*
X109906406Y-48171876D01*
X109906463Y-48164525D01*
X110001721Y-48164525D01*
X110004479Y-48205580D01*
X110020922Y-48226053D01*
X110063299Y-48233095D01*
X110120523Y-48233864D01*
X110239326Y-48233864D01*
X110500692Y-48233864D01*
X113328194Y-48233864D01*
X113328194Y-48179004D01*
X113342571Y-48115688D01*
X113363079Y-48078022D01*
X113390311Y-48037244D01*
X113398720Y-48017893D01*
X113376929Y-47992224D01*
X113310741Y-47968973D01*
X113203243Y-47948783D01*
X113057527Y-47932296D01*
X112948026Y-47924133D01*
X112745715Y-47911540D01*
X112585838Y-47901852D01*
X112463401Y-47895008D01*
X112373408Y-47890946D01*
X112310866Y-47889604D01*
X112270779Y-47890922D01*
X112248155Y-47894837D01*
X112237997Y-47901288D01*
X112235311Y-47910213D01*
X112235210Y-47915343D01*
X112227803Y-47927238D01*
X112201788Y-47936040D01*
X112151471Y-47942169D01*
X112071161Y-47946047D01*
X111955163Y-47948095D01*
X111797786Y-47948735D01*
X111783760Y-47948737D01*
X111625068Y-47948311D01*
X111507865Y-47946703D01*
X111426126Y-47943422D01*
X111373824Y-47937973D01*
X111344934Y-47929864D01*
X111333428Y-47918603D01*
X111332310Y-47911820D01*
X111326739Y-47895942D01*
X111304835Y-47886387D01*
X111258813Y-47882486D01*
X111180885Y-47883571D01*
X111065004Y-47888883D01*
X110938155Y-47896005D01*
X110811202Y-47903959D01*
X110702092Y-47911581D01*
X110649195Y-47915812D01*
X110500692Y-47928759D01*
X110500692Y-48233864D01*
X110239326Y-48233864D01*
X110239326Y-48091301D01*
X110235290Y-48003499D01*
X110218732Y-47957750D01*
X110182980Y-47948948D01*
X110121361Y-47971986D01*
X110098462Y-47983499D01*
X110037999Y-48027285D01*
X110008515Y-48087445D01*
X110001721Y-48164525D01*
X109906463Y-48164525D01*
X109906679Y-48136446D01*
X109914754Y-48063213D01*
X109945899Y-48004109D01*
X109985590Y-47960116D01*
X110065163Y-47899519D01*
X110148883Y-47865403D01*
X110151914Y-47864805D01*
X110211443Y-47847745D01*
X110236062Y-47820152D01*
X110239326Y-47793347D01*
X110258748Y-47724679D01*
X110307501Y-47680065D01*
X110371320Y-47665050D01*
X110435935Y-47685177D01*
X110461368Y-47707063D01*
X110492325Y-47756486D01*
X110500692Y-47790024D01*
X110505098Y-47806454D01*
X110523400Y-47816875D01*
X110563228Y-47821990D01*
X110632208Y-47822502D01*
X110737967Y-47819114D01*
X110791758Y-47816848D01*
X110965782Y-47808873D01*
X111013773Y-47806174D01*
X111427352Y-47806174D01*
X111429688Y-47824438D01*
X111441401Y-47837307D01*
X111469550Y-47845722D01*
X111521196Y-47850626D01*
X111603396Y-47852958D01*
X111723212Y-47853660D01*
X111783760Y-47853695D01*
X111920738Y-47853384D01*
X112017255Y-47851822D01*
X112080371Y-47848069D01*
X112117145Y-47841183D01*
X112134635Y-47830223D01*
X112139902Y-47814247D01*
X112140168Y-47806174D01*
X112137832Y-47787911D01*
X112126119Y-47775042D01*
X112097970Y-47766626D01*
X112046324Y-47761723D01*
X111964124Y-47759391D01*
X111844309Y-47758689D01*
X111783760Y-47758653D01*
X111646782Y-47758965D01*
X111550265Y-47760526D01*
X111487149Y-47764280D01*
X111450376Y-47771166D01*
X111432885Y-47782126D01*
X111427618Y-47798101D01*
X111427352Y-47806174D01*
X111013773Y-47806174D01*
X111098002Y-47801437D01*
X111194107Y-47793533D01*
X111259789Y-47784155D01*
X111300740Y-47772298D01*
X111322649Y-47756954D01*
X111331209Y-47737120D01*
X111332310Y-47721303D01*
X111332310Y-47663611D01*
X112232054Y-47663611D01*
X112239572Y-47728953D01*
X112247090Y-47794294D01*
X112662899Y-47811848D01*
X112877377Y-47822516D01*
X113049532Y-47834989D01*
X113184552Y-47850032D01*
X113287625Y-47868413D01*
X113363937Y-47890895D01*
X113418676Y-47918246D01*
X113428100Y-47924816D01*
X113498874Y-47958804D01*
X113575392Y-47972498D01*
X113672210Y-47993689D01*
X113745669Y-48053307D01*
X113789454Y-48145418D01*
X113796033Y-48179776D01*
X113800653Y-48245600D01*
X113787067Y-48292410D01*
X113747307Y-48341712D01*
X113729222Y-48360064D01*
X113676337Y-48409580D01*
X113634570Y-48443109D01*
X113622904Y-48449830D01*
X113605734Y-48477074D01*
X113589839Y-48536411D01*
X113582443Y-48584331D01*
X113568038Y-48709074D01*
X113668020Y-48709074D01*
X113690442Y-48708608D01*
X113712096Y-48705433D01*
X113735949Y-48696882D01*
X113764965Y-48680290D01*
X113802109Y-48652990D01*
X113850345Y-48612316D01*
X113912638Y-48555603D01*
X113991953Y-48480184D01*
X114091255Y-48383393D01*
X114213509Y-48262564D01*
X114361680Y-48115031D01*
X114538731Y-47938128D01*
X114657951Y-47818887D01*
X114853727Y-47623185D01*
X115018774Y-47458636D01*
X115155876Y-47322704D01*
X115267819Y-47212852D01*
X115357387Y-47126541D01*
X115427365Y-47061235D01*
X115480537Y-47014396D01*
X115519688Y-46983487D01*
X115547602Y-46965971D01*
X115567065Y-46959310D01*
X115580861Y-46960968D01*
X115591558Y-46968209D01*
X115599783Y-46978138D01*
X115602148Y-46991080D01*
X115596146Y-47009785D01*
X115579271Y-47037002D01*
X115549016Y-47075480D01*
X115502876Y-47127968D01*
X115438343Y-47197217D01*
X115352911Y-47285974D01*
X115244074Y-47396991D01*
X115109326Y-47533016D01*
X114946159Y-47696798D01*
X114752068Y-47891087D01*
X114731190Y-47911971D01*
X113827165Y-48816225D01*
X113827165Y-49279327D01*
X113672722Y-49279327D01*
X113593654Y-49280163D01*
X113537231Y-49282351D01*
X113516166Y-49285267D01*
X113513395Y-49309302D01*
X113506136Y-49376524D01*
X113494819Y-49482854D01*
X113479874Y-49624211D01*
X113461729Y-49796518D01*
X113440816Y-49995694D01*
X113417562Y-50217661D01*
X113392399Y-50458339D01*
X113365754Y-50713649D01*
X113364183Y-50728719D01*
X113214311Y-52166230D01*
X114424020Y-53378484D01*
X114654690Y-53609728D01*
X114853927Y-53809751D01*
X115023925Y-53980911D01*
X115166880Y-54125562D01*
X115284988Y-54246062D01*
X115380443Y-54344765D01*
X115455440Y-54424028D01*
X115512176Y-54486207D01*
X115552844Y-54533657D01*
X115579641Y-54568736D01*
X115594762Y-54593798D01*
X115600401Y-54611200D01*
X115598755Y-54623297D01*
X115592234Y-54632232D01*
X115582905Y-54638987D01*
X115570568Y-54640517D01*
X115552827Y-54634586D01*
X115527282Y-54618963D01*
X115491536Y-54591413D01*
X115443191Y-54549704D01*
X115379851Y-54491602D01*
X115299116Y-54414876D01*
X115198589Y-54317290D01*
X115075872Y-54196612D01*
X114928567Y-54050610D01*
X114754277Y-53877049D01*
X114550604Y-53673696D01*
X114381011Y-53504175D01*
X114185984Y-53309462D01*
X114000868Y-53125198D01*
X113828379Y-52954050D01*
X113671236Y-52798691D01*
X113532156Y-52661790D01*
X113413856Y-52546017D01*
X113319056Y-52454042D01*
X113250470Y-52388536D01*
X113210819Y-52352169D01*
X113201741Y-52345469D01*
X113196336Y-52371706D01*
X113187783Y-52436781D01*
X113177070Y-52532194D01*
X113165180Y-52649442D01*
X113159185Y-52712693D01*
X113126170Y-53069071D01*
X113212184Y-53155085D01*
X113293388Y-53266649D01*
X113335386Y-53392528D01*
X113339570Y-53523317D01*
X113307333Y-53649610D01*
X113240066Y-53761999D01*
X113139160Y-53851080D01*
X113106408Y-53869874D01*
X112968507Y-53916794D01*
X112828678Y-53920411D01*
X112696003Y-53882863D01*
X112579566Y-53806289D01*
X112512159Y-53730008D01*
X112439907Y-53627503D01*
X110928381Y-53627503D01*
X110928381Y-53936389D01*
X110619494Y-53936389D01*
X110618980Y-53787886D01*
X110617340Y-53706014D01*
X110609292Y-53657912D01*
X110589071Y-53629833D01*
X110550912Y-53608031D01*
X110541758Y-53603742D01*
X110481005Y-53562431D01*
X110438948Y-53511208D01*
X110437743Y-53508700D01*
X110427540Y-53468344D01*
X110414146Y-53388345D01*
X110398594Y-53276394D01*
X110381921Y-53140181D01*
X110365161Y-52987396D01*
X110357807Y-52914687D01*
X110342253Y-52760568D01*
X110327626Y-52622889D01*
X110314715Y-52508492D01*
X110304305Y-52424221D01*
X110297184Y-52376919D01*
X110295069Y-52369230D01*
X110277026Y-52383761D01*
X110228179Y-52429276D01*
X110151261Y-52503091D01*
X110049006Y-52602521D01*
X109924146Y-52724883D01*
X109779415Y-52867494D01*
X109617546Y-53027669D01*
X109441273Y-53202725D01*
X109253329Y-53389978D01*
X109127108Y-53516055D01*
X108901575Y-53741460D01*
X108707172Y-53935444D01*
X108541488Y-54100251D01*
X108402112Y-54238125D01*
X108286632Y-54351309D01*
X108192638Y-54442048D01*
X108117720Y-54512585D01*
X108059465Y-54565164D01*
X108015463Y-54602028D01*
X107983304Y-54625422D01*
X107960576Y-54637588D01*
X107944868Y-54640772D01*
X107933770Y-54637215D01*
X107927765Y-54632232D01*
X107921099Y-54623002D01*
X107919603Y-54610766D01*
X107925482Y-54593158D01*
X107940943Y-54567811D01*
X107968193Y-54532361D01*
X108009436Y-54484441D01*
X108066880Y-54421685D01*
X108142730Y-54341727D01*
X108239194Y-54242202D01*
X108358476Y-54120743D01*
X108502783Y-53974986D01*
X108674322Y-53802563D01*
X108875299Y-53601110D01*
X109085829Y-53390365D01*
X110214153Y-52261273D01*
X110382134Y-52261273D01*
X110442146Y-52843405D01*
X110459727Y-53007415D01*
X110477136Y-53157942D01*
X110493441Y-53287798D01*
X110507707Y-53389797D01*
X110519002Y-53456750D01*
X110524676Y-53478999D01*
X110547194Y-53532461D01*
X112419172Y-53532461D01*
X112425355Y-53485849D01*
X112600589Y-53485849D01*
X112623620Y-53584887D01*
X112676266Y-53669634D01*
X112751449Y-53731176D01*
X112842093Y-53760597D01*
X112912385Y-53757008D01*
X112964899Y-53748383D01*
X112986787Y-53746630D01*
X113027593Y-53727417D01*
X113078273Y-53679855D01*
X113127063Y-53617904D01*
X113162199Y-53555522D01*
X113171088Y-53527953D01*
X113168197Y-53437596D01*
X113141254Y-53355830D01*
X113078655Y-53263958D01*
X112994442Y-53206971D01*
X112898707Y-53184376D01*
X112801542Y-53195685D01*
X112713040Y-53240407D01*
X112643295Y-53318051D01*
X112614250Y-53381435D01*
X112600589Y-53485849D01*
X112425355Y-53485849D01*
X112434221Y-53419015D01*
X112475604Y-53280524D01*
X112556790Y-53160186D01*
X112656166Y-53077638D01*
X112730895Y-53041479D01*
X112816000Y-53024683D01*
X112891795Y-53021748D01*
X113037528Y-53021609D01*
X113065059Y-52736483D01*
X113077150Y-52613111D01*
X113088928Y-52496145D01*
X113098936Y-52399876D01*
X113105029Y-52344434D01*
X113117468Y-52237512D01*
X112438681Y-51560441D01*
X111759894Y-50883369D01*
X110382134Y-52261273D01*
X110214153Y-52261273D01*
X110285386Y-52189991D01*
X110131820Y-50704958D01*
G37*
%TO.C,J13*%
X156905000Y-101005000D02*
X156905000Y-100505000D01*
X177105000Y-93305000D02*
X177105000Y-93755000D01*
X156905000Y-93305000D02*
X157405000Y-93305000D01*
X156905000Y-93305000D02*
X156905000Y-93755000D01*
X177105000Y-101005000D02*
X176605000Y-101005000D01*
X177105000Y-93305000D02*
X176605000Y-93305000D01*
X156905000Y-101005000D02*
X157405000Y-101005000D01*
X177105000Y-101005000D02*
X177105000Y-100505000D01*
%TO.C,J1*%
X100370000Y-89670000D02*
X100370000Y-89170000D01*
X100370000Y-89670000D02*
X99920000Y-89670000D01*
X92670000Y-49470000D02*
X92670000Y-49970000D01*
X100370000Y-49470000D02*
X99920000Y-49470000D01*
X100370000Y-49470000D02*
X100370000Y-49970000D01*
X92670000Y-49470000D02*
X93170000Y-49470000D01*
X92670000Y-89670000D02*
X92670000Y-89170000D01*
X92670000Y-89670000D02*
X93170000Y-89670000D01*
%TO.C,J14*%
X173375000Y-118150000D02*
X172875000Y-118150000D01*
X173375000Y-110450000D02*
X172875000Y-110450000D01*
X173375000Y-110450000D02*
X173375000Y-110950000D01*
X163175000Y-110450000D02*
X163175000Y-110950000D01*
X163175000Y-118150000D02*
X163175000Y-117700000D01*
X173375000Y-118150000D02*
X173375000Y-117700000D01*
X163175000Y-110450000D02*
X163675000Y-110450000D01*
X163175000Y-118150000D02*
X163675000Y-118150000D01*
%TO.C,J2*%
X100370000Y-91380000D02*
X100370000Y-91880000D01*
X100370000Y-131580000D02*
X100370000Y-131080000D01*
X100370000Y-131580000D02*
X99920000Y-131580000D01*
X92670000Y-131580000D02*
X92670000Y-131080000D01*
X92670000Y-91380000D02*
X92670000Y-91880000D01*
X100370000Y-91380000D02*
X99920000Y-91380000D01*
X92670000Y-131580000D02*
X93170000Y-131580000D01*
X92670000Y-91380000D02*
X93170000Y-91380000D01*
%TO.C,J12*%
X177105000Y-79970000D02*
X177105000Y-80420000D01*
X156905000Y-87670000D02*
X156905000Y-87170000D01*
X177105000Y-87670000D02*
X176605000Y-87670000D01*
X177105000Y-79970000D02*
X176605000Y-79970000D01*
X177105000Y-87670000D02*
X177105000Y-87170000D01*
X156905000Y-79970000D02*
X156905000Y-80420000D01*
X156905000Y-87670000D02*
X157405000Y-87670000D01*
X156905000Y-79970000D02*
X157405000Y-79970000D01*
D12*
%TO.C,A1*%
X200240000Y-90155000D02*
X197570000Y-90155000D01*
X200240000Y-128255000D02*
X200240000Y-90155000D01*
X212940000Y-125715000D02*
X212940000Y-90155000D01*
D13*
X210400000Y-95235000D02*
X202780000Y-95235000D01*
D12*
X197570000Y-130925000D02*
X215610000Y-130925000D01*
D13*
X202780000Y-95235000D02*
X202780000Y-85075000D01*
D12*
X215610000Y-87485000D02*
X197570000Y-87485000D01*
X200240000Y-128255000D02*
X197570000Y-128255000D01*
X197570000Y-87485000D02*
X197570000Y-130925000D01*
X212940000Y-90155000D02*
X215610000Y-90155000D01*
X212940000Y-125715000D02*
X215610000Y-125715000D01*
X212940000Y-125715000D02*
X212940000Y-128255000D01*
X215610000Y-125715000D02*
X215610000Y-87485000D01*
X215610000Y-130925000D02*
X215610000Y-128255000D01*
D13*
X202780000Y-85075000D02*
X210400000Y-85075000D01*
D12*
X212940000Y-128255000D02*
X215610000Y-128255000D01*
D13*
X210400000Y-85075000D02*
X210400000Y-95235000D01*
D12*
%TO.C,C1*%
X193598748Y-78380000D02*
X195021252Y-78380000D01*
X193598748Y-76560000D02*
X195021252Y-76560000D01*
%TO.C,J10*%
X195640000Y-128315000D02*
X194310000Y-128315000D01*
X195640000Y-125715000D02*
X195640000Y-107875000D01*
X195640000Y-107875000D02*
X192980000Y-107875000D01*
X192980000Y-125715000D02*
X192980000Y-107875000D01*
X195640000Y-126985000D02*
X195640000Y-128315000D01*
X195640000Y-125715000D02*
X192980000Y-125715000D01*
D13*
%TO.C,J3*%
X83860000Y-89670000D02*
X83860000Y-89170000D01*
X76160000Y-89670000D02*
X76660000Y-89670000D01*
X76160000Y-49470000D02*
X76660000Y-49470000D01*
X83860000Y-89670000D02*
X83410000Y-89670000D01*
X83860000Y-49470000D02*
X83860000Y-49970000D01*
X76160000Y-49470000D02*
X76160000Y-49970000D01*
X76160000Y-89670000D02*
X76160000Y-89170000D01*
X83860000Y-49470000D02*
X83410000Y-49470000D01*
%TO.C,J4*%
X83860000Y-131580000D02*
X83860000Y-131080000D01*
X76160000Y-131580000D02*
X76160000Y-131080000D01*
X76160000Y-131580000D02*
X76660000Y-131580000D01*
X83860000Y-91380000D02*
X83410000Y-91380000D01*
X76160000Y-91380000D02*
X76160000Y-91880000D01*
X83860000Y-91380000D02*
X83860000Y-91880000D01*
X83860000Y-131580000D02*
X83410000Y-131580000D01*
X76160000Y-91380000D02*
X76660000Y-91380000D01*
%TO.C,G2*%
G36*
X110514880Y-118374998D02*
G01*
X110574154Y-118471541D01*
X110662219Y-118620737D01*
X110773473Y-118813003D01*
X110902313Y-119038758D01*
X111018552Y-119244632D01*
X111158592Y-119491136D01*
X111286983Y-119712039D01*
X111397900Y-119897733D01*
X111485523Y-120038606D01*
X111544028Y-120125048D01*
X111566234Y-120148576D01*
X111614537Y-120128926D01*
X111719464Y-120075038D01*
X111866878Y-119994504D01*
X112042642Y-119894917D01*
X112096015Y-119864069D01*
X112273033Y-119762897D01*
X112421599Y-119681012D01*
X112528986Y-119625196D01*
X112582466Y-119602229D01*
X112586116Y-119602963D01*
X112579323Y-119647672D01*
X112560052Y-119763613D01*
X112529971Y-119941041D01*
X112490743Y-120170212D01*
X112444034Y-120441384D01*
X112391509Y-120744811D01*
X112357613Y-120939926D01*
X112302822Y-121257512D01*
X112253539Y-121548238D01*
X112211329Y-121802466D01*
X112177759Y-122010557D01*
X112154393Y-122162873D01*
X112142795Y-122249776D01*
X112142175Y-122266555D01*
X112174291Y-122243214D01*
X112257492Y-122170664D01*
X112383457Y-122056505D01*
X112543860Y-121908338D01*
X112730378Y-121733763D01*
X112867138Y-121604551D01*
X113066705Y-121415742D01*
X113245624Y-121247297D01*
X113395567Y-121106987D01*
X113508208Y-121002585D01*
X113575221Y-120941861D01*
X113590451Y-120929482D01*
X113593254Y-120967907D01*
X113592545Y-121072660D01*
X113588612Y-121227954D01*
X113581744Y-121418004D01*
X113581364Y-121427283D01*
X113560862Y-121925085D01*
X113720819Y-121900996D01*
X113854508Y-121883598D01*
X114035577Y-121863857D01*
X114249496Y-121842947D01*
X114481734Y-121822041D01*
X114717760Y-121802315D01*
X114943044Y-121784940D01*
X115143055Y-121771092D01*
X115303263Y-121761943D01*
X115409138Y-121758668D01*
X115445897Y-121761647D01*
X115435997Y-121803958D01*
X115395521Y-121910193D01*
X115328905Y-122069903D01*
X115240589Y-122272641D01*
X115135009Y-122507960D01*
X115051328Y-122690541D01*
X114935986Y-122943802D01*
X114834862Y-123173038D01*
X114752403Y-123367566D01*
X114693056Y-123516700D01*
X114661268Y-123609758D01*
X114657841Y-123635887D01*
X114701890Y-123670400D01*
X114803258Y-123734396D01*
X114946742Y-123818660D01*
X115112808Y-123911611D01*
X115278012Y-124004715D01*
X115411136Y-124084831D01*
X115498733Y-124143494D01*
X115527352Y-124172244D01*
X115527265Y-124172402D01*
X115487744Y-124194411D01*
X115381280Y-124246858D01*
X115215714Y-124326054D01*
X114998886Y-124428314D01*
X114738634Y-124549948D01*
X114442800Y-124687269D01*
X114119223Y-124836589D01*
X113946119Y-124916139D01*
X113612023Y-125070183D01*
X113302302Y-125214383D01*
X113024700Y-125345031D01*
X112786963Y-125458417D01*
X112596834Y-125550832D01*
X112462058Y-125618568D01*
X112390380Y-125657915D01*
X112380615Y-125665894D01*
X112400639Y-125710211D01*
X112455926Y-125812188D01*
X112539296Y-125959091D01*
X112643570Y-126138184D01*
X112712926Y-126255364D01*
X112825001Y-126445929D01*
X112919085Y-126610377D01*
X112988392Y-126736477D01*
X113026132Y-126811994D01*
X113030725Y-126828023D01*
X112988618Y-126822421D01*
X112877305Y-126799237D01*
X112707313Y-126760894D01*
X112489165Y-126709818D01*
X112233385Y-126648432D01*
X111953191Y-126579825D01*
X111632716Y-126500993D01*
X111381986Y-126440639D01*
X111191062Y-126397067D01*
X111050003Y-126368576D01*
X110948870Y-126353470D01*
X110877720Y-126350050D01*
X110826616Y-126356618D01*
X110785616Y-126371476D01*
X110772286Y-126378076D01*
X110654401Y-126439036D01*
X110654401Y-127669935D01*
X110325598Y-127669935D01*
X110325598Y-126439036D01*
X110205733Y-126377051D01*
X110165647Y-126359391D01*
X110119626Y-126349371D01*
X110057700Y-126348695D01*
X109969900Y-126359063D01*
X109846257Y-126382180D01*
X109676803Y-126419748D01*
X109451569Y-126473470D01*
X109160586Y-126545048D01*
X109024780Y-126578754D01*
X108742416Y-126648279D01*
X108487263Y-126709868D01*
X108269850Y-126761082D01*
X108100704Y-126799478D01*
X107990350Y-126822616D01*
X107949363Y-126828111D01*
X107964297Y-126789808D01*
X108014828Y-126693273D01*
X108094205Y-126550730D01*
X108195675Y-126374401D01*
X108267208Y-126252649D01*
X108380248Y-126060014D01*
X108476780Y-125892301D01*
X108549681Y-125762147D01*
X108591824Y-125682190D01*
X108599385Y-125663474D01*
X108563267Y-125640907D01*
X108460075Y-125587982D01*
X108297552Y-125508392D01*
X108083438Y-125405830D01*
X107825475Y-125283989D01*
X107531407Y-125146562D01*
X107208975Y-124997243D01*
X107033975Y-124916722D01*
X106699290Y-124762641D01*
X106388345Y-124618677D01*
X106108982Y-124488520D01*
X105869039Y-124375860D01*
X105676357Y-124284387D01*
X105538775Y-124217790D01*
X105464134Y-124179760D01*
X105452829Y-124172555D01*
X105480436Y-124144254D01*
X105567225Y-124085924D01*
X105699751Y-124006033D01*
X105864569Y-123913047D01*
X105867191Y-123911611D01*
X106037115Y-123816450D01*
X106179758Y-123732567D01*
X106279917Y-123669177D01*
X106322159Y-123635887D01*
X106312518Y-123588878D01*
X106272176Y-123478246D01*
X106205581Y-123314674D01*
X106117180Y-123108847D01*
X106011419Y-122871448D01*
X105928671Y-122690541D01*
X105813462Y-122438321D01*
X105712341Y-122211205D01*
X105629745Y-122019643D01*
X105570113Y-121874079D01*
X105537881Y-121784963D01*
X105534102Y-121761647D01*
X105579374Y-121758705D01*
X105691916Y-121762681D01*
X105857199Y-121772402D01*
X106060691Y-121786695D01*
X106287863Y-121804384D01*
X106524183Y-121824298D01*
X106755121Y-121845261D01*
X106966147Y-121866100D01*
X107142729Y-121885642D01*
X107259180Y-121900996D01*
X107419138Y-121925085D01*
X107398636Y-121427283D01*
X107391480Y-121236016D01*
X107386973Y-121078783D01*
X107385466Y-120971371D01*
X107387314Y-120929567D01*
X107387485Y-120929482D01*
X107418657Y-120956456D01*
X107501197Y-121032214D01*
X107626799Y-121149012D01*
X107787154Y-121299103D01*
X107973954Y-121474743D01*
X108111136Y-121604149D01*
X108311094Y-121792070D01*
X108490466Y-121958843D01*
X108640930Y-122096879D01*
X108754165Y-122198586D01*
X108821846Y-122256375D01*
X108837606Y-122266711D01*
X108833784Y-122224816D01*
X108817291Y-122111591D01*
X108789693Y-121936665D01*
X108752556Y-121709665D01*
X108707448Y-121440221D01*
X108655933Y-121137960D01*
X108621829Y-120940402D01*
X108566741Y-120622102D01*
X108516447Y-120330169D01*
X108472607Y-120074345D01*
X108436881Y-119864370D01*
X108410930Y-119709987D01*
X108396414Y-119620937D01*
X108393883Y-119602881D01*
X108427144Y-119613766D01*
X108518440Y-119659696D01*
X108655045Y-119733886D01*
X108824230Y-119829555D01*
X108883984Y-119864069D01*
X109065245Y-119967701D01*
X109222189Y-120054445D01*
X109340680Y-120116710D01*
X109406580Y-120146902D01*
X109413765Y-120148576D01*
X109443905Y-120114198D01*
X109507960Y-120017473D01*
X109600107Y-119868011D01*
X109714524Y-119675420D01*
X109845388Y-119449311D01*
X109961448Y-119244632D01*
X110100627Y-118998362D01*
X110226868Y-118777632D01*
X110334569Y-118592024D01*
X110418127Y-118451118D01*
X110471940Y-118364495D01*
X110490000Y-118340688D01*
X110514880Y-118374998D01*
G37*
D12*
%TO.C,BAT1*%
X190795000Y-70185000D02*
X188195000Y-67585000D01*
X201695000Y-62135000D02*
X201695000Y-60035000D01*
X201695000Y-67585000D02*
X199095000Y-70185000D01*
X201695000Y-66135000D02*
X201695000Y-67585000D01*
X199095000Y-70185000D02*
X199095000Y-70985000D01*
X188195000Y-62135000D02*
X188195000Y-60035000D01*
X199095000Y-70985000D02*
X190795000Y-70985000D01*
X190795000Y-70985000D02*
X190795000Y-70185000D01*
X188195000Y-67585000D02*
X188195000Y-66135000D01*
X189645000Y-58535000D02*
G75*
G03*
X188195000Y-60085000I49999J-1499999D01*
G01*
X190445000Y-58935000D02*
G75*
G03*
X189530385Y-58550840I-790000J-600001D01*
G01*
X200359615Y-58550840D02*
G75*
G03*
X199445000Y-58935000I-124615J-984161D01*
G01*
X201695000Y-60085000D02*
G75*
G03*
X200245000Y-58535000I-1499999J50001D01*
G01*
%TO.C,Y1*%
X205450000Y-78210000D02*
X205850000Y-78210000D01*
X207750000Y-78210000D02*
X207750000Y-78800000D01*
X207750000Y-74190000D02*
X211350000Y-74190000D01*
X205450000Y-74190000D02*
X205450000Y-78210000D01*
X207750000Y-78210000D02*
X211350000Y-78210000D01*
X205450000Y-74190000D02*
X205850000Y-74190000D01*
X205850000Y-78800000D02*
X205850000Y-78210000D01*
X213650000Y-74190000D02*
X213250000Y-74190000D01*
X213650000Y-78210000D02*
X213250000Y-78210000D01*
X213650000Y-74190000D02*
X213650000Y-78210000D01*
%TO.C,G\u002A\u002A\u002A*%
G36*
X108567359Y-111014397D02*
G01*
X109449479Y-111896204D01*
X109390808Y-111958656D01*
X109345266Y-112002289D01*
X109316615Y-112021093D01*
X109316237Y-112021109D01*
X109294239Y-112002377D01*
X109237593Y-111948756D01*
X109150228Y-111864108D01*
X109036076Y-111752296D01*
X108899070Y-111617182D01*
X108743139Y-111462629D01*
X108572216Y-111292500D01*
X108426722Y-111147174D01*
X107553107Y-110273240D01*
X107619173Y-110202915D01*
X107685240Y-110132591D01*
X108567359Y-111014397D01*
G37*
G36*
X109375925Y-105862282D02*
G01*
X109448956Y-105938509D01*
X107523360Y-107810972D01*
X105597764Y-109683434D01*
X110583506Y-114671132D01*
X110518317Y-114740523D01*
X110470581Y-114786983D01*
X110439402Y-114809514D01*
X110437332Y-114809914D01*
X110416429Y-114790945D01*
X110359169Y-114735550D01*
X110267836Y-114645998D01*
X110144711Y-114524556D01*
X109992077Y-114373493D01*
X109812216Y-114195077D01*
X109607410Y-113991576D01*
X109379943Y-113765259D01*
X109132095Y-113518394D01*
X108866150Y-113253248D01*
X108584389Y-112972091D01*
X108289096Y-112677190D01*
X107982552Y-112370814D01*
X107898708Y-112286975D01*
X107516889Y-111904921D01*
X107172447Y-111559781D01*
X106863879Y-111250014D01*
X106589682Y-110974079D01*
X106348357Y-110730435D01*
X106138401Y-110517543D01*
X105958312Y-110333861D01*
X105806590Y-110177849D01*
X105681731Y-110047965D01*
X105582235Y-109942670D01*
X105506600Y-109860423D01*
X105453325Y-109799683D01*
X105420907Y-109758909D01*
X105407845Y-109736561D01*
X105408186Y-109731729D01*
X105425704Y-109694292D01*
X105404119Y-109655595D01*
X105387278Y-109623479D01*
X105399481Y-109588317D01*
X105446818Y-109535860D01*
X105461327Y-109521761D01*
X105513537Y-109471340D01*
X105601215Y-109386422D01*
X105720629Y-109270632D01*
X105868045Y-109127599D01*
X106039732Y-108960948D01*
X106231957Y-108774308D01*
X106440988Y-108571305D01*
X106663092Y-108355566D01*
X106894538Y-108130718D01*
X107131592Y-107900389D01*
X107370522Y-107668204D01*
X107607596Y-107437792D01*
X107839081Y-107212780D01*
X108061245Y-106996793D01*
X108270356Y-106793460D01*
X108462681Y-106606407D01*
X108634488Y-106439262D01*
X108782044Y-106295651D01*
X108901617Y-106179201D01*
X108989475Y-106093540D01*
X109041885Y-106042295D01*
X109042034Y-106042148D01*
X109302895Y-105786054D01*
X109375925Y-105862282D01*
G37*
G36*
X110501004Y-104536215D02*
G01*
X110570668Y-104569220D01*
X110581457Y-104579613D01*
X110622574Y-104654006D01*
X110609264Y-104727726D01*
X110572024Y-104775684D01*
X110495217Y-104823435D01*
X110417782Y-104820162D01*
X110368918Y-104787401D01*
X110335028Y-104723368D01*
X110327909Y-104643322D01*
X110348801Y-104574762D01*
X110358762Y-104562422D01*
X110421627Y-104533274D01*
X110501004Y-104536215D01*
G37*
G36*
X110540160Y-116229493D02*
G01*
X110593249Y-116279901D01*
X110614795Y-116349607D01*
X110593844Y-116427679D01*
X110588943Y-116435597D01*
X110530973Y-116486154D01*
X110456275Y-116506377D01*
X110386669Y-116492912D01*
X110359240Y-116470894D01*
X110323418Y-116394747D01*
X110324212Y-116313471D01*
X110359563Y-116247743D01*
X110383182Y-116230295D01*
X110466486Y-116209314D01*
X110540160Y-116229493D01*
G37*
G36*
X115485965Y-111345012D02*
G01*
X115561109Y-111420155D01*
X113497258Y-113484141D01*
X113218049Y-113763224D01*
X112949670Y-114031199D01*
X112694649Y-114285556D01*
X112455514Y-114523788D01*
X112234791Y-114743387D01*
X112035009Y-114941843D01*
X111858695Y-115116649D01*
X111708376Y-115265296D01*
X111586579Y-115385276D01*
X111495833Y-115474080D01*
X111438664Y-115529200D01*
X111417601Y-115548127D01*
X111390144Y-115530166D01*
X111343686Y-115486179D01*
X111336587Y-115478719D01*
X111271381Y-115409310D01*
X113341102Y-113339590D01*
X115410822Y-111269869D01*
X115485965Y-111345012D01*
G37*
G36*
X111296770Y-105514066D02*
G01*
X111339985Y-105533876D01*
X111380451Y-105512352D01*
X111391834Y-105509968D01*
X111411537Y-105517576D01*
X111441891Y-105537405D01*
X111485227Y-105571678D01*
X111543876Y-105622624D01*
X111620169Y-105692469D01*
X111716437Y-105783437D01*
X111835012Y-105897757D01*
X111978224Y-106037653D01*
X112148404Y-106205353D01*
X112347884Y-106403082D01*
X112578994Y-106633067D01*
X112844065Y-106897535D01*
X113129598Y-107182881D01*
X114835872Y-108888991D01*
X114762294Y-108965789D01*
X114688716Y-109042588D01*
X113013170Y-107367207D01*
X111337624Y-105691827D01*
X110613250Y-106416201D01*
X112253425Y-108056546D01*
X112545189Y-108348494D01*
X112800473Y-108604346D01*
X113021597Y-108826541D01*
X113210878Y-109017517D01*
X113370634Y-109179713D01*
X113503185Y-109315568D01*
X113610848Y-109427520D01*
X113695941Y-109518008D01*
X113760784Y-109589470D01*
X113807693Y-109644347D01*
X113838988Y-109685075D01*
X113856987Y-109714093D01*
X113864009Y-109733841D01*
X113862370Y-109746757D01*
X113861574Y-109748172D01*
X113843475Y-109798856D01*
X113861068Y-109830972D01*
X113857368Y-109846424D01*
X113832639Y-109881499D01*
X113785160Y-109937984D01*
X113713209Y-110017669D01*
X113615062Y-110122345D01*
X113488997Y-110253800D01*
X113333291Y-110413824D01*
X113146222Y-110604206D01*
X112926067Y-110826736D01*
X112671103Y-111083204D01*
X112379609Y-111375400D01*
X112238061Y-111517018D01*
X110583533Y-113171545D01*
X110517370Y-113101118D01*
X110451206Y-113030690D01*
X112056395Y-111425329D01*
X112302014Y-111179362D01*
X112536176Y-110944241D01*
X112756033Y-110722864D01*
X112958736Y-110518129D01*
X113141438Y-110332932D01*
X113301288Y-110170170D01*
X113435440Y-110032742D01*
X113541044Y-109923544D01*
X113615253Y-109845474D01*
X113655217Y-109801429D01*
X113661583Y-109792625D01*
X113642738Y-109769429D01*
X113588533Y-109711246D01*
X113502456Y-109621572D01*
X113387997Y-109503898D01*
X113248648Y-109361720D01*
X113087897Y-109198530D01*
X112909236Y-109017821D01*
X112716154Y-108823089D01*
X112512142Y-108617825D01*
X112300690Y-108405523D01*
X112085287Y-108189678D01*
X111869424Y-107973782D01*
X111656592Y-107761329D01*
X111450279Y-107555812D01*
X111253978Y-107360726D01*
X111071177Y-107179563D01*
X110905366Y-107015817D01*
X110760037Y-106872982D01*
X110638678Y-106754551D01*
X110544781Y-106664018D01*
X110481836Y-106604876D01*
X110453332Y-106580619D01*
X110452259Y-106580205D01*
X110428803Y-106598831D01*
X110369677Y-106652559D01*
X110278213Y-106738167D01*
X110157745Y-106852431D01*
X110011605Y-106992128D01*
X109843127Y-107154034D01*
X109655643Y-107334927D01*
X109452488Y-107531583D01*
X109236993Y-107740779D01*
X109012492Y-107959291D01*
X108782319Y-108183896D01*
X108549805Y-108411371D01*
X108318285Y-108638493D01*
X108091091Y-108862038D01*
X108009681Y-108942321D01*
X107593624Y-109352886D01*
X107524374Y-109287829D01*
X107477903Y-109239475D01*
X107455492Y-109206925D01*
X107455124Y-109204720D01*
X107474116Y-109182528D01*
X107528474Y-109126205D01*
X107614273Y-109039648D01*
X107727585Y-108926756D01*
X107864486Y-108791426D01*
X108021048Y-108637558D01*
X108193346Y-108469049D01*
X108336879Y-108329236D01*
X108545475Y-108126285D01*
X108764027Y-107913453D01*
X108984650Y-107698430D01*
X109199460Y-107488906D01*
X109400575Y-107292573D01*
X109580110Y-107117120D01*
X109730181Y-106970238D01*
X109760766Y-106940261D01*
X110302899Y-106408718D01*
X110171711Y-106275527D01*
X110040522Y-106142336D01*
X110188837Y-105994021D01*
X110325263Y-106128395D01*
X110461688Y-106262768D01*
X110858824Y-105871483D01*
X110995932Y-105737392D01*
X111100060Y-105638363D01*
X111176322Y-105570224D01*
X111229829Y-105528804D01*
X111265693Y-105509930D01*
X111289025Y-105509431D01*
X111296770Y-105514066D01*
G37*
G36*
X116430502Y-110431777D02*
G01*
X116479478Y-110490829D01*
X116503578Y-110566612D01*
X116495329Y-110640605D01*
X116472261Y-110675921D01*
X116411031Y-110704156D01*
X116331302Y-110704063D01*
X116260572Y-110676883D01*
X116247281Y-110665765D01*
X116211964Y-110607654D01*
X116204317Y-110570071D01*
X116226801Y-110504830D01*
X116280692Y-110444667D01*
X116345649Y-110410215D01*
X116364127Y-110407977D01*
X116430502Y-110431777D01*
G37*
G36*
X104732999Y-110427655D02*
G01*
X104795934Y-110478738D01*
X104804561Y-110492870D01*
X104824153Y-110575448D01*
X104800996Y-110648061D01*
X104746406Y-110698805D01*
X104671697Y-110715777D01*
X104608708Y-110698905D01*
X104552796Y-110644591D01*
X104533052Y-110568038D01*
X104551713Y-110489888D01*
X104581867Y-110451186D01*
X104654824Y-110417194D01*
X104732999Y-110427655D01*
G37*
G36*
X115473018Y-109690058D02*
G01*
X115549817Y-109763637D01*
X113436928Y-111876657D01*
X113154368Y-112159093D01*
X112882616Y-112430450D01*
X112624168Y-112688249D01*
X112381522Y-112930011D01*
X112157175Y-113153257D01*
X111953626Y-113355508D01*
X111773372Y-113534285D01*
X111618909Y-113687108D01*
X111492735Y-113811500D01*
X111397349Y-113904980D01*
X111335246Y-113965070D01*
X111308925Y-113989290D01*
X111308234Y-113989677D01*
X111280777Y-113971716D01*
X111234324Y-113927732D01*
X111227243Y-113920291D01*
X111162058Y-113850905D01*
X113279139Y-111733693D01*
X115396219Y-109616480D01*
X115473018Y-109690058D01*
G37*
G36*
X107584216Y-113339590D02*
G01*
X109653937Y-115409310D01*
X109588731Y-115478719D01*
X109540986Y-115525186D01*
X109509793Y-115547726D01*
X109507718Y-115548127D01*
X109486649Y-115529195D01*
X109429476Y-115474071D01*
X109338726Y-115385263D01*
X109216926Y-115265279D01*
X109066603Y-115116629D01*
X108890286Y-114941820D01*
X108690501Y-114743361D01*
X108469776Y-114523760D01*
X108230638Y-114285526D01*
X107975616Y-114031166D01*
X107707235Y-113763191D01*
X107428060Y-113484141D01*
X105364209Y-111420155D01*
X105439353Y-111345012D01*
X105514496Y-111269869D01*
X107584216Y-113339590D01*
G37*
D13*
%TO.C,J6*%
X126960000Y-132850000D02*
X126960000Y-132350000D01*
X134660000Y-92650000D02*
X134210000Y-92650000D01*
X134660000Y-92650000D02*
X134660000Y-93150000D01*
X134660000Y-132850000D02*
X134660000Y-132350000D01*
X126960000Y-92650000D02*
X126960000Y-93150000D01*
X134660000Y-132850000D02*
X134210000Y-132850000D01*
X126960000Y-132850000D02*
X127460000Y-132850000D01*
X126960000Y-92650000D02*
X127460000Y-92650000D01*
D12*
%TO.C,R3*%
X111217064Y-99420000D02*
X109762936Y-99420000D01*
X111217064Y-101240000D02*
X109762936Y-101240000D01*
%TD*%
M02*
