%TF.GenerationSoftware,KiCad,Pcbnew,7.0.9*%
%TF.CreationDate,2024-04-09T01:08:52-04:00*%
%TF.ProjectId,WIRED_SHT40_revA3,57495245-445f-4534-9854-34305f726576,revA3*%
%TF.SameCoordinates,Original*%
%TF.FileFunction,Copper,L2,Bot*%
%TF.FilePolarity,Positive*%
%FSLAX46Y46*%
G04 Gerber Fmt 4.6, Leading zero omitted, Abs format (unit mm)*
G04 Created by KiCad (PCBNEW 7.0.9) date 2024-04-09 01:08:52*
%MOMM*%
%LPD*%
G01*
G04 APERTURE LIST*
%TA.AperFunction,ComponentPad*%
%ADD10R,1.700000X1.700000*%
%TD*%
%TA.AperFunction,ComponentPad*%
%ADD11O,1.700000X1.700000*%
%TD*%
%TA.AperFunction,ComponentPad*%
%ADD12R,1.500000X1.500000*%
%TD*%
%TA.AperFunction,ComponentPad*%
%ADD13C,1.500000*%
%TD*%
%TA.AperFunction,ViaPad*%
%ADD14C,0.800000*%
%TD*%
%TA.AperFunction,Conductor*%
%ADD15C,0.500000*%
%TD*%
%TA.AperFunction,Conductor*%
%ADD16C,0.250000*%
%TD*%
G04 APERTURE END LIST*
D10*
%TO.P,J2,1,Pin_1*%
%TO.N,+5V*%
X134385000Y-84193900D03*
D11*
%TO.P,J2,2,Pin_2*%
%TO.N,+3V3*%
X136925000Y-84193900D03*
%TO.P,J2,3,Pin_3*%
%TO.N,GND*%
X139465000Y-84193900D03*
%TO.P,J2,4,Pin_4*%
%TO.N,/SCL*%
X142005000Y-84193900D03*
%TO.P,J2,5,Pin_5*%
%TO.N,/SDA*%
X144545000Y-84193900D03*
%TD*%
D12*
%TO.P,J1,1*%
%TO.N,+5V*%
X139302700Y-91800000D03*
D13*
%TO.P,J1,2*%
X141842700Y-93070000D03*
%TO.P,J1,3*%
%TO.N,GND*%
X139302700Y-94340000D03*
%TO.P,J1,4*%
X141842700Y-95610000D03*
%TO.P,J1,5*%
%TO.N,/SDA*%
X139302700Y-96880000D03*
%TO.P,J1,6*%
X141842700Y-98150000D03*
%TO.P,J1,7*%
%TO.N,/SCL*%
X139302700Y-99420000D03*
%TO.P,J1,8*%
X141842700Y-100690000D03*
%TD*%
D14*
%TO.N,+5V*%
X145800000Y-109600000D03*
X142600000Y-109800000D03*
%TO.N,GND*%
X149999900Y-103127600D03*
X146600000Y-107400000D03*
X146604900Y-87365700D03*
X153858000Y-103128000D03*
X142311900Y-106700000D03*
%TO.N,/SCL_3V*%
X151130800Y-84756000D03*
X150110000Y-99287000D03*
%TO.N,/SCL*%
X147102600Y-95822900D03*
%TO.N,+3V3*%
X142508800Y-91449200D03*
%TD*%
D15*
%TO.N,+5V*%
X134596800Y-85694000D02*
X139302700Y-90399900D01*
X145800000Y-109600000D02*
X142800000Y-109600000D01*
X134385000Y-85694000D02*
X134596800Y-85694000D01*
X142800000Y-109600000D02*
X142600000Y-109800000D01*
X134385000Y-84193900D02*
X134385000Y-85694000D01*
X139302700Y-91800000D02*
X139302700Y-90399900D01*
%TO.N,GND*%
X139302700Y-94340000D02*
X140572700Y-94340000D01*
X143800000Y-107400000D02*
X146600000Y-107400000D01*
X140572700Y-94340000D02*
X141842700Y-95610000D01*
X143100000Y-106700000D02*
X143800000Y-107400000D01*
X142311900Y-106700000D02*
X143100000Y-106700000D01*
D16*
%TO.N,/SCL_3V*%
X150110000Y-85776800D02*
X150110000Y-99287000D01*
X151130800Y-84756000D02*
X150110000Y-85776800D01*
%TO.N,/SCL*%
X142005000Y-84193900D02*
X142005000Y-85369200D01*
X143433900Y-86798100D02*
X142005000Y-85369200D01*
X139302700Y-99158400D02*
X141576000Y-96885100D01*
X141842700Y-100690000D02*
X146709800Y-95822900D01*
X141576000Y-96885100D02*
X142370900Y-96885100D01*
X143433900Y-95822100D02*
X143433900Y-86798100D01*
X146709800Y-95822900D02*
X147102600Y-95822900D01*
X142370900Y-96885100D02*
X143433900Y-95822100D01*
X139302700Y-99420000D02*
X139302700Y-99158400D01*
%TO.N,/SDA*%
X144545000Y-95447700D02*
X141842700Y-98150000D01*
X144545000Y-84193900D02*
X144545000Y-95447700D01*
D15*
%TO.N,+3V3*%
X136925000Y-84193900D02*
X136925000Y-85865400D01*
X136925000Y-85865400D02*
X142508800Y-91449200D01*
%TD*%
%TA.AperFunction,Conductor*%
%TO.N,GND*%
G36*
X139715000Y-86030745D02*
G01*
X139728950Y-86029748D01*
X139987533Y-85973497D01*
X140235482Y-85881017D01*
X140467744Y-85754192D01*
X140679581Y-85595612D01*
X140679590Y-85595604D01*
X140866704Y-85408490D01*
X140866712Y-85408481D01*
X140969062Y-85271758D01*
X141025897Y-85229211D01*
X141096713Y-85224146D01*
X141147321Y-85247835D01*
X141259424Y-85335089D01*
X141259430Y-85335092D01*
X141308335Y-85361558D01*
X141358726Y-85411571D01*
X141372376Y-85461372D01*
X141373087Y-85461260D01*
X141374101Y-85467662D01*
X141374304Y-85468403D01*
X141374325Y-85469078D01*
X141374327Y-85469093D01*
X141379977Y-85488539D01*
X141383986Y-85507897D01*
X141386525Y-85527993D01*
X141386526Y-85527999D01*
X141403893Y-85571862D01*
X141405816Y-85577479D01*
X141418982Y-85622793D01*
X141429294Y-85640231D01*
X141437988Y-85657979D01*
X141445444Y-85676809D01*
X141445450Y-85676820D01*
X141473177Y-85714983D01*
X141476437Y-85719946D01*
X141487350Y-85738398D01*
X141498199Y-85756743D01*
X141500460Y-85760565D01*
X141514779Y-85774884D01*
X141527617Y-85789914D01*
X141535642Y-85800959D01*
X141539528Y-85806307D01*
X141544163Y-85810141D01*
X141575886Y-85836385D01*
X141580267Y-85840371D01*
X142185958Y-86446062D01*
X142763495Y-87023599D01*
X142797521Y-87085911D01*
X142800400Y-87112694D01*
X142800400Y-90363929D01*
X142780398Y-90432050D01*
X142726742Y-90478543D01*
X142656468Y-90488647D01*
X142591888Y-90459153D01*
X142585305Y-90453024D01*
X137720405Y-85588124D01*
X137686379Y-85525812D01*
X137683500Y-85499029D01*
X137683500Y-85386625D01*
X137703502Y-85318504D01*
X137732106Y-85287197D01*
X137782679Y-85247833D01*
X137848719Y-85221778D01*
X137918364Y-85235563D01*
X137960936Y-85271757D01*
X138063287Y-85408481D01*
X138063295Y-85408490D01*
X138250409Y-85595604D01*
X138250418Y-85595612D01*
X138462255Y-85754192D01*
X138694517Y-85881017D01*
X138942466Y-85973497D01*
X139201049Y-86029748D01*
X139214999Y-86030745D01*
X139215000Y-86030745D01*
X139215000Y-84629401D01*
X139322685Y-84678580D01*
X139429237Y-84693900D01*
X139500763Y-84693900D01*
X139607315Y-84678580D01*
X139715000Y-84629401D01*
X139715000Y-86030745D01*
G37*
%TD.AperFunction*%
%TA.AperFunction,Conductor*%
G36*
X165851751Y-80545652D02*
G01*
X165858678Y-80550439D01*
X165923009Y-80598150D01*
X166070681Y-80717733D01*
X166073309Y-80719985D01*
X166214429Y-80847890D01*
X166216648Y-80850002D01*
X166349995Y-80983349D01*
X166352108Y-80985569D01*
X166428059Y-81069367D01*
X166458986Y-81133274D01*
X166460700Y-81153984D01*
X166460700Y-110646014D01*
X166440698Y-110714135D01*
X166428059Y-110730631D01*
X166352108Y-110814429D01*
X166349976Y-110816669D01*
X166216669Y-110949976D01*
X166214430Y-110952108D01*
X166096484Y-111059009D01*
X166032578Y-111089936D01*
X166011867Y-111091650D01*
X131892700Y-111091650D01*
X131824579Y-111071648D01*
X131778086Y-111017992D01*
X131766700Y-110965650D01*
X131766700Y-109800000D01*
X141686496Y-109800000D01*
X141706457Y-109989927D01*
X141717646Y-110024362D01*
X141765473Y-110171556D01*
X141765476Y-110171561D01*
X141860958Y-110336941D01*
X141860965Y-110336951D01*
X141988744Y-110478864D01*
X142049999Y-110523368D01*
X142143248Y-110591118D01*
X142317712Y-110668794D01*
X142504513Y-110708500D01*
X142695487Y-110708500D01*
X142882288Y-110668794D01*
X143056752Y-110591118D01*
X143211253Y-110478866D01*
X143222221Y-110466685D01*
X143282094Y-110400190D01*
X143342540Y-110362950D01*
X143375730Y-110358500D01*
X145257413Y-110358500D01*
X145325534Y-110378502D01*
X145331471Y-110382562D01*
X145343248Y-110391118D01*
X145517712Y-110468794D01*
X145704513Y-110508500D01*
X145895487Y-110508500D01*
X146082288Y-110468794D01*
X146256752Y-110391118D01*
X146411253Y-110278866D01*
X146507871Y-110171561D01*
X146539034Y-110136951D01*
X146539035Y-110136949D01*
X146539040Y-110136944D01*
X146634527Y-109971556D01*
X146693542Y-109789928D01*
X146713504Y-109600000D01*
X146693542Y-109410072D01*
X146634527Y-109228444D01*
X146539040Y-109063056D01*
X146539038Y-109063054D01*
X146539034Y-109063048D01*
X146411255Y-108921135D01*
X146256752Y-108808882D01*
X146082288Y-108731206D01*
X145895487Y-108691500D01*
X145704513Y-108691500D01*
X145517711Y-108731206D01*
X145343245Y-108808883D01*
X145331476Y-108817435D01*
X145264609Y-108841294D01*
X145257413Y-108841500D01*
X142864441Y-108841500D01*
X142846182Y-108840170D01*
X142822212Y-108836659D01*
X142822211Y-108836659D01*
X142815773Y-108837222D01*
X142769615Y-108841260D01*
X142764122Y-108841500D01*
X142755817Y-108841500D01*
X142722904Y-108845347D01*
X142645574Y-108852112D01*
X142638389Y-108853596D01*
X142638376Y-108853533D01*
X142631003Y-108855168D01*
X142631018Y-108855231D01*
X142623888Y-108856920D01*
X142572790Y-108875518D01*
X142550934Y-108883473D01*
X142548800Y-108884180D01*
X142546008Y-108885105D01*
X142511067Y-108890743D01*
X142511075Y-108890810D01*
X142509865Y-108890937D01*
X142506377Y-108891500D01*
X142504513Y-108891500D01*
X142317711Y-108931206D01*
X142143247Y-109008882D01*
X141988744Y-109121135D01*
X141860965Y-109263048D01*
X141860958Y-109263058D01*
X141765476Y-109428438D01*
X141765473Y-109428445D01*
X141706457Y-109610072D01*
X141686496Y-109800000D01*
X131766700Y-109800000D01*
X131766700Y-108200000D01*
X161594390Y-108200000D01*
X161614803Y-108485424D01*
X161675631Y-108765046D01*
X161775632Y-109033160D01*
X161775637Y-109033170D01*
X161912768Y-109284307D01*
X161912772Y-109284312D01*
X161912774Y-109284315D01*
X162020668Y-109428445D01*
X162084262Y-109513396D01*
X162084270Y-109513405D01*
X162286594Y-109715729D01*
X162286603Y-109715737D01*
X162286605Y-109715739D01*
X162515685Y-109887226D01*
X162515687Y-109887227D01*
X162515692Y-109887231D01*
X162766829Y-110024362D01*
X162766839Y-110024367D01*
X163034954Y-110124369D01*
X163314572Y-110185196D01*
X163528552Y-110200500D01*
X163528558Y-110200500D01*
X163671442Y-110200500D01*
X163671448Y-110200500D01*
X163885428Y-110185196D01*
X164165046Y-110124369D01*
X164433161Y-110024367D01*
X164529877Y-109971556D01*
X164684307Y-109887231D01*
X164684309Y-109887229D01*
X164684315Y-109887226D01*
X164913395Y-109715739D01*
X165115739Y-109513395D01*
X165287226Y-109284315D01*
X165287229Y-109284309D01*
X165287231Y-109284307D01*
X165424362Y-109033170D01*
X165424367Y-109033161D01*
X165524369Y-108765046D01*
X165585196Y-108485428D01*
X165605610Y-108200000D01*
X165585196Y-107914572D01*
X165524369Y-107634954D01*
X165424367Y-107366839D01*
X165424362Y-107366829D01*
X165287231Y-107115692D01*
X165287227Y-107115687D01*
X165287226Y-107115685D01*
X165115739Y-106886605D01*
X165115737Y-106886603D01*
X165115729Y-106886594D01*
X164913405Y-106684270D01*
X164913396Y-106684262D01*
X164684312Y-106512772D01*
X164684307Y-106512768D01*
X164433170Y-106375637D01*
X164433160Y-106375632D01*
X164165046Y-106275631D01*
X163885424Y-106214803D01*
X163751775Y-106205245D01*
X163671448Y-106199500D01*
X163528552Y-106199500D01*
X163452954Y-106204906D01*
X163314575Y-106214803D01*
X163034953Y-106275631D01*
X162766839Y-106375632D01*
X162766829Y-106375637D01*
X162515692Y-106512768D01*
X162515687Y-106512772D01*
X162286603Y-106684262D01*
X162286594Y-106684270D01*
X162084270Y-106886594D01*
X162084262Y-106886603D01*
X161912772Y-107115687D01*
X161912768Y-107115692D01*
X161775637Y-107366829D01*
X161775632Y-107366839D01*
X161675631Y-107634953D01*
X161614803Y-107914575D01*
X161594390Y-108200000D01*
X131766700Y-108200000D01*
X131766700Y-103628620D01*
X131786702Y-103560499D01*
X131840358Y-103514006D01*
X131910632Y-103503902D01*
X131962220Y-103523535D01*
X132044610Y-103578044D01*
X132289876Y-103693020D01*
X132549269Y-103771060D01*
X132549272Y-103771060D01*
X132549274Y-103771061D01*
X132817257Y-103810500D01*
X132817261Y-103810500D01*
X133020333Y-103810500D01*
X133055063Y-103807957D01*
X133222856Y-103795677D01*
X133222860Y-103795676D01*
X133222861Y-103795676D01*
X133333365Y-103771060D01*
X133487253Y-103736780D01*
X133740258Y-103640014D01*
X133976477Y-103507441D01*
X134190877Y-103341888D01*
X134378886Y-103146881D01*
X134536499Y-102926579D01*
X134660356Y-102685675D01*
X134747818Y-102429305D01*
X134797019Y-102162933D01*
X134806912Y-101892235D01*
X134792039Y-101757067D01*
X134777287Y-101622985D01*
X134708771Y-101360909D01*
X134602830Y-101111610D01*
X134461718Y-100880390D01*
X134288445Y-100672180D01*
X134288441Y-100672177D01*
X134288440Y-100672175D01*
X134086712Y-100491427D01*
X134086702Y-100491418D01*
X133860790Y-100341956D01*
X133615524Y-100226980D01*
X133378913Y-100155794D01*
X133356125Y-100148938D01*
X133088142Y-100109500D01*
X133088139Y-100109500D01*
X132885069Y-100109500D01*
X132885067Y-100109500D01*
X132682539Y-100124323D01*
X132682538Y-100124323D01*
X132418156Y-100183217D01*
X132418141Y-100183222D01*
X132165139Y-100279986D01*
X132165136Y-100279988D01*
X131954366Y-100398278D01*
X131885172Y-100414175D01*
X131818368Y-100390139D01*
X131775164Y-100333801D01*
X131766700Y-100288400D01*
X131766700Y-92198620D01*
X131786702Y-92130499D01*
X131840358Y-92084006D01*
X131910632Y-92073902D01*
X131962220Y-92093535D01*
X132044610Y-92148044D01*
X132289876Y-92263020D01*
X132549269Y-92341060D01*
X132549272Y-92341060D01*
X132549274Y-92341061D01*
X132817257Y-92380500D01*
X132817261Y-92380500D01*
X133020333Y-92380500D01*
X133055063Y-92377957D01*
X133222856Y-92365677D01*
X133222860Y-92365676D01*
X133222861Y-92365676D01*
X133333365Y-92341060D01*
X133487253Y-92306780D01*
X133740258Y-92210014D01*
X133976477Y-92077441D01*
X134190877Y-91911888D01*
X134378886Y-91716881D01*
X134536499Y-91496579D01*
X134565538Y-91440099D01*
X134660356Y-91255675D01*
X134660357Y-91255672D01*
X134703542Y-91129088D01*
X134747818Y-90999305D01*
X134772418Y-90866119D01*
X134797018Y-90732941D01*
X134797019Y-90732930D01*
X134800645Y-90633707D01*
X134806912Y-90462235D01*
X134781896Y-90234875D01*
X134777287Y-90192985D01*
X134708771Y-89930909D01*
X134602830Y-89681610D01*
X134461718Y-89450390D01*
X134288445Y-89242180D01*
X134288441Y-89242177D01*
X134288440Y-89242175D01*
X134086712Y-89061427D01*
X134086702Y-89061418D01*
X133860790Y-88911956D01*
X133615524Y-88796980D01*
X133458092Y-88749615D01*
X133356125Y-88718938D01*
X133088142Y-88679500D01*
X133088139Y-88679500D01*
X132885069Y-88679500D01*
X132885067Y-88679500D01*
X132682539Y-88694323D01*
X132682538Y-88694323D01*
X132418156Y-88753217D01*
X132418141Y-88753222D01*
X132165139Y-88849986D01*
X132165136Y-88849988D01*
X131954366Y-88968278D01*
X131885172Y-88984175D01*
X131818368Y-88960139D01*
X131775164Y-88903801D01*
X131766700Y-88858400D01*
X131766700Y-85092549D01*
X133026500Y-85092549D01*
X133033009Y-85153096D01*
X133033011Y-85153104D01*
X133084110Y-85290102D01*
X133084112Y-85290107D01*
X133171738Y-85407161D01*
X133288792Y-85494787D01*
X133288794Y-85494788D01*
X133288796Y-85494789D01*
X133323940Y-85507897D01*
X133425795Y-85545888D01*
X133425803Y-85545890D01*
X133486350Y-85552399D01*
X133486355Y-85552399D01*
X133486362Y-85552400D01*
X133499909Y-85552400D01*
X133568030Y-85572402D01*
X133614523Y-85626058D01*
X133625696Y-85685727D01*
X133622628Y-85738398D01*
X133622628Y-85738403D01*
X133633873Y-85802177D01*
X133634404Y-85805804D01*
X133641920Y-85870112D01*
X133645777Y-85880708D01*
X133651459Y-85901913D01*
X133653418Y-85913023D01*
X133679065Y-85972477D01*
X133680418Y-85975884D01*
X133696411Y-86019826D01*
X133702565Y-86036732D01*
X133705709Y-86041513D01*
X133708763Y-86046155D01*
X133719183Y-86065482D01*
X133723645Y-86075827D01*
X133723647Y-86075829D01*
X133723648Y-86075832D01*
X133752409Y-86114465D01*
X133762318Y-86127775D01*
X133764400Y-86130749D01*
X133786731Y-86164701D01*
X133800000Y-86184876D01*
X133808200Y-86192612D01*
X133822800Y-86209017D01*
X133829531Y-86218058D01*
X133860400Y-86243960D01*
X133879123Y-86259671D01*
X133881860Y-86262107D01*
X133928965Y-86306549D01*
X133928971Y-86306553D01*
X133938733Y-86312189D01*
X133956723Y-86324786D01*
X133965355Y-86332029D01*
X133965358Y-86332031D01*
X134023213Y-86361087D01*
X134026429Y-86362820D01*
X134049869Y-86376353D01*
X134082527Y-86395209D01*
X134093325Y-86398441D01*
X134113743Y-86406552D01*
X134123812Y-86411609D01*
X134186827Y-86426543D01*
X134190330Y-86427482D01*
X134252391Y-86446062D01*
X134252392Y-86446062D01*
X134255879Y-86447106D01*
X134308836Y-86478717D01*
X138273864Y-90443745D01*
X138307890Y-90506057D01*
X138302825Y-90576872D01*
X138260279Y-90633707D01*
X138189439Y-90686738D01*
X138101812Y-90803792D01*
X138101810Y-90803797D01*
X138050711Y-90940795D01*
X138050709Y-90940803D01*
X138044200Y-91001350D01*
X138044200Y-92598649D01*
X138050709Y-92659196D01*
X138050711Y-92659204D01*
X138101810Y-92796202D01*
X138101812Y-92796207D01*
X138189438Y-92913261D01*
X138306495Y-93000889D01*
X138314048Y-93005013D01*
X138342762Y-93026507D01*
X139276253Y-93960000D01*
X139271214Y-93960000D01*
X139177608Y-93975620D01*
X139066072Y-94035980D01*
X138980178Y-94129286D01*
X138929235Y-94245426D01*
X138923521Y-94314374D01*
X137900575Y-93291428D01*
X137900573Y-93291428D01*
X137852729Y-93351422D01*
X137852726Y-93351427D01*
X137721581Y-93578576D01*
X137625760Y-93822727D01*
X137625759Y-93822730D01*
X137567394Y-94078441D01*
X137547793Y-94340000D01*
X137567394Y-94601558D01*
X137625759Y-94857269D01*
X137625760Y-94857272D01*
X137721581Y-95101423D01*
X137852725Y-95328570D01*
X137900574Y-95388570D01*
X137900575Y-95388570D01*
X138918891Y-94370254D01*
X138918762Y-94371814D01*
X138949895Y-94494755D01*
X139019259Y-94600925D01*
X139119339Y-94678821D01*
X139239289Y-94720000D01*
X139276251Y-94720000D01*
X138253532Y-95742719D01*
X138253532Y-95742721D01*
X138369683Y-95821911D01*
X138414700Y-95876811D01*
X138422889Y-95947334D01*
X138391650Y-96011088D01*
X138387801Y-96015112D01*
X138334948Y-96067965D01*
X138208644Y-96248346D01*
X138115581Y-96447920D01*
X138115579Y-96447926D01*
X138058585Y-96660629D01*
X138039393Y-96880000D01*
X138051597Y-97019501D01*
X138058585Y-97099370D01*
X138115579Y-97312073D01*
X138115581Y-97312079D01*
X138163918Y-97415739D01*
X138208644Y-97511654D01*
X138261564Y-97587231D01*
X138334951Y-97692038D01*
X138334954Y-97692042D01*
X138490657Y-97847745D01*
X138490661Y-97847748D01*
X138490662Y-97847749D01*
X138671046Y-97974056D01*
X138775919Y-98022958D01*
X138803468Y-98035805D01*
X138856753Y-98082722D01*
X138876214Y-98150999D01*
X138855672Y-98218959D01*
X138803468Y-98264195D01*
X138671046Y-98325944D01*
X138490665Y-98452248D01*
X138490659Y-98452253D01*
X138334953Y-98607959D01*
X138334948Y-98607965D01*
X138208644Y-98788346D01*
X138115581Y-98987920D01*
X138115579Y-98987926D01*
X138058585Y-99200629D01*
X138039393Y-99420000D01*
X138058585Y-99639370D01*
X138115579Y-99852073D01*
X138115581Y-99852079D01*
X138208642Y-100051650D01*
X138208644Y-100051654D01*
X138309367Y-100195500D01*
X138334951Y-100232038D01*
X138334954Y-100232042D01*
X138490657Y-100387745D01*
X138490661Y-100387748D01*
X138490662Y-100387749D01*
X138671046Y-100514056D01*
X138870624Y-100607120D01*
X139083329Y-100664115D01*
X139302700Y-100683307D01*
X139522071Y-100664115D01*
X139734776Y-100607120D01*
X139934354Y-100514056D01*
X140114738Y-100387749D01*
X140270449Y-100232038D01*
X140396756Y-100051654D01*
X140489820Y-99852076D01*
X140546815Y-99639371D01*
X140566007Y-99420000D01*
X140546815Y-99200629D01*
X140489820Y-98987924D01*
X140488711Y-98985546D01*
X140488537Y-98984401D01*
X140487941Y-98982763D01*
X140488270Y-98982643D01*
X140478045Y-98915359D01*
X140507019Y-98850544D01*
X140513794Y-98843208D01*
X140571097Y-98785905D01*
X140633407Y-98751881D01*
X140704222Y-98756946D01*
X140761058Y-98799493D01*
X140763383Y-98802704D01*
X140842326Y-98915445D01*
X140874951Y-98962038D01*
X140874954Y-98962042D01*
X141030657Y-99117745D01*
X141030661Y-99117748D01*
X141030662Y-99117749D01*
X141211046Y-99244056D01*
X141315919Y-99292958D01*
X141343468Y-99305805D01*
X141396753Y-99352722D01*
X141416214Y-99420999D01*
X141395672Y-99488959D01*
X141343468Y-99534195D01*
X141211046Y-99595944D01*
X141030665Y-99722248D01*
X141030659Y-99722253D01*
X140874953Y-99877959D01*
X140874948Y-99877965D01*
X140748644Y-100058346D01*
X140655581Y-100257920D01*
X140655579Y-100257926D01*
X140617972Y-100398278D01*
X140598585Y-100470629D01*
X140579393Y-100690000D01*
X140598585Y-100909371D01*
X140631491Y-101032178D01*
X140652775Y-101111610D01*
X140655580Y-101122076D01*
X140748644Y-101321654D01*
X140874951Y-101502038D01*
X140874954Y-101502042D01*
X141030657Y-101657745D01*
X141030661Y-101657748D01*
X141030662Y-101657749D01*
X141211046Y-101784056D01*
X141410624Y-101877120D01*
X141623329Y-101934115D01*
X141842700Y-101953307D01*
X142062071Y-101934115D01*
X142274776Y-101877120D01*
X142474354Y-101784056D01*
X142654738Y-101657749D01*
X142810449Y-101502038D01*
X142936756Y-101321654D01*
X143029820Y-101122076D01*
X143086815Y-100909371D01*
X143106007Y-100690000D01*
X143086815Y-100470629D01*
X143078415Y-100439281D01*
X143080103Y-100368309D01*
X143111024Y-100317578D01*
X144141602Y-99287000D01*
X149196496Y-99287000D01*
X149216457Y-99476927D01*
X149220367Y-99488959D01*
X149275473Y-99658556D01*
X149275476Y-99658561D01*
X149370958Y-99823941D01*
X149370965Y-99823951D01*
X149498744Y-99965864D01*
X149498747Y-99965866D01*
X149653248Y-100078118D01*
X149827712Y-100155794D01*
X150014513Y-100195500D01*
X150205487Y-100195500D01*
X150392288Y-100155794D01*
X150566752Y-100078118D01*
X150721253Y-99965866D01*
X150721255Y-99965864D01*
X150849034Y-99823951D01*
X150849035Y-99823949D01*
X150849040Y-99823944D01*
X150944527Y-99658556D01*
X151003542Y-99476928D01*
X151023504Y-99287000D01*
X151003542Y-99097072D01*
X150944527Y-98915444D01*
X150849040Y-98750056D01*
X150775863Y-98668784D01*
X150745146Y-98604776D01*
X150743500Y-98584474D01*
X150743500Y-97154500D01*
X150763502Y-97086379D01*
X150817158Y-97039886D01*
X150869500Y-97028500D01*
X151373842Y-97028500D01*
X151373985Y-97028528D01*
X151373986Y-97028524D01*
X151398997Y-97028539D01*
X151399000Y-97028541D01*
X151399383Y-97028383D01*
X151399500Y-97028099D01*
X151399499Y-97028099D01*
X151399541Y-97028000D01*
X151399540Y-97027998D01*
X151405999Y-97012773D01*
X151399539Y-96992209D01*
X151399517Y-96989843D01*
X151401440Y-92826465D01*
X151421474Y-92758356D01*
X151475151Y-92711888D01*
X151527463Y-92700526D01*
X155973527Y-92701472D01*
X156041643Y-92721489D01*
X156088125Y-92775154D01*
X156099500Y-92827472D01*
X156099500Y-97014371D01*
X156099459Y-97018998D01*
X156099533Y-97019179D01*
X156099614Y-97019382D01*
X156099795Y-97019456D01*
X156099988Y-97019539D01*
X156099995Y-97019538D01*
X156100000Y-97019541D01*
X156100004Y-97019538D01*
X156102958Y-97019533D01*
X156875391Y-97028222D01*
X156876747Y-97028502D01*
X156899996Y-97028539D01*
X156900000Y-97028541D01*
X156900003Y-97028539D01*
X156900181Y-97028540D01*
X156900383Y-97028465D01*
X156900513Y-97028335D01*
X156900537Y-97028272D01*
X156900866Y-97005889D01*
X156900500Y-97003962D01*
X156900500Y-95900000D01*
X161594390Y-95900000D01*
X161614803Y-96185424D01*
X161675631Y-96465046D01*
X161775632Y-96733160D01*
X161775637Y-96733170D01*
X161912768Y-96984307D01*
X161912772Y-96984312D01*
X161912774Y-96984315D01*
X161945880Y-97028540D01*
X162084262Y-97213396D01*
X162084270Y-97213405D01*
X162286594Y-97415729D01*
X162286603Y-97415737D01*
X162286605Y-97415739D01*
X162515685Y-97587226D01*
X162515687Y-97587227D01*
X162515692Y-97587231D01*
X162766829Y-97724362D01*
X162766839Y-97724367D01*
X163034954Y-97824369D01*
X163314572Y-97885196D01*
X163528552Y-97900500D01*
X163528558Y-97900500D01*
X163671442Y-97900500D01*
X163671448Y-97900500D01*
X163885428Y-97885196D01*
X164165046Y-97824369D01*
X164433161Y-97724367D01*
X164492367Y-97692038D01*
X164684307Y-97587231D01*
X164684309Y-97587229D01*
X164684315Y-97587226D01*
X164913395Y-97415739D01*
X165115739Y-97213395D01*
X165287226Y-96984315D01*
X165287229Y-96984309D01*
X165287231Y-96984307D01*
X165424362Y-96733170D01*
X165424367Y-96733161D01*
X165524369Y-96465046D01*
X165585196Y-96185428D01*
X165605610Y-95900000D01*
X165585196Y-95614572D01*
X165524369Y-95334954D01*
X165424367Y-95066839D01*
X165424362Y-95066829D01*
X165287231Y-94815692D01*
X165287227Y-94815687D01*
X165203904Y-94704380D01*
X165115739Y-94586605D01*
X165115737Y-94586603D01*
X165115729Y-94586594D01*
X164913405Y-94384270D01*
X164913396Y-94384262D01*
X164913087Y-94384031D01*
X164684315Y-94212774D01*
X164684313Y-94212773D01*
X164684312Y-94212772D01*
X164684307Y-94212768D01*
X164433170Y-94075637D01*
X164433160Y-94075632D01*
X164165046Y-93975631D01*
X163885424Y-93914803D01*
X163751775Y-93905245D01*
X163671448Y-93899500D01*
X163528552Y-93899500D01*
X163452954Y-93904906D01*
X163314575Y-93914803D01*
X163034953Y-93975631D01*
X162766839Y-94075632D01*
X162766829Y-94075637D01*
X162515692Y-94212768D01*
X162515687Y-94212772D01*
X162286603Y-94384262D01*
X162286594Y-94384270D01*
X162084270Y-94586594D01*
X162084262Y-94586603D01*
X161912772Y-94815687D01*
X161912768Y-94815692D01*
X161775637Y-95066829D01*
X161775632Y-95066839D01*
X161675631Y-95334953D01*
X161614803Y-95614575D01*
X161594390Y-95900000D01*
X156900500Y-95900000D01*
X156900500Y-91465157D01*
X156900528Y-91465014D01*
X156900524Y-91465014D01*
X156900539Y-91440002D01*
X156900541Y-91440000D01*
X156900383Y-91439617D01*
X156900099Y-91439500D01*
X156900000Y-91439459D01*
X156899999Y-91439459D01*
X156875048Y-91439459D01*
X156874842Y-91439500D01*
X150869500Y-91439500D01*
X150801379Y-91419498D01*
X150754886Y-91365842D01*
X150743500Y-91313500D01*
X150743500Y-86091394D01*
X150763502Y-86023273D01*
X150780405Y-86002299D01*
X151081299Y-85701405D01*
X151143611Y-85667379D01*
X151170394Y-85664500D01*
X151226287Y-85664500D01*
X151413088Y-85624794D01*
X151587552Y-85547118D01*
X151742053Y-85434866D01*
X151748310Y-85427917D01*
X151869834Y-85292951D01*
X151869835Y-85292949D01*
X151869840Y-85292944D01*
X151965327Y-85127556D01*
X152024342Y-84945928D01*
X152044304Y-84756000D01*
X152024342Y-84566072D01*
X151965327Y-84384444D01*
X151869840Y-84219056D01*
X151869838Y-84219054D01*
X151869834Y-84219048D01*
X151742055Y-84077135D01*
X151587552Y-83964882D01*
X151413088Y-83887206D01*
X151226287Y-83847500D01*
X151035313Y-83847500D01*
X150848511Y-83887206D01*
X150674047Y-83964882D01*
X150519544Y-84077135D01*
X150391765Y-84219048D01*
X150391758Y-84219058D01*
X150296276Y-84384438D01*
X150296273Y-84384445D01*
X150237257Y-84566072D01*
X150219892Y-84731292D01*
X150192879Y-84796949D01*
X150183677Y-84807216D01*
X149721336Y-85269557D01*
X149708901Y-85279521D01*
X149709089Y-85279748D01*
X149702980Y-85284801D01*
X149655016Y-85335878D01*
X149633866Y-85357027D01*
X149629560Y-85362577D01*
X149625714Y-85367079D01*
X149593417Y-85401474D01*
X149593411Y-85401483D01*
X149583651Y-85419235D01*
X149572803Y-85435750D01*
X149560386Y-85451758D01*
X149541645Y-85495064D01*
X149539034Y-85500394D01*
X149516305Y-85541739D01*
X149516303Y-85541744D01*
X149511267Y-85561359D01*
X149504864Y-85580062D01*
X149496819Y-85598652D01*
X149489437Y-85645256D01*
X149488233Y-85651068D01*
X149476500Y-85696768D01*
X149476500Y-85717023D01*
X149474949Y-85736733D01*
X149471780Y-85756742D01*
X149471780Y-85756743D01*
X149476220Y-85803717D01*
X149476500Y-85809650D01*
X149476500Y-98584474D01*
X149456498Y-98652595D01*
X149444137Y-98668784D01*
X149370957Y-98750059D01*
X149275476Y-98915438D01*
X149275473Y-98915445D01*
X149216457Y-99097072D01*
X149196496Y-99287000D01*
X144141602Y-99287000D01*
X146703156Y-96725447D01*
X146765466Y-96691423D01*
X146818446Y-96691297D01*
X146820310Y-96691693D01*
X146820312Y-96691694D01*
X147007113Y-96731400D01*
X147198087Y-96731400D01*
X147384888Y-96691694D01*
X147559352Y-96614018D01*
X147713853Y-96501766D01*
X147762336Y-96447920D01*
X147841634Y-96359851D01*
X147841635Y-96359849D01*
X147841640Y-96359844D01*
X147937127Y-96194456D01*
X147996142Y-96012828D01*
X148016104Y-95822900D01*
X147996142Y-95632972D01*
X147937127Y-95451344D01*
X147841640Y-95285956D01*
X147841638Y-95285954D01*
X147841634Y-95285948D01*
X147713855Y-95144035D01*
X147559352Y-95031782D01*
X147384888Y-94954106D01*
X147198087Y-94914400D01*
X147007113Y-94914400D01*
X146820311Y-94954106D01*
X146645847Y-95031782D01*
X146491346Y-95144034D01*
X146365451Y-95283855D01*
X146335959Y-95307995D01*
X146318437Y-95318358D01*
X146304112Y-95332683D01*
X146289083Y-95345519D01*
X146272693Y-95357427D01*
X146242608Y-95393792D01*
X146238612Y-95398183D01*
X143314285Y-98322508D01*
X143251973Y-98356534D01*
X143181157Y-98351469D01*
X143124322Y-98308922D01*
X143099511Y-98242402D01*
X143099670Y-98222430D01*
X143103742Y-98175885D01*
X143106007Y-98150000D01*
X143086815Y-97930629D01*
X143078415Y-97899281D01*
X143080103Y-97828309D01*
X143111024Y-97777578D01*
X144933657Y-95954945D01*
X144946092Y-95944984D01*
X144945905Y-95944757D01*
X144952009Y-95939705D01*
X144952018Y-95939700D01*
X144999999Y-95888604D01*
X145021134Y-95867470D01*
X145025429Y-95861932D01*
X145029271Y-95857431D01*
X145061586Y-95823021D01*
X145071345Y-95805267D01*
X145082197Y-95788746D01*
X145094613Y-95772741D01*
X145113347Y-95729448D01*
X145115961Y-95724112D01*
X145138694Y-95682761D01*
X145138695Y-95682760D01*
X145143733Y-95663135D01*
X145150138Y-95644430D01*
X145153836Y-95635885D01*
X145158181Y-95625845D01*
X145165561Y-95579247D01*
X145166762Y-95573440D01*
X145178500Y-95527730D01*
X145178500Y-95507475D01*
X145180051Y-95487763D01*
X145183220Y-95467757D01*
X145180629Y-95440351D01*
X145178780Y-95420780D01*
X145178500Y-95414848D01*
X145178500Y-85470820D01*
X145198502Y-85402699D01*
X145244527Y-85360008D01*
X145290576Y-85335089D01*
X145468240Y-85196806D01*
X145620722Y-85031168D01*
X145743860Y-84842691D01*
X145834296Y-84636516D01*
X145889564Y-84418268D01*
X145908156Y-84193900D01*
X145889564Y-83969532D01*
X145834296Y-83751284D01*
X145767937Y-83600000D01*
X161594390Y-83600000D01*
X161614803Y-83885424D01*
X161675631Y-84165046D01*
X161775632Y-84433160D01*
X161775637Y-84433170D01*
X161912768Y-84684307D01*
X161912772Y-84684312D01*
X161912774Y-84684315D01*
X162070682Y-84895256D01*
X162084262Y-84913396D01*
X162084270Y-84913405D01*
X162286594Y-85115729D01*
X162286603Y-85115737D01*
X162286605Y-85115739D01*
X162515685Y-85287226D01*
X162515687Y-85287227D01*
X162515692Y-85287231D01*
X162766829Y-85424362D01*
X162766839Y-85424367D01*
X163034954Y-85524369D01*
X163314572Y-85585196D01*
X163528552Y-85600500D01*
X163528558Y-85600500D01*
X163671442Y-85600500D01*
X163671448Y-85600500D01*
X163885428Y-85585196D01*
X164165046Y-85524369D01*
X164433161Y-85424367D01*
X164475086Y-85401474D01*
X164684307Y-85287231D01*
X164684309Y-85287229D01*
X164684315Y-85287226D01*
X164913395Y-85115739D01*
X165115739Y-84913395D01*
X165287226Y-84684315D01*
X165287229Y-84684309D01*
X165287231Y-84684307D01*
X165424362Y-84433170D01*
X165424367Y-84433161D01*
X165524369Y-84165046D01*
X165585196Y-83885428D01*
X165605610Y-83600000D01*
X165585196Y-83314572D01*
X165524369Y-83034954D01*
X165424367Y-82766839D01*
X165424362Y-82766829D01*
X165287231Y-82515692D01*
X165287227Y-82515687D01*
X165280561Y-82506782D01*
X165115739Y-82286605D01*
X165115737Y-82286603D01*
X165115729Y-82286594D01*
X164913405Y-82084270D01*
X164913396Y-82084262D01*
X164684312Y-81912772D01*
X164684307Y-81912768D01*
X164433170Y-81775637D01*
X164433160Y-81775632D01*
X164165046Y-81675631D01*
X163885424Y-81614803D01*
X163751775Y-81605245D01*
X163671448Y-81599500D01*
X163528552Y-81599500D01*
X163452954Y-81604906D01*
X163314575Y-81614803D01*
X163034953Y-81675631D01*
X162766839Y-81775632D01*
X162766829Y-81775637D01*
X162515692Y-81912768D01*
X162515687Y-81912772D01*
X162286603Y-82084262D01*
X162286594Y-82084270D01*
X162084270Y-82286594D01*
X162084262Y-82286603D01*
X161912772Y-82515687D01*
X161912768Y-82515692D01*
X161775637Y-82766829D01*
X161775632Y-82766839D01*
X161675631Y-83034953D01*
X161614803Y-83314575D01*
X161594390Y-83600000D01*
X145767937Y-83600000D01*
X145743860Y-83545109D01*
X145726500Y-83518537D01*
X145620724Y-83356634D01*
X145620720Y-83356629D01*
X145468237Y-83190991D01*
X145348367Y-83097692D01*
X145290576Y-83052711D01*
X145092574Y-82945558D01*
X145092572Y-82945557D01*
X145092571Y-82945556D01*
X144879639Y-82872457D01*
X144879630Y-82872455D01*
X144835476Y-82865087D01*
X144657569Y-82835400D01*
X144432431Y-82835400D01*
X144292477Y-82858754D01*
X144210369Y-82872455D01*
X144210360Y-82872457D01*
X143997428Y-82945556D01*
X143997426Y-82945558D01*
X143799426Y-83052710D01*
X143799424Y-83052711D01*
X143621762Y-83190991D01*
X143469279Y-83356629D01*
X143380483Y-83492543D01*
X143326479Y-83538631D01*
X143256131Y-83548206D01*
X143191774Y-83518229D01*
X143169517Y-83492543D01*
X143080720Y-83356629D01*
X142928237Y-83190991D01*
X142808367Y-83097692D01*
X142750576Y-83052711D01*
X142552574Y-82945558D01*
X142552572Y-82945557D01*
X142552571Y-82945556D01*
X142339639Y-82872457D01*
X142339630Y-82872455D01*
X142295476Y-82865087D01*
X142117569Y-82835400D01*
X141892431Y-82835400D01*
X141752477Y-82858754D01*
X141670369Y-82872455D01*
X141670360Y-82872457D01*
X141457428Y-82945556D01*
X141457426Y-82945558D01*
X141259426Y-83052710D01*
X141259423Y-83052711D01*
X141147322Y-83139964D01*
X141081279Y-83166020D01*
X141011634Y-83152235D01*
X140969063Y-83116042D01*
X140866707Y-82979312D01*
X140679590Y-82792195D01*
X140679581Y-82792187D01*
X140467744Y-82633607D01*
X140235482Y-82506782D01*
X139987526Y-82414300D01*
X139728967Y-82358053D01*
X139728952Y-82358051D01*
X139715000Y-82357052D01*
X139715000Y-83758398D01*
X139607315Y-83709220D01*
X139500763Y-83693900D01*
X139429237Y-83693900D01*
X139322685Y-83709220D01*
X139215000Y-83758398D01*
X139215000Y-82357052D01*
X139214999Y-82357052D01*
X139201047Y-82358051D01*
X139201032Y-82358053D01*
X138942473Y-82414300D01*
X138694517Y-82506782D01*
X138462255Y-82633607D01*
X138250418Y-82792187D01*
X138250409Y-82792195D01*
X138063295Y-82979309D01*
X138063287Y-82979318D01*
X137960937Y-83116042D01*
X137904101Y-83158589D01*
X137833285Y-83163653D01*
X137782678Y-83139964D01*
X137670583Y-83052716D01*
X137670580Y-83052714D01*
X137670576Y-83052711D01*
X137472574Y-82945558D01*
X137472572Y-82945557D01*
X137472571Y-82945556D01*
X137259639Y-82872457D01*
X137259630Y-82872455D01*
X137215476Y-82865087D01*
X137037569Y-82835400D01*
X136812431Y-82835400D01*
X136672477Y-82858754D01*
X136590369Y-82872455D01*
X136590360Y-82872457D01*
X136377428Y-82945556D01*
X136377426Y-82945558D01*
X136179426Y-83052710D01*
X136179424Y-83052711D01*
X136001762Y-83190991D01*
X135940754Y-83257263D01*
X135879901Y-83293833D01*
X135808936Y-83291698D01*
X135750391Y-83251536D01*
X135729999Y-83215957D01*
X135685889Y-83097697D01*
X135685887Y-83097692D01*
X135598261Y-82980638D01*
X135481207Y-82893012D01*
X135481202Y-82893010D01*
X135344204Y-82841911D01*
X135344196Y-82841909D01*
X135283649Y-82835400D01*
X135283638Y-82835400D01*
X133486362Y-82835400D01*
X133486350Y-82835400D01*
X133425803Y-82841909D01*
X133425795Y-82841911D01*
X133288797Y-82893010D01*
X133288792Y-82893012D01*
X133171738Y-82980638D01*
X133084112Y-83097692D01*
X133084110Y-83097697D01*
X133033011Y-83234695D01*
X133033009Y-83234703D01*
X133026500Y-83295250D01*
X133026500Y-85092549D01*
X131766700Y-85092549D01*
X131766700Y-80651650D01*
X131786702Y-80583529D01*
X131840358Y-80537036D01*
X131892700Y-80525650D01*
X165783630Y-80525650D01*
X165851751Y-80545652D01*
G37*
%TD.AperFunction*%
%TD*%
M02*
