%TF.GenerationSoftware,KiCad,Pcbnew,7.0.9*%
%TF.CreationDate,2024-04-09T01:08:52-04:00*%
%TF.ProjectId,WIRED_SHT40_revA3,57495245-445f-4534-9854-34305f726576,revA3*%
%TF.SameCoordinates,Original*%
%TF.FileFunction,Legend,Top*%
%TF.FilePolarity,Positive*%
%FSLAX46Y46*%
G04 Gerber Fmt 4.6, Leading zero omitted, Abs format (unit mm)*
G04 Created by KiCad (PCBNEW 7.0.9) date 2024-04-09 01:08:52*
%MOMM*%
%LPD*%
G01*
G04 APERTURE LIST*
G04 Aperture macros list*
%AMRoundRect*
0 Rectangle with rounded corners*
0 $1 Rounding radius*
0 $2 $3 $4 $5 $6 $7 $8 $9 X,Y pos of 4 corners*
0 Add a 4 corners polygon primitive as box body*
4,1,4,$2,$3,$4,$5,$6,$7,$8,$9,$2,$3,0*
0 Add four circle primitives for the rounded corners*
1,1,$1+$1,$2,$3*
1,1,$1+$1,$4,$5*
1,1,$1+$1,$6,$7*
1,1,$1+$1,$8,$9*
0 Add four rect primitives between the rounded corners*
20,1,$1+$1,$2,$3,$4,$5,0*
20,1,$1+$1,$4,$5,$6,$7,0*
20,1,$1+$1,$6,$7,$8,$9,0*
20,1,$1+$1,$8,$9,$2,$3,0*%
G04 Aperture macros list end*
%ADD10C,0.150000*%
%ADD11C,0.120000*%
%ADD12C,0.100000*%
%ADD13C,0.127000*%
%ADD14C,0.200000*%
%ADD15RoundRect,0.250000X-0.250000X-0.475000X0.250000X-0.475000X0.250000X0.475000X-0.250000X0.475000X0*%
%ADD16R,1.000000X1.500000*%
%ADD17C,3.500000*%
%ADD18RoundRect,0.250000X-0.262500X-0.450000X0.262500X-0.450000X0.262500X0.450000X-0.262500X0.450000X0*%
%ADD19R,1.700000X1.700000*%
%ADD20O,1.700000X1.700000*%
%ADD21RoundRect,0.250000X0.475000X-0.250000X0.475000X0.250000X-0.475000X0.250000X-0.475000X-0.250000X0*%
%ADD22RoundRect,0.070000X-0.650000X-0.300000X0.650000X-0.300000X0.650000X0.300000X-0.650000X0.300000X0*%
%ADD23RoundRect,0.250000X0.450000X-0.262500X0.450000X0.262500X-0.450000X0.262500X-0.450000X-0.262500X0*%
%ADD24C,3.200000*%
%ADD25R,1.500000X1.500000*%
%ADD26C,1.500000*%
%ADD27RoundRect,0.218750X-0.218750X-0.256250X0.218750X-0.256250X0.218750X0.256250X-0.218750X0.256250X0*%
%ADD28RoundRect,0.060000X-0.615000X0.240000X-0.615000X-0.240000X0.615000X-0.240000X0.615000X0.240000X0*%
%ADD29R,0.500000X0.300000*%
G04 APERTURE END LIST*
D10*
X143325714Y-87395200D02*
X143468571Y-87442819D01*
X143468571Y-87442819D02*
X143706666Y-87442819D01*
X143706666Y-87442819D02*
X143801904Y-87395200D01*
X143801904Y-87395200D02*
X143849523Y-87347580D01*
X143849523Y-87347580D02*
X143897142Y-87252342D01*
X143897142Y-87252342D02*
X143897142Y-87157104D01*
X143897142Y-87157104D02*
X143849523Y-87061866D01*
X143849523Y-87061866D02*
X143801904Y-87014247D01*
X143801904Y-87014247D02*
X143706666Y-86966628D01*
X143706666Y-86966628D02*
X143516190Y-86919009D01*
X143516190Y-86919009D02*
X143420952Y-86871390D01*
X143420952Y-86871390D02*
X143373333Y-86823771D01*
X143373333Y-86823771D02*
X143325714Y-86728533D01*
X143325714Y-86728533D02*
X143325714Y-86633295D01*
X143325714Y-86633295D02*
X143373333Y-86538057D01*
X143373333Y-86538057D02*
X143420952Y-86490438D01*
X143420952Y-86490438D02*
X143516190Y-86442819D01*
X143516190Y-86442819D02*
X143754285Y-86442819D01*
X143754285Y-86442819D02*
X143897142Y-86490438D01*
X144325714Y-87442819D02*
X144325714Y-86442819D01*
X144325714Y-86442819D02*
X144563809Y-86442819D01*
X144563809Y-86442819D02*
X144706666Y-86490438D01*
X144706666Y-86490438D02*
X144801904Y-86585676D01*
X144801904Y-86585676D02*
X144849523Y-86680914D01*
X144849523Y-86680914D02*
X144897142Y-86871390D01*
X144897142Y-86871390D02*
X144897142Y-87014247D01*
X144897142Y-87014247D02*
X144849523Y-87204723D01*
X144849523Y-87204723D02*
X144801904Y-87299961D01*
X144801904Y-87299961D02*
X144706666Y-87395200D01*
X144706666Y-87395200D02*
X144563809Y-87442819D01*
X144563809Y-87442819D02*
X144325714Y-87442819D01*
X145278095Y-87157104D02*
X145754285Y-87157104D01*
X145182857Y-87442819D02*
X145516190Y-86442819D01*
X145516190Y-86442819D02*
X145849523Y-87442819D01*
X138698095Y-86490438D02*
X138602857Y-86442819D01*
X138602857Y-86442819D02*
X138460000Y-86442819D01*
X138460000Y-86442819D02*
X138317143Y-86490438D01*
X138317143Y-86490438D02*
X138221905Y-86585676D01*
X138221905Y-86585676D02*
X138174286Y-86680914D01*
X138174286Y-86680914D02*
X138126667Y-86871390D01*
X138126667Y-86871390D02*
X138126667Y-87014247D01*
X138126667Y-87014247D02*
X138174286Y-87204723D01*
X138174286Y-87204723D02*
X138221905Y-87299961D01*
X138221905Y-87299961D02*
X138317143Y-87395200D01*
X138317143Y-87395200D02*
X138460000Y-87442819D01*
X138460000Y-87442819D02*
X138555238Y-87442819D01*
X138555238Y-87442819D02*
X138698095Y-87395200D01*
X138698095Y-87395200D02*
X138745714Y-87347580D01*
X138745714Y-87347580D02*
X138745714Y-87014247D01*
X138745714Y-87014247D02*
X138555238Y-87014247D01*
X139174286Y-87442819D02*
X139174286Y-86442819D01*
X139174286Y-86442819D02*
X139745714Y-87442819D01*
X139745714Y-87442819D02*
X139745714Y-86442819D01*
X140221905Y-87442819D02*
X140221905Y-86442819D01*
X140221905Y-86442819D02*
X140460000Y-86442819D01*
X140460000Y-86442819D02*
X140602857Y-86490438D01*
X140602857Y-86490438D02*
X140698095Y-86585676D01*
X140698095Y-86585676D02*
X140745714Y-86680914D01*
X140745714Y-86680914D02*
X140793333Y-86871390D01*
X140793333Y-86871390D02*
X140793333Y-87014247D01*
X140793333Y-87014247D02*
X140745714Y-87204723D01*
X140745714Y-87204723D02*
X140698095Y-87299961D01*
X140698095Y-87299961D02*
X140602857Y-87395200D01*
X140602857Y-87395200D02*
X140460000Y-87442819D01*
X140460000Y-87442819D02*
X140221905Y-87442819D01*
X135681905Y-80854819D02*
X136300952Y-80854819D01*
X136300952Y-80854819D02*
X135967619Y-81235771D01*
X135967619Y-81235771D02*
X136110476Y-81235771D01*
X136110476Y-81235771D02*
X136205714Y-81283390D01*
X136205714Y-81283390D02*
X136253333Y-81331009D01*
X136253333Y-81331009D02*
X136300952Y-81426247D01*
X136300952Y-81426247D02*
X136300952Y-81664342D01*
X136300952Y-81664342D02*
X136253333Y-81759580D01*
X136253333Y-81759580D02*
X136205714Y-81807200D01*
X136205714Y-81807200D02*
X136110476Y-81854819D01*
X136110476Y-81854819D02*
X135824762Y-81854819D01*
X135824762Y-81854819D02*
X135729524Y-81807200D01*
X135729524Y-81807200D02*
X135681905Y-81759580D01*
X136586667Y-80854819D02*
X136920000Y-81854819D01*
X136920000Y-81854819D02*
X137253333Y-80854819D01*
X137491429Y-80854819D02*
X138110476Y-80854819D01*
X138110476Y-80854819D02*
X137777143Y-81235771D01*
X137777143Y-81235771D02*
X137920000Y-81235771D01*
X137920000Y-81235771D02*
X138015238Y-81283390D01*
X138015238Y-81283390D02*
X138062857Y-81331009D01*
X138062857Y-81331009D02*
X138110476Y-81426247D01*
X138110476Y-81426247D02*
X138110476Y-81664342D01*
X138110476Y-81664342D02*
X138062857Y-81759580D01*
X138062857Y-81759580D02*
X138015238Y-81807200D01*
X138015238Y-81807200D02*
X137920000Y-81854819D01*
X137920000Y-81854819D02*
X137634286Y-81854819D01*
X137634286Y-81854819D02*
X137539048Y-81807200D01*
X137539048Y-81807200D02*
X137491429Y-81759580D01*
X133030762Y-86442819D02*
X133364095Y-87442819D01*
X133364095Y-87442819D02*
X133697428Y-86442819D01*
X134030762Y-87442819D02*
X134030762Y-86442819D01*
X134506952Y-87442819D02*
X134506952Y-86442819D01*
X134506952Y-86442819D02*
X135078380Y-87442819D01*
X135078380Y-87442819D02*
X135078380Y-86442819D01*
X140809524Y-81807200D02*
X140952381Y-81854819D01*
X140952381Y-81854819D02*
X141190476Y-81854819D01*
X141190476Y-81854819D02*
X141285714Y-81807200D01*
X141285714Y-81807200D02*
X141333333Y-81759580D01*
X141333333Y-81759580D02*
X141380952Y-81664342D01*
X141380952Y-81664342D02*
X141380952Y-81569104D01*
X141380952Y-81569104D02*
X141333333Y-81473866D01*
X141333333Y-81473866D02*
X141285714Y-81426247D01*
X141285714Y-81426247D02*
X141190476Y-81378628D01*
X141190476Y-81378628D02*
X141000000Y-81331009D01*
X141000000Y-81331009D02*
X140904762Y-81283390D01*
X140904762Y-81283390D02*
X140857143Y-81235771D01*
X140857143Y-81235771D02*
X140809524Y-81140533D01*
X140809524Y-81140533D02*
X140809524Y-81045295D01*
X140809524Y-81045295D02*
X140857143Y-80950057D01*
X140857143Y-80950057D02*
X140904762Y-80902438D01*
X140904762Y-80902438D02*
X141000000Y-80854819D01*
X141000000Y-80854819D02*
X141238095Y-80854819D01*
X141238095Y-80854819D02*
X141380952Y-80902438D01*
X142380952Y-81759580D02*
X142333333Y-81807200D01*
X142333333Y-81807200D02*
X142190476Y-81854819D01*
X142190476Y-81854819D02*
X142095238Y-81854819D01*
X142095238Y-81854819D02*
X141952381Y-81807200D01*
X141952381Y-81807200D02*
X141857143Y-81711961D01*
X141857143Y-81711961D02*
X141809524Y-81616723D01*
X141809524Y-81616723D02*
X141761905Y-81426247D01*
X141761905Y-81426247D02*
X141761905Y-81283390D01*
X141761905Y-81283390D02*
X141809524Y-81092914D01*
X141809524Y-81092914D02*
X141857143Y-80997676D01*
X141857143Y-80997676D02*
X141952381Y-80902438D01*
X141952381Y-80902438D02*
X142095238Y-80854819D01*
X142095238Y-80854819D02*
X142190476Y-80854819D01*
X142190476Y-80854819D02*
X142333333Y-80902438D01*
X142333333Y-80902438D02*
X142380952Y-80950057D01*
X143285714Y-81854819D02*
X142809524Y-81854819D01*
X142809524Y-81854819D02*
X142809524Y-80854819D01*
X152741333Y-100279580D02*
X152693714Y-100327200D01*
X152693714Y-100327200D02*
X152550857Y-100374819D01*
X152550857Y-100374819D02*
X152455619Y-100374819D01*
X152455619Y-100374819D02*
X152312762Y-100327200D01*
X152312762Y-100327200D02*
X152217524Y-100231961D01*
X152217524Y-100231961D02*
X152169905Y-100136723D01*
X152169905Y-100136723D02*
X152122286Y-99946247D01*
X152122286Y-99946247D02*
X152122286Y-99803390D01*
X152122286Y-99803390D02*
X152169905Y-99612914D01*
X152169905Y-99612914D02*
X152217524Y-99517676D01*
X152217524Y-99517676D02*
X152312762Y-99422438D01*
X152312762Y-99422438D02*
X152455619Y-99374819D01*
X152455619Y-99374819D02*
X152550857Y-99374819D01*
X152550857Y-99374819D02*
X152693714Y-99422438D01*
X152693714Y-99422438D02*
X152741333Y-99470057D01*
X153074667Y-99374819D02*
X153693714Y-99374819D01*
X153693714Y-99374819D02*
X153360381Y-99755771D01*
X153360381Y-99755771D02*
X153503238Y-99755771D01*
X153503238Y-99755771D02*
X153598476Y-99803390D01*
X153598476Y-99803390D02*
X153646095Y-99851009D01*
X153646095Y-99851009D02*
X153693714Y-99946247D01*
X153693714Y-99946247D02*
X153693714Y-100184342D01*
X153693714Y-100184342D02*
X153646095Y-100279580D01*
X153646095Y-100279580D02*
X153598476Y-100327200D01*
X153598476Y-100327200D02*
X153503238Y-100374819D01*
X153503238Y-100374819D02*
X153217524Y-100374819D01*
X153217524Y-100374819D02*
X153122286Y-100327200D01*
X153122286Y-100327200D02*
X153074667Y-100279580D01*
X148423333Y-82116819D02*
X148090000Y-81640628D01*
X147851905Y-82116819D02*
X147851905Y-81116819D01*
X147851905Y-81116819D02*
X148232857Y-81116819D01*
X148232857Y-81116819D02*
X148328095Y-81164438D01*
X148328095Y-81164438D02*
X148375714Y-81212057D01*
X148375714Y-81212057D02*
X148423333Y-81307295D01*
X148423333Y-81307295D02*
X148423333Y-81450152D01*
X148423333Y-81450152D02*
X148375714Y-81545390D01*
X148375714Y-81545390D02*
X148328095Y-81593009D01*
X148328095Y-81593009D02*
X148232857Y-81640628D01*
X148232857Y-81640628D02*
X147851905Y-81640628D01*
X148756667Y-81116819D02*
X149375714Y-81116819D01*
X149375714Y-81116819D02*
X149042381Y-81497771D01*
X149042381Y-81497771D02*
X149185238Y-81497771D01*
X149185238Y-81497771D02*
X149280476Y-81545390D01*
X149280476Y-81545390D02*
X149328095Y-81593009D01*
X149328095Y-81593009D02*
X149375714Y-81688247D01*
X149375714Y-81688247D02*
X149375714Y-81926342D01*
X149375714Y-81926342D02*
X149328095Y-82021580D01*
X149328095Y-82021580D02*
X149280476Y-82069200D01*
X149280476Y-82069200D02*
X149185238Y-82116819D01*
X149185238Y-82116819D02*
X148899524Y-82116819D01*
X148899524Y-82116819D02*
X148804286Y-82069200D01*
X148804286Y-82069200D02*
X148756667Y-82021580D01*
X148520833Y-89404819D02*
X148187500Y-88928628D01*
X147949405Y-89404819D02*
X147949405Y-88404819D01*
X147949405Y-88404819D02*
X148330357Y-88404819D01*
X148330357Y-88404819D02*
X148425595Y-88452438D01*
X148425595Y-88452438D02*
X148473214Y-88500057D01*
X148473214Y-88500057D02*
X148520833Y-88595295D01*
X148520833Y-88595295D02*
X148520833Y-88738152D01*
X148520833Y-88738152D02*
X148473214Y-88833390D01*
X148473214Y-88833390D02*
X148425595Y-88881009D01*
X148425595Y-88881009D02*
X148330357Y-88928628D01*
X148330357Y-88928628D02*
X147949405Y-88928628D01*
X149473214Y-89404819D02*
X148901786Y-89404819D01*
X149187500Y-89404819D02*
X149187500Y-88404819D01*
X149187500Y-88404819D02*
X149092262Y-88547676D01*
X149092262Y-88547676D02*
X148997024Y-88642914D01*
X148997024Y-88642914D02*
X148901786Y-88690533D01*
X139395580Y-108116666D02*
X139443200Y-108164285D01*
X139443200Y-108164285D02*
X139490819Y-108307142D01*
X139490819Y-108307142D02*
X139490819Y-108402380D01*
X139490819Y-108402380D02*
X139443200Y-108545237D01*
X139443200Y-108545237D02*
X139347961Y-108640475D01*
X139347961Y-108640475D02*
X139252723Y-108688094D01*
X139252723Y-108688094D02*
X139062247Y-108735713D01*
X139062247Y-108735713D02*
X138919390Y-108735713D01*
X138919390Y-108735713D02*
X138728914Y-108688094D01*
X138728914Y-108688094D02*
X138633676Y-108640475D01*
X138633676Y-108640475D02*
X138538438Y-108545237D01*
X138538438Y-108545237D02*
X138490819Y-108402380D01*
X138490819Y-108402380D02*
X138490819Y-108307142D01*
X138490819Y-108307142D02*
X138538438Y-108164285D01*
X138538438Y-108164285D02*
X138586057Y-108116666D01*
X139490819Y-107164285D02*
X139490819Y-107735713D01*
X139490819Y-107449999D02*
X138490819Y-107449999D01*
X138490819Y-107449999D02*
X138633676Y-107545237D01*
X138633676Y-107545237D02*
X138728914Y-107640475D01*
X138728914Y-107640475D02*
X138776533Y-107735713D01*
X146716761Y-95038057D02*
X146621523Y-94990438D01*
X146621523Y-94990438D02*
X146526285Y-94895200D01*
X146526285Y-94895200D02*
X146383428Y-94752342D01*
X146383428Y-94752342D02*
X146288190Y-94704723D01*
X146288190Y-94704723D02*
X146192952Y-94704723D01*
X146240571Y-94942819D02*
X146145333Y-94895200D01*
X146145333Y-94895200D02*
X146050095Y-94799961D01*
X146050095Y-94799961D02*
X146002476Y-94609485D01*
X146002476Y-94609485D02*
X146002476Y-94276152D01*
X146002476Y-94276152D02*
X146050095Y-94085676D01*
X146050095Y-94085676D02*
X146145333Y-93990438D01*
X146145333Y-93990438D02*
X146240571Y-93942819D01*
X146240571Y-93942819D02*
X146431047Y-93942819D01*
X146431047Y-93942819D02*
X146526285Y-93990438D01*
X146526285Y-93990438D02*
X146621523Y-94085676D01*
X146621523Y-94085676D02*
X146669142Y-94276152D01*
X146669142Y-94276152D02*
X146669142Y-94609485D01*
X146669142Y-94609485D02*
X146621523Y-94799961D01*
X146621523Y-94799961D02*
X146526285Y-94895200D01*
X146526285Y-94895200D02*
X146431047Y-94942819D01*
X146431047Y-94942819D02*
X146240571Y-94942819D01*
X147621523Y-94942819D02*
X147050095Y-94942819D01*
X147335809Y-94942819D02*
X147335809Y-93942819D01*
X147335809Y-93942819D02*
X147240571Y-94085676D01*
X147240571Y-94085676D02*
X147145333Y-94180914D01*
X147145333Y-94180914D02*
X147050095Y-94228533D01*
X157366819Y-107608666D02*
X156890628Y-107941999D01*
X157366819Y-108180094D02*
X156366819Y-108180094D01*
X156366819Y-108180094D02*
X156366819Y-107799142D01*
X156366819Y-107799142D02*
X156414438Y-107703904D01*
X156414438Y-107703904D02*
X156462057Y-107656285D01*
X156462057Y-107656285D02*
X156557295Y-107608666D01*
X156557295Y-107608666D02*
X156700152Y-107608666D01*
X156700152Y-107608666D02*
X156795390Y-107656285D01*
X156795390Y-107656285D02*
X156843009Y-107703904D01*
X156843009Y-107703904D02*
X156890628Y-107799142D01*
X156890628Y-107799142D02*
X156890628Y-108180094D01*
X156366819Y-106703904D02*
X156366819Y-107180094D01*
X156366819Y-107180094D02*
X156843009Y-107227713D01*
X156843009Y-107227713D02*
X156795390Y-107180094D01*
X156795390Y-107180094D02*
X156747771Y-107084856D01*
X156747771Y-107084856D02*
X156747771Y-106846761D01*
X156747771Y-106846761D02*
X156795390Y-106751523D01*
X156795390Y-106751523D02*
X156843009Y-106703904D01*
X156843009Y-106703904D02*
X156938247Y-106656285D01*
X156938247Y-106656285D02*
X157176342Y-106656285D01*
X157176342Y-106656285D02*
X157271580Y-106703904D01*
X157271580Y-106703904D02*
X157319200Y-106751523D01*
X157319200Y-106751523D02*
X157366819Y-106846761D01*
X157366819Y-106846761D02*
X157366819Y-107084856D01*
X157366819Y-107084856D02*
X157319200Y-107180094D01*
X157319200Y-107180094D02*
X157271580Y-107227713D01*
X143757519Y-96578333D02*
X144471804Y-96578333D01*
X144471804Y-96578333D02*
X144614661Y-96625952D01*
X144614661Y-96625952D02*
X144709900Y-96721190D01*
X144709900Y-96721190D02*
X144757519Y-96864047D01*
X144757519Y-96864047D02*
X144757519Y-96959285D01*
X144757519Y-95578333D02*
X144757519Y-96149761D01*
X144757519Y-95864047D02*
X143757519Y-95864047D01*
X143757519Y-95864047D02*
X143900376Y-95959285D01*
X143900376Y-95959285D02*
X143995614Y-96054523D01*
X143995614Y-96054523D02*
X144043233Y-96149761D01*
X152787333Y-82116819D02*
X152454000Y-81640628D01*
X152215905Y-82116819D02*
X152215905Y-81116819D01*
X152215905Y-81116819D02*
X152596857Y-81116819D01*
X152596857Y-81116819D02*
X152692095Y-81164438D01*
X152692095Y-81164438D02*
X152739714Y-81212057D01*
X152739714Y-81212057D02*
X152787333Y-81307295D01*
X152787333Y-81307295D02*
X152787333Y-81450152D01*
X152787333Y-81450152D02*
X152739714Y-81545390D01*
X152739714Y-81545390D02*
X152692095Y-81593009D01*
X152692095Y-81593009D02*
X152596857Y-81640628D01*
X152596857Y-81640628D02*
X152215905Y-81640628D01*
X153644476Y-81450152D02*
X153644476Y-82116819D01*
X153406381Y-81069200D02*
X153168286Y-81783485D01*
X153168286Y-81783485D02*
X153787333Y-81783485D01*
X149433333Y-100159580D02*
X149385714Y-100207200D01*
X149385714Y-100207200D02*
X149242857Y-100254819D01*
X149242857Y-100254819D02*
X149147619Y-100254819D01*
X149147619Y-100254819D02*
X149004762Y-100207200D01*
X149004762Y-100207200D02*
X148909524Y-100111961D01*
X148909524Y-100111961D02*
X148861905Y-100016723D01*
X148861905Y-100016723D02*
X148814286Y-99826247D01*
X148814286Y-99826247D02*
X148814286Y-99683390D01*
X148814286Y-99683390D02*
X148861905Y-99492914D01*
X148861905Y-99492914D02*
X148909524Y-99397676D01*
X148909524Y-99397676D02*
X149004762Y-99302438D01*
X149004762Y-99302438D02*
X149147619Y-99254819D01*
X149147619Y-99254819D02*
X149242857Y-99254819D01*
X149242857Y-99254819D02*
X149385714Y-99302438D01*
X149385714Y-99302438D02*
X149433333Y-99350057D01*
X149814286Y-99350057D02*
X149861905Y-99302438D01*
X149861905Y-99302438D02*
X149957143Y-99254819D01*
X149957143Y-99254819D02*
X150195238Y-99254819D01*
X150195238Y-99254819D02*
X150290476Y-99302438D01*
X150290476Y-99302438D02*
X150338095Y-99350057D01*
X150338095Y-99350057D02*
X150385714Y-99445295D01*
X150385714Y-99445295D02*
X150385714Y-99540533D01*
X150385714Y-99540533D02*
X150338095Y-99683390D01*
X150338095Y-99683390D02*
X149766667Y-100254819D01*
X149766667Y-100254819D02*
X150385714Y-100254819D01*
X147949405Y-86322819D02*
X147949405Y-85322819D01*
X147949405Y-85322819D02*
X148187500Y-85322819D01*
X148187500Y-85322819D02*
X148330357Y-85370438D01*
X148330357Y-85370438D02*
X148425595Y-85465676D01*
X148425595Y-85465676D02*
X148473214Y-85560914D01*
X148473214Y-85560914D02*
X148520833Y-85751390D01*
X148520833Y-85751390D02*
X148520833Y-85894247D01*
X148520833Y-85894247D02*
X148473214Y-86084723D01*
X148473214Y-86084723D02*
X148425595Y-86179961D01*
X148425595Y-86179961D02*
X148330357Y-86275200D01*
X148330357Y-86275200D02*
X148187500Y-86322819D01*
X148187500Y-86322819D02*
X147949405Y-86322819D01*
X149473214Y-86322819D02*
X148901786Y-86322819D01*
X149187500Y-86322819D02*
X149187500Y-85322819D01*
X149187500Y-85322819D02*
X149092262Y-85465676D01*
X149092262Y-85465676D02*
X148997024Y-85560914D01*
X148997024Y-85560914D02*
X148901786Y-85608533D01*
X157196033Y-82050419D02*
X156862700Y-81574228D01*
X156624605Y-82050419D02*
X156624605Y-81050419D01*
X156624605Y-81050419D02*
X157005557Y-81050419D01*
X157005557Y-81050419D02*
X157100795Y-81098038D01*
X157100795Y-81098038D02*
X157148414Y-81145657D01*
X157148414Y-81145657D02*
X157196033Y-81240895D01*
X157196033Y-81240895D02*
X157196033Y-81383752D01*
X157196033Y-81383752D02*
X157148414Y-81478990D01*
X157148414Y-81478990D02*
X157100795Y-81526609D01*
X157100795Y-81526609D02*
X157005557Y-81574228D01*
X157005557Y-81574228D02*
X156624605Y-81574228D01*
X157576986Y-81145657D02*
X157624605Y-81098038D01*
X157624605Y-81098038D02*
X157719843Y-81050419D01*
X157719843Y-81050419D02*
X157957938Y-81050419D01*
X157957938Y-81050419D02*
X158053176Y-81098038D01*
X158053176Y-81098038D02*
X158100795Y-81145657D01*
X158100795Y-81145657D02*
X158148414Y-81240895D01*
X158148414Y-81240895D02*
X158148414Y-81336133D01*
X158148414Y-81336133D02*
X158100795Y-81478990D01*
X158100795Y-81478990D02*
X157529367Y-82050419D01*
X157529367Y-82050419D02*
X158148414Y-82050419D01*
X146422892Y-104472592D02*
X146422892Y-105122340D01*
X146422892Y-105122340D02*
X146461112Y-105198781D01*
X146461112Y-105198781D02*
X146499333Y-105237002D01*
X146499333Y-105237002D02*
X146575774Y-105275222D01*
X146575774Y-105275222D02*
X146728656Y-105275222D01*
X146728656Y-105275222D02*
X146805097Y-105237002D01*
X146805097Y-105237002D02*
X146843317Y-105198781D01*
X146843317Y-105198781D02*
X146881538Y-105122340D01*
X146881538Y-105122340D02*
X146881538Y-104472592D01*
X147684167Y-105275222D02*
X147225521Y-105275222D01*
X147454844Y-105275222D02*
X147454844Y-104472592D01*
X147454844Y-104472592D02*
X147378403Y-104587253D01*
X147378403Y-104587253D02*
X147301962Y-104663694D01*
X147301962Y-104663694D02*
X147225521Y-104701915D01*
X153924095Y-95974819D02*
X153924095Y-96784342D01*
X153924095Y-96784342D02*
X153971714Y-96879580D01*
X153971714Y-96879580D02*
X154019333Y-96927200D01*
X154019333Y-96927200D02*
X154114571Y-96974819D01*
X154114571Y-96974819D02*
X154305047Y-96974819D01*
X154305047Y-96974819D02*
X154400285Y-96927200D01*
X154400285Y-96927200D02*
X154447904Y-96879580D01*
X154447904Y-96879580D02*
X154495523Y-96784342D01*
X154495523Y-96784342D02*
X154495523Y-95974819D01*
X154924095Y-96070057D02*
X154971714Y-96022438D01*
X154971714Y-96022438D02*
X155066952Y-95974819D01*
X155066952Y-95974819D02*
X155305047Y-95974819D01*
X155305047Y-95974819D02*
X155400285Y-96022438D01*
X155400285Y-96022438D02*
X155447904Y-96070057D01*
X155447904Y-96070057D02*
X155495523Y-96165295D01*
X155495523Y-96165295D02*
X155495523Y-96260533D01*
X155495523Y-96260533D02*
X155447904Y-96403390D01*
X155447904Y-96403390D02*
X154876476Y-96974819D01*
X154876476Y-96974819D02*
X155495523Y-96974819D01*
X153157761Y-105198057D02*
X153062523Y-105150438D01*
X153062523Y-105150438D02*
X152967285Y-105055200D01*
X152967285Y-105055200D02*
X152824428Y-104912342D01*
X152824428Y-104912342D02*
X152729190Y-104864723D01*
X152729190Y-104864723D02*
X152633952Y-104864723D01*
X152681571Y-105102819D02*
X152586333Y-105055200D01*
X152586333Y-105055200D02*
X152491095Y-104959961D01*
X152491095Y-104959961D02*
X152443476Y-104769485D01*
X152443476Y-104769485D02*
X152443476Y-104436152D01*
X152443476Y-104436152D02*
X152491095Y-104245676D01*
X152491095Y-104245676D02*
X152586333Y-104150438D01*
X152586333Y-104150438D02*
X152681571Y-104102819D01*
X152681571Y-104102819D02*
X152872047Y-104102819D01*
X152872047Y-104102819D02*
X152967285Y-104150438D01*
X152967285Y-104150438D02*
X153062523Y-104245676D01*
X153062523Y-104245676D02*
X153110142Y-104436152D01*
X153110142Y-104436152D02*
X153110142Y-104769485D01*
X153110142Y-104769485D02*
X153062523Y-104959961D01*
X153062523Y-104959961D02*
X152967285Y-105055200D01*
X152967285Y-105055200D02*
X152872047Y-105102819D01*
X152872047Y-105102819D02*
X152681571Y-105102819D01*
X153491095Y-104198057D02*
X153538714Y-104150438D01*
X153538714Y-104150438D02*
X153633952Y-104102819D01*
X153633952Y-104102819D02*
X153872047Y-104102819D01*
X153872047Y-104102819D02*
X153967285Y-104150438D01*
X153967285Y-104150438D02*
X154014904Y-104198057D01*
X154014904Y-104198057D02*
X154062523Y-104293295D01*
X154062523Y-104293295D02*
X154062523Y-104388533D01*
X154062523Y-104388533D02*
X154014904Y-104531390D01*
X154014904Y-104531390D02*
X153443476Y-105102819D01*
X153443476Y-105102819D02*
X154062523Y-105102819D01*
D11*
%TO.C,C3*%
X152646748Y-100865000D02*
X153169252Y-100865000D01*
X152646748Y-102335000D02*
X153169252Y-102335000D01*
%TO.C,JP3*%
X155938000Y-85868000D02*
X158738000Y-85868000D01*
X155938000Y-87868000D02*
X155938000Y-85868000D01*
X158738000Y-85868000D02*
X158738000Y-87868000D01*
X158738000Y-87868000D02*
X155938000Y-87868000D01*
%TO.C,R3*%
X148362936Y-82577000D02*
X148817064Y-82577000D01*
X148362936Y-84047000D02*
X148817064Y-84047000D01*
%TO.C,J2*%
X133055000Y-85523900D02*
X133055000Y-84193900D01*
X134385000Y-85523900D02*
X133055000Y-85523900D01*
X135655000Y-85523900D02*
X145875000Y-85523900D01*
X135655000Y-85523900D02*
X135655000Y-82863900D01*
X145875000Y-85523900D02*
X145875000Y-82863900D01*
X135655000Y-82863900D02*
X145875000Y-82863900D01*
%TO.C,R1*%
X148460436Y-89865000D02*
X148914564Y-89865000D01*
X148460436Y-91335000D02*
X148914564Y-91335000D01*
%TO.C,C1*%
X139981000Y-108211252D02*
X139981000Y-107688748D01*
X141451000Y-108211252D02*
X141451000Y-107688748D01*
D12*
%TO.C,Q1*%
X145987000Y-96161000D02*
X145987000Y-96211000D01*
X145987000Y-96211000D02*
X145212000Y-96211000D01*
X145987000Y-99186000D02*
X145987000Y-98836000D01*
X146362000Y-95886000D02*
X145987000Y-96161000D01*
X146462000Y-99186000D02*
X145987000Y-99186000D01*
X146637000Y-95886000D02*
X146362000Y-95886000D01*
X147262000Y-95886000D02*
X147637000Y-95886000D01*
X147637000Y-95886000D02*
X147637000Y-96186000D01*
X147637000Y-98886000D02*
X147637000Y-99186000D01*
X147637000Y-98961000D02*
X147637000Y-98836000D01*
X147637000Y-99186000D02*
X147187000Y-99186000D01*
D11*
%TO.C,R5*%
X157827000Y-107669064D02*
X157827000Y-107214936D01*
X159297000Y-107669064D02*
X159297000Y-107214936D01*
%TO.C,J1*%
X139802700Y-87800000D02*
X138802700Y-87800000D01*
X138802700Y-87800000D02*
X139302700Y-88300000D01*
X139302700Y-88300000D02*
X139802700Y-87800000D01*
X143182700Y-88485000D02*
X125222700Y-88485000D01*
X125222700Y-88485000D02*
X125222700Y-104005000D01*
X143182700Y-104005000D02*
X143182700Y-88485000D01*
X143182700Y-104005000D02*
X125222700Y-104005000D01*
%TO.C,R4*%
X152726936Y-82577000D02*
X153181064Y-82577000D01*
X152726936Y-84047000D02*
X153181064Y-84047000D01*
%TO.C,C2*%
X148394748Y-100865000D02*
X148917252Y-100865000D01*
X148394748Y-102335000D02*
X148917252Y-102335000D01*
%TO.C,D1*%
X147202500Y-86563000D02*
X147202500Y-88033000D01*
X147202500Y-88033000D02*
X149487500Y-88033000D01*
X149487500Y-86563000D02*
X147202500Y-86563000D01*
%TO.C,R2*%
X157135636Y-82510600D02*
X157589764Y-82510600D01*
X157135636Y-83980600D02*
X157589764Y-83980600D01*
D13*
%TO.C,U1*%
X145520000Y-105892000D02*
X145520000Y-105992000D01*
X145520000Y-108992000D02*
X145520000Y-108892000D01*
X147220000Y-105892000D02*
X145520000Y-105892000D01*
X147220000Y-105892000D02*
X147220000Y-105992000D01*
X147220000Y-108992000D02*
X145520000Y-108992000D01*
X147220000Y-108992000D02*
X147220000Y-108892000D01*
D14*
X144001000Y-106492000D02*
G75*
G03*
X144001000Y-106492000I-100000J0D01*
G01*
D11*
%TO.C,JP2*%
X151588000Y-85868000D02*
X154388000Y-85868000D01*
X151588000Y-87868000D02*
X151588000Y-85868000D01*
X154388000Y-85868000D02*
X154388000Y-87868000D01*
X154388000Y-87868000D02*
X151588000Y-87868000D01*
D12*
%TO.C,U2*%
X153004000Y-93671900D02*
X154404000Y-93671900D01*
X153004000Y-95171900D02*
X154404000Y-95171900D01*
X152754000Y-93621900D02*
G75*
G03*
X152754000Y-93621900I-50000J0D01*
G01*
%TO.C,Q2*%
X152403000Y-106067000D02*
X152403000Y-106117000D01*
X152403000Y-106117000D02*
X151628000Y-106117000D01*
X152403000Y-109092000D02*
X152403000Y-108742000D01*
X152778000Y-105792000D02*
X152403000Y-106067000D01*
X152878000Y-109092000D02*
X152403000Y-109092000D01*
X153053000Y-105792000D02*
X152778000Y-105792000D01*
X153678000Y-105792000D02*
X154053000Y-105792000D01*
X154053000Y-105792000D02*
X154053000Y-106092000D01*
X154053000Y-108792000D02*
X154053000Y-109092000D01*
X154053000Y-108867000D02*
X154053000Y-108742000D01*
X154053000Y-109092000D02*
X153603000Y-109092000D01*
%TD*%
%LPC*%
D15*
%TO.C,C3*%
X151958000Y-101600000D03*
X153858000Y-101600000D03*
%TD*%
D16*
%TO.C,JP3*%
X156688000Y-86868000D03*
X157988000Y-86868000D03*
%TD*%
D17*
%TO.C,H2*%
X163600000Y-83600000D03*
%TD*%
D18*
%TO.C,R3*%
X147677500Y-83312000D03*
X149502500Y-83312000D03*
%TD*%
D19*
%TO.C,J2*%
X134385000Y-84193900D03*
D20*
X136925000Y-84193900D03*
X139465000Y-84193900D03*
X142005000Y-84193900D03*
X144545000Y-84193900D03*
%TD*%
D17*
%TO.C,H1*%
X128400000Y-83600000D03*
%TD*%
%TO.C,H3*%
X163600000Y-108200000D03*
%TD*%
D18*
%TO.C,R1*%
X147775000Y-90600000D03*
X149600000Y-90600000D03*
%TD*%
D21*
%TO.C,C1*%
X140716000Y-108900000D03*
X140716000Y-107000000D03*
%TD*%
D22*
%TO.C,Q1*%
X145762000Y-96586000D03*
X145762000Y-98486000D03*
X147862000Y-97536000D03*
%TD*%
D23*
%TO.C,R5*%
X158562000Y-108354500D03*
X158562000Y-106529500D03*
%TD*%
D24*
%TO.C,J1*%
X132952700Y-90530000D03*
X132952700Y-101960000D03*
D25*
X139302700Y-91800000D03*
D26*
X141842700Y-93070000D03*
X139302700Y-94340000D03*
X141842700Y-95610000D03*
X139302700Y-96880000D03*
X141842700Y-98150000D03*
X139302700Y-99420000D03*
X141842700Y-100690000D03*
%TD*%
D18*
%TO.C,R4*%
X152041500Y-83312000D03*
X153866500Y-83312000D03*
%TD*%
D15*
%TO.C,C2*%
X147706000Y-101600000D03*
X149606000Y-101600000D03*
%TD*%
D27*
%TO.C,D1*%
X147900000Y-87298000D03*
X149475000Y-87298000D03*
%TD*%
D17*
%TO.C,H4*%
X128400000Y-108200000D03*
%TD*%
D18*
%TO.C,R2*%
X156450200Y-83245600D03*
X158275200Y-83245600D03*
%TD*%
D28*
%TO.C,U1*%
X145185000Y-106492000D03*
X145185000Y-107442000D03*
X145185000Y-108392000D03*
X147555000Y-108392000D03*
X147555000Y-106492000D03*
%TD*%
D16*
%TO.C,JP2*%
X152338000Y-86868000D03*
X153638000Y-86868000D03*
%TD*%
D29*
%TO.C,U2*%
X153004000Y-94021900D03*
X153004000Y-94821900D03*
X154404000Y-94821900D03*
X154404000Y-94021900D03*
%TD*%
D17*
%TO.C,H5*%
X163600000Y-95900000D03*
%TD*%
D22*
%TO.C,Q2*%
X152178000Y-106492000D03*
X152178000Y-108392000D03*
X154278000Y-107442000D03*
%TD*%
%LPD*%
M02*
