M48
; DRILL file {KiCad 7.0.9} date Tue Apr  9 01:08:52 2024
; FORMAT={-:-/ absolute / inch / decimal}
; #@! TF.CreationDate,2024-04-09T01:08:52-04:00
; #@! TF.GenerationSoftware,Kicad,Pcbnew,7.0.9
; #@! TF.FileFunction,Plated,1,2,PTH
FMAT,2
INCH
; #@! TA.AperFunction,Plated,PTH,ViaDrill
T1C0.0157
; #@! TA.AperFunction,Plated,PTH,ComponentDrill
T2C0.0299
; #@! TA.AperFunction,Plated,PTH,ComponentDrill
T3C0.0394
%
G90
G05
T1
X5.6028Y-4.2008
X5.6106Y-3.6004
X5.6142Y-4.3228
X5.7402Y-4.315
X5.7717Y-4.2283
X5.7718Y-3.4396
X5.7914Y-3.7726
X5.9055Y-4.0601
X5.9098Y-3.9089
X5.95Y-3.3369
X6.0574Y-4.0602
T2
X5.4844Y-3.6142
X5.4844Y-3.7142
X5.4844Y-3.8142
X5.4844Y-3.9142
X5.5844Y-3.6642
X5.5844Y-3.7642
X5.5844Y-3.8642
X5.5844Y-3.9642
T3
X5.2907Y-3.3147
X5.3907Y-3.3147
X5.4907Y-3.3147
X5.5907Y-3.3147
X5.6907Y-3.3147
T0
M30
