%TF.GenerationSoftware,KiCad,Pcbnew,7.0.9*%
%TF.CreationDate,2024-04-09T01:08:52-04:00*%
%TF.ProjectId,WIRED_SHT40_revA3,57495245-445f-4534-9854-34305f726576,revA3*%
%TF.SameCoordinates,Original*%
%TF.FileFunction,Copper,L1,Top*%
%TF.FilePolarity,Positive*%
%FSLAX46Y46*%
G04 Gerber Fmt 4.6, Leading zero omitted, Abs format (unit mm)*
G04 Created by KiCad (PCBNEW 7.0.9) date 2024-04-09 01:08:52*
%MOMM*%
%LPD*%
G01*
G04 APERTURE LIST*
G04 Aperture macros list*
%AMRoundRect*
0 Rectangle with rounded corners*
0 $1 Rounding radius*
0 $2 $3 $4 $5 $6 $7 $8 $9 X,Y pos of 4 corners*
0 Add a 4 corners polygon primitive as box body*
4,1,4,$2,$3,$4,$5,$6,$7,$8,$9,$2,$3,0*
0 Add four circle primitives for the rounded corners*
1,1,$1+$1,$2,$3*
1,1,$1+$1,$4,$5*
1,1,$1+$1,$6,$7*
1,1,$1+$1,$8,$9*
0 Add four rect primitives between the rounded corners*
20,1,$1+$1,$2,$3,$4,$5,0*
20,1,$1+$1,$4,$5,$6,$7,0*
20,1,$1+$1,$6,$7,$8,$9,0*
20,1,$1+$1,$8,$9,$2,$3,0*%
G04 Aperture macros list end*
%TA.AperFunction,SMDPad,CuDef*%
%ADD10RoundRect,0.250000X-0.250000X-0.475000X0.250000X-0.475000X0.250000X0.475000X-0.250000X0.475000X0*%
%TD*%
%TA.AperFunction,SMDPad,CuDef*%
%ADD11R,1.000000X1.500000*%
%TD*%
%TA.AperFunction,SMDPad,CuDef*%
%ADD12RoundRect,0.250000X-0.262500X-0.450000X0.262500X-0.450000X0.262500X0.450000X-0.262500X0.450000X0*%
%TD*%
%TA.AperFunction,ComponentPad*%
%ADD13R,1.700000X1.700000*%
%TD*%
%TA.AperFunction,ComponentPad*%
%ADD14O,1.700000X1.700000*%
%TD*%
%TA.AperFunction,SMDPad,CuDef*%
%ADD15RoundRect,0.250000X0.475000X-0.250000X0.475000X0.250000X-0.475000X0.250000X-0.475000X-0.250000X0*%
%TD*%
%TA.AperFunction,SMDPad,CuDef*%
%ADD16R,1.300000X0.600000*%
%TD*%
%TA.AperFunction,SMDPad,CuDef*%
%ADD17RoundRect,0.250000X0.450000X-0.262500X0.450000X0.262500X-0.450000X0.262500X-0.450000X-0.262500X0*%
%TD*%
%TA.AperFunction,ComponentPad*%
%ADD18R,1.500000X1.500000*%
%TD*%
%TA.AperFunction,ComponentPad*%
%ADD19C,1.500000*%
%TD*%
%TA.AperFunction,SMDPad,CuDef*%
%ADD20RoundRect,0.218750X-0.218750X-0.256250X0.218750X-0.256250X0.218750X0.256250X-0.218750X0.256250X0*%
%TD*%
%TA.AperFunction,SMDPad,CuDef*%
%ADD21RoundRect,0.060000X-0.615000X0.240000X-0.615000X-0.240000X0.615000X-0.240000X0.615000X0.240000X0*%
%TD*%
%TA.AperFunction,SMDPad,CuDef*%
%ADD22R,0.500000X0.300000*%
%TD*%
%TA.AperFunction,ViaPad*%
%ADD23C,0.800000*%
%TD*%
%TA.AperFunction,Conductor*%
%ADD24C,0.500000*%
%TD*%
%TA.AperFunction,Conductor*%
%ADD25C,0.250000*%
%TD*%
G04 APERTURE END LIST*
%TA.AperFunction,EtchedComponent*%
%TO.C,JP3*%
G36*
X157588000Y-87168000D02*
G01*
X157088000Y-87168000D01*
X157088000Y-86568000D01*
X157588000Y-86568000D01*
X157588000Y-87168000D01*
G37*
%TD.AperFunction*%
%TA.AperFunction,EtchedComponent*%
%TO.C,JP2*%
G36*
X153238000Y-87168000D02*
G01*
X152738000Y-87168000D01*
X152738000Y-86568000D01*
X153238000Y-86568000D01*
X153238000Y-87168000D01*
G37*
%TD.AperFunction*%
%TD*%
D10*
%TO.P,C3,1*%
%TO.N,+3V3*%
X151958000Y-101600000D03*
%TO.P,C3,2*%
%TO.N,GND*%
X153858000Y-101600000D03*
%TD*%
D11*
%TO.P,JP3,1,A*%
%TO.N,Net-(JP3-A)*%
X156688000Y-86868000D03*
%TO.P,JP3,2,B*%
%TO.N,+3V3*%
X157988000Y-86868000D03*
%TD*%
D12*
%TO.P,R3,1*%
%TO.N,/SDA*%
X147677500Y-83312000D03*
%TO.P,R3,2*%
%TO.N,Net-(JP2-A)*%
X149502500Y-83312000D03*
%TD*%
D13*
%TO.P,J2,1,Pin_1*%
%TO.N,+5V*%
X134385000Y-84193900D03*
D14*
%TO.P,J2,2,Pin_2*%
%TO.N,+3V3*%
X136925000Y-84193900D03*
%TO.P,J2,3,Pin_3*%
%TO.N,GND*%
X139465000Y-84193900D03*
%TO.P,J2,4,Pin_4*%
%TO.N,/SCL*%
X142005000Y-84193900D03*
%TO.P,J2,5,Pin_5*%
%TO.N,/SDA*%
X144545000Y-84193900D03*
%TD*%
D12*
%TO.P,R1,1*%
%TO.N,Net-(D1-A)*%
X147775000Y-90600000D03*
%TO.P,R1,2*%
%TO.N,+3V3*%
X149600000Y-90600000D03*
%TD*%
D15*
%TO.P,C1,1*%
%TO.N,+5V*%
X140716000Y-108900000D03*
%TO.P,C1,2*%
%TO.N,GND*%
X140716000Y-107000000D03*
%TD*%
D16*
%TO.P,Q1,1,G*%
%TO.N,+3V3*%
X145762000Y-96586000D03*
%TO.P,Q1,2,S*%
%TO.N,/SCL_3V*%
X145762000Y-98486000D03*
%TO.P,Q1,3,D*%
%TO.N,/SCL*%
X147862000Y-97536000D03*
%TD*%
D17*
%TO.P,R5,1*%
%TO.N,/SDA_3V*%
X158562000Y-108354500D03*
%TO.P,R5,2*%
%TO.N,Net-(JP3-A)*%
X158562000Y-106529500D03*
%TD*%
D18*
%TO.P,J1,1*%
%TO.N,+5V*%
X139302700Y-91800000D03*
D19*
%TO.P,J1,2*%
X141842700Y-93070000D03*
%TO.P,J1,3*%
%TO.N,GND*%
X139302700Y-94340000D03*
%TO.P,J1,4*%
X141842700Y-95610000D03*
%TO.P,J1,5*%
%TO.N,/SDA*%
X139302700Y-96880000D03*
%TO.P,J1,6*%
X141842700Y-98150000D03*
%TO.P,J1,7*%
%TO.N,/SCL*%
X139302700Y-99420000D03*
%TO.P,J1,8*%
X141842700Y-100690000D03*
%TD*%
D12*
%TO.P,R4,1*%
%TO.N,/SCL_3V*%
X152041500Y-83312000D03*
%TO.P,R4,2*%
%TO.N,Net-(JP3-A)*%
X153866500Y-83312000D03*
%TD*%
D10*
%TO.P,C2,1*%
%TO.N,+3V3*%
X147706000Y-101600000D03*
%TO.P,C2,2*%
%TO.N,GND*%
X149606000Y-101600000D03*
%TD*%
D20*
%TO.P,D1,1,K*%
%TO.N,GND*%
X147900000Y-87298000D03*
%TO.P,D1,2,A*%
%TO.N,Net-(D1-A)*%
X149475000Y-87298000D03*
%TD*%
D12*
%TO.P,R2,1*%
%TO.N,/SCL*%
X156450200Y-83245600D03*
%TO.P,R2,2*%
%TO.N,Net-(JP2-A)*%
X158275200Y-83245600D03*
%TD*%
D21*
%TO.P,U1,1,VIN*%
%TO.N,+5V*%
X145185000Y-106492000D03*
%TO.P,U1,2,GND*%
%TO.N,GND*%
X145185000Y-107442000D03*
%TO.P,U1,3,EN*%
%TO.N,+5V*%
X145185000Y-108392000D03*
%TO.P,U1,4*%
%TO.N,N/C*%
X147555000Y-108392000D03*
%TO.P,U1,5,VOUT*%
%TO.N,+3V3*%
X147555000Y-106492000D03*
%TD*%
D11*
%TO.P,JP2,1,A*%
%TO.N,Net-(JP2-A)*%
X152338000Y-86868000D03*
%TO.P,JP2,2,B*%
%TO.N,+5V*%
X153638000Y-86868000D03*
%TD*%
D22*
%TO.P,U2,1,SDA*%
%TO.N,/SDA_3V*%
X153004000Y-94021900D03*
%TO.P,U2,2,SCL*%
%TO.N,/SCL_3V*%
X153004000Y-94821900D03*
%TO.P,U2,3,VDD*%
%TO.N,+3V3*%
X154404000Y-94821900D03*
%TO.P,U2,4,VSS*%
%TO.N,GND*%
X154404000Y-94021900D03*
%TD*%
D16*
%TO.P,Q2,1,G*%
%TO.N,+3V3*%
X152178000Y-106492000D03*
%TO.P,Q2,2,S*%
%TO.N,/SDA_3V*%
X152178000Y-108392000D03*
%TO.P,Q2,3,D*%
%TO.N,/SDA*%
X154278000Y-107442000D03*
%TD*%
D23*
%TO.N,+5V*%
X145800000Y-109600000D03*
X142600000Y-109800000D03*
%TO.N,GND*%
X149999900Y-103127600D03*
X146600000Y-107400000D03*
X146604900Y-87365700D03*
X153858000Y-103128000D03*
X142311900Y-106700000D03*
%TO.N,/SCL_3V*%
X151130800Y-84756000D03*
X150110000Y-99287000D03*
%TO.N,/SCL*%
X147102600Y-95822900D03*
%TO.N,+3V3*%
X142508800Y-91449200D03*
%TD*%
D24*
%TO.N,+5V*%
X139302700Y-91800000D02*
X137882900Y-93219800D01*
X141842600Y-92939800D02*
X140702800Y-91800000D01*
X137882900Y-93219800D02*
X137882900Y-106229600D01*
X137882900Y-106229600D02*
X140553300Y-108900000D01*
X139901000Y-91800000D02*
X140702800Y-91800000D01*
X140553300Y-108900000D02*
X140716000Y-108900000D01*
X153638000Y-88268100D02*
X151778700Y-88268100D01*
X151068900Y-87558300D02*
X151068900Y-87410300D01*
X140716000Y-108900000D02*
X141700000Y-108900000D01*
X145800000Y-109007000D02*
X145185000Y-108392000D01*
X151778700Y-88268100D02*
X151068900Y-87558300D01*
X145800000Y-109600000D02*
X145800000Y-109007000D01*
X151068900Y-87410300D02*
X149781700Y-86123100D01*
X141842700Y-93070000D02*
X141842700Y-92939800D01*
X149781700Y-86123100D02*
X146283400Y-86123100D01*
X145185000Y-106492000D02*
X144558751Y-106492000D01*
X141700000Y-108900000D02*
X142600000Y-109800000D01*
X141842700Y-92939800D02*
X141842600Y-92939800D01*
X144042736Y-108042736D02*
X144400000Y-108400000D01*
X144042736Y-107008015D02*
X144042736Y-108042736D01*
X153638000Y-86868000D02*
X153638000Y-88268100D01*
X146283400Y-86123100D02*
X140702800Y-91703700D01*
X144558751Y-106492000D02*
X144042736Y-107008015D01*
X139901000Y-91800000D02*
X139302700Y-91800000D01*
X140702800Y-91703700D02*
X140702800Y-91800000D01*
%TO.N,GND*%
X145185000Y-107442000D02*
X146558000Y-107442000D01*
X149606000Y-102733700D02*
X149606000Y-101600000D01*
X154600000Y-96800000D02*
X154600000Y-100858000D01*
X147832300Y-87365700D02*
X147900000Y-87298000D01*
X140716000Y-107000000D02*
X141016000Y-106700000D01*
X155240000Y-94469072D02*
X155240000Y-96160000D01*
X154600000Y-100858000D02*
X153858000Y-101600000D01*
X141016000Y-106700000D02*
X142311900Y-106700000D01*
X154404000Y-94021900D02*
X154792828Y-94021900D01*
X155240000Y-96160000D02*
X154600000Y-96800000D01*
X146604900Y-87365700D02*
X147832300Y-87365700D01*
X146558000Y-107442000D02*
X146600000Y-107400000D01*
X149999900Y-103127600D02*
X149606000Y-102733700D01*
X154792828Y-94021900D02*
X155240000Y-94469072D01*
X153858000Y-103128000D02*
X153858000Y-101600000D01*
D25*
%TO.N,Net-(D1-A)*%
X149475000Y-87298000D02*
X149475000Y-88900000D01*
X149475000Y-88900000D02*
X147775000Y-90600000D01*
%TO.N,/SCL_3V*%
X153004000Y-94821900D02*
X152428700Y-94821900D01*
X151130800Y-84222700D02*
X151130800Y-84756000D01*
X150110000Y-99287000D02*
X150110000Y-98486000D01*
X152428700Y-96697700D02*
X152428700Y-94821900D01*
X145762000Y-98486000D02*
X150110000Y-98486000D01*
X150110000Y-98486000D02*
X150640400Y-98486000D01*
X152041500Y-83312000D02*
X151130800Y-84222700D01*
X150640400Y-98486000D02*
X152428700Y-96697700D01*
%TO.N,/SCL*%
X145205700Y-81801200D02*
X143180300Y-83826600D01*
X155005800Y-81801200D02*
X145205700Y-81801200D01*
X147862000Y-96582300D02*
X147102600Y-95822900D01*
X140572700Y-99420000D02*
X139302700Y-99420000D01*
X143180300Y-83826600D02*
X143180300Y-84193900D01*
X156450200Y-83245600D02*
X155005800Y-81801200D01*
X142005000Y-84193900D02*
X143180300Y-84193900D01*
X141842700Y-100690000D02*
X140572700Y-99420000D01*
X147862000Y-97536000D02*
X147862000Y-96582300D01*
%TO.N,/SDA*%
X143200000Y-108800000D02*
X143200000Y-99507300D01*
X139302700Y-96880000D02*
X140572700Y-96880000D01*
X144545000Y-84193900D02*
X146795600Y-84193900D01*
X140572700Y-96880000D02*
X141842700Y-98150000D01*
X147564800Y-110600000D02*
X145000000Y-110600000D01*
X154278000Y-107442000D02*
X150722800Y-107442000D01*
X146795600Y-84193900D02*
X147677500Y-83312000D01*
X145000000Y-110600000D02*
X143200000Y-108800000D01*
X150722800Y-107442000D02*
X147564800Y-110600000D01*
X143200000Y-99507300D02*
X141842700Y-98150000D01*
%TO.N,/SDA_3V*%
X153898000Y-93346700D02*
X153222800Y-94021900D01*
X152178000Y-108392000D02*
X153153300Y-108392000D01*
X155269500Y-108354500D02*
X153190800Y-108354500D01*
X153190800Y-108354500D02*
X153153300Y-108392000D01*
X158562000Y-108354500D02*
X155269500Y-108354500D01*
X155815000Y-94230900D02*
X154930800Y-93346700D01*
X155269500Y-108354500D02*
X156000000Y-107624000D01*
X155815000Y-107439000D02*
X155815000Y-94230900D01*
X154930800Y-93346700D02*
X153898000Y-93346700D01*
X153222800Y-94021900D02*
X153004000Y-94021900D01*
X156000000Y-107624000D02*
X155815000Y-107439000D01*
D24*
%TO.N,+3V3*%
X159241400Y-82506200D02*
X157761300Y-81026100D01*
X154378100Y-94821900D02*
X154404000Y-94821900D01*
X151958000Y-104213300D02*
X151958000Y-101600000D01*
X152178000Y-105541900D02*
X151958000Y-105321900D01*
X153400000Y-98568000D02*
X151958000Y-100010000D01*
X145412000Y-96586000D02*
X145762000Y-96586000D01*
X151958000Y-105321900D02*
X151958000Y-104213300D01*
X157761300Y-81026100D02*
X140092800Y-81026100D01*
X152178000Y-106492000D02*
X152178000Y-106323000D01*
X147706000Y-102323900D02*
X147706000Y-101600000D01*
X145762000Y-96586000D02*
X145762000Y-95635900D01*
X151958000Y-104213300D02*
X149595400Y-104213300D01*
X153400000Y-95800000D02*
X153400000Y-98568000D01*
X152178000Y-106323000D02*
X152009000Y-106492000D01*
X145125100Y-99436000D02*
X144462000Y-99436000D01*
X159138100Y-86868000D02*
X159241400Y-86764700D01*
X144462000Y-99436000D02*
X144137300Y-99111300D01*
X149595400Y-104213300D02*
X147706000Y-102323900D01*
X144137300Y-97860700D02*
X145412000Y-96586000D01*
X157988000Y-86868000D02*
X159138100Y-86868000D01*
X140092800Y-81026100D02*
X136925000Y-84193900D01*
X143264800Y-92205200D02*
X145762000Y-92205200D01*
X153400000Y-95800000D02*
X154378100Y-94821900D01*
X159241400Y-86764700D02*
X159241400Y-82506200D01*
X151958000Y-100010000D02*
X151958000Y-101600000D01*
X145762000Y-92205200D02*
X147994800Y-92205200D01*
X147994800Y-92205200D02*
X149600000Y-90600000D01*
X145762000Y-92205200D02*
X145762000Y-95635900D01*
X152009000Y-106492000D02*
X147555000Y-106492000D01*
X152178000Y-106323000D02*
X152178000Y-105541900D01*
X142508800Y-91449200D02*
X143264800Y-92205200D01*
X144137300Y-99111300D02*
X144137300Y-97860700D01*
X147706000Y-101600000D02*
X147289100Y-101600000D01*
X147289100Y-101600000D02*
X145125100Y-99436000D01*
D25*
%TO.N,Net-(JP2-A)*%
X150405500Y-84935500D02*
X150405500Y-85056400D01*
X149502500Y-83312000D02*
X149835000Y-83312000D01*
X150405500Y-85056400D02*
X150830400Y-85481300D01*
X154333600Y-82251600D02*
X150895400Y-82251600D01*
X149835000Y-84365000D02*
X150405500Y-84935500D01*
X150895400Y-82251600D02*
X149835000Y-83312000D01*
X150951300Y-85481300D02*
X152338000Y-86868000D01*
X149835000Y-83312000D02*
X149835000Y-84365000D01*
X155539000Y-83457000D02*
X154333600Y-82251600D01*
X155539000Y-83868700D02*
X155539000Y-83457000D01*
X158275200Y-83245600D02*
X157224900Y-84295900D01*
X155966200Y-84295900D02*
X155539000Y-83868700D01*
X157224900Y-84295900D02*
X155966200Y-84295900D01*
X150830400Y-85481300D02*
X150951300Y-85481300D01*
%TO.N,Net-(JP3-A)*%
X157539300Y-88770000D02*
X156329900Y-87560600D01*
X157803100Y-89406900D02*
X157803100Y-89033700D01*
X157671200Y-89538800D02*
X157803100Y-89406900D01*
X156275400Y-87560600D02*
X156275400Y-86868000D01*
X155477700Y-85846100D02*
X153921000Y-84289400D01*
X155477800Y-85846100D02*
X155477700Y-85846100D01*
X156688000Y-86868000D02*
X156275400Y-86868000D01*
X157803100Y-89033700D02*
X157539400Y-88770000D01*
X156329900Y-87560600D02*
X156275400Y-87560600D01*
X155741500Y-86483000D02*
X155741500Y-86109800D01*
X153866500Y-84289400D02*
X153866500Y-83312000D01*
X155741500Y-86109800D02*
X155477800Y-85846100D01*
X155862700Y-86868000D02*
X155609600Y-86614900D01*
X157539400Y-88770000D02*
X157539300Y-88770000D01*
X158562000Y-90429600D02*
X157671200Y-89538800D01*
X153921000Y-84289400D02*
X153866500Y-84289400D01*
X155609600Y-86614900D02*
X155741500Y-86483000D01*
X158562000Y-106529500D02*
X158562000Y-90429600D01*
X156275400Y-86868000D02*
X155862700Y-86868000D01*
%TD*%
M02*
