%TF.GenerationSoftware,KiCad,Pcbnew,7.0.9*%
%TF.CreationDate,2024-04-09T01:08:52-04:00*%
%TF.ProjectId,WIRED_SHT40_revA3,57495245-445f-4534-9854-34305f726576,revA3*%
%TF.SameCoordinates,Original*%
%TF.FileFunction,Legend,Bot*%
%TF.FilePolarity,Positive*%
%FSLAX46Y46*%
G04 Gerber Fmt 4.6, Leading zero omitted, Abs format (unit mm)*
G04 Created by KiCad (PCBNEW 7.0.9) date 2024-04-09 01:08:52*
%MOMM*%
%LPD*%
G01*
G04 APERTURE LIST*
%ADD10C,0.150000*%
%ADD11C,3.500000*%
%ADD12R,1.700000X1.700000*%
%ADD13O,1.700000X1.700000*%
%ADD14C,3.200000*%
%ADD15R,1.500000X1.500000*%
%ADD16C,1.500000*%
G04 APERTURE END LIST*
D10*
X152071428Y-110160128D02*
X152071428Y-108660128D01*
X151428570Y-108802985D02*
X151357142Y-108731557D01*
X151357142Y-108731557D02*
X151214285Y-108660128D01*
X151214285Y-108660128D02*
X150857142Y-108660128D01*
X150857142Y-108660128D02*
X150714285Y-108731557D01*
X150714285Y-108731557D02*
X150642856Y-108802985D01*
X150642856Y-108802985D02*
X150571427Y-108945842D01*
X150571427Y-108945842D02*
X150571427Y-109088700D01*
X150571427Y-109088700D02*
X150642856Y-109302985D01*
X150642856Y-109302985D02*
X151499999Y-110160128D01*
X151499999Y-110160128D02*
X150571427Y-110160128D01*
X149071428Y-110017271D02*
X149142856Y-110088700D01*
X149142856Y-110088700D02*
X149357142Y-110160128D01*
X149357142Y-110160128D02*
X149499999Y-110160128D01*
X149499999Y-110160128D02*
X149714285Y-110088700D01*
X149714285Y-110088700D02*
X149857142Y-109945842D01*
X149857142Y-109945842D02*
X149928571Y-109802985D01*
X149928571Y-109802985D02*
X149999999Y-109517271D01*
X149999999Y-109517271D02*
X149999999Y-109302985D01*
X149999999Y-109302985D02*
X149928571Y-109017271D01*
X149928571Y-109017271D02*
X149857142Y-108874414D01*
X149857142Y-108874414D02*
X149714285Y-108731557D01*
X149714285Y-108731557D02*
X149499999Y-108660128D01*
X149499999Y-108660128D02*
X149357142Y-108660128D01*
X149357142Y-108660128D02*
X149142856Y-108731557D01*
X149142856Y-108731557D02*
X149071428Y-108802985D01*
X146642857Y-110160128D02*
X146642857Y-109374414D01*
X146642857Y-109374414D02*
X146714285Y-109231557D01*
X146714285Y-109231557D02*
X146857142Y-109160128D01*
X146857142Y-109160128D02*
X147142857Y-109160128D01*
X147142857Y-109160128D02*
X147285714Y-109231557D01*
X146642857Y-110088700D02*
X146785714Y-110160128D01*
X146785714Y-110160128D02*
X147142857Y-110160128D01*
X147142857Y-110160128D02*
X147285714Y-110088700D01*
X147285714Y-110088700D02*
X147357142Y-109945842D01*
X147357142Y-109945842D02*
X147357142Y-109802985D01*
X147357142Y-109802985D02*
X147285714Y-109660128D01*
X147285714Y-109660128D02*
X147142857Y-109588700D01*
X147142857Y-109588700D02*
X146785714Y-109588700D01*
X146785714Y-109588700D02*
X146642857Y-109517271D01*
X145285714Y-110160128D02*
X145285714Y-108660128D01*
X145285714Y-110088700D02*
X145428571Y-110160128D01*
X145428571Y-110160128D02*
X145714285Y-110160128D01*
X145714285Y-110160128D02*
X145857142Y-110088700D01*
X145857142Y-110088700D02*
X145928571Y-110017271D01*
X145928571Y-110017271D02*
X145999999Y-109874414D01*
X145999999Y-109874414D02*
X145999999Y-109445842D01*
X145999999Y-109445842D02*
X145928571Y-109302985D01*
X145928571Y-109302985D02*
X145857142Y-109231557D01*
X145857142Y-109231557D02*
X145714285Y-109160128D01*
X145714285Y-109160128D02*
X145428571Y-109160128D01*
X145428571Y-109160128D02*
X145285714Y-109231557D01*
X143928571Y-110160128D02*
X143928571Y-108660128D01*
X143928571Y-110088700D02*
X144071428Y-110160128D01*
X144071428Y-110160128D02*
X144357142Y-110160128D01*
X144357142Y-110160128D02*
X144499999Y-110088700D01*
X144499999Y-110088700D02*
X144571428Y-110017271D01*
X144571428Y-110017271D02*
X144642856Y-109874414D01*
X144642856Y-109874414D02*
X144642856Y-109445842D01*
X144642856Y-109445842D02*
X144571428Y-109302985D01*
X144571428Y-109302985D02*
X144499999Y-109231557D01*
X144499999Y-109231557D02*
X144357142Y-109160128D01*
X144357142Y-109160128D02*
X144071428Y-109160128D01*
X144071428Y-109160128D02*
X143928571Y-109231557D01*
X143214285Y-110160128D02*
X143214285Y-109160128D01*
X143214285Y-109445842D02*
X143142856Y-109302985D01*
X143142856Y-109302985D02*
X143071428Y-109231557D01*
X143071428Y-109231557D02*
X142928570Y-109160128D01*
X142928570Y-109160128D02*
X142785713Y-109160128D01*
X141714285Y-110088700D02*
X141857142Y-110160128D01*
X141857142Y-110160128D02*
X142142857Y-110160128D01*
X142142857Y-110160128D02*
X142285714Y-110088700D01*
X142285714Y-110088700D02*
X142357142Y-109945842D01*
X142357142Y-109945842D02*
X142357142Y-109374414D01*
X142357142Y-109374414D02*
X142285714Y-109231557D01*
X142285714Y-109231557D02*
X142142857Y-109160128D01*
X142142857Y-109160128D02*
X141857142Y-109160128D01*
X141857142Y-109160128D02*
X141714285Y-109231557D01*
X141714285Y-109231557D02*
X141642857Y-109374414D01*
X141642857Y-109374414D02*
X141642857Y-109517271D01*
X141642857Y-109517271D02*
X142357142Y-109660128D01*
X141071428Y-110088700D02*
X140928571Y-110160128D01*
X140928571Y-110160128D02*
X140642857Y-110160128D01*
X140642857Y-110160128D02*
X140500000Y-110088700D01*
X140500000Y-110088700D02*
X140428571Y-109945842D01*
X140428571Y-109945842D02*
X140428571Y-109874414D01*
X140428571Y-109874414D02*
X140500000Y-109731557D01*
X140500000Y-109731557D02*
X140642857Y-109660128D01*
X140642857Y-109660128D02*
X140857143Y-109660128D01*
X140857143Y-109660128D02*
X141000000Y-109588700D01*
X141000000Y-109588700D02*
X141071428Y-109445842D01*
X141071428Y-109445842D02*
X141071428Y-109374414D01*
X141071428Y-109374414D02*
X141000000Y-109231557D01*
X141000000Y-109231557D02*
X140857143Y-109160128D01*
X140857143Y-109160128D02*
X140642857Y-109160128D01*
X140642857Y-109160128D02*
X140500000Y-109231557D01*
X139857142Y-110088700D02*
X139714285Y-110160128D01*
X139714285Y-110160128D02*
X139428571Y-110160128D01*
X139428571Y-110160128D02*
X139285714Y-110088700D01*
X139285714Y-110088700D02*
X139214285Y-109945842D01*
X139214285Y-109945842D02*
X139214285Y-109874414D01*
X139214285Y-109874414D02*
X139285714Y-109731557D01*
X139285714Y-109731557D02*
X139428571Y-109660128D01*
X139428571Y-109660128D02*
X139642857Y-109660128D01*
X139642857Y-109660128D02*
X139785714Y-109588700D01*
X139785714Y-109588700D02*
X139857142Y-109445842D01*
X139857142Y-109445842D02*
X139857142Y-109374414D01*
X139857142Y-109374414D02*
X139785714Y-109231557D01*
X139785714Y-109231557D02*
X139642857Y-109160128D01*
X139642857Y-109160128D02*
X139428571Y-109160128D01*
X139428571Y-109160128D02*
X139285714Y-109231557D01*
X138571428Y-110017271D02*
X138499999Y-110088700D01*
X138499999Y-110088700D02*
X138571428Y-110160128D01*
X138571428Y-110160128D02*
X138642856Y-110088700D01*
X138642856Y-110088700D02*
X138571428Y-110017271D01*
X138571428Y-110017271D02*
X138571428Y-110160128D01*
X138571428Y-109231557D02*
X138499999Y-109302985D01*
X138499999Y-109302985D02*
X138571428Y-109374414D01*
X138571428Y-109374414D02*
X138642856Y-109302985D01*
X138642856Y-109302985D02*
X138571428Y-109231557D01*
X138571428Y-109231557D02*
X138571428Y-109374414D01*
X136428570Y-108660128D02*
X136285713Y-108660128D01*
X136285713Y-108660128D02*
X136142856Y-108731557D01*
X136142856Y-108731557D02*
X136071428Y-108802985D01*
X136071428Y-108802985D02*
X135999999Y-108945842D01*
X135999999Y-108945842D02*
X135928570Y-109231557D01*
X135928570Y-109231557D02*
X135928570Y-109588700D01*
X135928570Y-109588700D02*
X135999999Y-109874414D01*
X135999999Y-109874414D02*
X136071428Y-110017271D01*
X136071428Y-110017271D02*
X136142856Y-110088700D01*
X136142856Y-110088700D02*
X136285713Y-110160128D01*
X136285713Y-110160128D02*
X136428570Y-110160128D01*
X136428570Y-110160128D02*
X136571428Y-110088700D01*
X136571428Y-110088700D02*
X136642856Y-110017271D01*
X136642856Y-110017271D02*
X136714285Y-109874414D01*
X136714285Y-109874414D02*
X136785713Y-109588700D01*
X136785713Y-109588700D02*
X136785713Y-109231557D01*
X136785713Y-109231557D02*
X136714285Y-108945842D01*
X136714285Y-108945842D02*
X136642856Y-108802985D01*
X136642856Y-108802985D02*
X136571428Y-108731557D01*
X136571428Y-108731557D02*
X136428570Y-108660128D01*
X135428571Y-110160128D02*
X134642857Y-109160128D01*
X135428571Y-109160128D02*
X134642857Y-110160128D01*
X133428571Y-109160128D02*
X133428571Y-110160128D01*
X133785713Y-108588700D02*
X134142856Y-109660128D01*
X134142856Y-109660128D02*
X133214285Y-109660128D01*
X132000000Y-109160128D02*
X132000000Y-110160128D01*
X132357142Y-108588700D02*
X132714285Y-109660128D01*
X132714285Y-109660128D02*
X131785714Y-109660128D01*
X156714284Y-86535771D02*
X156857141Y-86464342D01*
X156857141Y-86464342D02*
X157142855Y-86464342D01*
X157142855Y-86464342D02*
X157285713Y-86535771D01*
X157285713Y-86535771D02*
X157428570Y-86678628D01*
X157428570Y-86678628D02*
X157499998Y-86821485D01*
X157499998Y-86821485D02*
X157499998Y-87107200D01*
X157499998Y-87107200D02*
X157428570Y-87250057D01*
X157428570Y-87250057D02*
X157285713Y-87392914D01*
X157285713Y-87392914D02*
X157142855Y-87464342D01*
X157142855Y-87464342D02*
X156857141Y-87464342D01*
X156857141Y-87464342D02*
X156714284Y-87392914D01*
X156999998Y-85964342D02*
X157357141Y-86035771D01*
X157357141Y-86035771D02*
X157714284Y-86250057D01*
X157714284Y-86250057D02*
X157928570Y-86607200D01*
X157928570Y-86607200D02*
X157999998Y-86964342D01*
X157999998Y-86964342D02*
X157928570Y-87321485D01*
X157928570Y-87321485D02*
X157714284Y-87678628D01*
X157714284Y-87678628D02*
X157357141Y-87892914D01*
X157357141Y-87892914D02*
X156999998Y-87964342D01*
X156999998Y-87964342D02*
X156642855Y-87892914D01*
X156642855Y-87892914D02*
X156285713Y-87678628D01*
X156285713Y-87678628D02*
X156071427Y-87321485D01*
X156071427Y-87321485D02*
X155999998Y-86964342D01*
X155999998Y-86964342D02*
X156071427Y-86607200D01*
X156071427Y-86607200D02*
X156285713Y-86250057D01*
X156285713Y-86250057D02*
X156642855Y-86035771D01*
X156642855Y-86035771D02*
X156999998Y-85964342D01*
X155428569Y-86321485D02*
X155357141Y-86250057D01*
X155357141Y-86250057D02*
X155214284Y-86178628D01*
X155214284Y-86178628D02*
X154857141Y-86178628D01*
X154857141Y-86178628D02*
X154714284Y-86250057D01*
X154714284Y-86250057D02*
X154642855Y-86321485D01*
X154642855Y-86321485D02*
X154571426Y-86464342D01*
X154571426Y-86464342D02*
X154571426Y-86607200D01*
X154571426Y-86607200D02*
X154642855Y-86821485D01*
X154642855Y-86821485D02*
X155499998Y-87678628D01*
X155499998Y-87678628D02*
X154571426Y-87678628D01*
X153642855Y-86178628D02*
X153499998Y-86178628D01*
X153499998Y-86178628D02*
X153357141Y-86250057D01*
X153357141Y-86250057D02*
X153285713Y-86321485D01*
X153285713Y-86321485D02*
X153214284Y-86464342D01*
X153214284Y-86464342D02*
X153142855Y-86750057D01*
X153142855Y-86750057D02*
X153142855Y-87107200D01*
X153142855Y-87107200D02*
X153214284Y-87392914D01*
X153214284Y-87392914D02*
X153285713Y-87535771D01*
X153285713Y-87535771D02*
X153357141Y-87607200D01*
X153357141Y-87607200D02*
X153499998Y-87678628D01*
X153499998Y-87678628D02*
X153642855Y-87678628D01*
X153642855Y-87678628D02*
X153785713Y-87607200D01*
X153785713Y-87607200D02*
X153857141Y-87535771D01*
X153857141Y-87535771D02*
X153928570Y-87392914D01*
X153928570Y-87392914D02*
X153999998Y-87107200D01*
X153999998Y-87107200D02*
X153999998Y-86750057D01*
X153999998Y-86750057D02*
X153928570Y-86464342D01*
X153928570Y-86464342D02*
X153857141Y-86321485D01*
X153857141Y-86321485D02*
X153785713Y-86250057D01*
X153785713Y-86250057D02*
X153642855Y-86178628D01*
X152571427Y-86321485D02*
X152499999Y-86250057D01*
X152499999Y-86250057D02*
X152357142Y-86178628D01*
X152357142Y-86178628D02*
X151999999Y-86178628D01*
X151999999Y-86178628D02*
X151857142Y-86250057D01*
X151857142Y-86250057D02*
X151785713Y-86321485D01*
X151785713Y-86321485D02*
X151714284Y-86464342D01*
X151714284Y-86464342D02*
X151714284Y-86607200D01*
X151714284Y-86607200D02*
X151785713Y-86821485D01*
X151785713Y-86821485D02*
X152642856Y-87678628D01*
X152642856Y-87678628D02*
X151714284Y-87678628D01*
X150428571Y-86678628D02*
X150428571Y-87678628D01*
X150785713Y-86107200D02*
X151142856Y-87178628D01*
X151142856Y-87178628D02*
X150214285Y-87178628D01*
X148071428Y-86178628D02*
X148071428Y-87250057D01*
X148071428Y-87250057D02*
X148142857Y-87464342D01*
X148142857Y-87464342D02*
X148285714Y-87607200D01*
X148285714Y-87607200D02*
X148500000Y-87678628D01*
X148500000Y-87678628D02*
X148642857Y-87678628D01*
X146785714Y-87607200D02*
X146928571Y-87678628D01*
X146928571Y-87678628D02*
X147214286Y-87678628D01*
X147214286Y-87678628D02*
X147357143Y-87607200D01*
X147357143Y-87607200D02*
X147428571Y-87464342D01*
X147428571Y-87464342D02*
X147428571Y-86892914D01*
X147428571Y-86892914D02*
X147357143Y-86750057D01*
X147357143Y-86750057D02*
X147214286Y-86678628D01*
X147214286Y-86678628D02*
X146928571Y-86678628D01*
X146928571Y-86678628D02*
X146785714Y-86750057D01*
X146785714Y-86750057D02*
X146714286Y-86892914D01*
X146714286Y-86892914D02*
X146714286Y-87035771D01*
X146714286Y-87035771D02*
X147428571Y-87178628D01*
X146071429Y-87678628D02*
X146071429Y-86678628D01*
X146071429Y-86964342D02*
X146000000Y-86821485D01*
X146000000Y-86821485D02*
X145928572Y-86750057D01*
X145928572Y-86750057D02*
X145785714Y-86678628D01*
X145785714Y-86678628D02*
X145642857Y-86678628D01*
X145142858Y-87678628D02*
X145142858Y-86678628D01*
X145142858Y-86178628D02*
X145214286Y-86250057D01*
X145214286Y-86250057D02*
X145142858Y-86321485D01*
X145142858Y-86321485D02*
X145071429Y-86250057D01*
X145071429Y-86250057D02*
X145142858Y-86178628D01*
X145142858Y-86178628D02*
X145142858Y-86321485D01*
X143785715Y-87607200D02*
X143928572Y-87678628D01*
X143928572Y-87678628D02*
X144214286Y-87678628D01*
X144214286Y-87678628D02*
X144357143Y-87607200D01*
X144357143Y-87607200D02*
X144428572Y-87535771D01*
X144428572Y-87535771D02*
X144500000Y-87392914D01*
X144500000Y-87392914D02*
X144500000Y-86964342D01*
X144500000Y-86964342D02*
X144428572Y-86821485D01*
X144428572Y-86821485D02*
X144357143Y-86750057D01*
X144357143Y-86750057D02*
X144214286Y-86678628D01*
X144214286Y-86678628D02*
X143928572Y-86678628D01*
X143928572Y-86678628D02*
X143785715Y-86750057D01*
X143142858Y-87678628D02*
X143142858Y-86178628D01*
X142500001Y-87678628D02*
X142500001Y-86892914D01*
X142500001Y-86892914D02*
X142571429Y-86750057D01*
X142571429Y-86750057D02*
X142714286Y-86678628D01*
X142714286Y-86678628D02*
X142928572Y-86678628D01*
X142928572Y-86678628D02*
X143071429Y-86750057D01*
X143071429Y-86750057D02*
X143142858Y-86821485D01*
X141571429Y-87678628D02*
X141714286Y-87607200D01*
X141714286Y-87607200D02*
X141785715Y-87535771D01*
X141785715Y-87535771D02*
X141857143Y-87392914D01*
X141857143Y-87392914D02*
X141857143Y-86964342D01*
X141857143Y-86964342D02*
X141785715Y-86821485D01*
X141785715Y-86821485D02*
X141714286Y-86750057D01*
X141714286Y-86750057D02*
X141571429Y-86678628D01*
X141571429Y-86678628D02*
X141357143Y-86678628D01*
X141357143Y-86678628D02*
X141214286Y-86750057D01*
X141214286Y-86750057D02*
X141142858Y-86821485D01*
X141142858Y-86821485D02*
X141071429Y-86964342D01*
X141071429Y-86964342D02*
X141071429Y-87392914D01*
X141071429Y-87392914D02*
X141142858Y-87535771D01*
X141142858Y-87535771D02*
X141214286Y-87607200D01*
X141214286Y-87607200D02*
X141357143Y-87678628D01*
X141357143Y-87678628D02*
X141571429Y-87678628D01*
X138571429Y-87678628D02*
X139285715Y-87678628D01*
X139285715Y-87678628D02*
X139285715Y-86178628D01*
X137428572Y-87678628D02*
X137428572Y-86892914D01*
X137428572Y-86892914D02*
X137500000Y-86750057D01*
X137500000Y-86750057D02*
X137642857Y-86678628D01*
X137642857Y-86678628D02*
X137928572Y-86678628D01*
X137928572Y-86678628D02*
X138071429Y-86750057D01*
X137428572Y-87607200D02*
X137571429Y-87678628D01*
X137571429Y-87678628D02*
X137928572Y-87678628D01*
X137928572Y-87678628D02*
X138071429Y-87607200D01*
X138071429Y-87607200D02*
X138142857Y-87464342D01*
X138142857Y-87464342D02*
X138142857Y-87321485D01*
X138142857Y-87321485D02*
X138071429Y-87178628D01*
X138071429Y-87178628D02*
X137928572Y-87107200D01*
X137928572Y-87107200D02*
X137571429Y-87107200D01*
X137571429Y-87107200D02*
X137428572Y-87035771D01*
X136714286Y-87678628D02*
X136714286Y-86178628D01*
X136714286Y-86750057D02*
X136571429Y-86678628D01*
X136571429Y-86678628D02*
X136285714Y-86678628D01*
X136285714Y-86678628D02*
X136142857Y-86750057D01*
X136142857Y-86750057D02*
X136071429Y-86821485D01*
X136071429Y-86821485D02*
X136000000Y-86964342D01*
X136000000Y-86964342D02*
X136000000Y-87392914D01*
X136000000Y-87392914D02*
X136071429Y-87535771D01*
X136071429Y-87535771D02*
X136142857Y-87607200D01*
X136142857Y-87607200D02*
X136285714Y-87678628D01*
X136285714Y-87678628D02*
X136571429Y-87678628D01*
X136571429Y-87678628D02*
X136714286Y-87607200D01*
X157285713Y-89950771D02*
X157357141Y-90022200D01*
X157357141Y-90022200D02*
X157571427Y-90093628D01*
X157571427Y-90093628D02*
X157714284Y-90093628D01*
X157714284Y-90093628D02*
X157928570Y-90022200D01*
X157928570Y-90022200D02*
X158071427Y-89879342D01*
X158071427Y-89879342D02*
X158142856Y-89736485D01*
X158142856Y-89736485D02*
X158214284Y-89450771D01*
X158214284Y-89450771D02*
X158214284Y-89236485D01*
X158214284Y-89236485D02*
X158142856Y-88950771D01*
X158142856Y-88950771D02*
X158071427Y-88807914D01*
X158071427Y-88807914D02*
X157928570Y-88665057D01*
X157928570Y-88665057D02*
X157714284Y-88593628D01*
X157714284Y-88593628D02*
X157571427Y-88593628D01*
X157571427Y-88593628D02*
X157357141Y-88665057D01*
X157357141Y-88665057D02*
X157285713Y-88736485D01*
X155785713Y-89950771D02*
X155857141Y-90022200D01*
X155857141Y-90022200D02*
X156071427Y-90093628D01*
X156071427Y-90093628D02*
X156214284Y-90093628D01*
X156214284Y-90093628D02*
X156428570Y-90022200D01*
X156428570Y-90022200D02*
X156571427Y-89879342D01*
X156571427Y-89879342D02*
X156642856Y-89736485D01*
X156642856Y-89736485D02*
X156714284Y-89450771D01*
X156714284Y-89450771D02*
X156714284Y-89236485D01*
X156714284Y-89236485D02*
X156642856Y-88950771D01*
X156642856Y-88950771D02*
X156571427Y-88807914D01*
X156571427Y-88807914D02*
X156428570Y-88665057D01*
X156428570Y-88665057D02*
X156214284Y-88593628D01*
X156214284Y-88593628D02*
X156071427Y-88593628D01*
X156071427Y-88593628D02*
X155857141Y-88665057D01*
X155857141Y-88665057D02*
X155785713Y-88736485D01*
X155142856Y-89522200D02*
X153999999Y-89522200D01*
X152785713Y-89307914D02*
X152571427Y-89379342D01*
X152571427Y-89379342D02*
X152499998Y-89450771D01*
X152499998Y-89450771D02*
X152428570Y-89593628D01*
X152428570Y-89593628D02*
X152428570Y-89807914D01*
X152428570Y-89807914D02*
X152499998Y-89950771D01*
X152499998Y-89950771D02*
X152571427Y-90022200D01*
X152571427Y-90022200D02*
X152714284Y-90093628D01*
X152714284Y-90093628D02*
X153285713Y-90093628D01*
X153285713Y-90093628D02*
X153285713Y-88593628D01*
X153285713Y-88593628D02*
X152785713Y-88593628D01*
X152785713Y-88593628D02*
X152642856Y-88665057D01*
X152642856Y-88665057D02*
X152571427Y-88736485D01*
X152571427Y-88736485D02*
X152499998Y-88879342D01*
X152499998Y-88879342D02*
X152499998Y-89022200D01*
X152499998Y-89022200D02*
X152571427Y-89165057D01*
X152571427Y-89165057D02*
X152642856Y-89236485D01*
X152642856Y-89236485D02*
X152785713Y-89307914D01*
X152785713Y-89307914D02*
X153285713Y-89307914D01*
X151499998Y-89379342D02*
X151499998Y-90093628D01*
X151999998Y-88593628D02*
X151499998Y-89379342D01*
X151499998Y-89379342D02*
X150999998Y-88593628D01*
X150499999Y-89522200D02*
X149357142Y-89522200D01*
X148714284Y-90022200D02*
X148499999Y-90093628D01*
X148499999Y-90093628D02*
X148142856Y-90093628D01*
X148142856Y-90093628D02*
X147999999Y-90022200D01*
X147999999Y-90022200D02*
X147928570Y-89950771D01*
X147928570Y-89950771D02*
X147857141Y-89807914D01*
X147857141Y-89807914D02*
X147857141Y-89665057D01*
X147857141Y-89665057D02*
X147928570Y-89522200D01*
X147928570Y-89522200D02*
X147999999Y-89450771D01*
X147999999Y-89450771D02*
X148142856Y-89379342D01*
X148142856Y-89379342D02*
X148428570Y-89307914D01*
X148428570Y-89307914D02*
X148571427Y-89236485D01*
X148571427Y-89236485D02*
X148642856Y-89165057D01*
X148642856Y-89165057D02*
X148714284Y-89022200D01*
X148714284Y-89022200D02*
X148714284Y-88879342D01*
X148714284Y-88879342D02*
X148642856Y-88736485D01*
X148642856Y-88736485D02*
X148571427Y-88665057D01*
X148571427Y-88665057D02*
X148428570Y-88593628D01*
X148428570Y-88593628D02*
X148071427Y-88593628D01*
X148071427Y-88593628D02*
X147857141Y-88665057D01*
X147285713Y-89665057D02*
X146571428Y-89665057D01*
X147428570Y-90093628D02*
X146928570Y-88593628D01*
X146928570Y-88593628D02*
X146428570Y-90093628D01*
X144785714Y-89522200D02*
X143642857Y-89522200D01*
X140928571Y-90093628D02*
X141428571Y-89379342D01*
X141785714Y-90093628D02*
X141785714Y-88593628D01*
X141785714Y-88593628D02*
X141214285Y-88593628D01*
X141214285Y-88593628D02*
X141071428Y-88665057D01*
X141071428Y-88665057D02*
X140999999Y-88736485D01*
X140999999Y-88736485D02*
X140928571Y-88879342D01*
X140928571Y-88879342D02*
X140928571Y-89093628D01*
X140928571Y-89093628D02*
X140999999Y-89236485D01*
X140999999Y-89236485D02*
X141071428Y-89307914D01*
X141071428Y-89307914D02*
X141214285Y-89379342D01*
X141214285Y-89379342D02*
X141785714Y-89379342D01*
X139714285Y-90022200D02*
X139857142Y-90093628D01*
X139857142Y-90093628D02*
X140142857Y-90093628D01*
X140142857Y-90093628D02*
X140285714Y-90022200D01*
X140285714Y-90022200D02*
X140357142Y-89879342D01*
X140357142Y-89879342D02*
X140357142Y-89307914D01*
X140357142Y-89307914D02*
X140285714Y-89165057D01*
X140285714Y-89165057D02*
X140142857Y-89093628D01*
X140142857Y-89093628D02*
X139857142Y-89093628D01*
X139857142Y-89093628D02*
X139714285Y-89165057D01*
X139714285Y-89165057D02*
X139642857Y-89307914D01*
X139642857Y-89307914D02*
X139642857Y-89450771D01*
X139642857Y-89450771D02*
X140357142Y-89593628D01*
X139142857Y-89093628D02*
X138785714Y-90093628D01*
X138785714Y-90093628D02*
X138428571Y-89093628D01*
X137928571Y-89665057D02*
X137214286Y-89665057D01*
X138071428Y-90093628D02*
X137571428Y-88593628D01*
X137571428Y-88593628D02*
X137071428Y-90093628D01*
X136714286Y-88593628D02*
X135785714Y-88593628D01*
X135785714Y-88593628D02*
X136285714Y-89165057D01*
X136285714Y-89165057D02*
X136071429Y-89165057D01*
X136071429Y-89165057D02*
X135928572Y-89236485D01*
X135928572Y-89236485D02*
X135857143Y-89307914D01*
X135857143Y-89307914D02*
X135785714Y-89450771D01*
X135785714Y-89450771D02*
X135785714Y-89807914D01*
X135785714Y-89807914D02*
X135857143Y-89950771D01*
X135857143Y-89950771D02*
X135928572Y-90022200D01*
X135928572Y-90022200D02*
X136071429Y-90093628D01*
X136071429Y-90093628D02*
X136500000Y-90093628D01*
X136500000Y-90093628D02*
X136642857Y-90022200D01*
X136642857Y-90022200D02*
X136714286Y-89950771D01*
X159730839Y-84658200D02*
X159587982Y-84705819D01*
X159587982Y-84705819D02*
X159349887Y-84705819D01*
X159349887Y-84705819D02*
X159254649Y-84658200D01*
X159254649Y-84658200D02*
X159207030Y-84610580D01*
X159207030Y-84610580D02*
X159159411Y-84515342D01*
X159159411Y-84515342D02*
X159159411Y-84420104D01*
X159159411Y-84420104D02*
X159207030Y-84324866D01*
X159207030Y-84324866D02*
X159254649Y-84277247D01*
X159254649Y-84277247D02*
X159349887Y-84229628D01*
X159349887Y-84229628D02*
X159540363Y-84182009D01*
X159540363Y-84182009D02*
X159635601Y-84134390D01*
X159635601Y-84134390D02*
X159683220Y-84086771D01*
X159683220Y-84086771D02*
X159730839Y-83991533D01*
X159730839Y-83991533D02*
X159730839Y-83896295D01*
X159730839Y-83896295D02*
X159683220Y-83801057D01*
X159683220Y-83801057D02*
X159635601Y-83753438D01*
X159635601Y-83753438D02*
X159540363Y-83705819D01*
X159540363Y-83705819D02*
X159302268Y-83705819D01*
X159302268Y-83705819D02*
X159159411Y-83753438D01*
X158730839Y-84705819D02*
X158730839Y-83705819D01*
X158730839Y-84182009D02*
X158159411Y-84182009D01*
X158159411Y-84705819D02*
X158159411Y-83705819D01*
X157826077Y-83705819D02*
X157254649Y-83705819D01*
X157540363Y-84705819D02*
X157540363Y-83705819D01*
X156492744Y-84039152D02*
X156492744Y-84705819D01*
X156730839Y-83658200D02*
X156968934Y-84372485D01*
X156968934Y-84372485D02*
X156349887Y-84372485D01*
X155445125Y-84705819D02*
X156016553Y-84705819D01*
X155730839Y-84705819D02*
X155730839Y-83705819D01*
X155730839Y-83705819D02*
X155826077Y-83848676D01*
X155826077Y-83848676D02*
X155921315Y-83943914D01*
X155921315Y-83943914D02*
X156016553Y-83991533D01*
X155016553Y-84705819D02*
X155016553Y-83705819D01*
X154540363Y-84324866D02*
X153778459Y-84324866D01*
X153349887Y-84420104D02*
X152873697Y-84420104D01*
X153445125Y-84705819D02*
X153111792Y-83705819D01*
X153111792Y-83705819D02*
X152778459Y-84705819D01*
X152445125Y-84705819D02*
X152445125Y-83705819D01*
X152445125Y-83705819D02*
X152207030Y-83705819D01*
X152207030Y-83705819D02*
X152064173Y-83753438D01*
X152064173Y-83753438D02*
X151968935Y-83848676D01*
X151968935Y-83848676D02*
X151921316Y-83943914D01*
X151921316Y-83943914D02*
X151873697Y-84134390D01*
X151873697Y-84134390D02*
X151873697Y-84277247D01*
X151873697Y-84277247D02*
X151921316Y-84467723D01*
X151921316Y-84467723D02*
X151968935Y-84562961D01*
X151968935Y-84562961D02*
X152064173Y-84658200D01*
X152064173Y-84658200D02*
X152207030Y-84705819D01*
X152207030Y-84705819D02*
X152445125Y-84705819D01*
X150921316Y-84705819D02*
X151492744Y-84705819D01*
X151207030Y-84705819D02*
X151207030Y-83705819D01*
X151207030Y-83705819D02*
X151302268Y-83848676D01*
X151302268Y-83848676D02*
X151397506Y-83943914D01*
X151397506Y-83943914D02*
X151492744Y-83991533D01*
X150159411Y-84182009D02*
X150016554Y-84229628D01*
X150016554Y-84229628D02*
X149968935Y-84277247D01*
X149968935Y-84277247D02*
X149921316Y-84372485D01*
X149921316Y-84372485D02*
X149921316Y-84515342D01*
X149921316Y-84515342D02*
X149968935Y-84610580D01*
X149968935Y-84610580D02*
X150016554Y-84658200D01*
X150016554Y-84658200D02*
X150111792Y-84705819D01*
X150111792Y-84705819D02*
X150492744Y-84705819D01*
X150492744Y-84705819D02*
X150492744Y-83705819D01*
X150492744Y-83705819D02*
X150159411Y-83705819D01*
X150159411Y-83705819D02*
X150064173Y-83753438D01*
X150064173Y-83753438D02*
X150016554Y-83801057D01*
X150016554Y-83801057D02*
X149968935Y-83896295D01*
X149968935Y-83896295D02*
X149968935Y-83991533D01*
X149968935Y-83991533D02*
X150016554Y-84086771D01*
X150016554Y-84086771D02*
X150064173Y-84134390D01*
X150064173Y-84134390D02*
X150159411Y-84182009D01*
X150159411Y-84182009D02*
X150492744Y-84182009D01*
X149492744Y-84324866D02*
X148730840Y-84324866D01*
X147683221Y-84705819D02*
X148016554Y-84229628D01*
X148254649Y-84705819D02*
X148254649Y-83705819D01*
X148254649Y-83705819D02*
X147873697Y-83705819D01*
X147873697Y-83705819D02*
X147778459Y-83753438D01*
X147778459Y-83753438D02*
X147730840Y-83801057D01*
X147730840Y-83801057D02*
X147683221Y-83896295D01*
X147683221Y-83896295D02*
X147683221Y-84039152D01*
X147683221Y-84039152D02*
X147730840Y-84134390D01*
X147730840Y-84134390D02*
X147778459Y-84182009D01*
X147778459Y-84182009D02*
X147873697Y-84229628D01*
X147873697Y-84229628D02*
X148254649Y-84229628D01*
X147302268Y-83801057D02*
X147254649Y-83753438D01*
X147254649Y-83753438D02*
X147159411Y-83705819D01*
X147159411Y-83705819D02*
X146921316Y-83705819D01*
X146921316Y-83705819D02*
X146826078Y-83753438D01*
X146826078Y-83753438D02*
X146778459Y-83801057D01*
X146778459Y-83801057D02*
X146730840Y-83896295D01*
X146730840Y-83896295D02*
X146730840Y-83991533D01*
X146730840Y-83991533D02*
X146778459Y-84134390D01*
X146778459Y-84134390D02*
X147349887Y-84705819D01*
X147349887Y-84705819D02*
X146730840Y-84705819D01*
X159935714Y-82686128D02*
X159935714Y-81186128D01*
X159935714Y-81900414D02*
X159078571Y-81900414D01*
X159078571Y-82686128D02*
X159078571Y-81186128D01*
X157721428Y-81686128D02*
X157721428Y-82686128D01*
X158364285Y-81686128D02*
X158364285Y-82471842D01*
X158364285Y-82471842D02*
X158292856Y-82614700D01*
X158292856Y-82614700D02*
X158149999Y-82686128D01*
X158149999Y-82686128D02*
X157935713Y-82686128D01*
X157935713Y-82686128D02*
X157792856Y-82614700D01*
X157792856Y-82614700D02*
X157721428Y-82543271D01*
X157007142Y-82686128D02*
X157007142Y-81686128D01*
X157007142Y-81828985D02*
X156935713Y-81757557D01*
X156935713Y-81757557D02*
X156792856Y-81686128D01*
X156792856Y-81686128D02*
X156578570Y-81686128D01*
X156578570Y-81686128D02*
X156435713Y-81757557D01*
X156435713Y-81757557D02*
X156364285Y-81900414D01*
X156364285Y-81900414D02*
X156364285Y-82686128D01*
X156364285Y-81900414D02*
X156292856Y-81757557D01*
X156292856Y-81757557D02*
X156149999Y-81686128D01*
X156149999Y-81686128D02*
X155935713Y-81686128D01*
X155935713Y-81686128D02*
X155792856Y-81757557D01*
X155792856Y-81757557D02*
X155721427Y-81900414D01*
X155721427Y-81900414D02*
X155721427Y-82686128D01*
X155007142Y-82686128D02*
X155007142Y-81686128D01*
X155007142Y-81186128D02*
X155078570Y-81257557D01*
X155078570Y-81257557D02*
X155007142Y-81328985D01*
X155007142Y-81328985D02*
X154935713Y-81257557D01*
X154935713Y-81257557D02*
X155007142Y-81186128D01*
X155007142Y-81186128D02*
X155007142Y-81328985D01*
X153649999Y-82686128D02*
X153649999Y-81186128D01*
X153649999Y-82614700D02*
X153792856Y-82686128D01*
X153792856Y-82686128D02*
X154078570Y-82686128D01*
X154078570Y-82686128D02*
X154221427Y-82614700D01*
X154221427Y-82614700D02*
X154292856Y-82543271D01*
X154292856Y-82543271D02*
X154364284Y-82400414D01*
X154364284Y-82400414D02*
X154364284Y-81971842D01*
X154364284Y-81971842D02*
X154292856Y-81828985D01*
X154292856Y-81828985D02*
X154221427Y-81757557D01*
X154221427Y-81757557D02*
X154078570Y-81686128D01*
X154078570Y-81686128D02*
X153792856Y-81686128D01*
X153792856Y-81686128D02*
X153649999Y-81757557D01*
X152935713Y-82686128D02*
X152935713Y-81686128D01*
X152935713Y-81186128D02*
X153007141Y-81257557D01*
X153007141Y-81257557D02*
X152935713Y-81328985D01*
X152935713Y-81328985D02*
X152864284Y-81257557D01*
X152864284Y-81257557D02*
X152935713Y-81186128D01*
X152935713Y-81186128D02*
X152935713Y-81328985D01*
X152435712Y-81686128D02*
X151864284Y-81686128D01*
X152221427Y-81186128D02*
X152221427Y-82471842D01*
X152221427Y-82471842D02*
X152149998Y-82614700D01*
X152149998Y-82614700D02*
X152007141Y-82686128D01*
X152007141Y-82686128D02*
X151864284Y-82686128D01*
X151507141Y-81686128D02*
X151149998Y-82686128D01*
X150792855Y-81686128D02*
X151149998Y-82686128D01*
X151149998Y-82686128D02*
X151292855Y-83043271D01*
X151292855Y-83043271D02*
X151364284Y-83114700D01*
X151364284Y-83114700D02*
X151507141Y-83186128D01*
X147864284Y-82686128D02*
X147935713Y-82686128D01*
X147935713Y-82686128D02*
X148078570Y-82614700D01*
X148078570Y-82614700D02*
X148292855Y-82400414D01*
X148292855Y-82400414D02*
X148649998Y-81971842D01*
X148649998Y-81971842D02*
X148792855Y-81757557D01*
X148792855Y-81757557D02*
X148864284Y-81543271D01*
X148864284Y-81543271D02*
X148864284Y-81400414D01*
X148864284Y-81400414D02*
X148792855Y-81257557D01*
X148792855Y-81257557D02*
X148649998Y-81186128D01*
X148649998Y-81186128D02*
X148578570Y-81186128D01*
X148578570Y-81186128D02*
X148435713Y-81257557D01*
X148435713Y-81257557D02*
X148364284Y-81400414D01*
X148364284Y-81400414D02*
X148364284Y-81471842D01*
X148364284Y-81471842D02*
X148435713Y-81614700D01*
X148435713Y-81614700D02*
X148507141Y-81686128D01*
X148507141Y-81686128D02*
X148935713Y-81971842D01*
X148935713Y-81971842D02*
X149007141Y-82043271D01*
X149007141Y-82043271D02*
X149078570Y-82186128D01*
X149078570Y-82186128D02*
X149078570Y-82400414D01*
X149078570Y-82400414D02*
X149007141Y-82543271D01*
X149007141Y-82543271D02*
X148935713Y-82614700D01*
X148935713Y-82614700D02*
X148792855Y-82686128D01*
X148792855Y-82686128D02*
X148578570Y-82686128D01*
X148578570Y-82686128D02*
X148435713Y-82614700D01*
X148435713Y-82614700D02*
X148364284Y-82543271D01*
X148364284Y-82543271D02*
X148149998Y-82257557D01*
X148149998Y-82257557D02*
X148078570Y-82043271D01*
X148078570Y-82043271D02*
X148078570Y-81900414D01*
X146292855Y-81186128D02*
X145435713Y-81186128D01*
X145864284Y-82686128D02*
X145864284Y-81186128D01*
X144364284Y-82614700D02*
X144507141Y-82686128D01*
X144507141Y-82686128D02*
X144792856Y-82686128D01*
X144792856Y-82686128D02*
X144935713Y-82614700D01*
X144935713Y-82614700D02*
X145007141Y-82471842D01*
X145007141Y-82471842D02*
X145007141Y-81900414D01*
X145007141Y-81900414D02*
X144935713Y-81757557D01*
X144935713Y-81757557D02*
X144792856Y-81686128D01*
X144792856Y-81686128D02*
X144507141Y-81686128D01*
X144507141Y-81686128D02*
X144364284Y-81757557D01*
X144364284Y-81757557D02*
X144292856Y-81900414D01*
X144292856Y-81900414D02*
X144292856Y-82043271D01*
X144292856Y-82043271D02*
X145007141Y-82186128D01*
X143649999Y-82686128D02*
X143649999Y-81686128D01*
X143649999Y-81828985D02*
X143578570Y-81757557D01*
X143578570Y-81757557D02*
X143435713Y-81686128D01*
X143435713Y-81686128D02*
X143221427Y-81686128D01*
X143221427Y-81686128D02*
X143078570Y-81757557D01*
X143078570Y-81757557D02*
X143007142Y-81900414D01*
X143007142Y-81900414D02*
X143007142Y-82686128D01*
X143007142Y-81900414D02*
X142935713Y-81757557D01*
X142935713Y-81757557D02*
X142792856Y-81686128D01*
X142792856Y-81686128D02*
X142578570Y-81686128D01*
X142578570Y-81686128D02*
X142435713Y-81757557D01*
X142435713Y-81757557D02*
X142364284Y-81900414D01*
X142364284Y-81900414D02*
X142364284Y-82686128D01*
X141649999Y-81686128D02*
X141649999Y-83186128D01*
X141649999Y-81757557D02*
X141507142Y-81686128D01*
X141507142Y-81686128D02*
X141221427Y-81686128D01*
X141221427Y-81686128D02*
X141078570Y-81757557D01*
X141078570Y-81757557D02*
X141007142Y-81828985D01*
X141007142Y-81828985D02*
X140935713Y-81971842D01*
X140935713Y-81971842D02*
X140935713Y-82400414D01*
X140935713Y-82400414D02*
X141007142Y-82543271D01*
X141007142Y-82543271D02*
X141078570Y-82614700D01*
X141078570Y-82614700D02*
X141221427Y-82686128D01*
X141221427Y-82686128D02*
X141507142Y-82686128D01*
X141507142Y-82686128D02*
X141649999Y-82614700D01*
X139221427Y-82614700D02*
X139007142Y-82686128D01*
X139007142Y-82686128D02*
X138649999Y-82686128D01*
X138649999Y-82686128D02*
X138507142Y-82614700D01*
X138507142Y-82614700D02*
X138435713Y-82543271D01*
X138435713Y-82543271D02*
X138364284Y-82400414D01*
X138364284Y-82400414D02*
X138364284Y-82257557D01*
X138364284Y-82257557D02*
X138435713Y-82114700D01*
X138435713Y-82114700D02*
X138507142Y-82043271D01*
X138507142Y-82043271D02*
X138649999Y-81971842D01*
X138649999Y-81971842D02*
X138935713Y-81900414D01*
X138935713Y-81900414D02*
X139078570Y-81828985D01*
X139078570Y-81828985D02*
X139149999Y-81757557D01*
X139149999Y-81757557D02*
X139221427Y-81614700D01*
X139221427Y-81614700D02*
X139221427Y-81471842D01*
X139221427Y-81471842D02*
X139149999Y-81328985D01*
X139149999Y-81328985D02*
X139078570Y-81257557D01*
X139078570Y-81257557D02*
X138935713Y-81186128D01*
X138935713Y-81186128D02*
X138578570Y-81186128D01*
X138578570Y-81186128D02*
X138364284Y-81257557D01*
X137721428Y-82686128D02*
X137721428Y-81186128D01*
X137721428Y-81900414D02*
X136864285Y-81900414D01*
X136864285Y-82686128D02*
X136864285Y-81186128D01*
X136364284Y-81186128D02*
X135507142Y-81186128D01*
X135935713Y-82686128D02*
X135935713Y-81186128D01*
X134364285Y-81686128D02*
X134364285Y-82686128D01*
X134721427Y-81114700D02*
X135078570Y-82186128D01*
X135078570Y-82186128D02*
X134149999Y-82186128D01*
X133721428Y-81186128D02*
X132721428Y-82686128D01*
X132721428Y-81186128D02*
X133721428Y-82686128D01*
X149073332Y-103832819D02*
X149073332Y-102832819D01*
X149073332Y-102832819D02*
X148739999Y-103547104D01*
X148739999Y-103547104D02*
X148406666Y-102832819D01*
X148406666Y-102832819D02*
X148406666Y-103832819D01*
X148025713Y-102832819D02*
X147406666Y-102832819D01*
X147406666Y-102832819D02*
X147739999Y-103213771D01*
X147739999Y-103213771D02*
X147597142Y-103213771D01*
X147597142Y-103213771D02*
X147501904Y-103261390D01*
X147501904Y-103261390D02*
X147454285Y-103309009D01*
X147454285Y-103309009D02*
X147406666Y-103404247D01*
X147406666Y-103404247D02*
X147406666Y-103642342D01*
X147406666Y-103642342D02*
X147454285Y-103737580D01*
X147454285Y-103737580D02*
X147501904Y-103785200D01*
X147501904Y-103785200D02*
X147597142Y-103832819D01*
X147597142Y-103832819D02*
X147882856Y-103832819D01*
X147882856Y-103832819D02*
X147978094Y-103785200D01*
X147978094Y-103785200D02*
X148025713Y-103737580D01*
X146978094Y-103737580D02*
X146930475Y-103785200D01*
X146930475Y-103785200D02*
X146978094Y-103832819D01*
X146978094Y-103832819D02*
X147025713Y-103785200D01*
X147025713Y-103785200D02*
X146978094Y-103737580D01*
X146978094Y-103737580D02*
X146978094Y-103832819D01*
X146978094Y-103213771D02*
X146930475Y-103261390D01*
X146930475Y-103261390D02*
X146978094Y-103309009D01*
X146978094Y-103309009D02*
X147025713Y-103261390D01*
X147025713Y-103261390D02*
X146978094Y-103213771D01*
X146978094Y-103213771D02*
X146978094Y-103309009D01*
X145835237Y-102832819D02*
X145216190Y-102832819D01*
X145216190Y-102832819D02*
X145549523Y-103213771D01*
X145549523Y-103213771D02*
X145406666Y-103213771D01*
X145406666Y-103213771D02*
X145311428Y-103261390D01*
X145311428Y-103261390D02*
X145263809Y-103309009D01*
X145263809Y-103309009D02*
X145216190Y-103404247D01*
X145216190Y-103404247D02*
X145216190Y-103642342D01*
X145216190Y-103642342D02*
X145263809Y-103737580D01*
X145263809Y-103737580D02*
X145311428Y-103785200D01*
X145311428Y-103785200D02*
X145406666Y-103832819D01*
X145406666Y-103832819D02*
X145692380Y-103832819D01*
X145692380Y-103832819D02*
X145787618Y-103785200D01*
X145787618Y-103785200D02*
X145835237Y-103737580D01*
X144311428Y-102832819D02*
X144787618Y-102832819D01*
X144787618Y-102832819D02*
X144835237Y-103309009D01*
X144835237Y-103309009D02*
X144787618Y-103261390D01*
X144787618Y-103261390D02*
X144692380Y-103213771D01*
X144692380Y-103213771D02*
X144454285Y-103213771D01*
X144454285Y-103213771D02*
X144359047Y-103261390D01*
X144359047Y-103261390D02*
X144311428Y-103309009D01*
X144311428Y-103309009D02*
X144263809Y-103404247D01*
X144263809Y-103404247D02*
X144263809Y-103642342D01*
X144263809Y-103642342D02*
X144311428Y-103737580D01*
X144311428Y-103737580D02*
X144359047Y-103785200D01*
X144359047Y-103785200D02*
X144454285Y-103832819D01*
X144454285Y-103832819D02*
X144692380Y-103832819D01*
X144692380Y-103832819D02*
X144787618Y-103785200D01*
X144787618Y-103785200D02*
X144835237Y-103737580D01*
X143168570Y-103832819D02*
X142644761Y-103166152D01*
X143168570Y-103166152D02*
X142644761Y-103832819D01*
X141549522Y-102928057D02*
X141501903Y-102880438D01*
X141501903Y-102880438D02*
X141406665Y-102832819D01*
X141406665Y-102832819D02*
X141168570Y-102832819D01*
X141168570Y-102832819D02*
X141073332Y-102880438D01*
X141073332Y-102880438D02*
X141025713Y-102928057D01*
X141025713Y-102928057D02*
X140978094Y-103023295D01*
X140978094Y-103023295D02*
X140978094Y-103118533D01*
X140978094Y-103118533D02*
X141025713Y-103261390D01*
X141025713Y-103261390D02*
X141597141Y-103832819D01*
X141597141Y-103832819D02*
X140978094Y-103832819D01*
X140073332Y-102832819D02*
X140549522Y-102832819D01*
X140549522Y-102832819D02*
X140597141Y-103309009D01*
X140597141Y-103309009D02*
X140549522Y-103261390D01*
X140549522Y-103261390D02*
X140454284Y-103213771D01*
X140454284Y-103213771D02*
X140216189Y-103213771D01*
X140216189Y-103213771D02*
X140120951Y-103261390D01*
X140120951Y-103261390D02*
X140073332Y-103309009D01*
X140073332Y-103309009D02*
X140025713Y-103404247D01*
X140025713Y-103404247D02*
X140025713Y-103642342D01*
X140025713Y-103642342D02*
X140073332Y-103737580D01*
X140073332Y-103737580D02*
X140120951Y-103785200D01*
X140120951Y-103785200D02*
X140216189Y-103832819D01*
X140216189Y-103832819D02*
X140454284Y-103832819D01*
X140454284Y-103832819D02*
X140549522Y-103785200D01*
X140549522Y-103785200D02*
X140597141Y-103737580D01*
X138835236Y-103832819D02*
X138835236Y-103166152D01*
X138835236Y-103261390D02*
X138787617Y-103213771D01*
X138787617Y-103213771D02*
X138692379Y-103166152D01*
X138692379Y-103166152D02*
X138549522Y-103166152D01*
X138549522Y-103166152D02*
X138454284Y-103213771D01*
X138454284Y-103213771D02*
X138406665Y-103309009D01*
X138406665Y-103309009D02*
X138406665Y-103832819D01*
X138406665Y-103309009D02*
X138359046Y-103213771D01*
X138359046Y-103213771D02*
X138263808Y-103166152D01*
X138263808Y-103166152D02*
X138120951Y-103166152D01*
X138120951Y-103166152D02*
X138025712Y-103213771D01*
X138025712Y-103213771D02*
X137978093Y-103309009D01*
X137978093Y-103309009D02*
X137978093Y-103832819D01*
X137501903Y-103832819D02*
X137501903Y-103166152D01*
X137501903Y-103261390D02*
X137454284Y-103213771D01*
X137454284Y-103213771D02*
X137359046Y-103166152D01*
X137359046Y-103166152D02*
X137216189Y-103166152D01*
X137216189Y-103166152D02*
X137120951Y-103213771D01*
X137120951Y-103213771D02*
X137073332Y-103309009D01*
X137073332Y-103309009D02*
X137073332Y-103832819D01*
X137073332Y-103309009D02*
X137025713Y-103213771D01*
X137025713Y-103213771D02*
X136930475Y-103166152D01*
X136930475Y-103166152D02*
X136787618Y-103166152D01*
X136787618Y-103166152D02*
X136692379Y-103213771D01*
X136692379Y-103213771D02*
X136644760Y-103309009D01*
X136644760Y-103309009D02*
X136644760Y-103832819D01*
X136168570Y-103737580D02*
X136120951Y-103785200D01*
X136120951Y-103785200D02*
X136168570Y-103832819D01*
X136168570Y-103832819D02*
X136216189Y-103785200D01*
X136216189Y-103785200D02*
X136168570Y-103737580D01*
X136168570Y-103737580D02*
X136168570Y-103832819D01*
X151180952Y-104663866D02*
X150419048Y-104663866D01*
X149514286Y-104378152D02*
X149514286Y-105044819D01*
X149752381Y-103997200D02*
X149990476Y-104711485D01*
X149990476Y-104711485D02*
X149371429Y-104711485D01*
X148800000Y-104044819D02*
X148704762Y-104044819D01*
X148704762Y-104044819D02*
X148609524Y-104092438D01*
X148609524Y-104092438D02*
X148561905Y-104140057D01*
X148561905Y-104140057D02*
X148514286Y-104235295D01*
X148514286Y-104235295D02*
X148466667Y-104425771D01*
X148466667Y-104425771D02*
X148466667Y-104663866D01*
X148466667Y-104663866D02*
X148514286Y-104854342D01*
X148514286Y-104854342D02*
X148561905Y-104949580D01*
X148561905Y-104949580D02*
X148609524Y-104997200D01*
X148609524Y-104997200D02*
X148704762Y-105044819D01*
X148704762Y-105044819D02*
X148800000Y-105044819D01*
X148800000Y-105044819D02*
X148895238Y-104997200D01*
X148895238Y-104997200D02*
X148942857Y-104949580D01*
X148942857Y-104949580D02*
X148990476Y-104854342D01*
X148990476Y-104854342D02*
X149038095Y-104663866D01*
X149038095Y-104663866D02*
X149038095Y-104425771D01*
X149038095Y-104425771D02*
X148990476Y-104235295D01*
X148990476Y-104235295D02*
X148942857Y-104140057D01*
X148942857Y-104140057D02*
X148895238Y-104092438D01*
X148895238Y-104092438D02*
X148800000Y-104044819D01*
X147419047Y-104378152D02*
X147038095Y-104378152D01*
X147276190Y-104044819D02*
X147276190Y-104901961D01*
X147276190Y-104901961D02*
X147228571Y-104997200D01*
X147228571Y-104997200D02*
X147133333Y-105044819D01*
X147133333Y-105044819D02*
X147038095Y-105044819D01*
X146561904Y-105044819D02*
X146657142Y-104997200D01*
X146657142Y-104997200D02*
X146704761Y-104949580D01*
X146704761Y-104949580D02*
X146752380Y-104854342D01*
X146752380Y-104854342D02*
X146752380Y-104568628D01*
X146752380Y-104568628D02*
X146704761Y-104473390D01*
X146704761Y-104473390D02*
X146657142Y-104425771D01*
X146657142Y-104425771D02*
X146561904Y-104378152D01*
X146561904Y-104378152D02*
X146419047Y-104378152D01*
X146419047Y-104378152D02*
X146323809Y-104425771D01*
X146323809Y-104425771D02*
X146276190Y-104473390D01*
X146276190Y-104473390D02*
X146228571Y-104568628D01*
X146228571Y-104568628D02*
X146228571Y-104854342D01*
X146228571Y-104854342D02*
X146276190Y-104949580D01*
X146276190Y-104949580D02*
X146323809Y-104997200D01*
X146323809Y-104997200D02*
X146419047Y-105044819D01*
X146419047Y-105044819D02*
X146561904Y-105044819D01*
X145038094Y-104663866D02*
X144276190Y-104663866D01*
X144657142Y-105044819D02*
X144657142Y-104282914D01*
X143657142Y-104473390D02*
X143752380Y-104425771D01*
X143752380Y-104425771D02*
X143799999Y-104378152D01*
X143799999Y-104378152D02*
X143847618Y-104282914D01*
X143847618Y-104282914D02*
X143847618Y-104235295D01*
X143847618Y-104235295D02*
X143799999Y-104140057D01*
X143799999Y-104140057D02*
X143752380Y-104092438D01*
X143752380Y-104092438D02*
X143657142Y-104044819D01*
X143657142Y-104044819D02*
X143466666Y-104044819D01*
X143466666Y-104044819D02*
X143371428Y-104092438D01*
X143371428Y-104092438D02*
X143323809Y-104140057D01*
X143323809Y-104140057D02*
X143276190Y-104235295D01*
X143276190Y-104235295D02*
X143276190Y-104282914D01*
X143276190Y-104282914D02*
X143323809Y-104378152D01*
X143323809Y-104378152D02*
X143371428Y-104425771D01*
X143371428Y-104425771D02*
X143466666Y-104473390D01*
X143466666Y-104473390D02*
X143657142Y-104473390D01*
X143657142Y-104473390D02*
X143752380Y-104521009D01*
X143752380Y-104521009D02*
X143799999Y-104568628D01*
X143799999Y-104568628D02*
X143847618Y-104663866D01*
X143847618Y-104663866D02*
X143847618Y-104854342D01*
X143847618Y-104854342D02*
X143799999Y-104949580D01*
X143799999Y-104949580D02*
X143752380Y-104997200D01*
X143752380Y-104997200D02*
X143657142Y-105044819D01*
X143657142Y-105044819D02*
X143466666Y-105044819D01*
X143466666Y-105044819D02*
X143371428Y-104997200D01*
X143371428Y-104997200D02*
X143323809Y-104949580D01*
X143323809Y-104949580D02*
X143276190Y-104854342D01*
X143276190Y-104854342D02*
X143276190Y-104663866D01*
X143276190Y-104663866D02*
X143323809Y-104568628D01*
X143323809Y-104568628D02*
X143371428Y-104521009D01*
X143371428Y-104521009D02*
X143466666Y-104473390D01*
X142657142Y-104044819D02*
X142561904Y-104044819D01*
X142561904Y-104044819D02*
X142466666Y-104092438D01*
X142466666Y-104092438D02*
X142419047Y-104140057D01*
X142419047Y-104140057D02*
X142371428Y-104235295D01*
X142371428Y-104235295D02*
X142323809Y-104425771D01*
X142323809Y-104425771D02*
X142323809Y-104663866D01*
X142323809Y-104663866D02*
X142371428Y-104854342D01*
X142371428Y-104854342D02*
X142419047Y-104949580D01*
X142419047Y-104949580D02*
X142466666Y-104997200D01*
X142466666Y-104997200D02*
X142561904Y-105044819D01*
X142561904Y-105044819D02*
X142657142Y-105044819D01*
X142657142Y-105044819D02*
X142752380Y-104997200D01*
X142752380Y-104997200D02*
X142799999Y-104949580D01*
X142799999Y-104949580D02*
X142847618Y-104854342D01*
X142847618Y-104854342D02*
X142895237Y-104663866D01*
X142895237Y-104663866D02*
X142895237Y-104425771D01*
X142895237Y-104425771D02*
X142847618Y-104235295D01*
X142847618Y-104235295D02*
X142799999Y-104140057D01*
X142799999Y-104140057D02*
X142752380Y-104092438D01*
X142752380Y-104092438D02*
X142657142Y-104044819D01*
X141752380Y-104044819D02*
X141847618Y-104092438D01*
X141847618Y-104092438D02*
X141895237Y-104187676D01*
X141895237Y-104187676D02*
X141847618Y-104282914D01*
X141847618Y-104282914D02*
X141752380Y-104330533D01*
X141752380Y-104330533D02*
X141657142Y-104282914D01*
X141657142Y-104282914D02*
X141609523Y-104187676D01*
X141609523Y-104187676D02*
X141657142Y-104092438D01*
X141657142Y-104092438D02*
X141752380Y-104044819D01*
X140561904Y-104949580D02*
X140609523Y-104997200D01*
X140609523Y-104997200D02*
X140752380Y-105044819D01*
X140752380Y-105044819D02*
X140847618Y-105044819D01*
X140847618Y-105044819D02*
X140990475Y-104997200D01*
X140990475Y-104997200D02*
X141085713Y-104901961D01*
X141085713Y-104901961D02*
X141133332Y-104806723D01*
X141133332Y-104806723D02*
X141180951Y-104616247D01*
X141180951Y-104616247D02*
X141180951Y-104473390D01*
X141180951Y-104473390D02*
X141133332Y-104282914D01*
X141133332Y-104282914D02*
X141085713Y-104187676D01*
X141085713Y-104187676D02*
X140990475Y-104092438D01*
X140990475Y-104092438D02*
X140847618Y-104044819D01*
X140847618Y-104044819D02*
X140752380Y-104044819D01*
X140752380Y-104044819D02*
X140609523Y-104092438D01*
X140609523Y-104092438D02*
X140561904Y-104140057D01*
X138752380Y-104568628D02*
X138799999Y-104521009D01*
X138799999Y-104521009D02*
X138895237Y-104473390D01*
X138895237Y-104473390D02*
X138990475Y-104473390D01*
X138990475Y-104473390D02*
X139085713Y-104521009D01*
X139085713Y-104521009D02*
X139133332Y-104568628D01*
X139133332Y-104568628D02*
X139180951Y-104663866D01*
X139180951Y-104663866D02*
X139180951Y-104759104D01*
X139180951Y-104759104D02*
X139133332Y-104854342D01*
X139133332Y-104854342D02*
X139085713Y-104901961D01*
X139085713Y-104901961D02*
X138990475Y-104949580D01*
X138990475Y-104949580D02*
X138895237Y-104949580D01*
X138895237Y-104949580D02*
X138799999Y-104901961D01*
X138799999Y-104901961D02*
X138752380Y-104854342D01*
X138752380Y-104473390D02*
X138752380Y-104854342D01*
X138752380Y-104854342D02*
X138704761Y-104901961D01*
X138704761Y-104901961D02*
X138657142Y-104901961D01*
X138657142Y-104901961D02*
X138561903Y-104854342D01*
X138561903Y-104854342D02*
X138514284Y-104759104D01*
X138514284Y-104759104D02*
X138514284Y-104521009D01*
X138514284Y-104521009D02*
X138609523Y-104378152D01*
X138609523Y-104378152D02*
X138752380Y-104282914D01*
X138752380Y-104282914D02*
X138942856Y-104235295D01*
X138942856Y-104235295D02*
X139133332Y-104282914D01*
X139133332Y-104282914D02*
X139276189Y-104378152D01*
X139276189Y-104378152D02*
X139371427Y-104521009D01*
X139371427Y-104521009D02*
X139419046Y-104711485D01*
X139419046Y-104711485D02*
X139371427Y-104901961D01*
X139371427Y-104901961D02*
X139276189Y-105044819D01*
X139276189Y-105044819D02*
X139133332Y-105140057D01*
X139133332Y-105140057D02*
X138942856Y-105187676D01*
X138942856Y-105187676D02*
X138752380Y-105140057D01*
X138752380Y-105140057D02*
X138609523Y-105044819D01*
X137323808Y-104473390D02*
X136561904Y-104473390D01*
X136942856Y-104854342D02*
X136942856Y-104092438D01*
X136561904Y-105044819D02*
X137323808Y-105044819D01*
X135895237Y-104044819D02*
X135799999Y-104044819D01*
X135799999Y-104044819D02*
X135704761Y-104092438D01*
X135704761Y-104092438D02*
X135657142Y-104140057D01*
X135657142Y-104140057D02*
X135609523Y-104235295D01*
X135609523Y-104235295D02*
X135561904Y-104425771D01*
X135561904Y-104425771D02*
X135561904Y-104663866D01*
X135561904Y-104663866D02*
X135609523Y-104854342D01*
X135609523Y-104854342D02*
X135657142Y-104949580D01*
X135657142Y-104949580D02*
X135704761Y-104997200D01*
X135704761Y-104997200D02*
X135799999Y-105044819D01*
X135799999Y-105044819D02*
X135895237Y-105044819D01*
X135895237Y-105044819D02*
X135990475Y-104997200D01*
X135990475Y-104997200D02*
X136038094Y-104949580D01*
X136038094Y-104949580D02*
X136085713Y-104854342D01*
X136085713Y-104854342D02*
X136133332Y-104663866D01*
X136133332Y-104663866D02*
X136133332Y-104425771D01*
X136133332Y-104425771D02*
X136085713Y-104235295D01*
X136085713Y-104235295D02*
X136038094Y-104140057D01*
X136038094Y-104140057D02*
X135990475Y-104092438D01*
X135990475Y-104092438D02*
X135895237Y-104044819D01*
X135133332Y-104949580D02*
X135085713Y-104997200D01*
X135085713Y-104997200D02*
X135133332Y-105044819D01*
X135133332Y-105044819D02*
X135180951Y-104997200D01*
X135180951Y-104997200D02*
X135133332Y-104949580D01*
X135133332Y-104949580D02*
X135133332Y-105044819D01*
X134752380Y-104044819D02*
X134133333Y-104044819D01*
X134133333Y-104044819D02*
X134466666Y-104425771D01*
X134466666Y-104425771D02*
X134323809Y-104425771D01*
X134323809Y-104425771D02*
X134228571Y-104473390D01*
X134228571Y-104473390D02*
X134180952Y-104521009D01*
X134180952Y-104521009D02*
X134133333Y-104616247D01*
X134133333Y-104616247D02*
X134133333Y-104854342D01*
X134133333Y-104854342D02*
X134180952Y-104949580D01*
X134180952Y-104949580D02*
X134228571Y-104997200D01*
X134228571Y-104997200D02*
X134323809Y-105044819D01*
X134323809Y-105044819D02*
X134609523Y-105044819D01*
X134609523Y-105044819D02*
X134704761Y-104997200D01*
X134704761Y-104997200D02*
X134752380Y-104949580D01*
X133561904Y-104044819D02*
X133657142Y-104092438D01*
X133657142Y-104092438D02*
X133704761Y-104187676D01*
X133704761Y-104187676D02*
X133657142Y-104282914D01*
X133657142Y-104282914D02*
X133561904Y-104330533D01*
X133561904Y-104330533D02*
X133466666Y-104282914D01*
X133466666Y-104282914D02*
X133419047Y-104187676D01*
X133419047Y-104187676D02*
X133466666Y-104092438D01*
X133466666Y-104092438D02*
X133561904Y-104044819D01*
X132371428Y-104949580D02*
X132419047Y-104997200D01*
X132419047Y-104997200D02*
X132561904Y-105044819D01*
X132561904Y-105044819D02*
X132657142Y-105044819D01*
X132657142Y-105044819D02*
X132799999Y-104997200D01*
X132799999Y-104997200D02*
X132895237Y-104901961D01*
X132895237Y-104901961D02*
X132942856Y-104806723D01*
X132942856Y-104806723D02*
X132990475Y-104616247D01*
X132990475Y-104616247D02*
X132990475Y-104473390D01*
X132990475Y-104473390D02*
X132942856Y-104282914D01*
X132942856Y-104282914D02*
X132895237Y-104187676D01*
X132895237Y-104187676D02*
X132799999Y-104092438D01*
X132799999Y-104092438D02*
X132657142Y-104044819D01*
X132657142Y-104044819D02*
X132561904Y-104044819D01*
X132561904Y-104044819D02*
X132419047Y-104092438D01*
X132419047Y-104092438D02*
X132371428Y-104140057D01*
X150157142Y-105654819D02*
X150061904Y-105654819D01*
X150061904Y-105654819D02*
X149966666Y-105702438D01*
X149966666Y-105702438D02*
X149919047Y-105750057D01*
X149919047Y-105750057D02*
X149871428Y-105845295D01*
X149871428Y-105845295D02*
X149823809Y-106035771D01*
X149823809Y-106035771D02*
X149823809Y-106273866D01*
X149823809Y-106273866D02*
X149871428Y-106464342D01*
X149871428Y-106464342D02*
X149919047Y-106559580D01*
X149919047Y-106559580D02*
X149966666Y-106607200D01*
X149966666Y-106607200D02*
X150061904Y-106654819D01*
X150061904Y-106654819D02*
X150157142Y-106654819D01*
X150157142Y-106654819D02*
X150252380Y-106607200D01*
X150252380Y-106607200D02*
X150299999Y-106559580D01*
X150299999Y-106559580D02*
X150347618Y-106464342D01*
X150347618Y-106464342D02*
X150395237Y-106273866D01*
X150395237Y-106273866D02*
X150395237Y-106035771D01*
X150395237Y-106035771D02*
X150347618Y-105845295D01*
X150347618Y-105845295D02*
X150299999Y-105750057D01*
X150299999Y-105750057D02*
X150252380Y-105702438D01*
X150252380Y-105702438D02*
X150157142Y-105654819D01*
X148776189Y-105988152D02*
X148395237Y-105988152D01*
X148633332Y-105654819D02*
X148633332Y-106511961D01*
X148633332Y-106511961D02*
X148585713Y-106607200D01*
X148585713Y-106607200D02*
X148490475Y-106654819D01*
X148490475Y-106654819D02*
X148395237Y-106654819D01*
X147919046Y-106654819D02*
X148014284Y-106607200D01*
X148014284Y-106607200D02*
X148061903Y-106559580D01*
X148061903Y-106559580D02*
X148109522Y-106464342D01*
X148109522Y-106464342D02*
X148109522Y-106178628D01*
X148109522Y-106178628D02*
X148061903Y-106083390D01*
X148061903Y-106083390D02*
X148014284Y-106035771D01*
X148014284Y-106035771D02*
X147919046Y-105988152D01*
X147919046Y-105988152D02*
X147776189Y-105988152D01*
X147776189Y-105988152D02*
X147680951Y-106035771D01*
X147680951Y-106035771D02*
X147633332Y-106083390D01*
X147633332Y-106083390D02*
X147585713Y-106178628D01*
X147585713Y-106178628D02*
X147585713Y-106464342D01*
X147585713Y-106464342D02*
X147633332Y-106559580D01*
X147633332Y-106559580D02*
X147680951Y-106607200D01*
X147680951Y-106607200D02*
X147776189Y-106654819D01*
X147776189Y-106654819D02*
X147919046Y-106654819D01*
X145871427Y-106654819D02*
X146442855Y-106654819D01*
X146157141Y-106654819D02*
X146157141Y-105654819D01*
X146157141Y-105654819D02*
X146252379Y-105797676D01*
X146252379Y-105797676D02*
X146347617Y-105892914D01*
X146347617Y-105892914D02*
X146442855Y-105940533D01*
X145252379Y-105654819D02*
X145157141Y-105654819D01*
X145157141Y-105654819D02*
X145061903Y-105702438D01*
X145061903Y-105702438D02*
X145014284Y-105750057D01*
X145014284Y-105750057D02*
X144966665Y-105845295D01*
X144966665Y-105845295D02*
X144919046Y-106035771D01*
X144919046Y-106035771D02*
X144919046Y-106273866D01*
X144919046Y-106273866D02*
X144966665Y-106464342D01*
X144966665Y-106464342D02*
X145014284Y-106559580D01*
X145014284Y-106559580D02*
X145061903Y-106607200D01*
X145061903Y-106607200D02*
X145157141Y-106654819D01*
X145157141Y-106654819D02*
X145252379Y-106654819D01*
X145252379Y-106654819D02*
X145347617Y-106607200D01*
X145347617Y-106607200D02*
X145395236Y-106559580D01*
X145395236Y-106559580D02*
X145442855Y-106464342D01*
X145442855Y-106464342D02*
X145490474Y-106273866D01*
X145490474Y-106273866D02*
X145490474Y-106035771D01*
X145490474Y-106035771D02*
X145442855Y-105845295D01*
X145442855Y-105845295D02*
X145395236Y-105750057D01*
X145395236Y-105750057D02*
X145347617Y-105702438D01*
X145347617Y-105702438D02*
X145252379Y-105654819D01*
X144299998Y-105654819D02*
X144204760Y-105654819D01*
X144204760Y-105654819D02*
X144109522Y-105702438D01*
X144109522Y-105702438D02*
X144061903Y-105750057D01*
X144061903Y-105750057D02*
X144014284Y-105845295D01*
X144014284Y-105845295D02*
X143966665Y-106035771D01*
X143966665Y-106035771D02*
X143966665Y-106273866D01*
X143966665Y-106273866D02*
X144014284Y-106464342D01*
X144014284Y-106464342D02*
X144061903Y-106559580D01*
X144061903Y-106559580D02*
X144109522Y-106607200D01*
X144109522Y-106607200D02*
X144204760Y-106654819D01*
X144204760Y-106654819D02*
X144299998Y-106654819D01*
X144299998Y-106654819D02*
X144395236Y-106607200D01*
X144395236Y-106607200D02*
X144442855Y-106559580D01*
X144442855Y-106559580D02*
X144490474Y-106464342D01*
X144490474Y-106464342D02*
X144538093Y-106273866D01*
X144538093Y-106273866D02*
X144538093Y-106035771D01*
X144538093Y-106035771D02*
X144490474Y-105845295D01*
X144490474Y-105845295D02*
X144442855Y-105750057D01*
X144442855Y-105750057D02*
X144395236Y-105702438D01*
X144395236Y-105702438D02*
X144299998Y-105654819D01*
X143585712Y-106654819D02*
X142823808Y-105654819D01*
X143442855Y-105654819D02*
X143347617Y-105702438D01*
X143347617Y-105702438D02*
X143299998Y-105797676D01*
X143299998Y-105797676D02*
X143347617Y-105892914D01*
X143347617Y-105892914D02*
X143442855Y-105940533D01*
X143442855Y-105940533D02*
X143538093Y-105892914D01*
X143538093Y-105892914D02*
X143585712Y-105797676D01*
X143585712Y-105797676D02*
X143538093Y-105702438D01*
X143538093Y-105702438D02*
X143442855Y-105654819D01*
X142871427Y-106607200D02*
X142823808Y-106511961D01*
X142823808Y-106511961D02*
X142871427Y-106416723D01*
X142871427Y-106416723D02*
X142966665Y-106369104D01*
X142966665Y-106369104D02*
X143061903Y-106416723D01*
X143061903Y-106416723D02*
X143109522Y-106511961D01*
X143109522Y-106511961D02*
X143061903Y-106607200D01*
X143061903Y-106607200D02*
X142966665Y-106654819D01*
X142966665Y-106654819D02*
X142871427Y-106607200D01*
X141823808Y-106654819D02*
X142157141Y-106178628D01*
X142395236Y-106654819D02*
X142395236Y-105654819D01*
X142395236Y-105654819D02*
X142014284Y-105654819D01*
X142014284Y-105654819D02*
X141919046Y-105702438D01*
X141919046Y-105702438D02*
X141871427Y-105750057D01*
X141871427Y-105750057D02*
X141823808Y-105845295D01*
X141823808Y-105845295D02*
X141823808Y-105988152D01*
X141823808Y-105988152D02*
X141871427Y-106083390D01*
X141871427Y-106083390D02*
X141919046Y-106131009D01*
X141919046Y-106131009D02*
X142014284Y-106178628D01*
X142014284Y-106178628D02*
X142395236Y-106178628D01*
X141395236Y-106654819D02*
X141395236Y-105654819D01*
X141395236Y-106131009D02*
X140823808Y-106131009D01*
X140823808Y-106654819D02*
X140823808Y-105654819D01*
X138966665Y-106178628D02*
X139014284Y-106131009D01*
X139014284Y-106131009D02*
X139109522Y-106083390D01*
X139109522Y-106083390D02*
X139204760Y-106083390D01*
X139204760Y-106083390D02*
X139299998Y-106131009D01*
X139299998Y-106131009D02*
X139347617Y-106178628D01*
X139347617Y-106178628D02*
X139395236Y-106273866D01*
X139395236Y-106273866D02*
X139395236Y-106369104D01*
X139395236Y-106369104D02*
X139347617Y-106464342D01*
X139347617Y-106464342D02*
X139299998Y-106511961D01*
X139299998Y-106511961D02*
X139204760Y-106559580D01*
X139204760Y-106559580D02*
X139109522Y-106559580D01*
X139109522Y-106559580D02*
X139014284Y-106511961D01*
X139014284Y-106511961D02*
X138966665Y-106464342D01*
X138966665Y-106083390D02*
X138966665Y-106464342D01*
X138966665Y-106464342D02*
X138919046Y-106511961D01*
X138919046Y-106511961D02*
X138871427Y-106511961D01*
X138871427Y-106511961D02*
X138776188Y-106464342D01*
X138776188Y-106464342D02*
X138728569Y-106369104D01*
X138728569Y-106369104D02*
X138728569Y-106131009D01*
X138728569Y-106131009D02*
X138823808Y-105988152D01*
X138823808Y-105988152D02*
X138966665Y-105892914D01*
X138966665Y-105892914D02*
X139157141Y-105845295D01*
X139157141Y-105845295D02*
X139347617Y-105892914D01*
X139347617Y-105892914D02*
X139490474Y-105988152D01*
X139490474Y-105988152D02*
X139585712Y-106131009D01*
X139585712Y-106131009D02*
X139633331Y-106321485D01*
X139633331Y-106321485D02*
X139585712Y-106511961D01*
X139585712Y-106511961D02*
X139490474Y-106654819D01*
X139490474Y-106654819D02*
X139347617Y-106750057D01*
X139347617Y-106750057D02*
X139157141Y-106797676D01*
X139157141Y-106797676D02*
X138966665Y-106750057D01*
X138966665Y-106750057D02*
X138823808Y-106654819D01*
X137538093Y-106083390D02*
X136776189Y-106083390D01*
X137157141Y-106464342D02*
X137157141Y-105702438D01*
X136776189Y-106654819D02*
X137538093Y-106654819D01*
X136347617Y-105750057D02*
X136299998Y-105702438D01*
X136299998Y-105702438D02*
X136204760Y-105654819D01*
X136204760Y-105654819D02*
X135966665Y-105654819D01*
X135966665Y-105654819D02*
X135871427Y-105702438D01*
X135871427Y-105702438D02*
X135823808Y-105750057D01*
X135823808Y-105750057D02*
X135776189Y-105845295D01*
X135776189Y-105845295D02*
X135776189Y-105940533D01*
X135776189Y-105940533D02*
X135823808Y-106083390D01*
X135823808Y-106083390D02*
X136395236Y-106654819D01*
X136395236Y-106654819D02*
X135776189Y-106654819D01*
X135347617Y-106559580D02*
X135299998Y-106607200D01*
X135299998Y-106607200D02*
X135347617Y-106654819D01*
X135347617Y-106654819D02*
X135395236Y-106607200D01*
X135395236Y-106607200D02*
X135347617Y-106559580D01*
X135347617Y-106559580D02*
X135347617Y-106654819D01*
X134680951Y-105654819D02*
X134585713Y-105654819D01*
X134585713Y-105654819D02*
X134490475Y-105702438D01*
X134490475Y-105702438D02*
X134442856Y-105750057D01*
X134442856Y-105750057D02*
X134395237Y-105845295D01*
X134395237Y-105845295D02*
X134347618Y-106035771D01*
X134347618Y-106035771D02*
X134347618Y-106273866D01*
X134347618Y-106273866D02*
X134395237Y-106464342D01*
X134395237Y-106464342D02*
X134442856Y-106559580D01*
X134442856Y-106559580D02*
X134490475Y-106607200D01*
X134490475Y-106607200D02*
X134585713Y-106654819D01*
X134585713Y-106654819D02*
X134680951Y-106654819D01*
X134680951Y-106654819D02*
X134776189Y-106607200D01*
X134776189Y-106607200D02*
X134823808Y-106559580D01*
X134823808Y-106559580D02*
X134871427Y-106464342D01*
X134871427Y-106464342D02*
X134919046Y-106273866D01*
X134919046Y-106273866D02*
X134919046Y-106035771D01*
X134919046Y-106035771D02*
X134871427Y-105845295D01*
X134871427Y-105845295D02*
X134823808Y-105750057D01*
X134823808Y-105750057D02*
X134776189Y-105702438D01*
X134776189Y-105702438D02*
X134680951Y-105654819D01*
X133966665Y-106654819D02*
X133204761Y-105654819D01*
X133823808Y-105654819D02*
X133728570Y-105702438D01*
X133728570Y-105702438D02*
X133680951Y-105797676D01*
X133680951Y-105797676D02*
X133728570Y-105892914D01*
X133728570Y-105892914D02*
X133823808Y-105940533D01*
X133823808Y-105940533D02*
X133919046Y-105892914D01*
X133919046Y-105892914D02*
X133966665Y-105797676D01*
X133966665Y-105797676D02*
X133919046Y-105702438D01*
X133919046Y-105702438D02*
X133823808Y-105654819D01*
X133252380Y-106607200D02*
X133204761Y-106511961D01*
X133204761Y-106511961D02*
X133252380Y-106416723D01*
X133252380Y-106416723D02*
X133347618Y-106369104D01*
X133347618Y-106369104D02*
X133442856Y-106416723D01*
X133442856Y-106416723D02*
X133490475Y-106511961D01*
X133490475Y-106511961D02*
X133442856Y-106607200D01*
X133442856Y-106607200D02*
X133347618Y-106654819D01*
X133347618Y-106654819D02*
X133252380Y-106607200D01*
X147966666Y-108645771D02*
X148014285Y-108598152D01*
X148014285Y-108598152D02*
X148109523Y-108455295D01*
X148109523Y-108455295D02*
X148157142Y-108360057D01*
X148157142Y-108360057D02*
X148204761Y-108217200D01*
X148204761Y-108217200D02*
X148252380Y-107979104D01*
X148252380Y-107979104D02*
X148252380Y-107788628D01*
X148252380Y-107788628D02*
X148204761Y-107550533D01*
X148204761Y-107550533D02*
X148157142Y-107407676D01*
X148157142Y-107407676D02*
X148109523Y-107312438D01*
X148109523Y-107312438D02*
X148014285Y-107169580D01*
X148014285Y-107169580D02*
X147966666Y-107121961D01*
X147014285Y-108169580D02*
X147061904Y-108217200D01*
X147061904Y-108217200D02*
X147204761Y-108264819D01*
X147204761Y-108264819D02*
X147299999Y-108264819D01*
X147299999Y-108264819D02*
X147442856Y-108217200D01*
X147442856Y-108217200D02*
X147538094Y-108121961D01*
X147538094Y-108121961D02*
X147585713Y-108026723D01*
X147585713Y-108026723D02*
X147633332Y-107836247D01*
X147633332Y-107836247D02*
X147633332Y-107693390D01*
X147633332Y-107693390D02*
X147585713Y-107502914D01*
X147585713Y-107502914D02*
X147538094Y-107407676D01*
X147538094Y-107407676D02*
X147442856Y-107312438D01*
X147442856Y-107312438D02*
X147299999Y-107264819D01*
X147299999Y-107264819D02*
X147204761Y-107264819D01*
X147204761Y-107264819D02*
X147061904Y-107312438D01*
X147061904Y-107312438D02*
X147014285Y-107360057D01*
X146585713Y-108264819D02*
X146585713Y-107264819D01*
X145347618Y-107883866D02*
X144585714Y-107883866D01*
X144966666Y-108264819D02*
X144966666Y-107502914D01*
X143395238Y-107217200D02*
X144252380Y-108502914D01*
X143061904Y-107883866D02*
X142300000Y-107883866D01*
X141109523Y-107360057D02*
X141061904Y-107312438D01*
X141061904Y-107312438D02*
X140966666Y-107264819D01*
X140966666Y-107264819D02*
X140728571Y-107264819D01*
X140728571Y-107264819D02*
X140633333Y-107312438D01*
X140633333Y-107312438D02*
X140585714Y-107360057D01*
X140585714Y-107360057D02*
X140538095Y-107455295D01*
X140538095Y-107455295D02*
X140538095Y-107550533D01*
X140538095Y-107550533D02*
X140585714Y-107693390D01*
X140585714Y-107693390D02*
X141157142Y-108264819D01*
X141157142Y-108264819D02*
X140538095Y-108264819D01*
X140157142Y-108217200D02*
X140014285Y-108264819D01*
X140014285Y-108264819D02*
X139776190Y-108264819D01*
X139776190Y-108264819D02*
X139680952Y-108217200D01*
X139680952Y-108217200D02*
X139633333Y-108169580D01*
X139633333Y-108169580D02*
X139585714Y-108074342D01*
X139585714Y-108074342D02*
X139585714Y-107979104D01*
X139585714Y-107979104D02*
X139633333Y-107883866D01*
X139633333Y-107883866D02*
X139680952Y-107836247D01*
X139680952Y-107836247D02*
X139776190Y-107788628D01*
X139776190Y-107788628D02*
X139966666Y-107741009D01*
X139966666Y-107741009D02*
X140061904Y-107693390D01*
X140061904Y-107693390D02*
X140109523Y-107645771D01*
X140109523Y-107645771D02*
X140157142Y-107550533D01*
X140157142Y-107550533D02*
X140157142Y-107455295D01*
X140157142Y-107455295D02*
X140109523Y-107360057D01*
X140109523Y-107360057D02*
X140061904Y-107312438D01*
X140061904Y-107312438D02*
X139966666Y-107264819D01*
X139966666Y-107264819D02*
X139728571Y-107264819D01*
X139728571Y-107264819D02*
X139585714Y-107312438D01*
X139157142Y-108264819D02*
X139157142Y-107598152D01*
X139157142Y-107264819D02*
X139204761Y-107312438D01*
X139204761Y-107312438D02*
X139157142Y-107360057D01*
X139157142Y-107360057D02*
X139109523Y-107312438D01*
X139109523Y-107312438D02*
X139157142Y-107264819D01*
X139157142Y-107264819D02*
X139157142Y-107360057D01*
X138252381Y-107598152D02*
X138252381Y-108407676D01*
X138252381Y-108407676D02*
X138300000Y-108502914D01*
X138300000Y-108502914D02*
X138347619Y-108550533D01*
X138347619Y-108550533D02*
X138442857Y-108598152D01*
X138442857Y-108598152D02*
X138585714Y-108598152D01*
X138585714Y-108598152D02*
X138680952Y-108550533D01*
X138252381Y-108217200D02*
X138347619Y-108264819D01*
X138347619Y-108264819D02*
X138538095Y-108264819D01*
X138538095Y-108264819D02*
X138633333Y-108217200D01*
X138633333Y-108217200D02*
X138680952Y-108169580D01*
X138680952Y-108169580D02*
X138728571Y-108074342D01*
X138728571Y-108074342D02*
X138728571Y-107788628D01*
X138728571Y-107788628D02*
X138680952Y-107693390D01*
X138680952Y-107693390D02*
X138633333Y-107645771D01*
X138633333Y-107645771D02*
X138538095Y-107598152D01*
X138538095Y-107598152D02*
X138347619Y-107598152D01*
X138347619Y-107598152D02*
X138252381Y-107645771D01*
X137776190Y-108264819D02*
X137776190Y-107598152D01*
X137776190Y-107693390D02*
X137728571Y-107645771D01*
X137728571Y-107645771D02*
X137633333Y-107598152D01*
X137633333Y-107598152D02*
X137490476Y-107598152D01*
X137490476Y-107598152D02*
X137395238Y-107645771D01*
X137395238Y-107645771D02*
X137347619Y-107741009D01*
X137347619Y-107741009D02*
X137347619Y-108264819D01*
X137347619Y-107741009D02*
X137300000Y-107645771D01*
X137300000Y-107645771D02*
X137204762Y-107598152D01*
X137204762Y-107598152D02*
X137061905Y-107598152D01*
X137061905Y-107598152D02*
X136966666Y-107645771D01*
X136966666Y-107645771D02*
X136919047Y-107741009D01*
X136919047Y-107741009D02*
X136919047Y-108264819D01*
X136014286Y-108264819D02*
X136014286Y-107741009D01*
X136014286Y-107741009D02*
X136061905Y-107645771D01*
X136061905Y-107645771D02*
X136157143Y-107598152D01*
X136157143Y-107598152D02*
X136347619Y-107598152D01*
X136347619Y-107598152D02*
X136442857Y-107645771D01*
X136014286Y-108217200D02*
X136109524Y-108264819D01*
X136109524Y-108264819D02*
X136347619Y-108264819D01*
X136347619Y-108264819D02*
X136442857Y-108217200D01*
X136442857Y-108217200D02*
X136490476Y-108121961D01*
X136490476Y-108121961D02*
X136490476Y-108026723D01*
X136490476Y-108026723D02*
X136442857Y-107931485D01*
X136442857Y-107931485D02*
X136347619Y-107883866D01*
X136347619Y-107883866D02*
X136109524Y-107883866D01*
X136109524Y-107883866D02*
X136014286Y-107836247D01*
X135633333Y-108645771D02*
X135585714Y-108598152D01*
X135585714Y-108598152D02*
X135490476Y-108455295D01*
X135490476Y-108455295D02*
X135442857Y-108360057D01*
X135442857Y-108360057D02*
X135395238Y-108217200D01*
X135395238Y-108217200D02*
X135347619Y-107979104D01*
X135347619Y-107979104D02*
X135347619Y-107788628D01*
X135347619Y-107788628D02*
X135395238Y-107550533D01*
X135395238Y-107550533D02*
X135442857Y-107407676D01*
X135442857Y-107407676D02*
X135490476Y-107312438D01*
X135490476Y-107312438D02*
X135585714Y-107169580D01*
X135585714Y-107169580D02*
X135633333Y-107121961D01*
X126649819Y-91190476D02*
X126649819Y-91380952D01*
X126649819Y-91380952D02*
X126697438Y-91476190D01*
X126697438Y-91476190D02*
X126792676Y-91571428D01*
X126792676Y-91571428D02*
X126983152Y-91619047D01*
X126983152Y-91619047D02*
X127316485Y-91619047D01*
X127316485Y-91619047D02*
X127506961Y-91571428D01*
X127506961Y-91571428D02*
X127602200Y-91476190D01*
X127602200Y-91476190D02*
X127649819Y-91380952D01*
X127649819Y-91380952D02*
X127649819Y-91190476D01*
X127649819Y-91190476D02*
X127602200Y-91095238D01*
X127602200Y-91095238D02*
X127506961Y-91000000D01*
X127506961Y-91000000D02*
X127316485Y-90952381D01*
X127316485Y-90952381D02*
X126983152Y-90952381D01*
X126983152Y-90952381D02*
X126792676Y-91000000D01*
X126792676Y-91000000D02*
X126697438Y-91095238D01*
X126697438Y-91095238D02*
X126649819Y-91190476D01*
X127649819Y-92047619D02*
X126983152Y-92047619D01*
X127173628Y-92047619D02*
X127078390Y-92095238D01*
X127078390Y-92095238D02*
X127030771Y-92142857D01*
X127030771Y-92142857D02*
X126983152Y-92238095D01*
X126983152Y-92238095D02*
X126983152Y-92333333D01*
X127649819Y-92666667D02*
X126983152Y-92666667D01*
X126649819Y-92666667D02*
X126697438Y-92619048D01*
X126697438Y-92619048D02*
X126745057Y-92666667D01*
X126745057Y-92666667D02*
X126697438Y-92714286D01*
X126697438Y-92714286D02*
X126649819Y-92666667D01*
X126649819Y-92666667D02*
X126745057Y-92666667D01*
X126983152Y-93571428D02*
X127792676Y-93571428D01*
X127792676Y-93571428D02*
X127887914Y-93523809D01*
X127887914Y-93523809D02*
X127935533Y-93476190D01*
X127935533Y-93476190D02*
X127983152Y-93380952D01*
X127983152Y-93380952D02*
X127983152Y-93238095D01*
X127983152Y-93238095D02*
X127935533Y-93142857D01*
X127602200Y-93571428D02*
X127649819Y-93476190D01*
X127649819Y-93476190D02*
X127649819Y-93285714D01*
X127649819Y-93285714D02*
X127602200Y-93190476D01*
X127602200Y-93190476D02*
X127554580Y-93142857D01*
X127554580Y-93142857D02*
X127459342Y-93095238D01*
X127459342Y-93095238D02*
X127173628Y-93095238D01*
X127173628Y-93095238D02*
X127078390Y-93142857D01*
X127078390Y-93142857D02*
X127030771Y-93190476D01*
X127030771Y-93190476D02*
X126983152Y-93285714D01*
X126983152Y-93285714D02*
X126983152Y-93476190D01*
X126983152Y-93476190D02*
X127030771Y-93571428D01*
X127649819Y-94047619D02*
X126983152Y-94047619D01*
X126649819Y-94047619D02*
X126697438Y-94000000D01*
X126697438Y-94000000D02*
X126745057Y-94047619D01*
X126745057Y-94047619D02*
X126697438Y-94095238D01*
X126697438Y-94095238D02*
X126649819Y-94047619D01*
X126649819Y-94047619D02*
X126745057Y-94047619D01*
X126983152Y-94523809D02*
X127649819Y-94523809D01*
X127078390Y-94523809D02*
X127030771Y-94571428D01*
X127030771Y-94571428D02*
X126983152Y-94666666D01*
X126983152Y-94666666D02*
X126983152Y-94809523D01*
X126983152Y-94809523D02*
X127030771Y-94904761D01*
X127030771Y-94904761D02*
X127126009Y-94952380D01*
X127126009Y-94952380D02*
X127649819Y-94952380D01*
X127649819Y-95857142D02*
X127126009Y-95857142D01*
X127126009Y-95857142D02*
X127030771Y-95809523D01*
X127030771Y-95809523D02*
X126983152Y-95714285D01*
X126983152Y-95714285D02*
X126983152Y-95523809D01*
X126983152Y-95523809D02*
X127030771Y-95428571D01*
X127602200Y-95857142D02*
X127649819Y-95761904D01*
X127649819Y-95761904D02*
X127649819Y-95523809D01*
X127649819Y-95523809D02*
X127602200Y-95428571D01*
X127602200Y-95428571D02*
X127506961Y-95380952D01*
X127506961Y-95380952D02*
X127411723Y-95380952D01*
X127411723Y-95380952D02*
X127316485Y-95428571D01*
X127316485Y-95428571D02*
X127268866Y-95523809D01*
X127268866Y-95523809D02*
X127268866Y-95761904D01*
X127268866Y-95761904D02*
X127221247Y-95857142D01*
X127649819Y-96476190D02*
X127602200Y-96380952D01*
X127602200Y-96380952D02*
X127506961Y-96333333D01*
X127506961Y-96333333D02*
X126649819Y-96333333D01*
X126983152Y-97523810D02*
X127649819Y-97714286D01*
X127649819Y-97714286D02*
X127173628Y-97904762D01*
X127173628Y-97904762D02*
X127649819Y-98095238D01*
X127649819Y-98095238D02*
X126983152Y-98285714D01*
X127649819Y-98809524D02*
X127602200Y-98714286D01*
X127602200Y-98714286D02*
X127554580Y-98666667D01*
X127554580Y-98666667D02*
X127459342Y-98619048D01*
X127459342Y-98619048D02*
X127173628Y-98619048D01*
X127173628Y-98619048D02*
X127078390Y-98666667D01*
X127078390Y-98666667D02*
X127030771Y-98714286D01*
X127030771Y-98714286D02*
X126983152Y-98809524D01*
X126983152Y-98809524D02*
X126983152Y-98952381D01*
X126983152Y-98952381D02*
X127030771Y-99047619D01*
X127030771Y-99047619D02*
X127078390Y-99095238D01*
X127078390Y-99095238D02*
X127173628Y-99142857D01*
X127173628Y-99142857D02*
X127459342Y-99142857D01*
X127459342Y-99142857D02*
X127554580Y-99095238D01*
X127554580Y-99095238D02*
X127602200Y-99047619D01*
X127602200Y-99047619D02*
X127649819Y-98952381D01*
X127649819Y-98952381D02*
X127649819Y-98809524D01*
X127649819Y-99571429D02*
X126983152Y-99571429D01*
X127173628Y-99571429D02*
X127078390Y-99619048D01*
X127078390Y-99619048D02*
X127030771Y-99666667D01*
X127030771Y-99666667D02*
X126983152Y-99761905D01*
X126983152Y-99761905D02*
X126983152Y-99857143D01*
X127649819Y-100190477D02*
X126649819Y-100190477D01*
X127268866Y-100285715D02*
X127649819Y-100571429D01*
X126983152Y-100571429D02*
X127364104Y-100190477D01*
X127554580Y-101000001D02*
X127602200Y-101047620D01*
X127602200Y-101047620D02*
X127649819Y-101000001D01*
X127649819Y-101000001D02*
X127602200Y-100952382D01*
X127602200Y-100952382D02*
X127554580Y-101000001D01*
X127554580Y-101000001D02*
X127649819Y-101000001D01*
X127030771Y-101000001D02*
X127078390Y-101047620D01*
X127078390Y-101047620D02*
X127126009Y-101000001D01*
X127126009Y-101000001D02*
X127078390Y-100952382D01*
X127078390Y-100952382D02*
X127030771Y-101000001D01*
X127030771Y-101000001D02*
X127126009Y-101000001D01*
X128497914Y-88452380D02*
X128450295Y-88357141D01*
X128450295Y-88357141D02*
X128450295Y-88166665D01*
X128450295Y-88166665D02*
X128497914Y-88071427D01*
X128497914Y-88071427D02*
X128593152Y-87976189D01*
X128593152Y-87976189D02*
X128688390Y-87928570D01*
X128688390Y-87928570D02*
X128878866Y-87928570D01*
X128878866Y-87928570D02*
X128974104Y-87976189D01*
X128974104Y-87976189D02*
X129069342Y-88071427D01*
X129069342Y-88071427D02*
X129116961Y-88166665D01*
X129116961Y-88166665D02*
X129116961Y-88357141D01*
X129116961Y-88357141D02*
X129069342Y-88452380D01*
X128116961Y-88261903D02*
X128164580Y-88023808D01*
X128164580Y-88023808D02*
X128307438Y-87785713D01*
X128307438Y-87785713D02*
X128545533Y-87642856D01*
X128545533Y-87642856D02*
X128783628Y-87595237D01*
X128783628Y-87595237D02*
X129021723Y-87642856D01*
X129021723Y-87642856D02*
X129259819Y-87785713D01*
X129259819Y-87785713D02*
X129402676Y-88023808D01*
X129402676Y-88023808D02*
X129450295Y-88261903D01*
X129450295Y-88261903D02*
X129402676Y-88499999D01*
X129402676Y-88499999D02*
X129259819Y-88738094D01*
X129259819Y-88738094D02*
X129021723Y-88880951D01*
X129021723Y-88880951D02*
X128783628Y-88928570D01*
X128783628Y-88928570D02*
X128545533Y-88880951D01*
X128545533Y-88880951D02*
X128307438Y-88738094D01*
X128307438Y-88738094D02*
X128164580Y-88499999D01*
X128164580Y-88499999D02*
X128116961Y-88261903D01*
X128974104Y-90071428D02*
X128974104Y-90547618D01*
X129259819Y-89976190D02*
X128259819Y-90309523D01*
X128259819Y-90309523D02*
X129259819Y-90642856D01*
X129259819Y-91404761D02*
X128259819Y-91404761D01*
X129212200Y-91404761D02*
X129259819Y-91309523D01*
X129259819Y-91309523D02*
X129259819Y-91119047D01*
X129259819Y-91119047D02*
X129212200Y-91023809D01*
X129212200Y-91023809D02*
X129164580Y-90976190D01*
X129164580Y-90976190D02*
X129069342Y-90928571D01*
X129069342Y-90928571D02*
X128783628Y-90928571D01*
X128783628Y-90928571D02*
X128688390Y-90976190D01*
X128688390Y-90976190D02*
X128640771Y-91023809D01*
X128640771Y-91023809D02*
X128593152Y-91119047D01*
X128593152Y-91119047D02*
X128593152Y-91309523D01*
X128593152Y-91309523D02*
X128640771Y-91404761D01*
X129259819Y-92309523D02*
X128736009Y-92309523D01*
X128736009Y-92309523D02*
X128640771Y-92261904D01*
X128640771Y-92261904D02*
X128593152Y-92166666D01*
X128593152Y-92166666D02*
X128593152Y-91976190D01*
X128593152Y-91976190D02*
X128640771Y-91880952D01*
X129212200Y-92309523D02*
X129259819Y-92214285D01*
X129259819Y-92214285D02*
X129259819Y-91976190D01*
X129259819Y-91976190D02*
X129212200Y-91880952D01*
X129212200Y-91880952D02*
X129116961Y-91833333D01*
X129116961Y-91833333D02*
X129021723Y-91833333D01*
X129021723Y-91833333D02*
X128926485Y-91880952D01*
X128926485Y-91880952D02*
X128878866Y-91976190D01*
X128878866Y-91976190D02*
X128878866Y-92214285D01*
X128878866Y-92214285D02*
X128831247Y-92309523D01*
X128593152Y-92642857D02*
X128593152Y-93023809D01*
X129259819Y-92785714D02*
X128402676Y-92785714D01*
X128402676Y-92785714D02*
X128307438Y-92833333D01*
X128307438Y-92833333D02*
X128259819Y-92928571D01*
X128259819Y-92928571D02*
X128259819Y-93023809D01*
X129259819Y-93357143D02*
X128593152Y-93357143D01*
X128783628Y-93357143D02*
X128688390Y-93404762D01*
X128688390Y-93404762D02*
X128640771Y-93452381D01*
X128640771Y-93452381D02*
X128593152Y-93547619D01*
X128593152Y-93547619D02*
X128593152Y-93642857D01*
X128593152Y-94404762D02*
X129259819Y-94404762D01*
X128593152Y-93976191D02*
X129116961Y-93976191D01*
X129116961Y-93976191D02*
X129212200Y-94023810D01*
X129212200Y-94023810D02*
X129259819Y-94119048D01*
X129259819Y-94119048D02*
X129259819Y-94261905D01*
X129259819Y-94261905D02*
X129212200Y-94357143D01*
X129212200Y-94357143D02*
X129164580Y-94404762D01*
X129259819Y-94880953D02*
X128593152Y-94880953D01*
X128259819Y-94880953D02*
X128307438Y-94833334D01*
X128307438Y-94833334D02*
X128355057Y-94880953D01*
X128355057Y-94880953D02*
X128307438Y-94928572D01*
X128307438Y-94928572D02*
X128259819Y-94880953D01*
X128259819Y-94880953D02*
X128355057Y-94880953D01*
X128593152Y-95214286D02*
X128593152Y-95595238D01*
X128259819Y-95357143D02*
X129116961Y-95357143D01*
X129116961Y-95357143D02*
X129212200Y-95404762D01*
X129212200Y-95404762D02*
X129259819Y-95500000D01*
X129259819Y-95500000D02*
X129259819Y-95595238D01*
X129164580Y-97261905D02*
X129212200Y-97214286D01*
X129212200Y-97214286D02*
X129259819Y-97071429D01*
X129259819Y-97071429D02*
X129259819Y-96976191D01*
X129259819Y-96976191D02*
X129212200Y-96833334D01*
X129212200Y-96833334D02*
X129116961Y-96738096D01*
X129116961Y-96738096D02*
X129021723Y-96690477D01*
X129021723Y-96690477D02*
X128831247Y-96642858D01*
X128831247Y-96642858D02*
X128688390Y-96642858D01*
X128688390Y-96642858D02*
X128497914Y-96690477D01*
X128497914Y-96690477D02*
X128402676Y-96738096D01*
X128402676Y-96738096D02*
X128307438Y-96833334D01*
X128307438Y-96833334D02*
X128259819Y-96976191D01*
X128259819Y-96976191D02*
X128259819Y-97071429D01*
X128259819Y-97071429D02*
X128307438Y-97214286D01*
X128307438Y-97214286D02*
X128355057Y-97261905D01*
X129164580Y-98261905D02*
X129212200Y-98214286D01*
X129212200Y-98214286D02*
X129259819Y-98071429D01*
X129259819Y-98071429D02*
X129259819Y-97976191D01*
X129259819Y-97976191D02*
X129212200Y-97833334D01*
X129212200Y-97833334D02*
X129116961Y-97738096D01*
X129116961Y-97738096D02*
X129021723Y-97690477D01*
X129021723Y-97690477D02*
X128831247Y-97642858D01*
X128831247Y-97642858D02*
X128688390Y-97642858D01*
X128688390Y-97642858D02*
X128497914Y-97690477D01*
X128497914Y-97690477D02*
X128402676Y-97738096D01*
X128402676Y-97738096D02*
X128307438Y-97833334D01*
X128307438Y-97833334D02*
X128259819Y-97976191D01*
X128259819Y-97976191D02*
X128259819Y-98071429D01*
X128259819Y-98071429D02*
X128307438Y-98214286D01*
X128307438Y-98214286D02*
X128355057Y-98261905D01*
X128878866Y-98690477D02*
X128878866Y-99452382D01*
X128736009Y-100261905D02*
X128783628Y-100404762D01*
X128783628Y-100404762D02*
X128831247Y-100452381D01*
X128831247Y-100452381D02*
X128926485Y-100500000D01*
X128926485Y-100500000D02*
X129069342Y-100500000D01*
X129069342Y-100500000D02*
X129164580Y-100452381D01*
X129164580Y-100452381D02*
X129212200Y-100404762D01*
X129212200Y-100404762D02*
X129259819Y-100309524D01*
X129259819Y-100309524D02*
X129259819Y-99928572D01*
X129259819Y-99928572D02*
X128259819Y-99928572D01*
X128259819Y-99928572D02*
X128259819Y-100261905D01*
X128259819Y-100261905D02*
X128307438Y-100357143D01*
X128307438Y-100357143D02*
X128355057Y-100404762D01*
X128355057Y-100404762D02*
X128450295Y-100452381D01*
X128450295Y-100452381D02*
X128545533Y-100452381D01*
X128545533Y-100452381D02*
X128640771Y-100404762D01*
X128640771Y-100404762D02*
X128688390Y-100357143D01*
X128688390Y-100357143D02*
X128736009Y-100261905D01*
X128736009Y-100261905D02*
X128736009Y-99928572D01*
X128783628Y-101119048D02*
X129259819Y-101119048D01*
X128259819Y-100785715D02*
X128783628Y-101119048D01*
X128783628Y-101119048D02*
X128259819Y-101452381D01*
X128878866Y-101785715D02*
X128878866Y-102547620D01*
X129212200Y-102976191D02*
X129259819Y-103119048D01*
X129259819Y-103119048D02*
X129259819Y-103357143D01*
X129259819Y-103357143D02*
X129212200Y-103452381D01*
X129212200Y-103452381D02*
X129164580Y-103500000D01*
X129164580Y-103500000D02*
X129069342Y-103547619D01*
X129069342Y-103547619D02*
X128974104Y-103547619D01*
X128974104Y-103547619D02*
X128878866Y-103500000D01*
X128878866Y-103500000D02*
X128831247Y-103452381D01*
X128831247Y-103452381D02*
X128783628Y-103357143D01*
X128783628Y-103357143D02*
X128736009Y-103166667D01*
X128736009Y-103166667D02*
X128688390Y-103071429D01*
X128688390Y-103071429D02*
X128640771Y-103023810D01*
X128640771Y-103023810D02*
X128545533Y-102976191D01*
X128545533Y-102976191D02*
X128450295Y-102976191D01*
X128450295Y-102976191D02*
X128355057Y-103023810D01*
X128355057Y-103023810D02*
X128307438Y-103071429D01*
X128307438Y-103071429D02*
X128259819Y-103166667D01*
X128259819Y-103166667D02*
X128259819Y-103404762D01*
X128259819Y-103404762D02*
X128307438Y-103547619D01*
X128974104Y-103928572D02*
X128974104Y-104404762D01*
X129259819Y-103833334D02*
X128259819Y-104166667D01*
X128259819Y-104166667D02*
X129259819Y-104500000D01*
%TO.C,G1*%
G36*
X161774585Y-92651055D02*
G01*
X161822506Y-92685101D01*
X161870051Y-92757308D01*
X161883400Y-92841604D01*
X161863804Y-92926528D01*
X161812512Y-93000621D01*
X161730777Y-93052422D01*
X161674576Y-93059550D01*
X161593468Y-93037208D01*
X161518120Y-92984814D01*
X161512554Y-92979145D01*
X161466934Y-92903433D01*
X161459825Y-92823246D01*
X161484730Y-92747038D01*
X161535154Y-92683261D01*
X161604601Y-92640370D01*
X161686576Y-92626817D01*
X161774585Y-92651055D01*
G37*
G36*
X163594218Y-87178873D02*
G01*
X163768242Y-87186848D01*
X163822033Y-87189114D01*
X163927792Y-87192502D01*
X163996772Y-87191990D01*
X164036600Y-87186875D01*
X164054902Y-87176454D01*
X164059308Y-87160024D01*
X164067675Y-87126486D01*
X164098632Y-87077063D01*
X164124065Y-87055177D01*
X164188680Y-87035050D01*
X164252499Y-87050065D01*
X164301252Y-87094679D01*
X164320674Y-87163347D01*
X164323938Y-87190152D01*
X164348557Y-87217745D01*
X164408086Y-87234805D01*
X164411117Y-87235403D01*
X164494837Y-87269519D01*
X164574410Y-87330116D01*
X164614101Y-87374109D01*
X164645246Y-87433213D01*
X164653321Y-87506446D01*
X164653537Y-87534525D01*
X164653594Y-87541876D01*
X164660486Y-87585347D01*
X164686306Y-87601493D01*
X164743611Y-87603864D01*
X164759955Y-87604134D01*
X164837020Y-87618946D01*
X164878526Y-87660508D01*
X164890927Y-87734547D01*
X164890622Y-87749045D01*
X164873925Y-87817409D01*
X164827073Y-87854229D01*
X164743611Y-87865230D01*
X164690216Y-87868094D01*
X164659689Y-87883282D01*
X164658118Y-87889927D01*
X164651316Y-87918691D01*
X164649164Y-87950557D01*
X164642089Y-88023589D01*
X164632244Y-88108775D01*
X164626103Y-88168768D01*
X164624000Y-88224064D01*
X164628417Y-88245398D01*
X164641928Y-88233913D01*
X164686429Y-88191702D01*
X164758964Y-88121274D01*
X164856532Y-88025591D01*
X164976131Y-87907617D01*
X165114757Y-87770314D01*
X165269410Y-87616644D01*
X165437087Y-87449570D01*
X165614785Y-87272054D01*
X165723871Y-87162969D01*
X165913209Y-86973868D01*
X166073035Y-86814770D01*
X166205999Y-86683240D01*
X166314754Y-86576841D01*
X166401952Y-86493139D01*
X166470242Y-86429697D01*
X166522278Y-86384079D01*
X166560711Y-86353849D01*
X166588192Y-86336572D01*
X166607372Y-86329812D01*
X166620903Y-86331133D01*
X166631437Y-86338099D01*
X166631443Y-86338104D01*
X166639022Y-86347442D01*
X166641075Y-86359843D01*
X166635258Y-86377846D01*
X166619227Y-86403992D01*
X166590638Y-86440823D01*
X166547146Y-86490877D01*
X166486407Y-86556696D01*
X166406076Y-86640820D01*
X166303810Y-86745789D01*
X166177264Y-86874144D01*
X166024093Y-87028425D01*
X165841953Y-87211173D01*
X165628501Y-87424928D01*
X165597647Y-87455817D01*
X165377554Y-87676623D01*
X165189156Y-87866593D01*
X165030446Y-88027851D01*
X164899413Y-88162521D01*
X164794047Y-88272727D01*
X164712339Y-88360594D01*
X164652280Y-88428245D01*
X164611858Y-88477804D01*
X164589066Y-88511397D01*
X164581892Y-88531146D01*
X164581817Y-88533621D01*
X164578600Y-88574741D01*
X164577422Y-88587579D01*
X164570942Y-88658206D01*
X164559263Y-88779812D01*
X164543981Y-88935355D01*
X164525514Y-89120630D01*
X164504282Y-89331432D01*
X164480704Y-89563558D01*
X164455196Y-89812801D01*
X164428180Y-90074958D01*
X164274614Y-91559991D01*
X164345847Y-91631273D01*
X165474171Y-92760365D01*
X165684701Y-92971110D01*
X165885678Y-93172563D01*
X166057217Y-93344986D01*
X166201524Y-93490743D01*
X166320806Y-93612202D01*
X166417270Y-93711727D01*
X166493120Y-93791685D01*
X166550564Y-93854441D01*
X166591807Y-93902361D01*
X166619057Y-93937811D01*
X166634518Y-93963158D01*
X166640397Y-93980766D01*
X166638901Y-93993002D01*
X166632235Y-94002232D01*
X166626230Y-94007215D01*
X166615132Y-94010772D01*
X166599424Y-94007588D01*
X166576696Y-93995422D01*
X166544537Y-93972028D01*
X166500535Y-93935164D01*
X166442280Y-93882585D01*
X166367362Y-93812048D01*
X166273368Y-93721309D01*
X166157888Y-93608125D01*
X166018512Y-93470251D01*
X165852828Y-93305444D01*
X165658425Y-93111460D01*
X165432892Y-92886055D01*
X165306671Y-92759978D01*
X165118727Y-92572725D01*
X164942454Y-92397669D01*
X164780585Y-92237494D01*
X164635854Y-92094883D01*
X164510994Y-91972521D01*
X164408739Y-91873091D01*
X164331821Y-91799276D01*
X164282974Y-91753761D01*
X164264931Y-91739230D01*
X164262816Y-91746919D01*
X164255695Y-91794221D01*
X164245285Y-91878492D01*
X164232374Y-91992889D01*
X164217747Y-92130568D01*
X164202193Y-92284687D01*
X164194839Y-92357396D01*
X164178079Y-92510181D01*
X164161406Y-92646394D01*
X164145854Y-92758345D01*
X164132460Y-92838344D01*
X164122257Y-92878700D01*
X164121052Y-92881208D01*
X164078995Y-92932431D01*
X164018242Y-92973742D01*
X164009088Y-92978031D01*
X163970929Y-92999833D01*
X163950708Y-93027912D01*
X163942660Y-93076014D01*
X163941020Y-93157886D01*
X163940506Y-93306389D01*
X163631619Y-93306389D01*
X163631619Y-92997503D01*
X162120093Y-92997503D01*
X162047841Y-93100008D01*
X161980434Y-93176289D01*
X161863997Y-93252863D01*
X161731322Y-93290411D01*
X161591493Y-93286794D01*
X161453592Y-93239874D01*
X161420840Y-93221080D01*
X161319934Y-93131999D01*
X161252667Y-93019610D01*
X161221613Y-92897953D01*
X161388912Y-92897953D01*
X161397801Y-92925522D01*
X161432937Y-92987904D01*
X161481727Y-93049855D01*
X161532407Y-93097417D01*
X161573213Y-93116630D01*
X161595101Y-93118383D01*
X161647615Y-93127008D01*
X161717907Y-93130597D01*
X161808551Y-93101176D01*
X161883734Y-93039634D01*
X161936380Y-92954887D01*
X161959411Y-92855849D01*
X161945750Y-92751435D01*
X161916705Y-92688051D01*
X161846960Y-92610407D01*
X161758458Y-92565685D01*
X161661293Y-92554376D01*
X161565558Y-92576971D01*
X161481345Y-92633958D01*
X161418746Y-92725830D01*
X161391803Y-92807596D01*
X161388912Y-92897953D01*
X161221613Y-92897953D01*
X161220430Y-92893317D01*
X161224614Y-92762528D01*
X161266612Y-92636649D01*
X161347816Y-92525085D01*
X161433830Y-92439071D01*
X161400815Y-92082693D01*
X161394820Y-92019442D01*
X161382930Y-91902194D01*
X161372217Y-91806781D01*
X161363664Y-91741706D01*
X161358259Y-91715469D01*
X161349181Y-91722169D01*
X161309530Y-91758536D01*
X161240944Y-91824042D01*
X161146144Y-91916017D01*
X161027844Y-92031790D01*
X160888764Y-92168691D01*
X160731621Y-92324050D01*
X160559132Y-92495198D01*
X160374016Y-92679462D01*
X160178989Y-92874175D01*
X160009396Y-93043696D01*
X159805723Y-93247049D01*
X159631433Y-93420610D01*
X159484128Y-93566612D01*
X159361411Y-93687290D01*
X159260884Y-93784876D01*
X159180149Y-93861602D01*
X159116809Y-93919704D01*
X159068464Y-93961413D01*
X159032718Y-93988963D01*
X159007173Y-94004586D01*
X158989432Y-94010517D01*
X158977095Y-94008987D01*
X158967766Y-94002232D01*
X158961245Y-93993297D01*
X158959599Y-93981200D01*
X158965238Y-93963798D01*
X158980359Y-93938736D01*
X159007156Y-93903657D01*
X159047824Y-93856207D01*
X159104560Y-93794028D01*
X159179557Y-93714765D01*
X159275012Y-93616062D01*
X159393120Y-93495562D01*
X159536075Y-93350911D01*
X159706073Y-93179751D01*
X159905310Y-92979728D01*
X160135980Y-92748484D01*
X161274557Y-91607512D01*
X161442532Y-91607512D01*
X161454971Y-91714434D01*
X161461064Y-91769876D01*
X161471072Y-91866145D01*
X161482850Y-91983111D01*
X161494941Y-92106483D01*
X161522472Y-92391609D01*
X161668205Y-92391748D01*
X161744000Y-92394683D01*
X161829105Y-92411479D01*
X161903834Y-92447638D01*
X162003210Y-92530186D01*
X162084396Y-92650524D01*
X162125779Y-92789015D01*
X162134645Y-92855849D01*
X162140828Y-92902461D01*
X164012806Y-92902461D01*
X164035324Y-92848999D01*
X164040998Y-92826750D01*
X164052293Y-92759797D01*
X164066559Y-92657798D01*
X164082864Y-92527942D01*
X164100273Y-92377415D01*
X164117854Y-92213405D01*
X164177866Y-91631273D01*
X162800106Y-90253369D01*
X162121319Y-90930441D01*
X161442532Y-91607512D01*
X161274557Y-91607512D01*
X161345689Y-91536230D01*
X161195817Y-90098719D01*
X161194246Y-90083649D01*
X161167601Y-89828339D01*
X161142438Y-89587661D01*
X161119184Y-89365694D01*
X161098271Y-89166518D01*
X161080126Y-88994211D01*
X161065181Y-88852854D01*
X161053864Y-88746524D01*
X161046605Y-88679302D01*
X161043834Y-88655267D01*
X161022769Y-88652351D01*
X160966346Y-88650163D01*
X160887278Y-88649327D01*
X160732835Y-88649327D01*
X160732835Y-88610171D01*
X161144239Y-88610171D01*
X161145046Y-88629309D01*
X161150231Y-88691857D01*
X161159559Y-88793825D01*
X161172624Y-88931051D01*
X161189020Y-89099374D01*
X161208342Y-89294634D01*
X161230184Y-89512669D01*
X161254140Y-89749318D01*
X161279805Y-90000419D01*
X161302435Y-90221100D01*
X161326946Y-90460795D01*
X161349573Y-90682802D01*
X161369891Y-90882895D01*
X161387472Y-91056847D01*
X161401889Y-91200432D01*
X161412716Y-91309425D01*
X161419525Y-91379599D01*
X161421890Y-91406728D01*
X161422251Y-91411226D01*
X161439879Y-91429308D01*
X161440469Y-91429137D01*
X161463924Y-91409701D01*
X161516685Y-91360611D01*
X161594955Y-91285562D01*
X161694939Y-91188247D01*
X161812840Y-91072359D01*
X161944859Y-90941591D01*
X162087201Y-90799638D01*
X162716535Y-90169968D01*
X162883460Y-90169968D01*
X163524680Y-90811518D01*
X163549339Y-90836176D01*
X163691584Y-90977890D01*
X163822896Y-91107839D01*
X163939515Y-91222366D01*
X164037683Y-91317810D01*
X164113641Y-91390515D01*
X164163628Y-91436820D01*
X164183886Y-91453069D01*
X164194059Y-91444993D01*
X164201871Y-91407321D01*
X164201979Y-91403766D01*
X164205320Y-91359994D01*
X164212882Y-91276711D01*
X164224040Y-91160328D01*
X164238173Y-91017255D01*
X164254657Y-90853904D01*
X164272868Y-90676685D01*
X164285916Y-90550799D01*
X164311107Y-90307682D01*
X164338450Y-90043722D01*
X164366218Y-89775594D01*
X164392684Y-89519973D01*
X164416121Y-89293530D01*
X164421874Y-89237672D01*
X164439271Y-89065310D01*
X164454350Y-88910680D01*
X164466572Y-88779688D01*
X164475396Y-88678237D01*
X164480282Y-88612232D01*
X164480691Y-88587579D01*
X164463159Y-88602049D01*
X164415366Y-88646972D01*
X164340624Y-88719123D01*
X164242236Y-88815263D01*
X164123501Y-88932153D01*
X163987721Y-89066554D01*
X163838198Y-89215226D01*
X163678233Y-89374930D01*
X162883461Y-90169967D01*
X162883460Y-90169968D01*
X162716535Y-90169968D01*
X162716536Y-90169967D01*
X161933647Y-89386809D01*
X161785432Y-89238779D01*
X161636413Y-89090451D01*
X161500997Y-88956185D01*
X161382507Y-88839250D01*
X161284265Y-88742913D01*
X161209591Y-88670442D01*
X161161809Y-88625105D01*
X161144239Y-88610171D01*
X160732835Y-88610171D01*
X160732835Y-88554285D01*
X160827877Y-88554285D01*
X160934799Y-88554285D01*
X160952654Y-88554056D01*
X161019593Y-88545242D01*
X161041722Y-88523466D01*
X161040208Y-88516862D01*
X161016185Y-88479109D01*
X160972362Y-88427347D01*
X160920999Y-88374443D01*
X160874357Y-88333265D01*
X160844696Y-88316679D01*
X160838642Y-88324684D01*
X160830904Y-88367698D01*
X160827877Y-88435482D01*
X160827877Y-88554285D01*
X160732835Y-88554285D01*
X160732835Y-88200323D01*
X160924809Y-88200323D01*
X160951432Y-88240646D01*
X160979778Y-88263531D01*
X161002861Y-88262195D01*
X161001085Y-88221637D01*
X160987704Y-88194023D01*
X160955789Y-88174116D01*
X160937109Y-88177006D01*
X160924809Y-88200323D01*
X160732835Y-88200323D01*
X160732835Y-88186225D01*
X159828810Y-87281971D01*
X159807932Y-87261087D01*
X159613841Y-87066798D01*
X159450674Y-86903016D01*
X159315926Y-86766991D01*
X159207089Y-86655974D01*
X159121657Y-86567217D01*
X159057124Y-86497968D01*
X159010984Y-86445480D01*
X158980729Y-86407002D01*
X158963854Y-86379785D01*
X158957852Y-86361080D01*
X158960217Y-86348138D01*
X158968442Y-86338209D01*
X158979139Y-86330968D01*
X158992935Y-86329310D01*
X159012398Y-86335971D01*
X159040312Y-86353487D01*
X159079463Y-86384396D01*
X159132635Y-86431235D01*
X159202613Y-86496541D01*
X159292181Y-86582852D01*
X159404124Y-86692704D01*
X159541226Y-86828636D01*
X159706273Y-86993185D01*
X159902049Y-87188887D01*
X160021269Y-87308128D01*
X160198320Y-87485031D01*
X160346491Y-87632564D01*
X160468745Y-87753393D01*
X160568047Y-87850184D01*
X160647362Y-87925603D01*
X160709655Y-87982316D01*
X160757891Y-88022990D01*
X160795035Y-88050290D01*
X160824051Y-88066882D01*
X160847904Y-88075433D01*
X160869558Y-88078608D01*
X160891980Y-88079074D01*
X160991962Y-88079074D01*
X160977557Y-87954331D01*
X160970161Y-87906411D01*
X160959130Y-87865230D01*
X161059344Y-87865230D01*
X161074738Y-88013733D01*
X161081093Y-88078292D01*
X161090009Y-88174564D01*
X161098878Y-88251453D01*
X161100983Y-88262195D01*
X161111321Y-88314964D01*
X161130955Y-88371099D01*
X161161398Y-88425863D01*
X161206270Y-88485259D01*
X161240596Y-88523466D01*
X161269188Y-88555291D01*
X161353771Y-88641963D01*
X161463637Y-88751279D01*
X161602405Y-88889241D01*
X162087185Y-89373588D01*
X162087185Y-89100777D01*
X163251450Y-89100777D01*
X163251450Y-89362143D01*
X162681198Y-89362143D01*
X162569670Y-89362493D01*
X162421844Y-89364139D01*
X162295566Y-89366946D01*
X162197328Y-89370707D01*
X162133623Y-89375218D01*
X162110945Y-89380270D01*
X162111618Y-89382086D01*
X162133863Y-89409684D01*
X162183867Y-89464263D01*
X162256569Y-89540504D01*
X162346910Y-89633082D01*
X162449830Y-89736678D01*
X162471801Y-89758585D01*
X162573220Y-89859053D01*
X162662010Y-89945959D01*
X162732953Y-90014268D01*
X162780829Y-90058947D01*
X162800422Y-90074958D01*
X162802064Y-90073900D01*
X162828560Y-90049611D01*
X162884557Y-89995612D01*
X162966840Y-89915079D01*
X163072196Y-89811187D01*
X163197413Y-89687110D01*
X163339278Y-89546023D01*
X163494577Y-89391101D01*
X163660096Y-89225519D01*
X164508064Y-88376081D01*
X164533172Y-88145352D01*
X164539724Y-88084285D01*
X164549272Y-87991618D01*
X164555837Y-87922962D01*
X164558279Y-87889927D01*
X164538017Y-87884686D01*
X164475868Y-87880045D01*
X164371125Y-87876055D01*
X164223085Y-87872706D01*
X164031044Y-87869988D01*
X163794300Y-87867891D01*
X163512149Y-87866406D01*
X163183888Y-87865522D01*
X162808812Y-87865230D01*
X161059344Y-87865230D01*
X160959130Y-87865230D01*
X160954266Y-87847074D01*
X160937096Y-87819830D01*
X160925430Y-87813109D01*
X160883663Y-87779580D01*
X160837602Y-87736453D01*
X161175239Y-87736453D01*
X161179378Y-87742871D01*
X161194913Y-87748434D01*
X161224856Y-87753201D01*
X161272216Y-87757232D01*
X161340004Y-87760585D01*
X161431230Y-87763322D01*
X161548905Y-87765500D01*
X161696038Y-87767180D01*
X161875641Y-87768422D01*
X162090723Y-87769283D01*
X162344295Y-87769825D01*
X162639367Y-87770107D01*
X162978950Y-87770187D01*
X163053169Y-87770184D01*
X163383712Y-87770063D01*
X163670394Y-87769723D01*
X163916245Y-87769105D01*
X164124296Y-87768149D01*
X164297578Y-87766797D01*
X164439122Y-87764988D01*
X164551960Y-87762662D01*
X164639122Y-87759762D01*
X164703639Y-87756226D01*
X164748543Y-87751997D01*
X164776865Y-87747013D01*
X164791635Y-87741216D01*
X164795884Y-87734547D01*
X164795791Y-87733441D01*
X164790092Y-87726889D01*
X164773380Y-87721207D01*
X164742614Y-87716334D01*
X164694751Y-87712211D01*
X164626749Y-87708777D01*
X164535564Y-87705973D01*
X164418156Y-87703737D01*
X164271481Y-87702010D01*
X164092498Y-87700732D01*
X163878163Y-87699843D01*
X163625434Y-87699282D01*
X163331270Y-87698990D01*
X162992627Y-87698906D01*
X162960363Y-87698906D01*
X162625375Y-87699010D01*
X162334570Y-87699333D01*
X162084886Y-87699935D01*
X161873257Y-87700877D01*
X161696622Y-87702219D01*
X161551917Y-87704020D01*
X161436078Y-87706341D01*
X161346042Y-87709242D01*
X161278746Y-87712782D01*
X161231126Y-87717023D01*
X161200119Y-87722024D01*
X161182663Y-87727845D01*
X161175692Y-87734547D01*
X161175239Y-87736453D01*
X160837602Y-87736453D01*
X160830778Y-87730064D01*
X160812693Y-87711712D01*
X160772933Y-87662410D01*
X160759347Y-87615600D01*
X160763967Y-87549776D01*
X160770546Y-87515418D01*
X160814331Y-87423307D01*
X160857967Y-87387893D01*
X161161280Y-87387893D01*
X161169689Y-87407244D01*
X161196921Y-87448022D01*
X161217429Y-87485688D01*
X161231806Y-87549004D01*
X161231806Y-87603864D01*
X164059308Y-87603864D01*
X164320674Y-87603864D01*
X164439477Y-87603864D01*
X164496701Y-87603095D01*
X164539078Y-87596053D01*
X164555521Y-87575580D01*
X164558279Y-87534525D01*
X164551485Y-87457445D01*
X164522001Y-87397285D01*
X164461538Y-87353499D01*
X164438639Y-87341986D01*
X164377020Y-87318948D01*
X164341268Y-87327750D01*
X164324710Y-87373499D01*
X164320674Y-87461301D01*
X164320674Y-87603864D01*
X164059308Y-87603864D01*
X164059308Y-87298759D01*
X163910805Y-87285812D01*
X163857908Y-87281581D01*
X163748798Y-87273959D01*
X163621845Y-87266005D01*
X163494996Y-87258883D01*
X163379115Y-87253571D01*
X163301187Y-87252486D01*
X163255165Y-87256387D01*
X163233261Y-87265942D01*
X163227690Y-87281820D01*
X163226572Y-87288603D01*
X163215066Y-87299864D01*
X163186176Y-87307973D01*
X163133874Y-87313422D01*
X163052135Y-87316703D01*
X162934932Y-87318311D01*
X162776240Y-87318737D01*
X162762214Y-87318735D01*
X162604837Y-87318095D01*
X162488839Y-87316047D01*
X162408529Y-87312169D01*
X162358212Y-87306040D01*
X162332197Y-87297238D01*
X162324790Y-87285343D01*
X162324689Y-87280213D01*
X162322003Y-87271288D01*
X162311845Y-87264837D01*
X162289221Y-87260922D01*
X162249134Y-87259604D01*
X162186592Y-87260946D01*
X162096599Y-87265008D01*
X161974162Y-87271852D01*
X161814285Y-87281540D01*
X161611974Y-87294133D01*
X161502473Y-87302296D01*
X161356757Y-87318783D01*
X161249259Y-87338973D01*
X161183071Y-87362224D01*
X161161280Y-87387893D01*
X160857967Y-87387893D01*
X160887790Y-87363689D01*
X160984608Y-87342498D01*
X161061126Y-87328804D01*
X161131900Y-87294816D01*
X161141324Y-87288246D01*
X161196063Y-87260895D01*
X161272375Y-87238413D01*
X161375448Y-87220032D01*
X161510468Y-87204989D01*
X161682623Y-87192516D01*
X161897101Y-87181848D01*
X162031503Y-87176174D01*
X162419832Y-87176174D01*
X162420098Y-87184247D01*
X162425365Y-87200223D01*
X162442855Y-87211183D01*
X162479629Y-87218069D01*
X162542745Y-87221822D01*
X162639262Y-87223384D01*
X162776240Y-87223695D01*
X162836788Y-87223660D01*
X162956604Y-87222958D01*
X163038804Y-87220626D01*
X163090450Y-87215722D01*
X163118599Y-87207307D01*
X163130312Y-87194438D01*
X163132648Y-87176174D01*
X163132382Y-87168101D01*
X163127115Y-87152126D01*
X163109624Y-87141166D01*
X163072851Y-87134280D01*
X163009735Y-87130526D01*
X162913218Y-87128965D01*
X162776240Y-87128653D01*
X162715691Y-87128689D01*
X162595876Y-87129391D01*
X162513676Y-87131723D01*
X162462030Y-87136626D01*
X162433881Y-87145042D01*
X162422168Y-87157911D01*
X162419832Y-87176174D01*
X162031503Y-87176174D01*
X162312910Y-87164294D01*
X162320428Y-87098953D01*
X162327946Y-87033611D01*
X163227690Y-87033611D01*
X163227690Y-87091303D01*
X163228791Y-87107120D01*
X163237351Y-87126954D01*
X163259260Y-87142298D01*
X163300211Y-87154155D01*
X163365893Y-87163533D01*
X163461998Y-87171437D01*
X163546227Y-87176174D01*
X163594218Y-87178873D01*
G37*
%TO.C,G\u002A\u002A\u002A*%
G36*
X162908133Y-104161186D02*
G01*
X162938287Y-104199888D01*
X162956948Y-104278038D01*
X162937204Y-104354591D01*
X162881292Y-104408905D01*
X162818303Y-104425777D01*
X162743594Y-104408805D01*
X162689004Y-104358061D01*
X162665847Y-104285448D01*
X162685439Y-104202870D01*
X162694066Y-104188738D01*
X162757001Y-104137655D01*
X162835176Y-104127194D01*
X162908133Y-104161186D01*
G37*
G36*
X157131238Y-98272422D02*
G01*
X157141199Y-98284762D01*
X157162091Y-98353322D01*
X157154972Y-98433368D01*
X157121082Y-98497401D01*
X157072218Y-98530162D01*
X156994783Y-98533435D01*
X156917976Y-98485684D01*
X156880736Y-98437726D01*
X156867426Y-98364006D01*
X156908543Y-98289613D01*
X156919332Y-98279220D01*
X156988996Y-98246215D01*
X157068373Y-98243274D01*
X157131238Y-98272422D01*
G37*
G36*
X157106818Y-109940295D02*
G01*
X157130437Y-109957743D01*
X157165788Y-110023471D01*
X157166582Y-110104747D01*
X157130760Y-110180894D01*
X157103331Y-110202912D01*
X157033725Y-110216377D01*
X156959027Y-110196154D01*
X156901057Y-110145597D01*
X156896156Y-110137679D01*
X156875205Y-110059607D01*
X156896751Y-109989901D01*
X156949840Y-109939493D01*
X157023514Y-109919314D01*
X157106818Y-109940295D01*
G37*
G36*
X151144351Y-104120215D02*
G01*
X151209308Y-104154667D01*
X151263199Y-104214830D01*
X151285683Y-104280071D01*
X151278036Y-104317654D01*
X151242719Y-104375765D01*
X151229428Y-104386883D01*
X151158698Y-104414063D01*
X151078969Y-104414156D01*
X151017739Y-104385921D01*
X150994671Y-104350605D01*
X150986422Y-104276612D01*
X151010522Y-104200829D01*
X151059498Y-104141777D01*
X151125873Y-104117977D01*
X151144351Y-104120215D01*
G37*
G36*
X159870827Y-103912915D02*
G01*
X159936893Y-103983240D01*
X159063278Y-104857174D01*
X158917784Y-105002500D01*
X158746861Y-105172629D01*
X158590930Y-105327182D01*
X158453924Y-105462296D01*
X158339772Y-105574108D01*
X158252407Y-105658756D01*
X158195761Y-105712377D01*
X158173763Y-105731109D01*
X158173385Y-105731093D01*
X158144734Y-105712289D01*
X158099192Y-105668656D01*
X158040521Y-105606204D01*
X158922641Y-104724397D01*
X159804760Y-103842591D01*
X159870827Y-103912915D01*
G37*
G36*
X162050647Y-105055012D02*
G01*
X162125791Y-105130155D01*
X160061940Y-107194141D01*
X159782765Y-107473191D01*
X159514384Y-107741166D01*
X159259362Y-107995526D01*
X159020224Y-108233760D01*
X158799499Y-108453361D01*
X158599714Y-108651820D01*
X158423397Y-108826629D01*
X158273074Y-108975279D01*
X158151274Y-109095263D01*
X158060524Y-109184071D01*
X158003351Y-109239195D01*
X157982282Y-109258127D01*
X157980207Y-109257726D01*
X157949014Y-109235186D01*
X157901269Y-109188719D01*
X157836063Y-109119310D01*
X159905784Y-107049590D01*
X161975504Y-104979869D01*
X162050647Y-105055012D01*
G37*
G36*
X154148898Y-107049590D02*
G01*
X156218619Y-109119310D01*
X156153413Y-109188719D01*
X156146314Y-109196179D01*
X156099856Y-109240166D01*
X156072399Y-109258127D01*
X156051336Y-109239200D01*
X155994167Y-109184080D01*
X155903421Y-109095276D01*
X155781624Y-108975296D01*
X155631305Y-108826649D01*
X155454991Y-108651843D01*
X155255209Y-108453387D01*
X155034486Y-108233788D01*
X154795351Y-107995556D01*
X154540330Y-107741199D01*
X154271951Y-107473224D01*
X153992742Y-107194141D01*
X151928891Y-105130155D01*
X152004035Y-105055012D01*
X152079178Y-104979869D01*
X154148898Y-107049590D01*
G37*
G36*
X154210861Y-105443693D02*
G01*
X156327942Y-107560905D01*
X156262757Y-107630291D01*
X156255676Y-107637732D01*
X156209223Y-107681716D01*
X156181766Y-107699677D01*
X156181075Y-107699290D01*
X156154754Y-107675070D01*
X156092651Y-107614980D01*
X155997265Y-107521500D01*
X155871091Y-107397108D01*
X155716628Y-107244285D01*
X155536374Y-107065508D01*
X155332825Y-106863257D01*
X155108478Y-106640011D01*
X154865832Y-106398249D01*
X154607384Y-106140450D01*
X154335632Y-105869093D01*
X154053072Y-105586657D01*
X151940183Y-103473637D01*
X152016982Y-103400058D01*
X152093781Y-103326480D01*
X154210861Y-105443693D01*
G37*
G36*
X158447966Y-99752148D02*
G01*
X158448115Y-99752295D01*
X158500525Y-99803540D01*
X158588383Y-99889201D01*
X158707956Y-100005651D01*
X158855512Y-100149262D01*
X159027319Y-100316407D01*
X159219644Y-100503460D01*
X159428755Y-100706793D01*
X159650919Y-100922780D01*
X159882404Y-101147792D01*
X160119478Y-101378204D01*
X160358408Y-101610389D01*
X160595462Y-101840718D01*
X160826908Y-102065566D01*
X161049012Y-102281305D01*
X161258043Y-102484308D01*
X161450268Y-102670948D01*
X161621955Y-102837599D01*
X161769371Y-102980632D01*
X161888785Y-103096422D01*
X161976463Y-103181340D01*
X162028673Y-103231761D01*
X162043182Y-103245860D01*
X162090519Y-103298317D01*
X162102722Y-103333479D01*
X162085881Y-103365595D01*
X162064296Y-103404292D01*
X162081814Y-103441729D01*
X162082155Y-103446561D01*
X162069093Y-103468909D01*
X162036675Y-103509683D01*
X161983400Y-103570423D01*
X161907765Y-103652670D01*
X161808269Y-103757965D01*
X161683410Y-103887849D01*
X161531688Y-104043861D01*
X161351599Y-104227543D01*
X161141643Y-104440435D01*
X160900318Y-104684079D01*
X160626121Y-104960014D01*
X160317553Y-105269781D01*
X159973111Y-105614921D01*
X159591292Y-105996975D01*
X159507448Y-106080814D01*
X159200904Y-106387190D01*
X158905611Y-106682091D01*
X158623850Y-106963248D01*
X158357905Y-107228394D01*
X158110057Y-107475259D01*
X157882590Y-107701576D01*
X157677784Y-107905077D01*
X157497923Y-108083493D01*
X157345289Y-108234556D01*
X157222164Y-108355998D01*
X157130831Y-108445550D01*
X157073571Y-108500945D01*
X157052668Y-108519914D01*
X157050598Y-108519514D01*
X157019419Y-108496983D01*
X156971683Y-108450523D01*
X156906494Y-108381132D01*
X161892236Y-103393434D01*
X159966640Y-101520972D01*
X158041044Y-99648509D01*
X158114075Y-99572282D01*
X158187105Y-99496054D01*
X158447966Y-99752148D01*
G37*
G36*
X156224307Y-99219930D02*
G01*
X156260171Y-99238804D01*
X156313678Y-99280224D01*
X156389940Y-99348363D01*
X156494068Y-99447392D01*
X156631176Y-99581483D01*
X157028312Y-99972768D01*
X157164737Y-99838395D01*
X157301163Y-99704021D01*
X157449478Y-99852336D01*
X157318289Y-99985527D01*
X157187101Y-100118718D01*
X157729234Y-100650261D01*
X157759819Y-100680238D01*
X157909890Y-100827120D01*
X158089425Y-101002573D01*
X158290540Y-101198906D01*
X158505350Y-101408430D01*
X158725973Y-101623453D01*
X158944525Y-101836285D01*
X159153121Y-102039236D01*
X159296654Y-102179049D01*
X159468952Y-102347558D01*
X159625514Y-102501426D01*
X159762415Y-102636756D01*
X159875727Y-102749648D01*
X159961526Y-102836205D01*
X160015884Y-102892528D01*
X160034876Y-102914720D01*
X160034508Y-102916925D01*
X160012097Y-102949475D01*
X159965626Y-102997829D01*
X159896376Y-103062886D01*
X159480319Y-102652321D01*
X159398909Y-102572038D01*
X159171715Y-102348493D01*
X158940195Y-102121371D01*
X158707681Y-101893896D01*
X158477508Y-101669291D01*
X158253007Y-101450779D01*
X158037512Y-101241583D01*
X157834357Y-101044927D01*
X157646873Y-100864034D01*
X157478395Y-100702128D01*
X157332255Y-100562431D01*
X157211787Y-100448167D01*
X157120323Y-100362559D01*
X157061197Y-100308831D01*
X157037741Y-100290205D01*
X157036668Y-100290619D01*
X157008164Y-100314876D01*
X156945219Y-100374018D01*
X156851322Y-100464551D01*
X156729963Y-100582982D01*
X156584634Y-100725817D01*
X156418823Y-100889563D01*
X156236022Y-101070726D01*
X156039721Y-101265812D01*
X155833408Y-101471329D01*
X155620576Y-101683782D01*
X155404713Y-101899678D01*
X155189310Y-102115523D01*
X154977858Y-102327825D01*
X154773846Y-102533089D01*
X154580764Y-102727821D01*
X154402103Y-102908530D01*
X154241352Y-103071720D01*
X154102003Y-103213898D01*
X153987544Y-103331572D01*
X153901467Y-103421246D01*
X153847262Y-103479429D01*
X153828417Y-103502625D01*
X153834783Y-103511429D01*
X153874747Y-103555474D01*
X153948956Y-103633544D01*
X154054560Y-103742742D01*
X154188712Y-103880170D01*
X154348562Y-104042932D01*
X154531264Y-104228129D01*
X154733967Y-104432864D01*
X154953824Y-104654241D01*
X155187986Y-104889362D01*
X155433605Y-105135329D01*
X157038794Y-106740690D01*
X156972630Y-106811118D01*
X156906467Y-106881545D01*
X155251939Y-105227018D01*
X155110391Y-105085400D01*
X154818897Y-104793204D01*
X154563933Y-104536736D01*
X154343778Y-104314206D01*
X154156709Y-104123824D01*
X154001003Y-103963800D01*
X153874938Y-103832345D01*
X153776791Y-103727669D01*
X153704840Y-103647984D01*
X153657361Y-103591499D01*
X153632632Y-103556424D01*
X153628932Y-103540972D01*
X153646525Y-103508856D01*
X153628426Y-103458172D01*
X153627630Y-103456757D01*
X153625991Y-103443841D01*
X153633013Y-103424093D01*
X153651012Y-103395075D01*
X153682307Y-103354347D01*
X153729216Y-103299470D01*
X153794059Y-103228008D01*
X153879152Y-103137520D01*
X153986815Y-103025568D01*
X154119366Y-102889713D01*
X154279122Y-102727517D01*
X154468403Y-102536541D01*
X154689527Y-102314346D01*
X154944811Y-102058494D01*
X155236575Y-101766546D01*
X156876750Y-100126201D01*
X156152376Y-99401827D01*
X154476830Y-101077207D01*
X152801284Y-102752588D01*
X152727706Y-102675789D01*
X152654128Y-102598991D01*
X154360402Y-100892881D01*
X154645935Y-100607535D01*
X154911006Y-100343067D01*
X155142116Y-100113082D01*
X155341596Y-99915353D01*
X155511776Y-99747653D01*
X155654988Y-99607757D01*
X155773563Y-99493437D01*
X155869831Y-99402469D01*
X155946124Y-99332624D01*
X156004773Y-99281678D01*
X156048109Y-99247405D01*
X156078463Y-99227576D01*
X156098166Y-99219968D01*
X156109549Y-99222352D01*
X156150015Y-99243876D01*
X156193230Y-99224066D01*
X156200975Y-99219431D01*
X156224307Y-99219930D01*
G37*
%TD*%
%LPC*%
D11*
%TO.C,H2*%
X163600000Y-83600000D03*
%TD*%
D12*
%TO.C,J2*%
X134385000Y-84193900D03*
D13*
X136925000Y-84193900D03*
X139465000Y-84193900D03*
X142005000Y-84193900D03*
X144545000Y-84193900D03*
%TD*%
D11*
%TO.C,H1*%
X128400000Y-83600000D03*
%TD*%
%TO.C,H3*%
X163600000Y-108200000D03*
%TD*%
D14*
%TO.C,J1*%
X132952700Y-90530000D03*
X132952700Y-101960000D03*
D15*
X139302700Y-91800000D03*
D16*
X141842700Y-93070000D03*
X139302700Y-94340000D03*
X141842700Y-95610000D03*
X139302700Y-96880000D03*
X141842700Y-98150000D03*
X139302700Y-99420000D03*
X141842700Y-100690000D03*
%TD*%
D11*
%TO.C,H4*%
X128400000Y-108200000D03*
%TD*%
%TO.C,H5*%
X163600000Y-95900000D03*
%TD*%
%LPD*%
M02*
