%TF.GenerationSoftware,KiCad,Pcbnew,7.0.9*%
%TF.CreationDate,2024-04-09T00:56:21-04:00*%
%TF.ProjectId,WIRED-I2C-Shield-revA4,57495245-442d-4493-9243-2d536869656c,RevA4*%
%TF.SameCoordinates,Original*%
%TF.FileFunction,Soldermask,Bot*%
%TF.FilePolarity,Negative*%
%FSLAX46Y46*%
G04 Gerber Fmt 4.6, Leading zero omitted, Abs format (unit mm)*
G04 Created by KiCad (PCBNEW 7.0.9) date 2024-04-09 00:56:21*
%MOMM*%
%LPD*%
G01*
G04 APERTURE LIST*
%ADD10C,3.200000*%
%ADD11R,1.500000X1.500000*%
%ADD12C,1.500000*%
%ADD13C,3.500000*%
%ADD14C,3.250000*%
%ADD15C,2.300000*%
G04 APERTURE END LIST*
D10*
%TO.C,J10*%
X225532000Y-65242500D03*
X225532000Y-76672500D03*
D11*
X219182000Y-75402500D03*
D12*
X216642000Y-74132500D03*
X219182000Y-72862500D03*
X216642000Y-71592500D03*
X219182000Y-70322500D03*
X216642000Y-69052500D03*
X219182000Y-67782500D03*
X216642000Y-66512500D03*
%TD*%
D10*
%TO.C,J9*%
X225786000Y-85562500D03*
X225786000Y-96992500D03*
D11*
X219436000Y-95722500D03*
D12*
X216896000Y-94452500D03*
X219436000Y-93182500D03*
X216896000Y-91912500D03*
X219436000Y-90642500D03*
X216896000Y-89372500D03*
X219436000Y-88102500D03*
X216896000Y-86832500D03*
%TD*%
D10*
%TO.C,J7*%
X201457500Y-125710000D03*
X190027500Y-125710000D03*
D11*
X191297500Y-119360000D03*
D12*
X192567500Y-116820000D03*
X193837500Y-119360000D03*
X195107500Y-116820000D03*
X196377500Y-119360000D03*
X197647500Y-116820000D03*
X198917500Y-119360000D03*
X200187500Y-116820000D03*
%TD*%
D10*
%TO.C,J6*%
X182988100Y-125710000D03*
X171558100Y-125710000D03*
D11*
X172828100Y-119360000D03*
D12*
X174098100Y-116820000D03*
X175368100Y-119360000D03*
X176638100Y-116820000D03*
X177908100Y-119360000D03*
X179178100Y-116820000D03*
X180448100Y-119360000D03*
X181718100Y-116820000D03*
%TD*%
D10*
%TO.C,J5*%
X164518600Y-125710000D03*
X153088600Y-125710000D03*
D11*
X154358600Y-119360000D03*
D12*
X155628600Y-116820000D03*
X156898600Y-119360000D03*
X158168600Y-116820000D03*
X159438600Y-119360000D03*
X160708600Y-116820000D03*
X161978600Y-119360000D03*
X163248600Y-116820000D03*
%TD*%
D10*
%TO.C,J4*%
X146049200Y-125710000D03*
X134619200Y-125710000D03*
D11*
X135889200Y-119360000D03*
D12*
X137159200Y-116820000D03*
X138429200Y-119360000D03*
X139699200Y-116820000D03*
X140969200Y-119360000D03*
X142239200Y-116820000D03*
X143509200Y-119360000D03*
X144779200Y-116820000D03*
%TD*%
D10*
%TO.C,J3*%
X127579800Y-125710000D03*
X116149800Y-125710000D03*
D11*
X117419800Y-119360000D03*
D12*
X118689800Y-116820000D03*
X119959800Y-119360000D03*
X121229800Y-116820000D03*
X122499800Y-119360000D03*
X123769800Y-116820000D03*
X125039800Y-119360000D03*
X126309800Y-116820000D03*
%TD*%
D10*
%TO.C,J2*%
X109110300Y-125710000D03*
X97680300Y-125710000D03*
D11*
X98950300Y-119360000D03*
D12*
X100220300Y-116820000D03*
X101490300Y-119360000D03*
X102760300Y-116820000D03*
X104030300Y-119360000D03*
X105300300Y-116820000D03*
X106570300Y-119360000D03*
X107840300Y-116820000D03*
%TD*%
D10*
%TO.C,J1*%
X90931200Y-125710000D03*
X79501200Y-125710000D03*
D11*
X80771200Y-119360000D03*
D12*
X82041200Y-116820000D03*
X83311200Y-119360000D03*
X84581200Y-116820000D03*
X85851200Y-119360000D03*
X87121200Y-116820000D03*
X88391200Y-119360000D03*
X89661200Y-116820000D03*
%TD*%
D13*
%TO.C,H4*%
X72644000Y-130556000D03*
%TD*%
D14*
%TO.C,J8*%
X221744000Y-127758000D03*
X209044000Y-127758000D03*
D11*
X218954000Y-125218000D03*
D12*
X217938000Y-123438000D03*
X216922000Y-125218000D03*
X215906000Y-123438000D03*
X214890000Y-125218000D03*
X213874000Y-123438000D03*
X212858000Y-125218000D03*
X211842000Y-123438000D03*
X222254000Y-118618000D03*
X219964000Y-118618000D03*
X210824000Y-118618000D03*
X208534000Y-118618000D03*
D15*
X223524000Y-124328000D03*
X207264000Y-124328000D03*
%TD*%
D13*
%TO.C,H2*%
X230124000Y-28194000D03*
%TD*%
%TO.C,H3*%
X230124000Y-130556000D03*
%TD*%
%TO.C,H1*%
X72644000Y-28194000D03*
%TD*%
M02*
