%TF.GenerationSoftware,KiCad,Pcbnew,7.0.9*%
%TF.CreationDate,2024-04-09T00:56:20-04:00*%
%TF.ProjectId,WIRED-I2C-Shield-revA4,57495245-442d-4493-9243-2d536869656c,RevA4*%
%TF.SameCoordinates,Original*%
%TF.FileFunction,Copper,L1,Top*%
%TF.FilePolarity,Positive*%
%FSLAX46Y46*%
G04 Gerber Fmt 4.6, Leading zero omitted, Abs format (unit mm)*
G04 Created by KiCad (PCBNEW 7.0.9) date 2024-04-09 00:56:20*
%MOMM*%
%LPD*%
G01*
G04 APERTURE LIST*
G04 Aperture macros list*
%AMRoundRect*
0 Rectangle with rounded corners*
0 $1 Rounding radius*
0 $2 $3 $4 $5 $6 $7 $8 $9 X,Y pos of 4 corners*
0 Add a 4 corners polygon primitive as box body*
4,1,4,$2,$3,$4,$5,$6,$7,$8,$9,$2,$3,0*
0 Add four circle primitives for the rounded corners*
1,1,$1+$1,$2,$3*
1,1,$1+$1,$4,$5*
1,1,$1+$1,$6,$7*
1,1,$1+$1,$8,$9*
0 Add four rect primitives between the rounded corners*
20,1,$1+$1,$2,$3,$4,$5,0*
20,1,$1+$1,$4,$5,$6,$7,0*
20,1,$1+$1,$6,$7,$8,$9,0*
20,1,$1+$1,$8,$9,$2,$3,0*%
G04 Aperture macros list end*
%TA.AperFunction,SMDPad,CuDef*%
%ADD10R,1.803400X0.533400*%
%TD*%
%TA.AperFunction,ComponentPad*%
%ADD11R,1.500000X1.500000*%
%TD*%
%TA.AperFunction,ComponentPad*%
%ADD12C,1.500000*%
%TD*%
%TA.AperFunction,SMDPad,CuDef*%
%ADD13R,1.300000X0.600000*%
%TD*%
%TA.AperFunction,SMDPad,CuDef*%
%ADD14RoundRect,0.250000X-0.262500X-0.450000X0.262500X-0.450000X0.262500X0.450000X-0.262500X0.450000X0*%
%TD*%
%TA.AperFunction,SMDPad,CuDef*%
%ADD15R,1.000000X1.500000*%
%TD*%
%TA.AperFunction,SMDPad,CuDef*%
%ADD16RoundRect,0.250000X0.450000X-0.262500X0.450000X0.262500X-0.450000X0.262500X-0.450000X-0.262500X0*%
%TD*%
%TA.AperFunction,SMDPad,CuDef*%
%ADD17RoundRect,0.250000X-0.250000X-0.475000X0.250000X-0.475000X0.250000X0.475000X-0.250000X0.475000X0*%
%TD*%
%TA.AperFunction,ComponentPad*%
%ADD18C,2.300000*%
%TD*%
%TA.AperFunction,SMDPad,CuDef*%
%ADD19RoundRect,0.218750X0.256250X-0.218750X0.256250X0.218750X-0.256250X0.218750X-0.256250X-0.218750X0*%
%TD*%
%TA.AperFunction,SMDPad,CuDef*%
%ADD20R,1.500000X1.000000*%
%TD*%
%TA.AperFunction,SMDPad,CuDef*%
%ADD21RoundRect,0.218750X-0.218750X-0.256250X0.218750X-0.256250X0.218750X0.256250X-0.218750X0.256250X0*%
%TD*%
%TA.AperFunction,SMDPad,CuDef*%
%ADD22R,1.600000X0.300000*%
%TD*%
%TA.AperFunction,ViaPad*%
%ADD23C,0.800000*%
%TD*%
%TA.AperFunction,Conductor*%
%ADD24C,0.250000*%
%TD*%
%TA.AperFunction,Conductor*%
%ADD25C,0.500000*%
%TD*%
G04 APERTURE END LIST*
%TA.AperFunction,EtchedComponent*%
%TO.C,JP10*%
G36*
X188464000Y-81580000D02*
G01*
X187964000Y-81580000D01*
X187964000Y-80980000D01*
X188464000Y-80980000D01*
X188464000Y-81580000D01*
G37*
%TD.AperFunction*%
%TA.AperFunction,EtchedComponent*%
%TO.C,JP4*%
G36*
X98344000Y-96008000D02*
G01*
X97744000Y-96008000D01*
X97744000Y-95508000D01*
X98344000Y-95508000D01*
X98344000Y-96008000D01*
G37*
%TD.AperFunction*%
%TA.AperFunction,EtchedComponent*%
%TO.C,JP7*%
G36*
X150872000Y-81834000D02*
G01*
X150372000Y-81834000D01*
X150372000Y-81234000D01*
X150872000Y-81234000D01*
X150872000Y-81834000D01*
G37*
%TD.AperFunction*%
%TA.AperFunction,EtchedComponent*%
%TO.C,JP5*%
G36*
X103932000Y-96008000D02*
G01*
X103332000Y-96008000D01*
X103332000Y-95508000D01*
X103932000Y-95508000D01*
X103932000Y-96008000D01*
G37*
%TD.AperFunction*%
%TA.AperFunction,EtchedComponent*%
%TO.C,JP9*%
G36*
X182876000Y-81580000D02*
G01*
X182376000Y-81580000D01*
X182376000Y-80980000D01*
X182876000Y-80980000D01*
X182876000Y-81580000D01*
G37*
%TD.AperFunction*%
%TD*%
D10*
%TO.P,U3,1,A0*%
%TO.N,/PCF2_A0*%
X183946800Y-89281000D03*
%TO.P,U3,2,A1*%
%TO.N,/PCF2_A1*%
X183946800Y-90551000D03*
%TO.P,U3,3,A2*%
%TO.N,/PCF2_A2*%
X183946800Y-91821000D03*
%TO.P,U3,4,P0*%
%TO.N,/mosfet10*%
X183946800Y-93091000D03*
%TO.P,U3,5,P1*%
%TO.N,/mosfet11*%
X183946800Y-94361000D03*
%TO.P,U3,6,P2*%
%TO.N,/mosfet12*%
X183946800Y-95631000D03*
%TO.P,U3,7,P3*%
%TO.N,/mosfet13*%
X183946800Y-96901000D03*
%TO.P,U3,8,VSS*%
%TO.N,GND*%
X183946800Y-98171000D03*
%TO.P,U3,9,P4*%
%TO.N,/mosfet14*%
X193497200Y-98171000D03*
%TO.P,U3,10,P5*%
%TO.N,/mosfet15*%
X193497200Y-96901000D03*
%TO.P,U3,11,P6*%
%TO.N,/mosfet16*%
X193497200Y-95631000D03*
%TO.P,U3,12,P7*%
%TO.N,/mosfet17*%
X193497200Y-94361000D03*
%TO.P,U3,13,~INT*%
%TO.N,unconnected-(U3-~INT-Pad13)*%
X193497200Y-93091000D03*
%TO.P,U3,14,SCL*%
%TO.N,/INPUTSCL*%
X193497200Y-91821000D03*
%TO.P,U3,15,SDA*%
%TO.N,/INPUTSDA*%
X193497200Y-90551000D03*
%TO.P,U3,16,VDD*%
%TO.N,VCC*%
X193497200Y-89281000D03*
%TD*%
%TO.P,U1,16,VDD*%
%TO.N,VCC*%
X154889200Y-88519000D03*
%TO.P,U1,15,SDA*%
%TO.N,/INPUTSDA*%
X154889200Y-89789000D03*
%TO.P,U1,14,SCL*%
%TO.N,/INPUTSCL*%
X154889200Y-91059000D03*
%TO.P,U1,13,~INT*%
%TO.N,unconnected-(U1-~INT-Pad13)*%
X154889200Y-92329000D03*
%TO.P,U1,12,P7*%
%TO.N,/mosfet7*%
X154889200Y-93599000D03*
%TO.P,U1,11,P6*%
%TO.N,/mosfet6*%
X154889200Y-94869000D03*
%TO.P,U1,10,P5*%
%TO.N,/mosfet5*%
X154889200Y-96139000D03*
%TO.P,U1,9,P4*%
%TO.N,/mosfet4*%
X154889200Y-97409000D03*
%TO.P,U1,8,VSS*%
%TO.N,GND*%
X145338800Y-97409000D03*
%TO.P,U1,7,P3*%
%TO.N,/mosfet3*%
X145338800Y-96139000D03*
%TO.P,U1,6,P2*%
%TO.N,/mosfet2*%
X145338800Y-94869000D03*
%TO.P,U1,5,P1*%
%TO.N,/mosfet1*%
X145338800Y-93599000D03*
%TO.P,U1,4,P0*%
%TO.N,/mosfet0*%
X145338800Y-92329000D03*
%TO.P,U1,3,A2*%
%TO.N,/PCF1_A2*%
X145338800Y-91059000D03*
%TO.P,U1,2,A1*%
%TO.N,/PCF1_A1*%
X145338800Y-89789000D03*
%TO.P,U1,1,A0*%
%TO.N,/PCF1_A0*%
X145338800Y-88519000D03*
%TD*%
D11*
%TO.P,J10,1*%
%TO.N,VCC*%
X219182000Y-75402500D03*
D12*
%TO.P,J10,2*%
X216642000Y-74132500D03*
%TO.P,J10,3*%
%TO.N,GND*%
X219182000Y-72862500D03*
%TO.P,J10,4*%
X216642000Y-71592500D03*
%TO.P,J10,5*%
%TO.N,/INPUTSDA*%
X219182000Y-70322500D03*
%TO.P,J10,6*%
X216642000Y-69052500D03*
%TO.P,J10,7*%
%TO.N,/INPUTSCL*%
X219182000Y-67782500D03*
%TO.P,J10,8*%
X216642000Y-66512500D03*
%TD*%
D11*
%TO.P,J9,1*%
%TO.N,VCC*%
X219436000Y-95722500D03*
D12*
%TO.P,J9,2*%
X216896000Y-94452500D03*
%TO.P,J9,3*%
%TO.N,GND*%
X219436000Y-93182500D03*
%TO.P,J9,4*%
X216896000Y-91912500D03*
%TO.P,J9,5*%
%TO.N,/INPUTSDA*%
X219436000Y-90642500D03*
%TO.P,J9,6*%
X216896000Y-89372500D03*
%TO.P,J9,7*%
%TO.N,/INPUTSCL*%
X219436000Y-88102500D03*
%TO.P,J9,8*%
X216896000Y-86832500D03*
%TD*%
D11*
%TO.P,J7,1*%
%TO.N,/6VCC*%
X191297500Y-119360000D03*
D12*
%TO.P,J7,2*%
X192567500Y-116820000D03*
%TO.P,J7,3*%
%TO.N,/6GND*%
X193837500Y-119360000D03*
%TO.P,J7,4*%
X195107500Y-116820000D03*
%TO.P,J7,5*%
%TO.N,/6SDA*%
X196377500Y-119360000D03*
%TO.P,J7,6*%
X197647500Y-116820000D03*
%TO.P,J7,7*%
%TO.N,/6SCL*%
X198917500Y-119360000D03*
%TO.P,J7,8*%
X200187500Y-116820000D03*
%TD*%
D11*
%TO.P,J6,1*%
%TO.N,/5VCC*%
X172828100Y-119360000D03*
D12*
%TO.P,J6,2*%
X174098100Y-116820000D03*
%TO.P,J6,3*%
%TO.N,/5GND*%
X175368100Y-119360000D03*
%TO.P,J6,4*%
X176638100Y-116820000D03*
%TO.P,J6,5*%
%TO.N,/5SDA*%
X177908100Y-119360000D03*
%TO.P,J6,6*%
X179178100Y-116820000D03*
%TO.P,J6,7*%
%TO.N,/5SCL*%
X180448100Y-119360000D03*
%TO.P,J6,8*%
X181718100Y-116820000D03*
%TD*%
D11*
%TO.P,J5,1*%
%TO.N,/4VCC*%
X154358600Y-119360000D03*
D12*
%TO.P,J5,2*%
X155628600Y-116820000D03*
%TO.P,J5,3*%
%TO.N,/4GND*%
X156898600Y-119360000D03*
%TO.P,J5,4*%
X158168600Y-116820000D03*
%TO.P,J5,5*%
%TO.N,/4SDA*%
X159438600Y-119360000D03*
%TO.P,J5,6*%
X160708600Y-116820000D03*
%TO.P,J5,7*%
%TO.N,/4SCL*%
X161978600Y-119360000D03*
%TO.P,J5,8*%
X163248600Y-116820000D03*
%TD*%
D11*
%TO.P,J4,1*%
%TO.N,/3VCC*%
X135889200Y-119360000D03*
D12*
%TO.P,J4,2*%
X137159200Y-116820000D03*
%TO.P,J4,3*%
%TO.N,/3GND*%
X138429200Y-119360000D03*
%TO.P,J4,4*%
X139699200Y-116820000D03*
%TO.P,J4,5*%
%TO.N,/3SDA*%
X140969200Y-119360000D03*
%TO.P,J4,6*%
X142239200Y-116820000D03*
%TO.P,J4,7*%
%TO.N,/3SCL*%
X143509200Y-119360000D03*
%TO.P,J4,8*%
X144779200Y-116820000D03*
%TD*%
D11*
%TO.P,J3,1*%
%TO.N,/2VCC*%
X117419800Y-119360000D03*
D12*
%TO.P,J3,2*%
X118689800Y-116820000D03*
%TO.P,J3,3*%
%TO.N,/2GND*%
X119959800Y-119360000D03*
%TO.P,J3,4*%
X121229800Y-116820000D03*
%TO.P,J3,5*%
%TO.N,/2SDA*%
X122499800Y-119360000D03*
%TO.P,J3,6*%
X123769800Y-116820000D03*
%TO.P,J3,7*%
%TO.N,/2SCL*%
X125039800Y-119360000D03*
%TO.P,J3,8*%
X126309800Y-116820000D03*
%TD*%
D11*
%TO.P,J2,1*%
%TO.N,/1VCC*%
X98950300Y-119360000D03*
D12*
%TO.P,J2,2*%
X100220300Y-116820000D03*
%TO.P,J2,3*%
%TO.N,/1GND*%
X101490300Y-119360000D03*
%TO.P,J2,4*%
X102760300Y-116820000D03*
%TO.P,J2,5*%
%TO.N,/1SDA*%
X104030300Y-119360000D03*
%TO.P,J2,6*%
X105300300Y-116820000D03*
%TO.P,J2,7*%
%TO.N,/1SCL*%
X106570300Y-119360000D03*
%TO.P,J2,8*%
X107840300Y-116820000D03*
%TD*%
D11*
%TO.P,J1,1*%
%TO.N,/0VCC*%
X80771200Y-119360000D03*
D12*
%TO.P,J1,2*%
X82041200Y-116820000D03*
%TO.P,J1,3*%
%TO.N,/0GND*%
X83311200Y-119360000D03*
%TO.P,J1,4*%
X84581200Y-116820000D03*
%TO.P,J1,5*%
%TO.N,/0SDA*%
X85851200Y-119360000D03*
%TO.P,J1,6*%
X87121200Y-116820000D03*
%TO.P,J1,7*%
%TO.N,/0SCL*%
X88391200Y-119360000D03*
%TO.P,J1,8*%
X89661200Y-116820000D03*
%TD*%
D13*
%TO.P,Q7,1,G*%
%TO.N,/mosfet3*%
X136516400Y-108082000D03*
%TO.P,Q7,2,S*%
%TO.N,VCC*%
X136516400Y-109982000D03*
%TO.P,Q7,3,D*%
%TO.N,/3VCC*%
X138616400Y-109032000D03*
%TD*%
D14*
%TO.P,R11,1*%
%TO.N,/PCF1_A2*%
X155147000Y-76454000D03*
%TO.P,R11,2*%
%TO.N,GND*%
X156972000Y-76454000D03*
%TD*%
D13*
%TO.P,Q3,1,G*%
%TO.N,/mosfet1*%
X109135200Y-108082000D03*
%TO.P,Q3,2,S*%
%TO.N,VCC*%
X109135200Y-109982000D03*
%TO.P,Q3,3,D*%
%TO.N,/1VCC*%
X111235200Y-109032000D03*
%TD*%
D14*
%TO.P,R15,1*%
%TO.N,Net-(J8-Pad12)*%
X226163500Y-110236000D03*
%TO.P,R15,2*%
%TO.N,/7VCC*%
X227988500Y-110236000D03*
%TD*%
%TO.P,R14,1*%
%TO.N,/PCF2_A2*%
X193143500Y-76200000D03*
%TO.P,R14,2*%
%TO.N,GND*%
X194968500Y-76200000D03*
%TD*%
D15*
%TO.P,JP11,1,A*%
%TO.N,/PCF2_A2*%
X193406000Y-81280000D03*
%TO.P,JP11,2,B*%
%TO.N,VCC*%
X194706000Y-81280000D03*
%TD*%
D14*
%TO.P,R8,1*%
%TO.N,/RESET*%
X100076000Y-82804000D03*
%TO.P,R8,2*%
%TO.N,VCC*%
X101901000Y-82804000D03*
%TD*%
D13*
%TO.P,Q9,1,G*%
%TO.N,/mosfet4*%
X163897600Y-108082000D03*
%TO.P,Q9,2,S*%
%TO.N,VCC*%
X163897600Y-109982000D03*
%TO.P,Q9,3,D*%
%TO.N,/4VCC*%
X165997600Y-109032000D03*
%TD*%
D14*
%TO.P,R12,1*%
%TO.N,/PCF2_A0*%
X181967500Y-76200000D03*
%TO.P,R12,2*%
%TO.N,GND*%
X183792500Y-76200000D03*
%TD*%
D15*
%TO.P,JP1,1,A*%
%TO.N,/TCA_A0*%
X106030000Y-82767000D03*
%TO.P,JP1,2,B*%
%TO.N,VCC*%
X107330000Y-82767000D03*
%TD*%
D13*
%TO.P,Q2,1,G*%
%TO.N,/mosfet0*%
X82042000Y-108270000D03*
%TO.P,Q2,2,S*%
%TO.N,VCC*%
X82042000Y-110170000D03*
%TO.P,Q2,3,D*%
%TO.N,/0VCC*%
X84142000Y-109220000D03*
%TD*%
D16*
%TO.P,R5,1*%
%TO.N,Net-(JP4-B)*%
X103378000Y-91515500D03*
%TO.P,R5,2*%
%TO.N,VCC*%
X103378000Y-89690500D03*
%TD*%
D13*
%TO.P,Q8,1,G*%
%TO.N,/mosfet13*%
X145643500Y-108082000D03*
%TO.P,Q8,2,S*%
%TO.N,GND*%
X145643500Y-109982000D03*
%TO.P,Q8,3,D*%
%TO.N,/3GND*%
X147743500Y-109032000D03*
%TD*%
%TO.P,Q10,1,G*%
%TO.N,/mosfet14*%
X154770500Y-108082000D03*
%TO.P,Q10,2,S*%
%TO.N,GND*%
X154770500Y-109982000D03*
%TO.P,Q10,3,D*%
%TO.N,/4GND*%
X156870500Y-109032000D03*
%TD*%
D14*
%TO.P,R1,1*%
%TO.N,/TCA_A0*%
X106275500Y-77470000D03*
%TO.P,R1,2*%
%TO.N,GND*%
X108100500Y-77470000D03*
%TD*%
D16*
%TO.P,R6,1*%
%TO.N,Net-(JP5-B)*%
X121666000Y-92202000D03*
%TO.P,R6,2*%
%TO.N,VCC*%
X121666000Y-90377000D03*
%TD*%
D13*
%TO.P,Q11,1,G*%
%TO.N,/mosfet5*%
X182151700Y-108082000D03*
%TO.P,Q11,2,S*%
%TO.N,VCC*%
X182151700Y-109982000D03*
%TO.P,Q11,3,D*%
%TO.N,/5VCC*%
X184251700Y-109032000D03*
%TD*%
D17*
%TO.P,C5,1*%
%TO.N,VCC*%
X185486000Y-86106000D03*
%TO.P,C5,2*%
%TO.N,GND*%
X187386000Y-86106000D03*
%TD*%
D13*
%TO.P,Q5,1,G*%
%TO.N,/mosfet2*%
X127389300Y-108082000D03*
%TO.P,Q5,2,S*%
%TO.N,VCC*%
X127389300Y-109982000D03*
%TO.P,Q5,3,D*%
%TO.N,/2VCC*%
X129489300Y-109032000D03*
%TD*%
D15*
%TO.P,JP2,1,A*%
%TO.N,/TCA_A1*%
X111618000Y-82804000D03*
%TO.P,JP2,2,B*%
%TO.N,VCC*%
X112918000Y-82804000D03*
%TD*%
D14*
%TO.P,R9,1*%
%TO.N,/PCF1_A0*%
X144375500Y-76454000D03*
%TO.P,R9,2*%
%TO.N,GND*%
X146200500Y-76454000D03*
%TD*%
D11*
%TO.P,J8,1*%
%TO.N,/7VCC*%
X218954000Y-125218000D03*
D12*
%TO.P,J8,2*%
X217938000Y-123438000D03*
%TO.P,J8,3*%
%TO.N,/7GND*%
X216922000Y-125218000D03*
%TO.P,J8,4*%
X215906000Y-123438000D03*
%TO.P,J8,5*%
%TO.N,/7SDA*%
X214890000Y-125218000D03*
%TO.P,J8,6*%
X213874000Y-123438000D03*
%TO.P,J8,7*%
%TO.N,/7SCL*%
X212858000Y-125218000D03*
%TO.P,J8,8*%
X211842000Y-123438000D03*
%TO.P,J8,9*%
%TO.N,unconnected-(J8-Pad9)*%
X222254000Y-118618000D03*
%TO.P,J8,10*%
%TO.N,unconnected-(J8-Pad10)*%
X219964000Y-118618000D03*
%TO.P,J8,11*%
%TO.N,/7GND*%
X210824000Y-118618000D03*
%TO.P,J8,12*%
%TO.N,Net-(J8-Pad12)*%
X208534000Y-118618000D03*
D18*
%TO.P,J8,SH*%
%TO.N,/7GND*%
X223524000Y-124328000D03*
X207264000Y-124328000D03*
%TD*%
D19*
%TO.P,D1,1,K*%
%TO.N,GND*%
X228854000Y-59461500D03*
%TO.P,D1,2,A*%
%TO.N,Net-(D1-A)*%
X228854000Y-57886500D03*
%TD*%
D15*
%TO.P,JP6,1,A*%
%TO.N,/PCF1_A0*%
X144421000Y-81534000D03*
%TO.P,JP6,2,B*%
%TO.N,VCC*%
X145721000Y-81534000D03*
%TD*%
D13*
%TO.P,Q14,1,G*%
%TO.N,/mosfet16*%
X191278800Y-108082000D03*
%TO.P,Q14,2,S*%
%TO.N,GND*%
X191278800Y-109982000D03*
%TO.P,Q14,3,D*%
%TO.N,/6GND*%
X193378800Y-109032000D03*
%TD*%
D14*
%TO.P,R10,1*%
%TO.N,/PCF1_A1*%
X149963500Y-76454000D03*
%TO.P,R10,2*%
%TO.N,GND*%
X151788500Y-76454000D03*
%TD*%
D13*
%TO.P,Q4,1,G*%
%TO.N,/mosfet11*%
X100008100Y-108082000D03*
%TO.P,Q4,2,S*%
%TO.N,GND*%
X100008100Y-109982000D03*
%TO.P,Q4,3,D*%
%TO.N,/1GND*%
X102108100Y-109032000D03*
%TD*%
D15*
%TO.P,JP10,1,A*%
%TO.N,/PCF2_A1*%
X187564000Y-81280000D03*
%TO.P,JP10,2,B*%
%TO.N,VCC*%
X188864000Y-81280000D03*
%TD*%
D13*
%TO.P,Q6,1,G*%
%TO.N,/mosfet12*%
X118262300Y-108082000D03*
%TO.P,Q6,2,S*%
%TO.N,GND*%
X118262300Y-109982000D03*
%TO.P,Q6,3,D*%
%TO.N,/2GND*%
X120362300Y-109032000D03*
%TD*%
%TO.P,Q16,1,G*%
%TO.N,/mosfet7*%
X209532900Y-108082000D03*
%TO.P,Q16,2,S*%
%TO.N,VCC*%
X209532900Y-109982000D03*
%TO.P,Q16,3,D*%
%TO.N,/7VCC*%
X211632900Y-109032000D03*
%TD*%
D17*
%TO.P,C3,1*%
%TO.N,VCC*%
X146624000Y-85598000D03*
%TO.P,C3,2*%
%TO.N,GND*%
X148524000Y-85598000D03*
%TD*%
D14*
%TO.P,R3,1*%
%TO.N,/TCA_A2*%
X116943500Y-77470000D03*
%TO.P,R3,2*%
%TO.N,GND*%
X118768500Y-77470000D03*
%TD*%
D17*
%TO.P,C1,1*%
%TO.N,VCC*%
X109286000Y-87884000D03*
%TO.P,C1,2*%
%TO.N,GND*%
X111186000Y-87884000D03*
%TD*%
D14*
%TO.P,R7,1*%
%TO.N,Net-(D2-A)*%
X71985500Y-108966000D03*
%TO.P,R7,2*%
%TO.N,/0VCC*%
X73810500Y-108966000D03*
%TD*%
%TO.P,R13,1*%
%TO.N,/PCF2_A1*%
X187647500Y-76200000D03*
%TO.P,R13,2*%
%TO.N,GND*%
X189472500Y-76200000D03*
%TD*%
D13*
%TO.P,Q1,1,G*%
%TO.N,/mosfet10*%
X90881100Y-108082000D03*
%TO.P,Q1,2,S*%
%TO.N,GND*%
X90881100Y-109982000D03*
%TO.P,Q1,3,D*%
%TO.N,/0GND*%
X92981100Y-109032000D03*
%TD*%
D16*
%TO.P,R4,1*%
%TO.N,Net-(D1-A)*%
X222504000Y-59840500D03*
%TO.P,R4,2*%
%TO.N,VCC*%
X222504000Y-58015500D03*
%TD*%
D13*
%TO.P,Q15,1,G*%
%TO.N,/mosfet17*%
X218660000Y-108082000D03*
%TO.P,Q15,2,S*%
%TO.N,GND*%
X218660000Y-109982000D03*
%TO.P,Q15,3,D*%
%TO.N,/7GND*%
X220760000Y-109032000D03*
%TD*%
D20*
%TO.P,JP4,1,A*%
%TO.N,/INPUTSCL*%
X98044000Y-96408000D03*
%TO.P,JP4,2,B*%
%TO.N,Net-(JP4-B)*%
X98044000Y-95108000D03*
%TD*%
D15*
%TO.P,JP7,1,A*%
%TO.N,/PCF1_A1*%
X149972000Y-81534000D03*
%TO.P,JP7,2,B*%
%TO.N,VCC*%
X151272000Y-81534000D03*
%TD*%
D17*
%TO.P,C6,1*%
%TO.N,VCC*%
X189804000Y-86106000D03*
%TO.P,C6,2*%
%TO.N,GND*%
X191704000Y-86106000D03*
%TD*%
D13*
%TO.P,Q13,1,G*%
%TO.N,/mosfet6*%
X200405900Y-108082000D03*
%TO.P,Q13,2,S*%
%TO.N,VCC*%
X200405900Y-109982000D03*
%TO.P,Q13,3,D*%
%TO.N,/6VCC*%
X202505900Y-109032000D03*
%TD*%
D21*
%TO.P,D2,1,K*%
%TO.N,/0GND*%
X72110500Y-102362000D03*
%TO.P,D2,2,A*%
%TO.N,Net-(D2-A)*%
X73685500Y-102362000D03*
%TD*%
D14*
%TO.P,R2,1*%
%TO.N,/TCA_A1*%
X111609500Y-77470000D03*
%TO.P,R2,2*%
%TO.N,GND*%
X113434500Y-77470000D03*
%TD*%
D20*
%TO.P,JP5,1,A*%
%TO.N,/INPUTSDA*%
X103632000Y-96408000D03*
%TO.P,JP5,2,B*%
%TO.N,Net-(JP5-B)*%
X103632000Y-95108000D03*
%TD*%
D17*
%TO.P,C4,1*%
%TO.N,VCC*%
X150942000Y-85598000D03*
%TO.P,C4,2*%
%TO.N,GND*%
X152842000Y-85598000D03*
%TD*%
D13*
%TO.P,Q12,1,G*%
%TO.N,/mosfet15*%
X173024700Y-108082000D03*
%TO.P,Q12,2,S*%
%TO.N,GND*%
X173024700Y-109982000D03*
%TO.P,Q12,3,D*%
%TO.N,/5GND*%
X175124700Y-109032000D03*
%TD*%
D22*
%TO.P,U2,1,A0*%
%TO.N,/TCA_A0*%
X109214000Y-90659000D03*
%TO.P,U2,2,A1*%
%TO.N,/TCA_A1*%
X109214000Y-91309000D03*
%TO.P,U2,3,~{RES}*%
%TO.N,/RESET*%
X109214000Y-91959000D03*
%TO.P,U2,4,SD0*%
%TO.N,/0SDA*%
X109214000Y-92609000D03*
%TO.P,U2,5,SC0*%
%TO.N,/0SCL*%
X109214000Y-93259000D03*
%TO.P,U2,6,SD1*%
%TO.N,/1SDA*%
X109214000Y-93909000D03*
%TO.P,U2,7,SC1*%
%TO.N,/1SCL*%
X109214000Y-94559000D03*
%TO.P,U2,8,SD2*%
%TO.N,/2SDA*%
X109214000Y-95209000D03*
%TO.P,U2,9,SC2*%
%TO.N,/2SCL*%
X109214000Y-95859000D03*
%TO.P,U2,10,SD3*%
%TO.N,/3SDA*%
X109214000Y-96509000D03*
%TO.P,U2,11,SC3*%
%TO.N,/3SCL*%
X109214000Y-97159000D03*
%TO.P,U2,12,GND*%
%TO.N,GND*%
X109214000Y-97809000D03*
%TO.P,U2,13,SD4*%
%TO.N,/4SDA*%
X114814000Y-97809000D03*
%TO.P,U2,14,SC4*%
%TO.N,/4SCL*%
X114814000Y-97159000D03*
%TO.P,U2,15,SD5*%
%TO.N,/5SDA*%
X114814000Y-96509000D03*
%TO.P,U2,16,SC5*%
%TO.N,/5SCL*%
X114814000Y-95859000D03*
%TO.P,U2,17,SD6*%
%TO.N,/6SDA*%
X114814000Y-95209000D03*
%TO.P,U2,18,SC6*%
%TO.N,/6SCL*%
X114814000Y-94559000D03*
%TO.P,U2,19,SD7*%
%TO.N,/7SDA*%
X114814000Y-93909000D03*
%TO.P,U2,20,SC7*%
%TO.N,/7SCL*%
X114814000Y-93259000D03*
%TO.P,U2,21,A2*%
%TO.N,/TCA_A2*%
X114814000Y-92609000D03*
%TO.P,U2,22,SCL*%
%TO.N,/INPUTSCL*%
X114814000Y-91959000D03*
%TO.P,U2,23,SDA*%
%TO.N,/INPUTSDA*%
X114814000Y-91309000D03*
%TO.P,U2,24,VCC*%
%TO.N,VCC*%
X114814000Y-90659000D03*
%TD*%
D17*
%TO.P,C2,1*%
%TO.N,VCC*%
X113350000Y-87884000D03*
%TO.P,C2,2*%
%TO.N,GND*%
X115250000Y-87884000D03*
%TD*%
D15*
%TO.P,JP3,1,A*%
%TO.N,/TCA_A2*%
X117206000Y-82804000D03*
%TO.P,JP3,2,B*%
%TO.N,VCC*%
X118506000Y-82804000D03*
%TD*%
%TO.P,JP8,1,A*%
%TO.N,/PCF1_A2*%
X155306000Y-81534000D03*
%TO.P,JP8,2,B*%
%TO.N,VCC*%
X156606000Y-81534000D03*
%TD*%
%TO.P,JP9,1,A*%
%TO.N,/PCF2_A0*%
X181976000Y-81280000D03*
%TO.P,JP9,2,B*%
%TO.N,VCC*%
X183276000Y-81280000D03*
%TD*%
D23*
%TO.N,/RESET*%
X102188300Y-85374900D03*
X105586000Y-91831900D03*
%TO.N,/0SDA*%
X101870200Y-94541600D03*
%TO.N,/0SCL*%
X105379200Y-93438200D03*
%TO.N,/1SDA*%
X106480800Y-94995500D03*
%TO.N,/1SCL*%
X107771500Y-94535500D03*
%TO.N,/2SDA*%
X105117300Y-112630400D03*
X105789900Y-97546700D03*
X122595000Y-115198600D03*
%TO.N,/2SCL*%
X108414200Y-99511300D03*
X113995700Y-116758000D03*
%TO.N,/3SDA*%
X111106400Y-99677600D03*
X142691300Y-115460300D03*
X111156000Y-111886400D03*
%TO.N,/3SCL*%
X115414000Y-111487000D03*
X111555100Y-98322100D03*
X142910900Y-114187200D03*
%TO.N,GND*%
X153628700Y-109217700D03*
X227760000Y-58855300D03*
X127762000Y-106172000D03*
X217344500Y-109934100D03*
X98745500Y-109821300D03*
X190691300Y-75976900D03*
X184934100Y-76096600D03*
X158097500Y-76223600D03*
X147342300Y-75976900D03*
X118510700Y-109032000D03*
X173424700Y-109033600D03*
X113434500Y-76104200D03*
X120650000Y-107950000D03*
X195949200Y-77180700D03*
X112014000Y-89662000D03*
X152924500Y-76223600D03*
X119969900Y-77407000D03*
X149352000Y-109982000D03*
X191736300Y-109032000D03*
X148524000Y-94042900D03*
X187386000Y-94009500D03*
X89538600Y-110006200D03*
X108972000Y-78593100D03*
%TO.N,/4SDA*%
X120290800Y-100698400D03*
X126453600Y-111443700D03*
%TO.N,/4SCL*%
X136055700Y-111531600D03*
X129738900Y-102161600D03*
%TO.N,/5SDA*%
X152170700Y-103395100D03*
X153572500Y-111944300D03*
%TO.N,/5SCL*%
X153353700Y-103201500D03*
X180448200Y-115540100D03*
X156643300Y-111895100D03*
%TO.N,/6SDA*%
X153353700Y-113527100D03*
X151262600Y-99949300D03*
%TO.N,/6SCL*%
X199556800Y-115430200D03*
X156616400Y-100630400D03*
X165629400Y-111377000D03*
%TO.N,/7SDA*%
X113020900Y-93975100D03*
X118255500Y-113881700D03*
%TO.N,/7SCL*%
X130204000Y-122447400D03*
X116688900Y-93721400D03*
%TO.N,/INPUTSDA*%
X217807600Y-90484300D03*
X185650400Y-91769200D03*
X147467300Y-92233100D03*
X105134300Y-96386000D03*
X150353200Y-89347200D03*
X188249900Y-89659100D03*
X112038700Y-91695400D03*
%TO.N,/INPUTSCL*%
X186502600Y-92637100D03*
X200583300Y-90927900D03*
X99507200Y-96256400D03*
X189189900Y-93147400D03*
X200583300Y-87476700D03*
X101141900Y-88101100D03*
X117041200Y-91926300D03*
X115148800Y-85381700D03*
X147318800Y-93686400D03*
X150239500Y-90654200D03*
%TO.N,VCC*%
X200235700Y-109032000D03*
X117437800Y-110903200D03*
X203759500Y-108887800D03*
X221307100Y-58877500D03*
X209652900Y-109032000D03*
X216326500Y-81342100D03*
X221996000Y-73883300D03*
X115389700Y-89590400D03*
%TO.N,/0GND*%
X82509300Y-101017600D03*
X91657900Y-109032000D03*
%TO.N,/0VCC*%
X82016700Y-109221600D03*
%TO.N,/1GND*%
X103370100Y-109119100D03*
%TO.N,/1VCC*%
X102019700Y-109988000D03*
%TO.N,/2GND*%
X123194000Y-109927900D03*
%TO.N,/2VCC*%
X122328600Y-109146100D03*
%TO.N,/3GND*%
X146043500Y-109032000D03*
%TO.N,/3VCC*%
X138372400Y-110287800D03*
%TO.N,/4GND*%
X160139100Y-108814500D03*
%TO.N,/4VCC*%
X158426200Y-109678800D03*
%TO.N,/5GND*%
X176538800Y-109345400D03*
%TO.N,/5VCC*%
X176856000Y-115430200D03*
X180219100Y-109032000D03*
%TO.N,/6GND*%
X193976600Y-108098500D03*
%TO.N,/6VCC*%
X194831100Y-112887200D03*
%TO.N,/7GND*%
X221170100Y-110093700D03*
X216326500Y-120693100D03*
X220967100Y-124196800D03*
X208454900Y-121014300D03*
%TO.N,/7VCC*%
X215069800Y-121900000D03*
X213320800Y-108887800D03*
%TO.N,/mosfet3*%
X136833800Y-109002700D03*
X141546300Y-97082500D03*
%TO.N,/mosfet4*%
X156118700Y-98362900D03*
X161225300Y-108808800D03*
%TO.N,/mosfet5*%
X156878700Y-95600100D03*
X165798200Y-107866200D03*
%TO.N,/mosfet0*%
X118976800Y-101542100D03*
X123001900Y-92660300D03*
%TO.N,/mosfet6*%
X165390600Y-105592200D03*
X158990400Y-94345200D03*
%TO.N,/mosfet1*%
X143548700Y-93265400D03*
X134721200Y-104304800D03*
%TO.N,/mosfet7*%
X163464100Y-105141500D03*
X156782200Y-93902200D03*
%TO.N,/mosfet2*%
X133674700Y-108036500D03*
X133675900Y-97081300D03*
%TO.N,/TCA_A0*%
X105126000Y-77573900D03*
X107065400Y-89457600D03*
X105292900Y-85161000D03*
%TO.N,/TCA_A1*%
X110137500Y-82948900D03*
X110137500Y-89559500D03*
X110146100Y-76904200D03*
%TO.N,/TCA_A2*%
X114690800Y-82681800D03*
X113193100Y-92435200D03*
X114955800Y-77407000D03*
%TO.N,/PCF1_A1*%
X147152400Y-88915400D03*
X148461000Y-81342100D03*
%TO.N,/PCF1_A2*%
X147602100Y-90426400D03*
X153721600Y-80992000D03*
%TO.N,/PCF2_A0*%
X180904300Y-89209100D03*
X181788300Y-78586200D03*
%TO.N,/PCF2_A1*%
X185610100Y-90513900D03*
X187564000Y-79349700D03*
%TO.N,/PCF2_A2*%
X181948800Y-89369400D03*
X180904300Y-91814100D03*
X186337000Y-88663600D03*
X192773200Y-78137800D03*
%TO.N,/mosfet10*%
X150154900Y-93908200D03*
X145482100Y-102954200D03*
%TO.N,/mosfet15*%
X176968500Y-101017600D03*
X176684200Y-108198800D03*
%TO.N,/mosfet16*%
X191870800Y-96146600D03*
X192856500Y-107600200D03*
%TO.N,/mosfet17*%
X216326500Y-97126300D03*
X216326500Y-107283800D03*
%TO.N,Net-(JP5-B)*%
X118518700Y-92293700D03*
X117498900Y-100430100D03*
%TO.N,Net-(J8-Pad12)*%
X208534000Y-116408300D03*
%TD*%
D24*
%TO.N,/RESET*%
X102188300Y-85374900D02*
X100076000Y-83262600D01*
X100076000Y-83262600D02*
X100076000Y-82804000D01*
X109214000Y-91959000D02*
X108087100Y-91959000D01*
X108064900Y-91981200D02*
X105735300Y-91981200D01*
X105735300Y-91981200D02*
X105586000Y-91831900D01*
X108087100Y-91959000D02*
X108064900Y-91981200D01*
%TO.N,/0SDA*%
X109214000Y-92609000D02*
X103802800Y-92609000D01*
X103802800Y-92609000D02*
X101870200Y-94541600D01*
%TO.N,/0SCL*%
X108087100Y-93259000D02*
X105558400Y-93259000D01*
X109214000Y-93259000D02*
X108087100Y-93259000D01*
X105558400Y-93259000D02*
X105379200Y-93438200D01*
%TO.N,/1SDA*%
X109061800Y-93756800D02*
X107502800Y-93756800D01*
X106480800Y-94778800D02*
X106480800Y-94995500D01*
X107502800Y-93756800D02*
X106480800Y-94778800D01*
X109214000Y-93909000D02*
X109061800Y-93756800D01*
%TO.N,/1SCL*%
X107795000Y-94559000D02*
X107771500Y-94535500D01*
X109214000Y-94559000D02*
X107795000Y-94559000D01*
%TO.N,/2SDA*%
X105789900Y-97419700D02*
X107947200Y-95262400D01*
X105789900Y-97546700D02*
X105789900Y-97419700D01*
X107685500Y-115198600D02*
X122595000Y-115198600D01*
X107947200Y-95262400D02*
X109160600Y-95262400D01*
X109160600Y-95262400D02*
X109214000Y-95209000D01*
X105117300Y-112630400D02*
X107685500Y-115198600D01*
%TO.N,/2SCL*%
X107137100Y-98465600D02*
X107137100Y-96787100D01*
X123089900Y-115731700D02*
X125221500Y-115731700D01*
X125221500Y-115731700D02*
X126309800Y-116820000D01*
X107137100Y-96787100D02*
X108065200Y-95859000D01*
X122294000Y-115925500D02*
X122896100Y-115925500D01*
X113995700Y-116758000D02*
X115022000Y-115731700D01*
X108414200Y-99511300D02*
X108182800Y-99511300D01*
X122896100Y-115925500D02*
X123089900Y-115731700D01*
X108065200Y-95859000D02*
X109214000Y-95859000D01*
X108182800Y-99511300D02*
X107137100Y-98465600D01*
X115022000Y-115731700D02*
X122100200Y-115731700D01*
X122100200Y-115731700D02*
X122294000Y-115925500D01*
%TO.N,/3SDA*%
X111606400Y-112336800D02*
X111156000Y-111886400D01*
X109214000Y-96509000D02*
X108087100Y-96509000D01*
X142691300Y-115460300D02*
X142691300Y-115460200D01*
X107635200Y-98281600D02*
X107635200Y-96960900D01*
X107635200Y-96960900D02*
X108087100Y-96509000D01*
X108138000Y-98784400D02*
X107635200Y-98281600D01*
X128718200Y-115460200D02*
X125594800Y-112336800D01*
X111106400Y-99677600D02*
X109608500Y-99677600D01*
X142691300Y-115460200D02*
X128718200Y-115460200D01*
X108715300Y-98784400D02*
X108138000Y-98784400D01*
X109608500Y-99677600D02*
X108715300Y-98784400D01*
X125594800Y-112336800D02*
X111606400Y-112336800D01*
%TO.N,/3SCL*%
X128084300Y-114187200D02*
X125782000Y-111884900D01*
X111464000Y-98413200D02*
X108983200Y-98413200D01*
X125782000Y-111884900D02*
X115811900Y-111884900D01*
X111555100Y-98322100D02*
X111464000Y-98413200D01*
X142910900Y-114187200D02*
X128084300Y-114187200D01*
X115811900Y-111884900D02*
X115414000Y-111487000D01*
X108087100Y-98094400D02*
X108087100Y-97159000D01*
X108983200Y-98413200D02*
X108902500Y-98332500D01*
X109214000Y-97159000D02*
X108087100Y-97159000D01*
X108325200Y-98332500D02*
X108087100Y-98094400D01*
X108902500Y-98332500D02*
X108325200Y-98332500D01*
D25*
%TO.N,GND*%
X191736300Y-109032000D02*
X191538200Y-109230100D01*
X111186000Y-95946000D02*
X111252000Y-96012000D01*
X189695600Y-75976900D02*
X189472500Y-76200000D01*
X184934100Y-76096600D02*
X183895900Y-76096600D01*
X118831500Y-77407000D02*
X118768500Y-77470000D01*
X98745500Y-109821300D02*
X98906200Y-109982000D01*
X148524000Y-85598000D02*
X149699000Y-86773000D01*
X154770500Y-109982000D02*
X154770500Y-109230100D01*
X111186000Y-96078000D02*
X111186000Y-97137000D01*
X218660000Y-109982000D02*
X217558100Y-109982000D01*
X228247800Y-58855300D02*
X228854000Y-59461500D01*
X145973800Y-97409000D02*
X148524000Y-94858800D01*
X89538600Y-110006200D02*
X89755000Y-110006200D01*
X152018900Y-76223600D02*
X151788500Y-76454000D01*
X110514000Y-97809000D02*
X109214000Y-97809000D01*
X149606000Y-109982000D02*
X150370300Y-109217700D01*
X187386000Y-86106000D02*
X188561000Y-87281000D01*
X113434500Y-77470000D02*
X113434500Y-76104200D01*
X111186000Y-97137000D02*
X110514000Y-97809000D01*
X151667000Y-86773000D02*
X152842000Y-85598000D01*
X122428000Y-106172000D02*
X127762000Y-106172000D01*
X112361000Y-89059000D02*
X114075000Y-89059000D01*
X145338800Y-97409000D02*
X145339000Y-97409000D01*
X149699000Y-86773000D02*
X151667000Y-86773000D01*
X217912000Y-71592500D02*
X219182000Y-72862500D01*
X191538200Y-109230100D02*
X191278800Y-109230100D01*
X111252000Y-96012000D02*
X111186000Y-96078000D01*
X154758100Y-109217700D02*
X153628700Y-109217700D01*
X112014000Y-89406000D02*
X112361000Y-89059000D01*
X146677600Y-75976900D02*
X146200500Y-76454000D01*
X89755000Y-110006200D02*
X89779200Y-109982000D01*
X111186000Y-87884000D02*
X111186000Y-95946000D01*
X90881100Y-109982000D02*
X89779200Y-109982000D01*
X119969900Y-77407000D02*
X118831500Y-77407000D01*
X148524000Y-94858800D02*
X148524000Y-94808000D01*
X188561000Y-87281000D02*
X190529000Y-87281000D01*
X216642000Y-71592500D02*
X217912000Y-71592500D01*
X145338800Y-97409000D02*
X145973800Y-97409000D01*
X154770500Y-109230100D02*
X154758100Y-109217700D01*
X147342300Y-75976900D02*
X146677600Y-75976900D01*
X148524000Y-94808000D02*
X148590000Y-94742000D01*
X112014000Y-89662000D02*
X112014000Y-89406000D01*
X183895900Y-76096600D02*
X183792500Y-76200000D01*
X145643500Y-109982000D02*
X149352000Y-109982000D01*
X227760000Y-58855300D02*
X228247800Y-58855300D01*
X158097500Y-76223600D02*
X157202400Y-76223600D01*
X120650000Y-107950000D02*
X122428000Y-106172000D01*
X190529000Y-87281000D02*
X191704000Y-86106000D01*
X148590000Y-94742000D02*
X148524000Y-94676000D01*
X217344500Y-109934100D02*
X217510200Y-109934100D01*
X157202400Y-76223600D02*
X156972000Y-76454000D01*
X195949200Y-77180700D02*
X194968500Y-76200000D01*
X114075000Y-89059000D02*
X115250000Y-87884000D01*
X108100500Y-77721600D02*
X108100500Y-77470000D01*
X145338800Y-97409000D02*
X145339000Y-97409000D01*
X183946800Y-98171000D02*
X183947000Y-98171000D01*
X184581800Y-98171000D02*
X187386000Y-95366800D01*
X118262300Y-109230100D02*
X118312600Y-109230100D01*
X187386000Y-95366800D02*
X187386000Y-86106000D01*
X173024700Y-109982000D02*
X173024700Y-109230100D01*
X152924500Y-76223600D02*
X152018900Y-76223600D01*
X118312600Y-109230100D02*
X118510700Y-109032000D01*
X173228200Y-109230100D02*
X173424700Y-109033600D01*
X190691300Y-75976900D02*
X189695600Y-75976900D01*
X150370300Y-109217700D02*
X153628700Y-109217700D01*
X111186000Y-87884000D02*
X112361000Y-89059000D01*
X217510200Y-109934100D02*
X217558100Y-109982000D01*
X118262300Y-109982000D02*
X118262300Y-109230100D01*
X148524000Y-94676000D02*
X148524000Y-85598000D01*
X108972000Y-78593100D02*
X108100500Y-77721600D01*
X149352000Y-109982000D02*
X149606000Y-109982000D01*
X183946800Y-98171000D02*
X184581800Y-98171000D01*
X100008100Y-109982000D02*
X98906200Y-109982000D01*
X191278800Y-109982000D02*
X191278800Y-109230100D01*
X173024700Y-109230100D02*
X173228200Y-109230100D01*
D24*
%TO.N,/4SDA*%
X160708600Y-116820000D02*
X159541000Y-115652400D01*
X144221600Y-112258500D02*
X127268400Y-112258500D01*
X114814000Y-97809000D02*
X115940900Y-97809000D01*
X127268400Y-112258500D02*
X126453600Y-111443700D01*
X159541000Y-115652400D02*
X147615500Y-115652400D01*
X115940900Y-97809000D02*
X118830300Y-100698400D01*
X147615500Y-115652400D02*
X144221600Y-112258500D01*
X118830300Y-100698400D02*
X120290800Y-100698400D01*
%TO.N,/4SCL*%
X151526100Y-115108600D02*
X148148600Y-111731100D01*
X129738900Y-102161600D02*
X122782000Y-102161600D01*
X136255200Y-111731100D02*
X136055700Y-111531600D01*
X161537200Y-115108600D02*
X151526100Y-115108600D01*
X122782000Y-102161600D02*
X117779400Y-97159000D01*
X148148600Y-111731100D02*
X136255200Y-111731100D01*
X163248600Y-116820000D02*
X161537200Y-115108600D01*
X117779400Y-97159000D02*
X114814000Y-97159000D01*
%TO.N,/5SDA*%
X179178100Y-116724300D02*
X175110000Y-112656200D01*
X123822100Y-101367500D02*
X118963600Y-96509000D01*
X154284400Y-112656200D02*
X153572500Y-111944300D01*
X118963600Y-96509000D02*
X114814000Y-96509000D01*
X150143100Y-101367500D02*
X123822100Y-101367500D01*
X179178100Y-116820000D02*
X179178100Y-116724300D01*
X175110000Y-112656200D02*
X154284400Y-112656200D01*
X152170700Y-103395100D02*
X150143100Y-101367500D01*
%TO.N,/5SCL*%
X124487500Y-100915600D02*
X119430900Y-95859000D01*
X180448200Y-115540100D02*
X177012000Y-112103900D01*
X177012000Y-112103900D02*
X156852100Y-112103900D01*
X156852100Y-112103900D02*
X156643300Y-111895100D01*
X151067800Y-100915600D02*
X124487500Y-100915600D01*
X153353700Y-103201500D02*
X151067800Y-100915600D01*
X119430900Y-95859000D02*
X115940900Y-95859000D01*
X114814000Y-95859000D02*
X115940900Y-95859000D01*
%TO.N,/6SDA*%
X195300600Y-118283100D02*
X196377500Y-119360000D01*
X124425100Y-99949300D02*
X119684800Y-95209000D01*
X163547500Y-113527100D02*
X168303500Y-118283100D01*
X151262600Y-99949300D02*
X124425100Y-99949300D01*
X153353700Y-113527100D02*
X163547500Y-113527100D01*
X168303500Y-118283100D02*
X195300600Y-118283100D01*
X119684800Y-95209000D02*
X114814000Y-95209000D01*
%TO.N,/6SCL*%
X114814000Y-94559000D02*
X115940900Y-94559000D01*
X199556800Y-115430200D02*
X185353200Y-115430200D01*
X123737300Y-94732100D02*
X116114000Y-94732100D01*
X127115600Y-98110400D02*
X123737300Y-94732100D01*
X185353200Y-115430200D02*
X181300000Y-111377000D01*
X181300000Y-111377000D02*
X165629400Y-111377000D01*
X116114000Y-94732100D02*
X115940900Y-94559000D01*
X154096400Y-98110400D02*
X127115600Y-98110400D01*
X156616400Y-100630400D02*
X154096400Y-98110400D01*
%TO.N,/7SDA*%
X126075800Y-113881700D02*
X133948400Y-121754300D01*
X133948400Y-121754300D02*
X212190300Y-121754300D01*
X118255500Y-113881700D02*
X126075800Y-113881700D01*
X113087000Y-93909000D02*
X113020900Y-93975100D01*
X212190300Y-121754300D02*
X213874000Y-123438000D01*
X114814000Y-93909000D02*
X113087000Y-93909000D01*
%TO.N,/7SCL*%
X211842000Y-123438000D02*
X210851500Y-122447500D01*
X210851500Y-122447500D02*
X130204000Y-122447500D01*
X130204000Y-122447500D02*
X130204000Y-122447400D01*
X116688900Y-93721400D02*
X116226500Y-93259000D01*
X116226500Y-93259000D02*
X114814000Y-93259000D01*
%TO.N,/INPUTSDA*%
X219277800Y-90484300D02*
X219436000Y-90642500D01*
X150795000Y-89789000D02*
X154889200Y-89789000D01*
X194111500Y-90551000D02*
X193497200Y-90551000D01*
X122711900Y-91309000D02*
X117451900Y-91309000D01*
X116630600Y-91309000D02*
X114814000Y-91309000D01*
X123055500Y-91652600D02*
X122711900Y-91309000D01*
X105134300Y-96386000D02*
X104730900Y-96386000D01*
X117342300Y-91199400D02*
X116740200Y-91199400D01*
X146886800Y-91652600D02*
X123055500Y-91652600D01*
X114814000Y-91309000D02*
X112425100Y-91309000D01*
X112425100Y-91309000D02*
X112038700Y-91695400D01*
X179907200Y-89789000D02*
X154889200Y-89789000D01*
X147467300Y-92233100D02*
X146886800Y-91652600D01*
X195904300Y-89372500D02*
X194725800Y-90551000D01*
X216642000Y-69052500D02*
X217912000Y-69052500D01*
X181262800Y-91144600D02*
X179907200Y-89789000D01*
X116740200Y-91199400D02*
X116630600Y-91309000D01*
X217807600Y-90484300D02*
X219277800Y-90484300D01*
X185025800Y-91144600D02*
X181262800Y-91144600D01*
X185650400Y-91769200D02*
X185025800Y-91144600D01*
X117451900Y-91309000D02*
X117342300Y-91199400D01*
X104730900Y-96386000D02*
X104708900Y-96408000D01*
X189141800Y-90551000D02*
X188249900Y-89659100D01*
X150353200Y-89347200D02*
X150795000Y-89789000D01*
X193497200Y-90551000D02*
X189141800Y-90551000D01*
X217912000Y-69052500D02*
X219182000Y-70322500D01*
X194111500Y-90551000D02*
X194725800Y-90551000D01*
X216896000Y-89372500D02*
X195904300Y-89372500D01*
X103632000Y-96408000D02*
X104708900Y-96408000D01*
%TO.N,/INPUTSCL*%
X172296700Y-91059000D02*
X173778700Y-92541000D01*
X185372000Y-92637100D02*
X186502600Y-92637100D01*
X106452300Y-85381700D02*
X103732900Y-88101100D01*
X146803400Y-94201800D02*
X147318800Y-93686400D01*
X117041200Y-91926300D02*
X119316700Y-94201800D01*
X181262800Y-92483600D02*
X185218500Y-92483600D01*
X190516300Y-91821000D02*
X193497200Y-91821000D01*
X199690200Y-91821000D02*
X193497200Y-91821000D01*
X200583300Y-90927900D02*
X199690200Y-91821000D01*
X216642000Y-66512500D02*
X217912000Y-66512500D01*
X185218500Y-92483600D02*
X185372000Y-92637100D01*
X154889200Y-91059000D02*
X153660600Y-91059000D01*
X220242660Y-67782500D02*
X223012000Y-70551840D01*
X154889200Y-91059000D02*
X172296700Y-91059000D01*
X119316700Y-94201800D02*
X146803400Y-94201800D01*
X117008500Y-91959000D02*
X117041200Y-91926300D01*
X114814000Y-91959000D02*
X117008500Y-91959000D01*
X223012000Y-80716500D02*
X216896000Y-86832500D01*
X153660600Y-91059000D02*
X153255800Y-90654200D01*
X98044000Y-96408000D02*
X99120900Y-96408000D01*
X103732900Y-88101100D02*
X101141900Y-88101100D01*
X189189900Y-93147400D02*
X190516300Y-91821000D01*
X99120900Y-96408000D02*
X99272500Y-96256400D01*
X223012000Y-70551840D02*
X223012000Y-80716500D01*
X99272500Y-96256400D02*
X99507200Y-96256400D01*
X173778700Y-92541000D02*
X181205400Y-92541000D01*
X153255800Y-90654200D02*
X150239500Y-90654200D01*
X219436000Y-88102500D02*
X218166000Y-86832500D01*
X201227500Y-86832500D02*
X200583300Y-87476700D01*
X181205400Y-92541000D02*
X181262800Y-92483600D01*
X218166000Y-86832500D02*
X216896000Y-86832500D01*
X219182000Y-67782500D02*
X220242660Y-67782500D01*
X115148800Y-85381700D02*
X106452300Y-85381700D01*
X217912000Y-66512500D02*
X219182000Y-67782500D01*
X216896000Y-86832500D02*
X201227500Y-86832500D01*
D25*
%TO.N,VCC*%
X117437800Y-110779800D02*
X117293100Y-110635100D01*
X216642000Y-74132500D02*
X216710100Y-74132500D01*
X200405900Y-109787800D02*
X200405900Y-109943900D01*
X209532900Y-109606000D02*
X209532900Y-109230100D01*
X147799000Y-84423000D02*
X149767000Y-84423000D01*
X188629000Y-82734400D02*
X185682300Y-82734400D01*
X153511000Y-84423000D02*
X154889200Y-85801200D01*
X200405900Y-109943900D02*
X199615900Y-110733900D01*
X127389300Y-109982000D02*
X127389300Y-110733900D01*
X110461000Y-86709000D02*
X112175000Y-86709000D01*
X127389300Y-110733900D02*
X126950200Y-110733900D01*
X114119900Y-84005900D02*
X113218100Y-83104100D01*
X126808100Y-110591800D02*
X126100800Y-110591800D01*
X182151700Y-109982000D02*
X182151700Y-110733900D01*
X209532900Y-109230100D02*
X209190600Y-108887800D01*
X193497200Y-89281000D02*
X193497000Y-89281000D01*
X163897600Y-110733900D02*
X163684200Y-110947300D01*
X152117000Y-84423000D02*
X153511000Y-84423000D01*
X222169100Y-58015500D02*
X221307100Y-58877500D01*
X136516400Y-109982000D02*
X136516400Y-110733900D01*
X154889200Y-88519000D02*
X154889000Y-88519000D01*
X154443800Y-84187900D02*
X154443800Y-83753900D01*
X209652900Y-109486000D02*
X209652900Y-109032000D01*
X108905000Y-110894000D02*
X83867900Y-110894000D01*
X188864000Y-82481900D02*
X188864000Y-82499400D01*
X165276600Y-110525100D02*
X165067800Y-110733900D01*
X188864000Y-81280000D02*
X188864000Y-82481900D01*
X200405900Y-109230100D02*
X200235700Y-109059900D01*
X156606000Y-81534000D02*
X156606000Y-82433000D01*
X200405900Y-109982000D02*
X200405900Y-109943900D01*
X138917700Y-110947300D02*
X138725300Y-111139700D01*
X193497200Y-86055200D02*
X193497200Y-89281000D01*
X117293100Y-110635100D02*
X109163900Y-110635100D01*
X145721000Y-83520000D02*
X145721000Y-81534000D01*
X114525000Y-86709000D02*
X115919000Y-86709000D01*
X117437800Y-110779800D02*
X117437800Y-110903200D01*
X112175000Y-86709000D02*
X113350000Y-87884000D01*
X126100800Y-110591800D02*
X125912800Y-110779800D01*
X188629000Y-82734400D02*
X188629000Y-84931000D01*
X109520800Y-84005900D02*
X112316300Y-84005900D01*
X163897600Y-109982000D02*
X163897600Y-110733900D01*
X220476800Y-75402500D02*
X219182000Y-75402500D01*
X195720000Y-81342100D02*
X216326500Y-81342100D01*
X209532900Y-109606000D02*
X209652900Y-109486000D01*
X195657900Y-81280000D02*
X195720000Y-81342100D01*
X126950200Y-110733900D02*
X126808100Y-110591800D01*
X194706000Y-81280000D02*
X195657900Y-81280000D01*
X109163900Y-110635100D02*
X109135200Y-110663800D01*
X115389800Y-89590400D02*
X115636200Y-89836800D01*
X218581100Y-75402500D02*
X219182000Y-75402500D01*
X190979000Y-84931000D02*
X192373000Y-84931000D01*
X188864000Y-82499400D02*
X188629000Y-82734400D01*
X116000700Y-86627300D02*
X116000700Y-84005900D01*
X115500800Y-90377000D02*
X115298400Y-90174600D01*
X115919000Y-86709000D02*
X116000700Y-86627300D01*
X103139900Y-81565100D02*
X107330000Y-81565100D01*
X216896000Y-94452500D02*
X216964100Y-94452500D01*
X82042000Y-110170000D02*
X83143900Y-110170000D01*
X185682300Y-82734400D02*
X184227900Y-81280000D01*
X107330000Y-82767000D02*
X108281900Y-82767000D01*
X222504000Y-58015500D02*
X222169100Y-58015500D01*
X109286000Y-87884000D02*
X110461000Y-86709000D01*
X146624000Y-85598000D02*
X147799000Y-84423000D01*
X150942000Y-85598000D02*
X152117000Y-84423000D01*
X216964100Y-94452500D02*
X218234100Y-95722500D01*
X149767000Y-84423000D02*
X150942000Y-85598000D01*
X109135200Y-109982000D02*
X109135200Y-110663800D01*
X216710100Y-74132500D02*
X217980100Y-75402500D01*
X101901000Y-82804000D02*
X103139900Y-81565100D01*
X136516400Y-109982000D02*
X135414500Y-109982000D01*
X121666000Y-90377000D02*
X115500800Y-90377000D01*
X183276000Y-81280000D02*
X184227900Y-81280000D01*
X156606000Y-82480400D02*
X156606000Y-82735900D01*
X185486000Y-86106000D02*
X186661000Y-84931000D01*
X188629000Y-84931000D02*
X189804000Y-86106000D01*
X113218100Y-83104100D02*
X112918000Y-82804000D01*
X221996000Y-73883300D02*
X220476800Y-75402500D01*
X153859800Y-84771900D02*
X154443800Y-84187900D01*
X115389700Y-89590400D02*
X115389800Y-89590400D01*
X188864000Y-82481900D02*
X194706000Y-82481900D01*
X138725300Y-111139700D02*
X136922200Y-111139700D01*
X219436000Y-95722500D02*
X218234100Y-95722500D01*
X156606000Y-82735900D02*
X155461800Y-82735900D01*
X109286000Y-87884000D02*
X105184500Y-87884000D01*
X113350000Y-87884000D02*
X114525000Y-86709000D01*
X107330000Y-82767000D02*
X107330000Y-81565100D01*
X155461800Y-82735900D02*
X154443800Y-83753900D01*
X189804000Y-86106000D02*
X190979000Y-84931000D01*
X165982300Y-110525100D02*
X165276600Y-110525100D01*
X147211500Y-85010500D02*
X145721000Y-83520000D01*
X116200000Y-86990000D02*
X116200000Y-89273000D01*
X166191100Y-110733900D02*
X165982300Y-110525100D01*
X192373000Y-84931000D02*
X193497200Y-86055200D01*
X116000700Y-84005900D02*
X114119900Y-84005900D01*
X199615900Y-110733900D02*
X182151700Y-110733900D01*
X154443800Y-83753900D02*
X152223900Y-81534000D01*
X200235700Y-109059900D02*
X200235700Y-109032000D01*
X163684200Y-110947300D02*
X138917700Y-110947300D01*
X200405900Y-109787800D02*
X200405900Y-109230100D01*
X194706000Y-81280000D02*
X194706000Y-82481900D01*
X136922200Y-111139700D02*
X136516400Y-110733900D01*
X135414500Y-109982000D02*
X127389300Y-109982000D01*
X209532900Y-109982000D02*
X209532900Y-109606000D01*
X186661000Y-84931000D02*
X188629000Y-84931000D01*
X182151700Y-110733900D02*
X166191100Y-110733900D01*
X156606000Y-82480400D02*
X156607500Y-82481900D01*
X218581100Y-75402500D02*
X217980100Y-75402500D01*
X116200000Y-89273000D02*
X114814000Y-90659000D01*
X118506000Y-84005900D02*
X116000700Y-84005900D01*
X115919000Y-86709000D02*
X116200000Y-86990000D01*
X165067800Y-110733900D02*
X163897600Y-110733900D01*
X154889200Y-85801200D02*
X154889200Y-88519000D01*
X112316300Y-84005900D02*
X113218100Y-83104100D01*
X156606000Y-82433000D02*
X156606000Y-82480400D01*
X151272000Y-81534000D02*
X152223900Y-81534000D01*
X83867900Y-110894000D02*
X83143900Y-110170000D01*
X105184500Y-87884000D02*
X103378000Y-89690500D01*
X109135200Y-110663800D02*
X108905000Y-110894000D01*
X118506000Y-82804000D02*
X118506000Y-84005900D01*
X108281900Y-82767000D02*
X109520800Y-84005900D01*
X183026000Y-82481900D02*
X184227900Y-81280000D01*
X156607500Y-82481900D02*
X183026000Y-82481900D01*
X209190600Y-108887800D02*
X203759500Y-108887800D01*
X125912800Y-110779800D02*
X117437800Y-110779800D01*
D24*
%TO.N,/0GND*%
X73454900Y-101017600D02*
X82509300Y-101017600D01*
X72110500Y-102362000D02*
X73454900Y-101017600D01*
X92981100Y-109032000D02*
X91657900Y-109032000D01*
%TO.N,Net-(D1-A)*%
X222504000Y-59840500D02*
X224458000Y-57886500D01*
X224458000Y-57886500D02*
X228854000Y-57886500D01*
%TO.N,/0VCC*%
X82016700Y-109220000D02*
X82016700Y-109221600D01*
X74064500Y-109220000D02*
X73810500Y-108966000D01*
X84142000Y-109220000D02*
X82016700Y-109220000D01*
X82016700Y-109220000D02*
X74064500Y-109220000D01*
%TO.N,/1GND*%
X102108100Y-109032000D02*
X103283000Y-109032000D01*
X103283000Y-109032000D02*
X103370100Y-109119100D01*
%TO.N,/1VCC*%
X111235200Y-109032000D02*
X104506800Y-109032000D01*
X104506800Y-109032000D02*
X103550800Y-109988000D01*
X103550800Y-109988000D02*
X102019700Y-109988000D01*
%TO.N,/2GND*%
X120362300Y-109032000D02*
X120362300Y-109658900D01*
X120362300Y-109658900D02*
X120631300Y-109927900D01*
X120631300Y-109927900D02*
X123194000Y-109927900D01*
%TO.N,/2VCC*%
X128512400Y-109032000D02*
X128398300Y-109146100D01*
X129489300Y-109032000D02*
X128512400Y-109032000D01*
X128398300Y-109146100D02*
X122328600Y-109146100D01*
%TO.N,/3GND*%
X147743500Y-109032000D02*
X146043500Y-109032000D01*
%TO.N,/3VCC*%
X138372400Y-109902900D02*
X138372400Y-110287800D01*
X138616400Y-109032000D02*
X138616400Y-109658900D01*
X138616400Y-109658900D02*
X138372400Y-109902900D01*
%TO.N,/4GND*%
X157847400Y-109032000D02*
X158064900Y-108814500D01*
X158064900Y-108814500D02*
X160139100Y-108814500D01*
X156870500Y-109032000D02*
X157847400Y-109032000D01*
%TO.N,/4VCC*%
X162025500Y-109678800D02*
X158426200Y-109678800D01*
X162672300Y-109032000D02*
X162025500Y-109678800D01*
X165997600Y-109032000D02*
X162672300Y-109032000D01*
%TO.N,/5GND*%
X175124700Y-109032000D02*
X176225400Y-109032000D01*
X176225400Y-109032000D02*
X176538800Y-109345400D01*
%TO.N,/5VCC*%
X184251700Y-109032000D02*
X180219100Y-109032000D01*
X175487900Y-115430200D02*
X174098100Y-116820000D01*
X176856000Y-115430200D02*
X175487900Y-115430200D01*
%TO.N,/6GND*%
X193378800Y-109032000D02*
X193378800Y-108405100D01*
X193670000Y-108405100D02*
X193976600Y-108098500D01*
X193378800Y-108405100D02*
X193670000Y-108405100D01*
%TO.N,/6VCC*%
X194831100Y-112887200D02*
X199277600Y-112887200D01*
X199277600Y-112887200D02*
X202505900Y-109658900D01*
X202505900Y-109032000D02*
X202505900Y-109658900D01*
%TO.N,/7GND*%
X208454900Y-121014300D02*
X216005300Y-121014300D01*
X216005300Y-121014300D02*
X216326500Y-120693100D01*
X223392800Y-124196800D02*
X220967100Y-124196800D01*
X223524000Y-124328000D02*
X223392800Y-124196800D01*
X220760000Y-109683600D02*
X220760000Y-109032000D01*
X221170100Y-110093700D02*
X220760000Y-109683600D01*
%TO.N,/7VCC*%
X219946500Y-108405100D02*
X219463800Y-108887800D01*
X226157600Y-108405100D02*
X219946500Y-108405100D01*
X213320800Y-108887800D02*
X212754000Y-108887800D01*
X227988500Y-110236000D02*
X226157600Y-108405100D01*
X212754000Y-108887800D02*
X212609800Y-109032000D01*
X219463800Y-108887800D02*
X213320800Y-108887800D01*
X217938000Y-123438000D02*
X216400000Y-121900000D01*
X216400000Y-121900000D02*
X215069800Y-121900000D01*
X211632900Y-109032000D02*
X212609800Y-109032000D01*
%TO.N,/mosfet3*%
X136516400Y-108082000D02*
X136516400Y-108708900D01*
X136540000Y-108708900D02*
X136833800Y-109002700D01*
X142489800Y-96139000D02*
X145338800Y-96139000D01*
X141546300Y-97082500D02*
X142489800Y-96139000D01*
X136516400Y-108708900D02*
X136540000Y-108708900D01*
%TO.N,/mosfet4*%
X154889200Y-97409000D02*
X156117800Y-97409000D01*
X156118700Y-97409900D02*
X156117800Y-97409000D01*
X156118700Y-98362900D02*
X156118700Y-97409900D01*
X163897600Y-108082000D02*
X161952100Y-108082000D01*
X161952100Y-108082000D02*
X161225300Y-108808800D01*
%TO.N,/mosfet5*%
X156117800Y-96139000D02*
X156339800Y-96139000D01*
X182151700Y-107455100D02*
X166209300Y-107455100D01*
X166209300Y-107455100D02*
X165798200Y-107866200D01*
X156339800Y-96139000D02*
X156878700Y-95600100D01*
X182151700Y-108082000D02*
X182151700Y-107455100D01*
X154889200Y-96139000D02*
X156117800Y-96139000D01*
%TO.N,/mosfet0*%
X82042000Y-107643100D02*
X88142900Y-101542200D01*
X145338800Y-92329000D02*
X144110200Y-92329000D01*
X88142900Y-101542200D02*
X118976800Y-101542200D01*
X118976800Y-101542200D02*
X118976800Y-101542100D01*
X82042000Y-108270000D02*
X82042000Y-107643100D01*
X123333200Y-92329000D02*
X123001900Y-92660300D01*
X144110200Y-92329000D02*
X123333200Y-92329000D01*
%TO.N,/mosfet6*%
X200405900Y-108082000D02*
X200405900Y-107455100D01*
X154889200Y-94869000D02*
X158466600Y-94869000D01*
X198543000Y-105592200D02*
X200405900Y-107455100D01*
X165390600Y-105592200D02*
X198543000Y-105592200D01*
X158466600Y-94869000D02*
X158990400Y-94345200D01*
%TO.N,/mosfet1*%
X145338800Y-93599000D02*
X144110200Y-93599000D01*
X109135200Y-108082000D02*
X109135200Y-107455100D01*
X143548700Y-93265400D02*
X143776600Y-93265400D01*
X112285500Y-104304800D02*
X134721200Y-104304800D01*
X109135200Y-107455100D02*
X112285500Y-104304800D01*
X143776600Y-93265400D02*
X144110200Y-93599000D01*
%TO.N,/mosfet7*%
X156782200Y-93902200D02*
X156421000Y-93902200D01*
X209532900Y-107455100D02*
X206869000Y-104791200D01*
X209532900Y-108082000D02*
X209532900Y-107455100D01*
X163814400Y-104791200D02*
X163464100Y-105141500D01*
X156421000Y-93902200D02*
X156117800Y-93599000D01*
X206869000Y-104791200D02*
X163814400Y-104791200D01*
X154889200Y-93599000D02*
X156117800Y-93599000D01*
%TO.N,/mosfet2*%
X128366200Y-108082000D02*
X133629200Y-108082000D01*
X127389300Y-108082000D02*
X128366200Y-108082000D01*
X133675900Y-97081300D02*
X135888200Y-94869000D01*
X135888200Y-94869000D02*
X145338800Y-94869000D01*
X133629200Y-108082000D02*
X133674700Y-108036500D01*
%TO.N,/TCA_A0*%
X106275500Y-77470000D02*
X106171600Y-77573900D01*
X106030000Y-84423900D02*
X106030000Y-82767000D01*
X108087100Y-90479300D02*
X107065400Y-89457600D01*
X106171600Y-77573900D02*
X105126000Y-77573900D01*
X108087100Y-90659000D02*
X108087100Y-90479300D01*
X109214000Y-90659000D02*
X108087100Y-90659000D01*
X105292900Y-85161000D02*
X106030000Y-84423900D01*
%TO.N,/TCA_A1*%
X109214000Y-91309000D02*
X110340900Y-91309000D01*
X111043700Y-76904200D02*
X111609500Y-77470000D01*
X110340900Y-89762900D02*
X110137500Y-89559500D01*
X110146100Y-76904200D02*
X111043700Y-76904200D01*
X110282400Y-82804000D02*
X110137500Y-82948900D01*
X110791100Y-82804000D02*
X110282400Y-82804000D01*
X110340900Y-91309000D02*
X110340900Y-89762900D01*
X111618000Y-82804000D02*
X110791100Y-82804000D01*
%TO.N,/TCA_A2*%
X117206000Y-82804000D02*
X116379100Y-82804000D01*
X114690800Y-82681800D02*
X116256900Y-82681800D01*
X116880500Y-77407000D02*
X116943500Y-77470000D01*
X116256900Y-82681800D02*
X116379100Y-82804000D01*
X114814000Y-92609000D02*
X113366900Y-92609000D01*
X114955800Y-77407000D02*
X116880500Y-77407000D01*
X113366900Y-92609000D02*
X113193100Y-92435200D01*
%TO.N,Net-(D2-A)*%
X73685500Y-102362000D02*
X73685500Y-107266000D01*
X73685500Y-107266000D02*
X71985500Y-108966000D01*
%TO.N,Net-(JP4-B)*%
X98044000Y-95108000D02*
X98044000Y-94281100D01*
X98044000Y-94281100D02*
X100612400Y-94281100D01*
X100612400Y-94281100D02*
X103378000Y-91515500D01*
%TO.N,/PCF1_A0*%
X144421000Y-82610900D02*
X144110200Y-82921700D01*
X144421000Y-76499500D02*
X144421000Y-81534000D01*
X144421000Y-81534000D02*
X144421000Y-82610900D01*
X144375500Y-76454000D02*
X144421000Y-76499500D01*
X144110200Y-82921700D02*
X144110200Y-88519000D01*
X145338800Y-88519000D02*
X144110200Y-88519000D01*
%TO.N,/PCF1_A1*%
X146567400Y-89500400D02*
X147152400Y-88915400D01*
X149972000Y-81534000D02*
X149972000Y-76462500D01*
X149972000Y-81534000D02*
X149145100Y-81534000D01*
X145338800Y-89789000D02*
X146567400Y-89789000D01*
X149972000Y-76462500D02*
X149963500Y-76454000D01*
X148953200Y-81342100D02*
X149145100Y-81534000D01*
X146567400Y-89789000D02*
X146567400Y-89500400D01*
X148461000Y-81342100D02*
X148953200Y-81342100D01*
%TO.N,/PCF1_A2*%
X145338800Y-91059000D02*
X146002400Y-91059000D01*
X146969500Y-91059000D02*
X147602100Y-90426400D01*
X155306000Y-81534000D02*
X155306000Y-81092900D01*
X155147000Y-80933900D02*
X153779700Y-80933900D01*
X155147000Y-80933900D02*
X155147000Y-76454000D01*
X155306000Y-81092900D02*
X155147000Y-80933900D01*
X146002400Y-91059000D02*
X146969500Y-91059000D01*
X153779700Y-80933900D02*
X153721600Y-80992000D01*
%TO.N,/PCF2_A0*%
X182266300Y-90096900D02*
X181648400Y-90096900D01*
X182718200Y-89281000D02*
X182718200Y-89645000D01*
X181967500Y-78586200D02*
X181967500Y-76200000D01*
X181648400Y-90096900D02*
X180904300Y-89352800D01*
X181976000Y-78594700D02*
X181967500Y-78586200D01*
X180904300Y-89352800D02*
X180904300Y-89209100D01*
X181967500Y-78586200D02*
X181788300Y-78586200D01*
X181976000Y-81280000D02*
X181976000Y-78594700D01*
X182718200Y-89645000D02*
X182266300Y-90096900D01*
X183946800Y-89281000D02*
X182718200Y-89281000D01*
%TO.N,/PCF2_A1*%
X187564000Y-76283500D02*
X187564000Y-79349700D01*
X183946800Y-90551000D02*
X185175400Y-90551000D01*
X185175400Y-90551000D02*
X185573000Y-90551000D01*
X187564000Y-81280000D02*
X187564000Y-79349700D01*
X187647500Y-76200000D02*
X187564000Y-76283500D01*
X185573000Y-90551000D02*
X185610100Y-90513900D01*
%TO.N,/PCF2_A2*%
X193143500Y-78137800D02*
X192773200Y-78137800D01*
X193143500Y-78137800D02*
X193143500Y-76200000D01*
X181948800Y-89369400D02*
X182654500Y-88663700D01*
X183946800Y-91821000D02*
X180911200Y-91821000D01*
X193143500Y-79940600D02*
X193143500Y-78137800D01*
X193406000Y-81280000D02*
X193406000Y-80203100D01*
X193406000Y-80203100D02*
X193143500Y-79940600D01*
X182654500Y-88663700D02*
X186337000Y-88663700D01*
X186337000Y-88663700D02*
X186337000Y-88663600D01*
X180911200Y-91821000D02*
X180904300Y-91814100D01*
%TO.N,/mosfet10*%
X145482100Y-102954300D02*
X145482100Y-102954200D01*
X182620100Y-92992900D02*
X182718200Y-93091000D01*
X90881100Y-108082000D02*
X90881100Y-107455100D01*
X90881100Y-107455100D02*
X95381900Y-102954300D01*
X95381900Y-102954300D02*
X145482100Y-102954300D01*
X150154900Y-93908200D02*
X151070200Y-92992900D01*
X183946800Y-93091000D02*
X182718200Y-93091000D01*
X151070200Y-92992900D02*
X182620100Y-92992900D01*
%TO.N,/mosfet11*%
X155699800Y-104122000D02*
X165460800Y-94361000D01*
X100008100Y-107455100D02*
X103915700Y-103547500D01*
X165460800Y-94361000D02*
X183946800Y-94361000D01*
X100008100Y-108082000D02*
X100008100Y-107455100D01*
X144798600Y-103547500D02*
X145373100Y-104122000D01*
X145373100Y-104122000D02*
X155699800Y-104122000D01*
X103915700Y-103547500D02*
X144798600Y-103547500D01*
%TO.N,/mosfet12*%
X165957800Y-95631000D02*
X183946800Y-95631000D01*
X118262300Y-107455100D02*
X120653800Y-105063600D01*
X118262300Y-108082000D02*
X118262300Y-107455100D01*
X156525200Y-105063600D02*
X165957800Y-95631000D01*
X120653800Y-105063600D02*
X156525200Y-105063600D01*
%TO.N,/mosfet13*%
X145643500Y-108082000D02*
X145643500Y-107455100D01*
X166364600Y-96901000D02*
X155810500Y-107455100D01*
X155810500Y-107455100D02*
X145643500Y-107455100D01*
X183946800Y-96901000D02*
X166364600Y-96901000D01*
%TO.N,/mosfet14*%
X164564500Y-103013200D02*
X159495700Y-108082000D01*
X193497200Y-98171000D02*
X192268600Y-98171000D01*
X187426400Y-103013200D02*
X164564500Y-103013200D01*
X192268600Y-98171000D02*
X187426400Y-103013200D01*
X159495700Y-108082000D02*
X154770500Y-108082000D01*
%TO.N,/mosfet15*%
X193497200Y-96901000D02*
X192268600Y-96901000D01*
X188152000Y-101017600D02*
X176968500Y-101017600D01*
X192268600Y-96901000D02*
X188152000Y-101017600D01*
X173024700Y-108082000D02*
X176567400Y-108082000D01*
X176567400Y-108082000D02*
X176684200Y-108198800D01*
%TO.N,/mosfet16*%
X192268600Y-95631000D02*
X191870800Y-96028800D01*
X192737500Y-107600200D02*
X192856500Y-107600200D01*
X193497200Y-95631000D02*
X192268600Y-95631000D01*
X192255700Y-108082000D02*
X192737500Y-107600200D01*
X191870800Y-96028800D02*
X191870800Y-96146600D01*
X191278800Y-108082000D02*
X192255700Y-108082000D01*
%TO.N,/mosfet17*%
X216326500Y-97126300D02*
X213561200Y-94361000D01*
X213561200Y-94361000D02*
X193497200Y-94361000D01*
X218660000Y-108082000D02*
X218660000Y-107455100D01*
X216497800Y-107455100D02*
X216326500Y-107283800D01*
X218660000Y-107455100D02*
X216497800Y-107455100D01*
%TO.N,Net-(JP5-B)*%
X102555100Y-95108000D02*
X102555100Y-97060100D01*
X103632000Y-95108000D02*
X102555100Y-95108000D01*
X121574300Y-92293700D02*
X121666000Y-92202000D01*
X102555100Y-97060100D02*
X105925100Y-100430100D01*
X118518700Y-92293700D02*
X121574300Y-92293700D01*
X105925100Y-100430100D02*
X117498900Y-100430100D01*
%TO.N,Net-(J8-Pad12)*%
X226163500Y-110236000D02*
X219991300Y-116408200D01*
X208534000Y-116408200D02*
X208534000Y-116408300D01*
X219991300Y-116408200D02*
X208534000Y-116408200D01*
%TD*%
M02*
