M48
; DRILL file {KiCad 7.0.9} date Tue Apr  9 00:56:21 2024
; FORMAT={-:-/ absolute / inch / decimal}
; #@! TF.CreationDate,2024-04-09T00:56:21-04:00
; #@! TF.GenerationSoftware,Kicad,Pcbnew,7.0.9
; #@! TF.FileFunction,Plated,1,2,PTH
FMAT,2
INCH
; #@! TA.AperFunction,Plated,PTH,ViaDrill
T1C0.0157
; #@! TA.AperFunction,Plated,PTH,ComponentDrill
T2C0.0299
; #@! TA.AperFunction,Plated,PTH,ComponentDrill
T3C0.0350
; #@! TA.AperFunction,Plated,PTH,ComponentDrill
T4C0.0618
%
G90
G05
T1
X3.229Y-4.3001
X3.2484Y-3.9771
X3.5251Y-4.331
X3.6086Y-4.2926
X3.8876Y-4.3237
X3.9176Y-3.7896
X3.982Y-3.4685
X4.0106Y-3.7221
X4.0165Y-4.3302
X4.0232Y-3.3612
X4.0697Y-4.296
X4.1385Y-4.4343
X4.1388Y-3.0541
X4.1391Y-3.7947
X4.1454Y-3.3528
X4.1488Y-3.6787
X4.1569Y-3.6154
X4.165Y-3.8404
X4.1922Y-3.74
X4.2152Y-3.522
X4.243Y-3.7219
X4.2683Y-3.9178
X4.2902Y-3.0942
X4.3361Y-3.2657
X4.3361Y-3.526
X4.3365Y-3.0277
X4.3743Y-3.9243
X4.3762Y-4.405
X4.3919Y-3.8709
X4.41Y-3.53
X4.411Y-3.6101
X4.4496Y-3.6998
X4.4564Y-3.6392
X4.4659Y-2.9962
X4.488Y-4.5968
X4.5154Y-3.2552
X4.5258Y-3.0475
X4.5334Y-3.3615
X4.5429Y-3.5272
X4.5439Y-4.3893
X4.5941Y-3.6898
X4.6079Y-3.6191
X4.6235Y-4.3663
X4.6259Y-3.9539
X4.6557Y-4.4835
X4.6658Y-4.2926
X4.6661Y-3.6336
X4.6841Y-3.9977
X4.7232Y-3.0475
X4.7359Y-3.9645
X4.75Y-4.25
X4.8161Y-4.2971
X4.8266Y-4.5354
X4.8426Y-3.648
X4.8502Y-4.3279
X4.9785Y-4.3875
X5.03Y-4.18
X5.1078Y-4.0221
X5.1261Y-4.8208
X5.2628Y-4.2534
X5.2628Y-3.8221
X5.304Y-4.1065
X5.3565Y-4.391
X5.3872Y-4.2914
X5.4477Y-4.342
X5.5727Y-3.8221
X5.6178Y-4.5457
X5.6264Y-4.4956
X5.6515Y-3.6719
X5.7276Y-4.0533
X5.7497Y-4.2926
X5.7934Y-3.5006
X5.8Y-3.6884
X5.8009Y-2.9912
X5.8058Y-3.6312
X5.8111Y-3.5601
X5.8449Y-3.2024
X5.8474Y-3.7025
X5.88Y-4.33
X5.9116Y-3.6972
X5.9149Y-3.5691
X5.9194Y-3.5176
X5.9552Y-3.935
X5.991Y-4.0707
X6.0206Y-3.0009
X6.0375Y-4.0631
X6.0375Y-4.4696
X6.0462Y-4.4073
X6.0484Y-4.2999
X6.052Y-3.1887
X6.1464Y-3.8726
X6.166Y-3.9618
X6.1671Y-4.4053
X6.1725Y-3.6969
X6.1763Y-3.7638
X6.2243Y-3.0009
X6.2373Y-4.3181
X6.2595Y-3.7144
X6.3047Y-4.284
X6.3475Y-4.2838
X6.4356Y-4.1394
X6.5114Y-4.1572
X6.5208Y-4.3849
X6.5275Y-4.2467
X6.8277Y-4.2927
X6.9503Y-4.3049
X6.9561Y-4.2598
X6.9628Y-4.5445
X6.9673Y-3.9771
X7.0952Y-4.2926
X7.1043Y-4.5488
X7.1222Y-3.5122
X7.1222Y-3.6147
X7.157Y-3.0939
X7.1633Y-3.5185
X7.2809Y-2.9959
X7.3075Y-3.5635
X7.3091Y-3.613
X7.3361Y-3.4907
X7.3426Y-3.6471
X7.3774Y-3.7012
X7.3844Y-3.124
X7.4114Y-3.5299
X7.4484Y-3.6672
X7.5075Y-2.9912
X7.5487Y-4.2926
X7.554Y-3.7853
X7.5895Y-3.0763
X7.5928Y-4.2362
X7.6369Y-4.2558
X7.6705Y-4.4444
X7.7145Y-3.0386
X7.8566Y-4.5445
X7.8833Y-4.2926
X7.897Y-3.444
X7.897Y-3.5798
X8.022Y-4.2869
X8.2069Y-4.7643
X8.21Y-4.583
X8.2541Y-4.2926
X8.3985Y-4.2869
X8.4673Y-4.7992
X8.5168Y-3.2024
X8.5168Y-3.8239
X8.5168Y-4.2238
X8.5168Y-4.7517
X8.5569Y-4.3281
X8.5751Y-3.5624
X8.6995Y-4.8896
X8.7075Y-4.3344
X8.7129Y-2.318
X8.74Y-2.9088
X8.9669Y-2.3171
T2
X3.18Y-4.6992
X3.23Y-4.5992
X3.28Y-4.6992
X3.33Y-4.5992
X3.38Y-4.6992
X3.43Y-4.5992
X3.48Y-4.6992
X3.53Y-4.5992
X3.8957Y-4.6992
X3.9457Y-4.5992
X3.9957Y-4.6992
X4.0457Y-4.5992
X4.0957Y-4.6992
X4.1457Y-4.5992
X4.1957Y-4.6992
X4.2457Y-4.5992
X4.6228Y-4.6992
X4.6728Y-4.5992
X4.7228Y-4.6992
X4.7728Y-4.5992
X4.8228Y-4.6992
X4.8728Y-4.5992
X4.9228Y-4.6992
X4.9728Y-4.5992
X5.35Y-4.6992
X5.4Y-4.5992
X5.45Y-4.6992
X5.5Y-4.5992
X5.55Y-4.6992
X5.6Y-4.5992
X5.65Y-4.6992
X5.7Y-4.5992
X6.0771Y-4.6992
X6.1271Y-4.5992
X6.1771Y-4.6992
X6.2271Y-4.5992
X6.2771Y-4.6992
X6.3271Y-4.5992
X6.3771Y-4.6992
X6.4271Y-4.5992
X6.8043Y-4.6992
X6.8543Y-4.5992
X6.9043Y-4.6992
X6.9543Y-4.5992
X7.0043Y-4.6992
X7.0543Y-4.5992
X7.1043Y-4.6992
X7.1543Y-4.5992
X7.5314Y-4.6992
X7.5814Y-4.5992
X7.6314Y-4.6992
X7.6814Y-4.5992
X7.7314Y-4.6992
X7.7814Y-4.5992
X7.8314Y-4.6992
X7.8814Y-4.5992
X8.5292Y-2.6186
X8.5292Y-2.7186
X8.5292Y-2.8186
X8.5292Y-2.9186
X8.5392Y-3.4186
X8.5392Y-3.5186
X8.5392Y-3.6186
X8.5392Y-3.7186
X8.6292Y-2.6686
X8.6292Y-2.7686
X8.6292Y-2.8686
X8.6292Y-2.9686
X8.6392Y-3.4686
X8.6392Y-3.5686
X8.6392Y-3.6686
X8.6392Y-3.7686
T3
X8.21Y-4.67
X8.3002Y-4.67
X8.3402Y-4.8598
X8.3802Y-4.9298
X8.4202Y-4.8598
X8.4602Y-4.9298
X8.5002Y-4.8598
X8.5402Y-4.9298
X8.5802Y-4.8598
X8.6202Y-4.9298
X8.66Y-4.67
X8.7502Y-4.67
T4
X8.16Y-4.8948
X8.8002Y-4.8948
T0
M30
