%TF.GenerationSoftware,KiCad,Pcbnew,7.0.9*%
%TF.CreationDate,2024-06-23T11:57:03-04:00*%
%TF.ProjectId,WIRED-Seek-Board-revA1,57495245-442d-4536-9565-6b2d426f6172,Rev A1*%
%TF.SameCoordinates,Original*%
%TF.FileFunction,Legend,Bot*%
%TF.FilePolarity,Positive*%
%FSLAX46Y46*%
G04 Gerber Fmt 4.6, Leading zero omitted, Abs format (unit mm)*
G04 Created by KiCad (PCBNEW 7.0.9) date 2024-06-23 11:57:03*
%MOMM*%
%LPD*%
G01*
G04 APERTURE LIST*
%ADD10C,0.300000*%
%ADD11C,3.500000*%
%ADD12R,2.500000X2.500000*%
%ADD13C,2.500000*%
%ADD14C,3.250000*%
%ADD15R,1.500000X1.500000*%
%ADD16C,1.500000*%
%ADD17C,2.300000*%
G04 APERTURE END LIST*
D10*
X166110999Y-89642871D02*
X166253856Y-89571442D01*
X166253856Y-89571442D02*
X166539570Y-89571442D01*
X166539570Y-89571442D02*
X166682428Y-89642871D01*
X166682428Y-89642871D02*
X166825285Y-89785728D01*
X166825285Y-89785728D02*
X166896713Y-89928585D01*
X166896713Y-89928585D02*
X166896713Y-90214300D01*
X166896713Y-90214300D02*
X166825285Y-90357157D01*
X166825285Y-90357157D02*
X166682428Y-90500014D01*
X166682428Y-90500014D02*
X166539570Y-90571442D01*
X166539570Y-90571442D02*
X166253856Y-90571442D01*
X166253856Y-90571442D02*
X166110999Y-90500014D01*
X166396713Y-89071442D02*
X166753856Y-89142871D01*
X166753856Y-89142871D02*
X167110999Y-89357157D01*
X167110999Y-89357157D02*
X167325285Y-89714300D01*
X167325285Y-89714300D02*
X167396713Y-90071442D01*
X167396713Y-90071442D02*
X167325285Y-90428585D01*
X167325285Y-90428585D02*
X167110999Y-90785728D01*
X167110999Y-90785728D02*
X166753856Y-91000014D01*
X166753856Y-91000014D02*
X166396713Y-91071442D01*
X166396713Y-91071442D02*
X166039570Y-91000014D01*
X166039570Y-91000014D02*
X165682428Y-90785728D01*
X165682428Y-90785728D02*
X165468142Y-90428585D01*
X165468142Y-90428585D02*
X165396713Y-90071442D01*
X165396713Y-90071442D02*
X165468142Y-89714300D01*
X165468142Y-89714300D02*
X165682428Y-89357157D01*
X165682428Y-89357157D02*
X166039570Y-89142871D01*
X166039570Y-89142871D02*
X166396713Y-89071442D01*
X163182427Y-89285728D02*
X163182427Y-90357157D01*
X163182427Y-90357157D02*
X163253856Y-90571442D01*
X163253856Y-90571442D02*
X163396713Y-90714300D01*
X163396713Y-90714300D02*
X163610999Y-90785728D01*
X163610999Y-90785728D02*
X163753856Y-90785728D01*
X161896713Y-90714300D02*
X162039570Y-90785728D01*
X162039570Y-90785728D02*
X162325285Y-90785728D01*
X162325285Y-90785728D02*
X162468142Y-90714300D01*
X162468142Y-90714300D02*
X162539570Y-90571442D01*
X162539570Y-90571442D02*
X162539570Y-90000014D01*
X162539570Y-90000014D02*
X162468142Y-89857157D01*
X162468142Y-89857157D02*
X162325285Y-89785728D01*
X162325285Y-89785728D02*
X162039570Y-89785728D01*
X162039570Y-89785728D02*
X161896713Y-89857157D01*
X161896713Y-89857157D02*
X161825285Y-90000014D01*
X161825285Y-90000014D02*
X161825285Y-90142871D01*
X161825285Y-90142871D02*
X162539570Y-90285728D01*
X161182428Y-90785728D02*
X161182428Y-89785728D01*
X161182428Y-90071442D02*
X161110999Y-89928585D01*
X161110999Y-89928585D02*
X161039571Y-89857157D01*
X161039571Y-89857157D02*
X160896713Y-89785728D01*
X160896713Y-89785728D02*
X160753856Y-89785728D01*
X160253857Y-90785728D02*
X160253857Y-89785728D01*
X160253857Y-89285728D02*
X160325285Y-89357157D01*
X160325285Y-89357157D02*
X160253857Y-89428585D01*
X160253857Y-89428585D02*
X160182428Y-89357157D01*
X160182428Y-89357157D02*
X160253857Y-89285728D01*
X160253857Y-89285728D02*
X160253857Y-89428585D01*
X158896714Y-90714300D02*
X159039571Y-90785728D01*
X159039571Y-90785728D02*
X159325285Y-90785728D01*
X159325285Y-90785728D02*
X159468142Y-90714300D01*
X159468142Y-90714300D02*
X159539571Y-90642871D01*
X159539571Y-90642871D02*
X159610999Y-90500014D01*
X159610999Y-90500014D02*
X159610999Y-90071442D01*
X159610999Y-90071442D02*
X159539571Y-89928585D01*
X159539571Y-89928585D02*
X159468142Y-89857157D01*
X159468142Y-89857157D02*
X159325285Y-89785728D01*
X159325285Y-89785728D02*
X159039571Y-89785728D01*
X159039571Y-89785728D02*
X158896714Y-89857157D01*
X158253857Y-90785728D02*
X158253857Y-89285728D01*
X157611000Y-90785728D02*
X157611000Y-90000014D01*
X157611000Y-90000014D02*
X157682428Y-89857157D01*
X157682428Y-89857157D02*
X157825285Y-89785728D01*
X157825285Y-89785728D02*
X158039571Y-89785728D01*
X158039571Y-89785728D02*
X158182428Y-89857157D01*
X158182428Y-89857157D02*
X158253857Y-89928585D01*
X156682428Y-90785728D02*
X156825285Y-90714300D01*
X156825285Y-90714300D02*
X156896714Y-90642871D01*
X156896714Y-90642871D02*
X156968142Y-90500014D01*
X156968142Y-90500014D02*
X156968142Y-90071442D01*
X156968142Y-90071442D02*
X156896714Y-89928585D01*
X156896714Y-89928585D02*
X156825285Y-89857157D01*
X156825285Y-89857157D02*
X156682428Y-89785728D01*
X156682428Y-89785728D02*
X156468142Y-89785728D01*
X156468142Y-89785728D02*
X156325285Y-89857157D01*
X156325285Y-89857157D02*
X156253857Y-89928585D01*
X156253857Y-89928585D02*
X156182428Y-90071442D01*
X156182428Y-90071442D02*
X156182428Y-90500014D01*
X156182428Y-90500014D02*
X156253857Y-90642871D01*
X156253857Y-90642871D02*
X156325285Y-90714300D01*
X156325285Y-90714300D02*
X156468142Y-90785728D01*
X156468142Y-90785728D02*
X156682428Y-90785728D01*
X153682428Y-90785728D02*
X154396714Y-90785728D01*
X154396714Y-90785728D02*
X154396714Y-89285728D01*
X152539571Y-90785728D02*
X152539571Y-90000014D01*
X152539571Y-90000014D02*
X152610999Y-89857157D01*
X152610999Y-89857157D02*
X152753856Y-89785728D01*
X152753856Y-89785728D02*
X153039571Y-89785728D01*
X153039571Y-89785728D02*
X153182428Y-89857157D01*
X152539571Y-90714300D02*
X152682428Y-90785728D01*
X152682428Y-90785728D02*
X153039571Y-90785728D01*
X153039571Y-90785728D02*
X153182428Y-90714300D01*
X153182428Y-90714300D02*
X153253856Y-90571442D01*
X153253856Y-90571442D02*
X153253856Y-90428585D01*
X153253856Y-90428585D02*
X153182428Y-90285728D01*
X153182428Y-90285728D02*
X153039571Y-90214300D01*
X153039571Y-90214300D02*
X152682428Y-90214300D01*
X152682428Y-90214300D02*
X152539571Y-90142871D01*
X151825285Y-90785728D02*
X151825285Y-89285728D01*
X151825285Y-89857157D02*
X151682428Y-89785728D01*
X151682428Y-89785728D02*
X151396713Y-89785728D01*
X151396713Y-89785728D02*
X151253856Y-89857157D01*
X151253856Y-89857157D02*
X151182428Y-89928585D01*
X151182428Y-89928585D02*
X151110999Y-90071442D01*
X151110999Y-90071442D02*
X151110999Y-90500014D01*
X151110999Y-90500014D02*
X151182428Y-90642871D01*
X151182428Y-90642871D02*
X151253856Y-90714300D01*
X151253856Y-90714300D02*
X151396713Y-90785728D01*
X151396713Y-90785728D02*
X151682428Y-90785728D01*
X151682428Y-90785728D02*
X151825285Y-90714300D01*
X149325285Y-90785728D02*
X149325285Y-89285728D01*
X149325285Y-89285728D02*
X148825285Y-90357157D01*
X148825285Y-90357157D02*
X148325285Y-89285728D01*
X148325285Y-89285728D02*
X148325285Y-90785728D01*
X147610999Y-90785728D02*
X147610999Y-89285728D01*
X147110998Y-89285728D02*
X146253856Y-89285728D01*
X146682427Y-90785728D02*
X146682427Y-89285728D01*
X144396713Y-90785728D02*
X144539570Y-90714300D01*
X144539570Y-90714300D02*
X144610999Y-90571442D01*
X144610999Y-90571442D02*
X144610999Y-89285728D01*
X143825285Y-90785728D02*
X143825285Y-89785728D01*
X143825285Y-89285728D02*
X143896713Y-89357157D01*
X143896713Y-89357157D02*
X143825285Y-89428585D01*
X143825285Y-89428585D02*
X143753856Y-89357157D01*
X143753856Y-89357157D02*
X143825285Y-89285728D01*
X143825285Y-89285728D02*
X143825285Y-89428585D01*
X142468142Y-90714300D02*
X142610999Y-90785728D01*
X142610999Y-90785728D02*
X142896713Y-90785728D01*
X142896713Y-90785728D02*
X143039570Y-90714300D01*
X143039570Y-90714300D02*
X143110999Y-90642871D01*
X143110999Y-90642871D02*
X143182427Y-90500014D01*
X143182427Y-90500014D02*
X143182427Y-90071442D01*
X143182427Y-90071442D02*
X143110999Y-89928585D01*
X143110999Y-89928585D02*
X143039570Y-89857157D01*
X143039570Y-89857157D02*
X142896713Y-89785728D01*
X142896713Y-89785728D02*
X142610999Y-89785728D01*
X142610999Y-89785728D02*
X142468142Y-89857157D01*
X141253856Y-90714300D02*
X141396713Y-90785728D01*
X141396713Y-90785728D02*
X141682428Y-90785728D01*
X141682428Y-90785728D02*
X141825285Y-90714300D01*
X141825285Y-90714300D02*
X141896713Y-90571442D01*
X141896713Y-90571442D02*
X141896713Y-90000014D01*
X141896713Y-90000014D02*
X141825285Y-89857157D01*
X141825285Y-89857157D02*
X141682428Y-89785728D01*
X141682428Y-89785728D02*
X141396713Y-89785728D01*
X141396713Y-89785728D02*
X141253856Y-89857157D01*
X141253856Y-89857157D02*
X141182428Y-90000014D01*
X141182428Y-90000014D02*
X141182428Y-90142871D01*
X141182428Y-90142871D02*
X141896713Y-90285728D01*
X140539571Y-89785728D02*
X140539571Y-90785728D01*
X140539571Y-89928585D02*
X140468142Y-89857157D01*
X140468142Y-89857157D02*
X140325285Y-89785728D01*
X140325285Y-89785728D02*
X140110999Y-89785728D01*
X140110999Y-89785728D02*
X139968142Y-89857157D01*
X139968142Y-89857157D02*
X139896714Y-90000014D01*
X139896714Y-90000014D02*
X139896714Y-90785728D01*
X139253856Y-90714300D02*
X139110999Y-90785728D01*
X139110999Y-90785728D02*
X138825285Y-90785728D01*
X138825285Y-90785728D02*
X138682428Y-90714300D01*
X138682428Y-90714300D02*
X138610999Y-90571442D01*
X138610999Y-90571442D02*
X138610999Y-90500014D01*
X138610999Y-90500014D02*
X138682428Y-90357157D01*
X138682428Y-90357157D02*
X138825285Y-90285728D01*
X138825285Y-90285728D02*
X139039571Y-90285728D01*
X139039571Y-90285728D02*
X139182428Y-90214300D01*
X139182428Y-90214300D02*
X139253856Y-90071442D01*
X139253856Y-90071442D02*
X139253856Y-90000014D01*
X139253856Y-90000014D02*
X139182428Y-89857157D01*
X139182428Y-89857157D02*
X139039571Y-89785728D01*
X139039571Y-89785728D02*
X138825285Y-89785728D01*
X138825285Y-89785728D02*
X138682428Y-89857157D01*
X137396713Y-90714300D02*
X137539570Y-90785728D01*
X137539570Y-90785728D02*
X137825285Y-90785728D01*
X137825285Y-90785728D02*
X137968142Y-90714300D01*
X137968142Y-90714300D02*
X138039570Y-90571442D01*
X138039570Y-90571442D02*
X138039570Y-90000014D01*
X138039570Y-90000014D02*
X137968142Y-89857157D01*
X137968142Y-89857157D02*
X137825285Y-89785728D01*
X137825285Y-89785728D02*
X137539570Y-89785728D01*
X137539570Y-89785728D02*
X137396713Y-89857157D01*
X137396713Y-89857157D02*
X137325285Y-90000014D01*
X137325285Y-90000014D02*
X137325285Y-90142871D01*
X137325285Y-90142871D02*
X138039570Y-90285728D01*
X174255287Y-106665728D02*
X174255287Y-105165728D01*
X174255287Y-105165728D02*
X173898144Y-105165728D01*
X173898144Y-105165728D02*
X173683858Y-105237157D01*
X173683858Y-105237157D02*
X173541001Y-105380014D01*
X173541001Y-105380014D02*
X173469572Y-105522871D01*
X173469572Y-105522871D02*
X173398144Y-105808585D01*
X173398144Y-105808585D02*
X173398144Y-106022871D01*
X173398144Y-106022871D02*
X173469572Y-106308585D01*
X173469572Y-106308585D02*
X173541001Y-106451442D01*
X173541001Y-106451442D02*
X173683858Y-106594300D01*
X173683858Y-106594300D02*
X173898144Y-106665728D01*
X173898144Y-106665728D02*
X174255287Y-106665728D01*
X172183858Y-106594300D02*
X172326715Y-106665728D01*
X172326715Y-106665728D02*
X172612430Y-106665728D01*
X172612430Y-106665728D02*
X172755287Y-106594300D01*
X172755287Y-106594300D02*
X172826715Y-106451442D01*
X172826715Y-106451442D02*
X172826715Y-105880014D01*
X172826715Y-105880014D02*
X172755287Y-105737157D01*
X172755287Y-105737157D02*
X172612430Y-105665728D01*
X172612430Y-105665728D02*
X172326715Y-105665728D01*
X172326715Y-105665728D02*
X172183858Y-105737157D01*
X172183858Y-105737157D02*
X172112430Y-105880014D01*
X172112430Y-105880014D02*
X172112430Y-106022871D01*
X172112430Y-106022871D02*
X172826715Y-106165728D01*
X171541001Y-106594300D02*
X171398144Y-106665728D01*
X171398144Y-106665728D02*
X171112430Y-106665728D01*
X171112430Y-106665728D02*
X170969573Y-106594300D01*
X170969573Y-106594300D02*
X170898144Y-106451442D01*
X170898144Y-106451442D02*
X170898144Y-106380014D01*
X170898144Y-106380014D02*
X170969573Y-106237157D01*
X170969573Y-106237157D02*
X171112430Y-106165728D01*
X171112430Y-106165728D02*
X171326716Y-106165728D01*
X171326716Y-106165728D02*
X171469573Y-106094300D01*
X171469573Y-106094300D02*
X171541001Y-105951442D01*
X171541001Y-105951442D02*
X171541001Y-105880014D01*
X171541001Y-105880014D02*
X171469573Y-105737157D01*
X171469573Y-105737157D02*
X171326716Y-105665728D01*
X171326716Y-105665728D02*
X171112430Y-105665728D01*
X171112430Y-105665728D02*
X170969573Y-105737157D01*
X170255287Y-106665728D02*
X170255287Y-105665728D01*
X170255287Y-105165728D02*
X170326715Y-105237157D01*
X170326715Y-105237157D02*
X170255287Y-105308585D01*
X170255287Y-105308585D02*
X170183858Y-105237157D01*
X170183858Y-105237157D02*
X170255287Y-105165728D01*
X170255287Y-105165728D02*
X170255287Y-105308585D01*
X168898144Y-105665728D02*
X168898144Y-106880014D01*
X168898144Y-106880014D02*
X168969572Y-107022871D01*
X168969572Y-107022871D02*
X169041001Y-107094300D01*
X169041001Y-107094300D02*
X169183858Y-107165728D01*
X169183858Y-107165728D02*
X169398144Y-107165728D01*
X169398144Y-107165728D02*
X169541001Y-107094300D01*
X168898144Y-106594300D02*
X169041001Y-106665728D01*
X169041001Y-106665728D02*
X169326715Y-106665728D01*
X169326715Y-106665728D02*
X169469572Y-106594300D01*
X169469572Y-106594300D02*
X169541001Y-106522871D01*
X169541001Y-106522871D02*
X169612429Y-106380014D01*
X169612429Y-106380014D02*
X169612429Y-105951442D01*
X169612429Y-105951442D02*
X169541001Y-105808585D01*
X169541001Y-105808585D02*
X169469572Y-105737157D01*
X169469572Y-105737157D02*
X169326715Y-105665728D01*
X169326715Y-105665728D02*
X169041001Y-105665728D01*
X169041001Y-105665728D02*
X168898144Y-105737157D01*
X168183858Y-105665728D02*
X168183858Y-106665728D01*
X168183858Y-105808585D02*
X168112429Y-105737157D01*
X168112429Y-105737157D02*
X167969572Y-105665728D01*
X167969572Y-105665728D02*
X167755286Y-105665728D01*
X167755286Y-105665728D02*
X167612429Y-105737157D01*
X167612429Y-105737157D02*
X167541001Y-105880014D01*
X167541001Y-105880014D02*
X167541001Y-106665728D01*
X166255286Y-106594300D02*
X166398143Y-106665728D01*
X166398143Y-106665728D02*
X166683858Y-106665728D01*
X166683858Y-106665728D02*
X166826715Y-106594300D01*
X166826715Y-106594300D02*
X166898143Y-106451442D01*
X166898143Y-106451442D02*
X166898143Y-105880014D01*
X166898143Y-105880014D02*
X166826715Y-105737157D01*
X166826715Y-105737157D02*
X166683858Y-105665728D01*
X166683858Y-105665728D02*
X166398143Y-105665728D01*
X166398143Y-105665728D02*
X166255286Y-105737157D01*
X166255286Y-105737157D02*
X166183858Y-105880014D01*
X166183858Y-105880014D02*
X166183858Y-106022871D01*
X166183858Y-106022871D02*
X166898143Y-106165728D01*
X164898144Y-106665728D02*
X164898144Y-105165728D01*
X164898144Y-106594300D02*
X165041001Y-106665728D01*
X165041001Y-106665728D02*
X165326715Y-106665728D01*
X165326715Y-106665728D02*
X165469572Y-106594300D01*
X165469572Y-106594300D02*
X165541001Y-106522871D01*
X165541001Y-106522871D02*
X165612429Y-106380014D01*
X165612429Y-106380014D02*
X165612429Y-105951442D01*
X165612429Y-105951442D02*
X165541001Y-105808585D01*
X165541001Y-105808585D02*
X165469572Y-105737157D01*
X165469572Y-105737157D02*
X165326715Y-105665728D01*
X165326715Y-105665728D02*
X165041001Y-105665728D01*
X165041001Y-105665728D02*
X164898144Y-105737157D01*
X163041001Y-106665728D02*
X163041001Y-105665728D01*
X163041001Y-105165728D02*
X163112429Y-105237157D01*
X163112429Y-105237157D02*
X163041001Y-105308585D01*
X163041001Y-105308585D02*
X162969572Y-105237157D01*
X162969572Y-105237157D02*
X163041001Y-105165728D01*
X163041001Y-105165728D02*
X163041001Y-105308585D01*
X162326715Y-105665728D02*
X162326715Y-106665728D01*
X162326715Y-105808585D02*
X162255286Y-105737157D01*
X162255286Y-105737157D02*
X162112429Y-105665728D01*
X162112429Y-105665728D02*
X161898143Y-105665728D01*
X161898143Y-105665728D02*
X161755286Y-105737157D01*
X161755286Y-105737157D02*
X161683858Y-105880014D01*
X161683858Y-105880014D02*
X161683858Y-106665728D01*
X158969572Y-106522871D02*
X159041000Y-106594300D01*
X159041000Y-106594300D02*
X159255286Y-106665728D01*
X159255286Y-106665728D02*
X159398143Y-106665728D01*
X159398143Y-106665728D02*
X159612429Y-106594300D01*
X159612429Y-106594300D02*
X159755286Y-106451442D01*
X159755286Y-106451442D02*
X159826715Y-106308585D01*
X159826715Y-106308585D02*
X159898143Y-106022871D01*
X159898143Y-106022871D02*
X159898143Y-105808585D01*
X159898143Y-105808585D02*
X159826715Y-105522871D01*
X159826715Y-105522871D02*
X159755286Y-105380014D01*
X159755286Y-105380014D02*
X159612429Y-105237157D01*
X159612429Y-105237157D02*
X159398143Y-105165728D01*
X159398143Y-105165728D02*
X159255286Y-105165728D01*
X159255286Y-105165728D02*
X159041000Y-105237157D01*
X159041000Y-105237157D02*
X158969572Y-105308585D01*
X157683858Y-106665728D02*
X157683858Y-105880014D01*
X157683858Y-105880014D02*
X157755286Y-105737157D01*
X157755286Y-105737157D02*
X157898143Y-105665728D01*
X157898143Y-105665728D02*
X158183858Y-105665728D01*
X158183858Y-105665728D02*
X158326715Y-105737157D01*
X157683858Y-106594300D02*
X157826715Y-106665728D01*
X157826715Y-106665728D02*
X158183858Y-106665728D01*
X158183858Y-106665728D02*
X158326715Y-106594300D01*
X158326715Y-106594300D02*
X158398143Y-106451442D01*
X158398143Y-106451442D02*
X158398143Y-106308585D01*
X158398143Y-106308585D02*
X158326715Y-106165728D01*
X158326715Y-106165728D02*
X158183858Y-106094300D01*
X158183858Y-106094300D02*
X157826715Y-106094300D01*
X157826715Y-106094300D02*
X157683858Y-106022871D01*
X156969572Y-105665728D02*
X156969572Y-106665728D01*
X156969572Y-105808585D02*
X156898143Y-105737157D01*
X156898143Y-105737157D02*
X156755286Y-105665728D01*
X156755286Y-105665728D02*
X156541000Y-105665728D01*
X156541000Y-105665728D02*
X156398143Y-105737157D01*
X156398143Y-105737157D02*
X156326715Y-105880014D01*
X156326715Y-105880014D02*
X156326715Y-106665728D01*
X154969572Y-106665728D02*
X154969572Y-105880014D01*
X154969572Y-105880014D02*
X155041000Y-105737157D01*
X155041000Y-105737157D02*
X155183857Y-105665728D01*
X155183857Y-105665728D02*
X155469572Y-105665728D01*
X155469572Y-105665728D02*
X155612429Y-105737157D01*
X154969572Y-106594300D02*
X155112429Y-106665728D01*
X155112429Y-106665728D02*
X155469572Y-106665728D01*
X155469572Y-106665728D02*
X155612429Y-106594300D01*
X155612429Y-106594300D02*
X155683857Y-106451442D01*
X155683857Y-106451442D02*
X155683857Y-106308585D01*
X155683857Y-106308585D02*
X155612429Y-106165728D01*
X155612429Y-106165728D02*
X155469572Y-106094300D01*
X155469572Y-106094300D02*
X155112429Y-106094300D01*
X155112429Y-106094300D02*
X154969572Y-106022871D01*
X153612429Y-106665728D02*
X153612429Y-105165728D01*
X153612429Y-106594300D02*
X153755286Y-106665728D01*
X153755286Y-106665728D02*
X154041000Y-106665728D01*
X154041000Y-106665728D02*
X154183857Y-106594300D01*
X154183857Y-106594300D02*
X154255286Y-106522871D01*
X154255286Y-106522871D02*
X154326714Y-106380014D01*
X154326714Y-106380014D02*
X154326714Y-105951442D01*
X154326714Y-105951442D02*
X154255286Y-105808585D01*
X154255286Y-105808585D02*
X154183857Y-105737157D01*
X154183857Y-105737157D02*
X154041000Y-105665728D01*
X154041000Y-105665728D02*
X153755286Y-105665728D01*
X153755286Y-105665728D02*
X153612429Y-105737157D01*
X152255286Y-106665728D02*
X152255286Y-105880014D01*
X152255286Y-105880014D02*
X152326714Y-105737157D01*
X152326714Y-105737157D02*
X152469571Y-105665728D01*
X152469571Y-105665728D02*
X152755286Y-105665728D01*
X152755286Y-105665728D02*
X152898143Y-105737157D01*
X152255286Y-106594300D02*
X152398143Y-106665728D01*
X152398143Y-106665728D02*
X152755286Y-106665728D01*
X152755286Y-106665728D02*
X152898143Y-106594300D01*
X152898143Y-106594300D02*
X152969571Y-106451442D01*
X152969571Y-106451442D02*
X152969571Y-106308585D01*
X152969571Y-106308585D02*
X152898143Y-106165728D01*
X152898143Y-106165728D02*
X152755286Y-106094300D01*
X152755286Y-106094300D02*
X152398143Y-106094300D01*
X152398143Y-106094300D02*
X152255286Y-106022871D01*
X151541000Y-106522871D02*
X151469571Y-106594300D01*
X151469571Y-106594300D02*
X151541000Y-106665728D01*
X151541000Y-106665728D02*
X151612428Y-106594300D01*
X151612428Y-106594300D02*
X151541000Y-106522871D01*
X151541000Y-106522871D02*
X151541000Y-106665728D01*
X149683857Y-106665728D02*
X149683857Y-105165728D01*
X149683857Y-105165728D02*
X149183857Y-106237157D01*
X149183857Y-106237157D02*
X148683857Y-105165728D01*
X148683857Y-105165728D02*
X148683857Y-106665728D01*
X147326714Y-106665728D02*
X147326714Y-105880014D01*
X147326714Y-105880014D02*
X147398142Y-105737157D01*
X147398142Y-105737157D02*
X147540999Y-105665728D01*
X147540999Y-105665728D02*
X147826714Y-105665728D01*
X147826714Y-105665728D02*
X147969571Y-105737157D01*
X147326714Y-106594300D02*
X147469571Y-106665728D01*
X147469571Y-106665728D02*
X147826714Y-106665728D01*
X147826714Y-106665728D02*
X147969571Y-106594300D01*
X147969571Y-106594300D02*
X148040999Y-106451442D01*
X148040999Y-106451442D02*
X148040999Y-106308585D01*
X148040999Y-106308585D02*
X147969571Y-106165728D01*
X147969571Y-106165728D02*
X147826714Y-106094300D01*
X147826714Y-106094300D02*
X147469571Y-106094300D01*
X147469571Y-106094300D02*
X147326714Y-106022871D01*
X145969571Y-106665728D02*
X145969571Y-105165728D01*
X145969571Y-106594300D02*
X146112428Y-106665728D01*
X146112428Y-106665728D02*
X146398142Y-106665728D01*
X146398142Y-106665728D02*
X146540999Y-106594300D01*
X146540999Y-106594300D02*
X146612428Y-106522871D01*
X146612428Y-106522871D02*
X146683856Y-106380014D01*
X146683856Y-106380014D02*
X146683856Y-105951442D01*
X146683856Y-105951442D02*
X146612428Y-105808585D01*
X146612428Y-105808585D02*
X146540999Y-105737157D01*
X146540999Y-105737157D02*
X146398142Y-105665728D01*
X146398142Y-105665728D02*
X146112428Y-105665728D01*
X146112428Y-105665728D02*
X145969571Y-105737157D01*
X144683856Y-106594300D02*
X144826713Y-106665728D01*
X144826713Y-106665728D02*
X145112428Y-106665728D01*
X145112428Y-106665728D02*
X145255285Y-106594300D01*
X145255285Y-106594300D02*
X145326713Y-106451442D01*
X145326713Y-106451442D02*
X145326713Y-105880014D01*
X145326713Y-105880014D02*
X145255285Y-105737157D01*
X145255285Y-105737157D02*
X145112428Y-105665728D01*
X145112428Y-105665728D02*
X144826713Y-105665728D01*
X144826713Y-105665728D02*
X144683856Y-105737157D01*
X144683856Y-105737157D02*
X144612428Y-105880014D01*
X144612428Y-105880014D02*
X144612428Y-106022871D01*
X144612428Y-106022871D02*
X145326713Y-106165728D01*
X142826714Y-106665728D02*
X142826714Y-105665728D01*
X142826714Y-105165728D02*
X142898142Y-105237157D01*
X142898142Y-105237157D02*
X142826714Y-105308585D01*
X142826714Y-105308585D02*
X142755285Y-105237157D01*
X142755285Y-105237157D02*
X142826714Y-105165728D01*
X142826714Y-105165728D02*
X142826714Y-105308585D01*
X142112428Y-105665728D02*
X142112428Y-106665728D01*
X142112428Y-105808585D02*
X142040999Y-105737157D01*
X142040999Y-105737157D02*
X141898142Y-105665728D01*
X141898142Y-105665728D02*
X141683856Y-105665728D01*
X141683856Y-105665728D02*
X141540999Y-105737157D01*
X141540999Y-105737157D02*
X141469571Y-105880014D01*
X141469571Y-105880014D02*
X141469571Y-106665728D01*
X138755285Y-106522871D02*
X138826713Y-106594300D01*
X138826713Y-106594300D02*
X139040999Y-106665728D01*
X139040999Y-106665728D02*
X139183856Y-106665728D01*
X139183856Y-106665728D02*
X139398142Y-106594300D01*
X139398142Y-106594300D02*
X139540999Y-106451442D01*
X139540999Y-106451442D02*
X139612428Y-106308585D01*
X139612428Y-106308585D02*
X139683856Y-106022871D01*
X139683856Y-106022871D02*
X139683856Y-105808585D01*
X139683856Y-105808585D02*
X139612428Y-105522871D01*
X139612428Y-105522871D02*
X139540999Y-105380014D01*
X139540999Y-105380014D02*
X139398142Y-105237157D01*
X139398142Y-105237157D02*
X139183856Y-105165728D01*
X139183856Y-105165728D02*
X139040999Y-105165728D01*
X139040999Y-105165728D02*
X138826713Y-105237157D01*
X138826713Y-105237157D02*
X138755285Y-105308585D01*
X138112428Y-106665728D02*
X138112428Y-105165728D01*
X137469571Y-106665728D02*
X137469571Y-105880014D01*
X137469571Y-105880014D02*
X137540999Y-105737157D01*
X137540999Y-105737157D02*
X137683856Y-105665728D01*
X137683856Y-105665728D02*
X137898142Y-105665728D01*
X137898142Y-105665728D02*
X138040999Y-105737157D01*
X138040999Y-105737157D02*
X138112428Y-105808585D01*
X136755285Y-106665728D02*
X136755285Y-105665728D01*
X136755285Y-105165728D02*
X136826713Y-105237157D01*
X136826713Y-105237157D02*
X136755285Y-105308585D01*
X136755285Y-105308585D02*
X136683856Y-105237157D01*
X136683856Y-105237157D02*
X136755285Y-105165728D01*
X136755285Y-105165728D02*
X136755285Y-105308585D01*
X136040999Y-105665728D02*
X136040999Y-106665728D01*
X136040999Y-105808585D02*
X135969570Y-105737157D01*
X135969570Y-105737157D02*
X135826713Y-105665728D01*
X135826713Y-105665728D02*
X135612427Y-105665728D01*
X135612427Y-105665728D02*
X135469570Y-105737157D01*
X135469570Y-105737157D02*
X135398142Y-105880014D01*
X135398142Y-105880014D02*
X135398142Y-106665728D01*
X134040999Y-106665728D02*
X134040999Y-105880014D01*
X134040999Y-105880014D02*
X134112427Y-105737157D01*
X134112427Y-105737157D02*
X134255284Y-105665728D01*
X134255284Y-105665728D02*
X134540999Y-105665728D01*
X134540999Y-105665728D02*
X134683856Y-105737157D01*
X134040999Y-106594300D02*
X134183856Y-106665728D01*
X134183856Y-106665728D02*
X134540999Y-106665728D01*
X134540999Y-106665728D02*
X134683856Y-106594300D01*
X134683856Y-106594300D02*
X134755284Y-106451442D01*
X134755284Y-106451442D02*
X134755284Y-106308585D01*
X134755284Y-106308585D02*
X134683856Y-106165728D01*
X134683856Y-106165728D02*
X134540999Y-106094300D01*
X134540999Y-106094300D02*
X134183856Y-106094300D01*
X134183856Y-106094300D02*
X134040999Y-106022871D01*
X133326713Y-106522871D02*
X133255284Y-106594300D01*
X133255284Y-106594300D02*
X133326713Y-106665728D01*
X133326713Y-106665728D02*
X133398141Y-106594300D01*
X133398141Y-106594300D02*
X133326713Y-106522871D01*
X133326713Y-106522871D02*
X133326713Y-106665728D01*
%TO.C,G3*%
G36*
X155339060Y-95021895D02*
G01*
X155392873Y-95108518D01*
X155476431Y-95249424D01*
X155584132Y-95435032D01*
X155710373Y-95655762D01*
X155849552Y-95902032D01*
X155965612Y-96106711D01*
X156096476Y-96332820D01*
X156210893Y-96525411D01*
X156303040Y-96674873D01*
X156367095Y-96771598D01*
X156397235Y-96805976D01*
X156404420Y-96804302D01*
X156470320Y-96774110D01*
X156588811Y-96711845D01*
X156745755Y-96625101D01*
X156927016Y-96521469D01*
X156986770Y-96486955D01*
X157155955Y-96391286D01*
X157292560Y-96317096D01*
X157383856Y-96271166D01*
X157417117Y-96260281D01*
X157414586Y-96278337D01*
X157400070Y-96367387D01*
X157374119Y-96521770D01*
X157338393Y-96731745D01*
X157294553Y-96987569D01*
X157244259Y-97279502D01*
X157189171Y-97597802D01*
X157155067Y-97795360D01*
X157103552Y-98097621D01*
X157058444Y-98367065D01*
X157021307Y-98594065D01*
X156993709Y-98768991D01*
X156977216Y-98882216D01*
X156973394Y-98924111D01*
X156989154Y-98913775D01*
X157056835Y-98855986D01*
X157170070Y-98754279D01*
X157320534Y-98616243D01*
X157499906Y-98449470D01*
X157699864Y-98261549D01*
X157837046Y-98132143D01*
X158023846Y-97956503D01*
X158184201Y-97806412D01*
X158309803Y-97689614D01*
X158392343Y-97613856D01*
X158423515Y-97586882D01*
X158423686Y-97586967D01*
X158425534Y-97628771D01*
X158424027Y-97736183D01*
X158419520Y-97893416D01*
X158412364Y-98084683D01*
X158391862Y-98582485D01*
X158551820Y-98558396D01*
X158668271Y-98543042D01*
X158844853Y-98523500D01*
X159055879Y-98502661D01*
X159286817Y-98481698D01*
X159523137Y-98461784D01*
X159750309Y-98444095D01*
X159953801Y-98429802D01*
X160119084Y-98420081D01*
X160231626Y-98416105D01*
X160276898Y-98419047D01*
X160273119Y-98442363D01*
X160240887Y-98531479D01*
X160181255Y-98677043D01*
X160098659Y-98868605D01*
X159997538Y-99095721D01*
X159882329Y-99347941D01*
X159799581Y-99528848D01*
X159693820Y-99766247D01*
X159605419Y-99972074D01*
X159538824Y-100135646D01*
X159498482Y-100246278D01*
X159488841Y-100293287D01*
X159531083Y-100326577D01*
X159631242Y-100389967D01*
X159773885Y-100473850D01*
X159943809Y-100569011D01*
X159946431Y-100570447D01*
X160111249Y-100663433D01*
X160243775Y-100743324D01*
X160330564Y-100801654D01*
X160358171Y-100829955D01*
X160346866Y-100837160D01*
X160272225Y-100875190D01*
X160134643Y-100941787D01*
X159941961Y-101033260D01*
X159702018Y-101145920D01*
X159422655Y-101276077D01*
X159111710Y-101420041D01*
X158777025Y-101574122D01*
X158602025Y-101654643D01*
X158279593Y-101803962D01*
X157985525Y-101941389D01*
X157727562Y-102063230D01*
X157513448Y-102165792D01*
X157350925Y-102245382D01*
X157247733Y-102298307D01*
X157211615Y-102320874D01*
X157219176Y-102339590D01*
X157261319Y-102419547D01*
X157334220Y-102549701D01*
X157430752Y-102717414D01*
X157543792Y-102910049D01*
X157615325Y-103031801D01*
X157716795Y-103208130D01*
X157796172Y-103350673D01*
X157846703Y-103447208D01*
X157861637Y-103485511D01*
X157820650Y-103480016D01*
X157710296Y-103456878D01*
X157541150Y-103418482D01*
X157323737Y-103367268D01*
X157068584Y-103305679D01*
X156786220Y-103236154D01*
X156650414Y-103202448D01*
X156359431Y-103130870D01*
X156134197Y-103077148D01*
X155964743Y-103039580D01*
X155841100Y-103016463D01*
X155753300Y-103006095D01*
X155691374Y-103006771D01*
X155645353Y-103016791D01*
X155605267Y-103034451D01*
X155485402Y-103096436D01*
X155485402Y-104327335D01*
X155156599Y-104327335D01*
X155156599Y-103096436D01*
X155038714Y-103035476D01*
X155025384Y-103028876D01*
X154984384Y-103014018D01*
X154933280Y-103007450D01*
X154862130Y-103010870D01*
X154760997Y-103025976D01*
X154619938Y-103054467D01*
X154429014Y-103098039D01*
X154178284Y-103158393D01*
X153857809Y-103237225D01*
X153577615Y-103305832D01*
X153321835Y-103367218D01*
X153103687Y-103418294D01*
X152933695Y-103456637D01*
X152822382Y-103479821D01*
X152780275Y-103485423D01*
X152784868Y-103469394D01*
X152822608Y-103393877D01*
X152891915Y-103267777D01*
X152985999Y-103103329D01*
X153098074Y-102912764D01*
X153167430Y-102795584D01*
X153271704Y-102616491D01*
X153355074Y-102469588D01*
X153410361Y-102367611D01*
X153430385Y-102323294D01*
X153420620Y-102315315D01*
X153348942Y-102275968D01*
X153214166Y-102208232D01*
X153024037Y-102115817D01*
X152786300Y-102002431D01*
X152508698Y-101871783D01*
X152198977Y-101727583D01*
X151864881Y-101573539D01*
X151691777Y-101493989D01*
X151368200Y-101344669D01*
X151072366Y-101207348D01*
X150812114Y-101085714D01*
X150595286Y-100983454D01*
X150429720Y-100904258D01*
X150323256Y-100851811D01*
X150283735Y-100829802D01*
X150283648Y-100829644D01*
X150312267Y-100800894D01*
X150399864Y-100742231D01*
X150532988Y-100662115D01*
X150698192Y-100569011D01*
X150864258Y-100476060D01*
X151007742Y-100391796D01*
X151109110Y-100327800D01*
X151153159Y-100293287D01*
X151149732Y-100267158D01*
X151117944Y-100174100D01*
X151058597Y-100024966D01*
X150976138Y-99830438D01*
X150875014Y-99601202D01*
X150759672Y-99347941D01*
X150675991Y-99165360D01*
X150570411Y-98930041D01*
X150482095Y-98727303D01*
X150415479Y-98567593D01*
X150375003Y-98461358D01*
X150365103Y-98419047D01*
X150401862Y-98416068D01*
X150507737Y-98419343D01*
X150667945Y-98428492D01*
X150867956Y-98442340D01*
X151093240Y-98459715D01*
X151329266Y-98479441D01*
X151561504Y-98500347D01*
X151775423Y-98521257D01*
X151956492Y-98540998D01*
X152090181Y-98558396D01*
X152250138Y-98582485D01*
X152229636Y-98084683D01*
X152229256Y-98075404D01*
X152222388Y-97885354D01*
X152218455Y-97730060D01*
X152217746Y-97625307D01*
X152220549Y-97586882D01*
X152235779Y-97599261D01*
X152302792Y-97659985D01*
X152415433Y-97764387D01*
X152565376Y-97904697D01*
X152744295Y-98073142D01*
X152943862Y-98261951D01*
X153080622Y-98391163D01*
X153267140Y-98565738D01*
X153427543Y-98713905D01*
X153553508Y-98828064D01*
X153636709Y-98900614D01*
X153668825Y-98923955D01*
X153668205Y-98907176D01*
X153656607Y-98820273D01*
X153633241Y-98667957D01*
X153599671Y-98459866D01*
X153557461Y-98205638D01*
X153508178Y-97914912D01*
X153453387Y-97597326D01*
X153419491Y-97402211D01*
X153366966Y-97098784D01*
X153320257Y-96827612D01*
X153281029Y-96598441D01*
X153250948Y-96421013D01*
X153231677Y-96305072D01*
X153224884Y-96260363D01*
X153228534Y-96259629D01*
X153282014Y-96282596D01*
X153389401Y-96338412D01*
X153537967Y-96420297D01*
X153714985Y-96521469D01*
X153768358Y-96552317D01*
X153944122Y-96651904D01*
X154091536Y-96732438D01*
X154196463Y-96786326D01*
X154244766Y-96805976D01*
X154266972Y-96782448D01*
X154325477Y-96696006D01*
X154413100Y-96555133D01*
X154524017Y-96369439D01*
X154652408Y-96148536D01*
X154792448Y-95902032D01*
X154908687Y-95696158D01*
X155037527Y-95470403D01*
X155148781Y-95278137D01*
X155236846Y-95128941D01*
X155296120Y-95032398D01*
X155321000Y-94998088D01*
X155339060Y-95021895D01*
G37*
%TD*%
%LPC*%
D11*
%TO.C,H2*%
X186944000Y-70866000D03*
%TD*%
%TO.C,H5*%
X146989800Y-114096800D03*
%TD*%
D12*
%TO.C,J3*%
X177422800Y-84226400D03*
D13*
X182422800Y-84226400D03*
%TD*%
D11*
%TO.C,H3*%
X187076000Y-138084000D03*
%TD*%
D14*
%TO.C,J2*%
X148031200Y-74676000D03*
X160731200Y-74676000D03*
D15*
X150821200Y-77216000D03*
D16*
X151837200Y-78996000D03*
X152853200Y-77216000D03*
X153869200Y-78996000D03*
X154885200Y-77216000D03*
X155901200Y-78996000D03*
X156917200Y-77216000D03*
X157933200Y-78996000D03*
X147521200Y-83816000D03*
X149811200Y-83816000D03*
X158951200Y-83816000D03*
X161241200Y-83816000D03*
D17*
X146251200Y-78106000D03*
X162511200Y-78106000D03*
%TD*%
D11*
%TO.C,H1*%
X124714000Y-70866000D03*
%TD*%
%TO.C,H6*%
X161366200Y-126441200D03*
%TD*%
%TO.C,H4*%
X124592000Y-138084000D03*
%TD*%
%LPD*%
M02*
