%TF.GenerationSoftware,KiCad,Pcbnew,7.0.9*%
%TF.CreationDate,2024-06-23T11:57:03-04:00*%
%TF.ProjectId,WIRED-Seek-Board-revA1,57495245-442d-4536-9565-6b2d426f6172,Rev A1*%
%TF.SameCoordinates,Original*%
%TF.FileFunction,Legend,Top*%
%TF.FilePolarity,Positive*%
%FSLAX46Y46*%
G04 Gerber Fmt 4.6, Leading zero omitted, Abs format (unit mm)*
G04 Created by KiCad (PCBNEW 7.0.9) date 2024-06-23 11:57:03*
%MOMM*%
%LPD*%
G01*
G04 APERTURE LIST*
G04 Aperture macros list*
%AMRoundRect*
0 Rectangle with rounded corners*
0 $1 Rounding radius*
0 $2 $3 $4 $5 $6 $7 $8 $9 X,Y pos of 4 corners*
0 Add a 4 corners polygon primitive as box body*
4,1,4,$2,$3,$4,$5,$6,$7,$8,$9,$2,$3,0*
0 Add four circle primitives for the rounded corners*
1,1,$1+$1,$2,$3*
1,1,$1+$1,$4,$5*
1,1,$1+$1,$6,$7*
1,1,$1+$1,$8,$9*
0 Add four rect primitives between the rounded corners*
20,1,$1+$1,$2,$3,$4,$5,0*
20,1,$1+$1,$4,$5,$6,$7,0*
20,1,$1+$1,$6,$7,$8,$9,0*
20,1,$1+$1,$8,$9,$2,$3,0*%
G04 Aperture macros list end*
%ADD10C,0.150000*%
%ADD11C,0.120000*%
%ADD12C,0.300000*%
%ADD13C,0.100000*%
%ADD14C,0.127000*%
%ADD15C,0.200000*%
%ADD16RoundRect,0.250000X-0.262500X-0.450000X0.262500X-0.450000X0.262500X0.450000X-0.262500X0.450000X0*%
%ADD17O,0.560000X1.250000*%
%ADD18C,3.500000*%
%ADD19RoundRect,0.250000X-0.325000X-0.650000X0.325000X-0.650000X0.325000X0.650000X-0.325000X0.650000X0*%
%ADD20R,2.500000X2.500000*%
%ADD21C,2.500000*%
%ADD22RoundRect,0.102000X-0.150000X-0.700000X0.150000X-0.700000X0.150000X0.700000X-0.150000X0.700000X0*%
%ADD23RoundRect,0.102000X-0.260000X-0.500000X0.260000X-0.500000X0.260000X0.500000X-0.260000X0.500000X0*%
%ADD24C,3.250000*%
%ADD25R,1.500000X1.500000*%
%ADD26C,1.500000*%
%ADD27C,2.300000*%
%ADD28RoundRect,0.218750X-0.218750X-0.256250X0.218750X-0.256250X0.218750X0.256250X-0.218750X0.256250X0*%
G04 APERTURE END LIST*
D10*
X126897202Y-132133900D02*
X127111488Y-132205328D01*
X127111488Y-132205328D02*
X127468630Y-132205328D01*
X127468630Y-132205328D02*
X127611488Y-132133900D01*
X127611488Y-132133900D02*
X127682916Y-132062471D01*
X127682916Y-132062471D02*
X127754345Y-131919614D01*
X127754345Y-131919614D02*
X127754345Y-131776757D01*
X127754345Y-131776757D02*
X127682916Y-131633900D01*
X127682916Y-131633900D02*
X127611488Y-131562471D01*
X127611488Y-131562471D02*
X127468630Y-131491042D01*
X127468630Y-131491042D02*
X127182916Y-131419614D01*
X127182916Y-131419614D02*
X127040059Y-131348185D01*
X127040059Y-131348185D02*
X126968630Y-131276757D01*
X126968630Y-131276757D02*
X126897202Y-131133900D01*
X126897202Y-131133900D02*
X126897202Y-130991042D01*
X126897202Y-130991042D02*
X126968630Y-130848185D01*
X126968630Y-130848185D02*
X127040059Y-130776757D01*
X127040059Y-130776757D02*
X127182916Y-130705328D01*
X127182916Y-130705328D02*
X127540059Y-130705328D01*
X127540059Y-130705328D02*
X127754345Y-130776757D01*
X129040059Y-131205328D02*
X129040059Y-132205328D01*
X128397201Y-131205328D02*
X128397201Y-131991042D01*
X128397201Y-131991042D02*
X128468630Y-132133900D01*
X128468630Y-132133900D02*
X128611487Y-132205328D01*
X128611487Y-132205328D02*
X128825773Y-132205328D01*
X128825773Y-132205328D02*
X128968630Y-132133900D01*
X128968630Y-132133900D02*
X129040059Y-132062471D01*
X129754344Y-131205328D02*
X129754344Y-132705328D01*
X129754344Y-131276757D02*
X129897202Y-131205328D01*
X129897202Y-131205328D02*
X130182916Y-131205328D01*
X130182916Y-131205328D02*
X130325773Y-131276757D01*
X130325773Y-131276757D02*
X130397202Y-131348185D01*
X130397202Y-131348185D02*
X130468630Y-131491042D01*
X130468630Y-131491042D02*
X130468630Y-131919614D01*
X130468630Y-131919614D02*
X130397202Y-132062471D01*
X130397202Y-132062471D02*
X130325773Y-132133900D01*
X130325773Y-132133900D02*
X130182916Y-132205328D01*
X130182916Y-132205328D02*
X129897202Y-132205328D01*
X129897202Y-132205328D02*
X129754344Y-132133900D01*
X131111487Y-131205328D02*
X131111487Y-132705328D01*
X131111487Y-131276757D02*
X131254345Y-131205328D01*
X131254345Y-131205328D02*
X131540059Y-131205328D01*
X131540059Y-131205328D02*
X131682916Y-131276757D01*
X131682916Y-131276757D02*
X131754345Y-131348185D01*
X131754345Y-131348185D02*
X131825773Y-131491042D01*
X131825773Y-131491042D02*
X131825773Y-131919614D01*
X131825773Y-131919614D02*
X131754345Y-132062471D01*
X131754345Y-132062471D02*
X131682916Y-132133900D01*
X131682916Y-132133900D02*
X131540059Y-132205328D01*
X131540059Y-132205328D02*
X131254345Y-132205328D01*
X131254345Y-132205328D02*
X131111487Y-132133900D01*
X132682916Y-132205328D02*
X132540059Y-132133900D01*
X132540059Y-132133900D02*
X132468630Y-132062471D01*
X132468630Y-132062471D02*
X132397202Y-131919614D01*
X132397202Y-131919614D02*
X132397202Y-131491042D01*
X132397202Y-131491042D02*
X132468630Y-131348185D01*
X132468630Y-131348185D02*
X132540059Y-131276757D01*
X132540059Y-131276757D02*
X132682916Y-131205328D01*
X132682916Y-131205328D02*
X132897202Y-131205328D01*
X132897202Y-131205328D02*
X133040059Y-131276757D01*
X133040059Y-131276757D02*
X133111488Y-131348185D01*
X133111488Y-131348185D02*
X133182916Y-131491042D01*
X133182916Y-131491042D02*
X133182916Y-131919614D01*
X133182916Y-131919614D02*
X133111488Y-132062471D01*
X133111488Y-132062471D02*
X133040059Y-132133900D01*
X133040059Y-132133900D02*
X132897202Y-132205328D01*
X132897202Y-132205328D02*
X132682916Y-132205328D01*
X133825773Y-132205328D02*
X133825773Y-131205328D01*
X133825773Y-131491042D02*
X133897202Y-131348185D01*
X133897202Y-131348185D02*
X133968631Y-131276757D01*
X133968631Y-131276757D02*
X134111488Y-131205328D01*
X134111488Y-131205328D02*
X134254345Y-131205328D01*
X134540059Y-131205328D02*
X135111487Y-131205328D01*
X134754344Y-130705328D02*
X134754344Y-131991042D01*
X134754344Y-131991042D02*
X134825773Y-132133900D01*
X134825773Y-132133900D02*
X134968630Y-132205328D01*
X134968630Y-132205328D02*
X135111487Y-132205328D01*
X136754344Y-132205328D02*
X136754344Y-130705328D01*
X136754344Y-131276757D02*
X136897202Y-131205328D01*
X136897202Y-131205328D02*
X137182916Y-131205328D01*
X137182916Y-131205328D02*
X137325773Y-131276757D01*
X137325773Y-131276757D02*
X137397202Y-131348185D01*
X137397202Y-131348185D02*
X137468630Y-131491042D01*
X137468630Y-131491042D02*
X137468630Y-131919614D01*
X137468630Y-131919614D02*
X137397202Y-132062471D01*
X137397202Y-132062471D02*
X137325773Y-132133900D01*
X137325773Y-132133900D02*
X137182916Y-132205328D01*
X137182916Y-132205328D02*
X136897202Y-132205328D01*
X136897202Y-132205328D02*
X136754344Y-132133900D01*
X138325773Y-132205328D02*
X138182916Y-132133900D01*
X138182916Y-132133900D02*
X138111487Y-132062471D01*
X138111487Y-132062471D02*
X138040059Y-131919614D01*
X138040059Y-131919614D02*
X138040059Y-131491042D01*
X138040059Y-131491042D02*
X138111487Y-131348185D01*
X138111487Y-131348185D02*
X138182916Y-131276757D01*
X138182916Y-131276757D02*
X138325773Y-131205328D01*
X138325773Y-131205328D02*
X138540059Y-131205328D01*
X138540059Y-131205328D02*
X138682916Y-131276757D01*
X138682916Y-131276757D02*
X138754345Y-131348185D01*
X138754345Y-131348185D02*
X138825773Y-131491042D01*
X138825773Y-131491042D02*
X138825773Y-131919614D01*
X138825773Y-131919614D02*
X138754345Y-132062471D01*
X138754345Y-132062471D02*
X138682916Y-132133900D01*
X138682916Y-132133900D02*
X138540059Y-132205328D01*
X138540059Y-132205328D02*
X138325773Y-132205328D01*
X140111488Y-132205328D02*
X140111488Y-131419614D01*
X140111488Y-131419614D02*
X140040059Y-131276757D01*
X140040059Y-131276757D02*
X139897202Y-131205328D01*
X139897202Y-131205328D02*
X139611488Y-131205328D01*
X139611488Y-131205328D02*
X139468630Y-131276757D01*
X140111488Y-132133900D02*
X139968630Y-132205328D01*
X139968630Y-132205328D02*
X139611488Y-132205328D01*
X139611488Y-132205328D02*
X139468630Y-132133900D01*
X139468630Y-132133900D02*
X139397202Y-131991042D01*
X139397202Y-131991042D02*
X139397202Y-131848185D01*
X139397202Y-131848185D02*
X139468630Y-131705328D01*
X139468630Y-131705328D02*
X139611488Y-131633900D01*
X139611488Y-131633900D02*
X139968630Y-131633900D01*
X139968630Y-131633900D02*
X140111488Y-131562471D01*
X140825773Y-132205328D02*
X140825773Y-131205328D01*
X140825773Y-131491042D02*
X140897202Y-131348185D01*
X140897202Y-131348185D02*
X140968631Y-131276757D01*
X140968631Y-131276757D02*
X141111488Y-131205328D01*
X141111488Y-131205328D02*
X141254345Y-131205328D01*
X142397202Y-132205328D02*
X142397202Y-130705328D01*
X142397202Y-132133900D02*
X142254344Y-132205328D01*
X142254344Y-132205328D02*
X141968630Y-132205328D01*
X141968630Y-132205328D02*
X141825773Y-132133900D01*
X141825773Y-132133900D02*
X141754344Y-132062471D01*
X141754344Y-132062471D02*
X141682916Y-131919614D01*
X141682916Y-131919614D02*
X141682916Y-131491042D01*
X141682916Y-131491042D02*
X141754344Y-131348185D01*
X141754344Y-131348185D02*
X141825773Y-131276757D01*
X141825773Y-131276757D02*
X141968630Y-131205328D01*
X141968630Y-131205328D02*
X142254344Y-131205328D01*
X142254344Y-131205328D02*
X142397202Y-131276757D01*
X144040059Y-131205328D02*
X144611487Y-131205328D01*
X144254344Y-132205328D02*
X144254344Y-130919614D01*
X144254344Y-130919614D02*
X144325773Y-130776757D01*
X144325773Y-130776757D02*
X144468630Y-130705328D01*
X144468630Y-130705328D02*
X144611487Y-130705328D01*
X145325773Y-132205328D02*
X145182916Y-132133900D01*
X145182916Y-132133900D02*
X145111487Y-132062471D01*
X145111487Y-132062471D02*
X145040059Y-131919614D01*
X145040059Y-131919614D02*
X145040059Y-131491042D01*
X145040059Y-131491042D02*
X145111487Y-131348185D01*
X145111487Y-131348185D02*
X145182916Y-131276757D01*
X145182916Y-131276757D02*
X145325773Y-131205328D01*
X145325773Y-131205328D02*
X145540059Y-131205328D01*
X145540059Y-131205328D02*
X145682916Y-131276757D01*
X145682916Y-131276757D02*
X145754345Y-131348185D01*
X145754345Y-131348185D02*
X145825773Y-131491042D01*
X145825773Y-131491042D02*
X145825773Y-131919614D01*
X145825773Y-131919614D02*
X145754345Y-132062471D01*
X145754345Y-132062471D02*
X145682916Y-132133900D01*
X145682916Y-132133900D02*
X145540059Y-132205328D01*
X145540059Y-132205328D02*
X145325773Y-132205328D01*
X146468630Y-132205328D02*
X146468630Y-131205328D01*
X146468630Y-131491042D02*
X146540059Y-131348185D01*
X146540059Y-131348185D02*
X146611488Y-131276757D01*
X146611488Y-131276757D02*
X146754345Y-131205328D01*
X146754345Y-131205328D02*
X146897202Y-131205328D01*
X148540058Y-132205328D02*
X148540058Y-131205328D01*
X148540058Y-130705328D02*
X148468630Y-130776757D01*
X148468630Y-130776757D02*
X148540058Y-130848185D01*
X148540058Y-130848185D02*
X148611487Y-130776757D01*
X148611487Y-130776757D02*
X148540058Y-130705328D01*
X148540058Y-130705328D02*
X148540058Y-130848185D01*
X149254344Y-131205328D02*
X149254344Y-132205328D01*
X149254344Y-131348185D02*
X149325773Y-131276757D01*
X149325773Y-131276757D02*
X149468630Y-131205328D01*
X149468630Y-131205328D02*
X149682916Y-131205328D01*
X149682916Y-131205328D02*
X149825773Y-131276757D01*
X149825773Y-131276757D02*
X149897202Y-131419614D01*
X149897202Y-131419614D02*
X149897202Y-132205328D01*
X150397202Y-131205328D02*
X150968630Y-131205328D01*
X150611487Y-132205328D02*
X150611487Y-130919614D01*
X150611487Y-130919614D02*
X150682916Y-130776757D01*
X150682916Y-130776757D02*
X150825773Y-130705328D01*
X150825773Y-130705328D02*
X150968630Y-130705328D01*
X151468630Y-132205328D02*
X151468630Y-131205328D01*
X151468630Y-131491042D02*
X151540059Y-131348185D01*
X151540059Y-131348185D02*
X151611488Y-131276757D01*
X151611488Y-131276757D02*
X151754345Y-131205328D01*
X151754345Y-131205328D02*
X151897202Y-131205328D01*
X153040059Y-132205328D02*
X153040059Y-131419614D01*
X153040059Y-131419614D02*
X152968630Y-131276757D01*
X152968630Y-131276757D02*
X152825773Y-131205328D01*
X152825773Y-131205328D02*
X152540059Y-131205328D01*
X152540059Y-131205328D02*
X152397201Y-131276757D01*
X153040059Y-132133900D02*
X152897201Y-132205328D01*
X152897201Y-132205328D02*
X152540059Y-132205328D01*
X152540059Y-132205328D02*
X152397201Y-132133900D01*
X152397201Y-132133900D02*
X152325773Y-131991042D01*
X152325773Y-131991042D02*
X152325773Y-131848185D01*
X152325773Y-131848185D02*
X152397201Y-131705328D01*
X152397201Y-131705328D02*
X152540059Y-131633900D01*
X152540059Y-131633900D02*
X152897201Y-131633900D01*
X152897201Y-131633900D02*
X153040059Y-131562471D01*
X153754344Y-132205328D02*
X153754344Y-131205328D01*
X153754344Y-131491042D02*
X153825773Y-131348185D01*
X153825773Y-131348185D02*
X153897202Y-131276757D01*
X153897202Y-131276757D02*
X154040059Y-131205328D01*
X154040059Y-131205328D02*
X154182916Y-131205328D01*
X155254344Y-132133900D02*
X155111487Y-132205328D01*
X155111487Y-132205328D02*
X154825773Y-132205328D01*
X154825773Y-132205328D02*
X154682915Y-132133900D01*
X154682915Y-132133900D02*
X154611487Y-131991042D01*
X154611487Y-131991042D02*
X154611487Y-131419614D01*
X154611487Y-131419614D02*
X154682915Y-131276757D01*
X154682915Y-131276757D02*
X154825773Y-131205328D01*
X154825773Y-131205328D02*
X155111487Y-131205328D01*
X155111487Y-131205328D02*
X155254344Y-131276757D01*
X155254344Y-131276757D02*
X155325773Y-131419614D01*
X155325773Y-131419614D02*
X155325773Y-131562471D01*
X155325773Y-131562471D02*
X154611487Y-131705328D01*
X156611487Y-132205328D02*
X156611487Y-130705328D01*
X156611487Y-132133900D02*
X156468629Y-132205328D01*
X156468629Y-132205328D02*
X156182915Y-132205328D01*
X156182915Y-132205328D02*
X156040058Y-132133900D01*
X156040058Y-132133900D02*
X155968629Y-132062471D01*
X155968629Y-132062471D02*
X155897201Y-131919614D01*
X155897201Y-131919614D02*
X155897201Y-131491042D01*
X155897201Y-131491042D02*
X155968629Y-131348185D01*
X155968629Y-131348185D02*
X156040058Y-131276757D01*
X156040058Y-131276757D02*
X156182915Y-131205328D01*
X156182915Y-131205328D02*
X156468629Y-131205328D01*
X156468629Y-131205328D02*
X156611487Y-131276757D01*
X159325772Y-132062471D02*
X159254344Y-132133900D01*
X159254344Y-132133900D02*
X159040058Y-132205328D01*
X159040058Y-132205328D02*
X158897201Y-132205328D01*
X158897201Y-132205328D02*
X158682915Y-132133900D01*
X158682915Y-132133900D02*
X158540058Y-131991042D01*
X158540058Y-131991042D02*
X158468629Y-131848185D01*
X158468629Y-131848185D02*
X158397201Y-131562471D01*
X158397201Y-131562471D02*
X158397201Y-131348185D01*
X158397201Y-131348185D02*
X158468629Y-131062471D01*
X158468629Y-131062471D02*
X158540058Y-130919614D01*
X158540058Y-130919614D02*
X158682915Y-130776757D01*
X158682915Y-130776757D02*
X158897201Y-130705328D01*
X158897201Y-130705328D02*
X159040058Y-130705328D01*
X159040058Y-130705328D02*
X159254344Y-130776757D01*
X159254344Y-130776757D02*
X159325772Y-130848185D01*
X160611487Y-132205328D02*
X160611487Y-131419614D01*
X160611487Y-131419614D02*
X160540058Y-131276757D01*
X160540058Y-131276757D02*
X160397201Y-131205328D01*
X160397201Y-131205328D02*
X160111487Y-131205328D01*
X160111487Y-131205328D02*
X159968629Y-131276757D01*
X160611487Y-132133900D02*
X160468629Y-132205328D01*
X160468629Y-132205328D02*
X160111487Y-132205328D01*
X160111487Y-132205328D02*
X159968629Y-132133900D01*
X159968629Y-132133900D02*
X159897201Y-131991042D01*
X159897201Y-131991042D02*
X159897201Y-131848185D01*
X159897201Y-131848185D02*
X159968629Y-131705328D01*
X159968629Y-131705328D02*
X160111487Y-131633900D01*
X160111487Y-131633900D02*
X160468629Y-131633900D01*
X160468629Y-131633900D02*
X160611487Y-131562471D01*
X161325772Y-132205328D02*
X161325772Y-131205328D01*
X161325772Y-131348185D02*
X161397201Y-131276757D01*
X161397201Y-131276757D02*
X161540058Y-131205328D01*
X161540058Y-131205328D02*
X161754344Y-131205328D01*
X161754344Y-131205328D02*
X161897201Y-131276757D01*
X161897201Y-131276757D02*
X161968630Y-131419614D01*
X161968630Y-131419614D02*
X161968630Y-132205328D01*
X161968630Y-131419614D02*
X162040058Y-131276757D01*
X162040058Y-131276757D02*
X162182915Y-131205328D01*
X162182915Y-131205328D02*
X162397201Y-131205328D01*
X162397201Y-131205328D02*
X162540058Y-131276757D01*
X162540058Y-131276757D02*
X162611487Y-131419614D01*
X162611487Y-131419614D02*
X162611487Y-132205328D01*
X163897201Y-132133900D02*
X163754344Y-132205328D01*
X163754344Y-132205328D02*
X163468630Y-132205328D01*
X163468630Y-132205328D02*
X163325772Y-132133900D01*
X163325772Y-132133900D02*
X163254344Y-131991042D01*
X163254344Y-131991042D02*
X163254344Y-131419614D01*
X163254344Y-131419614D02*
X163325772Y-131276757D01*
X163325772Y-131276757D02*
X163468630Y-131205328D01*
X163468630Y-131205328D02*
X163754344Y-131205328D01*
X163754344Y-131205328D02*
X163897201Y-131276757D01*
X163897201Y-131276757D02*
X163968630Y-131419614D01*
X163968630Y-131419614D02*
X163968630Y-131562471D01*
X163968630Y-131562471D02*
X163254344Y-131705328D01*
X164611486Y-132205328D02*
X164611486Y-131205328D01*
X164611486Y-131491042D02*
X164682915Y-131348185D01*
X164682915Y-131348185D02*
X164754344Y-131276757D01*
X164754344Y-131276757D02*
X164897201Y-131205328D01*
X164897201Y-131205328D02*
X165040058Y-131205328D01*
X166182915Y-132205328D02*
X166182915Y-131419614D01*
X166182915Y-131419614D02*
X166111486Y-131276757D01*
X166111486Y-131276757D02*
X165968629Y-131205328D01*
X165968629Y-131205328D02*
X165682915Y-131205328D01*
X165682915Y-131205328D02*
X165540057Y-131276757D01*
X166182915Y-132133900D02*
X166040057Y-132205328D01*
X166040057Y-132205328D02*
X165682915Y-132205328D01*
X165682915Y-132205328D02*
X165540057Y-132133900D01*
X165540057Y-132133900D02*
X165468629Y-131991042D01*
X165468629Y-131991042D02*
X165468629Y-131848185D01*
X165468629Y-131848185D02*
X165540057Y-131705328D01*
X165540057Y-131705328D02*
X165682915Y-131633900D01*
X165682915Y-131633900D02*
X166040057Y-131633900D01*
X166040057Y-131633900D02*
X166182915Y-131562471D01*
X167968629Y-132133900D02*
X168182915Y-132205328D01*
X168182915Y-132205328D02*
X168540057Y-132205328D01*
X168540057Y-132205328D02*
X168682915Y-132133900D01*
X168682915Y-132133900D02*
X168754343Y-132062471D01*
X168754343Y-132062471D02*
X168825772Y-131919614D01*
X168825772Y-131919614D02*
X168825772Y-131776757D01*
X168825772Y-131776757D02*
X168754343Y-131633900D01*
X168754343Y-131633900D02*
X168682915Y-131562471D01*
X168682915Y-131562471D02*
X168540057Y-131491042D01*
X168540057Y-131491042D02*
X168254343Y-131419614D01*
X168254343Y-131419614D02*
X168111486Y-131348185D01*
X168111486Y-131348185D02*
X168040057Y-131276757D01*
X168040057Y-131276757D02*
X167968629Y-131133900D01*
X167968629Y-131133900D02*
X167968629Y-130991042D01*
X167968629Y-130991042D02*
X168040057Y-130848185D01*
X168040057Y-130848185D02*
X168111486Y-130776757D01*
X168111486Y-130776757D02*
X168254343Y-130705328D01*
X168254343Y-130705328D02*
X168611486Y-130705328D01*
X168611486Y-130705328D02*
X168825772Y-130776757D01*
X170040057Y-132133900D02*
X169897200Y-132205328D01*
X169897200Y-132205328D02*
X169611486Y-132205328D01*
X169611486Y-132205328D02*
X169468628Y-132133900D01*
X169468628Y-132133900D02*
X169397200Y-131991042D01*
X169397200Y-131991042D02*
X169397200Y-131419614D01*
X169397200Y-131419614D02*
X169468628Y-131276757D01*
X169468628Y-131276757D02*
X169611486Y-131205328D01*
X169611486Y-131205328D02*
X169897200Y-131205328D01*
X169897200Y-131205328D02*
X170040057Y-131276757D01*
X170040057Y-131276757D02*
X170111486Y-131419614D01*
X170111486Y-131419614D02*
X170111486Y-131562471D01*
X170111486Y-131562471D02*
X169397200Y-131705328D01*
X171325771Y-132133900D02*
X171182914Y-132205328D01*
X171182914Y-132205328D02*
X170897200Y-132205328D01*
X170897200Y-132205328D02*
X170754342Y-132133900D01*
X170754342Y-132133900D02*
X170682914Y-131991042D01*
X170682914Y-131991042D02*
X170682914Y-131419614D01*
X170682914Y-131419614D02*
X170754342Y-131276757D01*
X170754342Y-131276757D02*
X170897200Y-131205328D01*
X170897200Y-131205328D02*
X171182914Y-131205328D01*
X171182914Y-131205328D02*
X171325771Y-131276757D01*
X171325771Y-131276757D02*
X171397200Y-131419614D01*
X171397200Y-131419614D02*
X171397200Y-131562471D01*
X171397200Y-131562471D02*
X170682914Y-131705328D01*
X172040056Y-132205328D02*
X172040056Y-130705328D01*
X172182914Y-131633900D02*
X172611485Y-132205328D01*
X172611485Y-131205328D02*
X172040056Y-131776757D01*
X175254342Y-132062471D02*
X175182914Y-132133900D01*
X175182914Y-132133900D02*
X174968628Y-132205328D01*
X174968628Y-132205328D02*
X174825771Y-132205328D01*
X174825771Y-132205328D02*
X174611485Y-132133900D01*
X174611485Y-132133900D02*
X174468628Y-131991042D01*
X174468628Y-131991042D02*
X174397199Y-131848185D01*
X174397199Y-131848185D02*
X174325771Y-131562471D01*
X174325771Y-131562471D02*
X174325771Y-131348185D01*
X174325771Y-131348185D02*
X174397199Y-131062471D01*
X174397199Y-131062471D02*
X174468628Y-130919614D01*
X174468628Y-130919614D02*
X174611485Y-130776757D01*
X174611485Y-130776757D02*
X174825771Y-130705328D01*
X174825771Y-130705328D02*
X174968628Y-130705328D01*
X174968628Y-130705328D02*
X175182914Y-130776757D01*
X175182914Y-130776757D02*
X175254342Y-130848185D01*
X175825771Y-130848185D02*
X175897199Y-130776757D01*
X175897199Y-130776757D02*
X176040057Y-130705328D01*
X176040057Y-130705328D02*
X176397199Y-130705328D01*
X176397199Y-130705328D02*
X176540057Y-130776757D01*
X176540057Y-130776757D02*
X176611485Y-130848185D01*
X176611485Y-130848185D02*
X176682914Y-130991042D01*
X176682914Y-130991042D02*
X176682914Y-131133900D01*
X176682914Y-131133900D02*
X176611485Y-131348185D01*
X176611485Y-131348185D02*
X175754342Y-132205328D01*
X175754342Y-132205328D02*
X176682914Y-132205328D01*
X178111485Y-132205328D02*
X177254342Y-132205328D01*
X177682913Y-132205328D02*
X177682913Y-130705328D01*
X177682913Y-130705328D02*
X177540056Y-130919614D01*
X177540056Y-130919614D02*
X177397199Y-131062471D01*
X177397199Y-131062471D02*
X177254342Y-131133900D01*
X179397199Y-131205328D02*
X179397199Y-132205328D01*
X179040056Y-130633900D02*
X178682913Y-131705328D01*
X178682913Y-131705328D02*
X179611484Y-131705328D01*
X180111484Y-132133900D02*
X180325770Y-132205328D01*
X180325770Y-132205328D02*
X180682912Y-132205328D01*
X180682912Y-132205328D02*
X180825770Y-132133900D01*
X180825770Y-132133900D02*
X180897198Y-132062471D01*
X180897198Y-132062471D02*
X180968627Y-131919614D01*
X180968627Y-131919614D02*
X180968627Y-131776757D01*
X180968627Y-131776757D02*
X180897198Y-131633900D01*
X180897198Y-131633900D02*
X180825770Y-131562471D01*
X180825770Y-131562471D02*
X180682912Y-131491042D01*
X180682912Y-131491042D02*
X180397198Y-131419614D01*
X180397198Y-131419614D02*
X180254341Y-131348185D01*
X180254341Y-131348185D02*
X180182912Y-131276757D01*
X180182912Y-131276757D02*
X180111484Y-131133900D01*
X180111484Y-131133900D02*
X180111484Y-130991042D01*
X180111484Y-130991042D02*
X180182912Y-130848185D01*
X180182912Y-130848185D02*
X180254341Y-130776757D01*
X180254341Y-130776757D02*
X180397198Y-130705328D01*
X180397198Y-130705328D02*
X180754341Y-130705328D01*
X180754341Y-130705328D02*
X180968627Y-130776757D01*
X181611483Y-132205328D02*
X181611483Y-130705328D01*
X181611483Y-130705328D02*
X182182912Y-130705328D01*
X182182912Y-130705328D02*
X182325769Y-130776757D01*
X182325769Y-130776757D02*
X182397198Y-130848185D01*
X182397198Y-130848185D02*
X182468626Y-130991042D01*
X182468626Y-130991042D02*
X182468626Y-131205328D01*
X182468626Y-131205328D02*
X182397198Y-131348185D01*
X182397198Y-131348185D02*
X182325769Y-131419614D01*
X182325769Y-131419614D02*
X182182912Y-131491042D01*
X182182912Y-131491042D02*
X181611483Y-131491042D01*
X182968626Y-130705328D02*
X183968626Y-132205328D01*
X183968626Y-130705328D02*
X182968626Y-132205328D01*
X145682915Y-133477471D02*
X145540058Y-133406042D01*
X145540058Y-133406042D02*
X145254344Y-133406042D01*
X145254344Y-133406042D02*
X145111487Y-133477471D01*
X145111487Y-133477471D02*
X144968629Y-133620328D01*
X144968629Y-133620328D02*
X144897201Y-133763185D01*
X144897201Y-133763185D02*
X144897201Y-134048900D01*
X144897201Y-134048900D02*
X144968629Y-134191757D01*
X144968629Y-134191757D02*
X145111487Y-134334614D01*
X145111487Y-134334614D02*
X145254344Y-134406042D01*
X145254344Y-134406042D02*
X145540058Y-134406042D01*
X145540058Y-134406042D02*
X145682915Y-134334614D01*
X145397201Y-132906042D02*
X145040058Y-132977471D01*
X145040058Y-132977471D02*
X144682915Y-133191757D01*
X144682915Y-133191757D02*
X144468629Y-133548900D01*
X144468629Y-133548900D02*
X144397201Y-133906042D01*
X144397201Y-133906042D02*
X144468629Y-134263185D01*
X144468629Y-134263185D02*
X144682915Y-134620328D01*
X144682915Y-134620328D02*
X145040058Y-134834614D01*
X145040058Y-134834614D02*
X145397201Y-134906042D01*
X145397201Y-134906042D02*
X145754344Y-134834614D01*
X145754344Y-134834614D02*
X146111487Y-134620328D01*
X146111487Y-134620328D02*
X146325772Y-134263185D01*
X146325772Y-134263185D02*
X146397201Y-133906042D01*
X146397201Y-133906042D02*
X146325772Y-133548900D01*
X146325772Y-133548900D02*
X146111487Y-133191757D01*
X146111487Y-133191757D02*
X145754344Y-132977471D01*
X145754344Y-132977471D02*
X145397201Y-132906042D01*
X146968630Y-133263185D02*
X147040058Y-133191757D01*
X147040058Y-133191757D02*
X147182916Y-133120328D01*
X147182916Y-133120328D02*
X147540058Y-133120328D01*
X147540058Y-133120328D02*
X147682916Y-133191757D01*
X147682916Y-133191757D02*
X147754344Y-133263185D01*
X147754344Y-133263185D02*
X147825773Y-133406042D01*
X147825773Y-133406042D02*
X147825773Y-133548900D01*
X147825773Y-133548900D02*
X147754344Y-133763185D01*
X147754344Y-133763185D02*
X146897201Y-134620328D01*
X146897201Y-134620328D02*
X147825773Y-134620328D01*
X148754344Y-133120328D02*
X148897201Y-133120328D01*
X148897201Y-133120328D02*
X149040058Y-133191757D01*
X149040058Y-133191757D02*
X149111487Y-133263185D01*
X149111487Y-133263185D02*
X149182915Y-133406042D01*
X149182915Y-133406042D02*
X149254344Y-133691757D01*
X149254344Y-133691757D02*
X149254344Y-134048900D01*
X149254344Y-134048900D02*
X149182915Y-134334614D01*
X149182915Y-134334614D02*
X149111487Y-134477471D01*
X149111487Y-134477471D02*
X149040058Y-134548900D01*
X149040058Y-134548900D02*
X148897201Y-134620328D01*
X148897201Y-134620328D02*
X148754344Y-134620328D01*
X148754344Y-134620328D02*
X148611487Y-134548900D01*
X148611487Y-134548900D02*
X148540058Y-134477471D01*
X148540058Y-134477471D02*
X148468629Y-134334614D01*
X148468629Y-134334614D02*
X148397201Y-134048900D01*
X148397201Y-134048900D02*
X148397201Y-133691757D01*
X148397201Y-133691757D02*
X148468629Y-133406042D01*
X148468629Y-133406042D02*
X148540058Y-133263185D01*
X148540058Y-133263185D02*
X148611487Y-133191757D01*
X148611487Y-133191757D02*
X148754344Y-133120328D01*
X149825772Y-133263185D02*
X149897200Y-133191757D01*
X149897200Y-133191757D02*
X150040058Y-133120328D01*
X150040058Y-133120328D02*
X150397200Y-133120328D01*
X150397200Y-133120328D02*
X150540058Y-133191757D01*
X150540058Y-133191757D02*
X150611486Y-133263185D01*
X150611486Y-133263185D02*
X150682915Y-133406042D01*
X150682915Y-133406042D02*
X150682915Y-133548900D01*
X150682915Y-133548900D02*
X150611486Y-133763185D01*
X150611486Y-133763185D02*
X149754343Y-134620328D01*
X149754343Y-134620328D02*
X150682915Y-134620328D01*
X151968629Y-133620328D02*
X151968629Y-134620328D01*
X151611486Y-133048900D02*
X151254343Y-134120328D01*
X151254343Y-134120328D02*
X152182914Y-134120328D01*
X154325771Y-133120328D02*
X154325771Y-134191757D01*
X154325771Y-134191757D02*
X154254342Y-134406042D01*
X154254342Y-134406042D02*
X154111485Y-134548900D01*
X154111485Y-134548900D02*
X153897199Y-134620328D01*
X153897199Y-134620328D02*
X153754342Y-134620328D01*
X155611485Y-134548900D02*
X155468628Y-134620328D01*
X155468628Y-134620328D02*
X155182914Y-134620328D01*
X155182914Y-134620328D02*
X155040056Y-134548900D01*
X155040056Y-134548900D02*
X154968628Y-134406042D01*
X154968628Y-134406042D02*
X154968628Y-133834614D01*
X154968628Y-133834614D02*
X155040056Y-133691757D01*
X155040056Y-133691757D02*
X155182914Y-133620328D01*
X155182914Y-133620328D02*
X155468628Y-133620328D01*
X155468628Y-133620328D02*
X155611485Y-133691757D01*
X155611485Y-133691757D02*
X155682914Y-133834614D01*
X155682914Y-133834614D02*
X155682914Y-133977471D01*
X155682914Y-133977471D02*
X154968628Y-134120328D01*
X156325770Y-134620328D02*
X156325770Y-133620328D01*
X156325770Y-133906042D02*
X156397199Y-133763185D01*
X156397199Y-133763185D02*
X156468628Y-133691757D01*
X156468628Y-133691757D02*
X156611485Y-133620328D01*
X156611485Y-133620328D02*
X156754342Y-133620328D01*
X157254341Y-134620328D02*
X157254341Y-133620328D01*
X157254341Y-133120328D02*
X157182913Y-133191757D01*
X157182913Y-133191757D02*
X157254341Y-133263185D01*
X157254341Y-133263185D02*
X157325770Y-133191757D01*
X157325770Y-133191757D02*
X157254341Y-133120328D01*
X157254341Y-133120328D02*
X157254341Y-133263185D01*
X158611485Y-134548900D02*
X158468627Y-134620328D01*
X158468627Y-134620328D02*
X158182913Y-134620328D01*
X158182913Y-134620328D02*
X158040056Y-134548900D01*
X158040056Y-134548900D02*
X157968627Y-134477471D01*
X157968627Y-134477471D02*
X157897199Y-134334614D01*
X157897199Y-134334614D02*
X157897199Y-133906042D01*
X157897199Y-133906042D02*
X157968627Y-133763185D01*
X157968627Y-133763185D02*
X158040056Y-133691757D01*
X158040056Y-133691757D02*
X158182913Y-133620328D01*
X158182913Y-133620328D02*
X158468627Y-133620328D01*
X158468627Y-133620328D02*
X158611485Y-133691757D01*
X159254341Y-134620328D02*
X159254341Y-133120328D01*
X159897199Y-134620328D02*
X159897199Y-133834614D01*
X159897199Y-133834614D02*
X159825770Y-133691757D01*
X159825770Y-133691757D02*
X159682913Y-133620328D01*
X159682913Y-133620328D02*
X159468627Y-133620328D01*
X159468627Y-133620328D02*
X159325770Y-133691757D01*
X159325770Y-133691757D02*
X159254341Y-133763185D01*
X160825770Y-134620328D02*
X160682913Y-134548900D01*
X160682913Y-134548900D02*
X160611484Y-134477471D01*
X160611484Y-134477471D02*
X160540056Y-134334614D01*
X160540056Y-134334614D02*
X160540056Y-133906042D01*
X160540056Y-133906042D02*
X160611484Y-133763185D01*
X160611484Y-133763185D02*
X160682913Y-133691757D01*
X160682913Y-133691757D02*
X160825770Y-133620328D01*
X160825770Y-133620328D02*
X161040056Y-133620328D01*
X161040056Y-133620328D02*
X161182913Y-133691757D01*
X161182913Y-133691757D02*
X161254342Y-133763185D01*
X161254342Y-133763185D02*
X161325770Y-133906042D01*
X161325770Y-133906042D02*
X161325770Y-134334614D01*
X161325770Y-134334614D02*
X161254342Y-134477471D01*
X161254342Y-134477471D02*
X161182913Y-134548900D01*
X161182913Y-134548900D02*
X161040056Y-134620328D01*
X161040056Y-134620328D02*
X160825770Y-134620328D01*
X163825770Y-134620328D02*
X163111484Y-134620328D01*
X163111484Y-134620328D02*
X163111484Y-133120328D01*
X164968628Y-134620328D02*
X164968628Y-133834614D01*
X164968628Y-133834614D02*
X164897199Y-133691757D01*
X164897199Y-133691757D02*
X164754342Y-133620328D01*
X164754342Y-133620328D02*
X164468628Y-133620328D01*
X164468628Y-133620328D02*
X164325770Y-133691757D01*
X164968628Y-134548900D02*
X164825770Y-134620328D01*
X164825770Y-134620328D02*
X164468628Y-134620328D01*
X164468628Y-134620328D02*
X164325770Y-134548900D01*
X164325770Y-134548900D02*
X164254342Y-134406042D01*
X164254342Y-134406042D02*
X164254342Y-134263185D01*
X164254342Y-134263185D02*
X164325770Y-134120328D01*
X164325770Y-134120328D02*
X164468628Y-134048900D01*
X164468628Y-134048900D02*
X164825770Y-134048900D01*
X164825770Y-134048900D02*
X164968628Y-133977471D01*
X165682913Y-134620328D02*
X165682913Y-133120328D01*
X165682913Y-133691757D02*
X165825771Y-133620328D01*
X165825771Y-133620328D02*
X166111485Y-133620328D01*
X166111485Y-133620328D02*
X166254342Y-133691757D01*
X166254342Y-133691757D02*
X166325771Y-133763185D01*
X166325771Y-133763185D02*
X166397199Y-133906042D01*
X166397199Y-133906042D02*
X166397199Y-134334614D01*
X166397199Y-134334614D02*
X166325771Y-134477471D01*
X166325771Y-134477471D02*
X166254342Y-134548900D01*
X166254342Y-134548900D02*
X166111485Y-134620328D01*
X166111485Y-134620328D02*
X165825771Y-134620328D01*
X165825771Y-134620328D02*
X165682913Y-134548900D01*
X142754344Y-136892471D02*
X142682916Y-136963900D01*
X142682916Y-136963900D02*
X142468630Y-137035328D01*
X142468630Y-137035328D02*
X142325773Y-137035328D01*
X142325773Y-137035328D02*
X142111487Y-136963900D01*
X142111487Y-136963900D02*
X141968630Y-136821042D01*
X141968630Y-136821042D02*
X141897201Y-136678185D01*
X141897201Y-136678185D02*
X141825773Y-136392471D01*
X141825773Y-136392471D02*
X141825773Y-136178185D01*
X141825773Y-136178185D02*
X141897201Y-135892471D01*
X141897201Y-135892471D02*
X141968630Y-135749614D01*
X141968630Y-135749614D02*
X142111487Y-135606757D01*
X142111487Y-135606757D02*
X142325773Y-135535328D01*
X142325773Y-135535328D02*
X142468630Y-135535328D01*
X142468630Y-135535328D02*
X142682916Y-135606757D01*
X142682916Y-135606757D02*
X142754344Y-135678185D01*
X144254344Y-136892471D02*
X144182916Y-136963900D01*
X144182916Y-136963900D02*
X143968630Y-137035328D01*
X143968630Y-137035328D02*
X143825773Y-137035328D01*
X143825773Y-137035328D02*
X143611487Y-136963900D01*
X143611487Y-136963900D02*
X143468630Y-136821042D01*
X143468630Y-136821042D02*
X143397201Y-136678185D01*
X143397201Y-136678185D02*
X143325773Y-136392471D01*
X143325773Y-136392471D02*
X143325773Y-136178185D01*
X143325773Y-136178185D02*
X143397201Y-135892471D01*
X143397201Y-135892471D02*
X143468630Y-135749614D01*
X143468630Y-135749614D02*
X143611487Y-135606757D01*
X143611487Y-135606757D02*
X143825773Y-135535328D01*
X143825773Y-135535328D02*
X143968630Y-135535328D01*
X143968630Y-135535328D02*
X144182916Y-135606757D01*
X144182916Y-135606757D02*
X144254344Y-135678185D01*
X144897201Y-136463900D02*
X146040059Y-136463900D01*
X147254344Y-136249614D02*
X147468630Y-136321042D01*
X147468630Y-136321042D02*
X147540059Y-136392471D01*
X147540059Y-136392471D02*
X147611487Y-136535328D01*
X147611487Y-136535328D02*
X147611487Y-136749614D01*
X147611487Y-136749614D02*
X147540059Y-136892471D01*
X147540059Y-136892471D02*
X147468630Y-136963900D01*
X147468630Y-136963900D02*
X147325773Y-137035328D01*
X147325773Y-137035328D02*
X146754344Y-137035328D01*
X146754344Y-137035328D02*
X146754344Y-135535328D01*
X146754344Y-135535328D02*
X147254344Y-135535328D01*
X147254344Y-135535328D02*
X147397202Y-135606757D01*
X147397202Y-135606757D02*
X147468630Y-135678185D01*
X147468630Y-135678185D02*
X147540059Y-135821042D01*
X147540059Y-135821042D02*
X147540059Y-135963900D01*
X147540059Y-135963900D02*
X147468630Y-136106757D01*
X147468630Y-136106757D02*
X147397202Y-136178185D01*
X147397202Y-136178185D02*
X147254344Y-136249614D01*
X147254344Y-136249614D02*
X146754344Y-136249614D01*
X148540059Y-136321042D02*
X148540059Y-137035328D01*
X148040059Y-135535328D02*
X148540059Y-136321042D01*
X148540059Y-136321042D02*
X149040059Y-135535328D01*
X149540058Y-136463900D02*
X150682916Y-136463900D01*
X151325773Y-136963900D02*
X151540059Y-137035328D01*
X151540059Y-137035328D02*
X151897201Y-137035328D01*
X151897201Y-137035328D02*
X152040059Y-136963900D01*
X152040059Y-136963900D02*
X152111487Y-136892471D01*
X152111487Y-136892471D02*
X152182916Y-136749614D01*
X152182916Y-136749614D02*
X152182916Y-136606757D01*
X152182916Y-136606757D02*
X152111487Y-136463900D01*
X152111487Y-136463900D02*
X152040059Y-136392471D01*
X152040059Y-136392471D02*
X151897201Y-136321042D01*
X151897201Y-136321042D02*
X151611487Y-136249614D01*
X151611487Y-136249614D02*
X151468630Y-136178185D01*
X151468630Y-136178185D02*
X151397201Y-136106757D01*
X151397201Y-136106757D02*
X151325773Y-135963900D01*
X151325773Y-135963900D02*
X151325773Y-135821042D01*
X151325773Y-135821042D02*
X151397201Y-135678185D01*
X151397201Y-135678185D02*
X151468630Y-135606757D01*
X151468630Y-135606757D02*
X151611487Y-135535328D01*
X151611487Y-135535328D02*
X151968630Y-135535328D01*
X151968630Y-135535328D02*
X152182916Y-135606757D01*
X152754344Y-136606757D02*
X153468630Y-136606757D01*
X152611487Y-137035328D02*
X153111487Y-135535328D01*
X153111487Y-135535328D02*
X153611487Y-137035328D01*
X155897201Y-136035328D02*
X155897201Y-137035328D01*
X155540058Y-135463900D02*
X155182915Y-136535328D01*
X155182915Y-136535328D02*
X156111486Y-136535328D01*
X156682914Y-136892471D02*
X156754343Y-136963900D01*
X156754343Y-136963900D02*
X156682914Y-137035328D01*
X156682914Y-137035328D02*
X156611486Y-136963900D01*
X156611486Y-136963900D02*
X156682914Y-136892471D01*
X156682914Y-136892471D02*
X156682914Y-137035328D01*
X157682915Y-135535328D02*
X157825772Y-135535328D01*
X157825772Y-135535328D02*
X157968629Y-135606757D01*
X157968629Y-135606757D02*
X158040058Y-135678185D01*
X158040058Y-135678185D02*
X158111486Y-135821042D01*
X158111486Y-135821042D02*
X158182915Y-136106757D01*
X158182915Y-136106757D02*
X158182915Y-136463900D01*
X158182915Y-136463900D02*
X158111486Y-136749614D01*
X158111486Y-136749614D02*
X158040058Y-136892471D01*
X158040058Y-136892471D02*
X157968629Y-136963900D01*
X157968629Y-136963900D02*
X157825772Y-137035328D01*
X157825772Y-137035328D02*
X157682915Y-137035328D01*
X157682915Y-137035328D02*
X157540058Y-136963900D01*
X157540058Y-136963900D02*
X157468629Y-136892471D01*
X157468629Y-136892471D02*
X157397200Y-136749614D01*
X157397200Y-136749614D02*
X157325772Y-136463900D01*
X157325772Y-136463900D02*
X157325772Y-136106757D01*
X157325772Y-136106757D02*
X157397200Y-135821042D01*
X157397200Y-135821042D02*
X157468629Y-135678185D01*
X157468629Y-135678185D02*
X157540058Y-135606757D01*
X157540058Y-135606757D02*
X157682915Y-135535328D01*
X159968628Y-136463900D02*
X161111486Y-136463900D01*
X163825771Y-137035328D02*
X163325771Y-136321042D01*
X162968628Y-137035328D02*
X162968628Y-135535328D01*
X162968628Y-135535328D02*
X163540057Y-135535328D01*
X163540057Y-135535328D02*
X163682914Y-135606757D01*
X163682914Y-135606757D02*
X163754343Y-135678185D01*
X163754343Y-135678185D02*
X163825771Y-135821042D01*
X163825771Y-135821042D02*
X163825771Y-136035328D01*
X163825771Y-136035328D02*
X163754343Y-136178185D01*
X163754343Y-136178185D02*
X163682914Y-136249614D01*
X163682914Y-136249614D02*
X163540057Y-136321042D01*
X163540057Y-136321042D02*
X162968628Y-136321042D01*
X165040057Y-136963900D02*
X164897200Y-137035328D01*
X164897200Y-137035328D02*
X164611486Y-137035328D01*
X164611486Y-137035328D02*
X164468628Y-136963900D01*
X164468628Y-136963900D02*
X164397200Y-136821042D01*
X164397200Y-136821042D02*
X164397200Y-136249614D01*
X164397200Y-136249614D02*
X164468628Y-136106757D01*
X164468628Y-136106757D02*
X164611486Y-136035328D01*
X164611486Y-136035328D02*
X164897200Y-136035328D01*
X164897200Y-136035328D02*
X165040057Y-136106757D01*
X165040057Y-136106757D02*
X165111486Y-136249614D01*
X165111486Y-136249614D02*
X165111486Y-136392471D01*
X165111486Y-136392471D02*
X164397200Y-136535328D01*
X165611485Y-136035328D02*
X165968628Y-137035328D01*
X165968628Y-137035328D02*
X166325771Y-136035328D01*
X166825771Y-136606757D02*
X167540057Y-136606757D01*
X166682914Y-137035328D02*
X167182914Y-135535328D01*
X167182914Y-135535328D02*
X167682914Y-137035328D01*
X168968628Y-137035328D02*
X168111485Y-137035328D01*
X168540056Y-137035328D02*
X168540056Y-135535328D01*
X168540056Y-135535328D02*
X168397199Y-135749614D01*
X168397199Y-135749614D02*
X168254342Y-135892471D01*
X168254342Y-135892471D02*
X168111485Y-135963900D01*
X184032233Y-101622919D02*
X183698900Y-101146728D01*
X183460805Y-101622919D02*
X183460805Y-100622919D01*
X183460805Y-100622919D02*
X183841757Y-100622919D01*
X183841757Y-100622919D02*
X183936995Y-100670538D01*
X183936995Y-100670538D02*
X183984614Y-100718157D01*
X183984614Y-100718157D02*
X184032233Y-100813395D01*
X184032233Y-100813395D02*
X184032233Y-100956252D01*
X184032233Y-100956252D02*
X183984614Y-101051490D01*
X183984614Y-101051490D02*
X183936995Y-101099109D01*
X183936995Y-101099109D02*
X183841757Y-101146728D01*
X183841757Y-101146728D02*
X183460805Y-101146728D01*
X184984614Y-101622919D02*
X184413186Y-101622919D01*
X184698900Y-101622919D02*
X184698900Y-100622919D01*
X184698900Y-100622919D02*
X184603662Y-100765776D01*
X184603662Y-100765776D02*
X184508424Y-100861014D01*
X184508424Y-100861014D02*
X184413186Y-100908633D01*
X129819495Y-91289019D02*
X129819495Y-92098542D01*
X129819495Y-92098542D02*
X129867114Y-92193780D01*
X129867114Y-92193780D02*
X129914733Y-92241400D01*
X129914733Y-92241400D02*
X130009971Y-92289019D01*
X130009971Y-92289019D02*
X130200447Y-92289019D01*
X130200447Y-92289019D02*
X130295685Y-92241400D01*
X130295685Y-92241400D02*
X130343304Y-92193780D01*
X130343304Y-92193780D02*
X130390923Y-92098542D01*
X130390923Y-92098542D02*
X130390923Y-91289019D01*
X131390923Y-92289019D02*
X130819495Y-92289019D01*
X131105209Y-92289019D02*
X131105209Y-91289019D01*
X131105209Y-91289019D02*
X131009971Y-91431876D01*
X131009971Y-91431876D02*
X130914733Y-91527114D01*
X130914733Y-91527114D02*
X130819495Y-91574733D01*
X184032233Y-106754219D02*
X183698900Y-106278028D01*
X183460805Y-106754219D02*
X183460805Y-105754219D01*
X183460805Y-105754219D02*
X183841757Y-105754219D01*
X183841757Y-105754219D02*
X183936995Y-105801838D01*
X183936995Y-105801838D02*
X183984614Y-105849457D01*
X183984614Y-105849457D02*
X184032233Y-105944695D01*
X184032233Y-105944695D02*
X184032233Y-106087552D01*
X184032233Y-106087552D02*
X183984614Y-106182790D01*
X183984614Y-106182790D02*
X183936995Y-106230409D01*
X183936995Y-106230409D02*
X183841757Y-106278028D01*
X183841757Y-106278028D02*
X183460805Y-106278028D01*
X184889376Y-106087552D02*
X184889376Y-106754219D01*
X184651281Y-105706600D02*
X184413186Y-106420885D01*
X184413186Y-106420885D02*
X185032233Y-106420885D01*
X174203233Y-106193780D02*
X174155614Y-106241400D01*
X174155614Y-106241400D02*
X174012757Y-106289019D01*
X174012757Y-106289019D02*
X173917519Y-106289019D01*
X173917519Y-106289019D02*
X173774662Y-106241400D01*
X173774662Y-106241400D02*
X173679424Y-106146161D01*
X173679424Y-106146161D02*
X173631805Y-106050923D01*
X173631805Y-106050923D02*
X173584186Y-105860447D01*
X173584186Y-105860447D02*
X173584186Y-105717590D01*
X173584186Y-105717590D02*
X173631805Y-105527114D01*
X173631805Y-105527114D02*
X173679424Y-105431876D01*
X173679424Y-105431876D02*
X173774662Y-105336638D01*
X173774662Y-105336638D02*
X173917519Y-105289019D01*
X173917519Y-105289019D02*
X174012757Y-105289019D01*
X174012757Y-105289019D02*
X174155614Y-105336638D01*
X174155614Y-105336638D02*
X174203233Y-105384257D01*
X174584186Y-105384257D02*
X174631805Y-105336638D01*
X174631805Y-105336638D02*
X174727043Y-105289019D01*
X174727043Y-105289019D02*
X174965138Y-105289019D01*
X174965138Y-105289019D02*
X175060376Y-105336638D01*
X175060376Y-105336638D02*
X175107995Y-105384257D01*
X175107995Y-105384257D02*
X175155614Y-105479495D01*
X175155614Y-105479495D02*
X175155614Y-105574733D01*
X175155614Y-105574733D02*
X175107995Y-105717590D01*
X175107995Y-105717590D02*
X174536567Y-106289019D01*
X174536567Y-106289019D02*
X175155614Y-106289019D01*
X174203233Y-111226580D02*
X174155614Y-111274200D01*
X174155614Y-111274200D02*
X174012757Y-111321819D01*
X174012757Y-111321819D02*
X173917519Y-111321819D01*
X173917519Y-111321819D02*
X173774662Y-111274200D01*
X173774662Y-111274200D02*
X173679424Y-111178961D01*
X173679424Y-111178961D02*
X173631805Y-111083723D01*
X173631805Y-111083723D02*
X173584186Y-110893247D01*
X173584186Y-110893247D02*
X173584186Y-110750390D01*
X173584186Y-110750390D02*
X173631805Y-110559914D01*
X173631805Y-110559914D02*
X173679424Y-110464676D01*
X173679424Y-110464676D02*
X173774662Y-110369438D01*
X173774662Y-110369438D02*
X173917519Y-110321819D01*
X173917519Y-110321819D02*
X174012757Y-110321819D01*
X174012757Y-110321819D02*
X174155614Y-110369438D01*
X174155614Y-110369438D02*
X174203233Y-110417057D01*
X174536567Y-110321819D02*
X175155614Y-110321819D01*
X175155614Y-110321819D02*
X174822281Y-110702771D01*
X174822281Y-110702771D02*
X174965138Y-110702771D01*
X174965138Y-110702771D02*
X175060376Y-110750390D01*
X175060376Y-110750390D02*
X175107995Y-110798009D01*
X175107995Y-110798009D02*
X175155614Y-110893247D01*
X175155614Y-110893247D02*
X175155614Y-111131342D01*
X175155614Y-111131342D02*
X175107995Y-111226580D01*
X175107995Y-111226580D02*
X175060376Y-111274200D01*
X175060376Y-111274200D02*
X174965138Y-111321819D01*
X174965138Y-111321819D02*
X174679424Y-111321819D01*
X174679424Y-111321819D02*
X174584186Y-111274200D01*
X174584186Y-111274200D02*
X174536567Y-111226580D01*
X179789466Y-78881219D02*
X179789466Y-79595504D01*
X179789466Y-79595504D02*
X179741847Y-79738361D01*
X179741847Y-79738361D02*
X179646609Y-79833600D01*
X179646609Y-79833600D02*
X179503752Y-79881219D01*
X179503752Y-79881219D02*
X179408514Y-79881219D01*
X180170419Y-78881219D02*
X180789466Y-78881219D01*
X180789466Y-78881219D02*
X180456133Y-79262171D01*
X180456133Y-79262171D02*
X180598990Y-79262171D01*
X180598990Y-79262171D02*
X180694228Y-79309790D01*
X180694228Y-79309790D02*
X180741847Y-79357409D01*
X180741847Y-79357409D02*
X180789466Y-79452647D01*
X180789466Y-79452647D02*
X180789466Y-79690742D01*
X180789466Y-79690742D02*
X180741847Y-79785980D01*
X180741847Y-79785980D02*
X180694228Y-79833600D01*
X180694228Y-79833600D02*
X180598990Y-79881219D01*
X180598990Y-79881219D02*
X180313276Y-79881219D01*
X180313276Y-79881219D02*
X180218038Y-79833600D01*
X180218038Y-79833600D02*
X180170419Y-79785980D01*
X174203233Y-121292080D02*
X174155614Y-121339700D01*
X174155614Y-121339700D02*
X174012757Y-121387319D01*
X174012757Y-121387319D02*
X173917519Y-121387319D01*
X173917519Y-121387319D02*
X173774662Y-121339700D01*
X173774662Y-121339700D02*
X173679424Y-121244461D01*
X173679424Y-121244461D02*
X173631805Y-121149223D01*
X173631805Y-121149223D02*
X173584186Y-120958747D01*
X173584186Y-120958747D02*
X173584186Y-120815890D01*
X173584186Y-120815890D02*
X173631805Y-120625414D01*
X173631805Y-120625414D02*
X173679424Y-120530176D01*
X173679424Y-120530176D02*
X173774662Y-120434938D01*
X173774662Y-120434938D02*
X173917519Y-120387319D01*
X173917519Y-120387319D02*
X174012757Y-120387319D01*
X174012757Y-120387319D02*
X174155614Y-120434938D01*
X174155614Y-120434938D02*
X174203233Y-120482557D01*
X175107995Y-120387319D02*
X174631805Y-120387319D01*
X174631805Y-120387319D02*
X174584186Y-120863509D01*
X174584186Y-120863509D02*
X174631805Y-120815890D01*
X174631805Y-120815890D02*
X174727043Y-120768271D01*
X174727043Y-120768271D02*
X174965138Y-120768271D01*
X174965138Y-120768271D02*
X175060376Y-120815890D01*
X175060376Y-120815890D02*
X175107995Y-120863509D01*
X175107995Y-120863509D02*
X175155614Y-120958747D01*
X175155614Y-120958747D02*
X175155614Y-121196842D01*
X175155614Y-121196842D02*
X175107995Y-121292080D01*
X175107995Y-121292080D02*
X175060376Y-121339700D01*
X175060376Y-121339700D02*
X174965138Y-121387319D01*
X174965138Y-121387319D02*
X174727043Y-121387319D01*
X174727043Y-121387319D02*
X174631805Y-121339700D01*
X174631805Y-121339700D02*
X174584186Y-121292080D01*
X174203233Y-116259280D02*
X174155614Y-116306900D01*
X174155614Y-116306900D02*
X174012757Y-116354519D01*
X174012757Y-116354519D02*
X173917519Y-116354519D01*
X173917519Y-116354519D02*
X173774662Y-116306900D01*
X173774662Y-116306900D02*
X173679424Y-116211661D01*
X173679424Y-116211661D02*
X173631805Y-116116423D01*
X173631805Y-116116423D02*
X173584186Y-115925947D01*
X173584186Y-115925947D02*
X173584186Y-115783090D01*
X173584186Y-115783090D02*
X173631805Y-115592614D01*
X173631805Y-115592614D02*
X173679424Y-115497376D01*
X173679424Y-115497376D02*
X173774662Y-115402138D01*
X173774662Y-115402138D02*
X173917519Y-115354519D01*
X173917519Y-115354519D02*
X174012757Y-115354519D01*
X174012757Y-115354519D02*
X174155614Y-115402138D01*
X174155614Y-115402138D02*
X174203233Y-115449757D01*
X175060376Y-115687852D02*
X175060376Y-116354519D01*
X174822281Y-115306900D02*
X174584186Y-116021185D01*
X174584186Y-116021185D02*
X175203233Y-116021185D01*
X154708266Y-96432019D02*
X154708266Y-97146304D01*
X154708266Y-97146304D02*
X154660647Y-97289161D01*
X154660647Y-97289161D02*
X154565409Y-97384400D01*
X154565409Y-97384400D02*
X154422552Y-97432019D01*
X154422552Y-97432019D02*
X154327314Y-97432019D01*
X155613028Y-96765352D02*
X155613028Y-97432019D01*
X155374933Y-96384400D02*
X155136838Y-97098685D01*
X155136838Y-97098685D02*
X155755885Y-97098685D01*
X184032233Y-117016919D02*
X183698900Y-116540728D01*
X183460805Y-117016919D02*
X183460805Y-116016919D01*
X183460805Y-116016919D02*
X183841757Y-116016919D01*
X183841757Y-116016919D02*
X183936995Y-116064538D01*
X183936995Y-116064538D02*
X183984614Y-116112157D01*
X183984614Y-116112157D02*
X184032233Y-116207395D01*
X184032233Y-116207395D02*
X184032233Y-116350252D01*
X184032233Y-116350252D02*
X183984614Y-116445490D01*
X183984614Y-116445490D02*
X183936995Y-116493109D01*
X183936995Y-116493109D02*
X183841757Y-116540728D01*
X183841757Y-116540728D02*
X183460805Y-116540728D01*
X184365567Y-116016919D02*
X184984614Y-116016919D01*
X184984614Y-116016919D02*
X184651281Y-116397871D01*
X184651281Y-116397871D02*
X184794138Y-116397871D01*
X184794138Y-116397871D02*
X184889376Y-116445490D01*
X184889376Y-116445490D02*
X184936995Y-116493109D01*
X184936995Y-116493109D02*
X184984614Y-116588347D01*
X184984614Y-116588347D02*
X184984614Y-116826442D01*
X184984614Y-116826442D02*
X184936995Y-116921680D01*
X184936995Y-116921680D02*
X184889376Y-116969300D01*
X184889376Y-116969300D02*
X184794138Y-117016919D01*
X184794138Y-117016919D02*
X184508424Y-117016919D01*
X184508424Y-117016919D02*
X184413186Y-116969300D01*
X184413186Y-116969300D02*
X184365567Y-116921680D01*
X184032233Y-111885619D02*
X183698900Y-111409428D01*
X183460805Y-111885619D02*
X183460805Y-110885619D01*
X183460805Y-110885619D02*
X183841757Y-110885619D01*
X183841757Y-110885619D02*
X183936995Y-110933238D01*
X183936995Y-110933238D02*
X183984614Y-110980857D01*
X183984614Y-110980857D02*
X184032233Y-111076095D01*
X184032233Y-111076095D02*
X184032233Y-111218952D01*
X184032233Y-111218952D02*
X183984614Y-111314190D01*
X183984614Y-111314190D02*
X183936995Y-111361809D01*
X183936995Y-111361809D02*
X183841757Y-111409428D01*
X183841757Y-111409428D02*
X183460805Y-111409428D01*
X184413186Y-110980857D02*
X184460805Y-110933238D01*
X184460805Y-110933238D02*
X184556043Y-110885619D01*
X184556043Y-110885619D02*
X184794138Y-110885619D01*
X184794138Y-110885619D02*
X184889376Y-110933238D01*
X184889376Y-110933238D02*
X184936995Y-110980857D01*
X184936995Y-110980857D02*
X184984614Y-111076095D01*
X184984614Y-111076095D02*
X184984614Y-111171333D01*
X184984614Y-111171333D02*
X184936995Y-111314190D01*
X184936995Y-111314190D02*
X184365567Y-111885619D01*
X184365567Y-111885619D02*
X184984614Y-111885619D01*
X154047866Y-67170819D02*
X154047866Y-67885104D01*
X154047866Y-67885104D02*
X154000247Y-68027961D01*
X154000247Y-68027961D02*
X153905009Y-68123200D01*
X153905009Y-68123200D02*
X153762152Y-68170819D01*
X153762152Y-68170819D02*
X153666914Y-68170819D01*
X154476438Y-67266057D02*
X154524057Y-67218438D01*
X154524057Y-67218438D02*
X154619295Y-67170819D01*
X154619295Y-67170819D02*
X154857390Y-67170819D01*
X154857390Y-67170819D02*
X154952628Y-67218438D01*
X154952628Y-67218438D02*
X155000247Y-67266057D01*
X155000247Y-67266057D02*
X155047866Y-67361295D01*
X155047866Y-67361295D02*
X155047866Y-67456533D01*
X155047866Y-67456533D02*
X155000247Y-67599390D01*
X155000247Y-67599390D02*
X154428819Y-68170819D01*
X154428819Y-68170819D02*
X155047866Y-68170819D01*
X174203233Y-101161080D02*
X174155614Y-101208700D01*
X174155614Y-101208700D02*
X174012757Y-101256319D01*
X174012757Y-101256319D02*
X173917519Y-101256319D01*
X173917519Y-101256319D02*
X173774662Y-101208700D01*
X173774662Y-101208700D02*
X173679424Y-101113461D01*
X173679424Y-101113461D02*
X173631805Y-101018223D01*
X173631805Y-101018223D02*
X173584186Y-100827747D01*
X173584186Y-100827747D02*
X173584186Y-100684890D01*
X173584186Y-100684890D02*
X173631805Y-100494414D01*
X173631805Y-100494414D02*
X173679424Y-100399176D01*
X173679424Y-100399176D02*
X173774662Y-100303938D01*
X173774662Y-100303938D02*
X173917519Y-100256319D01*
X173917519Y-100256319D02*
X174012757Y-100256319D01*
X174012757Y-100256319D02*
X174155614Y-100303938D01*
X174155614Y-100303938D02*
X174203233Y-100351557D01*
X175155614Y-101256319D02*
X174584186Y-101256319D01*
X174869900Y-101256319D02*
X174869900Y-100256319D01*
X174869900Y-100256319D02*
X174774662Y-100399176D01*
X174774662Y-100399176D02*
X174679424Y-100494414D01*
X174679424Y-100494414D02*
X174584186Y-100542033D01*
X183480805Y-122188319D02*
X183480805Y-121188319D01*
X183480805Y-121188319D02*
X183718900Y-121188319D01*
X183718900Y-121188319D02*
X183861757Y-121235938D01*
X183861757Y-121235938D02*
X183956995Y-121331176D01*
X183956995Y-121331176D02*
X184004614Y-121426414D01*
X184004614Y-121426414D02*
X184052233Y-121616890D01*
X184052233Y-121616890D02*
X184052233Y-121759747D01*
X184052233Y-121759747D02*
X184004614Y-121950223D01*
X184004614Y-121950223D02*
X183956995Y-122045461D01*
X183956995Y-122045461D02*
X183861757Y-122140700D01*
X183861757Y-122140700D02*
X183718900Y-122188319D01*
X183718900Y-122188319D02*
X183480805Y-122188319D01*
X185004614Y-122188319D02*
X184433186Y-122188319D01*
X184718900Y-122188319D02*
X184718900Y-121188319D01*
X184718900Y-121188319D02*
X184623662Y-121331176D01*
X184623662Y-121331176D02*
X184528424Y-121426414D01*
X184528424Y-121426414D02*
X184433186Y-121474033D01*
D11*
%TO.C,R1*%
X183971836Y-102083100D02*
X184425964Y-102083100D01*
X183971836Y-103553100D02*
X184425964Y-103553100D01*
%TO.C,G1*%
G36*
X149055999Y-79465055D02*
G01*
X149118934Y-79516138D01*
X149127561Y-79530270D01*
X149147153Y-79612848D01*
X149123996Y-79685461D01*
X149069406Y-79736205D01*
X148994697Y-79753177D01*
X148931708Y-79736305D01*
X148875796Y-79681991D01*
X148856052Y-79605438D01*
X148874713Y-79527288D01*
X148904867Y-79488586D01*
X148977824Y-79454594D01*
X149055999Y-79465055D01*
G37*
G36*
X154824004Y-73573615D02*
G01*
X154893668Y-73606620D01*
X154904457Y-73617013D01*
X154945574Y-73691406D01*
X154932264Y-73765126D01*
X154895024Y-73813084D01*
X154818217Y-73860835D01*
X154740782Y-73857562D01*
X154691918Y-73824801D01*
X154658028Y-73760768D01*
X154650909Y-73680722D01*
X154671801Y-73612162D01*
X154681762Y-73599822D01*
X154744627Y-73570674D01*
X154824004Y-73573615D01*
G37*
G36*
X154863160Y-85266893D02*
G01*
X154916249Y-85317301D01*
X154937795Y-85387007D01*
X154916844Y-85465079D01*
X154911943Y-85472997D01*
X154853973Y-85523554D01*
X154779275Y-85543777D01*
X154709669Y-85530312D01*
X154682240Y-85508294D01*
X154646418Y-85432147D01*
X154647212Y-85350871D01*
X154682563Y-85285143D01*
X154706182Y-85267695D01*
X154789486Y-85246714D01*
X154863160Y-85266893D01*
G37*
G36*
X160753502Y-79469177D02*
G01*
X160802478Y-79528229D01*
X160826578Y-79604012D01*
X160818329Y-79678005D01*
X160795261Y-79713321D01*
X160734031Y-79741556D01*
X160654302Y-79741463D01*
X160583572Y-79714283D01*
X160570281Y-79703165D01*
X160534964Y-79645054D01*
X160527317Y-79607471D01*
X160549801Y-79542230D01*
X160603692Y-79482067D01*
X160668649Y-79447615D01*
X160687127Y-79445377D01*
X160753502Y-79469177D01*
G37*
G36*
X152890359Y-80051797D02*
G01*
X153772479Y-80933604D01*
X153713808Y-80996056D01*
X153668266Y-81039689D01*
X153639615Y-81058493D01*
X153639237Y-81058509D01*
X153617239Y-81039777D01*
X153560593Y-80986156D01*
X153473228Y-80901508D01*
X153359076Y-80789696D01*
X153222070Y-80654582D01*
X153066139Y-80500029D01*
X152895216Y-80329900D01*
X152749722Y-80184574D01*
X151876107Y-79310640D01*
X151942173Y-79240315D01*
X152008240Y-79169991D01*
X152890359Y-80051797D01*
G37*
G36*
X151907216Y-82376990D02*
G01*
X153976937Y-84446710D01*
X153911731Y-84516119D01*
X153863986Y-84562586D01*
X153832793Y-84585126D01*
X153830718Y-84585527D01*
X153809649Y-84566595D01*
X153752476Y-84511471D01*
X153661726Y-84422663D01*
X153539926Y-84302679D01*
X153389603Y-84154029D01*
X153213286Y-83979220D01*
X153013501Y-83780761D01*
X152792776Y-83561160D01*
X152553638Y-83322926D01*
X152298616Y-83068566D01*
X152030235Y-82800591D01*
X151751060Y-82521541D01*
X149687209Y-80457555D01*
X149762353Y-80382412D01*
X149837496Y-80307269D01*
X151907216Y-82376990D01*
G37*
G36*
X159808965Y-80382412D02*
G01*
X159884109Y-80457555D01*
X157820258Y-82521541D01*
X157541049Y-82800624D01*
X157272670Y-83068599D01*
X157017649Y-83322956D01*
X156778514Y-83561188D01*
X156557791Y-83780787D01*
X156358009Y-83979243D01*
X156181695Y-84154049D01*
X156031376Y-84302696D01*
X155909579Y-84422676D01*
X155818833Y-84511480D01*
X155761664Y-84566600D01*
X155740601Y-84585527D01*
X155713144Y-84567566D01*
X155666686Y-84523579D01*
X155659587Y-84516119D01*
X155594381Y-84446710D01*
X157664102Y-82376990D01*
X159733822Y-80307269D01*
X159808965Y-80382412D01*
G37*
G36*
X159796018Y-78727458D02*
G01*
X159872817Y-78801037D01*
X157759928Y-80914057D01*
X157477368Y-81196493D01*
X157205616Y-81467850D01*
X156947168Y-81725649D01*
X156704522Y-81967411D01*
X156480175Y-82190657D01*
X156276626Y-82392908D01*
X156096372Y-82571685D01*
X155941909Y-82724508D01*
X155815735Y-82848900D01*
X155720349Y-82942380D01*
X155658246Y-83002470D01*
X155631925Y-83026690D01*
X155631234Y-83027077D01*
X155603777Y-83009116D01*
X155557324Y-82965132D01*
X155550243Y-82957691D01*
X155485058Y-82888305D01*
X157602139Y-80771093D01*
X159719219Y-78653880D01*
X159796018Y-78727458D01*
G37*
G36*
X153698925Y-74899682D02*
G01*
X153771956Y-74975909D01*
X151846360Y-76848372D01*
X149920764Y-78720834D01*
X154906506Y-83708532D01*
X154841317Y-83777923D01*
X154793581Y-83824383D01*
X154762402Y-83846914D01*
X154760332Y-83847314D01*
X154739429Y-83828345D01*
X154682169Y-83772950D01*
X154590836Y-83683398D01*
X154467711Y-83561956D01*
X154315077Y-83410893D01*
X154135216Y-83232477D01*
X153930410Y-83028976D01*
X153702943Y-82802659D01*
X153455095Y-82555794D01*
X153189150Y-82290648D01*
X152907389Y-82009491D01*
X152612096Y-81714590D01*
X152305552Y-81408214D01*
X152221708Y-81324375D01*
X151839889Y-80942321D01*
X151495447Y-80597181D01*
X151186879Y-80287414D01*
X150912682Y-80011479D01*
X150671357Y-79767835D01*
X150461401Y-79554943D01*
X150281312Y-79371261D01*
X150129590Y-79215249D01*
X150004731Y-79085365D01*
X149905235Y-78980070D01*
X149829600Y-78897823D01*
X149776325Y-78837083D01*
X149743907Y-78796309D01*
X149730845Y-78773961D01*
X149731186Y-78769129D01*
X149748704Y-78731692D01*
X149727119Y-78692995D01*
X149710278Y-78660879D01*
X149722481Y-78625717D01*
X149769818Y-78573260D01*
X149784327Y-78559161D01*
X149836537Y-78508740D01*
X149924215Y-78423822D01*
X150043629Y-78308032D01*
X150191045Y-78164999D01*
X150362732Y-77998348D01*
X150554957Y-77811708D01*
X150763988Y-77608705D01*
X150986092Y-77392966D01*
X151217538Y-77168118D01*
X151454592Y-76937789D01*
X151693522Y-76705604D01*
X151930596Y-76475192D01*
X152162081Y-76250180D01*
X152384245Y-76034193D01*
X152593356Y-75830860D01*
X152785681Y-75643807D01*
X152957488Y-75476662D01*
X153105044Y-75333051D01*
X153224617Y-75216601D01*
X153312475Y-75130940D01*
X153364885Y-75079695D01*
X153365034Y-75079548D01*
X153625895Y-74823454D01*
X153698925Y-74899682D01*
G37*
G36*
X155619770Y-74551466D02*
G01*
X155662985Y-74571276D01*
X155703451Y-74549752D01*
X155714834Y-74547368D01*
X155734537Y-74554976D01*
X155764891Y-74574805D01*
X155808227Y-74609078D01*
X155866876Y-74660024D01*
X155943169Y-74729869D01*
X156039437Y-74820837D01*
X156158012Y-74935157D01*
X156301224Y-75075053D01*
X156471404Y-75242753D01*
X156670884Y-75440482D01*
X156901994Y-75670467D01*
X157167065Y-75934935D01*
X157452598Y-76220281D01*
X159158872Y-77926391D01*
X159085294Y-78003189D01*
X159011716Y-78079988D01*
X157336170Y-76404607D01*
X155660624Y-74729227D01*
X154936250Y-75453601D01*
X156576425Y-77093946D01*
X156868189Y-77385894D01*
X157123473Y-77641746D01*
X157344597Y-77863941D01*
X157533878Y-78054917D01*
X157693634Y-78217113D01*
X157826185Y-78352968D01*
X157933848Y-78464920D01*
X158018941Y-78555408D01*
X158083784Y-78626870D01*
X158130693Y-78681747D01*
X158161988Y-78722475D01*
X158179987Y-78751493D01*
X158187009Y-78771241D01*
X158185370Y-78784157D01*
X158184574Y-78785572D01*
X158166475Y-78836256D01*
X158184068Y-78868372D01*
X158180368Y-78883824D01*
X158155639Y-78918899D01*
X158108160Y-78975384D01*
X158036209Y-79055069D01*
X157938062Y-79159745D01*
X157811997Y-79291200D01*
X157656291Y-79451224D01*
X157469222Y-79641606D01*
X157249067Y-79864136D01*
X156994103Y-80120604D01*
X156702609Y-80412800D01*
X156561061Y-80554418D01*
X154906533Y-82208945D01*
X154840370Y-82138518D01*
X154774206Y-82068090D01*
X156379395Y-80462729D01*
X156625014Y-80216762D01*
X156859176Y-79981641D01*
X157079033Y-79760264D01*
X157281736Y-79555529D01*
X157464438Y-79370332D01*
X157624288Y-79207570D01*
X157758440Y-79070142D01*
X157864044Y-78960944D01*
X157938253Y-78882874D01*
X157978217Y-78838829D01*
X157984583Y-78830025D01*
X157965738Y-78806829D01*
X157911533Y-78748646D01*
X157825456Y-78658972D01*
X157710997Y-78541298D01*
X157571648Y-78399120D01*
X157410897Y-78235930D01*
X157232236Y-78055221D01*
X157039154Y-77860489D01*
X156835142Y-77655225D01*
X156623690Y-77442923D01*
X156408287Y-77227078D01*
X156192424Y-77011182D01*
X155979592Y-76798729D01*
X155773279Y-76593212D01*
X155576978Y-76398126D01*
X155394177Y-76216963D01*
X155228366Y-76053217D01*
X155083037Y-75910382D01*
X154961678Y-75791951D01*
X154867781Y-75701418D01*
X154804836Y-75642276D01*
X154776332Y-75618019D01*
X154775259Y-75617605D01*
X154751803Y-75636231D01*
X154692677Y-75689959D01*
X154601213Y-75775567D01*
X154480745Y-75889831D01*
X154334605Y-76029528D01*
X154166127Y-76191434D01*
X153978643Y-76372327D01*
X153775488Y-76568983D01*
X153559993Y-76778179D01*
X153335492Y-76996691D01*
X153105319Y-77221296D01*
X152872805Y-77448771D01*
X152641285Y-77675893D01*
X152414091Y-77899438D01*
X152332681Y-77979721D01*
X151916624Y-78390286D01*
X151847374Y-78325229D01*
X151800903Y-78276875D01*
X151778492Y-78244325D01*
X151778124Y-78242120D01*
X151797116Y-78219928D01*
X151851474Y-78163605D01*
X151937273Y-78077048D01*
X152050585Y-77964156D01*
X152187486Y-77828826D01*
X152344048Y-77674958D01*
X152516346Y-77506449D01*
X152659879Y-77366636D01*
X152868475Y-77163685D01*
X153087027Y-76950853D01*
X153307650Y-76735830D01*
X153522460Y-76526306D01*
X153723575Y-76329973D01*
X153903110Y-76154520D01*
X154053181Y-76007638D01*
X154083766Y-75977661D01*
X154625899Y-75446118D01*
X154494711Y-75312927D01*
X154363522Y-75179736D01*
X154511837Y-75031421D01*
X154648263Y-75165795D01*
X154784688Y-75300168D01*
X155181824Y-74908883D01*
X155318932Y-74774792D01*
X155423060Y-74675763D01*
X155499322Y-74607624D01*
X155552829Y-74566204D01*
X155588693Y-74547330D01*
X155612025Y-74546831D01*
X155619770Y-74551466D01*
G37*
D10*
%TO.C,U1*%
X126151400Y-96844200D02*
X135011400Y-96844200D01*
X126151400Y-100784200D02*
X126151400Y-96844200D01*
X135011400Y-96844200D02*
X135011400Y-100784200D01*
X135011400Y-100784200D02*
X126151400Y-100784200D01*
D12*
X126191400Y-101794200D02*
G75*
G03*
X126191400Y-101794200I-150000J0D01*
G01*
X126921400Y-100034200D02*
G75*
G03*
X126921400Y-100034200I-150000J0D01*
G01*
D11*
%TO.C,R4*%
X183971836Y-107214400D02*
X184425964Y-107214400D01*
X183971836Y-108684400D02*
X184425964Y-108684400D01*
%TO.C,G2*%
G36*
X159070433Y-116040334D02*
G01*
X159146145Y-116085954D01*
X159151814Y-116091520D01*
X159204208Y-116166868D01*
X159226550Y-116247976D01*
X159219422Y-116304177D01*
X159167621Y-116385912D01*
X159093528Y-116437204D01*
X159008604Y-116456800D01*
X158924308Y-116443451D01*
X158852101Y-116395906D01*
X158818055Y-116347985D01*
X158793817Y-116259976D01*
X158807370Y-116178001D01*
X158850261Y-116108554D01*
X158914038Y-116058130D01*
X158990246Y-116033225D01*
X159070433Y-116040334D01*
G37*
G36*
X152546785Y-113537254D02*
G01*
X152574002Y-113554129D01*
X152612480Y-113584384D01*
X152664968Y-113630524D01*
X152734217Y-113695057D01*
X152822974Y-113780489D01*
X152933991Y-113889326D01*
X153070016Y-114024074D01*
X153233798Y-114187241D01*
X153428087Y-114381332D01*
X153448971Y-114402210D01*
X154353225Y-115306235D01*
X154816327Y-115306235D01*
X154816327Y-115460678D01*
X154817163Y-115539746D01*
X154819351Y-115596169D01*
X154822267Y-115617234D01*
X154846302Y-115620005D01*
X154913524Y-115627264D01*
X155019854Y-115638581D01*
X155161211Y-115653526D01*
X155333518Y-115671671D01*
X155532694Y-115692584D01*
X155754661Y-115715838D01*
X155995339Y-115741001D01*
X156250649Y-115767646D01*
X156265719Y-115769217D01*
X157703230Y-115919089D01*
X158915484Y-114709380D01*
X159146728Y-114478710D01*
X159346751Y-114279473D01*
X159517911Y-114109475D01*
X159662562Y-113966520D01*
X159783062Y-113848412D01*
X159881765Y-113752957D01*
X159961028Y-113677960D01*
X160023207Y-113621224D01*
X160070657Y-113580556D01*
X160105736Y-113553759D01*
X160130798Y-113538638D01*
X160148200Y-113532999D01*
X160160297Y-113534645D01*
X160169232Y-113541166D01*
X160175987Y-113550495D01*
X160177517Y-113562832D01*
X160171586Y-113580573D01*
X160155963Y-113606118D01*
X160128413Y-113641864D01*
X160086704Y-113690209D01*
X160028602Y-113753549D01*
X159951876Y-113834284D01*
X159854290Y-113934811D01*
X159733612Y-114057528D01*
X159587610Y-114204833D01*
X159414049Y-114379123D01*
X159210696Y-114582796D01*
X159041175Y-114752389D01*
X158846462Y-114947416D01*
X158662198Y-115132532D01*
X158491050Y-115305021D01*
X158335691Y-115462164D01*
X158198790Y-115601244D01*
X158083017Y-115719544D01*
X157991042Y-115814344D01*
X157925536Y-115882930D01*
X157889169Y-115922581D01*
X157882469Y-115931659D01*
X157908706Y-115937064D01*
X157973781Y-115945617D01*
X158069194Y-115956330D01*
X158186442Y-115968220D01*
X158249693Y-115974215D01*
X158606071Y-116007230D01*
X158692085Y-115921216D01*
X158803649Y-115840012D01*
X158929528Y-115798014D01*
X159060317Y-115793830D01*
X159186610Y-115826067D01*
X159298999Y-115893334D01*
X159388080Y-115994240D01*
X159406874Y-116026992D01*
X159453794Y-116164893D01*
X159457411Y-116304722D01*
X159419863Y-116437397D01*
X159343289Y-116553834D01*
X159267008Y-116621241D01*
X159164503Y-116693493D01*
X159164503Y-118205019D01*
X159473389Y-118205019D01*
X159473389Y-118513906D01*
X159324886Y-118514420D01*
X159243014Y-118516060D01*
X159194912Y-118524108D01*
X159166833Y-118544329D01*
X159145031Y-118582488D01*
X159140742Y-118591642D01*
X159099431Y-118652395D01*
X159048208Y-118694452D01*
X159045700Y-118695657D01*
X159005344Y-118705860D01*
X158925345Y-118719254D01*
X158813394Y-118734806D01*
X158677181Y-118751479D01*
X158524396Y-118768239D01*
X158451687Y-118775593D01*
X158297568Y-118791147D01*
X158159889Y-118805774D01*
X158045492Y-118818685D01*
X157961221Y-118829095D01*
X157913919Y-118836216D01*
X157906230Y-118838331D01*
X157920761Y-118856374D01*
X157966276Y-118905221D01*
X158040091Y-118982139D01*
X158139521Y-119084394D01*
X158261883Y-119209254D01*
X158404494Y-119353985D01*
X158564669Y-119515854D01*
X158739725Y-119692127D01*
X158926978Y-119880071D01*
X159053055Y-120006292D01*
X159278460Y-120231825D01*
X159472444Y-120426228D01*
X159637251Y-120591912D01*
X159775125Y-120731288D01*
X159888309Y-120846768D01*
X159979048Y-120940762D01*
X160049585Y-121015680D01*
X160102164Y-121073935D01*
X160139028Y-121117937D01*
X160162422Y-121150096D01*
X160174588Y-121172824D01*
X160177772Y-121188532D01*
X160174215Y-121199630D01*
X160169232Y-121205635D01*
X160160002Y-121212301D01*
X160147766Y-121213797D01*
X160130158Y-121207918D01*
X160104811Y-121192457D01*
X160069361Y-121165207D01*
X160021441Y-121123964D01*
X159958685Y-121066520D01*
X159878727Y-120990670D01*
X159779202Y-120894206D01*
X159657743Y-120774924D01*
X159511986Y-120630617D01*
X159339563Y-120459078D01*
X159138110Y-120258101D01*
X158927365Y-120047571D01*
X157798273Y-118919247D01*
X157726991Y-118848014D01*
X156241958Y-119001580D01*
X155979801Y-119028596D01*
X155730558Y-119054104D01*
X155498432Y-119077682D01*
X155287630Y-119098914D01*
X155102355Y-119117381D01*
X154946812Y-119132663D01*
X154825206Y-119144342D01*
X154754579Y-119150822D01*
X154741741Y-119152000D01*
X154700621Y-119155217D01*
X154698146Y-119155292D01*
X154678397Y-119162466D01*
X154644804Y-119185258D01*
X154595245Y-119225680D01*
X154527594Y-119285739D01*
X154439727Y-119367447D01*
X154329521Y-119472813D01*
X154194851Y-119603846D01*
X154033593Y-119762556D01*
X153843623Y-119950954D01*
X153622817Y-120171047D01*
X153591928Y-120201901D01*
X153378173Y-120415353D01*
X153195425Y-120597493D01*
X153041144Y-120750664D01*
X152912789Y-120877210D01*
X152807820Y-120979476D01*
X152723696Y-121059807D01*
X152657877Y-121120546D01*
X152607823Y-121164038D01*
X152570992Y-121192627D01*
X152544846Y-121208658D01*
X152526843Y-121214475D01*
X152514442Y-121212422D01*
X152505104Y-121204843D01*
X152505099Y-121204837D01*
X152498133Y-121194303D01*
X152496812Y-121180772D01*
X152503572Y-121161592D01*
X152520849Y-121134111D01*
X152551079Y-121095678D01*
X152596697Y-121043642D01*
X152660139Y-120975352D01*
X152743841Y-120888154D01*
X152850240Y-120779399D01*
X152981770Y-120646435D01*
X153140868Y-120486609D01*
X153329969Y-120297271D01*
X153439054Y-120188185D01*
X153616570Y-120010487D01*
X153783644Y-119842810D01*
X153937314Y-119688157D01*
X154074617Y-119549531D01*
X154192591Y-119429932D01*
X154288274Y-119332364D01*
X154358702Y-119259829D01*
X154400913Y-119215328D01*
X154412398Y-119201817D01*
X154391064Y-119197400D01*
X154335768Y-119199503D01*
X154275775Y-119205644D01*
X154190589Y-119215489D01*
X154117557Y-119222564D01*
X154085691Y-119224716D01*
X154056927Y-119231518D01*
X154050282Y-119233089D01*
X154035094Y-119263616D01*
X154032230Y-119317011D01*
X154021229Y-119400473D01*
X153984409Y-119447325D01*
X153916045Y-119464022D01*
X153901547Y-119464327D01*
X153827508Y-119451926D01*
X153785946Y-119410420D01*
X153771134Y-119333355D01*
X153770864Y-119317011D01*
X153768493Y-119259706D01*
X153752347Y-119233886D01*
X153708876Y-119226994D01*
X153701525Y-119226937D01*
X153673446Y-119226721D01*
X153600213Y-119218646D01*
X153541109Y-119187501D01*
X153497116Y-119147810D01*
X153436519Y-119068237D01*
X153402403Y-118984517D01*
X153401805Y-118981486D01*
X153392902Y-118950420D01*
X153485948Y-118950420D01*
X153508986Y-119012039D01*
X153520499Y-119034938D01*
X153564285Y-119095401D01*
X153624445Y-119124885D01*
X153701525Y-119131679D01*
X153742580Y-119128921D01*
X153763053Y-119112478D01*
X153770095Y-119070101D01*
X153770864Y-119012877D01*
X153770864Y-118894074D01*
X153628301Y-118894074D01*
X153540499Y-118898110D01*
X153494750Y-118914668D01*
X153485948Y-118950420D01*
X153392902Y-118950420D01*
X153384745Y-118921957D01*
X153357152Y-118897338D01*
X153330347Y-118894074D01*
X153261679Y-118874652D01*
X153217065Y-118825899D01*
X153202050Y-118762080D01*
X153222177Y-118697465D01*
X153244063Y-118672032D01*
X153293486Y-118641075D01*
X153327024Y-118632708D01*
X153343454Y-118628302D01*
X153353875Y-118610000D01*
X153358990Y-118570172D01*
X153359502Y-118501192D01*
X153356114Y-118395433D01*
X153353848Y-118341642D01*
X153345873Y-118167618D01*
X153343174Y-118119627D01*
X153338437Y-118035398D01*
X153330533Y-117939293D01*
X153321294Y-117874587D01*
X153419486Y-117874587D01*
X153420571Y-117952515D01*
X153425883Y-118068396D01*
X153433005Y-118195245D01*
X153440959Y-118322198D01*
X153448581Y-118431308D01*
X153452812Y-118484205D01*
X153465759Y-118632708D01*
X153770864Y-118632708D01*
X153770864Y-117566027D01*
X153865906Y-117566027D01*
X153865990Y-117904670D01*
X153866282Y-118198834D01*
X153866843Y-118451563D01*
X153867732Y-118665898D01*
X153869010Y-118844881D01*
X153870737Y-118991556D01*
X153872973Y-119108964D01*
X153875777Y-119200149D01*
X153879211Y-119268151D01*
X153883334Y-119316014D01*
X153888207Y-119346780D01*
X153893889Y-119363492D01*
X153900441Y-119369191D01*
X153901547Y-119369284D01*
X153908216Y-119365035D01*
X153914013Y-119350265D01*
X153918997Y-119321943D01*
X153923226Y-119277039D01*
X153926762Y-119212522D01*
X153929662Y-119125360D01*
X153931988Y-119012522D01*
X153933797Y-118870978D01*
X153935149Y-118697696D01*
X153936105Y-118489645D01*
X153936723Y-118243794D01*
X153937063Y-117957112D01*
X153937184Y-117626569D01*
X153937187Y-117552350D01*
X153937107Y-117212767D01*
X153936825Y-116917695D01*
X153936283Y-116664123D01*
X153935422Y-116449041D01*
X153934180Y-116269438D01*
X153932500Y-116122305D01*
X153930322Y-116004630D01*
X153927585Y-115913404D01*
X153924232Y-115845616D01*
X153920201Y-115798256D01*
X153915434Y-115768313D01*
X153909871Y-115752778D01*
X153903453Y-115748639D01*
X153901547Y-115749092D01*
X153894845Y-115756063D01*
X153889024Y-115773519D01*
X153884023Y-115804526D01*
X153879782Y-115852146D01*
X153876242Y-115919442D01*
X153873341Y-116009478D01*
X153871020Y-116125317D01*
X153869219Y-116270022D01*
X153867877Y-116446657D01*
X153866935Y-116658286D01*
X153866333Y-116907970D01*
X153866010Y-117198775D01*
X153865906Y-117533763D01*
X153865906Y-117566027D01*
X153770864Y-117566027D01*
X153770864Y-115805206D01*
X153716004Y-115805206D01*
X153652688Y-115790829D01*
X153615022Y-115770321D01*
X153574244Y-115743089D01*
X153554893Y-115734680D01*
X153529224Y-115756471D01*
X153505973Y-115822659D01*
X153485783Y-115930157D01*
X153469296Y-116075873D01*
X153461133Y-116185374D01*
X153448540Y-116387685D01*
X153438852Y-116547562D01*
X153432008Y-116669999D01*
X153427946Y-116759992D01*
X153426604Y-116822534D01*
X153427922Y-116862621D01*
X153431837Y-116885245D01*
X153438288Y-116895403D01*
X153447213Y-116898089D01*
X153452343Y-116898190D01*
X153464238Y-116905597D01*
X153473040Y-116931612D01*
X153479169Y-116981929D01*
X153483047Y-117062239D01*
X153485095Y-117178237D01*
X153485735Y-117335614D01*
X153485737Y-117349640D01*
X153485311Y-117508332D01*
X153483703Y-117625535D01*
X153480422Y-117707274D01*
X153474973Y-117759576D01*
X153466864Y-117788466D01*
X153455603Y-117799972D01*
X153448820Y-117801090D01*
X153432942Y-117806661D01*
X153423387Y-117828565D01*
X153419486Y-117874587D01*
X153321294Y-117874587D01*
X153321155Y-117873611D01*
X153309298Y-117832660D01*
X153293954Y-117810751D01*
X153274120Y-117802191D01*
X153258303Y-117801090D01*
X153200611Y-117801090D01*
X153200611Y-117349640D01*
X153295653Y-117349640D01*
X153295965Y-117486618D01*
X153297526Y-117583135D01*
X153301280Y-117646251D01*
X153308166Y-117683024D01*
X153319126Y-117700515D01*
X153335101Y-117705782D01*
X153343174Y-117706048D01*
X153361438Y-117703712D01*
X153374307Y-117691999D01*
X153382722Y-117663850D01*
X153387626Y-117612204D01*
X153389958Y-117530004D01*
X153390660Y-117410188D01*
X153390695Y-117349640D01*
X153390384Y-117212662D01*
X153388822Y-117116145D01*
X153385069Y-117053029D01*
X153378183Y-117016255D01*
X153367223Y-116998765D01*
X153351247Y-116993498D01*
X153343174Y-116993232D01*
X153324911Y-116995568D01*
X153312042Y-117007281D01*
X153303626Y-117035430D01*
X153298723Y-117087076D01*
X153296391Y-117169276D01*
X153295689Y-117289091D01*
X153295653Y-117349640D01*
X153200611Y-117349640D01*
X153200611Y-116901346D01*
X153265953Y-116893828D01*
X153331294Y-116886310D01*
X153348848Y-116470501D01*
X153359516Y-116256023D01*
X153371989Y-116083868D01*
X153387032Y-115948848D01*
X153405413Y-115845775D01*
X153427895Y-115769463D01*
X153455246Y-115714724D01*
X153461816Y-115705300D01*
X153495804Y-115634526D01*
X153496123Y-115632744D01*
X154032230Y-115632744D01*
X154032230Y-117382212D01*
X154032522Y-117757288D01*
X154033406Y-118085549D01*
X154034891Y-118367700D01*
X154036988Y-118604444D01*
X154039706Y-118796485D01*
X154043055Y-118944525D01*
X154047045Y-119049268D01*
X154051686Y-119111417D01*
X154056927Y-119131679D01*
X154089962Y-119129237D01*
X154158618Y-119122672D01*
X154251285Y-119113124D01*
X154312352Y-119106572D01*
X154543081Y-119081464D01*
X154570501Y-119054091D01*
X154754579Y-119054091D01*
X154779232Y-119053682D01*
X154845237Y-119048796D01*
X154946688Y-119039972D01*
X155077680Y-119027750D01*
X155232310Y-119012671D01*
X155404672Y-118995274D01*
X155460530Y-118989521D01*
X155686973Y-118966084D01*
X155942594Y-118939618D01*
X156210722Y-118911850D01*
X156474682Y-118884507D01*
X156717799Y-118859316D01*
X156843685Y-118846268D01*
X157020904Y-118828057D01*
X157184255Y-118811573D01*
X157327328Y-118797440D01*
X157443711Y-118786282D01*
X157526994Y-118778720D01*
X157570766Y-118775379D01*
X157574321Y-118775271D01*
X157611993Y-118767459D01*
X157620069Y-118757286D01*
X157603820Y-118737028D01*
X157557515Y-118687041D01*
X157484810Y-118611083D01*
X157389366Y-118512915D01*
X157274839Y-118396296D01*
X157144890Y-118264984D01*
X157003176Y-118122739D01*
X156978518Y-118098080D01*
X156336968Y-117456860D01*
X156336967Y-117456861D01*
X155541930Y-118251633D01*
X155382226Y-118411598D01*
X155233554Y-118561121D01*
X155099153Y-118696901D01*
X154982263Y-118815636D01*
X154886123Y-118914024D01*
X154813972Y-118988766D01*
X154769049Y-119036559D01*
X154754579Y-119054091D01*
X154570501Y-119054091D01*
X155392519Y-118233496D01*
X155558101Y-118067977D01*
X155713023Y-117912678D01*
X155854110Y-117770813D01*
X155978187Y-117645596D01*
X156082079Y-117540240D01*
X156162612Y-117457957D01*
X156216611Y-117401960D01*
X156240900Y-117375464D01*
X156241958Y-117373822D01*
X156241700Y-117373506D01*
X156420369Y-117373506D01*
X157798273Y-118751266D01*
X158380405Y-118691254D01*
X158544415Y-118673673D01*
X158694942Y-118656264D01*
X158824798Y-118639959D01*
X158926797Y-118625693D01*
X158993750Y-118614398D01*
X159015999Y-118608724D01*
X159069461Y-118586206D01*
X159069461Y-116714228D01*
X159022849Y-116708045D01*
X158956015Y-116699179D01*
X158817524Y-116657796D01*
X158697186Y-116576610D01*
X158614638Y-116477234D01*
X158578479Y-116402505D01*
X158561683Y-116317400D01*
X158558748Y-116241605D01*
X158558741Y-116234693D01*
X158721376Y-116234693D01*
X158732685Y-116331858D01*
X158777407Y-116420360D01*
X158855051Y-116490105D01*
X158918435Y-116519150D01*
X159022849Y-116532811D01*
X159121887Y-116509780D01*
X159206634Y-116457134D01*
X159268176Y-116381951D01*
X159297597Y-116291307D01*
X159294008Y-116221015D01*
X159285383Y-116168501D01*
X159283630Y-116146613D01*
X159264417Y-116105807D01*
X159216855Y-116055127D01*
X159154904Y-116006337D01*
X159092522Y-115971201D01*
X159064953Y-115962312D01*
X158974596Y-115965203D01*
X158892830Y-115992146D01*
X158800958Y-116054745D01*
X158743971Y-116138958D01*
X158721376Y-116234693D01*
X158558741Y-116234693D01*
X158558609Y-116095872D01*
X158273483Y-116068341D01*
X158150111Y-116056250D01*
X158033145Y-116044472D01*
X157936876Y-116034464D01*
X157881434Y-116028371D01*
X157774512Y-116015932D01*
X157097441Y-116694719D01*
X156420369Y-117373506D01*
X156241700Y-117373506D01*
X156225947Y-117354229D01*
X156181268Y-117306353D01*
X156112959Y-117235410D01*
X156026053Y-117146620D01*
X155925585Y-117045201D01*
X155903678Y-117023230D01*
X155800082Y-116920310D01*
X155707504Y-116829969D01*
X155631263Y-116757267D01*
X155576684Y-116707263D01*
X155549086Y-116685018D01*
X155547270Y-116684345D01*
X155542218Y-116707023D01*
X155537707Y-116770728D01*
X155533946Y-116868966D01*
X155531139Y-116995244D01*
X155529493Y-117143070D01*
X155529143Y-117254598D01*
X155529143Y-117824850D01*
X155267777Y-117824850D01*
X155267777Y-116660585D01*
X155540588Y-116660585D01*
X155056241Y-116175805D01*
X154918279Y-116037037D01*
X154808963Y-115927171D01*
X154722291Y-115842588D01*
X154690466Y-115813996D01*
X154652259Y-115779670D01*
X154592863Y-115734798D01*
X154561996Y-115717639D01*
X154777171Y-115717639D01*
X154792105Y-115735209D01*
X154837442Y-115782991D01*
X154909913Y-115857665D01*
X155006250Y-115955907D01*
X155123185Y-116074397D01*
X155257451Y-116209813D01*
X155405779Y-116358832D01*
X155553809Y-116507047D01*
X156336967Y-117289936D01*
X156966638Y-116660601D01*
X157108591Y-116518259D01*
X157239359Y-116386240D01*
X157355247Y-116268339D01*
X157452562Y-116168355D01*
X157527611Y-116090085D01*
X157576701Y-116037324D01*
X157596137Y-116013869D01*
X157596308Y-116013279D01*
X157578226Y-115995651D01*
X157573728Y-115995290D01*
X157546599Y-115992925D01*
X157476425Y-115986116D01*
X157367432Y-115975289D01*
X157223847Y-115960872D01*
X157049895Y-115943291D01*
X156849802Y-115922973D01*
X156627795Y-115900346D01*
X156388100Y-115875835D01*
X156167419Y-115853205D01*
X155916318Y-115827540D01*
X155679669Y-115803584D01*
X155461634Y-115781742D01*
X155266374Y-115762420D01*
X155098051Y-115746024D01*
X154960825Y-115732959D01*
X154858857Y-115723631D01*
X154796309Y-115718446D01*
X154777171Y-115717639D01*
X154561996Y-115717639D01*
X154538099Y-115704355D01*
X154481964Y-115684721D01*
X154429195Y-115674383D01*
X154418453Y-115672278D01*
X154341564Y-115663409D01*
X154245292Y-115654493D01*
X154180733Y-115648138D01*
X154032230Y-115632744D01*
X153496123Y-115632744D01*
X153509498Y-115558008D01*
X153530689Y-115461190D01*
X153590307Y-115387731D01*
X153682418Y-115343946D01*
X153716776Y-115337367D01*
X153782600Y-115332747D01*
X153829410Y-115346333D01*
X153878712Y-115386093D01*
X153897064Y-115404178D01*
X153946580Y-115457063D01*
X153980109Y-115498830D01*
X153986830Y-115510496D01*
X154014074Y-115527666D01*
X154073411Y-115543561D01*
X154121331Y-115550957D01*
X154246074Y-115565362D01*
X154246074Y-115529189D01*
X154341116Y-115529189D01*
X154361023Y-115561104D01*
X154388637Y-115574485D01*
X154429195Y-115576261D01*
X154430531Y-115553178D01*
X154407646Y-115524832D01*
X154367323Y-115498209D01*
X154344006Y-115510509D01*
X154341116Y-115529189D01*
X154246074Y-115529189D01*
X154246074Y-115465380D01*
X154245608Y-115442958D01*
X154242433Y-115421304D01*
X154241283Y-115418096D01*
X154483679Y-115418096D01*
X154500265Y-115447757D01*
X154541443Y-115494399D01*
X154594347Y-115545762D01*
X154646109Y-115589585D01*
X154683862Y-115613608D01*
X154690466Y-115615122D01*
X154712242Y-115592993D01*
X154721056Y-115526054D01*
X154721285Y-115508199D01*
X154721285Y-115401277D01*
X154602482Y-115401277D01*
X154534698Y-115404304D01*
X154491684Y-115412042D01*
X154483679Y-115418096D01*
X154241283Y-115418096D01*
X154233882Y-115397451D01*
X154217290Y-115368435D01*
X154189990Y-115331291D01*
X154149316Y-115283055D01*
X154092603Y-115220762D01*
X154017184Y-115141447D01*
X153920393Y-115042145D01*
X153799564Y-114919891D01*
X153652031Y-114771720D01*
X153475128Y-114594669D01*
X153355887Y-114475449D01*
X153160185Y-114279673D01*
X152995636Y-114114626D01*
X152859704Y-113977524D01*
X152749852Y-113865581D01*
X152663541Y-113776013D01*
X152598235Y-113706035D01*
X152551396Y-113652863D01*
X152520487Y-113613712D01*
X152502971Y-113585798D01*
X152496310Y-113566335D01*
X152497968Y-113552539D01*
X152505209Y-113541842D01*
X152515138Y-113533617D01*
X152528080Y-113531252D01*
X152546785Y-113537254D01*
G37*
%TO.C,C2*%
X173658648Y-106774200D02*
X175081152Y-106774200D01*
X173658648Y-108594200D02*
X175081152Y-108594200D01*
%TO.C,C3*%
X173658648Y-111807000D02*
X175081152Y-111807000D01*
X173658648Y-113627000D02*
X175081152Y-113627000D01*
D13*
%TO.C,J3*%
X174822800Y-80376400D02*
X174822800Y-80826400D01*
X174822800Y-80376400D02*
X175322800Y-80376400D01*
X174822800Y-88076400D02*
X174822800Y-87576400D01*
X174822800Y-88076400D02*
X175322800Y-88076400D01*
X185022800Y-80376400D02*
X184522800Y-80376400D01*
X185022800Y-80376400D02*
X185022800Y-80826400D01*
X185022800Y-88076400D02*
X184522800Y-88076400D01*
X185022800Y-88076400D02*
X185022800Y-87576400D01*
D11*
%TO.C,C5*%
X173658648Y-121872500D02*
X175081152Y-121872500D01*
X173658648Y-123692500D02*
X175081152Y-123692500D01*
%TO.C,C4*%
X173658648Y-116839700D02*
X175081152Y-116839700D01*
X173658648Y-118659700D02*
X175081152Y-118659700D01*
D14*
%TO.C,J4*%
X152406600Y-101642200D02*
X152936600Y-101642200D01*
X152406600Y-101872200D02*
X152406600Y-101642200D01*
X152406600Y-104842200D02*
X152406600Y-103512200D01*
X155876600Y-101642200D02*
X156406600Y-101642200D01*
X156406600Y-101642200D02*
X156406600Y-101872200D01*
X156406600Y-104842200D02*
X152406600Y-104842200D01*
X156406600Y-104842200D02*
X156406600Y-103512200D01*
D15*
X153506600Y-99942200D02*
G75*
G03*
X153506600Y-99942200I-100000J0D01*
G01*
D11*
%TO.C,R3*%
X183971836Y-117477100D02*
X184425964Y-117477100D01*
X183971836Y-118947100D02*
X184425964Y-118947100D01*
%TO.C,R2*%
X183971836Y-112345800D02*
X184425964Y-112345800D01*
X183971836Y-113815800D02*
X184425964Y-113815800D01*
%TO.C,J2*%
X145321200Y-76016000D02*
X145821200Y-76516000D01*
X145321200Y-77016000D02*
X145321200Y-76016000D01*
X145821200Y-76516000D02*
X145321200Y-77016000D01*
X146016200Y-69106000D02*
X146016200Y-76716000D01*
X146016200Y-69106000D02*
X162746200Y-69106000D01*
X146016200Y-85076000D02*
X146016200Y-79516000D01*
X146016200Y-85076000D02*
X162746200Y-85076000D01*
X162746200Y-69106000D02*
X162746200Y-76716000D01*
X162746200Y-85076000D02*
X162746200Y-79516000D01*
%TO.C,C1*%
X173658648Y-101741500D02*
X175081152Y-101741500D01*
X173658648Y-103561500D02*
X175081152Y-103561500D01*
%TO.C,D1*%
X182733900Y-122428500D02*
X182733900Y-123898500D01*
X182733900Y-123898500D02*
X185018900Y-123898500D01*
X185018900Y-122428500D02*
X182733900Y-122428500D01*
%TD*%
%LPC*%
D16*
%TO.C,R1*%
X183286400Y-102818100D03*
X185111400Y-102818100D03*
%TD*%
D17*
%TO.C,U1*%
X126771400Y-101794200D03*
X128041400Y-101794200D03*
X129311400Y-101794200D03*
X130581400Y-101794200D03*
X131851400Y-101794200D03*
X133121400Y-101794200D03*
X134391400Y-101794200D03*
X134391400Y-95834200D03*
X133121400Y-95834200D03*
X131851400Y-95834200D03*
X130581400Y-95834200D03*
X129311400Y-95834200D03*
X128041400Y-95834200D03*
X126771400Y-95834200D03*
%TD*%
D16*
%TO.C,R4*%
X183286400Y-107949400D03*
X185111400Y-107949400D03*
%TD*%
D18*
%TO.C,H2*%
X186944000Y-70866000D03*
%TD*%
D19*
%TO.C,C2*%
X172894900Y-107684200D03*
X175844900Y-107684200D03*
%TD*%
D18*
%TO.C,H5*%
X146989800Y-114096800D03*
%TD*%
D19*
%TO.C,C3*%
X172894900Y-112717000D03*
X175844900Y-112717000D03*
%TD*%
D20*
%TO.C,J3*%
X177422800Y-84226400D03*
D21*
X182422800Y-84226400D03*
%TD*%
D18*
%TO.C,H3*%
X187076000Y-138084000D03*
%TD*%
D19*
%TO.C,C5*%
X172894900Y-122782500D03*
X175844900Y-122782500D03*
%TD*%
%TO.C,C4*%
X172894900Y-117749700D03*
X175844900Y-117749700D03*
%TD*%
D22*
%TO.C,J4*%
X153406600Y-101242200D03*
X153906600Y-101242200D03*
X154406600Y-101242200D03*
X154906600Y-101242200D03*
X155406600Y-101242200D03*
D23*
X152666600Y-102692200D03*
X156146600Y-102692200D03*
%TD*%
D16*
%TO.C,R3*%
X183286400Y-118212100D03*
X185111400Y-118212100D03*
%TD*%
%TO.C,R2*%
X183286400Y-113080800D03*
X185111400Y-113080800D03*
%TD*%
D24*
%TO.C,J2*%
X148031200Y-74676000D03*
X160731200Y-74676000D03*
D25*
X150821200Y-77216000D03*
D26*
X151837200Y-78996000D03*
X152853200Y-77216000D03*
X153869200Y-78996000D03*
X154885200Y-77216000D03*
X155901200Y-78996000D03*
X156917200Y-77216000D03*
X157933200Y-78996000D03*
X147521200Y-83816000D03*
X149811200Y-83816000D03*
X158951200Y-83816000D03*
X161241200Y-83816000D03*
D27*
X146251200Y-78106000D03*
X162511200Y-78106000D03*
%TD*%
D19*
%TO.C,C1*%
X172894900Y-102651500D03*
X175844900Y-102651500D03*
%TD*%
D18*
%TO.C,H1*%
X124714000Y-70866000D03*
%TD*%
%TO.C,H6*%
X161366200Y-126441200D03*
%TD*%
%TO.C,H4*%
X124592000Y-138084000D03*
%TD*%
D28*
%TO.C,D1*%
X183431400Y-123163500D03*
X185006400Y-123163500D03*
%TD*%
%LPD*%
M02*
