M48
; DRILL file {KiCad 7.0.9} date Sun Jun 23 11:57:03 2024
; FORMAT={-:-/ absolute / inch / decimal}
; #@! TF.CreationDate,2024-06-23T11:57:03-04:00
; #@! TF.GenerationSoftware,Kicad,Pcbnew,7.0.9
; #@! TF.FileFunction,Plated,1,2,PTH
FMAT,2
INCH
; #@! TA.AperFunction,Plated,PTH,ViaDrill
T1C0.0157
; #@! TA.AperFunction,Plated,PTH,ComponentDrill
T2C0.0350
; #@! TA.AperFunction,Plated,PTH,ComponentDrill
T3C0.0512
; #@! TA.AperFunction,Plated,PTH,ComponentDrill
T4C0.0618
%
G90
G05
T1
X5.0296Y-4.1309
X5.091Y-3.8293
X5.2031Y-3.8465
X6.0987Y-3.9366
X6.8592Y-4.2776
X7.216Y-4.5946
T2
X5.8079Y-3.2998
X5.8981Y-3.2998
X5.9378Y-3.04
X5.9778Y-3.1101
X6.0178Y-3.04
X6.0578Y-3.1101
X6.0978Y-3.04
X6.1378Y-3.1101
X6.1778Y-3.04
X6.2178Y-3.1101
X6.2579Y-3.2998
X6.3481Y-3.2998
T3
X6.9851Y-3.316
X7.182Y-3.316
T4
X5.7579Y-3.075
X6.3981Y-3.075
T0
M30
