%TF.GenerationSoftware,KiCad,Pcbnew,7.0.9*%
%TF.CreationDate,2024-06-23T11:57:03-04:00*%
%TF.ProjectId,WIRED-Seek-Board-revA1,57495245-442d-4536-9565-6b2d426f6172,Rev A1*%
%TF.SameCoordinates,Original*%
%TF.FileFunction,Copper,L2,Bot*%
%TF.FilePolarity,Positive*%
%FSLAX46Y46*%
G04 Gerber Fmt 4.6, Leading zero omitted, Abs format (unit mm)*
G04 Created by KiCad (PCBNEW 7.0.9) date 2024-06-23 11:57:03*
%MOMM*%
%LPD*%
G01*
G04 APERTURE LIST*
%TA.AperFunction,ComponentPad*%
%ADD10R,2.500000X2.500000*%
%TD*%
%TA.AperFunction,ComponentPad*%
%ADD11C,2.500000*%
%TD*%
%TA.AperFunction,ComponentPad*%
%ADD12R,1.500000X1.500000*%
%TD*%
%TA.AperFunction,ComponentPad*%
%ADD13C,1.500000*%
%TD*%
%TA.AperFunction,ComponentPad*%
%ADD14C,2.300000*%
%TD*%
%TA.AperFunction,ViaPad*%
%ADD15C,0.800000*%
%TD*%
%TA.AperFunction,Conductor*%
%ADD16C,0.500000*%
%TD*%
%TA.AperFunction,Conductor*%
%ADD17C,0.250000*%
%TD*%
G04 APERTURE END LIST*
D10*
%TO.P,J3,1,Pin_1*%
%TO.N,VCC*%
X177422800Y-84226400D03*
D11*
%TO.P,J3,2,Pin_2*%
%TO.N,GND*%
X182422800Y-84226400D03*
%TD*%
D12*
%TO.P,J2,1*%
%TO.N,/XD+*%
X150821200Y-77216000D03*
D13*
%TO.P,J2,2*%
%TO.N,/XD-*%
X151837200Y-78996000D03*
%TO.P,J2,3*%
%TO.N,GND*%
X152853200Y-77216000D03*
%TO.P,J2,4*%
X153869200Y-78996000D03*
%TO.P,J2,5*%
X154885200Y-77216000D03*
%TO.P,J2,6*%
X155901200Y-78996000D03*
%TO.P,J2,7*%
%TO.N,VCC*%
X156917200Y-77216000D03*
%TO.P,J2,8*%
X157933200Y-78996000D03*
%TO.P,J2,9*%
%TO.N,GND*%
X147521200Y-83816000D03*
%TO.P,J2,10*%
%TO.N,Net-(J2-Pad10)*%
X149811200Y-83816000D03*
%TO.P,J2,11*%
%TO.N,unconnected-(J2-Pad11)*%
X158951200Y-83816000D03*
%TO.P,J2,12*%
%TO.N,unconnected-(J2-Pad12)*%
X161241200Y-83816000D03*
D14*
%TO.P,J2,SH*%
%TO.N,GND*%
X146251200Y-78106000D03*
X162511200Y-78106000D03*
%TD*%
D15*
%TO.N,Net-(J2-Pad10)*%
X183286400Y-116703100D03*
%TO.N,/CH315_REF*%
X174224300Y-108651100D03*
X127752500Y-104925100D03*
%TO.N,/XD-*%
X132159900Y-97700000D03*
%TO.N,/UD-*%
X154906600Y-99990300D03*
X129311400Y-97263600D03*
%TD*%
D16*
%TO.N,GND*%
X158409700Y-76019500D02*
X160496200Y-78106000D01*
X155901200Y-78996000D02*
X153869200Y-78996000D01*
X156081700Y-76019500D02*
X158409700Y-76019500D01*
X153869200Y-77216000D02*
X153869200Y-78996000D01*
X160496200Y-78106000D02*
X162511200Y-78106000D01*
X154885200Y-77216000D02*
X156081700Y-76019500D01*
X153869200Y-77216000D02*
X152853200Y-77216000D01*
X154885200Y-77216000D02*
X153869200Y-77216000D01*
D17*
%TO.N,Net-(J2-Pad10)*%
X150399300Y-83816000D02*
X183286400Y-116703100D01*
X149811200Y-83816000D02*
X150399300Y-83816000D01*
D16*
%TO.N,VCC*%
X157933200Y-78996000D02*
X161511700Y-82574500D01*
X161511700Y-82574500D02*
X174119000Y-82574500D01*
X174119000Y-82574500D02*
X175770900Y-84226400D01*
X177422800Y-84226400D02*
X175770900Y-84226400D01*
D17*
%TO.N,/CH315_REF*%
X131478500Y-108651100D02*
X174224300Y-108651100D01*
X127752500Y-104925100D02*
X131478500Y-108651100D01*
%TO.N,/XD-*%
X150863900Y-78996000D02*
X132159900Y-97700000D01*
X151837200Y-78996000D02*
X150863900Y-78996000D01*
%TO.N,/UD-*%
X129311400Y-97263600D02*
X132038100Y-99990300D01*
X132038100Y-99990300D02*
X154906600Y-99990300D01*
%TD*%
M02*
