%TF.GenerationSoftware,KiCad,Pcbnew,7.0.9*%
%TF.CreationDate,2024-04-09T00:12:48-04:00*%
%TF.ProjectId,RDL_revE4,52444c5f-7265-4764-9534-2e6b69636164,Rev E4*%
%TF.SameCoordinates,Original*%
%TF.FileFunction,Soldermask,Bot*%
%TF.FilePolarity,Negative*%
%FSLAX46Y46*%
G04 Gerber Fmt 4.6, Leading zero omitted, Abs format (unit mm)*
G04 Created by KiCad (PCBNEW 7.0.9) date 2024-04-09 00:12:48*
%MOMM*%
%LPD*%
G01*
G04 APERTURE LIST*
%ADD10C,3.250000*%
%ADD11R,1.500000X1.500000*%
%ADD12C,1.500000*%
%ADD13C,2.300000*%
%ADD14C,3.500000*%
%ADD15R,2.500000X2.500000*%
%ADD16C,2.500000*%
%ADD17R,1.700000X1.700000*%
%ADD18O,1.700000X1.700000*%
%ADD19R,2.600000X2.600000*%
%ADD20C,2.600000*%
G04 APERTURE END LIST*
D10*
%TO.C,J7*%
X228221000Y-71374000D03*
X228221000Y-58674000D03*
D11*
X225681000Y-61464000D03*
D12*
X223901000Y-62480000D03*
X225681000Y-63496000D03*
X223901000Y-64512000D03*
X225681000Y-65528000D03*
X223901000Y-66544000D03*
X225681000Y-67560000D03*
X223901000Y-68576000D03*
X219081000Y-58164000D03*
X219081000Y-60454000D03*
X219081000Y-69594000D03*
X219081000Y-71884000D03*
D13*
X224791000Y-56894000D03*
X224791000Y-73154000D03*
%TD*%
D14*
%TO.C,H7*%
X73152000Y-150876000D03*
%TD*%
%TO.C,REF3*%
X230632000Y-150876000D03*
%TD*%
%TO.C,REF14*%
X73152000Y-112522000D03*
%TD*%
D15*
%TO.C,J3*%
X221996000Y-94662000D03*
D16*
X221996000Y-89662000D03*
X221996000Y-84662000D03*
X221996000Y-79662000D03*
%TD*%
D14*
%TO.C,REF16*%
X73152000Y-90424000D03*
%TD*%
D17*
%TO.C,J4*%
X201427000Y-97531000D03*
D18*
X201427000Y-94991000D03*
X201427000Y-92451000D03*
X201427000Y-89911000D03*
X201427000Y-87371000D03*
X201427000Y-84831000D03*
X201427000Y-82291000D03*
X201427000Y-79751000D03*
X201427000Y-77211000D03*
X201427000Y-74671000D03*
X201427000Y-72131000D03*
X201427000Y-69591000D03*
X201427000Y-67051000D03*
X201427000Y-64511000D03*
X201427000Y-61971000D03*
X198887000Y-97531000D03*
X198887000Y-94991000D03*
X198887000Y-92451000D03*
X198887000Y-89911000D03*
X198887000Y-87371000D03*
X198887000Y-84831000D03*
X198887000Y-82291000D03*
X198887000Y-79751000D03*
X198887000Y-77211000D03*
X198887000Y-74671000D03*
X198887000Y-72131000D03*
X198887000Y-69591000D03*
X198887000Y-67051000D03*
X198887000Y-64511000D03*
X198887000Y-61971000D03*
%TD*%
D19*
%TO.C,J8*%
X93952000Y-137160000D03*
D20*
X98952000Y-137160000D03*
X103952000Y-137160000D03*
X108952000Y-137160000D03*
X113952000Y-137160000D03*
X118952000Y-137160000D03*
X123952000Y-137160000D03*
X128952000Y-137160000D03*
X133952000Y-137160000D03*
X138952000Y-137160000D03*
X143952000Y-137160000D03*
X148952000Y-137160000D03*
%TD*%
D15*
%TO.C,J1*%
X82296000Y-55372000D03*
D16*
X82296000Y-60372000D03*
X82296000Y-65372000D03*
X82296000Y-70372000D03*
X82296000Y-75372000D03*
X82296000Y-80372000D03*
X82296000Y-85372000D03*
X82296000Y-90372000D03*
%TD*%
D14*
%TO.C,REF17*%
X73152000Y-75438000D03*
%TD*%
%TO.C,REF18*%
X73152000Y-63246000D03*
%TD*%
%TO.C,REF15*%
X73152000Y-98044000D03*
%TD*%
%TO.C,REF6*%
X180622000Y-150368000D03*
%TD*%
%TO.C,REF5*%
X193802000Y-150368000D03*
%TD*%
%TO.C,REF7*%
X165622000Y-150368000D03*
%TD*%
%TO.C,REF8*%
X150622000Y-150368000D03*
%TD*%
D19*
%TO.C,J9*%
X155180000Y-137160000D03*
D20*
X160180000Y-137160000D03*
X165180000Y-137160000D03*
X170180000Y-137160000D03*
X175180000Y-137160000D03*
X180180000Y-137160000D03*
X185180000Y-137160000D03*
X190180000Y-137160000D03*
X195180000Y-137160000D03*
X200180000Y-137160000D03*
X205180000Y-137160000D03*
X210180000Y-137160000D03*
%TD*%
D14*
%TO.C,REF11*%
X107470000Y-150368000D03*
%TD*%
%TO.C,REF4*%
X208802000Y-150368000D03*
%TD*%
%TO.C,REF13*%
X73406000Y-136652000D03*
%TD*%
%TO.C,REF10*%
X122470000Y-150368000D03*
%TD*%
D17*
%TO.C,J6*%
X183652000Y-97526000D03*
D18*
X183652000Y-94986000D03*
X183652000Y-92446000D03*
X183652000Y-89906000D03*
X183652000Y-87366000D03*
X183652000Y-84826000D03*
X183652000Y-82286000D03*
X183652000Y-79746000D03*
X183652000Y-77206000D03*
X183652000Y-74666000D03*
X183652000Y-72126000D03*
X183652000Y-69586000D03*
X183652000Y-67046000D03*
X183652000Y-64506000D03*
X183652000Y-61966000D03*
X181112000Y-97526000D03*
X181112000Y-94986000D03*
X181112000Y-92446000D03*
X181112000Y-89906000D03*
X181112000Y-87366000D03*
X181112000Y-84826000D03*
X181112000Y-82286000D03*
X181112000Y-79746000D03*
X181112000Y-77206000D03*
X181112000Y-74666000D03*
X181112000Y-72126000D03*
X181112000Y-69586000D03*
X181112000Y-67046000D03*
X181112000Y-64506000D03*
X181112000Y-61966000D03*
%TD*%
D15*
%TO.C,J5*%
X225044000Y-142882000D03*
D16*
X225044000Y-137882000D03*
X225044000Y-132882000D03*
X225044000Y-127882000D03*
%TD*%
D14*
%TO.C,H51*%
X73092000Y-48514000D03*
%TD*%
%TO.C,H6*%
X230632000Y-48514000D03*
%TD*%
D15*
%TO.C,J2*%
X82296000Y-98552000D03*
D16*
X82296000Y-103552000D03*
X82296000Y-108552000D03*
X82296000Y-113552000D03*
X82296000Y-118552000D03*
X82296000Y-123552000D03*
X82296000Y-128552000D03*
X82296000Y-133552000D03*
%TD*%
D14*
%TO.C,REF9*%
X137470000Y-150368000D03*
%TD*%
M02*
