M48
; DRILL file {KiCad 7.0.9} date Tue Apr  9 00:12:48 2024
; FORMAT={-:-/ absolute / inch / decimal}
; #@! TF.CreationDate,2024-04-09T00:12:48-04:00
; #@! TF.GenerationSoftware,Kicad,Pcbnew,7.0.9
; #@! TF.FileFunction,Plated,1,2,PTH
FMAT,2
INCH
; #@! TA.AperFunction,Plated,PTH,ViaDrill
T1C0.0157
; #@! TA.AperFunction,Plated,PTH,ComponentDrill
T2C0.0350
; #@! TA.AperFunction,Plated,PTH,ComponentDrill
T3C0.0394
; #@! TA.AperFunction,Plated,PTH,ComponentDrill
T4C0.0512
; #@! TA.AperFunction,Plated,PTH,ComponentDrill
T5C0.0618
%
G90
G05
T1
X3.3049Y-2.4153
X3.3067Y-3.2027
X3.3067Y-4.3455
X3.3175Y-3.3434
X3.3176Y-2.5547
X3.4234Y-3.1548
X3.5398Y-3.1999
X3.5595Y-3.2822
X3.5783Y-2.3473
X3.6066Y-4.3406
X3.6135Y-4.2478
X3.7766Y-4.9042
X3.8322Y-4.0024
X3.8368Y-2.2807
X3.8398Y-3.3307
X3.8452Y-3.2822
X3.8606Y-2.9367
X3.8668Y-3.3954
X3.8696Y-2.3453
X3.8817Y-2.4668
X3.8873Y-3.6133
X3.8955Y-3.2533
X3.9019Y-3.4429
X3.9132Y-2.4068
X3.919Y-3.5396
X3.9423Y-3.6765
X3.9492Y-2.3448
X3.9509Y-2.8974
X3.9549Y-3.207
X3.9647Y-3.0493
X3.9941Y-4.9111
X3.9942Y-2.2002
X4.0112Y-4.6221
X4.0152Y-4.4231
X4.0189Y-4.8202
X4.0328Y-4.4673
X4.0348Y-3.2018
X4.0375Y-2.1931
X4.0432Y-4.7771
X4.0489Y-2.29
X4.0522Y-2.7555
X4.057Y-3.5786
X4.0935Y-4.3124
X4.0979Y-4.9415
X4.1095Y-4.2657
X4.1097Y-2.392
X4.1262Y-2.6911
X4.1335Y-2.9685
X4.1575Y-2.8369
X4.1754Y-3.8476
X4.2Y-3.226
X4.2121Y-2.4489
X4.2351Y-4.5852
X4.2469Y-3.4187
X4.2637Y-3.5342
X4.2881Y-2.1668
X4.3026Y-3.5882
X4.325Y-3.665
X4.335Y-4.9095
X4.3468Y-3.4409
X4.3469Y-3.5927
X4.3531Y-2.9264
X4.3906Y-2.3511
X4.3911Y-3.5232
X4.3962Y-2.8875
X4.4071Y-2.74
X4.4121Y-2.1649
X4.4133Y-4.0024
X4.4561Y-2.5575
X4.4684Y-4.8889
X4.4924Y-2.4937
X4.5093Y-4.932
X4.5198Y-1.9809
X4.5287Y-2.5451
X4.5319Y-3.6915
X4.5324Y-3.5011
X4.538Y-4.609
X4.5416Y-3.3262
X4.5465Y-2.1649
X4.5515Y-3.3707
X4.5577Y-4.9425
X4.5663Y-3.5246
X4.5664Y-3.6602
X4.6649Y-2.9199
X4.6665Y-2.6942
X4.6665Y-2.8717
X4.7627Y-2.1826
X4.7627Y-2.2715
X4.7634Y-3.6368
X4.7772Y-3.5086
X4.79Y-2.1132
X4.792Y-2.6538
X4.7979Y-4.9094
X4.8192Y-4.8271
X4.9376Y-3.5582
X4.9432Y-3.3361
X4.9563Y-3.4037
X4.9598Y-3.4989
X4.9728Y-4.4672
X4.9729Y-2.2983
X4.9729Y-4.8286
X4.9864Y-4.9491
X4.9871Y-4.3123
X5.0033Y-3.6639
X5.0329Y-3.1891
X5.0349Y-3.5823
X5.0646Y-3.0395
X5.1131Y-3.1898
X5.1289Y-2.6032
X5.1474Y-3.2521
X5.1738Y-4.9089
X5.2194Y-4.9651
X5.2253Y-4.6269
X5.2539Y-4.7042
X5.2783Y-2.4359
X5.2828Y-2.8246
X5.3092Y-3.3841
X5.3092Y-4.8705
X5.4042Y-3.5584
X5.4063Y-3.3951
X5.4253Y-3.6926
X5.4282Y-3.4901
X5.4393Y-2.7511
X5.4419Y-3.2716
X5.4774Y-4.9084
X5.5528Y-3.5164
X5.5528Y-3.6764
X5.5607Y-3.3331
X5.5927Y-3.2268
X5.6963Y-4.9849
X5.704Y-4.911
X5.7386Y-4.9927
X5.7476Y-4.3247
X5.7476Y-2.1237
X5.7802Y-4.9662
X5.8463Y-3.7146
X5.8828Y-4.1574
X5.8849Y-3.9636
X5.8978Y-3.5099
X5.9026Y-4.426
X6.0101Y-4.3541
X6.03Y-4.06
X6.05Y-4.31
X6.0568Y-3.7146
X6.0575Y-2.9601
X6.0575Y-5.0647
X6.062Y-4.7726
X6.0738Y-2.4711
X6.0791Y-4.1246
X6.081Y-4.0242
X6.1007Y-2.1865
X6.1042Y-2.139
X6.1146Y-3.6688
X6.1273Y-3.6055
X6.1596Y-2.2782
X6.1597Y-2.413
X6.1598Y-3.9674
X6.1602Y-3.3827
X6.1781Y-4.932
X6.184Y-3.5606
X6.1877Y-2.969
X6.19Y-4.04
X6.1904Y-3.215
X6.2159Y-2.0272
X6.2174Y-4.207
X6.237Y-4.932
X6.238Y-3.6673
X6.2464Y-3.4903
X6.2708Y-3.3268
X6.3189Y-4.2729
X6.3257Y-3.1988
X6.3503Y-3.3708
X6.3543Y-3.3136
X6.3701Y-3.4194
X6.3718Y-3.5377
X6.3791Y-4.9641
X6.391Y-3.585
X6.4173Y-3.1072
X6.489Y-3.7423
X6.4923Y-3.2656
X6.5089Y-2.3062
X6.554Y-5.3094
X6.563Y-3.5377
X6.5748Y-3.8282
X6.6042Y-3.2874
X6.6774Y-4.9664
X6.7353Y-2.9065
X6.7699Y-2.968
X6.7714Y-3.3792
X6.8023Y-2.721
X6.8111Y-4.9818
X6.8366Y-3.9718
X6.8448Y-3.5511
X6.8892Y-3.0413
X6.8957Y-3.1064
X6.9328Y-4.9646
X6.9578Y-3.2345
X6.9873Y-4.4672
X7.0034Y-3.2294
X7.0411Y-3.2719
X7.0554Y-3.074
X7.1151Y-5.0321
X7.1584Y-5.0087
X7.1734Y-4.2996
X7.1836Y-4.7374
X7.2906Y-4.9466
X7.2935Y-4.7569
X7.3193Y-3.849
X7.3665Y-4.977
X7.4521Y-4.4751
X7.4933Y-4.9643
X7.6359Y-4.94
X7.7406Y-3.0402
X7.762Y-4.4446
X7.8502Y-4.3764
X7.8599Y-4.9762
X7.8852Y-4.9345
X7.9377Y-5.0219
X8.0794Y-4.5225
X8.1695Y-4.3773
X8.2269Y-5.7066
X8.2281Y-2.16
X8.2494Y-2.0307
X8.2748Y-4.4555
X8.2952Y-4.6221
X8.3321Y-4.27
X8.3352Y-2.1917
X8.3818Y-5.0869
X8.393Y-2.1873
X8.393Y-2.431
X8.4Y-4.16
X8.4204Y-4.6907
X8.4255Y-4.7805
X8.4422Y-2.0942
X8.4446Y-1.9854
X8.4879Y-4.6459
X8.4954Y-4.1
X8.5122Y-4.4201
X8.5168Y-4.5132
X8.5368Y-1.9884
X8.5847Y-5.6036
X8.5993Y-3.9674
X8.6683Y-2.7045
X8.6903Y-4.4571
X8.71Y-2.46
X8.7403Y-2.7005
X8.7473Y-2.5608
X8.8021Y-3.0522
T2
X8.6252Y-2.2899
X8.6252Y-2.3801
X8.6252Y-2.7399
X8.6252Y-2.8301
X8.815Y-2.4598
X8.815Y-2.5398
X8.815Y-2.6198
X8.815Y-2.6998
X8.8851Y-2.4198
X8.8851Y-2.4998
X8.8851Y-2.5798
X8.8851Y-2.6598
T3
X7.1304Y-2.4396
X7.1304Y-2.5396
X7.1304Y-2.6396
X7.1304Y-2.7396
X7.1304Y-2.8396
X7.1304Y-2.9396
X7.1304Y-3.0396
X7.1304Y-3.1396
X7.1304Y-3.2396
X7.1304Y-3.3396
X7.1304Y-3.4396
X7.1304Y-3.5396
X7.1304Y-3.6396
X7.1304Y-3.7396
X7.1304Y-3.8396
X7.2304Y-2.4396
X7.2304Y-2.5396
X7.2304Y-2.6396
X7.2304Y-2.7396
X7.2304Y-2.8396
X7.2304Y-2.9396
X7.2304Y-3.0396
X7.2304Y-3.1396
X7.2304Y-3.2396
X7.2304Y-3.3396
X7.2304Y-3.4396
X7.2304Y-3.5396
X7.2304Y-3.6396
X7.2304Y-3.7396
X7.2304Y-3.8396
X7.8302Y-2.4398
X7.8302Y-2.5398
X7.8302Y-2.6398
X7.8302Y-2.7398
X7.8302Y-2.8398
X7.8302Y-2.9398
X7.8302Y-3.0398
X7.8302Y-3.1398
X7.8302Y-3.2398
X7.8302Y-3.3398
X7.8302Y-3.4398
X7.8302Y-3.5398
X7.8302Y-3.6398
X7.8302Y-3.7398
X7.8302Y-3.8398
X7.9302Y-2.4398
X7.9302Y-2.5398
X7.9302Y-2.6398
X7.9302Y-2.7398
X7.9302Y-2.8398
X7.9302Y-2.9398
X7.9302Y-3.0398
X7.9302Y-3.1398
X7.9302Y-3.2398
X7.9302Y-3.3398
X7.9302Y-3.4398
X7.9302Y-3.5398
X7.9302Y-3.6398
X7.9302Y-3.7398
X7.9302Y-3.8398
T4
X3.24Y-2.18
X3.24Y-2.3769
X3.24Y-2.5737
X3.24Y-2.7706
X3.24Y-2.9674
X3.24Y-3.1643
X3.24Y-3.3611
X3.24Y-3.558
X3.24Y-3.88
X3.24Y-4.0769
X3.24Y-4.2737
X3.24Y-4.4706
X3.24Y-4.6674
X3.24Y-4.8643
X3.24Y-5.0611
X3.24Y-5.258
X3.6989Y-5.4
X3.8957Y-5.4
X4.0926Y-5.4
X4.2894Y-5.4
X4.4863Y-5.4
X4.6831Y-5.4
X4.88Y-5.4
X5.0769Y-5.4
X5.2737Y-5.4
X5.4706Y-5.4
X5.6674Y-5.4
X5.8643Y-5.4
X6.1094Y-5.4
X6.3063Y-5.4
X6.5031Y-5.4
X6.7Y-5.4
X6.8969Y-5.4
X7.0937Y-5.4
X7.2906Y-5.4
X7.4874Y-5.4
X7.6843Y-5.4
X7.8811Y-5.4
X8.078Y-5.4
X8.2748Y-5.4
X8.74Y-3.1363
X8.74Y-3.3331
X8.74Y-3.53
X8.74Y-3.7269
X8.86Y-5.0347
X8.86Y-5.2316
X8.86Y-5.4284
X8.86Y-5.6253
T5
X8.85Y-2.2399
X8.85Y-2.8801
T0
M30
