%TF.GenerationSoftware,KiCad,Pcbnew,7.0.9*%
%TF.CreationDate,2024-04-09T00:12:48-04:00*%
%TF.ProjectId,RDL_revE4,52444c5f-7265-4764-9534-2e6b69636164,Rev E4*%
%TF.SameCoordinates,Original*%
%TF.FileFunction,Legend,Bot*%
%TF.FilePolarity,Positive*%
%FSLAX46Y46*%
G04 Gerber Fmt 4.6, Leading zero omitted, Abs format (unit mm)*
G04 Created by KiCad (PCBNEW 7.0.9) date 2024-04-09 00:12:48*
%MOMM*%
%LPD*%
G01*
G04 APERTURE LIST*
%ADD10C,0.300000*%
%ADD11C,0.150000*%
%ADD12C,3.250000*%
%ADD13R,1.500000X1.500000*%
%ADD14C,1.500000*%
%ADD15C,2.300000*%
%ADD16C,3.500000*%
%ADD17R,2.500000X2.500000*%
%ADD18C,2.500000*%
%ADD19R,1.700000X1.700000*%
%ADD20O,1.700000X1.700000*%
%ADD21R,2.600000X2.600000*%
%ADD22C,2.600000*%
G04 APERTURE END LIST*
D10*
X162907713Y-71822328D02*
X162621999Y-71822328D01*
X162621999Y-71822328D02*
X162479142Y-71893757D01*
X162479142Y-71893757D02*
X162336285Y-72036614D01*
X162336285Y-72036614D02*
X162264856Y-72322328D01*
X162264856Y-72322328D02*
X162264856Y-72822328D01*
X162264856Y-72822328D02*
X162336285Y-73108042D01*
X162336285Y-73108042D02*
X162479142Y-73250900D01*
X162479142Y-73250900D02*
X162621999Y-73322328D01*
X162621999Y-73322328D02*
X162907713Y-73322328D01*
X162907713Y-73322328D02*
X163050571Y-73250900D01*
X163050571Y-73250900D02*
X163193428Y-73108042D01*
X163193428Y-73108042D02*
X163264856Y-72822328D01*
X163264856Y-72822328D02*
X163264856Y-72322328D01*
X163264856Y-72322328D02*
X163193428Y-72036614D01*
X163193428Y-72036614D02*
X163050571Y-71893757D01*
X163050571Y-71893757D02*
X162907713Y-71822328D01*
X161621999Y-72322328D02*
X161621999Y-73822328D01*
X161621999Y-72393757D02*
X161479142Y-72322328D01*
X161479142Y-72322328D02*
X161193427Y-72322328D01*
X161193427Y-72322328D02*
X161050570Y-72393757D01*
X161050570Y-72393757D02*
X160979142Y-72465185D01*
X160979142Y-72465185D02*
X160907713Y-72608042D01*
X160907713Y-72608042D02*
X160907713Y-73036614D01*
X160907713Y-73036614D02*
X160979142Y-73179471D01*
X160979142Y-73179471D02*
X161050570Y-73250900D01*
X161050570Y-73250900D02*
X161193427Y-73322328D01*
X161193427Y-73322328D02*
X161479142Y-73322328D01*
X161479142Y-73322328D02*
X161621999Y-73250900D01*
X159693427Y-73250900D02*
X159836284Y-73322328D01*
X159836284Y-73322328D02*
X160121999Y-73322328D01*
X160121999Y-73322328D02*
X160264856Y-73250900D01*
X160264856Y-73250900D02*
X160336284Y-73108042D01*
X160336284Y-73108042D02*
X160336284Y-72536614D01*
X160336284Y-72536614D02*
X160264856Y-72393757D01*
X160264856Y-72393757D02*
X160121999Y-72322328D01*
X160121999Y-72322328D02*
X159836284Y-72322328D01*
X159836284Y-72322328D02*
X159693427Y-72393757D01*
X159693427Y-72393757D02*
X159621999Y-72536614D01*
X159621999Y-72536614D02*
X159621999Y-72679471D01*
X159621999Y-72679471D02*
X160336284Y-72822328D01*
X158979142Y-72322328D02*
X158979142Y-73322328D01*
X158979142Y-72465185D02*
X158907713Y-72393757D01*
X158907713Y-72393757D02*
X158764856Y-72322328D01*
X158764856Y-72322328D02*
X158550570Y-72322328D01*
X158550570Y-72322328D02*
X158407713Y-72393757D01*
X158407713Y-72393757D02*
X158336285Y-72536614D01*
X158336285Y-72536614D02*
X158336285Y-73322328D01*
X156550570Y-73250900D02*
X156336285Y-73322328D01*
X156336285Y-73322328D02*
X155979142Y-73322328D01*
X155979142Y-73322328D02*
X155836285Y-73250900D01*
X155836285Y-73250900D02*
X155764856Y-73179471D01*
X155764856Y-73179471D02*
X155693427Y-73036614D01*
X155693427Y-73036614D02*
X155693427Y-72893757D01*
X155693427Y-72893757D02*
X155764856Y-72750900D01*
X155764856Y-72750900D02*
X155836285Y-72679471D01*
X155836285Y-72679471D02*
X155979142Y-72608042D01*
X155979142Y-72608042D02*
X156264856Y-72536614D01*
X156264856Y-72536614D02*
X156407713Y-72465185D01*
X156407713Y-72465185D02*
X156479142Y-72393757D01*
X156479142Y-72393757D02*
X156550570Y-72250900D01*
X156550570Y-72250900D02*
X156550570Y-72108042D01*
X156550570Y-72108042D02*
X156479142Y-71965185D01*
X156479142Y-71965185D02*
X156407713Y-71893757D01*
X156407713Y-71893757D02*
X156264856Y-71822328D01*
X156264856Y-71822328D02*
X155907713Y-71822328D01*
X155907713Y-71822328D02*
X155693427Y-71893757D01*
X154836285Y-73322328D02*
X154979142Y-73250900D01*
X154979142Y-73250900D02*
X155050571Y-73179471D01*
X155050571Y-73179471D02*
X155121999Y-73036614D01*
X155121999Y-73036614D02*
X155121999Y-72608042D01*
X155121999Y-72608042D02*
X155050571Y-72465185D01*
X155050571Y-72465185D02*
X154979142Y-72393757D01*
X154979142Y-72393757D02*
X154836285Y-72322328D01*
X154836285Y-72322328D02*
X154621999Y-72322328D01*
X154621999Y-72322328D02*
X154479142Y-72393757D01*
X154479142Y-72393757D02*
X154407714Y-72465185D01*
X154407714Y-72465185D02*
X154336285Y-72608042D01*
X154336285Y-72608042D02*
X154336285Y-73036614D01*
X154336285Y-73036614D02*
X154407714Y-73179471D01*
X154407714Y-73179471D02*
X154479142Y-73250900D01*
X154479142Y-73250900D02*
X154621999Y-73322328D01*
X154621999Y-73322328D02*
X154836285Y-73322328D01*
X153050571Y-72322328D02*
X153050571Y-73322328D01*
X153693428Y-72322328D02*
X153693428Y-73108042D01*
X153693428Y-73108042D02*
X153621999Y-73250900D01*
X153621999Y-73250900D02*
X153479142Y-73322328D01*
X153479142Y-73322328D02*
X153264856Y-73322328D01*
X153264856Y-73322328D02*
X153121999Y-73250900D01*
X153121999Y-73250900D02*
X153050571Y-73179471D01*
X152336285Y-73322328D02*
X152336285Y-72322328D01*
X152336285Y-72608042D02*
X152264856Y-72465185D01*
X152264856Y-72465185D02*
X152193428Y-72393757D01*
X152193428Y-72393757D02*
X152050570Y-72322328D01*
X152050570Y-72322328D02*
X151907713Y-72322328D01*
X150764857Y-73250900D02*
X150907714Y-73322328D01*
X150907714Y-73322328D02*
X151193428Y-73322328D01*
X151193428Y-73322328D02*
X151336285Y-73250900D01*
X151336285Y-73250900D02*
X151407714Y-73179471D01*
X151407714Y-73179471D02*
X151479142Y-73036614D01*
X151479142Y-73036614D02*
X151479142Y-72608042D01*
X151479142Y-72608042D02*
X151407714Y-72465185D01*
X151407714Y-72465185D02*
X151336285Y-72393757D01*
X151336285Y-72393757D02*
X151193428Y-72322328D01*
X151193428Y-72322328D02*
X150907714Y-72322328D01*
X150907714Y-72322328D02*
X150764857Y-72393757D01*
X149550571Y-73250900D02*
X149693428Y-73322328D01*
X149693428Y-73322328D02*
X149979143Y-73322328D01*
X149979143Y-73322328D02*
X150122000Y-73250900D01*
X150122000Y-73250900D02*
X150193428Y-73108042D01*
X150193428Y-73108042D02*
X150193428Y-72536614D01*
X150193428Y-72536614D02*
X150122000Y-72393757D01*
X150122000Y-72393757D02*
X149979143Y-72322328D01*
X149979143Y-72322328D02*
X149693428Y-72322328D01*
X149693428Y-72322328D02*
X149550571Y-72393757D01*
X149550571Y-72393757D02*
X149479143Y-72536614D01*
X149479143Y-72536614D02*
X149479143Y-72679471D01*
X149479143Y-72679471D02*
X150193428Y-72822328D01*
X147693429Y-73322328D02*
X147693429Y-71822328D01*
X147693429Y-72536614D02*
X146836286Y-72536614D01*
X146836286Y-73322328D02*
X146836286Y-71822328D01*
X145479143Y-73322328D02*
X145479143Y-72536614D01*
X145479143Y-72536614D02*
X145550571Y-72393757D01*
X145550571Y-72393757D02*
X145693428Y-72322328D01*
X145693428Y-72322328D02*
X145979143Y-72322328D01*
X145979143Y-72322328D02*
X146122000Y-72393757D01*
X145479143Y-73250900D02*
X145622000Y-73322328D01*
X145622000Y-73322328D02*
X145979143Y-73322328D01*
X145979143Y-73322328D02*
X146122000Y-73250900D01*
X146122000Y-73250900D02*
X146193428Y-73108042D01*
X146193428Y-73108042D02*
X146193428Y-72965185D01*
X146193428Y-72965185D02*
X146122000Y-72822328D01*
X146122000Y-72822328D02*
X145979143Y-72750900D01*
X145979143Y-72750900D02*
X145622000Y-72750900D01*
X145622000Y-72750900D02*
X145479143Y-72679471D01*
X144764857Y-73322328D02*
X144764857Y-72322328D01*
X144764857Y-72608042D02*
X144693428Y-72465185D01*
X144693428Y-72465185D02*
X144622000Y-72393757D01*
X144622000Y-72393757D02*
X144479142Y-72322328D01*
X144479142Y-72322328D02*
X144336285Y-72322328D01*
X143193429Y-73322328D02*
X143193429Y-71822328D01*
X143193429Y-73250900D02*
X143336286Y-73322328D01*
X143336286Y-73322328D02*
X143622000Y-73322328D01*
X143622000Y-73322328D02*
X143764857Y-73250900D01*
X143764857Y-73250900D02*
X143836286Y-73179471D01*
X143836286Y-73179471D02*
X143907714Y-73036614D01*
X143907714Y-73036614D02*
X143907714Y-72608042D01*
X143907714Y-72608042D02*
X143836286Y-72465185D01*
X143836286Y-72465185D02*
X143764857Y-72393757D01*
X143764857Y-72393757D02*
X143622000Y-72322328D01*
X143622000Y-72322328D02*
X143336286Y-72322328D01*
X143336286Y-72322328D02*
X143193429Y-72393757D01*
X142622000Y-72322328D02*
X142336286Y-73322328D01*
X142336286Y-73322328D02*
X142050571Y-72608042D01*
X142050571Y-72608042D02*
X141764857Y-73322328D01*
X141764857Y-73322328D02*
X141479143Y-72322328D01*
X140264857Y-73322328D02*
X140264857Y-72536614D01*
X140264857Y-72536614D02*
X140336285Y-72393757D01*
X140336285Y-72393757D02*
X140479142Y-72322328D01*
X140479142Y-72322328D02*
X140764857Y-72322328D01*
X140764857Y-72322328D02*
X140907714Y-72393757D01*
X140264857Y-73250900D02*
X140407714Y-73322328D01*
X140407714Y-73322328D02*
X140764857Y-73322328D01*
X140764857Y-73322328D02*
X140907714Y-73250900D01*
X140907714Y-73250900D02*
X140979142Y-73108042D01*
X140979142Y-73108042D02*
X140979142Y-72965185D01*
X140979142Y-72965185D02*
X140907714Y-72822328D01*
X140907714Y-72822328D02*
X140764857Y-72750900D01*
X140764857Y-72750900D02*
X140407714Y-72750900D01*
X140407714Y-72750900D02*
X140264857Y-72679471D01*
X139550571Y-73322328D02*
X139550571Y-72322328D01*
X139550571Y-72608042D02*
X139479142Y-72465185D01*
X139479142Y-72465185D02*
X139407714Y-72393757D01*
X139407714Y-72393757D02*
X139264856Y-72322328D01*
X139264856Y-72322328D02*
X139121999Y-72322328D01*
X138050571Y-73250900D02*
X138193428Y-73322328D01*
X138193428Y-73322328D02*
X138479143Y-73322328D01*
X138479143Y-73322328D02*
X138622000Y-73250900D01*
X138622000Y-73250900D02*
X138693428Y-73108042D01*
X138693428Y-73108042D02*
X138693428Y-72536614D01*
X138693428Y-72536614D02*
X138622000Y-72393757D01*
X138622000Y-72393757D02*
X138479143Y-72322328D01*
X138479143Y-72322328D02*
X138193428Y-72322328D01*
X138193428Y-72322328D02*
X138050571Y-72393757D01*
X138050571Y-72393757D02*
X137979143Y-72536614D01*
X137979143Y-72536614D02*
X137979143Y-72679471D01*
X137979143Y-72679471D02*
X138693428Y-72822328D01*
D11*
X165661523Y-80210819D02*
X165661523Y-79210819D01*
X165661523Y-79210819D02*
X165328190Y-79925104D01*
X165328190Y-79925104D02*
X164994857Y-79210819D01*
X164994857Y-79210819D02*
X164994857Y-80210819D01*
X164375809Y-80210819D02*
X164471047Y-80163200D01*
X164471047Y-80163200D02*
X164518666Y-80115580D01*
X164518666Y-80115580D02*
X164566285Y-80020342D01*
X164566285Y-80020342D02*
X164566285Y-79734628D01*
X164566285Y-79734628D02*
X164518666Y-79639390D01*
X164518666Y-79639390D02*
X164471047Y-79591771D01*
X164471047Y-79591771D02*
X164375809Y-79544152D01*
X164375809Y-79544152D02*
X164232952Y-79544152D01*
X164232952Y-79544152D02*
X164137714Y-79591771D01*
X164137714Y-79591771D02*
X164090095Y-79639390D01*
X164090095Y-79639390D02*
X164042476Y-79734628D01*
X164042476Y-79734628D02*
X164042476Y-80020342D01*
X164042476Y-80020342D02*
X164090095Y-80115580D01*
X164090095Y-80115580D02*
X164137714Y-80163200D01*
X164137714Y-80163200D02*
X164232952Y-80210819D01*
X164232952Y-80210819D02*
X164375809Y-80210819D01*
X163185333Y-79544152D02*
X163185333Y-80210819D01*
X163613904Y-79544152D02*
X163613904Y-80067961D01*
X163613904Y-80067961D02*
X163566285Y-80163200D01*
X163566285Y-80163200D02*
X163471047Y-80210819D01*
X163471047Y-80210819D02*
X163328190Y-80210819D01*
X163328190Y-80210819D02*
X163232952Y-80163200D01*
X163232952Y-80163200D02*
X163185333Y-80115580D01*
X162709142Y-79544152D02*
X162709142Y-80210819D01*
X162709142Y-79639390D02*
X162661523Y-79591771D01*
X162661523Y-79591771D02*
X162566285Y-79544152D01*
X162566285Y-79544152D02*
X162423428Y-79544152D01*
X162423428Y-79544152D02*
X162328190Y-79591771D01*
X162328190Y-79591771D02*
X162280571Y-79687009D01*
X162280571Y-79687009D02*
X162280571Y-80210819D01*
X161947237Y-79544152D02*
X161566285Y-79544152D01*
X161804380Y-79210819D02*
X161804380Y-80067961D01*
X161804380Y-80067961D02*
X161756761Y-80163200D01*
X161756761Y-80163200D02*
X161661523Y-80210819D01*
X161661523Y-80210819D02*
X161566285Y-80210819D01*
X161232951Y-80210819D02*
X161232951Y-79544152D01*
X161232951Y-79210819D02*
X161280570Y-79258438D01*
X161280570Y-79258438D02*
X161232951Y-79306057D01*
X161232951Y-79306057D02*
X161185332Y-79258438D01*
X161185332Y-79258438D02*
X161232951Y-79210819D01*
X161232951Y-79210819D02*
X161232951Y-79306057D01*
X160756761Y-79544152D02*
X160756761Y-80210819D01*
X160756761Y-79639390D02*
X160709142Y-79591771D01*
X160709142Y-79591771D02*
X160613904Y-79544152D01*
X160613904Y-79544152D02*
X160471047Y-79544152D01*
X160471047Y-79544152D02*
X160375809Y-79591771D01*
X160375809Y-79591771D02*
X160328190Y-79687009D01*
X160328190Y-79687009D02*
X160328190Y-80210819D01*
X159423428Y-79544152D02*
X159423428Y-80353676D01*
X159423428Y-80353676D02*
X159471047Y-80448914D01*
X159471047Y-80448914D02*
X159518666Y-80496533D01*
X159518666Y-80496533D02*
X159613904Y-80544152D01*
X159613904Y-80544152D02*
X159756761Y-80544152D01*
X159756761Y-80544152D02*
X159851999Y-80496533D01*
X159423428Y-80163200D02*
X159518666Y-80210819D01*
X159518666Y-80210819D02*
X159709142Y-80210819D01*
X159709142Y-80210819D02*
X159804380Y-80163200D01*
X159804380Y-80163200D02*
X159851999Y-80115580D01*
X159851999Y-80115580D02*
X159899618Y-80020342D01*
X159899618Y-80020342D02*
X159899618Y-79734628D01*
X159899618Y-79734628D02*
X159851999Y-79639390D01*
X159851999Y-79639390D02*
X159804380Y-79591771D01*
X159804380Y-79591771D02*
X159709142Y-79544152D01*
X159709142Y-79544152D02*
X159518666Y-79544152D01*
X159518666Y-79544152D02*
X159423428Y-79591771D01*
X158185332Y-80210819D02*
X158185332Y-79210819D01*
X158185332Y-79687009D02*
X157613904Y-79687009D01*
X157613904Y-80210819D02*
X157613904Y-79210819D01*
X156994856Y-80210819D02*
X157090094Y-80163200D01*
X157090094Y-80163200D02*
X157137713Y-80115580D01*
X157137713Y-80115580D02*
X157185332Y-80020342D01*
X157185332Y-80020342D02*
X157185332Y-79734628D01*
X157185332Y-79734628D02*
X157137713Y-79639390D01*
X157137713Y-79639390D02*
X157090094Y-79591771D01*
X157090094Y-79591771D02*
X156994856Y-79544152D01*
X156994856Y-79544152D02*
X156851999Y-79544152D01*
X156851999Y-79544152D02*
X156756761Y-79591771D01*
X156756761Y-79591771D02*
X156709142Y-79639390D01*
X156709142Y-79639390D02*
X156661523Y-79734628D01*
X156661523Y-79734628D02*
X156661523Y-80020342D01*
X156661523Y-80020342D02*
X156709142Y-80115580D01*
X156709142Y-80115580D02*
X156756761Y-80163200D01*
X156756761Y-80163200D02*
X156851999Y-80210819D01*
X156851999Y-80210819D02*
X156994856Y-80210819D01*
X156090094Y-80210819D02*
X156185332Y-80163200D01*
X156185332Y-80163200D02*
X156232951Y-80067961D01*
X156232951Y-80067961D02*
X156232951Y-79210819D01*
X155328189Y-80163200D02*
X155423427Y-80210819D01*
X155423427Y-80210819D02*
X155613903Y-80210819D01*
X155613903Y-80210819D02*
X155709141Y-80163200D01*
X155709141Y-80163200D02*
X155756760Y-80067961D01*
X155756760Y-80067961D02*
X155756760Y-79687009D01*
X155756760Y-79687009D02*
X155709141Y-79591771D01*
X155709141Y-79591771D02*
X155613903Y-79544152D01*
X155613903Y-79544152D02*
X155423427Y-79544152D01*
X155423427Y-79544152D02*
X155328189Y-79591771D01*
X155328189Y-79591771D02*
X155280570Y-79687009D01*
X155280570Y-79687009D02*
X155280570Y-79782247D01*
X155280570Y-79782247D02*
X155756760Y-79877485D01*
X154899617Y-80163200D02*
X154804379Y-80210819D01*
X154804379Y-80210819D02*
X154613903Y-80210819D01*
X154613903Y-80210819D02*
X154518665Y-80163200D01*
X154518665Y-80163200D02*
X154471046Y-80067961D01*
X154471046Y-80067961D02*
X154471046Y-80020342D01*
X154471046Y-80020342D02*
X154518665Y-79925104D01*
X154518665Y-79925104D02*
X154613903Y-79877485D01*
X154613903Y-79877485D02*
X154756760Y-79877485D01*
X154756760Y-79877485D02*
X154851998Y-79829866D01*
X154851998Y-79829866D02*
X154899617Y-79734628D01*
X154899617Y-79734628D02*
X154899617Y-79687009D01*
X154899617Y-79687009D02*
X154851998Y-79591771D01*
X154851998Y-79591771D02*
X154756760Y-79544152D01*
X154756760Y-79544152D02*
X154613903Y-79544152D01*
X154613903Y-79544152D02*
X154518665Y-79591771D01*
X153280569Y-80210819D02*
X153280569Y-79210819D01*
X153280569Y-79210819D02*
X152947236Y-79925104D01*
X152947236Y-79925104D02*
X152613903Y-79210819D01*
X152613903Y-79210819D02*
X152613903Y-80210819D01*
X152232950Y-79210819D02*
X151613903Y-79210819D01*
X151613903Y-79210819D02*
X151947236Y-79591771D01*
X151947236Y-79591771D02*
X151804379Y-79591771D01*
X151804379Y-79591771D02*
X151709141Y-79639390D01*
X151709141Y-79639390D02*
X151661522Y-79687009D01*
X151661522Y-79687009D02*
X151613903Y-79782247D01*
X151613903Y-79782247D02*
X151613903Y-80020342D01*
X151613903Y-80020342D02*
X151661522Y-80115580D01*
X151661522Y-80115580D02*
X151709141Y-80163200D01*
X151709141Y-80163200D02*
X151804379Y-80210819D01*
X151804379Y-80210819D02*
X152090093Y-80210819D01*
X152090093Y-80210819D02*
X152185331Y-80163200D01*
X152185331Y-80163200D02*
X152232950Y-80115580D01*
X151185331Y-80115580D02*
X151137712Y-80163200D01*
X151137712Y-80163200D02*
X151185331Y-80210819D01*
X151185331Y-80210819D02*
X151232950Y-80163200D01*
X151232950Y-80163200D02*
X151185331Y-80115580D01*
X151185331Y-80115580D02*
X151185331Y-80210819D01*
X151185331Y-79591771D02*
X151137712Y-79639390D01*
X151137712Y-79639390D02*
X151185331Y-79687009D01*
X151185331Y-79687009D02*
X151232950Y-79639390D01*
X151232950Y-79639390D02*
X151185331Y-79591771D01*
X151185331Y-79591771D02*
X151185331Y-79687009D01*
X149947236Y-80210819D02*
X149947236Y-79210819D01*
X149947236Y-79210819D02*
X149613903Y-79925104D01*
X149613903Y-79925104D02*
X149280570Y-79210819D01*
X149280570Y-79210819D02*
X149280570Y-80210819D01*
X148375808Y-80210819D02*
X148375808Y-79687009D01*
X148375808Y-79687009D02*
X148423427Y-79591771D01*
X148423427Y-79591771D02*
X148518665Y-79544152D01*
X148518665Y-79544152D02*
X148709141Y-79544152D01*
X148709141Y-79544152D02*
X148804379Y-79591771D01*
X148375808Y-80163200D02*
X148471046Y-80210819D01*
X148471046Y-80210819D02*
X148709141Y-80210819D01*
X148709141Y-80210819D02*
X148804379Y-80163200D01*
X148804379Y-80163200D02*
X148851998Y-80067961D01*
X148851998Y-80067961D02*
X148851998Y-79972723D01*
X148851998Y-79972723D02*
X148804379Y-79877485D01*
X148804379Y-79877485D02*
X148709141Y-79829866D01*
X148709141Y-79829866D02*
X148471046Y-79829866D01*
X148471046Y-79829866D02*
X148375808Y-79782247D01*
X147899617Y-80210819D02*
X147899617Y-79544152D01*
X147899617Y-79210819D02*
X147947236Y-79258438D01*
X147947236Y-79258438D02*
X147899617Y-79306057D01*
X147899617Y-79306057D02*
X147851998Y-79258438D01*
X147851998Y-79258438D02*
X147899617Y-79210819D01*
X147899617Y-79210819D02*
X147899617Y-79306057D01*
X147423427Y-79544152D02*
X147423427Y-80210819D01*
X147423427Y-79639390D02*
X147375808Y-79591771D01*
X147375808Y-79591771D02*
X147280570Y-79544152D01*
X147280570Y-79544152D02*
X147137713Y-79544152D01*
X147137713Y-79544152D02*
X147042475Y-79591771D01*
X147042475Y-79591771D02*
X146994856Y-79687009D01*
X146994856Y-79687009D02*
X146994856Y-80210819D01*
X146518665Y-80115580D02*
X146471046Y-80163200D01*
X146471046Y-80163200D02*
X146518665Y-80210819D01*
X146518665Y-80210819D02*
X146566284Y-80163200D01*
X146566284Y-80163200D02*
X146518665Y-80115580D01*
X146518665Y-80115580D02*
X146518665Y-80210819D01*
X146518665Y-79591771D02*
X146471046Y-79639390D01*
X146471046Y-79639390D02*
X146518665Y-79687009D01*
X146518665Y-79687009D02*
X146566284Y-79639390D01*
X146566284Y-79639390D02*
X146518665Y-79591771D01*
X146518665Y-79591771D02*
X146518665Y-79687009D01*
X144756761Y-80210819D02*
X145328189Y-80210819D01*
X145042475Y-80210819D02*
X145042475Y-79210819D01*
X145042475Y-79210819D02*
X145137713Y-79353676D01*
X145137713Y-79353676D02*
X145232951Y-79448914D01*
X145232951Y-79448914D02*
X145328189Y-79496533D01*
X143851999Y-79210819D02*
X144328189Y-79210819D01*
X144328189Y-79210819D02*
X144375808Y-79687009D01*
X144375808Y-79687009D02*
X144328189Y-79639390D01*
X144328189Y-79639390D02*
X144232951Y-79591771D01*
X144232951Y-79591771D02*
X143994856Y-79591771D01*
X143994856Y-79591771D02*
X143899618Y-79639390D01*
X143899618Y-79639390D02*
X143851999Y-79687009D01*
X143851999Y-79687009D02*
X143804380Y-79782247D01*
X143804380Y-79782247D02*
X143804380Y-80020342D01*
X143804380Y-80020342D02*
X143851999Y-80115580D01*
X143851999Y-80115580D02*
X143899618Y-80163200D01*
X143899618Y-80163200D02*
X143994856Y-80210819D01*
X143994856Y-80210819D02*
X144232951Y-80210819D01*
X144232951Y-80210819D02*
X144328189Y-80163200D01*
X144328189Y-80163200D02*
X144375808Y-80115580D01*
X143232951Y-79639390D02*
X143328189Y-79591771D01*
X143328189Y-79591771D02*
X143375808Y-79544152D01*
X143375808Y-79544152D02*
X143423427Y-79448914D01*
X143423427Y-79448914D02*
X143423427Y-79401295D01*
X143423427Y-79401295D02*
X143375808Y-79306057D01*
X143375808Y-79306057D02*
X143328189Y-79258438D01*
X143328189Y-79258438D02*
X143232951Y-79210819D01*
X143232951Y-79210819D02*
X143042475Y-79210819D01*
X143042475Y-79210819D02*
X142947237Y-79258438D01*
X142947237Y-79258438D02*
X142899618Y-79306057D01*
X142899618Y-79306057D02*
X142851999Y-79401295D01*
X142851999Y-79401295D02*
X142851999Y-79448914D01*
X142851999Y-79448914D02*
X142899618Y-79544152D01*
X142899618Y-79544152D02*
X142947237Y-79591771D01*
X142947237Y-79591771D02*
X143042475Y-79639390D01*
X143042475Y-79639390D02*
X143232951Y-79639390D01*
X143232951Y-79639390D02*
X143328189Y-79687009D01*
X143328189Y-79687009D02*
X143375808Y-79734628D01*
X143375808Y-79734628D02*
X143423427Y-79829866D01*
X143423427Y-79829866D02*
X143423427Y-80020342D01*
X143423427Y-80020342D02*
X143375808Y-80115580D01*
X143375808Y-80115580D02*
X143328189Y-80163200D01*
X143328189Y-80163200D02*
X143232951Y-80210819D01*
X143232951Y-80210819D02*
X143042475Y-80210819D01*
X143042475Y-80210819D02*
X142947237Y-80163200D01*
X142947237Y-80163200D02*
X142899618Y-80115580D01*
X142899618Y-80115580D02*
X142851999Y-80020342D01*
X142851999Y-80020342D02*
X142851999Y-79829866D01*
X142851999Y-79829866D02*
X142899618Y-79734628D01*
X142899618Y-79734628D02*
X142947237Y-79687009D01*
X142947237Y-79687009D02*
X143042475Y-79639390D01*
X141756760Y-80210819D02*
X141232951Y-79544152D01*
X141756760Y-79544152D02*
X141232951Y-80210819D01*
X139566284Y-80210819D02*
X140137712Y-80210819D01*
X139851998Y-80210819D02*
X139851998Y-79210819D01*
X139851998Y-79210819D02*
X139947236Y-79353676D01*
X139947236Y-79353676D02*
X140042474Y-79448914D01*
X140042474Y-79448914D02*
X140137712Y-79496533D01*
X138947236Y-79210819D02*
X138851998Y-79210819D01*
X138851998Y-79210819D02*
X138756760Y-79258438D01*
X138756760Y-79258438D02*
X138709141Y-79306057D01*
X138709141Y-79306057D02*
X138661522Y-79401295D01*
X138661522Y-79401295D02*
X138613903Y-79591771D01*
X138613903Y-79591771D02*
X138613903Y-79829866D01*
X138613903Y-79829866D02*
X138661522Y-80020342D01*
X138661522Y-80020342D02*
X138709141Y-80115580D01*
X138709141Y-80115580D02*
X138756760Y-80163200D01*
X138756760Y-80163200D02*
X138851998Y-80210819D01*
X138851998Y-80210819D02*
X138947236Y-80210819D01*
X138947236Y-80210819D02*
X139042474Y-80163200D01*
X139042474Y-80163200D02*
X139090093Y-80115580D01*
X139090093Y-80115580D02*
X139137712Y-80020342D01*
X139137712Y-80020342D02*
X139185331Y-79829866D01*
X139185331Y-79829866D02*
X139185331Y-79591771D01*
X139185331Y-79591771D02*
X139137712Y-79401295D01*
X139137712Y-79401295D02*
X139090093Y-79306057D01*
X139090093Y-79306057D02*
X139042474Y-79258438D01*
X139042474Y-79258438D02*
X138947236Y-79210819D01*
X138232950Y-79306057D02*
X138185331Y-79258438D01*
X138185331Y-79258438D02*
X138090093Y-79210819D01*
X138090093Y-79210819D02*
X137851998Y-79210819D01*
X137851998Y-79210819D02*
X137756760Y-79258438D01*
X137756760Y-79258438D02*
X137709141Y-79306057D01*
X137709141Y-79306057D02*
X137661522Y-79401295D01*
X137661522Y-79401295D02*
X137661522Y-79496533D01*
X137661522Y-79496533D02*
X137709141Y-79639390D01*
X137709141Y-79639390D02*
X138280569Y-80210819D01*
X138280569Y-80210819D02*
X137661522Y-80210819D01*
X136471045Y-80210819D02*
X136471045Y-79544152D01*
X136471045Y-79639390D02*
X136423426Y-79591771D01*
X136423426Y-79591771D02*
X136328188Y-79544152D01*
X136328188Y-79544152D02*
X136185331Y-79544152D01*
X136185331Y-79544152D02*
X136090093Y-79591771D01*
X136090093Y-79591771D02*
X136042474Y-79687009D01*
X136042474Y-79687009D02*
X136042474Y-80210819D01*
X136042474Y-79687009D02*
X135994855Y-79591771D01*
X135994855Y-79591771D02*
X135899617Y-79544152D01*
X135899617Y-79544152D02*
X135756760Y-79544152D01*
X135756760Y-79544152D02*
X135661521Y-79591771D01*
X135661521Y-79591771D02*
X135613902Y-79687009D01*
X135613902Y-79687009D02*
X135613902Y-80210819D01*
X135137712Y-80210819D02*
X135137712Y-79544152D01*
X135137712Y-79639390D02*
X135090093Y-79591771D01*
X135090093Y-79591771D02*
X134994855Y-79544152D01*
X134994855Y-79544152D02*
X134851998Y-79544152D01*
X134851998Y-79544152D02*
X134756760Y-79591771D01*
X134756760Y-79591771D02*
X134709141Y-79687009D01*
X134709141Y-79687009D02*
X134709141Y-80210819D01*
X134709141Y-79687009D02*
X134661522Y-79591771D01*
X134661522Y-79591771D02*
X134566284Y-79544152D01*
X134566284Y-79544152D02*
X134423427Y-79544152D01*
X134423427Y-79544152D02*
X134328188Y-79591771D01*
X134328188Y-79591771D02*
X134280569Y-79687009D01*
X134280569Y-79687009D02*
X134280569Y-80210819D01*
X133804379Y-80115580D02*
X133756760Y-80163200D01*
X133756760Y-80163200D02*
X133804379Y-80210819D01*
X133804379Y-80210819D02*
X133851998Y-80163200D01*
X133851998Y-80163200D02*
X133804379Y-80115580D01*
X133804379Y-80115580D02*
X133804379Y-80210819D01*
D10*
X162450287Y-66718328D02*
X162450287Y-65218328D01*
X162450287Y-65218328D02*
X162093144Y-65218328D01*
X162093144Y-65218328D02*
X161878858Y-65289757D01*
X161878858Y-65289757D02*
X161736001Y-65432614D01*
X161736001Y-65432614D02*
X161664572Y-65575471D01*
X161664572Y-65575471D02*
X161593144Y-65861185D01*
X161593144Y-65861185D02*
X161593144Y-66075471D01*
X161593144Y-66075471D02*
X161664572Y-66361185D01*
X161664572Y-66361185D02*
X161736001Y-66504042D01*
X161736001Y-66504042D02*
X161878858Y-66646900D01*
X161878858Y-66646900D02*
X162093144Y-66718328D01*
X162093144Y-66718328D02*
X162450287Y-66718328D01*
X160378858Y-66646900D02*
X160521715Y-66718328D01*
X160521715Y-66718328D02*
X160807430Y-66718328D01*
X160807430Y-66718328D02*
X160950287Y-66646900D01*
X160950287Y-66646900D02*
X161021715Y-66504042D01*
X161021715Y-66504042D02*
X161021715Y-65932614D01*
X161021715Y-65932614D02*
X160950287Y-65789757D01*
X160950287Y-65789757D02*
X160807430Y-65718328D01*
X160807430Y-65718328D02*
X160521715Y-65718328D01*
X160521715Y-65718328D02*
X160378858Y-65789757D01*
X160378858Y-65789757D02*
X160307430Y-65932614D01*
X160307430Y-65932614D02*
X160307430Y-66075471D01*
X160307430Y-66075471D02*
X161021715Y-66218328D01*
X159736001Y-66646900D02*
X159593144Y-66718328D01*
X159593144Y-66718328D02*
X159307430Y-66718328D01*
X159307430Y-66718328D02*
X159164573Y-66646900D01*
X159164573Y-66646900D02*
X159093144Y-66504042D01*
X159093144Y-66504042D02*
X159093144Y-66432614D01*
X159093144Y-66432614D02*
X159164573Y-66289757D01*
X159164573Y-66289757D02*
X159307430Y-66218328D01*
X159307430Y-66218328D02*
X159521716Y-66218328D01*
X159521716Y-66218328D02*
X159664573Y-66146900D01*
X159664573Y-66146900D02*
X159736001Y-66004042D01*
X159736001Y-66004042D02*
X159736001Y-65932614D01*
X159736001Y-65932614D02*
X159664573Y-65789757D01*
X159664573Y-65789757D02*
X159521716Y-65718328D01*
X159521716Y-65718328D02*
X159307430Y-65718328D01*
X159307430Y-65718328D02*
X159164573Y-65789757D01*
X158450287Y-66718328D02*
X158450287Y-65718328D01*
X158450287Y-65218328D02*
X158521715Y-65289757D01*
X158521715Y-65289757D02*
X158450287Y-65361185D01*
X158450287Y-65361185D02*
X158378858Y-65289757D01*
X158378858Y-65289757D02*
X158450287Y-65218328D01*
X158450287Y-65218328D02*
X158450287Y-65361185D01*
X157093144Y-65718328D02*
X157093144Y-66932614D01*
X157093144Y-66932614D02*
X157164572Y-67075471D01*
X157164572Y-67075471D02*
X157236001Y-67146900D01*
X157236001Y-67146900D02*
X157378858Y-67218328D01*
X157378858Y-67218328D02*
X157593144Y-67218328D01*
X157593144Y-67218328D02*
X157736001Y-67146900D01*
X157093144Y-66646900D02*
X157236001Y-66718328D01*
X157236001Y-66718328D02*
X157521715Y-66718328D01*
X157521715Y-66718328D02*
X157664572Y-66646900D01*
X157664572Y-66646900D02*
X157736001Y-66575471D01*
X157736001Y-66575471D02*
X157807429Y-66432614D01*
X157807429Y-66432614D02*
X157807429Y-66004042D01*
X157807429Y-66004042D02*
X157736001Y-65861185D01*
X157736001Y-65861185D02*
X157664572Y-65789757D01*
X157664572Y-65789757D02*
X157521715Y-65718328D01*
X157521715Y-65718328D02*
X157236001Y-65718328D01*
X157236001Y-65718328D02*
X157093144Y-65789757D01*
X156378858Y-65718328D02*
X156378858Y-66718328D01*
X156378858Y-65861185D02*
X156307429Y-65789757D01*
X156307429Y-65789757D02*
X156164572Y-65718328D01*
X156164572Y-65718328D02*
X155950286Y-65718328D01*
X155950286Y-65718328D02*
X155807429Y-65789757D01*
X155807429Y-65789757D02*
X155736001Y-65932614D01*
X155736001Y-65932614D02*
X155736001Y-66718328D01*
X154450286Y-66646900D02*
X154593143Y-66718328D01*
X154593143Y-66718328D02*
X154878858Y-66718328D01*
X154878858Y-66718328D02*
X155021715Y-66646900D01*
X155021715Y-66646900D02*
X155093143Y-66504042D01*
X155093143Y-66504042D02*
X155093143Y-65932614D01*
X155093143Y-65932614D02*
X155021715Y-65789757D01*
X155021715Y-65789757D02*
X154878858Y-65718328D01*
X154878858Y-65718328D02*
X154593143Y-65718328D01*
X154593143Y-65718328D02*
X154450286Y-65789757D01*
X154450286Y-65789757D02*
X154378858Y-65932614D01*
X154378858Y-65932614D02*
X154378858Y-66075471D01*
X154378858Y-66075471D02*
X155093143Y-66218328D01*
X153093144Y-66718328D02*
X153093144Y-65218328D01*
X153093144Y-66646900D02*
X153236001Y-66718328D01*
X153236001Y-66718328D02*
X153521715Y-66718328D01*
X153521715Y-66718328D02*
X153664572Y-66646900D01*
X153664572Y-66646900D02*
X153736001Y-66575471D01*
X153736001Y-66575471D02*
X153807429Y-66432614D01*
X153807429Y-66432614D02*
X153807429Y-66004042D01*
X153807429Y-66004042D02*
X153736001Y-65861185D01*
X153736001Y-65861185D02*
X153664572Y-65789757D01*
X153664572Y-65789757D02*
X153521715Y-65718328D01*
X153521715Y-65718328D02*
X153236001Y-65718328D01*
X153236001Y-65718328D02*
X153093144Y-65789757D01*
X151236001Y-66718328D02*
X151236001Y-65718328D01*
X151236001Y-65218328D02*
X151307429Y-65289757D01*
X151307429Y-65289757D02*
X151236001Y-65361185D01*
X151236001Y-65361185D02*
X151164572Y-65289757D01*
X151164572Y-65289757D02*
X151236001Y-65218328D01*
X151236001Y-65218328D02*
X151236001Y-65361185D01*
X150521715Y-65718328D02*
X150521715Y-66718328D01*
X150521715Y-65861185D02*
X150450286Y-65789757D01*
X150450286Y-65789757D02*
X150307429Y-65718328D01*
X150307429Y-65718328D02*
X150093143Y-65718328D01*
X150093143Y-65718328D02*
X149950286Y-65789757D01*
X149950286Y-65789757D02*
X149878858Y-65932614D01*
X149878858Y-65932614D02*
X149878858Y-66718328D01*
X147164572Y-66575471D02*
X147236000Y-66646900D01*
X147236000Y-66646900D02*
X147450286Y-66718328D01*
X147450286Y-66718328D02*
X147593143Y-66718328D01*
X147593143Y-66718328D02*
X147807429Y-66646900D01*
X147807429Y-66646900D02*
X147950286Y-66504042D01*
X147950286Y-66504042D02*
X148021715Y-66361185D01*
X148021715Y-66361185D02*
X148093143Y-66075471D01*
X148093143Y-66075471D02*
X148093143Y-65861185D01*
X148093143Y-65861185D02*
X148021715Y-65575471D01*
X148021715Y-65575471D02*
X147950286Y-65432614D01*
X147950286Y-65432614D02*
X147807429Y-65289757D01*
X147807429Y-65289757D02*
X147593143Y-65218328D01*
X147593143Y-65218328D02*
X147450286Y-65218328D01*
X147450286Y-65218328D02*
X147236000Y-65289757D01*
X147236000Y-65289757D02*
X147164572Y-65361185D01*
X145878858Y-66718328D02*
X145878858Y-65932614D01*
X145878858Y-65932614D02*
X145950286Y-65789757D01*
X145950286Y-65789757D02*
X146093143Y-65718328D01*
X146093143Y-65718328D02*
X146378858Y-65718328D01*
X146378858Y-65718328D02*
X146521715Y-65789757D01*
X145878858Y-66646900D02*
X146021715Y-66718328D01*
X146021715Y-66718328D02*
X146378858Y-66718328D01*
X146378858Y-66718328D02*
X146521715Y-66646900D01*
X146521715Y-66646900D02*
X146593143Y-66504042D01*
X146593143Y-66504042D02*
X146593143Y-66361185D01*
X146593143Y-66361185D02*
X146521715Y-66218328D01*
X146521715Y-66218328D02*
X146378858Y-66146900D01*
X146378858Y-66146900D02*
X146021715Y-66146900D01*
X146021715Y-66146900D02*
X145878858Y-66075471D01*
X145164572Y-65718328D02*
X145164572Y-66718328D01*
X145164572Y-65861185D02*
X145093143Y-65789757D01*
X145093143Y-65789757D02*
X144950286Y-65718328D01*
X144950286Y-65718328D02*
X144736000Y-65718328D01*
X144736000Y-65718328D02*
X144593143Y-65789757D01*
X144593143Y-65789757D02*
X144521715Y-65932614D01*
X144521715Y-65932614D02*
X144521715Y-66718328D01*
X143164572Y-66718328D02*
X143164572Y-65932614D01*
X143164572Y-65932614D02*
X143236000Y-65789757D01*
X143236000Y-65789757D02*
X143378857Y-65718328D01*
X143378857Y-65718328D02*
X143664572Y-65718328D01*
X143664572Y-65718328D02*
X143807429Y-65789757D01*
X143164572Y-66646900D02*
X143307429Y-66718328D01*
X143307429Y-66718328D02*
X143664572Y-66718328D01*
X143664572Y-66718328D02*
X143807429Y-66646900D01*
X143807429Y-66646900D02*
X143878857Y-66504042D01*
X143878857Y-66504042D02*
X143878857Y-66361185D01*
X143878857Y-66361185D02*
X143807429Y-66218328D01*
X143807429Y-66218328D02*
X143664572Y-66146900D01*
X143664572Y-66146900D02*
X143307429Y-66146900D01*
X143307429Y-66146900D02*
X143164572Y-66075471D01*
X141807429Y-66718328D02*
X141807429Y-65218328D01*
X141807429Y-66646900D02*
X141950286Y-66718328D01*
X141950286Y-66718328D02*
X142236000Y-66718328D01*
X142236000Y-66718328D02*
X142378857Y-66646900D01*
X142378857Y-66646900D02*
X142450286Y-66575471D01*
X142450286Y-66575471D02*
X142521714Y-66432614D01*
X142521714Y-66432614D02*
X142521714Y-66004042D01*
X142521714Y-66004042D02*
X142450286Y-65861185D01*
X142450286Y-65861185D02*
X142378857Y-65789757D01*
X142378857Y-65789757D02*
X142236000Y-65718328D01*
X142236000Y-65718328D02*
X141950286Y-65718328D01*
X141950286Y-65718328D02*
X141807429Y-65789757D01*
X140450286Y-66718328D02*
X140450286Y-65932614D01*
X140450286Y-65932614D02*
X140521714Y-65789757D01*
X140521714Y-65789757D02*
X140664571Y-65718328D01*
X140664571Y-65718328D02*
X140950286Y-65718328D01*
X140950286Y-65718328D02*
X141093143Y-65789757D01*
X140450286Y-66646900D02*
X140593143Y-66718328D01*
X140593143Y-66718328D02*
X140950286Y-66718328D01*
X140950286Y-66718328D02*
X141093143Y-66646900D01*
X141093143Y-66646900D02*
X141164571Y-66504042D01*
X141164571Y-66504042D02*
X141164571Y-66361185D01*
X141164571Y-66361185D02*
X141093143Y-66218328D01*
X141093143Y-66218328D02*
X140950286Y-66146900D01*
X140950286Y-66146900D02*
X140593143Y-66146900D01*
X140593143Y-66146900D02*
X140450286Y-66075471D01*
X139736000Y-66575471D02*
X139664571Y-66646900D01*
X139664571Y-66646900D02*
X139736000Y-66718328D01*
X139736000Y-66718328D02*
X139807428Y-66646900D01*
X139807428Y-66646900D02*
X139736000Y-66575471D01*
X139736000Y-66575471D02*
X139736000Y-66718328D01*
X137878857Y-66718328D02*
X137878857Y-65218328D01*
X137878857Y-65218328D02*
X137378857Y-66289757D01*
X137378857Y-66289757D02*
X136878857Y-65218328D01*
X136878857Y-65218328D02*
X136878857Y-66718328D01*
X135521714Y-66718328D02*
X135521714Y-65932614D01*
X135521714Y-65932614D02*
X135593142Y-65789757D01*
X135593142Y-65789757D02*
X135735999Y-65718328D01*
X135735999Y-65718328D02*
X136021714Y-65718328D01*
X136021714Y-65718328D02*
X136164571Y-65789757D01*
X135521714Y-66646900D02*
X135664571Y-66718328D01*
X135664571Y-66718328D02*
X136021714Y-66718328D01*
X136021714Y-66718328D02*
X136164571Y-66646900D01*
X136164571Y-66646900D02*
X136235999Y-66504042D01*
X136235999Y-66504042D02*
X136235999Y-66361185D01*
X136235999Y-66361185D02*
X136164571Y-66218328D01*
X136164571Y-66218328D02*
X136021714Y-66146900D01*
X136021714Y-66146900D02*
X135664571Y-66146900D01*
X135664571Y-66146900D02*
X135521714Y-66075471D01*
X134164571Y-66718328D02*
X134164571Y-65218328D01*
X134164571Y-66646900D02*
X134307428Y-66718328D01*
X134307428Y-66718328D02*
X134593142Y-66718328D01*
X134593142Y-66718328D02*
X134735999Y-66646900D01*
X134735999Y-66646900D02*
X134807428Y-66575471D01*
X134807428Y-66575471D02*
X134878856Y-66432614D01*
X134878856Y-66432614D02*
X134878856Y-66004042D01*
X134878856Y-66004042D02*
X134807428Y-65861185D01*
X134807428Y-65861185D02*
X134735999Y-65789757D01*
X134735999Y-65789757D02*
X134593142Y-65718328D01*
X134593142Y-65718328D02*
X134307428Y-65718328D01*
X134307428Y-65718328D02*
X134164571Y-65789757D01*
X132878856Y-66646900D02*
X133021713Y-66718328D01*
X133021713Y-66718328D02*
X133307428Y-66718328D01*
X133307428Y-66718328D02*
X133450285Y-66646900D01*
X133450285Y-66646900D02*
X133521713Y-66504042D01*
X133521713Y-66504042D02*
X133521713Y-65932614D01*
X133521713Y-65932614D02*
X133450285Y-65789757D01*
X133450285Y-65789757D02*
X133307428Y-65718328D01*
X133307428Y-65718328D02*
X133021713Y-65718328D01*
X133021713Y-65718328D02*
X132878856Y-65789757D01*
X132878856Y-65789757D02*
X132807428Y-65932614D01*
X132807428Y-65932614D02*
X132807428Y-66075471D01*
X132807428Y-66075471D02*
X133521713Y-66218328D01*
X131021714Y-66718328D02*
X131021714Y-65718328D01*
X131021714Y-65218328D02*
X131093142Y-65289757D01*
X131093142Y-65289757D02*
X131021714Y-65361185D01*
X131021714Y-65361185D02*
X130950285Y-65289757D01*
X130950285Y-65289757D02*
X131021714Y-65218328D01*
X131021714Y-65218328D02*
X131021714Y-65361185D01*
X130307428Y-65718328D02*
X130307428Y-66718328D01*
X130307428Y-65861185D02*
X130235999Y-65789757D01*
X130235999Y-65789757D02*
X130093142Y-65718328D01*
X130093142Y-65718328D02*
X129878856Y-65718328D01*
X129878856Y-65718328D02*
X129735999Y-65789757D01*
X129735999Y-65789757D02*
X129664571Y-65932614D01*
X129664571Y-65932614D02*
X129664571Y-66718328D01*
X126950285Y-66575471D02*
X127021713Y-66646900D01*
X127021713Y-66646900D02*
X127235999Y-66718328D01*
X127235999Y-66718328D02*
X127378856Y-66718328D01*
X127378856Y-66718328D02*
X127593142Y-66646900D01*
X127593142Y-66646900D02*
X127735999Y-66504042D01*
X127735999Y-66504042D02*
X127807428Y-66361185D01*
X127807428Y-66361185D02*
X127878856Y-66075471D01*
X127878856Y-66075471D02*
X127878856Y-65861185D01*
X127878856Y-65861185D02*
X127807428Y-65575471D01*
X127807428Y-65575471D02*
X127735999Y-65432614D01*
X127735999Y-65432614D02*
X127593142Y-65289757D01*
X127593142Y-65289757D02*
X127378856Y-65218328D01*
X127378856Y-65218328D02*
X127235999Y-65218328D01*
X127235999Y-65218328D02*
X127021713Y-65289757D01*
X127021713Y-65289757D02*
X126950285Y-65361185D01*
X126307428Y-66718328D02*
X126307428Y-65218328D01*
X125664571Y-66718328D02*
X125664571Y-65932614D01*
X125664571Y-65932614D02*
X125735999Y-65789757D01*
X125735999Y-65789757D02*
X125878856Y-65718328D01*
X125878856Y-65718328D02*
X126093142Y-65718328D01*
X126093142Y-65718328D02*
X126235999Y-65789757D01*
X126235999Y-65789757D02*
X126307428Y-65861185D01*
X124950285Y-66718328D02*
X124950285Y-65718328D01*
X124950285Y-65218328D02*
X125021713Y-65289757D01*
X125021713Y-65289757D02*
X124950285Y-65361185D01*
X124950285Y-65361185D02*
X124878856Y-65289757D01*
X124878856Y-65289757D02*
X124950285Y-65218328D01*
X124950285Y-65218328D02*
X124950285Y-65361185D01*
X124235999Y-65718328D02*
X124235999Y-66718328D01*
X124235999Y-65861185D02*
X124164570Y-65789757D01*
X124164570Y-65789757D02*
X124021713Y-65718328D01*
X124021713Y-65718328D02*
X123807427Y-65718328D01*
X123807427Y-65718328D02*
X123664570Y-65789757D01*
X123664570Y-65789757D02*
X123593142Y-65932614D01*
X123593142Y-65932614D02*
X123593142Y-66718328D01*
X122235999Y-66718328D02*
X122235999Y-65932614D01*
X122235999Y-65932614D02*
X122307427Y-65789757D01*
X122307427Y-65789757D02*
X122450284Y-65718328D01*
X122450284Y-65718328D02*
X122735999Y-65718328D01*
X122735999Y-65718328D02*
X122878856Y-65789757D01*
X122235999Y-66646900D02*
X122378856Y-66718328D01*
X122378856Y-66718328D02*
X122735999Y-66718328D01*
X122735999Y-66718328D02*
X122878856Y-66646900D01*
X122878856Y-66646900D02*
X122950284Y-66504042D01*
X122950284Y-66504042D02*
X122950284Y-66361185D01*
X122950284Y-66361185D02*
X122878856Y-66218328D01*
X122878856Y-66218328D02*
X122735999Y-66146900D01*
X122735999Y-66146900D02*
X122378856Y-66146900D01*
X122378856Y-66146900D02*
X122235999Y-66075471D01*
X121521713Y-66575471D02*
X121450284Y-66646900D01*
X121450284Y-66646900D02*
X121521713Y-66718328D01*
X121521713Y-66718328D02*
X121593141Y-66646900D01*
X121593141Y-66646900D02*
X121521713Y-66575471D01*
X121521713Y-66575471D02*
X121521713Y-66718328D01*
X138176000Y-88392002D02*
X138321143Y-88319431D01*
X138321143Y-88319431D02*
X138538857Y-88319431D01*
X138538857Y-88319431D02*
X138756571Y-88392002D01*
X138756571Y-88392002D02*
X138901714Y-88537145D01*
X138901714Y-88537145D02*
X138974285Y-88682288D01*
X138974285Y-88682288D02*
X139046857Y-88972574D01*
X139046857Y-88972574D02*
X139046857Y-89190288D01*
X139046857Y-89190288D02*
X138974285Y-89480574D01*
X138974285Y-89480574D02*
X138901714Y-89625717D01*
X138901714Y-89625717D02*
X138756571Y-89770860D01*
X138756571Y-89770860D02*
X138538857Y-89843431D01*
X138538857Y-89843431D02*
X138393714Y-89843431D01*
X138393714Y-89843431D02*
X138176000Y-89770860D01*
X138176000Y-89770860D02*
X138103428Y-89698288D01*
X138103428Y-89698288D02*
X138103428Y-89190288D01*
X138103428Y-89190288D02*
X138393714Y-89190288D01*
X136652000Y-89843431D02*
X137522857Y-89843431D01*
X137087428Y-89843431D02*
X137087428Y-88319431D01*
X137087428Y-88319431D02*
X137232571Y-88537145D01*
X137232571Y-88537145D02*
X137377714Y-88682288D01*
X137377714Y-88682288D02*
X137522857Y-88754860D01*
X135200571Y-89843431D02*
X136071428Y-89843431D01*
X135635999Y-89843431D02*
X135635999Y-88319431D01*
X135635999Y-88319431D02*
X135781142Y-88537145D01*
X135781142Y-88537145D02*
X135926285Y-88682288D01*
X135926285Y-88682288D02*
X136071428Y-88754860D01*
X133749142Y-89843431D02*
X134619999Y-89843431D01*
X134184570Y-89843431D02*
X134184570Y-88319431D01*
X134184570Y-88319431D02*
X134329713Y-88537145D01*
X134329713Y-88537145D02*
X134474856Y-88682288D01*
X134474856Y-88682288D02*
X134619999Y-88754860D01*
%TO.C,G222*%
G36*
X164658133Y-58635186D02*
G01*
X164688287Y-58673888D01*
X164706948Y-58752038D01*
X164687204Y-58828591D01*
X164631292Y-58882905D01*
X164568303Y-58899777D01*
X164493594Y-58882805D01*
X164439004Y-58832061D01*
X164415847Y-58759448D01*
X164435439Y-58676870D01*
X164444066Y-58662738D01*
X164507001Y-58611655D01*
X164585176Y-58601194D01*
X164658133Y-58635186D01*
G37*
G36*
X158881238Y-52746422D02*
G01*
X158891199Y-52758762D01*
X158912091Y-52827322D01*
X158904972Y-52907368D01*
X158871082Y-52971401D01*
X158822218Y-53004162D01*
X158744783Y-53007435D01*
X158667976Y-52959684D01*
X158630736Y-52911726D01*
X158617426Y-52838006D01*
X158658543Y-52763613D01*
X158669332Y-52753220D01*
X158738996Y-52720215D01*
X158818373Y-52717274D01*
X158881238Y-52746422D01*
G37*
G36*
X158856818Y-64414295D02*
G01*
X158880437Y-64431743D01*
X158915788Y-64497471D01*
X158916582Y-64578747D01*
X158880760Y-64654894D01*
X158853331Y-64676912D01*
X158783725Y-64690377D01*
X158709027Y-64670154D01*
X158651057Y-64619597D01*
X158646156Y-64611679D01*
X158625205Y-64533607D01*
X158646751Y-64463901D01*
X158699840Y-64413493D01*
X158773514Y-64393314D01*
X158856818Y-64414295D01*
G37*
G36*
X152894351Y-58594215D02*
G01*
X152959308Y-58628667D01*
X153013199Y-58688830D01*
X153035683Y-58754071D01*
X153028036Y-58791654D01*
X152992719Y-58849765D01*
X152979428Y-58860883D01*
X152908698Y-58888063D01*
X152828969Y-58888156D01*
X152767739Y-58859921D01*
X152744671Y-58824605D01*
X152736422Y-58750612D01*
X152760522Y-58674829D01*
X152809498Y-58615777D01*
X152875873Y-58591977D01*
X152894351Y-58594215D01*
G37*
G36*
X161620827Y-58386915D02*
G01*
X161686893Y-58457240D01*
X160813278Y-59331174D01*
X160667784Y-59476500D01*
X160496861Y-59646629D01*
X160340930Y-59801182D01*
X160203924Y-59936296D01*
X160089772Y-60048108D01*
X160002407Y-60132756D01*
X159945761Y-60186377D01*
X159923763Y-60205109D01*
X159923385Y-60205093D01*
X159894734Y-60186289D01*
X159849192Y-60142656D01*
X159790521Y-60080204D01*
X160672641Y-59198397D01*
X161554760Y-58316591D01*
X161620827Y-58386915D01*
G37*
G36*
X163800647Y-59529012D02*
G01*
X163875791Y-59604155D01*
X161811940Y-61668141D01*
X161532765Y-61947191D01*
X161264384Y-62215166D01*
X161009362Y-62469526D01*
X160770224Y-62707760D01*
X160549499Y-62927361D01*
X160349714Y-63125820D01*
X160173397Y-63300629D01*
X160023074Y-63449279D01*
X159901274Y-63569263D01*
X159810524Y-63658071D01*
X159753351Y-63713195D01*
X159732282Y-63732127D01*
X159730207Y-63731726D01*
X159699014Y-63709186D01*
X159651269Y-63662719D01*
X159586063Y-63593310D01*
X161655784Y-61523590D01*
X163725504Y-59453869D01*
X163800647Y-59529012D01*
G37*
G36*
X155898898Y-61523590D02*
G01*
X157968619Y-63593310D01*
X157903413Y-63662719D01*
X157896314Y-63670179D01*
X157849856Y-63714166D01*
X157822399Y-63732127D01*
X157801336Y-63713200D01*
X157744167Y-63658080D01*
X157653421Y-63569276D01*
X157531624Y-63449296D01*
X157381305Y-63300649D01*
X157204991Y-63125843D01*
X157005209Y-62927387D01*
X156784486Y-62707788D01*
X156545351Y-62469556D01*
X156290330Y-62215199D01*
X156021951Y-61947224D01*
X155742742Y-61668141D01*
X153678891Y-59604155D01*
X153754035Y-59529012D01*
X153829178Y-59453869D01*
X155898898Y-61523590D01*
G37*
G36*
X155960861Y-59917693D02*
G01*
X158077942Y-62034905D01*
X158012757Y-62104291D01*
X158005676Y-62111732D01*
X157959223Y-62155716D01*
X157931766Y-62173677D01*
X157931075Y-62173290D01*
X157904754Y-62149070D01*
X157842651Y-62088980D01*
X157747265Y-61995500D01*
X157621091Y-61871108D01*
X157466628Y-61718285D01*
X157286374Y-61539508D01*
X157082825Y-61337257D01*
X156858478Y-61114011D01*
X156615832Y-60872249D01*
X156357384Y-60614450D01*
X156085632Y-60343093D01*
X155803072Y-60060657D01*
X153690183Y-57947637D01*
X153766982Y-57874058D01*
X153843781Y-57800480D01*
X155960861Y-59917693D01*
G37*
G36*
X160197966Y-54226148D02*
G01*
X160198115Y-54226295D01*
X160250525Y-54277540D01*
X160338383Y-54363201D01*
X160457956Y-54479651D01*
X160605512Y-54623262D01*
X160777319Y-54790407D01*
X160969644Y-54977460D01*
X161178755Y-55180793D01*
X161400919Y-55396780D01*
X161632404Y-55621792D01*
X161869478Y-55852204D01*
X162108408Y-56084389D01*
X162345462Y-56314718D01*
X162576908Y-56539566D01*
X162799012Y-56755305D01*
X163008043Y-56958308D01*
X163200268Y-57144948D01*
X163371955Y-57311599D01*
X163519371Y-57454632D01*
X163638785Y-57570422D01*
X163726463Y-57655340D01*
X163778673Y-57705761D01*
X163793182Y-57719860D01*
X163840519Y-57772317D01*
X163852722Y-57807479D01*
X163835881Y-57839595D01*
X163814296Y-57878292D01*
X163831814Y-57915729D01*
X163832155Y-57920561D01*
X163819093Y-57942909D01*
X163786675Y-57983683D01*
X163733400Y-58044423D01*
X163657765Y-58126670D01*
X163558269Y-58231965D01*
X163433410Y-58361849D01*
X163281688Y-58517861D01*
X163101599Y-58701543D01*
X162891643Y-58914435D01*
X162650318Y-59158079D01*
X162376121Y-59434014D01*
X162067553Y-59743781D01*
X161723111Y-60088921D01*
X161341292Y-60470975D01*
X161257448Y-60554814D01*
X160950904Y-60861190D01*
X160655611Y-61156091D01*
X160373850Y-61437248D01*
X160107905Y-61702394D01*
X159860057Y-61949259D01*
X159632590Y-62175576D01*
X159427784Y-62379077D01*
X159247923Y-62557493D01*
X159095289Y-62708556D01*
X158972164Y-62829998D01*
X158880831Y-62919550D01*
X158823571Y-62974945D01*
X158802668Y-62993914D01*
X158800598Y-62993514D01*
X158769419Y-62970983D01*
X158721683Y-62924523D01*
X158656494Y-62855132D01*
X163642236Y-57867434D01*
X161716640Y-55994972D01*
X159791044Y-54122509D01*
X159864075Y-54046282D01*
X159937105Y-53970054D01*
X160197966Y-54226148D01*
G37*
G36*
X157974307Y-53693930D02*
G01*
X158010171Y-53712804D01*
X158063678Y-53754224D01*
X158139940Y-53822363D01*
X158244068Y-53921392D01*
X158381176Y-54055483D01*
X158778312Y-54446768D01*
X158914737Y-54312395D01*
X159051163Y-54178021D01*
X159199478Y-54326336D01*
X159068289Y-54459527D01*
X158937101Y-54592718D01*
X159479234Y-55124261D01*
X159509819Y-55154238D01*
X159659890Y-55301120D01*
X159839425Y-55476573D01*
X160040540Y-55672906D01*
X160255350Y-55882430D01*
X160475973Y-56097453D01*
X160694525Y-56310285D01*
X160903121Y-56513236D01*
X161046654Y-56653049D01*
X161218952Y-56821558D01*
X161375514Y-56975426D01*
X161512415Y-57110756D01*
X161625727Y-57223648D01*
X161711526Y-57310205D01*
X161765884Y-57366528D01*
X161784876Y-57388720D01*
X161784508Y-57390925D01*
X161762097Y-57423475D01*
X161715626Y-57471829D01*
X161646376Y-57536886D01*
X161230319Y-57126321D01*
X161148909Y-57046038D01*
X160921715Y-56822493D01*
X160690195Y-56595371D01*
X160457681Y-56367896D01*
X160227508Y-56143291D01*
X160003007Y-55924779D01*
X159787512Y-55715583D01*
X159584357Y-55518927D01*
X159396873Y-55338034D01*
X159228395Y-55176128D01*
X159082255Y-55036431D01*
X158961787Y-54922167D01*
X158870323Y-54836559D01*
X158811197Y-54782831D01*
X158787741Y-54764205D01*
X158786668Y-54764619D01*
X158758164Y-54788876D01*
X158695219Y-54848018D01*
X158601322Y-54938551D01*
X158479963Y-55056982D01*
X158334634Y-55199817D01*
X158168823Y-55363563D01*
X157986022Y-55544726D01*
X157789721Y-55739812D01*
X157583408Y-55945329D01*
X157370576Y-56157782D01*
X157154713Y-56373678D01*
X156939310Y-56589523D01*
X156727858Y-56801825D01*
X156523846Y-57007089D01*
X156330764Y-57201821D01*
X156152103Y-57382530D01*
X155991352Y-57545720D01*
X155852003Y-57687898D01*
X155737544Y-57805572D01*
X155651467Y-57895246D01*
X155597262Y-57953429D01*
X155578417Y-57976625D01*
X155584783Y-57985429D01*
X155624747Y-58029474D01*
X155698956Y-58107544D01*
X155804560Y-58216742D01*
X155938712Y-58354170D01*
X156098562Y-58516932D01*
X156281264Y-58702129D01*
X156483967Y-58906864D01*
X156703824Y-59128241D01*
X156937986Y-59363362D01*
X157183605Y-59609329D01*
X158788794Y-61214690D01*
X158722630Y-61285118D01*
X158656467Y-61355545D01*
X157001939Y-59701018D01*
X156860391Y-59559400D01*
X156568897Y-59267204D01*
X156313933Y-59010736D01*
X156093778Y-58788206D01*
X155906709Y-58597824D01*
X155751003Y-58437800D01*
X155624938Y-58306345D01*
X155526791Y-58201669D01*
X155454840Y-58121984D01*
X155407361Y-58065499D01*
X155382632Y-58030424D01*
X155378932Y-58014972D01*
X155396525Y-57982856D01*
X155378426Y-57932172D01*
X155377630Y-57930757D01*
X155375991Y-57917841D01*
X155383013Y-57898093D01*
X155401012Y-57869075D01*
X155432307Y-57828347D01*
X155479216Y-57773470D01*
X155544059Y-57702008D01*
X155629152Y-57611520D01*
X155736815Y-57499568D01*
X155869366Y-57363713D01*
X156029122Y-57201517D01*
X156218403Y-57010541D01*
X156439527Y-56788346D01*
X156694811Y-56532494D01*
X156986575Y-56240546D01*
X158626750Y-54600201D01*
X157902376Y-53875827D01*
X156226830Y-55551207D01*
X154551284Y-57226588D01*
X154477706Y-57149789D01*
X154404128Y-57072991D01*
X156110402Y-55366881D01*
X156395935Y-55081535D01*
X156661006Y-54817067D01*
X156892116Y-54587082D01*
X157091596Y-54389353D01*
X157261776Y-54221653D01*
X157404988Y-54081757D01*
X157523563Y-53967437D01*
X157619831Y-53876469D01*
X157696124Y-53806624D01*
X157754773Y-53755678D01*
X157798109Y-53721405D01*
X157828463Y-53701576D01*
X157848166Y-53693968D01*
X157859549Y-53696352D01*
X157900015Y-53717876D01*
X157943230Y-53698066D01*
X157950975Y-53693431D01*
X157974307Y-53693930D01*
G37*
%TO.C,G111*%
G36*
X135372585Y-91635055D02*
G01*
X135420506Y-91669101D01*
X135468051Y-91741308D01*
X135481400Y-91825604D01*
X135461804Y-91910528D01*
X135410512Y-91984621D01*
X135328777Y-92036422D01*
X135272576Y-92043550D01*
X135191468Y-92021208D01*
X135116120Y-91968814D01*
X135110554Y-91963145D01*
X135064934Y-91887433D01*
X135057825Y-91807246D01*
X135082730Y-91731038D01*
X135133154Y-91667261D01*
X135202601Y-91624370D01*
X135284576Y-91610817D01*
X135372585Y-91635055D01*
G37*
G36*
X137192218Y-86162873D02*
G01*
X137366242Y-86170848D01*
X137420033Y-86173114D01*
X137525792Y-86176502D01*
X137594772Y-86175990D01*
X137634600Y-86170875D01*
X137652902Y-86160454D01*
X137657308Y-86144024D01*
X137665675Y-86110486D01*
X137696632Y-86061063D01*
X137722065Y-86039177D01*
X137786680Y-86019050D01*
X137850499Y-86034065D01*
X137899252Y-86078679D01*
X137918674Y-86147347D01*
X137921938Y-86174152D01*
X137946557Y-86201745D01*
X138006086Y-86218805D01*
X138009117Y-86219403D01*
X138092837Y-86253519D01*
X138172410Y-86314116D01*
X138212101Y-86358109D01*
X138243246Y-86417213D01*
X138251321Y-86490446D01*
X138251537Y-86518525D01*
X138251594Y-86525876D01*
X138258486Y-86569347D01*
X138284306Y-86585493D01*
X138341611Y-86587864D01*
X138357955Y-86588134D01*
X138435020Y-86602946D01*
X138476526Y-86644508D01*
X138488927Y-86718547D01*
X138488622Y-86733045D01*
X138471925Y-86801409D01*
X138425073Y-86838229D01*
X138341611Y-86849230D01*
X138288216Y-86852094D01*
X138257689Y-86867282D01*
X138256118Y-86873927D01*
X138249316Y-86902691D01*
X138247164Y-86934557D01*
X138240089Y-87007589D01*
X138230244Y-87092775D01*
X138224103Y-87152768D01*
X138222000Y-87208064D01*
X138226417Y-87229398D01*
X138239928Y-87217913D01*
X138284429Y-87175702D01*
X138356964Y-87105274D01*
X138454532Y-87009591D01*
X138574131Y-86891617D01*
X138712757Y-86754314D01*
X138867410Y-86600644D01*
X139035087Y-86433570D01*
X139212785Y-86256054D01*
X139321871Y-86146969D01*
X139511209Y-85957868D01*
X139671035Y-85798770D01*
X139803999Y-85667240D01*
X139912754Y-85560841D01*
X139999952Y-85477139D01*
X140068242Y-85413697D01*
X140120278Y-85368079D01*
X140158711Y-85337849D01*
X140186192Y-85320572D01*
X140205372Y-85313812D01*
X140218903Y-85315133D01*
X140229437Y-85322099D01*
X140229443Y-85322104D01*
X140237022Y-85331442D01*
X140239075Y-85343843D01*
X140233258Y-85361846D01*
X140217227Y-85387992D01*
X140188638Y-85424823D01*
X140145146Y-85474877D01*
X140084407Y-85540696D01*
X140004076Y-85624820D01*
X139901810Y-85729789D01*
X139775264Y-85858144D01*
X139622093Y-86012425D01*
X139439953Y-86195173D01*
X139226501Y-86408928D01*
X139195647Y-86439817D01*
X138975554Y-86660623D01*
X138787156Y-86850593D01*
X138628446Y-87011851D01*
X138497413Y-87146521D01*
X138392047Y-87256727D01*
X138310339Y-87344594D01*
X138250280Y-87412245D01*
X138209858Y-87461804D01*
X138187066Y-87495397D01*
X138179892Y-87515146D01*
X138179817Y-87517621D01*
X138176600Y-87558741D01*
X138175422Y-87571579D01*
X138168942Y-87642206D01*
X138157263Y-87763812D01*
X138141981Y-87919355D01*
X138123514Y-88104630D01*
X138102282Y-88315432D01*
X138078704Y-88547558D01*
X138053196Y-88796801D01*
X138026180Y-89058958D01*
X137872614Y-90543991D01*
X137943847Y-90615273D01*
X139072171Y-91744365D01*
X139282701Y-91955110D01*
X139483678Y-92156563D01*
X139655217Y-92328986D01*
X139799524Y-92474743D01*
X139918806Y-92596202D01*
X140015270Y-92695727D01*
X140091120Y-92775685D01*
X140148564Y-92838441D01*
X140189807Y-92886361D01*
X140217057Y-92921811D01*
X140232518Y-92947158D01*
X140238397Y-92964766D01*
X140236901Y-92977002D01*
X140230235Y-92986232D01*
X140224230Y-92991215D01*
X140213132Y-92994772D01*
X140197424Y-92991588D01*
X140174696Y-92979422D01*
X140142537Y-92956028D01*
X140098535Y-92919164D01*
X140040280Y-92866585D01*
X139965362Y-92796048D01*
X139871368Y-92705309D01*
X139755888Y-92592125D01*
X139616512Y-92454251D01*
X139450828Y-92289444D01*
X139256425Y-92095460D01*
X139030892Y-91870055D01*
X138904671Y-91743978D01*
X138716727Y-91556725D01*
X138540454Y-91381669D01*
X138378585Y-91221494D01*
X138233854Y-91078883D01*
X138108994Y-90956521D01*
X138006739Y-90857091D01*
X137929821Y-90783276D01*
X137880974Y-90737761D01*
X137862931Y-90723230D01*
X137860816Y-90730919D01*
X137853695Y-90778221D01*
X137843285Y-90862492D01*
X137830374Y-90976889D01*
X137815747Y-91114568D01*
X137800193Y-91268687D01*
X137792839Y-91341396D01*
X137776079Y-91494181D01*
X137759406Y-91630394D01*
X137743854Y-91742345D01*
X137730460Y-91822344D01*
X137720257Y-91862700D01*
X137719052Y-91865208D01*
X137676995Y-91916431D01*
X137616242Y-91957742D01*
X137607088Y-91962031D01*
X137568929Y-91983833D01*
X137548708Y-92011912D01*
X137540660Y-92060014D01*
X137539020Y-92141886D01*
X137538506Y-92290389D01*
X137229619Y-92290389D01*
X137229619Y-91981503D01*
X135718093Y-91981503D01*
X135645841Y-92084008D01*
X135578434Y-92160289D01*
X135461997Y-92236863D01*
X135329322Y-92274411D01*
X135189493Y-92270794D01*
X135051592Y-92223874D01*
X135018840Y-92205080D01*
X134917934Y-92115999D01*
X134850667Y-92003610D01*
X134819613Y-91881953D01*
X134986912Y-91881953D01*
X134995801Y-91909522D01*
X135030937Y-91971904D01*
X135079727Y-92033855D01*
X135130407Y-92081417D01*
X135171213Y-92100630D01*
X135193101Y-92102383D01*
X135245615Y-92111008D01*
X135315907Y-92114597D01*
X135406551Y-92085176D01*
X135481734Y-92023634D01*
X135534380Y-91938887D01*
X135557411Y-91839849D01*
X135543750Y-91735435D01*
X135514705Y-91672051D01*
X135444960Y-91594407D01*
X135356458Y-91549685D01*
X135259293Y-91538376D01*
X135163558Y-91560971D01*
X135079345Y-91617958D01*
X135016746Y-91709830D01*
X134989803Y-91791596D01*
X134986912Y-91881953D01*
X134819613Y-91881953D01*
X134818430Y-91877317D01*
X134822614Y-91746528D01*
X134864612Y-91620649D01*
X134945816Y-91509085D01*
X135031830Y-91423071D01*
X134998815Y-91066693D01*
X134992820Y-91003442D01*
X134980930Y-90886194D01*
X134970217Y-90790781D01*
X134961664Y-90725706D01*
X134956259Y-90699469D01*
X134947181Y-90706169D01*
X134907530Y-90742536D01*
X134838944Y-90808042D01*
X134744144Y-90900017D01*
X134625844Y-91015790D01*
X134486764Y-91152691D01*
X134329621Y-91308050D01*
X134157132Y-91479198D01*
X133972016Y-91663462D01*
X133776989Y-91858175D01*
X133607396Y-92027696D01*
X133403723Y-92231049D01*
X133229433Y-92404610D01*
X133082128Y-92550612D01*
X132959411Y-92671290D01*
X132858884Y-92768876D01*
X132778149Y-92845602D01*
X132714809Y-92903704D01*
X132666464Y-92945413D01*
X132630718Y-92972963D01*
X132605173Y-92988586D01*
X132587432Y-92994517D01*
X132575095Y-92992987D01*
X132565766Y-92986232D01*
X132559245Y-92977297D01*
X132557599Y-92965200D01*
X132563238Y-92947798D01*
X132578359Y-92922736D01*
X132605156Y-92887657D01*
X132645824Y-92840207D01*
X132702560Y-92778028D01*
X132777557Y-92698765D01*
X132873012Y-92600062D01*
X132991120Y-92479562D01*
X133134075Y-92334911D01*
X133304073Y-92163751D01*
X133503310Y-91963728D01*
X133733980Y-91732484D01*
X134872557Y-90591512D01*
X135040532Y-90591512D01*
X135052971Y-90698434D01*
X135059064Y-90753876D01*
X135069072Y-90850145D01*
X135080850Y-90967111D01*
X135092941Y-91090483D01*
X135120472Y-91375609D01*
X135266205Y-91375748D01*
X135342000Y-91378683D01*
X135427105Y-91395479D01*
X135501834Y-91431638D01*
X135601210Y-91514186D01*
X135682396Y-91634524D01*
X135723779Y-91773015D01*
X135732645Y-91839849D01*
X135738828Y-91886461D01*
X137610806Y-91886461D01*
X137633324Y-91832999D01*
X137638998Y-91810750D01*
X137650293Y-91743797D01*
X137664559Y-91641798D01*
X137680864Y-91511942D01*
X137698273Y-91361415D01*
X137715854Y-91197405D01*
X137775866Y-90615273D01*
X136398106Y-89237369D01*
X135719319Y-89914441D01*
X135040532Y-90591512D01*
X134872557Y-90591512D01*
X134943689Y-90520230D01*
X134793817Y-89082719D01*
X134792246Y-89067649D01*
X134765601Y-88812339D01*
X134740438Y-88571661D01*
X134717184Y-88349694D01*
X134696271Y-88150518D01*
X134678126Y-87978211D01*
X134663181Y-87836854D01*
X134651864Y-87730524D01*
X134644605Y-87663302D01*
X134641834Y-87639267D01*
X134620769Y-87636351D01*
X134564346Y-87634163D01*
X134485278Y-87633327D01*
X134330835Y-87633327D01*
X134330835Y-87594171D01*
X134742239Y-87594171D01*
X134743046Y-87613309D01*
X134748231Y-87675857D01*
X134757559Y-87777825D01*
X134770624Y-87915051D01*
X134787020Y-88083374D01*
X134806342Y-88278634D01*
X134828184Y-88496669D01*
X134852140Y-88733318D01*
X134877805Y-88984419D01*
X134900435Y-89205100D01*
X134924946Y-89444795D01*
X134947573Y-89666802D01*
X134967891Y-89866895D01*
X134985472Y-90040847D01*
X134999889Y-90184432D01*
X135010716Y-90293425D01*
X135017525Y-90363599D01*
X135019890Y-90390728D01*
X135020251Y-90395226D01*
X135037879Y-90413308D01*
X135038469Y-90413137D01*
X135061924Y-90393701D01*
X135114685Y-90344611D01*
X135192955Y-90269562D01*
X135292939Y-90172247D01*
X135410840Y-90056359D01*
X135542859Y-89925591D01*
X135685201Y-89783638D01*
X136314535Y-89153968D01*
X136481460Y-89153968D01*
X137122680Y-89795518D01*
X137147339Y-89820176D01*
X137289584Y-89961890D01*
X137420896Y-90091839D01*
X137537515Y-90206366D01*
X137635683Y-90301810D01*
X137711641Y-90374515D01*
X137761628Y-90420820D01*
X137781886Y-90437069D01*
X137792059Y-90428993D01*
X137799871Y-90391321D01*
X137799979Y-90387766D01*
X137803320Y-90343994D01*
X137810882Y-90260711D01*
X137822040Y-90144328D01*
X137836173Y-90001255D01*
X137852657Y-89837904D01*
X137870868Y-89660685D01*
X137883916Y-89534799D01*
X137909107Y-89291682D01*
X137936450Y-89027722D01*
X137964218Y-88759594D01*
X137990684Y-88503973D01*
X138014121Y-88277530D01*
X138019874Y-88221672D01*
X138037271Y-88049310D01*
X138052350Y-87894680D01*
X138064572Y-87763688D01*
X138073396Y-87662237D01*
X138078282Y-87596232D01*
X138078691Y-87571579D01*
X138061159Y-87586049D01*
X138013366Y-87630972D01*
X137938624Y-87703123D01*
X137840236Y-87799263D01*
X137721501Y-87916153D01*
X137585721Y-88050554D01*
X137436198Y-88199226D01*
X137276233Y-88358930D01*
X136481461Y-89153967D01*
X136481460Y-89153968D01*
X136314535Y-89153968D01*
X136314536Y-89153967D01*
X135531647Y-88370809D01*
X135383432Y-88222779D01*
X135234413Y-88074451D01*
X135098997Y-87940185D01*
X134980507Y-87823250D01*
X134882265Y-87726913D01*
X134807591Y-87654442D01*
X134759809Y-87609105D01*
X134742239Y-87594171D01*
X134330835Y-87594171D01*
X134330835Y-87538285D01*
X134425877Y-87538285D01*
X134532799Y-87538285D01*
X134550654Y-87538056D01*
X134617593Y-87529242D01*
X134639722Y-87507466D01*
X134638208Y-87500862D01*
X134614185Y-87463109D01*
X134570362Y-87411347D01*
X134518999Y-87358443D01*
X134472357Y-87317265D01*
X134442696Y-87300679D01*
X134436642Y-87308684D01*
X134428904Y-87351698D01*
X134425877Y-87419482D01*
X134425877Y-87538285D01*
X134330835Y-87538285D01*
X134330835Y-87184323D01*
X134522809Y-87184323D01*
X134549432Y-87224646D01*
X134577778Y-87247531D01*
X134600861Y-87246195D01*
X134599085Y-87205637D01*
X134585704Y-87178023D01*
X134553789Y-87158116D01*
X134535109Y-87161006D01*
X134522809Y-87184323D01*
X134330835Y-87184323D01*
X134330835Y-87170225D01*
X133426810Y-86265971D01*
X133405932Y-86245087D01*
X133211841Y-86050798D01*
X133048674Y-85887016D01*
X132913926Y-85750991D01*
X132805089Y-85639974D01*
X132719657Y-85551217D01*
X132655124Y-85481968D01*
X132608984Y-85429480D01*
X132578729Y-85391002D01*
X132561854Y-85363785D01*
X132555852Y-85345080D01*
X132558217Y-85332138D01*
X132566442Y-85322209D01*
X132577139Y-85314968D01*
X132590935Y-85313310D01*
X132610398Y-85319971D01*
X132638312Y-85337487D01*
X132677463Y-85368396D01*
X132730635Y-85415235D01*
X132800613Y-85480541D01*
X132890181Y-85566852D01*
X133002124Y-85676704D01*
X133139226Y-85812636D01*
X133304273Y-85977185D01*
X133500049Y-86172887D01*
X133619269Y-86292128D01*
X133796320Y-86469031D01*
X133944491Y-86616564D01*
X134066745Y-86737393D01*
X134166047Y-86834184D01*
X134245362Y-86909603D01*
X134307655Y-86966316D01*
X134355891Y-87006990D01*
X134393035Y-87034290D01*
X134422051Y-87050882D01*
X134445904Y-87059433D01*
X134467558Y-87062608D01*
X134489980Y-87063074D01*
X134589962Y-87063074D01*
X134575557Y-86938331D01*
X134568161Y-86890411D01*
X134557130Y-86849230D01*
X134657344Y-86849230D01*
X134672738Y-86997733D01*
X134679093Y-87062292D01*
X134688009Y-87158564D01*
X134696878Y-87235453D01*
X134698983Y-87246195D01*
X134709321Y-87298964D01*
X134728955Y-87355099D01*
X134759398Y-87409863D01*
X134804270Y-87469259D01*
X134838596Y-87507466D01*
X134867188Y-87539291D01*
X134951771Y-87625963D01*
X135061637Y-87735279D01*
X135200405Y-87873241D01*
X135685185Y-88357588D01*
X135685185Y-88084777D01*
X136849450Y-88084777D01*
X136849450Y-88346143D01*
X136279198Y-88346143D01*
X136167670Y-88346493D01*
X136019844Y-88348139D01*
X135893566Y-88350946D01*
X135795328Y-88354707D01*
X135731623Y-88359218D01*
X135708945Y-88364270D01*
X135709618Y-88366086D01*
X135731863Y-88393684D01*
X135781867Y-88448263D01*
X135854569Y-88524504D01*
X135944910Y-88617082D01*
X136047830Y-88720678D01*
X136069801Y-88742585D01*
X136171220Y-88843053D01*
X136260010Y-88929959D01*
X136330953Y-88998268D01*
X136378829Y-89042947D01*
X136398422Y-89058958D01*
X136400064Y-89057900D01*
X136426560Y-89033611D01*
X136482557Y-88979612D01*
X136564840Y-88899079D01*
X136670196Y-88795187D01*
X136795413Y-88671110D01*
X136937278Y-88530023D01*
X137092577Y-88375101D01*
X137258096Y-88209519D01*
X138106064Y-87360081D01*
X138131172Y-87129352D01*
X138137724Y-87068285D01*
X138147272Y-86975618D01*
X138153837Y-86906962D01*
X138156279Y-86873927D01*
X138136017Y-86868686D01*
X138073868Y-86864045D01*
X137969125Y-86860055D01*
X137821085Y-86856706D01*
X137629044Y-86853988D01*
X137392300Y-86851891D01*
X137110149Y-86850406D01*
X136781888Y-86849522D01*
X136406812Y-86849230D01*
X134657344Y-86849230D01*
X134557130Y-86849230D01*
X134552266Y-86831074D01*
X134535096Y-86803830D01*
X134523430Y-86797109D01*
X134481663Y-86763580D01*
X134435602Y-86720453D01*
X134773239Y-86720453D01*
X134777378Y-86726871D01*
X134792913Y-86732434D01*
X134822856Y-86737201D01*
X134870216Y-86741232D01*
X134938004Y-86744585D01*
X135029230Y-86747322D01*
X135146905Y-86749500D01*
X135294038Y-86751180D01*
X135473641Y-86752422D01*
X135688723Y-86753283D01*
X135942295Y-86753825D01*
X136237367Y-86754107D01*
X136576950Y-86754187D01*
X136651169Y-86754184D01*
X136981712Y-86754063D01*
X137268394Y-86753723D01*
X137514245Y-86753105D01*
X137722296Y-86752149D01*
X137895578Y-86750797D01*
X138037122Y-86748988D01*
X138149960Y-86746662D01*
X138237122Y-86743762D01*
X138301639Y-86740226D01*
X138346543Y-86735997D01*
X138374865Y-86731013D01*
X138389635Y-86725216D01*
X138393884Y-86718547D01*
X138393791Y-86717441D01*
X138388092Y-86710889D01*
X138371380Y-86705207D01*
X138340614Y-86700334D01*
X138292751Y-86696211D01*
X138224749Y-86692777D01*
X138133564Y-86689973D01*
X138016156Y-86687737D01*
X137869481Y-86686010D01*
X137690498Y-86684732D01*
X137476163Y-86683843D01*
X137223434Y-86683282D01*
X136929270Y-86682990D01*
X136590627Y-86682906D01*
X136558363Y-86682906D01*
X136223375Y-86683010D01*
X135932570Y-86683333D01*
X135682886Y-86683935D01*
X135471257Y-86684877D01*
X135294622Y-86686219D01*
X135149917Y-86688020D01*
X135034078Y-86690341D01*
X134944042Y-86693242D01*
X134876746Y-86696782D01*
X134829126Y-86701023D01*
X134798119Y-86706024D01*
X134780663Y-86711845D01*
X134773692Y-86718547D01*
X134773239Y-86720453D01*
X134435602Y-86720453D01*
X134428778Y-86714064D01*
X134410693Y-86695712D01*
X134370933Y-86646410D01*
X134357347Y-86599600D01*
X134361967Y-86533776D01*
X134368546Y-86499418D01*
X134412331Y-86407307D01*
X134455967Y-86371893D01*
X134759280Y-86371893D01*
X134767689Y-86391244D01*
X134794921Y-86432022D01*
X134815429Y-86469688D01*
X134829806Y-86533004D01*
X134829806Y-86587864D01*
X137657308Y-86587864D01*
X137918674Y-86587864D01*
X138037477Y-86587864D01*
X138094701Y-86587095D01*
X138137078Y-86580053D01*
X138153521Y-86559580D01*
X138156279Y-86518525D01*
X138149485Y-86441445D01*
X138120001Y-86381285D01*
X138059538Y-86337499D01*
X138036639Y-86325986D01*
X137975020Y-86302948D01*
X137939268Y-86311750D01*
X137922710Y-86357499D01*
X137918674Y-86445301D01*
X137918674Y-86587864D01*
X137657308Y-86587864D01*
X137657308Y-86282759D01*
X137508805Y-86269812D01*
X137455908Y-86265581D01*
X137346798Y-86257959D01*
X137219845Y-86250005D01*
X137092996Y-86242883D01*
X136977115Y-86237571D01*
X136899187Y-86236486D01*
X136853165Y-86240387D01*
X136831261Y-86249942D01*
X136825690Y-86265820D01*
X136824572Y-86272603D01*
X136813066Y-86283864D01*
X136784176Y-86291973D01*
X136731874Y-86297422D01*
X136650135Y-86300703D01*
X136532932Y-86302311D01*
X136374240Y-86302737D01*
X136360214Y-86302735D01*
X136202837Y-86302095D01*
X136086839Y-86300047D01*
X136006529Y-86296169D01*
X135956212Y-86290040D01*
X135930197Y-86281238D01*
X135922790Y-86269343D01*
X135922689Y-86264213D01*
X135920003Y-86255288D01*
X135909845Y-86248837D01*
X135887221Y-86244922D01*
X135847134Y-86243604D01*
X135784592Y-86244946D01*
X135694599Y-86249008D01*
X135572162Y-86255852D01*
X135412285Y-86265540D01*
X135209974Y-86278133D01*
X135100473Y-86286296D01*
X134954757Y-86302783D01*
X134847259Y-86322973D01*
X134781071Y-86346224D01*
X134759280Y-86371893D01*
X134455967Y-86371893D01*
X134485790Y-86347689D01*
X134582608Y-86326498D01*
X134659126Y-86312804D01*
X134729900Y-86278816D01*
X134739324Y-86272246D01*
X134794063Y-86244895D01*
X134870375Y-86222413D01*
X134973448Y-86204032D01*
X135108468Y-86188989D01*
X135280623Y-86176516D01*
X135495101Y-86165848D01*
X135629503Y-86160174D01*
X136017832Y-86160174D01*
X136018098Y-86168247D01*
X136023365Y-86184223D01*
X136040855Y-86195183D01*
X136077629Y-86202069D01*
X136140745Y-86205822D01*
X136237262Y-86207384D01*
X136374240Y-86207695D01*
X136434788Y-86207660D01*
X136554604Y-86206958D01*
X136636804Y-86204626D01*
X136688450Y-86199722D01*
X136716599Y-86191307D01*
X136728312Y-86178438D01*
X136730648Y-86160174D01*
X136730382Y-86152101D01*
X136725115Y-86136126D01*
X136707624Y-86125166D01*
X136670851Y-86118280D01*
X136607735Y-86114526D01*
X136511218Y-86112965D01*
X136374240Y-86112653D01*
X136313691Y-86112689D01*
X136193876Y-86113391D01*
X136111676Y-86115723D01*
X136060030Y-86120626D01*
X136031881Y-86129042D01*
X136020168Y-86141911D01*
X136017832Y-86160174D01*
X135629503Y-86160174D01*
X135910910Y-86148294D01*
X135918428Y-86082953D01*
X135925946Y-86017611D01*
X136825690Y-86017611D01*
X136825690Y-86075303D01*
X136826791Y-86091120D01*
X136835351Y-86110954D01*
X136857260Y-86126298D01*
X136898211Y-86138155D01*
X136963893Y-86147533D01*
X137059998Y-86155437D01*
X137144227Y-86160174D01*
X137192218Y-86162873D01*
G37*
%TD*%
%LPC*%
D12*
%TO.C,J7*%
X228221000Y-71374000D03*
X228221000Y-58674000D03*
D13*
X225681000Y-61464000D03*
D14*
X223901000Y-62480000D03*
X225681000Y-63496000D03*
X223901000Y-64512000D03*
X225681000Y-65528000D03*
X223901000Y-66544000D03*
X225681000Y-67560000D03*
X223901000Y-68576000D03*
X219081000Y-58164000D03*
X219081000Y-60454000D03*
X219081000Y-69594000D03*
X219081000Y-71884000D03*
D15*
X224791000Y-56894000D03*
X224791000Y-73154000D03*
%TD*%
D16*
%TO.C,H7*%
X73152000Y-150876000D03*
%TD*%
%TO.C,REF3*%
X230632000Y-150876000D03*
%TD*%
%TO.C,REF14*%
X73152000Y-112522000D03*
%TD*%
D17*
%TO.C,J3*%
X221996000Y-94662000D03*
D18*
X221996000Y-89662000D03*
X221996000Y-84662000D03*
X221996000Y-79662000D03*
%TD*%
D16*
%TO.C,REF16*%
X73152000Y-90424000D03*
%TD*%
D19*
%TO.C,J4*%
X201427000Y-97531000D03*
D20*
X201427000Y-94991000D03*
X201427000Y-92451000D03*
X201427000Y-89911000D03*
X201427000Y-87371000D03*
X201427000Y-84831000D03*
X201427000Y-82291000D03*
X201427000Y-79751000D03*
X201427000Y-77211000D03*
X201427000Y-74671000D03*
X201427000Y-72131000D03*
X201427000Y-69591000D03*
X201427000Y-67051000D03*
X201427000Y-64511000D03*
X201427000Y-61971000D03*
X198887000Y-97531000D03*
X198887000Y-94991000D03*
X198887000Y-92451000D03*
X198887000Y-89911000D03*
X198887000Y-87371000D03*
X198887000Y-84831000D03*
X198887000Y-82291000D03*
X198887000Y-79751000D03*
X198887000Y-77211000D03*
X198887000Y-74671000D03*
X198887000Y-72131000D03*
X198887000Y-69591000D03*
X198887000Y-67051000D03*
X198887000Y-64511000D03*
X198887000Y-61971000D03*
%TD*%
D21*
%TO.C,J8*%
X93952000Y-137160000D03*
D22*
X98952000Y-137160000D03*
X103952000Y-137160000D03*
X108952000Y-137160000D03*
X113952000Y-137160000D03*
X118952000Y-137160000D03*
X123952000Y-137160000D03*
X128952000Y-137160000D03*
X133952000Y-137160000D03*
X138952000Y-137160000D03*
X143952000Y-137160000D03*
X148952000Y-137160000D03*
%TD*%
D17*
%TO.C,J1*%
X82296000Y-55372000D03*
D18*
X82296000Y-60372000D03*
X82296000Y-65372000D03*
X82296000Y-70372000D03*
X82296000Y-75372000D03*
X82296000Y-80372000D03*
X82296000Y-85372000D03*
X82296000Y-90372000D03*
%TD*%
D16*
%TO.C,REF17*%
X73152000Y-75438000D03*
%TD*%
%TO.C,REF18*%
X73152000Y-63246000D03*
%TD*%
%TO.C,REF15*%
X73152000Y-98044000D03*
%TD*%
%TO.C,REF6*%
X180622000Y-150368000D03*
%TD*%
%TO.C,REF5*%
X193802000Y-150368000D03*
%TD*%
%TO.C,REF7*%
X165622000Y-150368000D03*
%TD*%
%TO.C,REF8*%
X150622000Y-150368000D03*
%TD*%
D21*
%TO.C,J9*%
X155180000Y-137160000D03*
D22*
X160180000Y-137160000D03*
X165180000Y-137160000D03*
X170180000Y-137160000D03*
X175180000Y-137160000D03*
X180180000Y-137160000D03*
X185180000Y-137160000D03*
X190180000Y-137160000D03*
X195180000Y-137160000D03*
X200180000Y-137160000D03*
X205180000Y-137160000D03*
X210180000Y-137160000D03*
%TD*%
D16*
%TO.C,REF11*%
X107470000Y-150368000D03*
%TD*%
%TO.C,REF4*%
X208802000Y-150368000D03*
%TD*%
%TO.C,REF13*%
X73406000Y-136652000D03*
%TD*%
%TO.C,REF10*%
X122470000Y-150368000D03*
%TD*%
D19*
%TO.C,J6*%
X183652000Y-97526000D03*
D20*
X183652000Y-94986000D03*
X183652000Y-92446000D03*
X183652000Y-89906000D03*
X183652000Y-87366000D03*
X183652000Y-84826000D03*
X183652000Y-82286000D03*
X183652000Y-79746000D03*
X183652000Y-77206000D03*
X183652000Y-74666000D03*
X183652000Y-72126000D03*
X183652000Y-69586000D03*
X183652000Y-67046000D03*
X183652000Y-64506000D03*
X183652000Y-61966000D03*
X181112000Y-97526000D03*
X181112000Y-94986000D03*
X181112000Y-92446000D03*
X181112000Y-89906000D03*
X181112000Y-87366000D03*
X181112000Y-84826000D03*
X181112000Y-82286000D03*
X181112000Y-79746000D03*
X181112000Y-77206000D03*
X181112000Y-74666000D03*
X181112000Y-72126000D03*
X181112000Y-69586000D03*
X181112000Y-67046000D03*
X181112000Y-64506000D03*
X181112000Y-61966000D03*
%TD*%
D17*
%TO.C,J5*%
X225044000Y-142882000D03*
D18*
X225044000Y-137882000D03*
X225044000Y-132882000D03*
X225044000Y-127882000D03*
%TD*%
D16*
%TO.C,H51*%
X73092000Y-48514000D03*
%TD*%
%TO.C,H6*%
X230632000Y-48514000D03*
%TD*%
D17*
%TO.C,J2*%
X82296000Y-98552000D03*
D18*
X82296000Y-103552000D03*
X82296000Y-108552000D03*
X82296000Y-113552000D03*
X82296000Y-118552000D03*
X82296000Y-123552000D03*
X82296000Y-128552000D03*
X82296000Y-133552000D03*
%TD*%
D16*
%TO.C,REF9*%
X137470000Y-150368000D03*
%TD*%
%LPD*%
M02*
