%TF.GenerationSoftware,KiCad,Pcbnew,7.0.9*%
%TF.CreationDate,2024-04-09T00:12:48-04:00*%
%TF.ProjectId,RDL_revE4,52444c5f-7265-4764-9534-2e6b69636164,Rev E4*%
%TF.SameCoordinates,Original*%
%TF.FileFunction,Copper,L1,Top*%
%TF.FilePolarity,Positive*%
%FSLAX46Y46*%
G04 Gerber Fmt 4.6, Leading zero omitted, Abs format (unit mm)*
G04 Created by KiCad (PCBNEW 7.0.9) date 2024-04-09 00:12:48*
%MOMM*%
%LPD*%
G01*
G04 APERTURE LIST*
G04 Aperture macros list*
%AMRoundRect*
0 Rectangle with rounded corners*
0 $1 Rounding radius*
0 $2 $3 $4 $5 $6 $7 $8 $9 X,Y pos of 4 corners*
0 Add a 4 corners polygon primitive as box body*
4,1,4,$2,$3,$4,$5,$6,$7,$8,$9,$2,$3,0*
0 Add four circle primitives for the rounded corners*
1,1,$1+$1,$2,$3*
1,1,$1+$1,$4,$5*
1,1,$1+$1,$6,$7*
1,1,$1+$1,$8,$9*
0 Add four rect primitives between the rounded corners*
20,1,$1+$1,$2,$3,$4,$5,0*
20,1,$1+$1,$4,$5,$6,$7,0*
20,1,$1+$1,$6,$7,$8,$9,0*
20,1,$1+$1,$8,$9,$2,$3,0*%
%AMFreePoly0*
4,1,6,1.000000,0.000000,0.500000,-0.750000,-0.500000,-0.750000,-0.500000,0.750000,0.500000,0.750000,1.000000,0.000000,1.000000,0.000000,$1*%
%AMFreePoly1*
4,1,6,0.500000,-0.750000,-0.650000,-0.750000,-0.150000,0.000000,-0.650000,0.750000,0.500000,0.750000,0.500000,-0.750000,0.500000,-0.750000,$1*%
G04 Aperture macros list end*
%TA.AperFunction,SMDPad,CuDef*%
%ADD10R,1.168400X0.355600*%
%TD*%
%TA.AperFunction,ComponentPad*%
%ADD11R,1.500000X1.500000*%
%TD*%
%TA.AperFunction,ComponentPad*%
%ADD12C,1.500000*%
%TD*%
%TA.AperFunction,ComponentPad*%
%ADD13C,2.300000*%
%TD*%
%TA.AperFunction,SMDPad,CuDef*%
%ADD14RoundRect,0.250000X-0.250000X-0.475000X0.250000X-0.475000X0.250000X0.475000X-0.250000X0.475000X0*%
%TD*%
%TA.AperFunction,SMDPad,CuDef*%
%ADD15RoundRect,0.250000X0.475000X-0.250000X0.475000X0.250000X-0.475000X0.250000X-0.475000X-0.250000X0*%
%TD*%
%TA.AperFunction,SMDPad,CuDef*%
%ADD16R,1.803400X0.533400*%
%TD*%
%TA.AperFunction,SMDPad,CuDef*%
%ADD17FreePoly0,90.000000*%
%TD*%
%TA.AperFunction,SMDPad,CuDef*%
%ADD18FreePoly1,90.000000*%
%TD*%
%TA.AperFunction,SMDPad,CuDef*%
%ADD19RoundRect,0.250000X-0.262500X-0.450000X0.262500X-0.450000X0.262500X0.450000X-0.262500X0.450000X0*%
%TD*%
%TA.AperFunction,SMDPad,CuDef*%
%ADD20RoundRect,0.250000X0.250000X0.475000X-0.250000X0.475000X-0.250000X-0.475000X0.250000X-0.475000X0*%
%TD*%
%TA.AperFunction,ComponentPad*%
%ADD21R,2.500000X2.500000*%
%TD*%
%TA.AperFunction,ComponentPad*%
%ADD22C,2.500000*%
%TD*%
%TA.AperFunction,SMDPad,CuDef*%
%ADD23RoundRect,0.041300X0.983700X0.253700X-0.983700X0.253700X-0.983700X-0.253700X0.983700X-0.253700X0*%
%TD*%
%TA.AperFunction,SMDPad,CuDef*%
%ADD24RoundRect,0.250000X0.450000X-0.262500X0.450000X0.262500X-0.450000X0.262500X-0.450000X-0.262500X0*%
%TD*%
%TA.AperFunction,SMDPad,CuDef*%
%ADD25RoundRect,0.250000X-0.312500X-0.625000X0.312500X-0.625000X0.312500X0.625000X-0.312500X0.625000X0*%
%TD*%
%TA.AperFunction,SMDPad,CuDef*%
%ADD26RoundRect,0.250000X0.325000X0.650000X-0.325000X0.650000X-0.325000X-0.650000X0.325000X-0.650000X0*%
%TD*%
%TA.AperFunction,SMDPad,CuDef*%
%ADD27R,1.300000X0.600000*%
%TD*%
%TA.AperFunction,SMDPad,CuDef*%
%ADD28R,0.600000X0.800000*%
%TD*%
%TA.AperFunction,ComponentPad*%
%ADD29R,1.700000X1.700000*%
%TD*%
%TA.AperFunction,ComponentPad*%
%ADD30O,1.700000X1.700000*%
%TD*%
%TA.AperFunction,SMDPad,CuDef*%
%ADD31RoundRect,0.250000X0.262500X0.450000X-0.262500X0.450000X-0.262500X-0.450000X0.262500X-0.450000X0*%
%TD*%
%TA.AperFunction,ComponentPad*%
%ADD32R,2.600000X2.600000*%
%TD*%
%TA.AperFunction,ComponentPad*%
%ADD33C,2.600000*%
%TD*%
%TA.AperFunction,SMDPad,CuDef*%
%ADD34RoundRect,0.250000X-0.475000X0.250000X-0.475000X-0.250000X0.475000X-0.250000X0.475000X0.250000X0*%
%TD*%
%TA.AperFunction,SMDPad,CuDef*%
%ADD35RoundRect,0.150000X0.150000X-0.850000X0.150000X0.850000X-0.150000X0.850000X-0.150000X-0.850000X0*%
%TD*%
%TA.AperFunction,SMDPad,CuDef*%
%ADD36RoundRect,0.218750X0.218750X0.256250X-0.218750X0.256250X-0.218750X-0.256250X0.218750X-0.256250X0*%
%TD*%
%TA.AperFunction,SMDPad,CuDef*%
%ADD37RoundRect,0.002500X-0.297500X-0.122500X0.297500X-0.122500X0.297500X0.122500X-0.297500X0.122500X0*%
%TD*%
%TA.AperFunction,SMDPad,CuDef*%
%ADD38RoundRect,0.002500X-0.122500X-0.297500X0.122500X-0.297500X0.122500X0.297500X-0.122500X0.297500X0*%
%TD*%
%TA.AperFunction,SMDPad,CuDef*%
%ADD39RoundRect,0.014000X-0.411000X-0.336000X0.411000X-0.336000X0.411000X0.336000X-0.411000X0.336000X0*%
%TD*%
%TA.AperFunction,SMDPad,CuDef*%
%ADD40RoundRect,0.003500X-0.721500X-0.171500X0.721500X-0.171500X0.721500X0.171500X-0.721500X0.171500X0*%
%TD*%
%TA.AperFunction,SMDPad,CuDef*%
%ADD41RoundRect,0.003500X-0.896500X-0.171500X0.896500X-0.171500X0.896500X0.171500X-0.896500X0.171500X0*%
%TD*%
%TA.AperFunction,SMDPad,CuDef*%
%ADD42RoundRect,0.250000X0.400000X0.625000X-0.400000X0.625000X-0.400000X-0.625000X0.400000X-0.625000X0*%
%TD*%
%TA.AperFunction,SMDPad,CuDef*%
%ADD43R,1.000000X1.500000*%
%TD*%
%TA.AperFunction,SMDPad,CuDef*%
%ADD44R,1.100000X0.250000*%
%TD*%
%TA.AperFunction,SMDPad,CuDef*%
%ADD45C,10.200000*%
%TD*%
%TA.AperFunction,SMDPad,CuDef*%
%ADD46R,3.500000X3.300000*%
%TD*%
%TA.AperFunction,SMDPad,CuDef*%
%ADD47R,0.500000X0.800000*%
%TD*%
%TA.AperFunction,SMDPad,CuDef*%
%ADD48R,0.400000X0.800000*%
%TD*%
%TA.AperFunction,SMDPad,CuDef*%
%ADD49R,1.500000X1.000000*%
%TD*%
%TA.AperFunction,SMDPad,CuDef*%
%ADD50R,3.400000X0.980000*%
%TD*%
%TA.AperFunction,SMDPad,CuDef*%
%ADD51RoundRect,0.218750X-0.218750X-0.256250X0.218750X-0.256250X0.218750X0.256250X-0.218750X0.256250X0*%
%TD*%
%TA.AperFunction,SMDPad,CuDef*%
%ADD52RoundRect,0.250000X0.312500X0.625000X-0.312500X0.625000X-0.312500X-0.625000X0.312500X-0.625000X0*%
%TD*%
%TA.AperFunction,SMDPad,CuDef*%
%ADD53RoundRect,0.150000X-0.850000X-0.150000X0.850000X-0.150000X0.850000X0.150000X-0.850000X0.150000X0*%
%TD*%
%TA.AperFunction,ViaPad*%
%ADD54C,0.800000*%
%TD*%
%TA.AperFunction,Conductor*%
%ADD55C,0.250000*%
%TD*%
%TA.AperFunction,Conductor*%
%ADD56C,0.500000*%
%TD*%
%TA.AperFunction,Conductor*%
%ADD57C,0.249800*%
%TD*%
G04 APERTURE END LIST*
%TA.AperFunction,EtchedComponent*%
%TO.C,JP2*%
G36*
X159874000Y-90470000D02*
G01*
X159374000Y-90470000D01*
X159374000Y-89870000D01*
X159874000Y-89870000D01*
X159874000Y-90470000D01*
G37*
%TD.AperFunction*%
%TA.AperFunction,EtchedComponent*%
%TO.C,JP6*%
G36*
X118410000Y-94775000D02*
G01*
X117810000Y-94775000D01*
X117810000Y-94275000D01*
X118410000Y-94275000D01*
X118410000Y-94775000D01*
G37*
%TD.AperFunction*%
%TA.AperFunction,EtchedComponent*%
%TO.C,JP1*%
G36*
X159762000Y-86914000D02*
G01*
X159262000Y-86914000D01*
X159262000Y-86314000D01*
X159762000Y-86314000D01*
X159762000Y-86914000D01*
G37*
%TD.AperFunction*%
%TD*%
D10*
%TO.P,U3,1,VCC*%
%TO.N,+5V*%
X210616800Y-53452000D03*
%TO.P,U3,2,GND_2*%
%TO.N,GND*%
X210616800Y-54102000D03*
%TO.P,U3,3,ENABLE*%
%TO.N,/EN_LTC*%
X210616800Y-54752000D03*
%TO.P,U3,4,BUS2*%
%TO.N,/SDA*%
X212547200Y-54752000D03*
%TO.P,U3,5,GND*%
%TO.N,GND*%
X212547200Y-54102000D03*
%TO.P,U3,6,BUS1*%
%TO.N,/SCL*%
X212547200Y-53452000D03*
%TD*%
D11*
%TO.P,J7,1*%
%TO.N,+5V*%
X225681000Y-61464000D03*
D12*
%TO.P,J7,2*%
X223901000Y-62480000D03*
%TO.P,J7,3*%
%TO.N,GND*%
X225681000Y-63496000D03*
%TO.P,J7,4*%
X223901000Y-64512000D03*
%TO.P,J7,5*%
%TO.N,/SDA*%
X225681000Y-65528000D03*
%TO.P,J7,6*%
X223901000Y-66544000D03*
%TO.P,J7,7*%
%TO.N,/SCL*%
X225681000Y-67560000D03*
%TO.P,J7,8*%
X223901000Y-68576000D03*
%TO.P,J7,9*%
%TO.N,unconnected-(J7-Pad9)*%
X219081000Y-58164000D03*
%TO.P,J7,10*%
%TO.N,unconnected-(J7-Pad10)*%
X219081000Y-60454000D03*
%TO.P,J7,11*%
%TO.N,unconnected-(J7-Pad11)*%
X219081000Y-69594000D03*
%TO.P,J7,12*%
%TO.N,unconnected-(J7-Pad12)*%
X219081000Y-71884000D03*
D13*
%TO.P,J7,SH*%
%TO.N,GND*%
X224791000Y-56894000D03*
X224791000Y-73154000D03*
%TD*%
D14*
%TO.P,C2,1*%
%TO.N,+5V*%
X160152000Y-49784000D03*
%TO.P,C2,2*%
%TO.N,GND*%
X162052000Y-49784000D03*
%TD*%
D15*
%TO.P,C18,1*%
%TO.N,+5V*%
X160181500Y-101114500D03*
%TO.P,C18,2*%
%TO.N,GND*%
X160181500Y-99214500D03*
%TD*%
D16*
%TO.P,U9,1,A0*%
%TO.N,/PCF2_A0*%
X106243200Y-94401600D03*
%TO.P,U9,2,A1*%
%TO.N,/PCF2_A1*%
X106243200Y-93131600D03*
%TO.P,U9,3,A2*%
%TO.N,/PCF2_A2*%
X106243200Y-91861600D03*
%TO.P,U9,4,P0*%
%TO.N,/mosfet10*%
X106243200Y-90591600D03*
%TO.P,U9,5,P1*%
%TO.N,/mosfet11*%
X106243200Y-89321600D03*
%TO.P,U9,6,P2*%
%TO.N,/mosfet12*%
X106243200Y-88051600D03*
%TO.P,U9,7,P3*%
%TO.N,/mosfet13*%
X106243200Y-86781600D03*
%TO.P,U9,8,VSS*%
%TO.N,GND*%
X106243200Y-85511600D03*
%TO.P,U9,9,P4*%
%TO.N,/mosfet14*%
X96692800Y-85511600D03*
%TO.P,U9,10,P5*%
%TO.N,/mosfet15*%
X96692800Y-86781600D03*
%TO.P,U9,11,P6*%
%TO.N,/mosfet16*%
X96692800Y-88051600D03*
%TO.P,U9,12,P7*%
%TO.N,/mosfet17*%
X96692800Y-89321600D03*
%TO.P,U9,13,~INT*%
%TO.N,unconnected-(U9-~INT-Pad13)*%
X96692800Y-90591600D03*
%TO.P,U9,14,SCL*%
%TO.N,/SCL*%
X96692800Y-91861600D03*
%TO.P,U9,15,SDA*%
%TO.N,/SDA*%
X96692800Y-93131600D03*
%TO.P,U9,16,VDD*%
%TO.N,+5V*%
X96692800Y-94401600D03*
%TD*%
D14*
%TO.P,C5,1*%
%TO.N,+5V*%
X98618000Y-53340000D03*
%TO.P,C5,2*%
%TO.N,GND*%
X100518000Y-53340000D03*
%TD*%
D17*
%TO.P,JP5,1,A*%
%TO.N,/PCF1_A2*%
X142748000Y-85778000D03*
D18*
%TO.P,JP5,2,B*%
%TO.N,+5V*%
X142748000Y-84328000D03*
%TD*%
D17*
%TO.P,JP8,1,A*%
%TO.N,/PCF2_A2*%
X118110000Y-86032000D03*
D18*
%TO.P,JP8,2,B*%
%TO.N,+5V*%
X118110000Y-84582000D03*
%TD*%
D19*
%TO.P,R11,1*%
%TO.N,/SCL_ADS*%
X157329500Y-80264000D03*
%TO.P,R11,2*%
%TO.N,Net-(JP1-A)*%
X159154500Y-80264000D03*
%TD*%
D20*
%TO.P,C3,1*%
%TO.N,+5V*%
X207706000Y-53594000D03*
%TO.P,C3,2*%
%TO.N,GND*%
X205806000Y-53594000D03*
%TD*%
D21*
%TO.P,J3,1,Pin_1*%
%TO.N,+5V*%
X221996000Y-94662000D03*
D22*
%TO.P,J3,2,Pin_2*%
%TO.N,GND*%
X221996000Y-89662000D03*
%TO.P,J3,3,Pin_3*%
%TO.N,/SDA*%
X221996000Y-84662000D03*
%TO.P,J3,4,Pin_4*%
%TO.N,/SCL*%
X221996000Y-79662000D03*
%TD*%
D23*
%TO.P,U1,1,32KHZ*%
%TO.N,unconnected-(U1-32KHZ-Pad1)*%
X167977000Y-62865000D03*
%TO.P,U1,2,VCC*%
%TO.N,+5V*%
X167977000Y-61595000D03*
%TO.P,U1,3,SQW/~{INT}*%
%TO.N,unconnected-(U1-SQW{slash}~{INT}-Pad3)*%
X167977000Y-60325000D03*
%TO.P,U1,4,~{RST}*%
%TO.N,unconnected-(U1-~{RST}-Pad4)*%
X167977000Y-59055000D03*
%TO.P,U1,5*%
%TO.N,N/C*%
X167977000Y-57785000D03*
%TO.P,U1,6*%
X167977000Y-56515000D03*
%TO.P,U1,7*%
X167977000Y-55245000D03*
%TO.P,U1,8*%
X167977000Y-53975000D03*
%TO.P,U1,9*%
X158667000Y-53975000D03*
%TO.P,U1,10*%
X158667000Y-55245000D03*
%TO.P,U1,11*%
X158667000Y-56515000D03*
%TO.P,U1,12*%
X158667000Y-57785000D03*
%TO.P,U1,13,GND*%
%TO.N,GND*%
X158667000Y-59055000D03*
%TO.P,U1,14,VBAT*%
%TO.N,+BATT*%
X158667000Y-60325000D03*
%TO.P,U1,15,SDA*%
%TO.N,/SDA*%
X158667000Y-61595000D03*
%TO.P,U1,16,SCL*%
%TO.N,/SCL*%
X158667000Y-62865000D03*
%TD*%
D24*
%TO.P,R13,1*%
%TO.N,/PCF1_A0*%
X139192000Y-95289500D03*
%TO.P,R13,2*%
%TO.N,GND*%
X139192000Y-93464500D03*
%TD*%
D25*
%TO.P,R4,1*%
%TO.N,Net-(U4-~{E})*%
X120203500Y-68072000D03*
%TO.P,R4,2*%
%TO.N,/pin14*%
X123128500Y-68072000D03*
%TD*%
D26*
%TO.P,C9,1*%
%TO.N,Net-(C9-Pad1)*%
X153562000Y-81788000D03*
%TO.P,C9,2*%
%TO.N,Net-(C9-Pad2)*%
X150612000Y-81788000D03*
%TD*%
D15*
%TO.P,C17,1*%
%TO.N,+5V*%
X154739100Y-101114500D03*
%TO.P,C17,2*%
%TO.N,GND*%
X154739100Y-99214500D03*
%TD*%
D19*
%TO.P,R12,1*%
%TO.N,/SDA_ADS*%
X157329500Y-83058000D03*
%TO.P,R12,2*%
%TO.N,Net-(JP1-A)*%
X159154500Y-83058000D03*
%TD*%
D27*
%TO.P,Q11,1,G*%
%TO.N,/mosfet5*%
X166816900Y-123804000D03*
%TO.P,Q11,2,S*%
%TO.N,+5V*%
X166816900Y-125704000D03*
%TO.P,Q11,3,D*%
%TO.N,/ANA5-VCC*%
X168916900Y-124754000D03*
%TD*%
D17*
%TO.P,JP3,1,A*%
%TO.N,/PCF1_A0*%
X142748000Y-95139000D03*
D18*
%TO.P,JP3,2,B*%
%TO.N,+5V*%
X142748000Y-93689000D03*
%TD*%
D27*
%TO.P,Q4,1,G*%
%TO.N,/mosfet11*%
X117042500Y-123777300D03*
%TO.P,Q4,2,S*%
%TO.N,GND*%
X117042500Y-125677300D03*
%TO.P,Q4,3,D*%
%TO.N,/ANA1-GND*%
X119142500Y-124727300D03*
%TD*%
D25*
%TO.P,R3,1*%
%TO.N,Net-(U2-~{E})*%
X120203500Y-53594000D03*
%TO.P,R3,2*%
%TO.N,/pin14*%
X123128500Y-53594000D03*
%TD*%
D27*
%TO.P,Q8,1,G*%
%TO.N,/mosfet13*%
X145485000Y-123790600D03*
%TO.P,Q8,2,S*%
%TO.N,GND*%
X145485000Y-125690600D03*
%TO.P,Q8,3,D*%
%TO.N,/ANA3-GND*%
X147585000Y-124740600D03*
%TD*%
D28*
%TO.P,FB1,1*%
%TO.N,GND*%
X149417000Y-84074000D03*
%TO.P,FB1,2*%
%TO.N,Net-(C9-Pad2)*%
X150817000Y-84074000D03*
%TD*%
D29*
%TO.P,J4,1,Pin_1*%
%TO.N,/pin1*%
X201427000Y-97531000D03*
D30*
%TO.P,J4,2,Pin_2*%
%TO.N,/pin2*%
X201427000Y-94991000D03*
%TO.P,J4,3,Pin_3*%
%TO.N,/pin3*%
X201427000Y-92451000D03*
%TO.P,J4,4,Pin_4*%
%TO.N,GND*%
X201427000Y-89911000D03*
%TO.P,J4,5,Pin_5*%
%TO.N,/pin5*%
X201427000Y-87371000D03*
%TO.P,J4,6,Pin_6*%
%TO.N,/pin6*%
X201427000Y-84831000D03*
%TO.P,J4,7,Pin_7*%
%TO.N,/pin7*%
X201427000Y-82291000D03*
%TO.P,J4,8,Pin_8*%
%TO.N,/pin8*%
X201427000Y-79751000D03*
%TO.P,J4,9,Pin_9*%
%TO.N,/pin9*%
X201427000Y-77211000D03*
%TO.P,J4,10,Pin_10*%
%TO.N,/pin10*%
X201427000Y-74671000D03*
%TO.P,J4,11,Pin_11*%
%TO.N,/pin11*%
X201427000Y-72131000D03*
%TO.P,J4,12,Pin_12*%
%TO.N,/pin12*%
X201427000Y-69591000D03*
%TO.P,J4,13,Pin_13*%
%TO.N,/pin13*%
X201427000Y-67051000D03*
%TO.P,J4,14,Pin_14*%
%TO.N,/pin14*%
X201427000Y-64511000D03*
%TO.P,J4,15,Pin_15*%
%TO.N,/pin15*%
X201427000Y-61971000D03*
%TO.P,J4,16,Pin_16*%
%TO.N,/pin1*%
X198887000Y-97531000D03*
%TO.P,J4,17,Pin_17*%
%TO.N,/pin2*%
X198887000Y-94991000D03*
%TO.P,J4,18,Pin_18*%
%TO.N,/pin3*%
X198887000Y-92451000D03*
%TO.P,J4,19,Pin_19*%
%TO.N,GND*%
X198887000Y-89911000D03*
%TO.P,J4,20,Pin_20*%
%TO.N,/pin5*%
X198887000Y-87371000D03*
%TO.P,J4,21,Pin_21*%
%TO.N,/pin6*%
X198887000Y-84831000D03*
%TO.P,J4,22,Pin_22*%
%TO.N,/pin7*%
X198887000Y-82291000D03*
%TO.P,J4,23,Pin_23*%
%TO.N,/pin8*%
X198887000Y-79751000D03*
%TO.P,J4,24,Pin_24*%
%TO.N,/pin9*%
X198887000Y-77211000D03*
%TO.P,J4,25,Pin_25*%
%TO.N,/pin10*%
X198887000Y-74671000D03*
%TO.P,J4,26,Pin_26*%
%TO.N,/pin11*%
X198887000Y-72131000D03*
%TO.P,J4,27,Pin_27*%
%TO.N,/pin12*%
X198887000Y-69591000D03*
%TO.P,J4,28,Pin_28*%
%TO.N,/pin13*%
X198887000Y-67051000D03*
%TO.P,J4,29,Pin_29*%
%TO.N,/pin14*%
X198887000Y-64511000D03*
%TO.P,J4,30,Pin_30*%
%TO.N,/pin15*%
X198887000Y-61971000D03*
%TD*%
D20*
%TO.P,C1,1*%
%TO.N,+5V*%
X157988000Y-49784000D03*
%TO.P,C1,2*%
%TO.N,GND*%
X156088000Y-49784000D03*
%TD*%
D31*
%TO.P,R14,1*%
%TO.N,Net-(D2-A)*%
X216787000Y-141732000D03*
%TO.P,R14,2*%
%TO.N,/ANA7-VCC*%
X214962000Y-141732000D03*
%TD*%
D32*
%TO.P,J8,1,Pin_1*%
%TO.N,/ANA0-VCC*%
X93952000Y-137160000D03*
D33*
%TO.P,J8,2,Pin_2*%
%TO.N,/ANA0-GND*%
X98952000Y-137160000D03*
%TO.P,J8,3,Pin_3*%
%TO.N,/ANA0-SIG*%
X103952000Y-137160000D03*
%TO.P,J8,4,Pin_4*%
%TO.N,/ANA1-VCC*%
X108952000Y-137160000D03*
%TO.P,J8,5,Pin_5*%
%TO.N,/ANA1-GND*%
X113952000Y-137160000D03*
%TO.P,J8,6,Pin_6*%
%TO.N,/ANA1-SIG*%
X118952000Y-137160000D03*
%TO.P,J8,7,Pin_7*%
%TO.N,/ANA2-VCC*%
X123952000Y-137160000D03*
%TO.P,J8,8,Pin_8*%
%TO.N,/ANA2-GND*%
X128952000Y-137160000D03*
%TO.P,J8,9,Pin_9*%
%TO.N,/ANA2-SIG*%
X133952000Y-137160000D03*
%TO.P,J8,10,Pin_10*%
%TO.N,/ANA3-VCC*%
X138952000Y-137160000D03*
%TO.P,J8,11,Pin_11*%
%TO.N,/ANA3-GND*%
X143952000Y-137160000D03*
%TO.P,J8,12,Pin_12*%
%TO.N,/ANA3-SIG*%
X148952000Y-137160000D03*
%TD*%
D34*
%TO.P,C27,1*%
%TO.N,VSS*%
X171524000Y-109982000D03*
%TO.P,C27,2*%
%TO.N,GND*%
X171524000Y-111882000D03*
%TD*%
D15*
%TO.P,C20,1*%
%TO.N,+5V*%
X165624000Y-101114500D03*
%TO.P,C20,2*%
%TO.N,GND*%
X165624000Y-99214500D03*
%TD*%
D35*
%TO.P,U2,1,CH_A4*%
%TO.N,/CH5*%
X106569800Y-58090500D03*
%TO.P,U2,2,CH_A6*%
%TO.N,/CH7*%
X107839800Y-58090500D03*
%TO.P,U2,3,COM*%
%TO.N,/A0*%
X109109800Y-58090500D03*
%TO.P,U2,4,CH_A7*%
%TO.N,/CH8*%
X110379800Y-58090500D03*
%TO.P,U2,5,CH_A5*%
%TO.N,/CH6*%
X111649800Y-58090500D03*
%TO.P,U2,6,~{E}*%
%TO.N,Net-(U2-~{E})*%
X112919800Y-58090500D03*
%TO.P,U2,7,VEE*%
%TO.N,unconnected-(U2-VEE-Pad7)*%
X114189800Y-58090500D03*
%TO.P,U2,8,GND*%
%TO.N,GND*%
X115459800Y-58090500D03*
%TO.P,U2,9,S2*%
%TO.N,/pin7*%
X115459800Y-53090500D03*
%TO.P,U2,10,S1*%
%TO.N,/pin6*%
X114189800Y-53090500D03*
%TO.P,U2,11,S0*%
%TO.N,/pin5*%
X112919800Y-53090500D03*
%TO.P,U2,12,CH_A3*%
%TO.N,/CH4*%
X111649800Y-53090500D03*
%TO.P,U2,13,CH_A0*%
%TO.N,/CH1*%
X110379800Y-53090500D03*
%TO.P,U2,14,CH_A1*%
%TO.N,/CH2*%
X109109800Y-53090500D03*
%TO.P,U2,15,CH_A2*%
%TO.N,/CH3*%
X107839800Y-53090500D03*
%TO.P,U2,16,VCC*%
%TO.N,+5V*%
X106569800Y-53090500D03*
%TD*%
D36*
%TO.P,D1,1,K*%
%TO.N,/ANA0-GND*%
X88671500Y-141224000D03*
%TO.P,D1,2,A*%
%TO.N,Net-(D1-A)*%
X87096500Y-141224000D03*
%TD*%
D24*
%TO.P,R16,1*%
%TO.N,/PCF1_A2*%
X139192000Y-85891500D03*
%TO.P,R16,2*%
%TO.N,GND*%
X139192000Y-84066500D03*
%TD*%
D27*
%TO.P,Q13,1,G*%
%TO.N,/mosfet6*%
X181038100Y-123630600D03*
%TO.P,Q13,2,S*%
%TO.N,+5V*%
X181038100Y-125530600D03*
%TO.P,Q13,3,D*%
%TO.N,/ANA6-VCC*%
X183138100Y-124580600D03*
%TD*%
D37*
%TO.P,U8,1,PS/SYNC*%
%TO.N,PS*%
X158832500Y-105024500D03*
%TO.P,U8,2,PG*%
%TO.N,unconnected-(U8-PG-Pad2)*%
X158832500Y-105524500D03*
%TO.P,U8,3,VAUX*%
%TO.N,Net-(U8-VAUX)*%
X158832500Y-106024500D03*
%TO.P,U8,4,GND*%
%TO.N,GND*%
X158832500Y-106524500D03*
D38*
%TO.P,U8,5,FB*%
%TO.N,VSS*%
X159257500Y-107174500D03*
%TO.P,U8,6,FB2*%
%TO.N,GND*%
X159757500Y-107174500D03*
D39*
%TO.P,U8,7_8,VOUT*%
%TO.N,VSS*%
X160507500Y-107174500D03*
D40*
%TO.P,U8,9,L2*%
%TO.N,Net-(U8-L2)*%
X160757500Y-106274500D03*
D41*
%TO.P,U8,10,PGND*%
%TO.N,GND*%
X160582500Y-105774500D03*
D40*
%TO.P,U8,11,L1*%
%TO.N,Net-(U8-L1)*%
X160757500Y-105274500D03*
D39*
%TO.P,U8,12_13,VIN*%
%TO.N,+5V*%
X160507500Y-104374500D03*
D38*
%TO.P,U8,14,EN*%
%TO.N,EN*%
X159757500Y-104374500D03*
%TO.P,U8,15,VSEL*%
%TO.N,GND*%
X159257500Y-104374500D03*
%TD*%
D21*
%TO.P,J1,1,Pin_1*%
%TO.N,/CH1*%
X82296000Y-55372000D03*
D22*
%TO.P,J1,2,Pin_2*%
%TO.N,/CH1_GND*%
X82296000Y-60372000D03*
%TO.P,J1,3,Pin_3*%
%TO.N,/CH2*%
X82296000Y-65372000D03*
%TO.P,J1,4,Pin_4*%
%TO.N,/CH2_GND*%
X82296000Y-70372000D03*
%TO.P,J1,5,Pin_5*%
%TO.N,/CH3*%
X82296000Y-75372000D03*
%TO.P,J1,6,Pin_6*%
%TO.N,/CH3_GND*%
X82296000Y-80372000D03*
%TO.P,J1,7,Pin_7*%
%TO.N,/CH4*%
X82296000Y-85372000D03*
%TO.P,J1,8,Pin_8*%
%TO.N,/CH4_GND*%
X82296000Y-90372000D03*
%TD*%
D27*
%TO.P,Q18,1,G*%
%TO.N,+5V*%
X166336000Y-81092000D03*
%TO.P,Q18,2,S*%
%TO.N,/SDA*%
X166336000Y-82992000D03*
%TO.P,Q18,3,D*%
%TO.N,/SDA_ADS*%
X168436000Y-82042000D03*
%TD*%
D42*
%TO.P,R5,1*%
%TO.N,/A0*%
X122962000Y-61468000D03*
%TO.P,R5,2*%
%TO.N,+3V3*%
X119862000Y-61468000D03*
%TD*%
D24*
%TO.P,R20,1*%
%TO.N,/PCF2_A1*%
X113792000Y-90537500D03*
%TO.P,R20,2*%
%TO.N,GND*%
X113792000Y-88712500D03*
%TD*%
D27*
%TO.P,Q9,1,G*%
%TO.N,/mosfet4*%
X152595600Y-123817300D03*
%TO.P,Q9,2,S*%
%TO.N,+5V*%
X152595600Y-125717300D03*
%TO.P,Q9,3,D*%
%TO.N,/ANA4-VCC*%
X154695600Y-124767300D03*
%TD*%
D24*
%TO.P,R19,1*%
%TO.N,/PCF2_A0*%
X113792000Y-95033000D03*
%TO.P,R19,2*%
%TO.N,GND*%
X113792000Y-93208000D03*
%TD*%
%TO.P,R21,1*%
%TO.N,/PCF2_A2*%
X114046000Y-86473500D03*
%TO.P,R21,2*%
%TO.N,GND*%
X114046000Y-84648500D03*
%TD*%
%TO.P,R7,1*%
%TO.N,Net-(U5-ADDR)*%
X150368000Y-92606500D03*
%TO.P,R7,2*%
%TO.N,GND*%
X150368000Y-90781500D03*
%TD*%
D14*
%TO.P,C13,1*%
%TO.N,+5V*%
X126934000Y-79046900D03*
%TO.P,C13,2*%
%TO.N,GND*%
X128834000Y-79046900D03*
%TD*%
D34*
%TO.P,C21,1*%
%TO.N,+5V*%
X213868000Y-102240000D03*
%TO.P,C21,2*%
%TO.N,GND*%
X213868000Y-104140000D03*
%TD*%
D27*
%TO.P,Q5,1,G*%
%TO.N,/mosfet2*%
X124153100Y-123644000D03*
%TO.P,Q5,2,S*%
%TO.N,+5V*%
X124153100Y-125544000D03*
%TO.P,Q5,3,D*%
%TO.N,/ANA2-VCC*%
X126253100Y-124594000D03*
%TD*%
%TO.P,Q17,1,G*%
%TO.N,+5V*%
X162018000Y-81092000D03*
%TO.P,Q17,2,S*%
%TO.N,/SCL*%
X162018000Y-82992000D03*
%TO.P,Q17,3,D*%
%TO.N,/SCL_ADS*%
X164118000Y-82042000D03*
%TD*%
%TO.P,Q2,1,G*%
%TO.N,/mosfet10*%
X102821200Y-123657300D03*
%TO.P,Q2,2,S*%
%TO.N,GND*%
X102821200Y-125557300D03*
%TO.P,Q2,3,D*%
%TO.N,/ANA0-GND*%
X104921200Y-124607300D03*
%TD*%
D31*
%TO.P,R17,1*%
%TO.N,/SCL*%
X165250500Y-86614000D03*
%TO.P,R17,2*%
%TO.N,Net-(JP2-A)*%
X163425500Y-86614000D03*
%TD*%
D34*
%TO.P,C25,1*%
%TO.N,VSS*%
X166080700Y-109982000D03*
%TO.P,C25,2*%
%TO.N,GND*%
X166080700Y-111882000D03*
%TD*%
D17*
%TO.P,JP4,1,A*%
%TO.N,/PCF1_A1*%
X142748000Y-90641000D03*
D18*
%TO.P,JP4,2,B*%
%TO.N,+5V*%
X142748000Y-89191000D03*
%TD*%
D43*
%TO.P,JP2,1,A*%
%TO.N,Net-(JP2-A)*%
X160274000Y-90170000D03*
%TO.P,JP2,2,B*%
%TO.N,+5V*%
X158974000Y-90170000D03*
%TD*%
D27*
%TO.P,Q12,1,G*%
%TO.N,/mosfet15*%
X173927500Y-123710600D03*
%TO.P,Q12,2,S*%
%TO.N,GND*%
X173927500Y-125610600D03*
%TO.P,Q12,3,D*%
%TO.N,/ANA5-GND*%
X176027500Y-124660600D03*
%TD*%
%TO.P,Q16,1,G*%
%TO.N,/mosfet7*%
X202370000Y-123764000D03*
%TO.P,Q16,2,S*%
%TO.N,+5V*%
X202370000Y-125664000D03*
%TO.P,Q16,3,D*%
%TO.N,/ANA7-VCC*%
X204470000Y-124714000D03*
%TD*%
D44*
%TO.P,U5,1,ADDR*%
%TO.N,Net-(U5-ADDR)*%
X152223000Y-92726000D03*
%TO.P,U5,2,ALERT/RDY*%
%TO.N,unconnected-(U5-ALERT{slash}RDY-Pad2)*%
X152223000Y-93226000D03*
%TO.P,U5,3,GND*%
%TO.N,GND*%
X152223000Y-93726000D03*
%TO.P,U5,4,AIN0*%
%TO.N,/A0*%
X152223000Y-94226000D03*
%TO.P,U5,5,AIN1*%
%TO.N,/pin20*%
X152223000Y-94726000D03*
%TO.P,U5,6,AIN2*%
%TO.N,+5V*%
X156523000Y-94726000D03*
%TO.P,U5,7,AIN3*%
%TO.N,+3V3*%
X156523000Y-94226000D03*
%TO.P,U5,8,VDD*%
%TO.N,VSS*%
X156523000Y-93726000D03*
%TO.P,U5,9,SDA*%
%TO.N,/SDA_ADS*%
X156523000Y-93226000D03*
%TO.P,U5,10,SCL*%
%TO.N,/SCL_ADS*%
X156523000Y-92726000D03*
%TD*%
D15*
%TO.P,C12,1*%
%TO.N,+5V*%
X193294000Y-91054000D03*
%TO.P,C12,2*%
%TO.N,GND*%
X193294000Y-89154000D03*
%TD*%
%TO.P,C11,1*%
%TO.N,+5V*%
X188976000Y-91054000D03*
%TO.P,C11,2*%
%TO.N,GND*%
X188976000Y-89154000D03*
%TD*%
D14*
%TO.P,C15,1*%
%TO.N,+5V*%
X100574000Y-79542600D03*
%TO.P,C15,2*%
%TO.N,GND*%
X102474000Y-79542600D03*
%TD*%
D27*
%TO.P,Q6,1,G*%
%TO.N,/mosfet12*%
X131263700Y-123737300D03*
%TO.P,Q6,2,S*%
%TO.N,GND*%
X131263700Y-125637300D03*
%TO.P,Q6,3,D*%
%TO.N,/ANA2-GND*%
X133363700Y-124687300D03*
%TD*%
D16*
%TO.P,U7,1,A0*%
%TO.N,/PCF1_A0*%
X132725200Y-94159900D03*
%TO.P,U7,2,A1*%
%TO.N,/PCF1_A1*%
X132725200Y-92889900D03*
%TO.P,U7,3,A2*%
%TO.N,/PCF1_A2*%
X132725200Y-91619900D03*
%TO.P,U7,4,P0*%
%TO.N,/mosfet0*%
X132725200Y-90349900D03*
%TO.P,U7,5,P1*%
%TO.N,/mosfet1*%
X132725200Y-89079900D03*
%TO.P,U7,6,P2*%
%TO.N,/mosfet2*%
X132725200Y-87809900D03*
%TO.P,U7,7,P3*%
%TO.N,/mosfet3*%
X132725200Y-86539900D03*
%TO.P,U7,8,VSS*%
%TO.N,GND*%
X132725200Y-85269900D03*
%TO.P,U7,9,P4*%
%TO.N,/mosfet4*%
X123174800Y-85269900D03*
%TO.P,U7,10,P5*%
%TO.N,/mosfet5*%
X123174800Y-86539900D03*
%TO.P,U7,11,P6*%
%TO.N,/mosfet6*%
X123174800Y-87809900D03*
%TO.P,U7,12,P7*%
%TO.N,/mosfet7*%
X123174800Y-89079900D03*
%TO.P,U7,13,~INT*%
%TO.N,unconnected-(U7-~INT-Pad13)*%
X123174800Y-90349900D03*
%TO.P,U7,14,SCL*%
%TO.N,/SCL*%
X123174800Y-91619900D03*
%TO.P,U7,15,SDA*%
%TO.N,/SDA*%
X123174800Y-92889900D03*
%TO.P,U7,16,VDD*%
%TO.N,+5V*%
X123174800Y-94159900D03*
%TD*%
D20*
%TO.P,C4,1*%
%TO.N,+5V*%
X207706000Y-50038000D03*
%TO.P,C4,2*%
%TO.N,GND*%
X205806000Y-50038000D03*
%TD*%
D27*
%TO.P,Q3,1,G*%
%TO.N,/mosfet1*%
X109931900Y-123750600D03*
%TO.P,Q3,2,S*%
%TO.N,+5V*%
X109931900Y-125650600D03*
%TO.P,Q3,3,D*%
%TO.N,/ANA1-VCC*%
X112031900Y-124700600D03*
%TD*%
%TO.P,Q7,1,G*%
%TO.N,/mosfet3*%
X138374400Y-123724000D03*
%TO.P,Q7,2,S*%
%TO.N,+5V*%
X138374400Y-125624000D03*
%TO.P,Q7,3,D*%
%TO.N,/ANA3-VCC*%
X140474400Y-124674000D03*
%TD*%
D35*
%TO.P,U4,16,VCC*%
%TO.N,+5V*%
X106568000Y-66576900D03*
%TO.P,U4,15,CH_A2*%
%TO.N,/CH3_GND*%
X107838000Y-66576900D03*
%TO.P,U4,14,CH_A1*%
%TO.N,/CH2_GND*%
X109108000Y-66576900D03*
%TO.P,U4,13,CH_A0*%
%TO.N,/CH1_GND*%
X110378000Y-66576900D03*
%TO.P,U4,12,CH_A3*%
%TO.N,/CH4_GND*%
X111648000Y-66576900D03*
%TO.P,U4,11,S0*%
%TO.N,/pin5*%
X112918000Y-66576900D03*
%TO.P,U4,10,S1*%
%TO.N,/pin6*%
X114188000Y-66576900D03*
%TO.P,U4,9,S2*%
%TO.N,/pin7*%
X115458000Y-66576900D03*
%TO.P,U4,8,GND*%
%TO.N,GND*%
X115458000Y-71576900D03*
%TO.P,U4,7,VEE*%
%TO.N,unconnected-(U4-VEE-Pad7)*%
X114188000Y-71576900D03*
%TO.P,U4,6,~{E}*%
%TO.N,Net-(U4-~{E})*%
X112918000Y-71576900D03*
%TO.P,U4,5,CH_A5*%
%TO.N,/CH6_GND*%
X111648000Y-71576900D03*
%TO.P,U4,4,CH_A7*%
%TO.N,/CH8_GND*%
X110378000Y-71576900D03*
%TO.P,U4,3,COM*%
%TO.N,GND*%
X109108000Y-71576900D03*
%TO.P,U4,2,CH_A6*%
%TO.N,/CH7_GND*%
X107838000Y-71576900D03*
%TO.P,U4,1,CH_A4*%
%TO.N,/CH5_GND*%
X106568000Y-71576900D03*
%TD*%
D27*
%TO.P,Q1,1,G*%
%TO.N,/mosfet0*%
X95710600Y-123617300D03*
%TO.P,Q1,2,S*%
%TO.N,+5V*%
X95710600Y-125517300D03*
%TO.P,Q1,3,D*%
%TO.N,/ANA0-VCC*%
X97810600Y-124567300D03*
%TD*%
D14*
%TO.P,C6,1*%
%TO.N,+5V*%
X98684000Y-66294000D03*
%TO.P,C6,2*%
%TO.N,GND*%
X100584000Y-66294000D03*
%TD*%
D20*
%TO.P,C26,1*%
%TO.N,Net-(U8-VAUX)*%
X152490000Y-105884500D03*
%TO.P,C26,2*%
%TO.N,GND*%
X150590000Y-105884500D03*
%TD*%
D24*
%TO.P,R15,1*%
%TO.N,/PCF1_A1*%
X139192000Y-90868000D03*
%TO.P,R15,2*%
%TO.N,GND*%
X139192000Y-89043000D03*
%TD*%
D32*
%TO.P,J9,1,Pin_1*%
%TO.N,/ANA4-VCC*%
X155180000Y-137160000D03*
D33*
%TO.P,J9,2,Pin_2*%
%TO.N,/ANA4-GND*%
X160180000Y-137160000D03*
%TO.P,J9,3,Pin_3*%
%TO.N,/ANA4-SIG*%
X165180000Y-137160000D03*
%TO.P,J9,4,Pin_4*%
%TO.N,/ANA5-VCC*%
X170180000Y-137160000D03*
%TO.P,J9,5,Pin_5*%
%TO.N,/ANA5-GND*%
X175180000Y-137160000D03*
%TO.P,J9,6,Pin_6*%
%TO.N,/ANA5-SIG*%
X180180000Y-137160000D03*
%TO.P,J9,7,Pin_7*%
%TO.N,/ANA6-VCC*%
X185180000Y-137160000D03*
%TO.P,J9,8,Pin_8*%
%TO.N,/ANA6-GND*%
X190180000Y-137160000D03*
%TO.P,J9,9,Pin_9*%
%TO.N,/ANA6-SIG*%
X195180000Y-137160000D03*
%TO.P,J9,10,Pin_10*%
%TO.N,/ANA7-VCC*%
X200180000Y-137160000D03*
%TO.P,J9,11,Pin_11*%
%TO.N,/ANA7-GND*%
X205180000Y-137160000D03*
%TO.P,J9,12,Pin_12*%
%TO.N,/ANA7-SIG*%
X210180000Y-137160000D03*
%TD*%
D34*
%TO.P,C19,1*%
%TO.N,+5V*%
X217424000Y-102240000D03*
%TO.P,C19,2*%
%TO.N,GND*%
X217424000Y-104140000D03*
%TD*%
D28*
%TO.P,FB2,1*%
%TO.N,+5V*%
X153419000Y-84074000D03*
%TO.P,FB2,2*%
%TO.N,Net-(C9-Pad1)*%
X154819000Y-84074000D03*
%TD*%
D15*
%TO.P,C22,1*%
%TO.N,+5V*%
X171066400Y-101114500D03*
%TO.P,C22,2*%
%TO.N,GND*%
X171066400Y-99214500D03*
%TD*%
D14*
%TO.P,C7,1*%
%TO.N,+5V*%
X98618000Y-58166000D03*
%TO.P,C7,2*%
%TO.N,GND*%
X100518000Y-58166000D03*
%TD*%
D25*
%TO.P,R10,1*%
%TO.N,+5V*%
X147889500Y-110512500D03*
%TO.P,R10,2*%
%TO.N,PS*%
X150814500Y-110512500D03*
%TD*%
D19*
%TO.P,R6,1*%
%TO.N,Net-(D1-A)*%
X86971500Y-138938000D03*
%TO.P,R6,2*%
%TO.N,/ANA0-VCC*%
X88796500Y-138938000D03*
%TD*%
D29*
%TO.P,J6,1,Pin_1*%
%TO.N,/pin30*%
X183652000Y-97526000D03*
D30*
%TO.P,J6,2,Pin_2*%
%TO.N,GND*%
X183652000Y-94986000D03*
%TO.P,J6,3,Pin_3*%
%TO.N,/pin28*%
X183652000Y-92446000D03*
%TO.P,J6,4,Pin_4*%
%TO.N,+5V*%
X183652000Y-89906000D03*
%TO.P,J6,5,Pin_5*%
%TO.N,/pin26*%
X183652000Y-87366000D03*
%TO.P,J6,6,Pin_6*%
%TO.N,/pin25*%
X183652000Y-84826000D03*
%TO.P,J6,7,Pin_7*%
%TO.N,/SCL*%
X183652000Y-82286000D03*
%TO.P,J6,8,Pin_8*%
%TO.N,/SDA*%
X183652000Y-79746000D03*
%TO.P,J6,9,Pin_9*%
%TO.N,/pin22*%
X183652000Y-77206000D03*
%TO.P,J6,10,Pin_10*%
%TO.N,/pin21*%
X183652000Y-74666000D03*
%TO.P,J6,11,Pin_11*%
%TO.N,/pin20*%
X183652000Y-72126000D03*
%TO.P,J6,12,Pin_12*%
%TO.N,/A0*%
X183652000Y-69586000D03*
%TO.P,J6,13,Pin_13*%
%TO.N,+3V3*%
X183652000Y-67046000D03*
%TO.P,J6,14,Pin_14*%
X183652000Y-64506000D03*
%TO.P,J6,15,Pin_15*%
%TO.N,/pin16*%
X183652000Y-61966000D03*
%TO.P,J6,16,Pin_16*%
%TO.N,/pin30*%
X181112000Y-97526000D03*
%TO.P,J6,17,Pin_17*%
%TO.N,GND*%
X181112000Y-94986000D03*
%TO.P,J6,18,Pin_18*%
%TO.N,/pin28*%
X181112000Y-92446000D03*
%TO.P,J6,19,Pin_19*%
%TO.N,+5V*%
X181112000Y-89906000D03*
%TO.P,J6,20,Pin_20*%
%TO.N,/pin26*%
X181112000Y-87366000D03*
%TO.P,J6,21,Pin_21*%
%TO.N,/pin25*%
X181112000Y-84826000D03*
%TO.P,J6,22,Pin_22*%
%TO.N,/SCL*%
X181112000Y-82286000D03*
%TO.P,J6,23,Pin_23*%
%TO.N,/SDA*%
X181112000Y-79746000D03*
%TO.P,J6,24,Pin_24*%
%TO.N,/pin22*%
X181112000Y-77206000D03*
%TO.P,J6,25,Pin_25*%
%TO.N,/pin21*%
X181112000Y-74666000D03*
%TO.P,J6,26,Pin_26*%
%TO.N,/pin20*%
X181112000Y-72126000D03*
%TO.P,J6,27,Pin_27*%
%TO.N,/A0*%
X181112000Y-69586000D03*
%TO.P,J6,28,Pin_28*%
%TO.N,+3V3*%
X181112000Y-67046000D03*
%TO.P,J6,29,Pin_29*%
X181112000Y-64506000D03*
%TO.P,J6,30,Pin_30*%
%TO.N,/pin16*%
X181112000Y-61966000D03*
%TD*%
D45*
%TO.P,BAT1,Neg*%
%TO.N,GND*%
X141670700Y-65278000D03*
D46*
%TO.P,BAT1,Pos*%
%TO.N,+BATT*%
X149570700Y-65278000D03*
X133770700Y-65278000D03*
%TD*%
D34*
%TO.P,C23,1*%
%TO.N,VSS*%
X155194000Y-109982000D03*
%TO.P,C23,2*%
%TO.N,GND*%
X155194000Y-111882000D03*
%TD*%
D27*
%TO.P,Q15,1,G*%
%TO.N,/mosfet17*%
X195259400Y-123670600D03*
%TO.P,Q15,2,S*%
%TO.N,GND*%
X195259400Y-125570600D03*
%TO.P,Q15,3,D*%
%TO.N,/ANA7-GND*%
X197359400Y-124620600D03*
%TD*%
D14*
%TO.P,C16,1*%
%TO.N,+5V*%
X100584000Y-83098600D03*
%TO.P,C16,2*%
%TO.N,GND*%
X102484000Y-83098600D03*
%TD*%
D47*
%TO.P,RN1,1,R1.1*%
%TO.N,unconnected-(RN1-R1.1-Pad1)*%
X211468000Y-51330000D03*
D48*
%TO.P,RN1,2,R2.1*%
%TO.N,/EN_LTC*%
X212268000Y-51330000D03*
%TO.P,RN1,3,R3.1*%
%TO.N,/SCL*%
X213068000Y-51330000D03*
D47*
%TO.P,RN1,4,R4.1*%
%TO.N,/SDA*%
X213868000Y-51330000D03*
%TO.P,RN1,5,R4.2*%
%TO.N,+5V*%
X213868000Y-49530000D03*
D48*
%TO.P,RN1,6,R3.2*%
X213068000Y-49530000D03*
%TO.P,RN1,7,R2.2*%
X212268000Y-49530000D03*
D47*
%TO.P,RN1,8,R1.2*%
X211468000Y-49530000D03*
%TD*%
D49*
%TO.P,JP6,1,A*%
%TO.N,/PCF2_A0*%
X118110000Y-95175000D03*
%TO.P,JP6,2,B*%
%TO.N,+5V*%
X118110000Y-93875000D03*
%TD*%
D50*
%TO.P,L1,1*%
%TO.N,Net-(U8-L1)*%
X165862000Y-104733000D03*
%TO.P,L1,2*%
%TO.N,Net-(U8-L2)*%
X165862000Y-107103000D03*
%TD*%
D17*
%TO.P,JP7,1,A*%
%TO.N,/PCF2_A1*%
X118110000Y-90567000D03*
D18*
%TO.P,JP7,2,B*%
%TO.N,+5V*%
X118110000Y-89117000D03*
%TD*%
D25*
%TO.P,R1,1*%
%TO.N,+5V*%
X133665500Y-52832000D03*
%TO.P,R1,2*%
%TO.N,/SDA*%
X136590500Y-52832000D03*
%TD*%
D14*
%TO.P,C8,1*%
%TO.N,+5V*%
X98684000Y-71374000D03*
%TO.P,C8,2*%
%TO.N,GND*%
X100584000Y-71374000D03*
%TD*%
D21*
%TO.P,J5,1,Pin_1*%
%TO.N,+5V*%
X225044000Y-142882000D03*
D22*
%TO.P,J5,2,Pin_2*%
%TO.N,GND*%
X225044000Y-137882000D03*
%TO.P,J5,3,Pin_3*%
%TO.N,/pin20*%
X225044000Y-132882000D03*
%TO.P,J5,4,Pin_4*%
%TO.N,/pin12*%
X225044000Y-127882000D03*
%TD*%
D34*
%TO.P,C24,1*%
%TO.N,VSS*%
X160637300Y-109982000D03*
%TO.P,C24,2*%
%TO.N,GND*%
X160637300Y-111882000D03*
%TD*%
D25*
%TO.P,R2,1*%
%TO.N,+5V*%
X140426200Y-52832000D03*
%TO.P,R2,2*%
%TO.N,/SCL*%
X143351200Y-52832000D03*
%TD*%
D26*
%TO.P,C10,1*%
%TO.N,+5V*%
X153611000Y-87376000D03*
%TO.P,C10,2*%
%TO.N,GND*%
X150661000Y-87376000D03*
%TD*%
D14*
%TO.P,C14,1*%
%TO.N,+5V*%
X127000000Y-82602900D03*
%TO.P,C14,2*%
%TO.N,GND*%
X128900000Y-82602900D03*
%TD*%
D27*
%TO.P,Q10,1,G*%
%TO.N,/mosfet14*%
X159706200Y-123684000D03*
%TO.P,Q10,2,S*%
%TO.N,GND*%
X159706200Y-125584000D03*
%TO.P,Q10,3,D*%
%TO.N,/ANA4-GND*%
X161806200Y-124634000D03*
%TD*%
D51*
%TO.P,D2,1,K*%
%TO.N,/ANA7-GND*%
X215087000Y-145034000D03*
%TO.P,D2,2,A*%
%TO.N,Net-(D2-A)*%
X216662000Y-145034000D03*
%TD*%
D43*
%TO.P,JP1,1,A*%
%TO.N,Net-(JP1-A)*%
X158862000Y-86614000D03*
%TO.P,JP1,2,B*%
%TO.N,VSS*%
X160162000Y-86614000D03*
%TD*%
D21*
%TO.P,J2,1,Pin_1*%
%TO.N,/CH5*%
X82296000Y-98552000D03*
D22*
%TO.P,J2,2,Pin_2*%
%TO.N,/CH5_GND*%
X82296000Y-103552000D03*
%TO.P,J2,3,Pin_3*%
%TO.N,/CH6*%
X82296000Y-108552000D03*
%TO.P,J2,4,Pin_4*%
%TO.N,/CH6_GND*%
X82296000Y-113552000D03*
%TO.P,J2,5,Pin_5*%
%TO.N,/CH7*%
X82296000Y-118552000D03*
%TO.P,J2,6,Pin_6*%
%TO.N,/CH7_GND*%
X82296000Y-123552000D03*
%TO.P,J2,7,Pin_7*%
%TO.N,/CH8*%
X82296000Y-128552000D03*
%TO.P,J2,8,Pin_8*%
%TO.N,/CH8_GND*%
X82296000Y-133552000D03*
%TD*%
D52*
%TO.P,R9,1*%
%TO.N,EN*%
X150938900Y-100926500D03*
%TO.P,R9,2*%
%TO.N,+5V*%
X148013900Y-100926500D03*
%TD*%
D27*
%TO.P,Q14,1,G*%
%TO.N,/mosfet16*%
X188148700Y-123697300D03*
%TO.P,Q14,2,S*%
%TO.N,GND*%
X188148700Y-125597300D03*
%TO.P,Q14,3,D*%
%TO.N,/ANA6-GND*%
X190248700Y-124647300D03*
%TD*%
D31*
%TO.P,R18,1*%
%TO.N,/SDA*%
X165250500Y-90170000D03*
%TO.P,R18,2*%
%TO.N,Net-(JP2-A)*%
X163425500Y-90170000D03*
%TD*%
D53*
%TO.P,U6,1,CH_A4*%
%TO.N,/ANA4-SIG*%
X212956000Y-109330200D03*
%TO.P,U6,2,CH_A6*%
%TO.N,/ANA6-SIG*%
X212956000Y-110600200D03*
%TO.P,U6,3,COM*%
%TO.N,/pin20*%
X212956000Y-111870200D03*
%TO.P,U6,4,CH_A7*%
%TO.N,/ANA7-SIG*%
X212956000Y-113140200D03*
%TO.P,U6,5,CH_A5*%
%TO.N,/ANA5-SIG*%
X212956000Y-114410200D03*
%TO.P,U6,6,~{E}*%
%TO.N,Net-(U6-~{E})*%
X212956000Y-115680200D03*
%TO.P,U6,7,VEE*%
%TO.N,unconnected-(U6-VEE-Pad7)*%
X212956000Y-116950200D03*
%TO.P,U6,8,GND*%
%TO.N,GND*%
X212956000Y-118220200D03*
%TO.P,U6,9,S2*%
%TO.N,/pin7*%
X217956000Y-118220200D03*
%TO.P,U6,10,S1*%
%TO.N,/pin6*%
X217956000Y-116950200D03*
%TO.P,U6,11,S0*%
%TO.N,/pin5*%
X217956000Y-115680200D03*
%TO.P,U6,12,CH_A3*%
%TO.N,/ANA3-SIG*%
X217956000Y-114410200D03*
%TO.P,U6,13,CH_A0*%
%TO.N,/ANA0-SIG*%
X217956000Y-113140200D03*
%TO.P,U6,14,CH_A1*%
%TO.N,/ANA1-SIG*%
X217956000Y-111870200D03*
%TO.P,U6,15,CH_A2*%
%TO.N,/ANA2-SIG*%
X217956000Y-110600200D03*
%TO.P,U6,16,VCC*%
%TO.N,+5V*%
X217956000Y-109330200D03*
%TD*%
D25*
%TO.P,R8,1*%
%TO.N,/pin13*%
X223073500Y-112014000D03*
%TO.P,R8,2*%
%TO.N,Net-(U6-~{E})*%
X225998500Y-112014000D03*
%TD*%
D54*
%TO.N,/pin5*%
X118488300Y-74165300D03*
X171956100Y-75387800D03*
X113185500Y-64960600D03*
X176727200Y-82157400D03*
X205216000Y-114872600D03*
X112066900Y-54987500D03*
%TO.N,/pin6*%
X114801900Y-50314100D03*
X210697400Y-117402500D03*
X114107100Y-63340800D03*
X172777900Y-69113000D03*
X178844800Y-83106600D03*
%TO.N,/pin7*%
X115481000Y-54987500D03*
X174986000Y-77248700D03*
X196612300Y-77219900D03*
X215593600Y-118005400D03*
X171076500Y-73824000D03*
X115028600Y-64645500D03*
%TO.N,/pin13*%
X220733300Y-113210100D03*
%TO.N,/pin14*%
X121666000Y-53675100D03*
X121716600Y-67405600D03*
%TO.N,+3V3*%
X130275200Y-66120900D03*
X134182700Y-71746000D03*
%TO.N,/pin20*%
X185909000Y-97765300D03*
X164819500Y-95055200D03*
X216210400Y-112269800D03*
X167000800Y-97236500D03*
X199395100Y-111159600D03*
%TO.N,+5V*%
X129872800Y-81019800D03*
X106679000Y-81939800D03*
X173650500Y-100883300D03*
X212898700Y-129207800D03*
X146816700Y-126140400D03*
X165326500Y-58576900D03*
X145989800Y-109848000D03*
X153842400Y-94351000D03*
X142054300Y-81961000D03*
X157884500Y-51491700D03*
X155045700Y-54330500D03*
X98596400Y-62656000D03*
X115984500Y-89525700D03*
X115609300Y-85616500D03*
X100453600Y-81458100D03*
X141042200Y-89316100D03*
X141241900Y-84660700D03*
X173858500Y-90197900D03*
X141042200Y-93381700D03*
X211634400Y-108458000D03*
X156458900Y-100773100D03*
X162999100Y-78923100D03*
X157074700Y-90439500D03*
X97454800Y-57930300D03*
X149476400Y-100674900D03*
X115985700Y-92969200D03*
X100351600Y-73593300D03*
X218051500Y-142330400D03*
X216834500Y-50505800D03*
X127834800Y-81003200D03*
X160671700Y-81250500D03*
X218421000Y-100772000D03*
X144686700Y-126616600D03*
%TO.N,/CH2*%
X83945300Y-61347400D03*
X102551700Y-55703800D03*
X99394400Y-61131600D03*
%TO.N,/CH3*%
X98288200Y-59569500D03*
X101452200Y-55885300D03*
X90888900Y-59621500D03*
%TO.N,/CH4*%
X108917400Y-55037700D03*
X83991000Y-81347400D03*
X89910600Y-81278600D03*
%TO.N,/CH5*%
X100308700Y-59556700D03*
%TO.N,/CH7*%
X104387300Y-60757800D03*
%TO.N,/CH8*%
X106986300Y-62200900D03*
%TO.N,/CH6*%
X91782100Y-107894100D03*
X111520300Y-59717300D03*
%TO.N,/ANA0-VCC*%
X95926600Y-124567300D03*
%TO.N,/ANA0-GND*%
X101449800Y-124742400D03*
%TO.N,/ANA0-SIG*%
X189283900Y-113666800D03*
X181822300Y-127221400D03*
%TO.N,/ANA1-VCC*%
X110108700Y-124700600D03*
%TO.N,/ANA1-GND*%
X114537200Y-125272700D03*
%TO.N,/ANA1-SIG*%
X201617200Y-127555900D03*
X207505900Y-111183600D03*
%TO.N,/SDA*%
X213181300Y-55557000D03*
X166700500Y-89856800D03*
X167747000Y-83500100D03*
X179207100Y-78080100D03*
X222181900Y-65043900D03*
X175149600Y-78901700D03*
X214492300Y-50430000D03*
X223572900Y-77526900D03*
X126311100Y-58376000D03*
X213181300Y-61748400D03*
X120989400Y-92373800D03*
X154957800Y-55536800D03*
X156456600Y-61290400D03*
%TO.N,/SCL*%
X220175100Y-68693600D03*
X177885800Y-82026800D03*
X154274800Y-62766900D03*
X171993000Y-85830900D03*
X100135300Y-93382300D03*
X214431400Y-53191800D03*
X128641300Y-77202400D03*
X161298700Y-85618300D03*
X222004000Y-68592400D03*
X125416100Y-90378200D03*
X157167300Y-75411400D03*
X145990100Y-53942600D03*
X153861700Y-75187100D03*
X161398100Y-84164400D03*
X98736800Y-91777400D03*
%TO.N,/ANA2-VCC*%
X126653900Y-125705900D03*
%TO.N,/ANA2-GND*%
X131414300Y-124687300D03*
%TO.N,/ANA3-VCC*%
X139125300Y-124674000D03*
%TO.N,/ANA3-GND*%
X144881000Y-124740600D03*
%TO.N,/ANA3-SIG*%
X180724000Y-127814500D03*
X185255700Y-120826000D03*
X214007700Y-121425200D03*
X153861700Y-128644100D03*
X216327300Y-114635900D03*
%TO.N,/ANA4-VCC*%
X156924300Y-125272700D03*
%TO.N,/ANA4-GND*%
X162028700Y-126087100D03*
%TO.N,/ANA4-SIG*%
X182205400Y-109209200D03*
%TO.N,/ANA5-VCC*%
X169604900Y-126147100D03*
%TO.N,/ANA5-GND*%
X176093100Y-126100400D03*
%TO.N,/ANA6-VCC*%
X185180000Y-125644800D03*
%TO.N,/ANA6-GND*%
X190330400Y-126093800D03*
%TO.N,/ANA6-SIG*%
X197155500Y-112892500D03*
%TO.N,/ANA7-VCC*%
X199641600Y-126395100D03*
%TO.N,/ANA7-GND*%
X200283100Y-125335600D03*
X208962900Y-144948200D03*
%TO.N,/ANA7-SIG*%
X210180400Y-113170100D03*
%TO.N,/ANA5-SIG*%
X182463000Y-120328900D03*
%TO.N,/ANA2-SIG*%
X177476500Y-113467400D03*
X166471000Y-134858500D03*
%TO.N,GND*%
X153670000Y-109472900D03*
X154457360Y-102214000D03*
X145760400Y-126815300D03*
X138158600Y-69877200D03*
X137803200Y-93791900D03*
X115123900Y-88929100D03*
X137876500Y-88649300D03*
X104085700Y-125514100D03*
X187109100Y-126416600D03*
X213879400Y-119143600D03*
X215782300Y-104140000D03*
X173001100Y-126537000D03*
X130744000Y-82602900D03*
X115765500Y-125540400D03*
X102484000Y-81326000D03*
X208992700Y-54864000D03*
X213360000Y-105664000D03*
X102841600Y-58166000D03*
X138223100Y-83097600D03*
X221234000Y-62484000D03*
X111941600Y-69596000D03*
X132573900Y-126113800D03*
X193951000Y-125474900D03*
X158418900Y-125272700D03*
X149423300Y-105597200D03*
X149804200Y-89150800D03*
X115110600Y-93764300D03*
X115357900Y-84484500D03*
X156453400Y-57866400D03*
%TO.N,Net-(U2-~{E})*%
X120973400Y-57696000D03*
X120973400Y-55439200D03*
%TO.N,Net-(JP2-A)*%
X161801200Y-86852500D03*
X161843000Y-89856800D03*
%TO.N,/A0*%
X134069400Y-61872500D03*
X148496500Y-94351500D03*
%TO.N,/CH2_GND*%
X84268100Y-64890400D03*
%TO.N,/CH3_GND*%
X104806700Y-68354900D03*
X100703000Y-77451900D03*
%TO.N,/CH4_GND*%
X84265600Y-84922000D03*
X102926300Y-69990700D03*
X98945500Y-82634000D03*
%TO.N,/CH5_GND*%
X104990100Y-75400700D03*
X105599600Y-72057800D03*
X86953100Y-80133000D03*
%TO.N,/CH6_GND*%
X111664000Y-73342000D03*
X104382000Y-108348500D03*
X83991000Y-110376400D03*
%TO.N,/CH7_GND*%
X97669100Y-83367000D03*
X98060000Y-74592400D03*
X90411600Y-83367000D03*
%TO.N,/CH8_GND*%
X103974700Y-109533900D03*
X91607300Y-110250400D03*
X110567900Y-74330700D03*
%TO.N,/EN_LTC*%
X209535400Y-51578600D03*
X211713100Y-55669100D03*
%TO.N,/PCF1_A2*%
X137320800Y-86234600D03*
X137266800Y-90382800D03*
%TO.N,/PCF2_A1*%
X109856200Y-93090200D03*
X110410400Y-91254900D03*
%TO.N,/PCF2_A2*%
X110408400Y-87397900D03*
X109286100Y-91139900D03*
%TO.N,/mosfet10*%
X102696300Y-121337600D03*
X103048200Y-90896000D03*
%TO.N,/mosfet0*%
X106055600Y-97728600D03*
X102080900Y-122433500D03*
%TO.N,/mosfet1*%
X122407800Y-122607500D03*
X127083500Y-93064200D03*
%TO.N,/mosfet11*%
X113497500Y-124176800D03*
X108298800Y-89768400D03*
%TO.N,/mosfet2*%
X127886000Y-90990100D03*
X126311100Y-122647000D03*
%TO.N,/mosfet12*%
X121866700Y-124699800D03*
X111534600Y-89488700D03*
%TO.N,/mosfet3*%
X134854000Y-123711000D03*
X134854000Y-85956500D03*
%TO.N,/mosfet13*%
X107872500Y-86833800D03*
X107571900Y-116464400D03*
%TO.N,/mosfet4*%
X125557000Y-84737900D03*
X133448300Y-119486400D03*
%TO.N,/mosfet14*%
X97338700Y-101662100D03*
X97531000Y-84599500D03*
X115264400Y-117069600D03*
X112097700Y-101662100D03*
%TO.N,/mosfet5*%
X125889400Y-86453500D03*
X132721400Y-117522000D03*
%TO.N,/mosfet15*%
X101884400Y-117402500D03*
X98217500Y-86243300D03*
%TO.N,/mosfet6*%
X153974000Y-121225300D03*
X149925900Y-112421100D03*
X125979300Y-88872700D03*
X126673000Y-109532300D03*
%TO.N,/mosfet16*%
X99108600Y-87450400D03*
X102433300Y-113469000D03*
%TO.N,/mosfet17*%
X101986600Y-112346500D03*
X99543600Y-89906700D03*
%TO.N,/mosfet7*%
X121340300Y-89118700D03*
X126309500Y-113467400D03*
%TO.N,Net-(U4-~{E})*%
X118529200Y-68433900D03*
X118529200Y-72941000D03*
%TO.N,VSS*%
X160500600Y-108532700D03*
X158444700Y-93150500D03*
X158658600Y-88654600D03*
X157922600Y-106857100D03*
%TO.N,EN*%
X153162000Y-103124000D03*
X157226000Y-102616000D03*
%TO.N,PS*%
X152656900Y-110595400D03*
X154410300Y-104764600D03*
%TO.N,/SCL_ADS*%
X159278900Y-84499600D03*
X157235300Y-81661000D03*
X155633200Y-91580400D03*
%TO.N,/SDA_ADS*%
X162330700Y-91059700D03*
X155311800Y-93187700D03*
X164905200Y-82947000D03*
X156470000Y-85921700D03*
%TD*%
D55*
%TO.N,/pin3*%
X198887000Y-92451000D02*
X201427000Y-92451000D01*
%TO.N,/pin5*%
X112918000Y-66576900D02*
X113185500Y-66309400D01*
X197522400Y-86006400D02*
X198887000Y-87371000D01*
X112066900Y-54987500D02*
X112919800Y-54134600D01*
X180576200Y-86006400D02*
X197522400Y-86006400D01*
X217956000Y-115680200D02*
X215552000Y-115680200D01*
X201427000Y-87371000D02*
X198887000Y-87371000D01*
X112919800Y-54134600D02*
X112919800Y-53090500D01*
X205388700Y-115045300D02*
X205216000Y-114872600D01*
X113185500Y-66309400D02*
X113185500Y-64960600D01*
X171612400Y-75387800D02*
X171956100Y-75387800D01*
X214917100Y-115045300D02*
X205388700Y-115045300D01*
X176727200Y-82157400D02*
X180576200Y-86006400D01*
X118488300Y-74165300D02*
X170389900Y-74165300D01*
X170389900Y-74165300D02*
X171612400Y-75387800D01*
X215552000Y-115680200D02*
X214917100Y-115045300D01*
%TO.N,/pin6*%
X171154200Y-70736700D02*
X137020600Y-70736700D01*
X172777900Y-69113000D02*
X171154200Y-70736700D01*
X197522400Y-83466400D02*
X198887000Y-84831000D01*
X114188000Y-66576900D02*
X114188000Y-63911900D01*
X114189800Y-50926200D02*
X114801900Y-50314100D01*
X214631300Y-116950200D02*
X214003800Y-117577700D01*
X179204600Y-83466400D02*
X197522400Y-83466400D01*
X114189800Y-53090500D02*
X114189800Y-50926200D01*
X201427000Y-84831000D02*
X198887000Y-84831000D01*
X120925600Y-63911900D02*
X114188000Y-63911900D01*
X114107100Y-63340800D02*
X114107100Y-63831000D01*
X137020600Y-70736700D02*
X133538800Y-67254900D01*
X217956000Y-116950200D02*
X214631300Y-116950200D01*
X133538800Y-67254900D02*
X124268600Y-67254900D01*
X114107100Y-63831000D02*
X114188000Y-63911900D01*
X210872600Y-117577700D02*
X210697400Y-117402500D01*
X178844800Y-83106600D02*
X179204600Y-83466400D01*
X124268600Y-67254900D02*
X120925600Y-63911900D01*
X214003800Y-117577700D02*
X210872600Y-117577700D01*
%TO.N,/pin7*%
X115459800Y-54966300D02*
X115459800Y-53090500D01*
X176218500Y-76016200D02*
X174986000Y-77248700D01*
X170848800Y-73596300D02*
X122477400Y-73596300D01*
X215808400Y-118220200D02*
X215593600Y-118005400D01*
X217956000Y-118220200D02*
X215808400Y-118220200D01*
X115481000Y-54987500D02*
X115459800Y-54966300D01*
X195408600Y-76016200D02*
X176218500Y-76016200D01*
X196612300Y-77219900D02*
X195408600Y-76016200D01*
X122477400Y-73596300D02*
X115458000Y-66576900D01*
X201427000Y-82291000D02*
X198887000Y-82291000D01*
X171076500Y-73824000D02*
X170848800Y-73596300D01*
X115458000Y-65074900D02*
X115028600Y-64645500D01*
X115458000Y-66576900D02*
X115458000Y-65074900D01*
%TO.N,/pin8*%
X198887000Y-79751000D02*
X201427000Y-79751000D01*
%TO.N,/pin9*%
X198887000Y-77211000D02*
X201427000Y-77211000D01*
%TO.N,/pin10*%
X198887000Y-74671000D02*
X201427000Y-74671000D01*
%TO.N,/pin11*%
X198887000Y-72131000D02*
X201427000Y-72131000D01*
%TO.N,/pin12*%
X198887000Y-69591000D02*
X201427000Y-69591000D01*
%TO.N,/pin13*%
X221877400Y-113210100D02*
X223073500Y-112014000D01*
X220733300Y-113210100D02*
X221877400Y-113210100D01*
X198887000Y-67051000D02*
X201427000Y-67051000D01*
%TO.N,/pin14*%
X123128500Y-53594000D02*
X121747100Y-53594000D01*
X201427000Y-64511000D02*
X198887000Y-64511000D01*
X177247800Y-65725200D02*
X171784400Y-71188600D01*
X122462200Y-67405700D02*
X121716600Y-67405700D01*
X171784400Y-71188600D02*
X136833400Y-71188600D01*
X121747100Y-53594000D02*
X121666000Y-53675100D01*
X133716800Y-68072000D02*
X123128500Y-68072000D01*
X197672800Y-65725200D02*
X177247800Y-65725200D01*
X136833400Y-71188600D02*
X133716800Y-68072000D01*
X121716600Y-67405700D02*
X121716600Y-67405600D01*
X123128500Y-68072000D02*
X122462200Y-67405700D01*
X198887000Y-64511000D02*
X197672800Y-65725200D01*
%TO.N,/pin16*%
X181112000Y-61966000D02*
X183652000Y-61966000D01*
%TO.N,+3V3*%
X124514900Y-66120900D02*
X119862000Y-61468000D01*
X172720000Y-74439500D02*
X170026500Y-71746000D01*
X170026500Y-71746000D02*
X134182700Y-71746000D01*
X178064000Y-67046000D02*
X181112000Y-67046000D01*
X156523000Y-94226000D02*
X166124000Y-94226000D01*
X181112000Y-67046000D02*
X183652000Y-67046000D01*
X166124000Y-94226000D02*
X172720000Y-87630000D01*
X172720000Y-87630000D02*
X172720000Y-72390000D01*
X130275200Y-66120900D02*
X124514900Y-66120900D01*
X172720000Y-72390000D02*
X178064000Y-67046000D01*
%TO.N,/pin20*%
X164468500Y-95406200D02*
X152903200Y-95406200D01*
X180268400Y-98719900D02*
X178785000Y-97236500D01*
X212956000Y-111925300D02*
X200160800Y-111925300D01*
X212956000Y-111925300D02*
X213300500Y-112269800D01*
X152903200Y-95406200D02*
X152223000Y-94726000D01*
X213300500Y-112269800D02*
X216210400Y-112269800D01*
X181112000Y-72126000D02*
X183652000Y-72126000D01*
X178785000Y-97236500D02*
X167000800Y-97236500D01*
X212956000Y-111870200D02*
X212956000Y-111925300D01*
X164819500Y-95055200D02*
X164468500Y-95406200D01*
X185909000Y-97765300D02*
X184954400Y-98719900D01*
X184954400Y-98719900D02*
X180268400Y-98719900D01*
X200160800Y-111925300D02*
X199395100Y-111159600D01*
%TO.N,/pin21*%
X181112000Y-74666000D02*
X183652000Y-74666000D01*
%TO.N,/pin22*%
X181112000Y-77206000D02*
X183652000Y-77206000D01*
%TO.N,/pin25*%
X181112000Y-84826000D02*
X183652000Y-84826000D01*
D56*
%TO.N,+5V*%
X143694100Y-125624000D02*
X144686700Y-126616600D01*
X165168000Y-81092000D02*
X163593000Y-79517000D01*
X156922000Y-90017300D02*
X153611000Y-90017300D01*
X218603100Y-142882000D02*
X218051500Y-142330400D01*
X217956000Y-109330000D02*
X217956000Y-109330200D01*
X126934000Y-82536900D02*
X127000000Y-82602900D01*
X174150400Y-89906000D02*
X173858500Y-90197900D01*
X166816900Y-126975000D02*
X166816900Y-125704000D01*
X166816900Y-126975000D02*
X153853300Y-126975000D01*
X110710500Y-126429200D02*
X123267900Y-126429200D01*
X212268000Y-49530000D02*
X213068000Y-49530000D01*
X141499600Y-84403000D02*
X142748000Y-84403000D01*
X154432000Y-94801000D02*
X156523000Y-94801000D01*
X202303900Y-125664000D02*
X202370000Y-125664000D01*
X116568800Y-84657000D02*
X116568800Y-84486600D01*
X153611000Y-90678000D02*
X154373000Y-91440000D01*
X153853300Y-126975000D02*
X152595600Y-125717300D01*
X210564100Y-50433900D02*
X211468000Y-49530000D01*
D57*
X156447600Y-94801400D02*
X156523000Y-94726000D01*
D56*
X98724000Y-62656000D02*
X98596400Y-62656000D01*
X217424000Y-102240000D02*
X218599000Y-103415000D01*
X153419000Y-84074000D02*
X153419000Y-87184000D01*
X157074700Y-90170000D02*
X156922000Y-90017300D01*
X157988000Y-51388200D02*
X157884500Y-51491700D01*
X154373000Y-94742000D02*
X154432000Y-94801000D01*
X135057300Y-51440200D02*
X140426200Y-51440200D01*
X98618000Y-51750000D02*
X99822000Y-50546000D01*
X160507500Y-104374500D02*
X160508000Y-104374000D01*
X96692800Y-94401600D02*
X97531000Y-94401600D01*
X181337900Y-125530600D02*
X183111900Y-127304600D01*
X184800000Y-91054000D02*
X188976000Y-91054000D01*
X140426200Y-51440200D02*
X152155400Y-51440200D01*
X153842400Y-94351000D02*
X153982000Y-94351000D01*
X106569800Y-52678300D02*
X106569800Y-53090500D01*
X160507500Y-104374500D02*
X160507500Y-101440500D01*
X122889900Y-93875000D02*
X123174800Y-94159900D01*
X162018000Y-81092000D02*
X163593000Y-79517000D01*
X126934000Y-81003200D02*
X127834800Y-81003200D01*
X106553000Y-52661500D02*
X106569800Y-52678300D01*
X152172500Y-126140400D02*
X146816700Y-126140400D01*
X118110000Y-84657000D02*
X116568800Y-84657000D01*
X100584000Y-91145400D02*
X100584000Y-83098600D01*
X165072400Y-58576900D02*
X165326500Y-58576900D01*
X149224800Y-100926500D02*
X149476400Y-100674900D01*
X218421000Y-102418000D02*
X218421000Y-100772000D01*
X165624000Y-101114500D02*
X160181500Y-101114500D01*
X117204200Y-92969200D02*
X115985700Y-92969200D01*
X166336000Y-81092000D02*
X165168000Y-81092000D01*
X154373000Y-93726000D02*
X154373000Y-94742000D01*
X98618000Y-53340000D02*
X98618000Y-51750000D01*
X181112000Y-89906000D02*
X174150400Y-89906000D01*
X104902000Y-50546000D02*
X106553000Y-52197000D01*
X147225000Y-109848000D02*
X145989800Y-109848000D01*
X223901000Y-62480000D02*
X224917000Y-61464000D01*
X207848000Y-53452000D02*
X210616800Y-53452000D01*
X97327800Y-94401600D02*
X100584000Y-91145400D01*
X218599000Y-103415000D02*
X218599000Y-108687200D01*
X213868000Y-49530000D02*
X215858700Y-49530000D01*
X142748000Y-93764000D02*
X141424500Y-93764000D01*
X183652000Y-89906000D02*
X184800000Y-91054000D01*
X167234600Y-127392700D02*
X166816900Y-126975000D01*
X129872800Y-81019800D02*
X141113100Y-81019800D01*
X138374400Y-125624000D02*
X143694100Y-125624000D01*
X141092300Y-89266000D02*
X141042200Y-89316100D01*
X160332400Y-101114500D02*
X160181500Y-101114500D01*
X211634400Y-108458000D02*
X211760500Y-108331900D01*
X171066400Y-101114500D02*
X165624000Y-101114500D01*
X116568800Y-84486600D02*
X114022000Y-81939800D01*
X157988000Y-49784000D02*
X160152000Y-49784000D01*
X98684000Y-71374000D02*
X98684000Y-71925700D01*
X133665500Y-52832000D02*
X135057300Y-51440200D01*
X127000000Y-91133100D02*
X123973200Y-94159900D01*
X160332900Y-101114000D02*
X160332400Y-101114500D01*
X157074700Y-90439500D02*
X157074700Y-90170000D01*
X127000000Y-91133100D02*
X127000000Y-82602900D01*
X160507500Y-101440500D02*
X160181500Y-101114500D01*
X141424500Y-93764000D02*
X141042200Y-93381700D01*
X98684000Y-66294000D02*
X98684000Y-64384000D01*
X181038100Y-125530600D02*
X179176000Y-127392700D01*
X123175000Y-94159900D02*
X123174800Y-94159900D01*
X154739100Y-101114500D02*
X160181500Y-101114500D01*
X160152000Y-51186000D02*
X160782000Y-51816000D01*
X225044000Y-142882000D02*
X218603100Y-142882000D01*
X213068000Y-49530000D02*
X213868000Y-49530000D01*
X153611000Y-87376000D02*
X153611000Y-90678000D01*
X99568000Y-63500000D02*
X104902000Y-63500000D01*
X98618000Y-53340000D02*
X98618000Y-58166000D01*
X224917000Y-61464000D02*
X225681000Y-61464000D01*
X106553000Y-52197000D02*
X106553000Y-53126000D01*
X207706000Y-50433900D02*
X210564100Y-50433900D01*
X141113100Y-81019800D02*
X142054300Y-81961000D01*
X164084000Y-59944000D02*
X165735000Y-61595000D01*
X157074700Y-90170000D02*
X158974000Y-90170000D01*
X211468000Y-49530000D02*
X212268000Y-49530000D01*
X98684000Y-66294000D02*
X98684000Y-71374000D01*
X163322000Y-51816000D02*
X164084000Y-52578000D01*
X218599000Y-108687200D02*
X217956000Y-109330200D01*
X171066400Y-101114400D02*
X171066000Y-101114000D01*
X160152000Y-49784000D02*
X160152000Y-51186000D01*
X207706000Y-53594000D02*
X207848000Y-53452000D01*
X123267900Y-126429200D02*
X124153100Y-125544000D01*
X161859500Y-81250500D02*
X160671700Y-81250500D01*
X100574000Y-81315600D02*
X100453600Y-81436000D01*
X183111900Y-127304600D02*
X200663300Y-127304600D01*
X98433500Y-56951600D02*
X97454800Y-57930300D01*
X98618000Y-56951600D02*
X98433500Y-56951600D01*
X95710600Y-125517300D02*
X96564200Y-126370900D01*
X215858700Y-49530000D02*
X216834500Y-50505800D01*
X154373000Y-91440000D02*
X154373000Y-93726000D01*
X179176000Y-127392700D02*
X167234600Y-127392700D01*
X147889500Y-110512500D02*
X147225000Y-109848000D01*
X106568000Y-65166000D02*
X106568000Y-66576900D01*
X205913800Y-129207800D02*
X202370000Y-125664000D01*
X181038100Y-125530600D02*
X181337900Y-125530600D01*
X164084000Y-52578000D02*
X164084000Y-59944000D01*
X118110000Y-89192000D02*
X116318200Y-89192000D01*
X212898700Y-129207800D02*
X205913800Y-129207800D01*
X109931900Y-125650600D02*
X110710500Y-126429200D01*
X116568800Y-84657000D02*
X115609300Y-85616500D01*
X153982000Y-94351000D02*
X154373000Y-94742000D01*
X153419000Y-87184000D02*
X153611000Y-87376000D01*
X213868000Y-102240000D02*
X217424000Y-102240000D01*
X99822000Y-50546000D02*
X104902000Y-50546000D01*
X141241900Y-84660700D02*
X141499600Y-84403000D01*
X123973200Y-94159900D02*
X123174800Y-94159900D01*
X164084000Y-57588500D02*
X165072400Y-58576900D01*
X142748000Y-89266000D02*
X141092300Y-89266000D01*
X157988000Y-49784000D02*
X157988000Y-51388200D01*
X98684000Y-71925700D02*
X100351600Y-73593300D01*
X98684000Y-64384000D02*
X99568000Y-63500000D01*
X154739100Y-101114500D02*
X154739100Y-101114000D01*
X114022000Y-81939800D02*
X106679000Y-81939800D01*
X152595600Y-125717300D02*
X152172500Y-126140400D01*
X162018000Y-81092000D02*
X161859500Y-81250500D01*
X160782000Y-51816000D02*
X163322000Y-51816000D01*
X165735000Y-61595000D02*
X167977000Y-61595000D01*
X100453600Y-81436000D02*
X100453600Y-81458100D01*
X183652000Y-89906000D02*
X181112000Y-89906000D01*
X152155400Y-51440200D02*
X155045700Y-54330500D01*
X217601100Y-108331900D02*
X218277600Y-109008400D01*
X137004900Y-126993500D02*
X138374400Y-125624000D01*
X118110000Y-93875000D02*
X117204200Y-92969200D01*
X116318200Y-89192000D02*
X115984500Y-89525700D01*
X156799800Y-101114000D02*
X156458900Y-100773100D01*
X193294000Y-91054000D02*
X188976000Y-91054000D01*
X173650500Y-100883300D02*
X173419300Y-101114500D01*
X165624000Y-101114500D02*
X165624000Y-101114000D01*
X100574000Y-79542600D02*
X100574000Y-83088600D01*
X96564200Y-126370900D02*
X109211600Y-126370900D01*
X104902000Y-63500000D02*
X106568000Y-65166000D01*
X218011500Y-102827500D02*
X218421000Y-102418000D01*
X200663300Y-127304600D02*
X202303900Y-125664000D01*
X148013900Y-100926500D02*
X149224800Y-100926500D01*
X99568000Y-63500000D02*
X98724000Y-62656000D01*
X118110000Y-93875000D02*
X122889900Y-93875000D01*
X171066400Y-101114500D02*
X171066400Y-101114400D01*
X207706000Y-50038000D02*
X207706000Y-53594000D01*
X211760500Y-108331900D02*
X217601100Y-108331900D01*
X125602600Y-126993500D02*
X137004900Y-126993500D01*
X173419300Y-101114500D02*
X171066400Y-101114500D01*
X124153100Y-125544000D02*
X125602600Y-126993500D01*
X109211600Y-126370900D02*
X109931900Y-125650600D01*
X163593000Y-79517000D02*
X162999100Y-78923100D01*
X140426200Y-52832000D02*
X140426200Y-51440200D01*
X126934000Y-79046900D02*
X126934000Y-82536900D01*
D55*
%TO.N,/pin28*%
X181112000Y-92446000D02*
X183652000Y-92446000D01*
%TO.N,/pin30*%
X181112000Y-97526000D02*
X183652000Y-97526000D01*
%TO.N,/CH1*%
X82296000Y-55372000D02*
X88138000Y-49530000D01*
X110379800Y-51705800D02*
X110379800Y-53090500D01*
X88138000Y-49530000D02*
X108204000Y-49530000D01*
X108204000Y-49530000D02*
X110379800Y-51705800D01*
%TO.N,/CH2*%
X107337600Y-55353200D02*
X109109800Y-53581000D01*
X99178600Y-61347400D02*
X83945300Y-61347400D01*
X102902300Y-55353200D02*
X107337600Y-55353200D01*
X109109800Y-53581000D02*
X109109800Y-53090500D01*
X102551700Y-55703800D02*
X102902300Y-55353200D01*
X99394400Y-61131600D02*
X99178600Y-61347400D01*
%TO.N,/CH3*%
X107839800Y-53623700D02*
X106766100Y-54697400D01*
X98288200Y-59569500D02*
X90940900Y-59569500D01*
X101452200Y-55775400D02*
X101452200Y-55885300D01*
X106766100Y-54697400D02*
X102530200Y-54697400D01*
X90940900Y-59569500D02*
X90888900Y-59621500D01*
X102530200Y-54697400D02*
X101452200Y-55775400D01*
X107839800Y-53090500D02*
X107839800Y-53623700D01*
%TO.N,/CH4*%
X111649800Y-53582100D02*
X111649800Y-53090500D01*
X89841800Y-81347400D02*
X89910600Y-81278600D01*
X83991000Y-81347400D02*
X89841800Y-81347400D01*
X110194200Y-55037700D02*
X111649800Y-53582100D01*
X108917400Y-55037700D02*
X110194200Y-55037700D01*
%TO.N,/pin1*%
X198887000Y-97531000D02*
X201427000Y-97531000D01*
%TO.N,/pin2*%
X198887000Y-94991000D02*
X201427000Y-94991000D01*
%TO.N,/pin26*%
X181112000Y-87366000D02*
X183652000Y-87366000D01*
%TO.N,/CH5*%
X100308700Y-59556700D02*
X105103600Y-59556700D01*
X105103600Y-59556700D02*
X106569800Y-58090500D01*
%TO.N,/CH7*%
X107839800Y-58500000D02*
X107839800Y-58090500D01*
X105582000Y-60757800D02*
X107839800Y-58500000D01*
X104387300Y-60757800D02*
X105582000Y-60757800D01*
%TO.N,/CH8*%
X110379800Y-58807400D02*
X110379800Y-58090500D01*
X106986300Y-62200900D02*
X110379800Y-58807400D01*
%TO.N,/CH6*%
X82953900Y-107894100D02*
X91782100Y-107894100D01*
X111520300Y-59717300D02*
X111649800Y-59587800D01*
X82296000Y-108552000D02*
X82953900Y-107894100D01*
X111649800Y-59587800D02*
X111649800Y-58090500D01*
%TO.N,/ANA0-VCC*%
X90574500Y-137160000D02*
X88796500Y-138938000D01*
X93952000Y-137160000D02*
X90574500Y-137160000D01*
X97810600Y-124567300D02*
X95926600Y-124567300D01*
%TO.N,/ANA0-GND*%
X101584900Y-124607300D02*
X101449800Y-124742400D01*
X94888000Y-141224000D02*
X98952000Y-137160000D01*
X88671500Y-141224000D02*
X94888000Y-141224000D01*
X104921200Y-124607300D02*
X101584900Y-124607300D01*
%TO.N,/ANA0-SIG*%
X217956000Y-113140200D02*
X217321000Y-113775200D01*
X211579400Y-113948100D02*
X205958600Y-113948100D01*
X181822300Y-127744200D02*
X181822300Y-127221400D01*
X205958600Y-113948100D02*
X205677300Y-113666800D01*
X211752300Y-113775200D02*
X211579400Y-113948100D01*
X205677300Y-113666800D02*
X189283900Y-113666800D01*
X103952000Y-137160000D02*
X110939100Y-130172900D01*
X110939100Y-130172900D02*
X179393600Y-130172900D01*
X179393600Y-130172900D02*
X181822300Y-127744200D01*
X217321000Y-113775200D02*
X211752300Y-113775200D01*
%TO.N,/ANA1-VCC*%
X112031900Y-124700600D02*
X110108700Y-124700600D01*
%TO.N,/ANA1-GND*%
X115082600Y-124727300D02*
X119142500Y-124727300D01*
X114537200Y-125272700D02*
X115082600Y-124727300D01*
%TO.N,/ANA1-SIG*%
X217956000Y-111870200D02*
X217319400Y-111233600D01*
X207555900Y-111233600D02*
X207505900Y-111183600D01*
X118952000Y-137160000D02*
X121980400Y-134131600D01*
X217319400Y-111233600D02*
X207555900Y-111233600D01*
X195041500Y-134131600D02*
X201617200Y-127555900D01*
X121980400Y-134131600D02*
X195041500Y-134131600D01*
%TO.N,/SDA*%
X222181900Y-65043900D02*
X218886500Y-61748500D01*
X99832300Y-94995200D02*
X101102300Y-93725200D01*
X95459200Y-94808000D02*
X95646400Y-94995200D01*
X111554700Y-93817100D02*
X113143300Y-92228500D01*
X175971200Y-78080100D02*
X175149600Y-78901700D01*
X95646400Y-94995200D02*
X99832300Y-94995200D01*
X179207100Y-78080100D02*
X175971200Y-78080100D01*
X109463300Y-93725200D02*
X109555200Y-93817100D01*
X113143300Y-92228500D02*
X120844100Y-92228500D01*
X184917100Y-78480900D02*
X211609600Y-78480900D01*
X165563700Y-89856800D02*
X165250500Y-90170000D01*
X95459200Y-93970800D02*
X95459200Y-94808000D01*
X223901000Y-66544000D02*
X224917000Y-65528000D01*
X212547200Y-54752000D02*
X212547200Y-54922900D01*
X166336000Y-82992000D02*
X167238900Y-82992000D01*
X214492300Y-50430000D02*
X213868000Y-51054300D01*
X109555200Y-93817100D02*
X111554700Y-93817100D01*
X136590500Y-52832000D02*
X139295300Y-55536800D01*
X212547200Y-54922900D02*
X213181300Y-55557000D01*
X120989400Y-92373800D02*
X122658700Y-92373800D01*
X167238900Y-82992000D02*
X167747000Y-83500100D01*
X224917000Y-65528000D02*
X225681000Y-65528000D01*
X131046500Y-58376000D02*
X136590500Y-52832000D01*
X122658700Y-92373800D02*
X123174800Y-92889900D01*
X183652000Y-79746000D02*
X184917100Y-78480900D01*
X156456600Y-61290400D02*
X158362400Y-61290400D01*
X213181300Y-61748500D02*
X213181300Y-61748400D01*
X139295300Y-55536800D02*
X154957800Y-55536800D01*
X158362400Y-61290400D02*
X158667000Y-61595000D01*
X218886500Y-61748500D02*
X213181300Y-61748500D01*
X213868000Y-51054300D02*
X213868000Y-51330000D01*
X120844100Y-92228500D02*
X120989400Y-92373800D01*
X212563500Y-77527000D02*
X223572900Y-77527000D01*
X96692800Y-93131600D02*
X96298400Y-93131600D01*
X126311100Y-58376000D02*
X131046500Y-58376000D01*
X223572900Y-77527000D02*
X223572900Y-77526900D01*
X181112000Y-79746000D02*
X183652000Y-79746000D01*
X211609600Y-78480900D02*
X212563500Y-77527000D01*
X166700500Y-89856800D02*
X165563700Y-89856800D01*
X96298400Y-93131600D02*
X95459200Y-93970800D01*
X101102300Y-93725200D02*
X109463300Y-93725200D01*
%TO.N,/SCL*%
X109555200Y-92363300D02*
X109463300Y-92455200D01*
X157167300Y-75411400D02*
X154086000Y-75411400D01*
X124174400Y-91619900D02*
X123174800Y-91619900D01*
X101062400Y-92455200D02*
X100135300Y-93382300D01*
X183652000Y-82286000D02*
X184917000Y-81021000D01*
X161398100Y-83611900D02*
X162018000Y-82992000D01*
X98652600Y-91861600D02*
X98736800Y-91777400D01*
X171993000Y-85830900D02*
X166033600Y-85830900D01*
X224665000Y-68576000D02*
X223901000Y-68576000D01*
X181112000Y-82286000D02*
X178145000Y-82286000D01*
X184917000Y-81021000D02*
X220637000Y-81021000D01*
X214170800Y-52931200D02*
X214431400Y-53191800D01*
X161298700Y-85618300D02*
X161367500Y-85549500D01*
X213068000Y-52931200D02*
X212547200Y-53452000D01*
X154372900Y-62865000D02*
X154274800Y-62766900D01*
X145990100Y-53942600D02*
X144461800Y-53942600D01*
X178145000Y-82286000D02*
X177885800Y-82026800D01*
X164186000Y-85549500D02*
X165250500Y-86614000D01*
X125416100Y-90378200D02*
X124174400Y-91619900D01*
X154086000Y-75411400D02*
X153861700Y-75187100D01*
X220276300Y-68592400D02*
X222004000Y-68592400D01*
X213068000Y-52931200D02*
X214170800Y-52931200D01*
X96692800Y-91861600D02*
X98652600Y-91861600D01*
X158667000Y-62865000D02*
X154372900Y-62865000D01*
X109463300Y-92455200D02*
X101062400Y-92455200D01*
X161367500Y-85549500D02*
X164186000Y-85549500D01*
X111084500Y-91619900D02*
X110341100Y-92363300D01*
X223901000Y-68576000D02*
X222020400Y-68576000D01*
X130656600Y-75187100D02*
X128641300Y-77202400D01*
X110341100Y-92363300D02*
X109555200Y-92363300D01*
X222020400Y-68576000D02*
X222004000Y-68592400D01*
X123174800Y-91619900D02*
X111084500Y-91619900D01*
X220637000Y-81021000D02*
X221996000Y-79662000D01*
X153861700Y-75187100D02*
X130656600Y-75187100D01*
X166033600Y-85830900D02*
X165250500Y-86614000D01*
X144461800Y-53942600D02*
X143351200Y-52832000D01*
X181112000Y-82286000D02*
X183652000Y-82286000D01*
X213068000Y-51330000D02*
X213068000Y-52931200D01*
X161398100Y-84164400D02*
X161398100Y-83611900D01*
X225681000Y-67560000D02*
X224665000Y-68576000D01*
X220175100Y-68693600D02*
X220276300Y-68592400D01*
%TO.N,Net-(D1-A)*%
X87096500Y-141224000D02*
X86971500Y-141099000D01*
X86971500Y-141099000D02*
X86971500Y-138938000D01*
%TO.N,+BATT*%
X152047500Y-62801500D02*
X152047200Y-62801500D01*
D56*
X149570700Y-65278000D02*
X154523700Y-60325000D01*
D55*
X152047200Y-62801500D02*
X149570700Y-65278000D01*
D56*
X154523700Y-60325000D02*
X158667000Y-60325000D01*
D55*
X144134300Y-59841600D02*
X149570700Y-65278000D01*
X133770700Y-65278000D02*
X139207100Y-59841600D01*
X139207100Y-59841600D02*
X144134300Y-59841600D01*
%TO.N,/ANA2-VCC*%
X126253100Y-125305100D02*
X126253100Y-124594000D01*
X126653900Y-125705900D02*
X126253100Y-125305100D01*
%TO.N,/ANA2-GND*%
X131414300Y-124687300D02*
X133363700Y-124687300D01*
%TO.N,/ANA3-VCC*%
X139125300Y-124674000D02*
X140474400Y-124674000D01*
%TO.N,/ANA3-GND*%
X147585000Y-124740600D02*
X144881000Y-124740600D01*
%TO.N,/ANA3-SIG*%
X217956000Y-114410200D02*
X216553000Y-114410200D01*
X180724000Y-127814500D02*
X179894400Y-128644100D01*
X214007700Y-121425200D02*
X213408500Y-120826000D01*
X216553000Y-114410200D02*
X216327300Y-114635900D01*
X213408500Y-120826000D02*
X185255700Y-120826000D01*
X179894400Y-128644100D02*
X153861700Y-128644100D01*
%TO.N,/ANA4-VCC*%
X154695600Y-124767300D02*
X156418900Y-124767300D01*
X156418900Y-124767300D02*
X156924300Y-125272700D01*
%TO.N,/ANA4-GND*%
X162028700Y-126087100D02*
X161806200Y-125864600D01*
X161806200Y-125864600D02*
X161806200Y-124634000D01*
%TO.N,/ANA4-SIG*%
X212956000Y-109330200D02*
X182326400Y-109330200D01*
X182326400Y-109330200D02*
X182205400Y-109209200D01*
%TO.N,/ANA5-VCC*%
X169604900Y-126147100D02*
X168916900Y-125459100D01*
X168916900Y-125459100D02*
X168916900Y-124754000D01*
%TO.N,/ANA5-GND*%
X176027500Y-126034800D02*
X176027500Y-124660600D01*
X176093100Y-126100400D02*
X176027500Y-126034800D01*
%TO.N,/ANA6-VCC*%
X183138100Y-124580600D02*
X184202200Y-125644700D01*
X184202200Y-125644700D02*
X185180000Y-125644700D01*
X185180000Y-125644700D02*
X185180000Y-125644800D01*
%TO.N,/ANA6-GND*%
X190330400Y-126093800D02*
X190248700Y-126012100D01*
X190248700Y-126012100D02*
X190248700Y-124647300D01*
%TO.N,/ANA6-SIG*%
X212788500Y-110432700D02*
X199094100Y-110432700D01*
X199094100Y-110432700D02*
X197155500Y-112371300D01*
X197155500Y-112371300D02*
X197155500Y-112892500D01*
X212956000Y-110600200D02*
X212788500Y-110432700D01*
%TO.N,/ANA7-VCC*%
X201010100Y-125536900D02*
X201833000Y-124714000D01*
X201833000Y-124714000D02*
X204470000Y-124714000D01*
X201010100Y-125703000D02*
X201010100Y-125536900D01*
X200318000Y-126395100D02*
X201010100Y-125703000D01*
X204752000Y-141732000D02*
X200180000Y-137160000D01*
X199641600Y-126395100D02*
X200318000Y-126395100D01*
X214962000Y-141732000D02*
X204752000Y-141732000D01*
%TO.N,/ANA7-GND*%
X200283100Y-125335600D02*
X198074400Y-125335600D01*
X198074400Y-125335600D02*
X197359400Y-124620600D01*
X209048700Y-145034000D02*
X208962900Y-144948200D01*
X215087000Y-145034000D02*
X209048700Y-145034000D01*
%TO.N,/ANA7-SIG*%
X212956000Y-113140200D02*
X210210300Y-113140200D01*
X210210300Y-113140200D02*
X210180400Y-113170100D01*
%TO.N,/ANA5-SIG*%
X204915000Y-114145700D02*
X204650500Y-114410200D01*
X188381700Y-114410200D02*
X182463000Y-120328900D01*
X205781600Y-114410200D02*
X205517100Y-114145700D01*
X204650500Y-114410200D02*
X188381700Y-114410200D01*
X212956000Y-114410200D02*
X205781600Y-114410200D01*
X205517100Y-114145700D02*
X204915000Y-114145700D01*
%TO.N,/ANA2-SIG*%
X217321000Y-109965200D02*
X217956000Y-110600200D01*
X177476500Y-113467400D02*
X180978700Y-109965200D01*
X136253500Y-134858500D02*
X166471000Y-134858500D01*
X180978700Y-109965200D02*
X217321000Y-109965200D01*
X133952000Y-137160000D02*
X136253500Y-134858500D01*
D56*
%TO.N,GND*%
X165624000Y-99214500D02*
X171066400Y-99214500D01*
X157642001Y-59055000D02*
X158667000Y-59055000D01*
X128900000Y-79112900D02*
X128834000Y-79046900D01*
X138798300Y-88649300D02*
X139192000Y-89043000D01*
X160181500Y-99214500D02*
X165624000Y-99214500D01*
X115062000Y-56134000D02*
X115443000Y-56515000D01*
X105664000Y-69596000D02*
X109220000Y-69596000D01*
X100584000Y-68636000D02*
X100584000Y-66294000D01*
D55*
X159682501Y-105774500D02*
X159512000Y-105603999D01*
D56*
X148785000Y-91081400D02*
X150068100Y-91081400D01*
X137803200Y-93791900D02*
X138864600Y-93791900D01*
X102474000Y-79542600D02*
X102474000Y-83088600D01*
X102864400Y-125514100D02*
X102821200Y-125557300D01*
X103830200Y-83098600D02*
X106243200Y-85511600D01*
X132573900Y-126113800D02*
X131740200Y-126113800D01*
X100518000Y-58166000D02*
X103124000Y-58166000D01*
X115458000Y-70576901D02*
X115458000Y-71576900D01*
X188976000Y-89154000D02*
X193294000Y-89154000D01*
X145760400Y-125966000D02*
X145485000Y-125690600D01*
X138223100Y-83097600D02*
X139192000Y-84066500D01*
X102484000Y-83098600D02*
X103830200Y-83098600D01*
X148785000Y-93218000D02*
X149293000Y-93726000D01*
X187329400Y-126416600D02*
X188148700Y-125597300D01*
D57*
X159004000Y-104121000D02*
X159257500Y-104374500D01*
D56*
X103124000Y-58166000D02*
X105156000Y-56134000D01*
X156784000Y-48006000D02*
X161610000Y-48006000D01*
X166080700Y-111882000D02*
X171524000Y-111882000D01*
X114008600Y-88929100D02*
X113792000Y-88712500D01*
X154046000Y-111882000D02*
X153670000Y-111506000D01*
D55*
X159882500Y-105774500D02*
X159757500Y-105899500D01*
D56*
X132725200Y-84927200D02*
X132725200Y-85269900D01*
X159004000Y-111925500D02*
X159047500Y-111882000D01*
X100584000Y-71374000D02*
X103886000Y-71374000D01*
X115123900Y-88929100D02*
X114008600Y-88929100D01*
X102474000Y-81315600D02*
X102484000Y-81325600D01*
X145760400Y-126815300D02*
X145760400Y-125966000D01*
X195585000Y-89911000D02*
X198887000Y-89911000D01*
X131740200Y-126113800D02*
X131263700Y-125637300D01*
X105036500Y-84305100D02*
X105036700Y-84305100D01*
X128900000Y-82602900D02*
X128900000Y-79112900D01*
X115443000Y-57320500D02*
X115459800Y-57337300D01*
X149293000Y-93726000D02*
X151071000Y-93726000D01*
X114348300Y-93764300D02*
X113792000Y-93208000D01*
D55*
X159512000Y-105603999D02*
X159512000Y-104902000D01*
D56*
X173927500Y-125610600D02*
X173001100Y-126537000D01*
X148785000Y-90170000D02*
X148785000Y-93218000D01*
X153670000Y-111506000D02*
X153670000Y-109220000D01*
X158750000Y-103867000D02*
X156110360Y-103867000D01*
X221873000Y-62484000D02*
X223901000Y-64512000D01*
X193951000Y-125474900D02*
X195163700Y-125474900D01*
X155194000Y-111882000D02*
X158960500Y-111882000D01*
X105156000Y-56134000D02*
X115062000Y-56134000D01*
X115110600Y-93764300D02*
X114348300Y-93764300D01*
X150068100Y-91081400D02*
X150368000Y-90781500D01*
X171066000Y-99214500D02*
X171066400Y-99214500D01*
D55*
X160582500Y-105774500D02*
X159882500Y-105774500D01*
D56*
X141670700Y-66365100D02*
X141670700Y-65278000D01*
X150302700Y-105597200D02*
X150590000Y-105884500D01*
X153416000Y-101854000D02*
X153416000Y-100537600D01*
X213360000Y-105664000D02*
X213360000Y-104648000D01*
X194818000Y-89154000D02*
X195580000Y-89916000D01*
X154739100Y-99214500D02*
X158396500Y-99214500D01*
X187109100Y-126416600D02*
X187329400Y-126416600D01*
X213868000Y-104140000D02*
X217424000Y-104140000D01*
D55*
X159757500Y-107474500D02*
X159757500Y-107174500D01*
D56*
X132725200Y-85269900D02*
X132725200Y-84584100D01*
D55*
X209042000Y-54864000D02*
X209804000Y-54102000D01*
X159257500Y-104647500D02*
X159257500Y-104374500D01*
D56*
X159047500Y-111882000D02*
X160637300Y-111882000D01*
X114477099Y-69596000D02*
X115458000Y-70576901D01*
X154351360Y-102108000D02*
X153670000Y-102108000D01*
X149417000Y-86132000D02*
X150661000Y-87376000D01*
D55*
X159512000Y-104902000D02*
X159257500Y-104647500D01*
D56*
X193294000Y-89154000D02*
X194818000Y-89154000D01*
X155194000Y-111882000D02*
X154046000Y-111882000D01*
X149417000Y-84074000D02*
X149417000Y-86132000D01*
X156088000Y-49784000D02*
X156088000Y-48702000D01*
D55*
X158750000Y-103867000D02*
X159257500Y-104374500D01*
D56*
X156088000Y-49784000D02*
X156088000Y-57500999D01*
D55*
X157845900Y-108466000D02*
X158766000Y-108466000D01*
D56*
X150661000Y-88294000D02*
X148785000Y-90170000D01*
D55*
X210616800Y-54102000D02*
X212547200Y-54102000D01*
D56*
X158960500Y-111882000D02*
X159004000Y-111925500D01*
D55*
X158766000Y-108466000D02*
X159757500Y-107474500D01*
D56*
X115443000Y-56515000D02*
X115443000Y-58126000D01*
X130744000Y-82602900D02*
X128900000Y-82602900D01*
X162052000Y-48448000D02*
X162052000Y-49784000D01*
X158496000Y-99314000D02*
X158595500Y-99214500D01*
X213360000Y-104648000D02*
X213868000Y-104140000D01*
X158595500Y-99214500D02*
X160181500Y-99214500D01*
X153670000Y-109220000D02*
X154424000Y-108466000D01*
X171066000Y-99214500D02*
X171066400Y-99214500D01*
X195163700Y-125474900D02*
X195259400Y-125570600D01*
X153670000Y-102108000D02*
X153416000Y-101854000D01*
X198887000Y-89911000D02*
X201427000Y-89911000D01*
X103886000Y-71374000D02*
X105664000Y-69596000D01*
D55*
X159757500Y-106172000D02*
X159757500Y-107174500D01*
D56*
X156088000Y-57500999D02*
X157642001Y-59055000D01*
X132725200Y-84584100D02*
X130744000Y-82602900D01*
X104085700Y-125514100D02*
X102864400Y-125514100D01*
X207076000Y-54864000D02*
X209042000Y-54864000D01*
X158396500Y-99214500D02*
X158496000Y-99314000D01*
D55*
X158832500Y-106524500D02*
X159405000Y-106524500D01*
X159405000Y-106524500D02*
X159757500Y-106172000D01*
D56*
X205806000Y-53594000D02*
X205806000Y-50038000D01*
X102484000Y-81325600D02*
X102484000Y-81326000D01*
X156110360Y-103867000D02*
X154351360Y-102108000D01*
D55*
X209804000Y-54102000D02*
X210616800Y-54102000D01*
D56*
X109108000Y-69708000D02*
X109220000Y-69596000D01*
X138864600Y-93791900D02*
X139192000Y-93464500D01*
X115357900Y-84484500D02*
X114210000Y-84484500D01*
X109108000Y-71576900D02*
X109108000Y-69708000D01*
X221234000Y-62484000D02*
X221873000Y-62484000D01*
X156088000Y-48702000D02*
X156784000Y-48006000D01*
X115459800Y-57337300D02*
X115459800Y-58090500D01*
X205806000Y-53594000D02*
X207076000Y-54864000D01*
X161610000Y-48006000D02*
X162052000Y-48448000D01*
X158418900Y-125272700D02*
X159394900Y-125272700D01*
X100584000Y-71374000D02*
X100584000Y-68636000D01*
X212956000Y-118220200D02*
X213879400Y-119143600D01*
X150661000Y-87376000D02*
X150661000Y-88294000D01*
D55*
X152223000Y-93726000D02*
X151071000Y-93726000D01*
D56*
X115765500Y-125540400D02*
X116905600Y-125540400D01*
X138158600Y-69877200D02*
X141670700Y-66365100D01*
X100518000Y-53340000D02*
X100518000Y-58166000D01*
X153416000Y-100537600D02*
X154739100Y-99214500D01*
X116905600Y-125540400D02*
X117042500Y-125677300D01*
X212547000Y-54102000D02*
X212547200Y-54102000D01*
X105036700Y-84305100D02*
X106243200Y-85511600D01*
X160637300Y-111882000D02*
X166080700Y-111882000D01*
D55*
X160582500Y-105774500D02*
X159682501Y-105774500D01*
D56*
X114210000Y-84484500D02*
X114046000Y-84648500D01*
X109220000Y-69596000D02*
X114477099Y-69596000D01*
X195580000Y-89916000D02*
X195585000Y-89911000D01*
X154424000Y-108466000D02*
X157845900Y-108466000D01*
D55*
X159757500Y-105899500D02*
X159757500Y-106172000D01*
D56*
X132725000Y-84927000D02*
X132725200Y-84927200D01*
X102484000Y-83098600D02*
X102484000Y-81326000D01*
X159394900Y-125272700D02*
X159706200Y-125584000D01*
X137876500Y-88649300D02*
X138798300Y-88649300D01*
X149423300Y-105597200D02*
X150302700Y-105597200D01*
D55*
%TO.N,Net-(U2-~{E})*%
X112919800Y-58090500D02*
X112919800Y-58508200D01*
X120973400Y-55439200D02*
X120203500Y-54669300D01*
X112919800Y-58508200D02*
X113838500Y-59426900D01*
X119242500Y-59426900D02*
X120973400Y-57696000D01*
X113838500Y-59426900D02*
X119242500Y-59426900D01*
X120203500Y-54669300D02*
X120203500Y-53594000D01*
D56*
%TO.N,Net-(C9-Pad1)*%
X154819000Y-84074000D02*
X154819000Y-83045000D01*
X154819000Y-83045000D02*
X153562000Y-81788000D01*
%TO.N,Net-(C9-Pad2)*%
X150817000Y-84074000D02*
X150817000Y-81993000D01*
X150817000Y-81993000D02*
X150612000Y-81788000D01*
D55*
%TO.N,Net-(U8-VAUX)*%
X158832500Y-106024500D02*
X152630000Y-106024500D01*
X152630000Y-106024500D02*
X152490000Y-105884500D01*
%TO.N,Net-(JP1-A)*%
X159154500Y-83058000D02*
X159154500Y-80264000D01*
X158552000Y-83660500D02*
X158552000Y-86304000D01*
X159154500Y-83058000D02*
X158552000Y-83660500D01*
X158552000Y-86304000D02*
X158862000Y-86614000D01*
%TO.N,Net-(JP2-A)*%
X163425500Y-86614000D02*
X162039700Y-86614000D01*
X161843000Y-89856800D02*
X163112300Y-89856800D01*
X162039700Y-86614000D02*
X161801200Y-86852500D01*
X163112300Y-89856800D02*
X163425500Y-90170000D01*
X163425500Y-90170000D02*
X160274000Y-90170000D01*
%TO.N,/A0*%
X150876000Y-94734173D02*
X150876000Y-96520000D01*
X134069400Y-61872500D02*
X123366500Y-61872500D01*
X181112000Y-69586000D02*
X183652000Y-69586000D01*
X112292300Y-59210500D02*
X112960600Y-59878800D01*
X109109800Y-57676100D02*
X110022900Y-56763000D01*
X173990000Y-72390000D02*
X176794000Y-69586000D01*
X112292300Y-57006300D02*
X112292300Y-59210500D01*
X109109800Y-58090500D02*
X109109800Y-57676100D01*
X173990000Y-87884000D02*
X173990000Y-72390000D01*
X110022900Y-56763000D02*
X112049000Y-56763000D01*
X165354000Y-96520000D02*
X173990000Y-87884000D01*
X176794000Y-69586000D02*
X181112000Y-69586000D01*
X112049000Y-56763000D02*
X112292300Y-57006300D01*
X151130000Y-94480100D02*
X148625100Y-94480100D01*
X121372800Y-59878800D02*
X122962000Y-61468000D01*
X123366500Y-61872500D02*
X122962000Y-61468000D01*
X152223000Y-94226000D02*
X151384173Y-94226000D01*
X148625100Y-94480100D02*
X148496500Y-94351500D01*
X150876000Y-96520000D02*
X165354000Y-96520000D01*
X112960600Y-59878800D02*
X121372800Y-59878800D01*
X151384173Y-94226000D02*
X150876000Y-94734173D01*
%TO.N,/pin15*%
X198887000Y-61971000D02*
X201427000Y-61971000D01*
%TO.N,/CH1_GND*%
X82296000Y-60372000D02*
X102973600Y-60372000D01*
X107253000Y-64316500D02*
X108541500Y-64316500D01*
X104421200Y-61484700D02*
X107253000Y-64316500D01*
X110378000Y-66153000D02*
X110378000Y-66576900D01*
X104086300Y-61484700D02*
X104421200Y-61484700D01*
X102973600Y-60372000D02*
X104086300Y-61484700D01*
X108541500Y-64316500D02*
X110378000Y-66153000D01*
%TO.N,/CH2_GND*%
X87267200Y-61891300D02*
X103853800Y-61891300D01*
X109108000Y-66171600D02*
X109108000Y-66576900D01*
X108104600Y-65168200D02*
X109108000Y-66171600D01*
X103853800Y-61891300D02*
X103899100Y-61936600D01*
X104193300Y-61936600D02*
X107424900Y-65168200D01*
X84268100Y-64890400D02*
X87267200Y-61891300D01*
X103899100Y-61936600D02*
X104193300Y-61936600D01*
X107424900Y-65168200D02*
X108104600Y-65168200D01*
%TO.N,/CH3_GND*%
X97782900Y-80372000D02*
X100703000Y-77451900D01*
X104993000Y-68168600D02*
X106721100Y-68168600D01*
X106721100Y-68168600D02*
X107838000Y-67051700D01*
X86652100Y-80859900D02*
X87254200Y-80859900D01*
X87254200Y-80859900D02*
X87742000Y-80372100D01*
X87742000Y-80372100D02*
X87742000Y-80372000D01*
X107838000Y-67051700D02*
X107838000Y-66576900D01*
X104806700Y-68354900D02*
X104993000Y-68168600D01*
X87742000Y-80372000D02*
X97782900Y-80372000D01*
X82296000Y-80372000D02*
X86164200Y-80372000D01*
X86164200Y-80372000D02*
X86652100Y-80859900D01*
%TO.N,/CH4_GND*%
X84265600Y-84922000D02*
X86553500Y-82634100D01*
X111648000Y-67014400D02*
X110041200Y-68621200D01*
X104198900Y-69990700D02*
X102926300Y-69990700D01*
X105568400Y-68621200D02*
X104198900Y-69990700D01*
X98945500Y-82634100D02*
X98945500Y-82634000D01*
X86553500Y-82634100D02*
X98945500Y-82634100D01*
X110041200Y-68621200D02*
X105568400Y-68621200D01*
X111648000Y-66576900D02*
X111648000Y-67014400D01*
%TO.N,/CH5_GND*%
X106087100Y-72057800D02*
X106568000Y-71576900D01*
X91685400Y-75400700D02*
X104990100Y-75400700D01*
X86953100Y-80133000D02*
X91685400Y-75400700D01*
X105599600Y-72057800D02*
X106087100Y-72057800D01*
%TO.N,/CH6_GND*%
X111648000Y-73326000D02*
X111648000Y-71576900D01*
X85746400Y-108621000D02*
X104109500Y-108621000D01*
X111664000Y-73342000D02*
X111648000Y-73326000D01*
X104109500Y-108621000D02*
X104382000Y-108348500D01*
X83991000Y-110376400D02*
X85746400Y-108621000D01*
%TO.N,/CH7_GND*%
X97669100Y-83367000D02*
X90411600Y-83367000D01*
X105264200Y-74592400D02*
X98060000Y-74592400D01*
X107838000Y-71576900D02*
X107838000Y-72018600D01*
X107838000Y-72018600D02*
X105264200Y-74592400D01*
%TO.N,/CH8_GND*%
X103258200Y-110250400D02*
X103974700Y-109533900D01*
X110567900Y-74330700D02*
X110378000Y-74140800D01*
X91607300Y-110250400D02*
X103258200Y-110250400D01*
X110378000Y-74140800D02*
X110378000Y-71576900D01*
%TO.N,/EN_LTC*%
X212268000Y-51330000D02*
X212268000Y-51692700D01*
X211903800Y-52056900D02*
X210013700Y-52056900D01*
X212268000Y-51692700D02*
X211903800Y-52056900D01*
X211713100Y-55669100D02*
X211533900Y-55669100D01*
X211533900Y-55669100D02*
X210616800Y-54752000D01*
X210013700Y-52056900D02*
X209535400Y-51578600D01*
%TO.N,/PCF1_A0*%
X142522500Y-95289500D02*
X139192000Y-95289500D01*
X142748000Y-95064000D02*
X142522500Y-95289500D01*
X139192000Y-95289500D02*
X133854800Y-95289500D01*
X133854800Y-95289500D02*
X132725200Y-94159900D01*
%TO.N,/PCF1_A1*%
X142748000Y-90566000D02*
X142446000Y-90868000D01*
X142446000Y-90868000D02*
X139192000Y-90868000D01*
X137170100Y-92889900D02*
X139192000Y-90868000D01*
X132725200Y-92889900D02*
X137170100Y-92889900D01*
%TO.N,/PCF1_A2*%
X137266800Y-90382800D02*
X136029700Y-91619900D01*
X136029700Y-91619900D02*
X132725200Y-91619900D01*
X142748000Y-85703000D02*
X142559500Y-85891500D01*
X139192000Y-85891500D02*
X137663900Y-85891500D01*
X137663900Y-85891500D02*
X137320800Y-86234600D01*
X142559500Y-85891500D02*
X139192000Y-85891500D01*
%TO.N,/PCF2_A0*%
X117968000Y-95033000D02*
X113792000Y-95033000D01*
X113792000Y-95033000D02*
X106874600Y-95033000D01*
X118110000Y-95175000D02*
X117968000Y-95033000D01*
X106874600Y-95033000D02*
X106243200Y-94401600D01*
%TO.N,/PCF2_A1*%
X111127800Y-90537500D02*
X110410400Y-91254900D01*
X118110000Y-90492000D02*
X118064500Y-90537500D01*
X118064500Y-90537500D02*
X113792000Y-90537500D01*
X106284600Y-93090200D02*
X106243200Y-93131600D01*
X109856200Y-93090200D02*
X106284600Y-93090200D01*
X113792000Y-90537500D02*
X111127800Y-90537500D01*
%TO.N,/PCF2_A2*%
X111332800Y-86473500D02*
X110408400Y-87397900D01*
X106243200Y-91861600D02*
X108564400Y-91861600D01*
X108564400Y-91861600D02*
X109286100Y-91139900D01*
X118110000Y-85957000D02*
X117593500Y-86473500D01*
X114046000Y-86473500D02*
X111332800Y-86473500D01*
X117593500Y-86473500D02*
X114046000Y-86473500D01*
%TO.N,/mosfet10*%
X106243200Y-90591600D02*
X103352600Y-90591600D01*
X103352600Y-90591600D02*
X103048200Y-90896000D01*
X102821200Y-121462500D02*
X102821200Y-123657300D01*
X102696300Y-121337600D02*
X102821200Y-121462500D01*
%TO.N,Net-(U8-L1)*%
X160757500Y-105274500D02*
X165320500Y-105274500D01*
X165320500Y-105274500D02*
X165862000Y-104733000D01*
%TO.N,/mosfet0*%
X106055600Y-97728600D02*
X124139500Y-97728600D01*
X95710600Y-123617300D02*
X96894400Y-122433500D01*
X131518200Y-90349900D02*
X132725200Y-90349900D01*
X96894400Y-122433500D02*
X102080900Y-122433500D01*
X124139500Y-97728600D02*
X131518200Y-90349900D01*
%TO.N,/mosfet1*%
X132725200Y-89079900D02*
X131067800Y-89079900D01*
X131067800Y-89079900D02*
X127083500Y-93064200D01*
X111075000Y-122607500D02*
X122407800Y-122607500D01*
X109931900Y-123750600D02*
X111075000Y-122607500D01*
%TO.N,/mosfet11*%
X107852000Y-89321600D02*
X108298800Y-89768400D01*
X106243200Y-89321600D02*
X107852000Y-89321600D01*
X113497500Y-124176800D02*
X116643000Y-124176800D01*
X116643000Y-124176800D02*
X117042500Y-123777300D01*
%TO.N,/mosfet2*%
X126311100Y-122647000D02*
X125150100Y-122647000D01*
X125150100Y-122647000D02*
X124153100Y-123644000D01*
X131066200Y-87809900D02*
X127886000Y-90990100D01*
X132725200Y-87809900D02*
X131066200Y-87809900D01*
%TO.N,/mosfet12*%
X125669400Y-123737300D02*
X124706900Y-124699800D01*
X131263700Y-123737300D02*
X125669400Y-123737300D01*
X111534600Y-89488700D02*
X110773900Y-88728000D01*
X110773900Y-88728000D02*
X106919600Y-88728000D01*
X124706900Y-124699800D02*
X121866700Y-124699800D01*
X106919600Y-88728000D02*
X106243200Y-88051600D01*
%TO.N,/mosfet3*%
X133308600Y-85956500D02*
X134854000Y-85956500D01*
X134867000Y-123724000D02*
X134854000Y-123711000D01*
X138374400Y-123724000D02*
X134867000Y-123724000D01*
X132725200Y-86539900D02*
X133308600Y-85956500D01*
%TO.N,/mosfet13*%
X145485000Y-123790600D02*
X143558200Y-121863800D01*
X112971300Y-121863800D02*
X107571900Y-116464400D01*
X106243200Y-86781600D02*
X107820300Y-86781600D01*
X143558200Y-121863800D02*
X112971300Y-121863800D01*
X107820300Y-86781600D02*
X107872500Y-86833800D01*
%TO.N,/mosfet4*%
X148264700Y-119486400D02*
X152595600Y-123817300D01*
X125025000Y-85269900D02*
X125557000Y-84737900D01*
X133448300Y-119486400D02*
X148264700Y-119486400D01*
X123174800Y-85269900D02*
X125025000Y-85269900D01*
%TO.N,/mosfet14*%
X148579900Y-118389300D02*
X153874500Y-123683900D01*
X115264400Y-117069600D02*
X116584100Y-118389300D01*
X116584100Y-118389300D02*
X148579900Y-118389300D01*
X153874500Y-123683900D02*
X153874500Y-123684000D01*
X153874500Y-123684000D02*
X159706200Y-123684000D01*
X97531000Y-84673400D02*
X97531000Y-84599500D01*
X96692800Y-85511600D02*
X97531000Y-84673400D01*
X97338700Y-101662100D02*
X112097700Y-101662100D01*
%TO.N,/mosfet5*%
X166816900Y-123804000D02*
X166070000Y-123057100D01*
X166070000Y-123057100D02*
X154138600Y-123057100D01*
X123261200Y-86453500D02*
X123174800Y-86539900D01*
X148603500Y-117522000D02*
X132721400Y-117522000D01*
X125889400Y-86453500D02*
X123261200Y-86453500D01*
X154138600Y-123057100D02*
X148603500Y-117522000D01*
%TO.N,/mosfet15*%
X147458000Y-115737400D02*
X103549500Y-115737400D01*
X173927500Y-123710600D02*
X169230800Y-123710600D01*
X167870900Y-122350700D02*
X154071300Y-122350700D01*
X98217500Y-86243300D02*
X97679200Y-86781600D01*
X169230800Y-123710600D02*
X167870900Y-122350700D01*
X103549500Y-115737400D02*
X101884400Y-117402500D01*
X97679200Y-86781600D02*
X96692800Y-86781600D01*
X154071300Y-122350700D02*
X147458000Y-115737400D01*
%TO.N,/mosfet6*%
X169453900Y-123069600D02*
X167609600Y-121225300D01*
X124916500Y-87809900D02*
X125979300Y-88872700D01*
X149925900Y-112421100D02*
X129561800Y-112421100D01*
X181038100Y-123630600D02*
X180477100Y-123069600D01*
X180477100Y-123069600D02*
X169453900Y-123069600D01*
X129561800Y-112421100D02*
X126673000Y-109532300D01*
X167609600Y-121225300D02*
X153974000Y-121225300D01*
X123174800Y-87809900D02*
X124916500Y-87809900D01*
%TO.N,/mosfet16*%
X98507400Y-88051600D02*
X99108600Y-87450400D01*
X104023400Y-115059100D02*
X102433300Y-113469000D01*
X96692800Y-88051600D02*
X98507400Y-88051600D01*
X187003200Y-122551800D02*
X169575200Y-122551800D01*
X169575200Y-122551800D02*
X162082500Y-115059100D01*
X162082500Y-115059100D02*
X104023400Y-115059100D01*
X188148700Y-123697300D02*
X187003200Y-122551800D01*
%TO.N,/mosfet17*%
X102537900Y-112346500D02*
X101986600Y-112346500D01*
X99543600Y-89906700D02*
X97277900Y-89906700D01*
X104751400Y-114560000D02*
X102537900Y-112346500D01*
X169762400Y-122099900D02*
X162222500Y-114560000D01*
X162222500Y-114560000D02*
X104751400Y-114560000D01*
X97277900Y-89906700D02*
X96692800Y-89321600D01*
X193688700Y-122099900D02*
X169762400Y-122099900D01*
X195259400Y-123670600D02*
X193688700Y-122099900D01*
%TO.N,/mosfet7*%
X202370000Y-123764000D02*
X200254000Y-121648000D01*
X123174800Y-89079900D02*
X121379100Y-89079900D01*
X182117000Y-121648000D02*
X173936400Y-113467400D01*
X173936400Y-113467400D02*
X126309500Y-113467400D01*
X121379100Y-89079900D02*
X121340300Y-89118700D01*
X200254000Y-121648000D02*
X182117000Y-121648000D01*
%TO.N,Net-(U8-L2)*%
X165033500Y-106274500D02*
X165862000Y-107103000D01*
X160757500Y-106274500D02*
X165033500Y-106274500D01*
%TO.N,Net-(U4-~{E})*%
X112918000Y-72033600D02*
X113825400Y-72941000D01*
X112918000Y-71576900D02*
X112918000Y-72033600D01*
X118529200Y-68433900D02*
X119841600Y-68433900D01*
X113825400Y-72941000D02*
X118529200Y-72941000D01*
X119841600Y-68433900D02*
X120203500Y-68072000D01*
%TO.N,Net-(U5-ADDR)*%
X152103500Y-92606500D02*
X150368000Y-92606500D01*
X152223000Y-92726000D02*
X152103500Y-92606500D01*
%TO.N,Net-(U6-~{E})*%
X221697300Y-116315200D02*
X225998500Y-112014000D01*
X212956000Y-115680200D02*
X213591000Y-116315200D01*
X213591000Y-116315200D02*
X221697300Y-116315200D01*
%TO.N,VSS*%
X160162000Y-87151200D02*
X160162000Y-86614000D01*
X158658600Y-88654600D02*
X160162000Y-87151200D01*
D56*
X166080700Y-109982000D02*
X160637300Y-109982000D01*
X160637300Y-107304300D02*
X160637300Y-109982000D01*
X171524000Y-109982000D02*
X166080700Y-109982000D01*
D55*
X158240000Y-107174500D02*
X157922600Y-106857100D01*
D56*
X160637300Y-109982000D02*
X155194000Y-109982000D01*
D55*
X160572000Y-107239000D02*
X160507500Y-107174500D01*
X159257500Y-107174500D02*
X158240000Y-107174500D01*
X160637000Y-108840500D02*
X160500600Y-108704100D01*
X160500600Y-108704100D02*
X160500600Y-108532700D01*
D56*
X160507500Y-107174500D02*
X160637300Y-107304300D01*
D55*
X157869200Y-93726000D02*
X158444700Y-93150500D01*
X160572500Y-107239000D02*
X160572000Y-107239000D01*
X156523000Y-93726000D02*
X157869200Y-93726000D01*
%TO.N,EN*%
X157226000Y-102616000D02*
X158312173Y-102616000D01*
X150938900Y-100926500D02*
X153136400Y-103124000D01*
X159757500Y-104061327D02*
X159757500Y-104374500D01*
X158312173Y-102616000D02*
X159757500Y-104061327D01*
X153136400Y-103124000D02*
X153162000Y-103124000D01*
%TO.N,PS*%
X158572600Y-104764600D02*
X158832500Y-105024500D01*
X154410300Y-104764600D02*
X158572600Y-104764600D01*
X152656900Y-110595400D02*
X150897400Y-110595400D01*
X150897400Y-110595400D02*
X150814500Y-110512500D01*
%TO.N,Net-(D2-A)*%
X216787000Y-144909000D02*
X216787000Y-141732000D01*
X216662000Y-145034000D02*
X216787000Y-144909000D01*
%TO.N,/SCL_ADS*%
X157329500Y-81566800D02*
X157235300Y-81661000D01*
X156523000Y-92726000D02*
X155633200Y-91836200D01*
X164118000Y-82472500D02*
X164118000Y-82042000D01*
X161699200Y-84891300D02*
X164118000Y-82472500D01*
X159670600Y-84891300D02*
X161699200Y-84891300D01*
X159278900Y-84499600D02*
X159670600Y-84891300D01*
X157329500Y-80264000D02*
X157329500Y-81566800D01*
X155633200Y-91836200D02*
X155633200Y-91580400D01*
%TO.N,/SDA_ADS*%
X156523000Y-93226000D02*
X157199100Y-93226000D01*
X165810200Y-82042000D02*
X168436000Y-82042000D01*
X161485300Y-91905100D02*
X162330700Y-91059700D01*
X155311800Y-93187700D02*
X155350100Y-93226000D01*
X155350100Y-93226000D02*
X156523000Y-93226000D01*
X156470000Y-83917500D02*
X157329500Y-83058000D01*
X158520000Y-91905100D02*
X161485300Y-91905100D01*
X164905200Y-82947000D02*
X165810200Y-82042000D01*
X156470000Y-85921700D02*
X156470000Y-83917500D01*
X157199100Y-93226000D02*
X158520000Y-91905100D01*
%TD*%
M02*
