M48
; DRILL file {KiCad (6.0.2)} date Tue Jul 12 14:07:53 2022
; FORMAT={-:-/ absolute / inch / decimal}
; #@! TF.CreationDate,2022-07-12T14:07:53-04:00
; #@! TF.GenerationSoftware,Kicad,Pcbnew,(6.0.2)
; #@! TF.FileFunction,Plated,1,2,PTH
FMAT,2
INCH
; #@! TA.AperFunction,Plated,PTH,ViaDrill
T1C0.0157
; #@! TA.AperFunction,Plated,PTH,ComponentDrill
T2C0.0315
; #@! TA.AperFunction,Plated,PTH,ComponentDrill
T3C0.0394
; #@! TA.AperFunction,Plated,PTH,ComponentDrill
T4C0.0512
%
G90
G05
T1
X4.0499Y-3.4506
X4.0857Y-3.5015
X4.096Y-3.6001
X4.125Y-3.95
X4.175Y-3.85
X4.6083Y-3.2236
X4.6208Y-3.6454
X8.35Y-2.85
X8.475Y-2.85
T2
X4.35Y-2.3
X4.35Y-2.9
T3
X7.65Y-3.3988
X7.65Y-3.4988
X7.65Y-3.5988
X7.65Y-3.6988
X7.65Y-3.7988
X7.65Y-3.8988
X7.65Y-3.9988
X7.65Y-4.0988
X7.65Y-4.2994
X7.65Y-4.3994
X7.65Y-4.4994
X7.65Y-4.5994
X7.65Y-4.6994
X7.65Y-4.7994
X7.65Y-4.8994
X7.65Y-4.9994
X7.8335Y-3.5994
X7.8335Y-3.6994
X7.8335Y-3.7994
X7.8335Y-3.8994
X7.8335Y-3.9994
X7.8335Y-4.0994
X7.8335Y-4.1994
X7.8335Y-4.2994
X7.8335Y-4.3994
X7.8335Y-4.4994
X7.8335Y-4.5994
X7.8335Y-4.6994
X7.8335Y-4.7994
X7.8335Y-4.8994
X7.8335Y-4.9994
X8.4335Y-3.5994
X8.4335Y-3.6994
X8.4335Y-3.7994
X8.4335Y-3.8994
X8.4335Y-3.9994
X8.4335Y-4.0994
X8.4335Y-4.1994
X8.4335Y-4.2994
X8.4335Y-4.3994
X8.4335Y-4.4994
X8.4335Y-4.5994
X8.4335Y-4.6994
X8.4335Y-4.7994
X8.4335Y-4.8994
X8.4335Y-4.9994
X8.65Y-3.3988
X8.65Y-3.4988
X8.65Y-3.5988
X8.65Y-3.6988
X8.65Y-3.7988
X8.65Y-3.8988
X8.65Y-3.9988
X8.65Y-4.0988
X8.65Y-4.2994
X8.65Y-4.3994
X8.65Y-4.4994
X8.65Y-4.5994
X8.65Y-4.6994
X8.65Y-4.7994
X8.65Y-4.8994
X8.65Y-4.9994
T4
X3.15Y-2.05
X3.15Y-2.2469
X3.15Y-2.4437
X3.15Y-2.6406
X3.15Y-2.8374
X3.15Y-3.0343
X3.15Y-3.2311
X3.15Y-3.428
X3.15Y-3.7
X3.15Y-3.8969
X3.15Y-4.0937
X3.15Y-4.2906
X3.15Y-4.4874
X3.15Y-4.6843
X3.15Y-4.8811
X3.15Y-5.078
X3.8Y-2.05
X3.8Y-2.2469
X3.8Y-2.4437
X3.8Y-2.6406
X3.8Y-2.8374
X3.8Y-3.0343
X3.8Y-3.2311
X3.8Y-3.428
X3.8Y-3.7
X3.8Y-3.8969
X3.8Y-4.0937
X3.8Y-4.2906
X3.8Y-4.4874
X3.8Y-4.6843
X3.8Y-4.8811
X3.8Y-5.078
X5.15Y-2.075
X5.15Y-2.2719
X5.15Y-2.4687
X5.15Y-2.6656
X5.15Y-2.8624
X5.15Y-3.0593
X5.15Y-3.2561
X5.15Y-3.453
X5.15Y-3.75
X5.15Y-3.9469
X5.15Y-4.1437
X5.15Y-4.3406
X5.15Y-4.5374
X5.15Y-4.7343
X5.15Y-4.9311
X5.15Y-5.128
X6.2797Y-3.3
X6.2797Y-3.825
X6.3047Y-2.525
X6.4766Y-3.3
X6.4766Y-3.825
X6.5016Y-2.525
X6.525Y-4.95
X6.5266Y-4.5
X6.6734Y-3.3
X6.6734Y-3.825
X6.6984Y-2.525
X6.7219Y-4.95
X6.7234Y-4.5
X6.8703Y-3.3
X6.8703Y-3.825
X6.8953Y-2.525
T0
M30
