%TF.GenerationSoftware,KiCad,Pcbnew,(6.0.2)*%
%TF.CreationDate,2022-07-12T14:07:49-04:00*%
%TF.ProjectId,RDL_revD6,52444c5f-7265-4764-9436-2e6b69636164,Rev D6*%
%TF.SameCoordinates,Original*%
%TF.FileFunction,Paste,Top*%
%TF.FilePolarity,Positive*%
%FSLAX46Y46*%
G04 Gerber Fmt 4.6, Leading zero omitted, Abs format (unit mm)*
G04 Created by KiCad (PCBNEW (6.0.2)) date 2022-07-12 14:07:49*
%MOMM*%
%LPD*%
G01*
G04 APERTURE LIST*
G04 Aperture macros list*
%AMRoundRect*
0 Rectangle with rounded corners*
0 $1 Rounding radius*
0 $2 $3 $4 $5 $6 $7 $8 $9 X,Y pos of 4 corners*
0 Add a 4 corners polygon primitive as box body*
4,1,4,$2,$3,$4,$5,$6,$7,$8,$9,$2,$3,0*
0 Add four circle primitives for the rounded corners*
1,1,$1+$1,$2,$3*
1,1,$1+$1,$4,$5*
1,1,$1+$1,$6,$7*
1,1,$1+$1,$8,$9*
0 Add four rect primitives between the rounded corners*
20,1,$1+$1,$2,$3,$4,$5,0*
20,1,$1+$1,$4,$5,$6,$7,0*
20,1,$1+$1,$6,$7,$8,$9,0*
20,1,$1+$1,$8,$9,$2,$3,0*%
G04 Aperture macros list end*
%ADD10RoundRect,0.250000X-0.312500X-0.625000X0.312500X-0.625000X0.312500X0.625000X-0.312500X0.625000X0*%
%ADD11RoundRect,0.150000X0.150000X-0.825000X0.150000X0.825000X-0.150000X0.825000X-0.150000X-0.825000X0*%
%ADD12R,2.000000X0.600000*%
%ADD13RoundRect,0.250000X-0.325000X-0.650000X0.325000X-0.650000X0.325000X0.650000X-0.325000X0.650000X0*%
%ADD14R,3.500000X3.300000*%
%ADD15R,1.300000X1.900000*%
%ADD16RoundRect,0.250000X0.312500X0.625000X-0.312500X0.625000X-0.312500X-0.625000X0.312500X-0.625000X0*%
G04 APERTURE END LIST*
D10*
%TO.C,R2*%
X186497500Y-77470000D03*
X189422500Y-77470000D03*
%TD*%
D11*
%TO.C,U1*%
X207645000Y-68515000D03*
X208915000Y-68515000D03*
X210185000Y-68515000D03*
X211455000Y-68515000D03*
X211455000Y-63565000D03*
X210185000Y-63565000D03*
X208915000Y-63565000D03*
X207645000Y-63565000D03*
%TD*%
D10*
%TO.C,R1*%
X199832500Y-77470000D03*
X202757500Y-77470000D03*
%TD*%
D12*
%TO.C,U2*%
X105790000Y-81915000D03*
X105790000Y-83185000D03*
X105790000Y-84455000D03*
X105790000Y-85725000D03*
X105790000Y-86995000D03*
X105790000Y-88265000D03*
X105790000Y-89535000D03*
X105790000Y-90805000D03*
X105790000Y-92075000D03*
X105790000Y-93345000D03*
X105790000Y-94615000D03*
X105790000Y-95885000D03*
X115190000Y-95885000D03*
X115190000Y-94615000D03*
X115190000Y-93345000D03*
X115190000Y-92075000D03*
X115190000Y-90805000D03*
X115190000Y-89535000D03*
X115190000Y-88265000D03*
X115190000Y-86995000D03*
X115190000Y-85725000D03*
X115190000Y-84455000D03*
X115190000Y-83185000D03*
X115190000Y-81915000D03*
%TD*%
D13*
%TO.C,C1*%
X192835000Y-77470000D03*
X195785000Y-77470000D03*
%TD*%
D14*
%TO.C,BAT1*%
X202845000Y-64135000D03*
X187045000Y-64135000D03*
%TD*%
D15*
%TO.C,Y1*%
X206800000Y-77800000D03*
X212300000Y-77800000D03*
X212300000Y-74600000D03*
X206800000Y-74600000D03*
%TD*%
D16*
%TO.C,R3*%
X111952500Y-100330000D03*
X109027500Y-100330000D03*
%TD*%
M02*
