%TF.GenerationSoftware,KiCad,Pcbnew,7.0.9*%
%TF.CreationDate,2024-04-08T21:40:24-04:00*%
%TF.ProjectId,WIRED-NAU7802-board-revB1,57495245-442d-44e4-9155-373830322d62,Rev B1*%
%TF.SameCoordinates,Original*%
%TF.FileFunction,Paste,Top*%
%TF.FilePolarity,Positive*%
%FSLAX46Y46*%
G04 Gerber Fmt 4.6, Leading zero omitted, Abs format (unit mm)*
G04 Created by KiCad (PCBNEW 7.0.9) date 2024-04-08 21:40:24*
%MOMM*%
%LPD*%
G01*
G04 APERTURE LIST*
G04 Aperture macros list*
%AMRoundRect*
0 Rectangle with rounded corners*
0 $1 Rounding radius*
0 $2 $3 $4 $5 $6 $7 $8 $9 X,Y pos of 4 corners*
0 Add a 4 corners polygon primitive as box body*
4,1,4,$2,$3,$4,$5,$6,$7,$8,$9,$2,$3,0*
0 Add four circle primitives for the rounded corners*
1,1,$1+$1,$2,$3*
1,1,$1+$1,$4,$5*
1,1,$1+$1,$6,$7*
1,1,$1+$1,$8,$9*
0 Add four rect primitives between the rounded corners*
20,1,$1+$1,$2,$3,$4,$5,0*
20,1,$1+$1,$4,$5,$6,$7,0*
20,1,$1+$1,$6,$7,$8,$9,0*
20,1,$1+$1,$8,$9,$2,$3,0*%
G04 Aperture macros list end*
%ADD10C,0.010000*%
%ADD11R,3.400000X0.980000*%
%ADD12RoundRect,0.250000X0.250000X0.475000X-0.250000X0.475000X-0.250000X-0.475000X0.250000X-0.475000X0*%
%ADD13RoundRect,0.250000X-0.262500X-0.450000X0.262500X-0.450000X0.262500X0.450000X-0.262500X0.450000X0*%
%ADD14RoundRect,0.250000X-0.475000X0.250000X-0.475000X-0.250000X0.475000X-0.250000X0.475000X0.250000X0*%
%ADD15RoundRect,0.250000X-0.250000X-0.475000X0.250000X-0.475000X0.250000X0.475000X-0.250000X0.475000X0*%
%ADD16RoundRect,0.250000X0.312500X0.625000X-0.312500X0.625000X-0.312500X-0.625000X0.312500X-0.625000X0*%
%ADD17RoundRect,0.250000X-0.450000X0.262500X-0.450000X-0.262500X0.450000X-0.262500X0.450000X0.262500X0*%
%ADD18RoundRect,0.002500X-0.297500X-0.122500X0.297500X-0.122500X0.297500X0.122500X-0.297500X0.122500X0*%
%ADD19RoundRect,0.002500X-0.122500X-0.297500X0.122500X-0.297500X0.122500X0.297500X-0.122500X0.297500X0*%
%ADD20RoundRect,0.250000X0.475000X-0.250000X0.475000X0.250000X-0.475000X0.250000X-0.475000X-0.250000X0*%
%ADD21RoundRect,0.218750X-0.256250X0.218750X-0.256250X-0.218750X0.256250X-0.218750X0.256250X0.218750X0*%
%ADD22RoundRect,0.150000X-0.150000X0.725000X-0.150000X-0.725000X0.150000X-0.725000X0.150000X0.725000X0*%
G04 APERTURE END LIST*
%TO.C,U2*%
D10*
X153635500Y-113147000D02*
X152915500Y-113147000D01*
X152915500Y-112897000D01*
X153635500Y-112897000D01*
X153635500Y-113147000D01*
G36*
X153635500Y-113147000D02*
G01*
X152915500Y-113147000D01*
X152915500Y-112897000D01*
X153635500Y-112897000D01*
X153635500Y-113147000D01*
G37*
X153811000Y-112647000D02*
X153236000Y-112647000D01*
X153236000Y-112397000D01*
X153811000Y-112397000D01*
X153811000Y-112647000D01*
G36*
X153811000Y-112647000D02*
G01*
X153236000Y-112647000D01*
X153236000Y-112397000D01*
X153811000Y-112397000D01*
X153811000Y-112647000D01*
G37*
X153811000Y-113647000D02*
X153236000Y-113647000D01*
X153236000Y-113397000D01*
X153811000Y-113397000D01*
X153811000Y-113647000D01*
G36*
X153811000Y-113647000D02*
G01*
X153236000Y-113647000D01*
X153236000Y-113397000D01*
X153811000Y-113397000D01*
X153811000Y-113647000D01*
G37*
X154555500Y-113147000D02*
X153835500Y-113147000D01*
X153835500Y-112897000D01*
X154555500Y-112897000D01*
X154555500Y-113147000D01*
G36*
X154555500Y-113147000D02*
G01*
X153835500Y-113147000D01*
X153835500Y-112897000D01*
X154555500Y-112897000D01*
X154555500Y-113147000D01*
G37*
X154586000Y-112647000D02*
X154011000Y-112647000D01*
X154011000Y-112397000D01*
X154586000Y-112397000D01*
X154586000Y-112647000D01*
G36*
X154586000Y-112647000D02*
G01*
X154011000Y-112647000D01*
X154011000Y-112397000D01*
X154586000Y-112397000D01*
X154586000Y-112647000D01*
G37*
X154586000Y-113647000D02*
X154011000Y-113647000D01*
X154011000Y-113397000D01*
X154586000Y-113397000D01*
X154586000Y-113647000D01*
G36*
X154586000Y-113647000D02*
G01*
X154011000Y-113647000D01*
X154011000Y-113397000D01*
X154586000Y-113397000D01*
X154586000Y-113647000D01*
G37*
X154035500Y-114722000D02*
X153785500Y-114722000D01*
X153785500Y-114372000D01*
X153535500Y-114372000D01*
X153535500Y-114722000D01*
X153285500Y-114722000D01*
X153285500Y-114122000D01*
X154035500Y-114122000D01*
X154035500Y-114722000D01*
G36*
X154035500Y-114722000D02*
G01*
X153785500Y-114722000D01*
X153785500Y-114372000D01*
X153535500Y-114372000D01*
X153535500Y-114722000D01*
X153285500Y-114722000D01*
X153285500Y-114122000D01*
X154035500Y-114122000D01*
X154035500Y-114722000D01*
G37*
X153535500Y-111672000D02*
X153785500Y-111672000D01*
X153785500Y-111322000D01*
X154035500Y-111322000D01*
X154035500Y-111922000D01*
X153285500Y-111922000D01*
X153285500Y-111322000D01*
X153535500Y-111322000D01*
X153535500Y-111672000D01*
G36*
X153535500Y-111672000D02*
G01*
X153785500Y-111672000D01*
X153785500Y-111322000D01*
X154035500Y-111322000D01*
X154035500Y-111922000D01*
X153285500Y-111922000D01*
X153285500Y-111322000D01*
X153535500Y-111322000D01*
X153535500Y-111672000D01*
G37*
%TD*%
D11*
%TO.C,L1*%
X158507000Y-112003000D03*
X158507000Y-114373000D03*
%TD*%
D12*
%TO.C,C12*%
X146371000Y-112772000D03*
X144471000Y-112772000D03*
%TD*%
D13*
%TO.C,R1*%
X177903500Y-109982000D03*
X179728500Y-109982000D03*
%TD*%
%TO.C,R9*%
X150217500Y-139186000D03*
X152042500Y-139186000D03*
%TD*%
D14*
%TO.C,C15*%
X160285000Y-118014000D03*
X160285000Y-119914000D03*
%TD*%
D15*
%TO.C,C1*%
X150434000Y-127248000D03*
X152334000Y-127248000D03*
%TD*%
D14*
%TO.C,C14*%
X156983000Y-118014000D03*
X156983000Y-119914000D03*
%TD*%
D16*
%TO.C,R4*%
X146761500Y-109378000D03*
X143836500Y-109378000D03*
%TD*%
D17*
%TO.C,R5*%
X164169000Y-110497500D03*
X164169000Y-112322500D03*
%TD*%
D18*
%TO.C,U2*%
X151985500Y-112272000D03*
X151985500Y-112772000D03*
X151985500Y-113272000D03*
X151985500Y-113772000D03*
D19*
X152410500Y-114422000D03*
X152910500Y-114422000D03*
X152910500Y-111622000D03*
X152410500Y-111622000D03*
%TD*%
D20*
%TO.C,C4*%
X150379000Y-108550000D03*
X150379000Y-106650000D03*
%TD*%
D16*
%TO.C,R3*%
X146883500Y-116328000D03*
X143958500Y-116328000D03*
%TD*%
D14*
%TO.C,C13*%
X153790300Y-118014000D03*
X153790300Y-119914000D03*
%TD*%
D20*
%TO.C,C3*%
X188976000Y-127696000D03*
X188976000Y-125796000D03*
%TD*%
%TO.C,C6*%
X157128600Y-108550000D03*
X157128600Y-106650000D03*
%TD*%
%TO.C,C7*%
X160539000Y-108550000D03*
X160539000Y-106650000D03*
%TD*%
D14*
%TO.C,C11*%
X150379000Y-118014000D03*
X150379000Y-119914000D03*
%TD*%
D13*
%TO.C,R6*%
X177903500Y-118787300D03*
X179728500Y-118787300D03*
%TD*%
D20*
%TO.C,C8*%
X187198000Y-132014000D03*
X187198000Y-130114000D03*
%TD*%
%TO.C,C2*%
X185420000Y-127696000D03*
X185420000Y-125796000D03*
%TD*%
D13*
%TO.C,R7*%
X177903500Y-123190000D03*
X179728500Y-123190000D03*
%TD*%
D15*
%TO.C,C9*%
X143830000Y-127248000D03*
X145730000Y-127248000D03*
%TD*%
D13*
%TO.C,R8*%
X143867500Y-134874000D03*
X145692500Y-134874000D03*
%TD*%
D20*
%TO.C,C5*%
X153718100Y-108550000D03*
X153718100Y-106650000D03*
%TD*%
D21*
%TO.C,D1*%
X164349000Y-115194500D03*
X164349000Y-116769500D03*
%TD*%
D13*
%TO.C,R2*%
X177903500Y-114384700D03*
X179728500Y-114384700D03*
%TD*%
D22*
%TO.C,U1*%
X181991000Y-130013000D03*
X180721000Y-130013000D03*
X179451000Y-130013000D03*
X178181000Y-130013000D03*
X176911000Y-130013000D03*
X175641000Y-130013000D03*
X174371000Y-130013000D03*
X173101000Y-130013000D03*
X173101000Y-135163000D03*
X174371000Y-135163000D03*
X175641000Y-135163000D03*
X176911000Y-135163000D03*
X178181000Y-135163000D03*
X179451000Y-135163000D03*
X180721000Y-135163000D03*
X181991000Y-135163000D03*
%TD*%
D15*
%TO.C,C10*%
X143830000Y-131350000D03*
X145730000Y-131350000D03*
%TD*%
M02*
