M48
; DRILL file {KiCad 7.0.9} date Mon Apr  8 21:40:25 2024
; FORMAT={-:-/ absolute / inch / decimal}
; #@! TF.CreationDate,2024-04-08T21:40:25-04:00
; #@! TF.GenerationSoftware,Kicad,Pcbnew,7.0.9
; #@! TF.FileFunction,Plated,1,2,PTH
FMAT,2
INCH
; #@! TA.AperFunction,Plated,PTH,ViaDrill
T1C0.0157
; #@! TA.AperFunction,Plated,PTH,ComponentDrill
T2C0.0350
; #@! TA.AperFunction,Plated,PTH,ComponentDrill
T3C0.0394
; #@! TA.AperFunction,Plated,PTH,ComponentDrill
T4C0.0441
; #@! TA.AperFunction,Plated,PTH,ComponentDrill
T5C0.0472
; #@! TA.AperFunction,Plated,PTH,ComponentDrill
T6C0.0512
; #@! TA.AperFunction,Plated,PTH,ComponentDrill
T7C0.0618
%
G90
G05
T1
X5.14Y-4.27
X5.28Y-4.27
X5.4613Y-5.0454
X5.4946Y-4.9986
X5.5843Y-4.5784
X5.6474Y-5.0736
X5.6956Y-5.2291
X5.741Y-4.493
X5.7787Y-4.3746
X5.7903Y-5.1747
X5.7936Y-5.0001
X5.86Y-4.43
X5.866Y-5.2291
X5.8701Y-5.1401
X5.8748Y-5.2806
X5.8936Y-4.5264
X5.9069Y-4.0927
X5.9069Y-4.8897
X5.9303Y-5.2442
X5.9461Y-5.0656
X5.9642Y-4.601
X5.9958Y-4.3504
X6.0308Y-5.394
X6.0325Y-5.4647
X6.0605Y-5.2686
X6.0663Y-5.1776
X6.0663Y-5.3183
X6.0663Y-5.5049
X6.0874Y-5.0257
X6.205Y-5.345
X6.2069Y-5.0379
X6.2309Y-4.3171
X6.2454Y-4.721
X6.3917Y-4.6443
X6.3967Y-4.1119
X6.3967Y-4.2624
X6.4012Y-4.4439
X6.4199Y-4.5352
X6.5211Y-4.2507
X6.6746Y-3.8
X6.7274Y-4.3104
X6.7697Y-5.3568
X6.7715Y-5.0752
X6.9256Y-5.1964
X6.986Y-4.3817
X7.0149Y-4.5672
X7.0247Y-4.7581
X7.0375Y-4.9319
X7.0562Y-5.3952
X7.0677Y-5.2161
X7.1308Y-4.3265
X7.1488Y-4.8482
X7.1488Y-5.0166
X7.1528Y-5.2369
X7.2249Y-5.089
X7.2432Y-5.1674
X7.288Y-4.7454
X7.2888Y-4.4652
X7.3173Y-5.1838
X7.3456Y-4.9904
X7.3877Y-5.0336
X7.4322Y-5.1226
X7.44Y-4.9008
X7.4642Y-5.0793
T2
X5.1102Y-3.9502
X5.1102Y-4.0302
X5.1102Y-4.1102
X5.1102Y-4.1902
X5.1102Y-4.7502
X5.1102Y-4.8302
X5.1102Y-4.9102
X5.1102Y-4.9902
X5.1802Y-3.9102
X5.1802Y-3.9902
X5.1802Y-4.0702
X5.1802Y-4.1502
X5.1802Y-4.7102
X5.1802Y-4.7902
X5.1802Y-4.8702
X5.1802Y-4.9502
X5.37Y-3.78
X5.37Y-3.8702
X5.37Y-4.23
X5.37Y-4.3202
X5.37Y-4.58
X5.37Y-4.6702
X5.37Y-5.03
X5.37Y-5.1202
T3
X6.67Y-4.2198
X6.67Y-4.3198
X6.67Y-4.4198
X6.67Y-4.5198
X6.67Y-4.6198
X6.67Y-4.7198
X6.67Y-4.8198
X7.4Y-4.32
X7.4Y-4.42
X7.4Y-4.52
X7.4Y-4.62
X7.4Y-4.72
X7.4Y-4.82
T4
X5.5135Y-3.5211
X5.612Y-3.5211
X5.7104Y-3.5211
T5
X5.6435Y-2.8439
X6.32Y-5.0466
X6.32Y-5.1844
X6.32Y-5.3222
X6.32Y-5.46
X6.7852Y-3.3164
T6
X7.32Y-3.6731
X7.32Y-3.87
X7.32Y-4.0669
T7
X5.1452Y-3.73
X5.1452Y-4.3702
X5.1452Y-4.53
X5.1452Y-5.1702
T0
M30
