%TF.GenerationSoftware,KiCad,Pcbnew,7.0.9*%
%TF.CreationDate,2024-04-08T21:40:24-04:00*%
%TF.ProjectId,WIRED-NAU7802-board-revB1,57495245-442d-44e4-9155-373830322d62,Rev B1*%
%TF.SameCoordinates,Original*%
%TF.FileFunction,Copper,L2,Bot*%
%TF.FilePolarity,Positive*%
%FSLAX46Y46*%
G04 Gerber Fmt 4.6, Leading zero omitted, Abs format (unit mm)*
G04 Created by KiCad (PCBNEW 7.0.9) date 2024-04-08 21:40:24*
%MOMM*%
%LPD*%
G01*
G04 APERTURE LIST*
%TA.AperFunction,ComponentPad*%
%ADD10R,1.500000X1.500000*%
%TD*%
%TA.AperFunction,ComponentPad*%
%ADD11C,1.500000*%
%TD*%
%TA.AperFunction,ComponentPad*%
%ADD12C,2.300000*%
%TD*%
%TA.AperFunction,ComponentPad*%
%ADD13C,1.680000*%
%TD*%
%TA.AperFunction,ComponentPad*%
%ADD14C,1.800000*%
%TD*%
%TA.AperFunction,ComponentPad*%
%ADD15R,2.600000X2.600000*%
%TD*%
%TA.AperFunction,ComponentPad*%
%ADD16C,2.600000*%
%TD*%
%TA.AperFunction,ComponentPad*%
%ADD17R,1.700000X1.700000*%
%TD*%
%TA.AperFunction,ComponentPad*%
%ADD18O,1.700000X1.700000*%
%TD*%
%TA.AperFunction,ComponentPad*%
%ADD19R,2.400000X2.400000*%
%TD*%
%TA.AperFunction,ComponentPad*%
%ADD20C,2.400000*%
%TD*%
%TA.AperFunction,ViaPad*%
%ADD21C,0.800000*%
%TD*%
%TA.AperFunction,Conductor*%
%ADD22C,0.250000*%
%TD*%
%TA.AperFunction,Conductor*%
%ADD23C,0.500000*%
%TD*%
G04 APERTURE END LIST*
D10*
%TO.P,J6,1*%
%TO.N,+5V*%
X129798000Y-106432000D03*
D11*
%TO.P,J6,2*%
X131578000Y-105416000D03*
%TO.P,J6,3*%
%TO.N,GND*%
X129798000Y-104400000D03*
%TO.P,J6,4*%
X131578000Y-103384000D03*
%TO.P,J6,5*%
%TO.N,/SDA*%
X129798000Y-102368000D03*
%TO.P,J6,6*%
X131578000Y-101352000D03*
%TO.P,J6,7*%
%TO.N,/SCL*%
X129798000Y-100336000D03*
%TO.P,J6,8*%
X131578000Y-99320000D03*
%TO.P,J6,9*%
%TO.N,unconnected-(J6-Pad9)*%
X136398000Y-109732000D03*
%TO.P,J6,10*%
%TO.N,unconnected-(J6-Pad10)*%
X136398000Y-107442000D03*
%TO.P,J6,11*%
%TO.N,unconnected-(J6-Pad11)*%
X136398000Y-98302000D03*
%TO.P,J6,12*%
%TO.N,unconnected-(J6-Pad12)*%
X136398000Y-96012000D03*
D12*
%TO.P,J6,SH*%
%TO.N,GND*%
X130688000Y-111002000D03*
X130688000Y-94742000D03*
%TD*%
D10*
%TO.P,J4,1*%
%TO.N,+5V*%
X129798000Y-126752000D03*
D11*
%TO.P,J4,2*%
X131578000Y-125736000D03*
%TO.P,J4,3*%
%TO.N,GND*%
X129798000Y-124720000D03*
%TO.P,J4,4*%
X131578000Y-123704000D03*
%TO.P,J4,5*%
%TO.N,/SDA*%
X129798000Y-122688000D03*
%TO.P,J4,6*%
X131578000Y-121672000D03*
%TO.P,J4,7*%
%TO.N,/SCL*%
X129798000Y-120656000D03*
%TO.P,J4,8*%
X131578000Y-119640000D03*
%TO.P,J4,9*%
%TO.N,unconnected-(J4-Pad9)*%
X136398000Y-130052000D03*
%TO.P,J4,10*%
%TO.N,unconnected-(J4-Pad10)*%
X136398000Y-127762000D03*
%TO.P,J4,11*%
%TO.N,unconnected-(J4-Pad11)*%
X136398000Y-118622000D03*
%TO.P,J4,12*%
%TO.N,unconnected-(J4-Pad12)*%
X136398000Y-116332000D03*
D12*
%TO.P,J4,SH*%
%TO.N,GND*%
X130688000Y-131322000D03*
X130688000Y-115062000D03*
%TD*%
D13*
%TO.P,IC1,1,VOUT*%
%TO.N,/DATA*%
X140044000Y-89436000D03*
%TO.P,IC1,2,GND*%
%TO.N,GND*%
X142544000Y-89436000D03*
%TO.P,IC1,3,+VCC_(+5V)*%
%TO.N,VCC*%
X145044000Y-89436000D03*
D14*
%TO.P,IC1,MH1*%
%TO.N,N/C*%
X143344000Y-72236000D03*
%TO.P,IC1,MH2*%
X172344000Y-84236000D03*
%TD*%
D15*
%TO.P,J5,1,Pin_1*%
%TO.N,+5V*%
X185928000Y-93298000D03*
D16*
%TO.P,J5,2,Pin_2*%
%TO.N,GND*%
X185928000Y-98298000D03*
%TO.P,J5,3,Pin_3*%
%TO.N,/DATA*%
X185928000Y-103298000D03*
%TD*%
D17*
%TO.P,J3,1,Pin_1*%
%TO.N,GND*%
X187960000Y-109728000D03*
D18*
%TO.P,J3,2,Pin_2*%
%TO.N,VCC*%
X187960000Y-112268000D03*
%TO.P,J3,3,Pin_3*%
%TO.N,/SDA*%
X187960000Y-114808000D03*
%TO.P,J3,4,Pin_4*%
%TO.N,/SCL*%
X187960000Y-117348000D03*
%TO.P,J3,5,Pin_5*%
%TO.N,/INT*%
X187960000Y-119888000D03*
%TO.P,J3,6,Pin_6*%
%TO.N,VCC*%
X187960000Y-122428000D03*
%TD*%
D17*
%TO.P,J2,1,Pin_1*%
%TO.N,VCC*%
X169418000Y-107183000D03*
D18*
%TO.P,J2,2,Pin_2*%
%TO.N,PG*%
X169418000Y-109723000D03*
%TO.P,J2,3,Pin_3*%
%TO.N,GND*%
X169418000Y-112263000D03*
%TO.P,J2,4,Pin_4*%
%TO.N,PS*%
X169418000Y-114803000D03*
%TO.P,J2,5,Pin_5*%
%TO.N,GND*%
X169418000Y-117343000D03*
%TO.P,J2,6,Pin_6*%
%TO.N,EN*%
X169418000Y-119883000D03*
%TO.P,J2,7,Pin_7*%
%TO.N,+5V*%
X169418000Y-122423000D03*
%TD*%
D19*
%TO.P,J1,1,Pin_1*%
%TO.N,VCC*%
X160528000Y-128184000D03*
D20*
%TO.P,J1,2,Pin_2*%
%TO.N,GND*%
X160528000Y-131684000D03*
%TO.P,J1,3,Pin_3*%
%TO.N,/B-*%
X160528000Y-135184000D03*
%TO.P,J1,4,Pin_4*%
%TO.N,/B+*%
X160528000Y-138684000D03*
%TD*%
D21*
%TO.N,/DATA*%
X185136000Y-113415900D03*
%TO.N,GND*%
X145821700Y-114122700D03*
X188776800Y-130114000D03*
X171997200Y-128909200D03*
X147158500Y-127001800D03*
X130556000Y-108458000D03*
X171951600Y-136062500D03*
X188976000Y-124479600D03*
X158634000Y-119914000D03*
X147074700Y-131437500D03*
X134112000Y-108458000D03*
X181121100Y-109893900D03*
X163066600Y-115194500D03*
%TO.N,PS*%
X165636000Y-107966700D03*
%TO.N,PG*%
X148844000Y-112522000D03*
X158265300Y-109653100D03*
%TO.N,EN*%
X149698632Y-114969368D03*
X152293100Y-110500800D03*
%TO.N,Net-(U1-VIN2N)*%
X151030000Y-128666500D03*
X153182400Y-137007400D03*
%TO.N,Net-(U1-VIN2P)*%
X148996900Y-132818300D03*
X149100900Y-130558300D03*
%TO.N,Net-(U1-VIN1N)*%
X187647700Y-127854700D03*
X177445200Y-111295300D03*
X178751500Y-125270600D03*
X189591000Y-129013100D03*
%TO.N,Net-(U1-VIN1P)*%
X178179700Y-116006900D03*
X178428100Y-120855400D03*
X186577400Y-126756100D03*
X185858800Y-131667300D03*
%TO.N,+5V*%
X162590700Y-112874400D03*
X139564000Y-126965300D03*
X162475500Y-108265900D03*
X150036000Y-103955400D03*
X162475500Y-104441400D03*
X146778100Y-111114800D03*
X169536000Y-96519500D03*
X141840500Y-116291000D03*
%TO.N,/SDA*%
X179520000Y-132488600D03*
X150630000Y-133203700D03*
X175911000Y-131988900D03*
X150036000Y-124199600D03*
%TO.N,/SCL*%
X153224300Y-138802700D03*
X149220500Y-134127700D03*
X179227600Y-137039100D03*
X138717000Y-128153900D03*
%TO.N,Net-(JP1-B)*%
X154620200Y-127653600D03*
X154083000Y-131510700D03*
%TO.N,Net-(JP2-B)*%
X153936000Y-133822200D03*
X157655500Y-127961700D03*
%TO.N,/INT*%
X183976900Y-131252400D03*
X185115900Y-120533100D03*
%TO.N,VCC*%
X151490300Y-116864900D03*
X181579200Y-123144600D03*
X170877000Y-109484400D03*
X181579200Y-127421000D03*
X144668700Y-132820000D03*
X162348500Y-117964200D03*
X183513500Y-129261400D03*
X181681100Y-133017200D03*
X143445100Y-128870400D03*
%TO.N,/B-*%
X154083000Y-135084100D03*
X154083000Y-139823800D03*
%TO.N,/B+*%
X157607000Y-135763000D03*
%TD*%
D22*
%TO.N,/DATA*%
X185136000Y-104090000D02*
X185136000Y-113415900D01*
X185928000Y-103298000D02*
X185136000Y-104090000D01*
D23*
%TO.N,GND*%
X129798000Y-124720000D02*
X130562000Y-124720000D01*
X130562000Y-124720000D02*
X131578000Y-123704000D01*
X129798000Y-104400000D02*
X130562000Y-104400000D01*
X130562000Y-104400000D02*
X131578000Y-103384000D01*
D22*
%TO.N,PS*%
X165636000Y-111021000D02*
X165636000Y-107966700D01*
X169418000Y-114803000D02*
X165636000Y-111021000D01*
%TO.N,PG*%
X148844000Y-112387900D02*
X151578800Y-109653100D01*
X151578800Y-109653100D02*
X158265300Y-109653100D01*
X148844000Y-112522000D02*
X148844000Y-112387900D01*
%TO.N,EN*%
X149698632Y-114969368D02*
X152293100Y-112374900D01*
X152293100Y-112374900D02*
X152293100Y-110500800D01*
%TO.N,Net-(U1-VIN2N)*%
X153182400Y-137007400D02*
X153182400Y-130818900D01*
X153182400Y-130818900D02*
X151030000Y-128666500D01*
%TO.N,Net-(U1-VIN2P)*%
X149100900Y-130558300D02*
X149100900Y-132714300D01*
X149100900Y-132714300D02*
X148996900Y-132818300D01*
%TO.N,Net-(U1-VIN1N)*%
X189591000Y-129013100D02*
X188432600Y-127854700D01*
X177445200Y-123964300D02*
X178751500Y-125270600D01*
X188432600Y-127854700D02*
X187647700Y-127854700D01*
X177445200Y-111295300D02*
X177445200Y-123964300D01*
%TO.N,Net-(U1-VIN1P)*%
X185858800Y-131667300D02*
X186577400Y-130948700D01*
X178428100Y-116255300D02*
X178428100Y-120855400D01*
X186577400Y-130948700D02*
X186577400Y-126756100D01*
X178179700Y-116006900D02*
X178428100Y-116255300D01*
D23*
%TO.N,+5V*%
X162590700Y-108381100D02*
X162590700Y-112874400D01*
X166998400Y-120003400D02*
X166998400Y-117282100D01*
X169536000Y-96519500D02*
X162475500Y-103580000D01*
X166998400Y-117282100D02*
X162590700Y-112874400D01*
X162475500Y-104441400D02*
X162475500Y-108265900D01*
X162475500Y-108265900D02*
X162590700Y-108381100D01*
X146778100Y-107213300D02*
X146778100Y-111114800D01*
X141840500Y-124688800D02*
X141840500Y-116291000D01*
X139564000Y-126965300D02*
X141840500Y-124688800D01*
X162475500Y-103580000D02*
X162475500Y-104441400D01*
X150036000Y-103955400D02*
X146778100Y-107213300D01*
X169418000Y-122423000D02*
X166998400Y-120003400D01*
D22*
%TO.N,/SDA*%
X187960000Y-114808000D02*
X187960000Y-115984900D01*
X179520000Y-124059100D02*
X179520000Y-131988900D01*
X150036000Y-132609700D02*
X150036000Y-124199600D01*
X187594200Y-115984900D02*
X179520000Y-124059100D01*
X179520000Y-131988900D02*
X179520000Y-132488600D01*
X179520000Y-131988900D02*
X175911000Y-131988900D01*
X187960000Y-115984900D02*
X187594200Y-115984900D01*
X128010000Y-102368000D02*
X129798000Y-102368000D01*
X129798000Y-122688000D02*
X124988300Y-117878300D01*
X150630000Y-133203700D02*
X150036000Y-132609700D01*
X124988300Y-105389700D02*
X128010000Y-102368000D01*
X124988300Y-117878300D02*
X124988300Y-105389700D01*
%TO.N,/SCL*%
X185850500Y-130416200D02*
X179227600Y-137039100D01*
X153224300Y-138131500D02*
X153224300Y-138802700D01*
X187592200Y-118524900D02*
X185850500Y-120266600D01*
X132660500Y-100402500D02*
X131578000Y-99320000D01*
X132660500Y-119640000D02*
X132660500Y-100402500D01*
X138717000Y-125696500D02*
X132660500Y-119640000D01*
X132660500Y-119640000D02*
X131578000Y-119640000D01*
X187960000Y-117348000D02*
X187960000Y-118524900D01*
X149220500Y-134127700D02*
X153224300Y-138131500D01*
X185850500Y-120266600D02*
X185850500Y-130416200D01*
X138717000Y-128153900D02*
X138717000Y-125696500D01*
X187960000Y-118524900D02*
X187592200Y-118524900D01*
%TO.N,Net-(JP1-B)*%
X154083000Y-131510700D02*
X154083000Y-128190800D01*
X154083000Y-128190800D02*
X154620200Y-127653600D01*
%TO.N,Net-(JP2-B)*%
X157655500Y-130102700D02*
X157655500Y-127961700D01*
X153936000Y-133822200D02*
X157655500Y-130102700D01*
%TO.N,/INT*%
X183976900Y-131252400D02*
X184248800Y-130980500D01*
X184248800Y-121400200D02*
X185115900Y-120533100D01*
X184248800Y-130980500D02*
X184248800Y-121400200D01*
D23*
%TO.N,VCC*%
X181673100Y-127421000D02*
X181579200Y-127421000D01*
X181681100Y-133017200D02*
X181681100Y-131093800D01*
X187960000Y-112268000D02*
X189307400Y-113615400D01*
X189307400Y-113615400D02*
X189307400Y-121080600D01*
X145044000Y-89436000D02*
X145044000Y-111445400D01*
X144668700Y-132820000D02*
X144668700Y-130094000D01*
X160528000Y-126332100D02*
X162348500Y-124511600D01*
X169418000Y-107183000D02*
X170877000Y-108642000D01*
X170877000Y-108642000D02*
X170877000Y-109484400D01*
X145044000Y-111445400D02*
X150463500Y-116864900D01*
X144668700Y-130094000D02*
X143445100Y-128870400D01*
X181579200Y-127421000D02*
X181579200Y-123144600D01*
X183513500Y-129261400D02*
X181673100Y-127421000D01*
X160528000Y-128184000D02*
X160528000Y-126332100D01*
X181681100Y-131093800D02*
X183513500Y-129261400D01*
X143445100Y-123883300D02*
X150463500Y-116864900D01*
X189307400Y-121080600D02*
X187960000Y-122428000D01*
X162348500Y-124511600D02*
X162348500Y-117964200D01*
X150463500Y-116864900D02*
X151490300Y-116864900D01*
X143445100Y-128870400D02*
X143445100Y-123883300D01*
D22*
%TO.N,/B-*%
X154083000Y-135084100D02*
X154083000Y-139823800D01*
%TO.N,/B+*%
X160528000Y-138684000D02*
X157607000Y-135763000D01*
%TD*%
%TA.AperFunction,Conductor*%
%TO.N,GND*%
G36*
X128707726Y-103021185D02*
G01*
X128742259Y-103054373D01*
X128830251Y-103180038D01*
X128985962Y-103335749D01*
X129166346Y-103462056D01*
X129229155Y-103491344D01*
X129235089Y-103494111D01*
X129270365Y-103518812D01*
X129714163Y-103962610D01*
X129665353Y-103969967D01*
X129544491Y-104028171D01*
X129446156Y-104119413D01*
X129379083Y-104235587D01*
X129360676Y-104316228D01*
X128754875Y-103710427D01*
X128754875Y-103710428D01*
X128711333Y-103772612D01*
X128711332Y-103772614D01*
X128618898Y-103970840D01*
X128618894Y-103970849D01*
X128562289Y-104182105D01*
X128562287Y-104182115D01*
X128543225Y-104399999D01*
X128543225Y-104400000D01*
X128562287Y-104617884D01*
X128562289Y-104617894D01*
X128618894Y-104829150D01*
X128618898Y-104829159D01*
X128711333Y-105027387D01*
X128767133Y-105107078D01*
X128789460Y-105173285D01*
X128772450Y-105241052D01*
X128739869Y-105277468D01*
X128684741Y-105318737D01*
X128684740Y-105318738D01*
X128684739Y-105318739D01*
X128661724Y-105349483D01*
X128597111Y-105435795D01*
X128546011Y-105572795D01*
X128546011Y-105572797D01*
X128539500Y-105633345D01*
X128539500Y-107230654D01*
X128546011Y-107291202D01*
X128546011Y-107291204D01*
X128581546Y-107386473D01*
X128597111Y-107428204D01*
X128684739Y-107545261D01*
X128801796Y-107632889D01*
X128938799Y-107683989D01*
X128966050Y-107686918D01*
X128999345Y-107690499D01*
X128999362Y-107690500D01*
X130596638Y-107690500D01*
X130596654Y-107690499D01*
X130623692Y-107687591D01*
X130657201Y-107683989D01*
X130794204Y-107632889D01*
X130911261Y-107545261D01*
X130998889Y-107428204D01*
X131049989Y-107291201D01*
X131053591Y-107257692D01*
X131056499Y-107230654D01*
X131056500Y-107230637D01*
X131056500Y-106740758D01*
X131076185Y-106673719D01*
X131128989Y-106627964D01*
X131198147Y-106618020D01*
X131212583Y-106620981D01*
X131358629Y-106660115D01*
X131514127Y-106673719D01*
X131577998Y-106679307D01*
X131578000Y-106679307D01*
X131578002Y-106679307D01*
X131632842Y-106674509D01*
X131797371Y-106660115D01*
X131870906Y-106640411D01*
X131940755Y-106642072D01*
X131998618Y-106681234D01*
X132026123Y-106745462D01*
X132027000Y-106760185D01*
X132027000Y-109965190D01*
X132007315Y-110032229D01*
X131990681Y-110052871D01*
X131393781Y-110649770D01*
X131305621Y-110509464D01*
X131180536Y-110384379D01*
X131040229Y-110296217D01*
X131667645Y-109668801D01*
X131660843Y-109662993D01*
X131660842Y-109662992D01*
X131439400Y-109527292D01*
X131439397Y-109527290D01*
X131199462Y-109427906D01*
X131199445Y-109427901D01*
X130946911Y-109367274D01*
X130946912Y-109367274D01*
X130688000Y-109346898D01*
X130429087Y-109367274D01*
X130176554Y-109427901D01*
X130176537Y-109427906D01*
X129936602Y-109527290D01*
X129936599Y-109527292D01*
X129715155Y-109662993D01*
X129708353Y-109668800D01*
X130335770Y-110296217D01*
X130195464Y-110384379D01*
X130070379Y-110509464D01*
X129982217Y-110649770D01*
X129354800Y-110022353D01*
X129348993Y-110029155D01*
X129213292Y-110250599D01*
X129213290Y-110250602D01*
X129113906Y-110490537D01*
X129113901Y-110490554D01*
X129053274Y-110743087D01*
X129032898Y-111002000D01*
X129053274Y-111260912D01*
X129113901Y-111513445D01*
X129113906Y-111513462D01*
X129213290Y-111753397D01*
X129213292Y-111753400D01*
X129348992Y-111974842D01*
X129348993Y-111974843D01*
X129354801Y-111981644D01*
X129982217Y-111354228D01*
X130070379Y-111494536D01*
X130195464Y-111619621D01*
X130335770Y-111707781D01*
X129708354Y-112335197D01*
X129715157Y-112341007D01*
X129936599Y-112476707D01*
X129936602Y-112476709D01*
X130176537Y-112576093D01*
X130176554Y-112576098D01*
X130429088Y-112636725D01*
X130429087Y-112636725D01*
X130688000Y-112657101D01*
X130946912Y-112636725D01*
X131199445Y-112576098D01*
X131199462Y-112576093D01*
X131439397Y-112476709D01*
X131439400Y-112476707D01*
X131660844Y-112341005D01*
X131667644Y-112335197D01*
X131040229Y-111707782D01*
X131180536Y-111619621D01*
X131305621Y-111494536D01*
X131393782Y-111354229D01*
X131990681Y-111951128D01*
X132024166Y-112012451D01*
X132027000Y-112038809D01*
X132027000Y-114025190D01*
X132007315Y-114092229D01*
X131990681Y-114112871D01*
X131393781Y-114709770D01*
X131305621Y-114569464D01*
X131180536Y-114444379D01*
X131040229Y-114356217D01*
X131667645Y-113728801D01*
X131660843Y-113722993D01*
X131660842Y-113722992D01*
X131439400Y-113587292D01*
X131439397Y-113587290D01*
X131199462Y-113487906D01*
X131199445Y-113487901D01*
X130946911Y-113427274D01*
X130946912Y-113427274D01*
X130688000Y-113406898D01*
X130429087Y-113427274D01*
X130176554Y-113487901D01*
X130176537Y-113487906D01*
X129936602Y-113587290D01*
X129936599Y-113587292D01*
X129715155Y-113722993D01*
X129708353Y-113728800D01*
X130335770Y-114356217D01*
X130195464Y-114444379D01*
X130070379Y-114569464D01*
X129982217Y-114709770D01*
X129354800Y-114082353D01*
X129348993Y-114089155D01*
X129213292Y-114310599D01*
X129213290Y-114310602D01*
X129113906Y-114550537D01*
X129113901Y-114550554D01*
X129053274Y-114803087D01*
X129032898Y-115062000D01*
X129053274Y-115320912D01*
X129113901Y-115573445D01*
X129113906Y-115573462D01*
X129213290Y-115813397D01*
X129213292Y-115813400D01*
X129348992Y-116034842D01*
X129348993Y-116034843D01*
X129354801Y-116041644D01*
X129982217Y-115414228D01*
X130070379Y-115554536D01*
X130195464Y-115679621D01*
X130335770Y-115767781D01*
X129708354Y-116395197D01*
X129715157Y-116401007D01*
X129936599Y-116536707D01*
X129936602Y-116536709D01*
X130176537Y-116636093D01*
X130176554Y-116636098D01*
X130429088Y-116696725D01*
X130429087Y-116696725D01*
X130688000Y-116717101D01*
X130946912Y-116696725D01*
X131199445Y-116636098D01*
X131199462Y-116636093D01*
X131439397Y-116536709D01*
X131439400Y-116536707D01*
X131660844Y-116401005D01*
X131667644Y-116395197D01*
X131040229Y-115767782D01*
X131180536Y-115679621D01*
X131305621Y-115554536D01*
X131393782Y-115414229D01*
X131990681Y-116011128D01*
X132024166Y-116072451D01*
X132027000Y-116098809D01*
X132027000Y-118295814D01*
X132007315Y-118362853D01*
X131954511Y-118408608D01*
X131885353Y-118418552D01*
X131870906Y-118415589D01*
X131797373Y-118395885D01*
X131797365Y-118395884D01*
X131578002Y-118376693D01*
X131577998Y-118376693D01*
X131358634Y-118395884D01*
X131358627Y-118395885D01*
X131145920Y-118452881D01*
X130946346Y-118545944D01*
X130946342Y-118545946D01*
X130765967Y-118672247D01*
X130765960Y-118672252D01*
X130610252Y-118827960D01*
X130610247Y-118827967D01*
X130483946Y-119008342D01*
X130483944Y-119008346D01*
X130390880Y-119207924D01*
X130346961Y-119371826D01*
X130310596Y-119431486D01*
X130247749Y-119462014D01*
X130195093Y-119459506D01*
X130017372Y-119411885D01*
X130017365Y-119411884D01*
X129798002Y-119392693D01*
X129797998Y-119392693D01*
X129578634Y-119411884D01*
X129578627Y-119411885D01*
X129365920Y-119468881D01*
X129166346Y-119561944D01*
X129166342Y-119561946D01*
X128985967Y-119688247D01*
X128985960Y-119688252D01*
X128830252Y-119843960D01*
X128830247Y-119843967D01*
X128703946Y-120024342D01*
X128703944Y-120024346D01*
X128610880Y-120223923D01*
X128585940Y-120316996D01*
X128549574Y-120376655D01*
X128486727Y-120407184D01*
X128417351Y-120398887D01*
X128378485Y-120372581D01*
X126919746Y-118913841D01*
X126886261Y-118852518D01*
X126891245Y-118782826D01*
X126933117Y-118726893D01*
X126998581Y-118702476D01*
X127025470Y-118703480D01*
X127120731Y-118717500D01*
X127120737Y-118717500D01*
X127326552Y-118717500D01*
X127378744Y-118713679D01*
X127531805Y-118702477D01*
X127799775Y-118642784D01*
X128056198Y-118544711D01*
X128295609Y-118410347D01*
X128512904Y-118242557D01*
X128703454Y-118044916D01*
X128863196Y-117821637D01*
X128988727Y-117577479D01*
X129077370Y-117317646D01*
X129127236Y-117047674D01*
X129137262Y-116773320D01*
X129107236Y-116500429D01*
X129037796Y-116234818D01*
X128930423Y-115982148D01*
X128787405Y-115747804D01*
X128706281Y-115650323D01*
X128611800Y-115536792D01*
X128611795Y-115536787D01*
X128611791Y-115536782D01*
X128505385Y-115441441D01*
X128407327Y-115353580D01*
X128407324Y-115353578D01*
X128407323Y-115353577D01*
X128178359Y-115202096D01*
X127929779Y-115085567D01*
X127782362Y-115041216D01*
X127666879Y-115006472D01*
X127533915Y-114986904D01*
X127395269Y-114966500D01*
X127189453Y-114966500D01*
X127189448Y-114966500D01*
X126984195Y-114981523D01*
X126984185Y-114981524D01*
X126716229Y-115041214D01*
X126716224Y-115041216D01*
X126459799Y-115139290D01*
X126220392Y-115273652D01*
X126220387Y-115273655D01*
X126003097Y-115441441D01*
X126003087Y-115441450D01*
X125835068Y-115615723D01*
X125774367Y-115650323D01*
X125704596Y-115646612D01*
X125647907Y-115605769D01*
X125622298Y-115540762D01*
X125621800Y-115529658D01*
X125621800Y-110530718D01*
X125641485Y-110463679D01*
X125694289Y-110417924D01*
X125763447Y-110407980D01*
X125827003Y-110437005D01*
X125841105Y-110451391D01*
X125904209Y-110527218D01*
X125961259Y-110578335D01*
X126108672Y-110710419D01*
X126108674Y-110710420D01*
X126108677Y-110710423D01*
X126337641Y-110861904D01*
X126586221Y-110978433D01*
X126849119Y-111057527D01*
X127120731Y-111097500D01*
X127120736Y-111097500D01*
X127326552Y-111097500D01*
X127378744Y-111093679D01*
X127531805Y-111082477D01*
X127799775Y-111022784D01*
X128056198Y-110924711D01*
X128295609Y-110790347D01*
X128512904Y-110622557D01*
X128703454Y-110424916D01*
X128863196Y-110201637D01*
X128988727Y-109957479D01*
X129077370Y-109697646D01*
X129127236Y-109427674D01*
X129137262Y-109153320D01*
X129107236Y-108880429D01*
X129043842Y-108637944D01*
X129037797Y-108614821D01*
X129036419Y-108611579D01*
X128930423Y-108362148D01*
X128787405Y-108127804D01*
X128785666Y-108125715D01*
X128611800Y-107916792D01*
X128611795Y-107916787D01*
X128611791Y-107916782D01*
X128471895Y-107791434D01*
X128407327Y-107733580D01*
X128407324Y-107733578D01*
X128407323Y-107733577D01*
X128178359Y-107582096D01*
X127929779Y-107465567D01*
X127782362Y-107421216D01*
X127666879Y-107386472D01*
X127533915Y-107366904D01*
X127395269Y-107346500D01*
X127189453Y-107346500D01*
X127189448Y-107346500D01*
X126984195Y-107361523D01*
X126984185Y-107361524D01*
X126716229Y-107421214D01*
X126716224Y-107421216D01*
X126459799Y-107519290D01*
X126220392Y-107653652D01*
X126220387Y-107653655D01*
X126003097Y-107821441D01*
X126003087Y-107821450D01*
X125835068Y-107995723D01*
X125774367Y-108030323D01*
X125704596Y-108026612D01*
X125647907Y-107985769D01*
X125622298Y-107920762D01*
X125621800Y-107909658D01*
X125621800Y-105703466D01*
X125641485Y-105636427D01*
X125658119Y-105615785D01*
X128236086Y-103037819D01*
X128297409Y-103004334D01*
X128323767Y-103001500D01*
X128640687Y-103001500D01*
X128707726Y-103021185D01*
G37*
%TD.AperFunction*%
%TA.AperFunction,Conductor*%
G36*
X186945515Y-67056574D02*
G01*
X187096469Y-67063990D01*
X187322034Y-67075812D01*
X187327842Y-67076393D01*
X187507383Y-67103025D01*
X187704138Y-67134188D01*
X187709449Y-67135271D01*
X187890852Y-67180711D01*
X188051397Y-67223730D01*
X188078283Y-67230934D01*
X188083127Y-67232446D01*
X188261420Y-67296240D01*
X188440749Y-67365078D01*
X188444992Y-67366893D01*
X188617402Y-67448437D01*
X188787703Y-67535210D01*
X188791403Y-67537259D01*
X188955713Y-67635743D01*
X189115623Y-67739590D01*
X189118789Y-67741789D01*
X189273105Y-67856237D01*
X189421201Y-67976162D01*
X189423820Y-67978407D01*
X189565313Y-68106648D01*
X189567517Y-68108747D01*
X189701251Y-68242481D01*
X189703350Y-68244685D01*
X189831591Y-68386178D01*
X189833836Y-68388797D01*
X189953762Y-68536894D01*
X190068209Y-68691209D01*
X190070408Y-68694375D01*
X190174260Y-68854292D01*
X190272730Y-69018579D01*
X190274794Y-69022307D01*
X190361567Y-69192609D01*
X190443094Y-69364982D01*
X190444930Y-69369274D01*
X190513762Y-69548588D01*
X190577552Y-69726873D01*
X190579064Y-69731715D01*
X190629295Y-69919174D01*
X190674721Y-70100524D01*
X190675816Y-70105893D01*
X190706980Y-70302660D01*
X190733602Y-70482131D01*
X190734188Y-70487987D01*
X190746014Y-70713627D01*
X190753425Y-70864487D01*
X190753500Y-70867530D01*
X190753500Y-70916412D01*
X190753637Y-70917671D01*
X190859417Y-110887639D01*
X190763628Y-139145343D01*
X190759403Y-139177020D01*
X190755684Y-139190899D01*
X190754172Y-139195739D01*
X190690015Y-139375051D01*
X190620646Y-139555764D01*
X190618810Y-139560055D01*
X190536805Y-139733439D01*
X190449374Y-139905034D01*
X190447310Y-139908762D01*
X190348248Y-140074037D01*
X190243613Y-140235160D01*
X190241414Y-140238326D01*
X190126283Y-140393564D01*
X190005450Y-140542779D01*
X190003206Y-140545399D01*
X189874196Y-140687739D01*
X189872097Y-140689943D01*
X189737343Y-140824697D01*
X189735139Y-140826796D01*
X189592799Y-140955806D01*
X189590179Y-140958050D01*
X189440964Y-141078883D01*
X189285726Y-141194014D01*
X189282560Y-141196213D01*
X189121437Y-141300848D01*
X188956162Y-141399910D01*
X188952434Y-141401974D01*
X188780839Y-141489405D01*
X188607455Y-141571410D01*
X188603164Y-141573246D01*
X188422451Y-141642615D01*
X188243141Y-141706771D01*
X188238300Y-141708283D01*
X188049366Y-141758909D01*
X187866989Y-141804592D01*
X187861620Y-141805687D01*
X187663197Y-141837114D01*
X187482844Y-141863867D01*
X187476988Y-141864453D01*
X187248921Y-141876406D01*
X187097939Y-141883823D01*
X187094846Y-141883897D01*
X155637237Y-141858301D01*
X123878668Y-141742815D01*
X123848991Y-141739100D01*
X123740822Y-141712006D01*
X123559374Y-141663386D01*
X123554532Y-141661874D01*
X123380375Y-141599560D01*
X123206616Y-141532860D01*
X123202325Y-141531024D01*
X123034038Y-141451431D01*
X122997092Y-141432606D01*
X122868895Y-141367286D01*
X122865175Y-141365227D01*
X122704827Y-141269118D01*
X122549707Y-141168382D01*
X122546541Y-141166183D01*
X122395964Y-141054508D01*
X122252270Y-140938147D01*
X122249651Y-140935902D01*
X122111635Y-140810812D01*
X122109431Y-140808713D01*
X121979685Y-140678967D01*
X121977586Y-140676763D01*
X121921531Y-140614916D01*
X121852496Y-140538747D01*
X121850251Y-140536128D01*
X121823152Y-140502664D01*
X121734805Y-140393564D01*
X121733891Y-140392435D01*
X121622215Y-140241857D01*
X121620016Y-140238691D01*
X121591869Y-140195349D01*
X121519275Y-140083562D01*
X121510664Y-140069195D01*
X121423153Y-139923192D01*
X121421123Y-139919526D01*
X121336972Y-139754369D01*
X121257372Y-139586069D01*
X121255549Y-139581808D01*
X121188845Y-139408039D01*
X121126521Y-139233855D01*
X121125009Y-139229013D01*
X121076398Y-139047595D01*
X121060010Y-138982172D01*
X121031951Y-138870155D01*
X121030864Y-138864826D01*
X121000791Y-138674950D01*
X120974653Y-138498742D01*
X120974071Y-138492924D01*
X120962792Y-138277706D01*
X120957943Y-138178993D01*
X120955375Y-138126713D01*
X120955300Y-138123671D01*
X120955300Y-138084001D01*
X122586390Y-138084001D01*
X122606804Y-138369433D01*
X122667628Y-138649037D01*
X122667630Y-138649043D01*
X122667631Y-138649046D01*
X122680670Y-138684004D01*
X122767635Y-138917166D01*
X122904770Y-139168309D01*
X122904775Y-139168317D01*
X123076254Y-139397387D01*
X123076270Y-139397405D01*
X123278594Y-139599729D01*
X123278612Y-139599745D01*
X123507682Y-139771224D01*
X123507690Y-139771229D01*
X123758833Y-139908364D01*
X123758832Y-139908364D01*
X123758836Y-139908365D01*
X123758839Y-139908367D01*
X124026954Y-140008369D01*
X124026960Y-140008370D01*
X124026962Y-140008371D01*
X124306566Y-140069195D01*
X124306568Y-140069195D01*
X124306572Y-140069196D01*
X124520552Y-140084500D01*
X124663448Y-140084500D01*
X124877428Y-140069196D01*
X125087472Y-140023504D01*
X125157037Y-140008371D01*
X125157037Y-140008370D01*
X125157046Y-140008369D01*
X125425161Y-139908367D01*
X125676315Y-139771226D01*
X125905395Y-139599739D01*
X126107739Y-139397395D01*
X126279226Y-139168315D01*
X126416367Y-138917161D01*
X126516369Y-138649046D01*
X126577196Y-138369428D01*
X126597610Y-138084000D01*
X126597533Y-138082929D01*
X126588163Y-137951914D01*
X126577196Y-137798572D01*
X126559661Y-137717966D01*
X126516371Y-137518962D01*
X126516370Y-137518960D01*
X126516369Y-137518954D01*
X126416367Y-137250839D01*
X126404457Y-137229028D01*
X126279229Y-136999690D01*
X126279224Y-136999682D01*
X126107745Y-136770612D01*
X126107729Y-136770594D01*
X125905405Y-136568270D01*
X125905387Y-136568254D01*
X125676317Y-136396775D01*
X125676309Y-136396770D01*
X125425166Y-136259635D01*
X125425167Y-136259635D01*
X125317915Y-136219632D01*
X125157046Y-136159631D01*
X125157043Y-136159630D01*
X125157037Y-136159628D01*
X124877433Y-136098804D01*
X124663448Y-136083500D01*
X124520552Y-136083500D01*
X124306566Y-136098804D01*
X124026962Y-136159628D01*
X123758833Y-136259635D01*
X123507690Y-136396770D01*
X123507682Y-136396775D01*
X123278612Y-136568254D01*
X123278594Y-136568270D01*
X123076270Y-136770594D01*
X123076254Y-136770612D01*
X122904775Y-136999682D01*
X122904770Y-136999690D01*
X122767635Y-137250833D01*
X122667628Y-137518962D01*
X122606804Y-137798566D01*
X122586390Y-138083998D01*
X122586390Y-138084001D01*
X120955300Y-138084001D01*
X120955300Y-138073974D01*
X120955240Y-138073427D01*
X120945649Y-129610678D01*
X125378737Y-129610678D01*
X125408762Y-129883559D01*
X125408763Y-129883569D01*
X125478202Y-130149178D01*
X125578161Y-130384402D01*
X125585577Y-130401852D01*
X125706305Y-130599673D01*
X125728592Y-130636191D01*
X125728599Y-130636201D01*
X125904199Y-130847207D01*
X125904204Y-130847212D01*
X125904209Y-130847218D01*
X125904216Y-130847224D01*
X126108672Y-131030419D01*
X126108674Y-131030420D01*
X126108677Y-131030423D01*
X126337641Y-131181904D01*
X126586221Y-131298433D01*
X126849119Y-131377527D01*
X127120731Y-131417500D01*
X127120736Y-131417500D01*
X127326552Y-131417500D01*
X127378744Y-131413679D01*
X127531805Y-131402477D01*
X127799775Y-131342784D01*
X127854117Y-131322000D01*
X129032898Y-131322000D01*
X129053274Y-131580912D01*
X129113901Y-131833445D01*
X129113906Y-131833462D01*
X129213290Y-132073397D01*
X129213292Y-132073400D01*
X129348992Y-132294842D01*
X129348993Y-132294843D01*
X129354801Y-132301644D01*
X129982217Y-131674228D01*
X130070379Y-131814536D01*
X130195464Y-131939621D01*
X130335770Y-132027781D01*
X129708354Y-132655197D01*
X129715157Y-132661007D01*
X129936599Y-132796707D01*
X129936602Y-132796709D01*
X130176537Y-132896093D01*
X130176554Y-132896098D01*
X130429088Y-132956725D01*
X130429087Y-132956725D01*
X130688000Y-132977101D01*
X130946912Y-132956725D01*
X131199445Y-132896098D01*
X131199462Y-132896093D01*
X131439397Y-132796709D01*
X131439400Y-132796707D01*
X131660844Y-132661005D01*
X131667644Y-132655197D01*
X131040229Y-132027782D01*
X131180536Y-131939621D01*
X131305621Y-131814536D01*
X131393782Y-131674229D01*
X132021197Y-132301644D01*
X132027005Y-132294844D01*
X132162707Y-132073400D01*
X132162709Y-132073397D01*
X132262093Y-131833462D01*
X132262098Y-131833445D01*
X132322725Y-131580912D01*
X132343101Y-131322000D01*
X132322725Y-131063087D01*
X132262098Y-130810554D01*
X132262093Y-130810537D01*
X132162709Y-130570602D01*
X132162707Y-130570599D01*
X132027007Y-130349157D01*
X132021197Y-130342354D01*
X131393781Y-130969769D01*
X131305621Y-130829464D01*
X131180536Y-130704379D01*
X131040229Y-130616217D01*
X131667645Y-129988801D01*
X131660843Y-129982993D01*
X131660842Y-129982992D01*
X131439400Y-129847292D01*
X131439397Y-129847290D01*
X131199462Y-129747906D01*
X131199445Y-129747901D01*
X130946911Y-129687274D01*
X130946912Y-129687274D01*
X130688000Y-129666898D01*
X130429087Y-129687274D01*
X130176554Y-129747901D01*
X130176537Y-129747906D01*
X129936602Y-129847290D01*
X129936599Y-129847292D01*
X129715155Y-129982993D01*
X129708353Y-129988800D01*
X130335770Y-130616217D01*
X130195464Y-130704379D01*
X130070379Y-130829464D01*
X129982217Y-130969770D01*
X129354800Y-130342353D01*
X129348993Y-130349155D01*
X129213292Y-130570599D01*
X129213290Y-130570602D01*
X129113906Y-130810537D01*
X129113901Y-130810554D01*
X129053274Y-131063087D01*
X129032898Y-131322000D01*
X127854117Y-131322000D01*
X128056198Y-131244711D01*
X128295609Y-131110347D01*
X128512904Y-130942557D01*
X128703454Y-130744916D01*
X128863196Y-130521637D01*
X128988727Y-130277479D01*
X129077370Y-130017646D01*
X129127236Y-129747674D01*
X129137262Y-129473320D01*
X129107236Y-129200429D01*
X129052708Y-128991856D01*
X129037797Y-128934821D01*
X129035536Y-128929501D01*
X128930423Y-128682148D01*
X128787405Y-128447804D01*
X128784835Y-128444716D01*
X128611800Y-128236792D01*
X128611795Y-128236787D01*
X128611791Y-128236782D01*
X128560184Y-128190542D01*
X128407327Y-128053580D01*
X128407324Y-128053578D01*
X128407323Y-128053577D01*
X128178359Y-127902096D01*
X127929779Y-127785567D01*
X127782362Y-127741216D01*
X127666879Y-127706472D01*
X127533915Y-127686904D01*
X127395269Y-127666500D01*
X127189453Y-127666500D01*
X127189448Y-127666500D01*
X126984195Y-127681523D01*
X126984185Y-127681524D01*
X126716229Y-127741214D01*
X126716224Y-127741216D01*
X126459799Y-127839290D01*
X126220392Y-127973652D01*
X126220387Y-127973655D01*
X126003097Y-128141441D01*
X126003088Y-128141450D01*
X125812549Y-128339080D01*
X125812547Y-128339082D01*
X125652805Y-128562361D01*
X125652802Y-128562366D01*
X125527275Y-128806515D01*
X125527271Y-128806525D01*
X125438632Y-129066344D01*
X125438629Y-129066358D01*
X125388765Y-129336314D01*
X125388763Y-129336334D01*
X125378737Y-129610678D01*
X120945649Y-129610678D01*
X120918176Y-105369642D01*
X124350080Y-105369642D01*
X124354525Y-105416666D01*
X124354800Y-105422504D01*
X124354800Y-117794666D01*
X124353061Y-117810413D01*
X124353332Y-117810439D01*
X124352598Y-117818205D01*
X124354800Y-117888257D01*
X124354800Y-117918159D01*
X124355684Y-117925156D01*
X124356142Y-117930979D01*
X124357626Y-117978189D01*
X124357627Y-117978191D01*
X124363322Y-117997795D01*
X124367267Y-118016842D01*
X124369826Y-118037097D01*
X124369827Y-118037100D01*
X124369828Y-118037103D01*
X124387214Y-118081016D01*
X124389106Y-118086544D01*
X124402281Y-118131892D01*
X124412672Y-118149462D01*
X124421232Y-118166935D01*
X124428747Y-118185917D01*
X124456509Y-118224127D01*
X124459716Y-118229010D01*
X124483758Y-118269662D01*
X124483762Y-118269666D01*
X124498189Y-118284093D01*
X124510826Y-118298888D01*
X124522828Y-118315407D01*
X124559231Y-118345522D01*
X124563531Y-118349435D01*
X127541755Y-121327660D01*
X128530488Y-122316393D01*
X128563973Y-122377716D01*
X128562583Y-122436164D01*
X128553886Y-122468624D01*
X128553884Y-122468634D01*
X128534693Y-122687997D01*
X128534693Y-122688002D01*
X128553884Y-122907365D01*
X128553885Y-122907372D01*
X128566558Y-122954668D01*
X128610880Y-123120076D01*
X128610881Y-123120079D01*
X128610882Y-123120081D01*
X128703942Y-123319650D01*
X128703944Y-123319654D01*
X128830251Y-123500038D01*
X128985962Y-123655749D01*
X129166346Y-123782056D01*
X129217268Y-123805801D01*
X129235089Y-123814111D01*
X129270365Y-123838812D01*
X129714163Y-124282610D01*
X129665353Y-124289967D01*
X129544491Y-124348171D01*
X129446156Y-124439413D01*
X129379083Y-124555587D01*
X129360676Y-124636228D01*
X128754875Y-124030427D01*
X128754875Y-124030428D01*
X128711333Y-124092612D01*
X128711332Y-124092614D01*
X128618898Y-124290840D01*
X128618894Y-124290849D01*
X128562289Y-124502105D01*
X128562287Y-124502115D01*
X128543225Y-124719999D01*
X128543225Y-124720000D01*
X128562287Y-124937884D01*
X128562289Y-124937894D01*
X128618894Y-125149150D01*
X128618898Y-125149159D01*
X128711333Y-125347387D01*
X128767133Y-125427078D01*
X128789460Y-125493285D01*
X128772450Y-125561052D01*
X128739869Y-125597468D01*
X128684741Y-125638737D01*
X128684740Y-125638738D01*
X128684739Y-125638739D01*
X128671331Y-125656650D01*
X128597111Y-125755795D01*
X128546011Y-125892795D01*
X128546011Y-125892797D01*
X128539500Y-125953345D01*
X128539500Y-127550654D01*
X128546011Y-127611202D01*
X128546011Y-127611204D01*
X128581546Y-127706473D01*
X128597111Y-127748204D01*
X128684739Y-127865261D01*
X128801796Y-127952889D01*
X128938799Y-128003989D01*
X128966050Y-128006918D01*
X128999345Y-128010499D01*
X128999362Y-128010500D01*
X130596638Y-128010500D01*
X130596654Y-128010499D01*
X130623692Y-128007591D01*
X130657201Y-128003989D01*
X130794204Y-127952889D01*
X130911261Y-127865261D01*
X130998889Y-127748204D01*
X131047842Y-127616958D01*
X131049988Y-127611204D01*
X131049988Y-127611203D01*
X131049989Y-127611201D01*
X131053591Y-127577692D01*
X131056499Y-127550654D01*
X131056500Y-127550637D01*
X131056500Y-127060758D01*
X131076185Y-126993719D01*
X131128989Y-126947964D01*
X131198147Y-126938020D01*
X131212583Y-126940981D01*
X131358629Y-126980115D01*
X131514127Y-126993719D01*
X131577998Y-126999307D01*
X131578000Y-126999307D01*
X131578002Y-126999307D01*
X131632842Y-126994509D01*
X131797371Y-126980115D01*
X132010076Y-126923120D01*
X132209654Y-126830056D01*
X132390038Y-126703749D01*
X132545749Y-126548038D01*
X132672056Y-126367654D01*
X132765120Y-126168076D01*
X132822115Y-125955371D01*
X132839575Y-125755795D01*
X132841307Y-125736002D01*
X132841307Y-125735997D01*
X132827398Y-125577014D01*
X132822115Y-125516629D01*
X132765120Y-125303924D01*
X132672056Y-125104347D01*
X132672054Y-125104344D01*
X132672053Y-125104342D01*
X132589098Y-124985871D01*
X132545749Y-124923962D01*
X132390038Y-124768251D01*
X132209654Y-124641944D01*
X132140910Y-124609888D01*
X132105635Y-124585188D01*
X131661836Y-124141389D01*
X131710647Y-124134033D01*
X131831509Y-124075829D01*
X131929844Y-123984587D01*
X131996917Y-123868413D01*
X132015323Y-123787771D01*
X132621124Y-124393572D01*
X132664666Y-124331387D01*
X132757101Y-124133159D01*
X132757105Y-124133150D01*
X132813710Y-123921894D01*
X132813712Y-123921884D01*
X132832775Y-123704000D01*
X132832775Y-123703999D01*
X132813712Y-123486115D01*
X132813710Y-123486105D01*
X132757105Y-123274849D01*
X132757101Y-123274840D01*
X132664668Y-123076615D01*
X132621123Y-123014428D01*
X132017785Y-123617766D01*
X132016743Y-123603860D01*
X131967734Y-123478987D01*
X131884095Y-123374108D01*
X131773259Y-123298541D01*
X131663700Y-123264746D01*
X132105634Y-122822811D01*
X132140907Y-122798112D01*
X132209654Y-122766056D01*
X132390038Y-122639749D01*
X132545749Y-122484038D01*
X132672056Y-122303654D01*
X132765120Y-122104076D01*
X132822115Y-121891371D01*
X132841307Y-121672000D01*
X132839908Y-121656014D01*
X132833757Y-121585701D01*
X132822115Y-121452629D01*
X132765120Y-121239924D01*
X132672056Y-121040347D01*
X132672054Y-121040344D01*
X132672053Y-121040342D01*
X132608902Y-120950154D01*
X132545749Y-120859962D01*
X132429468Y-120743681D01*
X132395983Y-120682358D01*
X132400967Y-120612666D01*
X132429467Y-120568320D01*
X132450224Y-120547563D01*
X132473511Y-120524275D01*
X132534832Y-120490791D01*
X132604523Y-120495775D01*
X132648872Y-120524276D01*
X138047181Y-125922585D01*
X138080666Y-125983908D01*
X138083500Y-126010266D01*
X138083500Y-127452141D01*
X138063815Y-127519180D01*
X138051650Y-127535113D01*
X137977963Y-127616950D01*
X137977958Y-127616958D01*
X137888595Y-127771739D01*
X137838028Y-127819955D01*
X137769421Y-127833177D01*
X137704556Y-127807209D01*
X137664028Y-127750295D01*
X137657680Y-127720546D01*
X137655715Y-127698087D01*
X137642115Y-127542629D01*
X137585120Y-127329924D01*
X137492056Y-127130347D01*
X137492054Y-127130344D01*
X137492053Y-127130342D01*
X137390917Y-126985906D01*
X137365749Y-126949962D01*
X137210038Y-126794251D01*
X137029654Y-126667944D01*
X136928422Y-126620739D01*
X136830081Y-126574882D01*
X136830079Y-126574881D01*
X136830076Y-126574880D01*
X136674194Y-126533111D01*
X136617372Y-126517885D01*
X136617365Y-126517884D01*
X136398002Y-126498693D01*
X136397998Y-126498693D01*
X136178634Y-126517884D01*
X136178627Y-126517885D01*
X135965920Y-126574881D01*
X135766346Y-126667944D01*
X135766342Y-126667946D01*
X135585967Y-126794247D01*
X135585960Y-126794252D01*
X135430252Y-126949960D01*
X135430247Y-126949967D01*
X135303946Y-127130342D01*
X135303944Y-127130346D01*
X135210881Y-127329920D01*
X135153885Y-127542627D01*
X135153884Y-127542634D01*
X135134693Y-127761997D01*
X135134693Y-127762002D01*
X135153884Y-127981365D01*
X135153885Y-127981372D01*
X135161690Y-128010499D01*
X135210880Y-128194076D01*
X135210881Y-128194079D01*
X135210882Y-128194081D01*
X135278496Y-128339080D01*
X135303944Y-128393654D01*
X135430251Y-128574038D01*
X135585962Y-128729749D01*
X135585968Y-128729753D01*
X135585969Y-128729754D01*
X135694038Y-128805426D01*
X135737663Y-128860003D01*
X135744855Y-128929501D01*
X135713333Y-128991856D01*
X135694038Y-129008575D01*
X135585962Y-129084251D01*
X135585960Y-129084252D01*
X135430252Y-129239960D01*
X135430247Y-129239967D01*
X135303946Y-129420342D01*
X135303944Y-129420346D01*
X135210881Y-129619920D01*
X135153885Y-129832627D01*
X135153884Y-129832634D01*
X135134693Y-130051997D01*
X135134693Y-130052002D01*
X135153884Y-130271365D01*
X135153885Y-130271372D01*
X135161441Y-130299569D01*
X135210880Y-130484076D01*
X135210881Y-130484079D01*
X135210882Y-130484081D01*
X135302329Y-130680191D01*
X135303944Y-130683654D01*
X135430251Y-130864038D01*
X135585962Y-131019749D01*
X135766346Y-131146056D01*
X135965924Y-131239120D01*
X136178629Y-131296115D01*
X136335322Y-131309823D01*
X136397998Y-131315307D01*
X136398000Y-131315307D01*
X136398002Y-131315307D01*
X136458272Y-131310034D01*
X136617371Y-131296115D01*
X136830076Y-131239120D01*
X137029654Y-131146056D01*
X137210038Y-131019749D01*
X137365749Y-130864038D01*
X137492056Y-130683654D01*
X137585120Y-130484076D01*
X137642115Y-130271371D01*
X137659230Y-130075740D01*
X137661307Y-130052002D01*
X137661307Y-130051997D01*
X137650189Y-129924914D01*
X137642115Y-129832629D01*
X137585120Y-129619924D01*
X137492056Y-129420347D01*
X137492054Y-129420344D01*
X137492053Y-129420342D01*
X137367140Y-129241949D01*
X137365749Y-129239962D01*
X137210038Y-129084251D01*
X137101959Y-129008573D01*
X137058337Y-128953998D01*
X137051144Y-128884499D01*
X137082666Y-128822145D01*
X137101956Y-128805429D01*
X137210038Y-128729749D01*
X137365749Y-128574038D01*
X137492056Y-128393654D01*
X137577809Y-128209753D01*
X137623981Y-128157314D01*
X137691174Y-128138162D01*
X137758055Y-128158377D01*
X137803390Y-128211542D01*
X137813511Y-128249195D01*
X137823458Y-128343828D01*
X137823459Y-128343831D01*
X137882470Y-128525449D01*
X137882473Y-128525456D01*
X137977960Y-128690844D01*
X138043110Y-128763200D01*
X138097108Y-128823172D01*
X138105747Y-128832766D01*
X138260248Y-128945018D01*
X138434712Y-129022694D01*
X138621513Y-129062400D01*
X138812487Y-129062400D01*
X138999288Y-129022694D01*
X139173752Y-128945018D01*
X139328253Y-128832766D01*
X139456040Y-128690844D01*
X139551527Y-128525456D01*
X139610542Y-128343828D01*
X139630504Y-128153900D01*
X139614011Y-127996982D01*
X139626580Y-127928255D01*
X139674312Y-127877231D01*
X139711548Y-127862733D01*
X139846288Y-127834094D01*
X140020752Y-127756418D01*
X140175253Y-127644166D01*
X140303040Y-127502244D01*
X140398527Y-127336856D01*
X140453537Y-127167553D01*
X140483783Y-127118196D01*
X142331380Y-125270599D01*
X142345006Y-125258823D01*
X142364558Y-125244269D01*
X142398515Y-125203800D01*
X142402175Y-125199805D01*
X142408080Y-125193901D01*
X142428636Y-125167903D01*
X142467611Y-125121455D01*
X142525782Y-125082753D01*
X142595643Y-125081645D01*
X142655013Y-125118482D01*
X142685042Y-125181569D01*
X142686600Y-125201161D01*
X142686600Y-128333935D01*
X142669988Y-128395933D01*
X142610689Y-128498644D01*
X142610572Y-128498846D01*
X142610570Y-128498850D01*
X142551559Y-128680468D01*
X142551558Y-128680472D01*
X142531596Y-128870400D01*
X142551558Y-129060328D01*
X142551559Y-129060331D01*
X142610570Y-129241949D01*
X142610573Y-129241956D01*
X142706060Y-129407344D01*
X142765465Y-129473320D01*
X142821266Y-129535294D01*
X142833847Y-129549266D01*
X142988348Y-129661518D01*
X143162812Y-129739194D01*
X143162814Y-129739194D01*
X143162815Y-129739195D01*
X143226447Y-129752720D01*
X143287929Y-129785912D01*
X143288348Y-129786329D01*
X143873881Y-130371862D01*
X143907366Y-130433185D01*
X143910200Y-130459543D01*
X143910200Y-132283535D01*
X143893588Y-132345533D01*
X143835155Y-132446744D01*
X143834172Y-132448446D01*
X143834170Y-132448450D01*
X143775710Y-132628372D01*
X143775158Y-132630072D01*
X143755196Y-132820000D01*
X143775158Y-133009928D01*
X143775159Y-133009931D01*
X143834170Y-133191549D01*
X143834173Y-133191556D01*
X143929660Y-133356944D01*
X144057447Y-133498866D01*
X144211948Y-133611118D01*
X144386412Y-133688794D01*
X144573213Y-133728500D01*
X144764187Y-133728500D01*
X144950988Y-133688794D01*
X145125452Y-133611118D01*
X145279953Y-133498866D01*
X145407740Y-133356944D01*
X145503227Y-133191556D01*
X145562242Y-133009928D01*
X145582204Y-132820000D01*
X145582025Y-132818300D01*
X148083396Y-132818300D01*
X148103358Y-133008228D01*
X148103359Y-133008231D01*
X148162370Y-133189849D01*
X148162373Y-133189856D01*
X148257860Y-133355244D01*
X148385647Y-133497166D01*
X148400886Y-133508238D01*
X148443551Y-133563566D01*
X148449530Y-133633179D01*
X148435388Y-133670554D01*
X148385972Y-133756146D01*
X148385970Y-133756150D01*
X148338884Y-133901067D01*
X148326958Y-133937772D01*
X148306996Y-134127700D01*
X148326958Y-134317628D01*
X148326959Y-134317631D01*
X148385970Y-134499249D01*
X148385973Y-134499256D01*
X148481460Y-134664644D01*
X148609247Y-134806566D01*
X148763748Y-134918818D01*
X148938212Y-134996494D01*
X149125013Y-135036200D01*
X149181734Y-135036200D01*
X149248773Y-135055885D01*
X149269415Y-135072519D01*
X152409703Y-138212807D01*
X152443188Y-138274130D01*
X152438204Y-138343822D01*
X152429410Y-138362486D01*
X152389773Y-138431141D01*
X152330839Y-138612522D01*
X152330758Y-138612772D01*
X152310796Y-138802700D01*
X152330758Y-138992628D01*
X152330759Y-138992631D01*
X152389770Y-139174249D01*
X152389773Y-139174256D01*
X152485260Y-139339644D01*
X152613047Y-139481566D01*
X152767548Y-139593818D01*
X152942012Y-139671494D01*
X153071277Y-139698970D01*
X153132759Y-139732162D01*
X153166535Y-139793325D01*
X153169496Y-139820260D01*
X153169496Y-139823796D01*
X153169496Y-139823800D01*
X153189458Y-140013728D01*
X153189459Y-140013731D01*
X153248470Y-140195349D01*
X153248473Y-140195356D01*
X153343960Y-140360744D01*
X153471747Y-140502666D01*
X153626248Y-140614918D01*
X153800712Y-140692594D01*
X153987513Y-140732300D01*
X154178487Y-140732300D01*
X154365288Y-140692594D01*
X154539752Y-140614918D01*
X154694253Y-140502666D01*
X154822040Y-140360744D01*
X154917527Y-140195356D01*
X154976542Y-140013728D01*
X154996504Y-139823800D01*
X154976542Y-139633872D01*
X154917527Y-139452244D01*
X154822040Y-139286856D01*
X154822036Y-139286850D01*
X154748350Y-139205013D01*
X154718120Y-139142021D01*
X154716500Y-139122041D01*
X154716500Y-135785856D01*
X154723211Y-135763000D01*
X156693496Y-135763000D01*
X156713458Y-135952928D01*
X156713459Y-135952931D01*
X156772470Y-136134549D01*
X156772473Y-136134556D01*
X156867960Y-136299944D01*
X156995747Y-136441866D01*
X157150248Y-136554118D01*
X157324712Y-136631794D01*
X157511513Y-136671500D01*
X157568234Y-136671500D01*
X157635273Y-136691185D01*
X157655915Y-136707819D01*
X158900009Y-137951914D01*
X158933494Y-138013237D01*
X158928510Y-138082929D01*
X158927757Y-138084896D01*
X158890825Y-138179000D01*
X158833844Y-138428651D01*
X158833843Y-138428656D01*
X158814709Y-138683995D01*
X158814709Y-138684004D01*
X158833843Y-138939343D01*
X158833844Y-138939348D01*
X158890822Y-139188987D01*
X158890824Y-139188996D01*
X158890826Y-139189001D01*
X158984378Y-139427369D01*
X159112413Y-139649131D01*
X159241367Y-139810835D01*
X159272072Y-139849338D01*
X159351712Y-139923232D01*
X159459781Y-140023505D01*
X159671355Y-140167754D01*
X159671360Y-140167756D01*
X159671361Y-140167757D01*
X159671362Y-140167758D01*
X159793890Y-140226764D01*
X159902061Y-140278856D01*
X159902062Y-140278856D01*
X159902065Y-140278858D01*
X160146757Y-140354335D01*
X160146758Y-140354335D01*
X160146761Y-140354336D01*
X160399958Y-140392499D01*
X160399963Y-140392499D01*
X160399966Y-140392500D01*
X160399967Y-140392500D01*
X160656033Y-140392500D01*
X160656034Y-140392500D01*
X160656041Y-140392499D01*
X160909238Y-140354336D01*
X160909239Y-140354335D01*
X160909243Y-140354335D01*
X161153935Y-140278858D01*
X161384646Y-140167754D01*
X161596219Y-140023505D01*
X161783931Y-139849334D01*
X161943587Y-139649131D01*
X162071622Y-139427369D01*
X162165174Y-139189001D01*
X162222155Y-138939353D01*
X162223818Y-138917161D01*
X162241291Y-138684004D01*
X162241291Y-138683995D01*
X162222156Y-138428656D01*
X162222155Y-138428651D01*
X162222155Y-138428647D01*
X162165174Y-138178999D01*
X162127890Y-138084001D01*
X185070390Y-138084001D01*
X185090804Y-138369433D01*
X185151628Y-138649037D01*
X185151630Y-138649043D01*
X185151631Y-138649046D01*
X185164670Y-138684004D01*
X185251635Y-138917166D01*
X185388770Y-139168309D01*
X185388775Y-139168317D01*
X185560254Y-139397387D01*
X185560270Y-139397405D01*
X185762594Y-139599729D01*
X185762612Y-139599745D01*
X185991682Y-139771224D01*
X185991690Y-139771229D01*
X186242833Y-139908364D01*
X186242832Y-139908364D01*
X186242836Y-139908365D01*
X186242839Y-139908367D01*
X186510954Y-140008369D01*
X186510960Y-140008370D01*
X186510962Y-140008371D01*
X186790566Y-140069195D01*
X186790568Y-140069195D01*
X186790572Y-140069196D01*
X187004552Y-140084500D01*
X187147448Y-140084500D01*
X187361428Y-140069196D01*
X187571472Y-140023504D01*
X187641037Y-140008371D01*
X187641037Y-140008370D01*
X187641046Y-140008369D01*
X187909161Y-139908367D01*
X188160315Y-139771226D01*
X188389395Y-139599739D01*
X188591739Y-139397395D01*
X188763226Y-139168315D01*
X188900367Y-138917161D01*
X189000369Y-138649046D01*
X189061196Y-138369428D01*
X189081610Y-138084000D01*
X189081533Y-138082929D01*
X189072163Y-137951914D01*
X189061196Y-137798572D01*
X189043661Y-137717966D01*
X189000371Y-137518962D01*
X189000370Y-137518960D01*
X189000369Y-137518954D01*
X188900367Y-137250839D01*
X188888457Y-137229028D01*
X188763229Y-136999690D01*
X188763224Y-136999682D01*
X188591745Y-136770612D01*
X188591729Y-136770594D01*
X188389405Y-136568270D01*
X188389387Y-136568254D01*
X188160317Y-136396775D01*
X188160309Y-136396770D01*
X187909166Y-136259635D01*
X187909167Y-136259635D01*
X187801915Y-136219632D01*
X187641046Y-136159631D01*
X187641043Y-136159630D01*
X187641037Y-136159628D01*
X187361433Y-136098804D01*
X187147448Y-136083500D01*
X187004552Y-136083500D01*
X186790566Y-136098804D01*
X186510962Y-136159628D01*
X186242833Y-136259635D01*
X185991690Y-136396770D01*
X185991682Y-136396775D01*
X185762612Y-136568254D01*
X185762594Y-136568270D01*
X185560270Y-136770594D01*
X185560254Y-136770612D01*
X185388775Y-136999682D01*
X185388770Y-136999690D01*
X185251635Y-137250833D01*
X185151628Y-137518962D01*
X185090804Y-137798566D01*
X185070390Y-138083998D01*
X185070390Y-138084001D01*
X162127890Y-138084001D01*
X162071622Y-137940631D01*
X161943587Y-137718869D01*
X161783931Y-137518666D01*
X161783930Y-137518665D01*
X161783927Y-137518661D01*
X161662989Y-137406448D01*
X161596219Y-137344495D01*
X161384646Y-137200246D01*
X161384645Y-137200245D01*
X161384638Y-137200241D01*
X161153940Y-137089144D01*
X161153921Y-137089137D01*
X161035116Y-137052491D01*
X160976857Y-137013921D01*
X160948699Y-136949977D01*
X160959581Y-136880960D01*
X161006050Y-136828783D01*
X161035116Y-136815509D01*
X161103268Y-136794486D01*
X161153935Y-136778858D01*
X161338651Y-136689903D01*
X161384638Y-136667758D01*
X161384638Y-136667757D01*
X161384646Y-136667754D01*
X161596219Y-136523505D01*
X161757749Y-136373627D01*
X161783927Y-136349338D01*
X161783927Y-136349336D01*
X161783931Y-136349334D01*
X161943587Y-136149131D01*
X162071622Y-135927369D01*
X162165174Y-135689001D01*
X162222155Y-135439353D01*
X162225745Y-135391450D01*
X162241291Y-135184004D01*
X162241291Y-135183995D01*
X162222156Y-134928656D01*
X162222155Y-134928651D01*
X162222155Y-134928647D01*
X162165174Y-134678999D01*
X162071622Y-134440631D01*
X161943587Y-134218869D01*
X161783931Y-134018666D01*
X161783930Y-134018665D01*
X161783927Y-134018661D01*
X161640944Y-133885994D01*
X161596219Y-133844495D01*
X161563518Y-133822200D01*
X161384649Y-133700248D01*
X161384638Y-133700241D01*
X161153940Y-133589144D01*
X161153921Y-133589137D01*
X161020696Y-133548043D01*
X160962437Y-133509473D01*
X160934279Y-133445529D01*
X160945161Y-133376512D01*
X160991630Y-133324335D01*
X161020695Y-133311061D01*
X161150824Y-133270921D01*
X161380381Y-133160373D01*
X161541185Y-133050737D01*
X160737220Y-132246772D01*
X160830588Y-132208099D01*
X160955925Y-132111925D01*
X161052099Y-131986589D01*
X161090773Y-131893220D01*
X161894545Y-132696993D01*
X161936545Y-132644327D01*
X162063941Y-132423671D01*
X162157026Y-132186494D01*
X162157031Y-132186477D01*
X162202126Y-131988900D01*
X174997496Y-131988900D01*
X175017458Y-132178828D01*
X175017459Y-132178831D01*
X175076470Y-132360449D01*
X175076473Y-132360456D01*
X175171960Y-132525844D01*
X175187168Y-132542734D01*
X175298837Y-132666756D01*
X175299747Y-132667766D01*
X175454248Y-132780018D01*
X175628712Y-132857694D01*
X175815513Y-132897400D01*
X176006487Y-132897400D01*
X176193288Y-132857694D01*
X176367752Y-132780018D01*
X176522253Y-132667766D01*
X176526160Y-132663427D01*
X176585646Y-132626779D01*
X176618309Y-132622400D01*
X178518130Y-132622400D01*
X178585169Y-132642085D01*
X178630924Y-132694889D01*
X178636061Y-132708082D01*
X178685470Y-132860150D01*
X178685473Y-132860156D01*
X178780960Y-133025544D01*
X178908747Y-133167466D01*
X179063248Y-133279718D01*
X179237712Y-133357394D01*
X179424513Y-133397100D01*
X179615487Y-133397100D01*
X179802288Y-133357394D01*
X179976752Y-133279718D01*
X180131253Y-133167466D01*
X180259040Y-133025544D01*
X180354527Y-132860156D01*
X180413542Y-132678528D01*
X180433504Y-132488600D01*
X180413542Y-132298672D01*
X180354527Y-132117044D01*
X180259040Y-131951656D01*
X180259036Y-131951650D01*
X180185350Y-131869813D01*
X180155120Y-131806821D01*
X180153500Y-131786841D01*
X180153500Y-124372866D01*
X180173185Y-124305827D01*
X180189819Y-124285185D01*
X180609019Y-123865985D01*
X180670342Y-123832500D01*
X180740034Y-123837484D01*
X180795967Y-123879356D01*
X180820384Y-123944820D01*
X180820700Y-123953666D01*
X180820700Y-126884535D01*
X180804088Y-126946534D01*
X180744672Y-127049446D01*
X180744670Y-127049450D01*
X180685659Y-127231068D01*
X180685658Y-127231072D01*
X180665696Y-127421000D01*
X180685658Y-127610928D01*
X180685659Y-127610931D01*
X180744670Y-127792549D01*
X180744673Y-127792556D01*
X180840160Y-127957944D01*
X180887481Y-128010499D01*
X180954444Y-128084870D01*
X180967947Y-128099866D01*
X181122448Y-128212118D01*
X181296912Y-128289794D01*
X181479795Y-128328667D01*
X181541277Y-128361859D01*
X181541695Y-128362276D01*
X182353137Y-129173718D01*
X182386622Y-129235041D01*
X182381638Y-129304733D01*
X182353137Y-129349080D01*
X181190222Y-130511995D01*
X181176595Y-130523773D01*
X181157041Y-130538331D01*
X181123077Y-130578806D01*
X181119430Y-130582787D01*
X181113518Y-130588700D01*
X181092963Y-130614696D01*
X181043067Y-130674160D01*
X181039101Y-130680191D01*
X181039063Y-130680166D01*
X181034882Y-130686728D01*
X181034921Y-130686752D01*
X181031132Y-130692894D01*
X180998320Y-130763259D01*
X180963491Y-130832610D01*
X180961023Y-130839393D01*
X180960978Y-130839376D01*
X180958422Y-130846732D01*
X180958466Y-130846747D01*
X180956196Y-130853595D01*
X180955588Y-130856541D01*
X180940492Y-130929650D01*
X180936073Y-130948296D01*
X180922598Y-131005151D01*
X180921761Y-131012319D01*
X180921713Y-131012313D01*
X180920923Y-131020044D01*
X180920970Y-131020049D01*
X180920340Y-131027238D01*
X180922600Y-131104879D01*
X180922600Y-132480735D01*
X180905988Y-132542733D01*
X180847331Y-132644332D01*
X180846572Y-132645646D01*
X180846570Y-132645650D01*
X180787559Y-132827268D01*
X180787558Y-132827272D01*
X180767596Y-133017200D01*
X180787558Y-133207128D01*
X180787559Y-133207131D01*
X180846570Y-133388749D01*
X180846573Y-133388756D01*
X180942060Y-133554144D01*
X181069847Y-133696066D01*
X181224348Y-133808318D01*
X181293488Y-133839101D01*
X181346725Y-133884351D01*
X181367046Y-133951200D01*
X181348001Y-134018423D01*
X181330733Y-134040061D01*
X179276514Y-136094281D01*
X179215191Y-136127766D01*
X179188833Y-136130600D01*
X179132113Y-136130600D01*
X178945314Y-136170305D01*
X178770846Y-136247983D01*
X178616345Y-136360235D01*
X178488559Y-136502157D01*
X178393073Y-136667543D01*
X178393070Y-136667550D01*
X178334059Y-136849168D01*
X178334058Y-136849172D01*
X178314096Y-137039100D01*
X178334058Y-137229028D01*
X178334059Y-137229031D01*
X178393070Y-137410649D01*
X178393073Y-137410656D01*
X178488560Y-137576044D01*
X178616347Y-137717966D01*
X178770848Y-137830218D01*
X178945312Y-137907894D01*
X179132113Y-137947600D01*
X179323087Y-137947600D01*
X179509888Y-137907894D01*
X179684352Y-137830218D01*
X179838853Y-137717966D01*
X179966640Y-137576044D01*
X180062127Y-137410656D01*
X180121142Y-137229028D01*
X180138581Y-137063097D01*
X180165164Y-136998487D01*
X180174211Y-136988391D01*
X184950894Y-132211709D01*
X185012215Y-132178226D01*
X185081907Y-132183210D01*
X185130723Y-132216420D01*
X185237408Y-132334906D01*
X185247547Y-132346166D01*
X185402048Y-132458418D01*
X185576512Y-132536094D01*
X185763313Y-132575800D01*
X185954287Y-132575800D01*
X186141088Y-132536094D01*
X186315552Y-132458418D01*
X186470053Y-132346166D01*
X186597840Y-132204244D01*
X186693327Y-132038856D01*
X186752342Y-131857228D01*
X186769781Y-131691297D01*
X186796364Y-131626687D01*
X186805404Y-131616599D01*
X186966213Y-131455789D01*
X186978577Y-131445886D01*
X186978403Y-131445676D01*
X186984415Y-131440702D01*
X186984415Y-131440701D01*
X186984418Y-131440700D01*
X187032384Y-131389620D01*
X187053535Y-131368470D01*
X187057861Y-131362892D01*
X187061650Y-131358455D01*
X187093986Y-131324021D01*
X187103819Y-131306132D01*
X187114502Y-131289869D01*
X187127014Y-131273741D01*
X187145771Y-131230391D01*
X187148341Y-131225147D01*
X187171093Y-131183764D01*
X187171093Y-131183763D01*
X187171095Y-131183760D01*
X187176174Y-131163973D01*
X187182470Y-131145585D01*
X187190581Y-131126845D01*
X187196778Y-131087712D01*
X187197969Y-131080197D01*
X187199151Y-131074486D01*
X187210900Y-131028730D01*
X187210900Y-131008315D01*
X187212427Y-130988914D01*
X187215620Y-130968757D01*
X187211175Y-130921733D01*
X187210900Y-130915895D01*
X187210900Y-128843778D01*
X187230585Y-128776739D01*
X187283389Y-128730984D01*
X187352547Y-128721040D01*
X187360681Y-128722488D01*
X187365410Y-128723493D01*
X187365412Y-128723494D01*
X187552213Y-128763200D01*
X187743187Y-128763200D01*
X187929988Y-128723494D01*
X188104452Y-128645818D01*
X188148141Y-128614075D01*
X188213946Y-128590595D01*
X188282001Y-128606420D01*
X188308707Y-128626711D01*
X188644380Y-128962385D01*
X188677864Y-129023706D01*
X188680018Y-129037096D01*
X188697458Y-129203028D01*
X188697459Y-129203031D01*
X188756470Y-129384649D01*
X188756473Y-129384656D01*
X188851960Y-129550044D01*
X188979747Y-129691966D01*
X189134248Y-129804218D01*
X189308712Y-129881894D01*
X189495513Y-129921600D01*
X189686487Y-129921600D01*
X189873288Y-129881894D01*
X190047752Y-129804218D01*
X190202253Y-129691966D01*
X190330040Y-129550044D01*
X190425527Y-129384656D01*
X190484542Y-129203028D01*
X190504504Y-129013100D01*
X190484542Y-128823172D01*
X190425527Y-128641544D01*
X190330040Y-128476156D01*
X190202253Y-128334234D01*
X190047752Y-128221982D01*
X189873288Y-128144306D01*
X189873286Y-128144305D01*
X189686487Y-128104600D01*
X189629766Y-128104600D01*
X189562727Y-128084915D01*
X189542085Y-128068281D01*
X189252723Y-127778919D01*
X188939688Y-127465883D01*
X188929787Y-127453523D01*
X188929577Y-127453698D01*
X188924602Y-127447686D01*
X188924600Y-127447682D01*
X188896186Y-127421000D01*
X188873521Y-127399715D01*
X188852368Y-127378563D01*
X188850392Y-127377031D01*
X188846783Y-127374231D01*
X188842350Y-127370444D01*
X188807921Y-127338114D01*
X188807919Y-127338112D01*
X188790031Y-127328278D01*
X188773770Y-127317597D01*
X188757639Y-127305084D01*
X188714293Y-127286327D01*
X188709045Y-127283756D01*
X188681851Y-127268806D01*
X188667660Y-127261005D01*
X188664260Y-127260132D01*
X188647887Y-127255928D01*
X188629481Y-127249626D01*
X188610744Y-127241518D01*
X188610746Y-127241518D01*
X188564096Y-127234130D01*
X188558381Y-127232946D01*
X188538212Y-127227768D01*
X188512632Y-127221200D01*
X188512630Y-127221200D01*
X188492216Y-127221200D01*
X188472817Y-127219673D01*
X188452658Y-127216480D01*
X188452657Y-127216480D01*
X188405634Y-127220925D01*
X188399796Y-127221200D01*
X188355009Y-127221200D01*
X188287970Y-127201515D01*
X188262860Y-127180173D01*
X188258954Y-127175835D01*
X188251726Y-127170583D01*
X188104452Y-127063582D01*
X187929988Y-126985906D01*
X187929986Y-126985905D01*
X187743187Y-126946200D01*
X187608640Y-126946200D01*
X187541601Y-126926515D01*
X187495846Y-126873711D01*
X187485319Y-126809239D01*
X187486894Y-126794251D01*
X187490904Y-126756100D01*
X187470942Y-126566172D01*
X187411927Y-126384544D01*
X187316440Y-126219156D01*
X187188653Y-126077234D01*
X187034152Y-125964982D01*
X186859688Y-125887306D01*
X186859686Y-125887305D01*
X186672887Y-125847600D01*
X186608000Y-125847600D01*
X186540961Y-125827915D01*
X186495206Y-125775111D01*
X186484000Y-125723600D01*
X186484000Y-123036357D01*
X186503685Y-122969318D01*
X186556489Y-122923563D01*
X186625647Y-122913619D01*
X186689203Y-122942644D01*
X186721556Y-122986548D01*
X186761139Y-123076790D01*
X186884276Y-123265265D01*
X186884284Y-123265276D01*
X187012171Y-123404196D01*
X187036760Y-123430906D01*
X187214424Y-123569189D01*
X187214425Y-123569189D01*
X187214427Y-123569191D01*
X187301513Y-123616319D01*
X187412426Y-123676342D01*
X187625365Y-123749444D01*
X187847431Y-123786500D01*
X188072569Y-123786500D01*
X188294635Y-123749444D01*
X188507574Y-123676342D01*
X188705576Y-123569189D01*
X188883240Y-123430906D01*
X188996490Y-123307885D01*
X189035715Y-123265276D01*
X189035716Y-123265274D01*
X189035722Y-123265268D01*
X189158860Y-123076791D01*
X189249296Y-122870616D01*
X189304564Y-122652368D01*
X189304978Y-122647371D01*
X189323156Y-122428005D01*
X189323156Y-122427994D01*
X189305674Y-122217031D01*
X189319754Y-122148595D01*
X189341566Y-122119113D01*
X189798280Y-121662399D01*
X189811906Y-121650623D01*
X189831458Y-121636069D01*
X189831460Y-121636067D01*
X189865415Y-121595600D01*
X189869075Y-121591605D01*
X189869957Y-121590723D01*
X189874980Y-121585701D01*
X189895536Y-121559703D01*
X189912417Y-121539585D01*
X189945433Y-121500239D01*
X189949403Y-121494203D01*
X189949444Y-121494230D01*
X189953619Y-121487676D01*
X189953577Y-121487650D01*
X189957363Y-121481510D01*
X189957367Y-121481506D01*
X189990175Y-121411146D01*
X190025009Y-121341788D01*
X190025011Y-121341779D01*
X190027480Y-121334999D01*
X190027526Y-121335016D01*
X190030078Y-121327675D01*
X190030031Y-121327660D01*
X190032301Y-121320810D01*
X190032302Y-121320807D01*
X190048000Y-121244777D01*
X190065900Y-121169256D01*
X190065900Y-121169254D01*
X190065901Y-121169250D01*
X190066739Y-121162083D01*
X190066786Y-121162088D01*
X190067576Y-121154357D01*
X190067529Y-121154353D01*
X190068158Y-121147162D01*
X190065900Y-121069554D01*
X190065900Y-113679693D01*
X190067209Y-113661722D01*
X190070741Y-113637611D01*
X190066135Y-113584973D01*
X190065900Y-113579571D01*
X190065900Y-113571224D01*
X190065899Y-113571213D01*
X190062052Y-113538304D01*
X190057643Y-113487901D01*
X190055287Y-113460973D01*
X190055285Y-113460968D01*
X190053827Y-113453904D01*
X190053875Y-113453893D01*
X190052194Y-113446309D01*
X190052146Y-113446321D01*
X190050479Y-113439293D01*
X190050479Y-113439287D01*
X190023930Y-113366344D01*
X189999514Y-113292661D01*
X189999512Y-113292657D01*
X189996460Y-113286112D01*
X189996504Y-113286091D01*
X189993120Y-113279101D01*
X189993076Y-113279124D01*
X189989838Y-113272678D01*
X189989835Y-113272668D01*
X189947171Y-113207800D01*
X189906430Y-113141749D01*
X189906425Y-113141744D01*
X189901952Y-113136086D01*
X189901990Y-113136055D01*
X189897081Y-113130029D01*
X189897045Y-113130060D01*
X189892405Y-113124531D01*
X189892403Y-113124529D01*
X189892401Y-113124526D01*
X189861291Y-113095175D01*
X189835917Y-113071235D01*
X189341569Y-112576888D01*
X189308084Y-112515565D01*
X189305674Y-112478969D01*
X189316532Y-112347933D01*
X189323156Y-112268004D01*
X189323156Y-112267994D01*
X189304565Y-112043640D01*
X189304563Y-112043628D01*
X189289731Y-111985057D01*
X189249296Y-111825384D01*
X189158860Y-111619209D01*
X189153120Y-111610424D01*
X189074168Y-111489578D01*
X189035722Y-111430732D01*
X188884291Y-111266236D01*
X188853370Y-111203584D01*
X188861230Y-111134158D01*
X188905376Y-111080002D01*
X188932189Y-111066073D01*
X189052086Y-111021354D01*
X189052093Y-111021350D01*
X189167187Y-110935190D01*
X189167190Y-110935187D01*
X189253350Y-110820093D01*
X189253354Y-110820086D01*
X189303596Y-110685379D01*
X189303598Y-110685372D01*
X189309999Y-110625844D01*
X189310000Y-110625820D01*
X189310000Y-109978000D01*
X188393686Y-109978000D01*
X188419493Y-109937844D01*
X188460000Y-109799889D01*
X188460000Y-109656111D01*
X188419493Y-109518156D01*
X188393686Y-109478000D01*
X189310000Y-109478000D01*
X189310000Y-108830172D01*
X189309999Y-108830155D01*
X189303598Y-108770627D01*
X189303596Y-108770620D01*
X189253354Y-108635913D01*
X189253350Y-108635906D01*
X189167190Y-108520812D01*
X189167187Y-108520809D01*
X189052093Y-108434649D01*
X189052086Y-108434645D01*
X188917379Y-108384403D01*
X188917372Y-108384401D01*
X188857844Y-108378000D01*
X188210000Y-108378000D01*
X188210000Y-109292498D01*
X188102315Y-109243320D01*
X187995763Y-109228000D01*
X187924237Y-109228000D01*
X187817685Y-109243320D01*
X187710000Y-109292498D01*
X187710000Y-108378000D01*
X187062155Y-108378000D01*
X187002627Y-108384401D01*
X187002620Y-108384403D01*
X186867913Y-108434645D01*
X186867906Y-108434649D01*
X186752812Y-108520809D01*
X186752809Y-108520812D01*
X186666649Y-108635906D01*
X186666645Y-108635913D01*
X186616403Y-108770620D01*
X186616401Y-108770627D01*
X186610000Y-108830155D01*
X186610000Y-109478000D01*
X187526314Y-109478000D01*
X187500507Y-109518156D01*
X187460000Y-109656111D01*
X187460000Y-109799889D01*
X187500507Y-109937844D01*
X187526314Y-109978000D01*
X186610000Y-109978000D01*
X186610000Y-110625844D01*
X186616401Y-110685372D01*
X186616403Y-110685379D01*
X186666645Y-110820086D01*
X186666649Y-110820093D01*
X186752809Y-110935187D01*
X186752812Y-110935190D01*
X186867906Y-111021350D01*
X186867913Y-111021354D01*
X186987810Y-111066073D01*
X187043744Y-111107944D01*
X187068161Y-111173409D01*
X187053309Y-111241682D01*
X187035706Y-111266238D01*
X186884284Y-111430723D01*
X186884276Y-111430734D01*
X186761140Y-111619207D01*
X186670703Y-111825385D01*
X186615436Y-112043628D01*
X186615434Y-112043640D01*
X186596844Y-112267994D01*
X186596844Y-112268005D01*
X186615434Y-112492359D01*
X186615436Y-112492371D01*
X186670703Y-112710614D01*
X186761140Y-112916792D01*
X186884276Y-113105265D01*
X186884284Y-113105276D01*
X187036756Y-113270902D01*
X187036761Y-113270907D01*
X187064712Y-113292662D01*
X187214424Y-113409189D01*
X187214429Y-113409191D01*
X187214431Y-113409193D01*
X187250930Y-113428946D01*
X187300520Y-113478165D01*
X187315628Y-113546382D01*
X187291457Y-113611937D01*
X187250930Y-113647054D01*
X187214431Y-113666806D01*
X187214422Y-113666812D01*
X187036761Y-113805092D01*
X187036756Y-113805097D01*
X186884284Y-113970723D01*
X186884276Y-113970734D01*
X186761140Y-114159207D01*
X186670703Y-114365385D01*
X186615436Y-114583628D01*
X186615434Y-114583640D01*
X186596844Y-114807994D01*
X186596844Y-114808005D01*
X186615434Y-115032359D01*
X186615436Y-115032371D01*
X186670703Y-115250614D01*
X186761139Y-115456790D01*
X186887083Y-115649562D01*
X186886197Y-115650140D01*
X186909911Y-115710260D01*
X186896338Y-115778799D01*
X186874095Y-115809099D01*
X179131179Y-123552014D01*
X179118820Y-123561918D01*
X179118993Y-123562127D01*
X179112983Y-123567099D01*
X179065016Y-123618178D01*
X179043872Y-123639322D01*
X179043857Y-123639339D01*
X179039531Y-123644914D01*
X179035747Y-123649344D01*
X179003419Y-123683771D01*
X179003412Y-123683781D01*
X178993579Y-123701667D01*
X178982903Y-123717920D01*
X178970386Y-123734057D01*
X178970385Y-123734059D01*
X178951625Y-123777410D01*
X178949055Y-123782656D01*
X178926303Y-123824041D01*
X178926303Y-123824042D01*
X178921225Y-123843820D01*
X178914925Y-123862222D01*
X178906818Y-123880957D01*
X178899431Y-123927595D01*
X178898246Y-123933316D01*
X178886500Y-123979065D01*
X178886500Y-123999484D01*
X178884973Y-124018883D01*
X178881780Y-124039041D01*
X178881780Y-124039042D01*
X178886225Y-124086066D01*
X178886500Y-124091904D01*
X178886500Y-124210333D01*
X178866815Y-124277372D01*
X178814011Y-124323127D01*
X178744853Y-124333071D01*
X178681297Y-124304046D01*
X178674819Y-124298014D01*
X178115019Y-123738214D01*
X178081534Y-123676891D01*
X178078700Y-123650533D01*
X178078700Y-121863056D01*
X178098385Y-121796017D01*
X178151189Y-121750262D01*
X178220347Y-121740318D01*
X178228481Y-121741766D01*
X178332613Y-121763900D01*
X178523587Y-121763900D01*
X178710388Y-121724194D01*
X178884852Y-121646518D01*
X179039353Y-121534266D01*
X179167140Y-121392344D01*
X179262627Y-121226956D01*
X179321642Y-121045328D01*
X179341604Y-120855400D01*
X179321642Y-120665472D01*
X179264228Y-120488772D01*
X179262629Y-120483850D01*
X179262628Y-120483849D01*
X179262627Y-120483844D01*
X179179408Y-120339704D01*
X179167141Y-120318457D01*
X179167136Y-120318450D01*
X179093450Y-120236613D01*
X179063220Y-120173621D01*
X179061600Y-120153641D01*
X179061600Y-116338932D01*
X179063339Y-116323180D01*
X179063068Y-116323155D01*
X179063800Y-116315398D01*
X179063802Y-116315392D01*
X179061916Y-116255402D01*
X179067924Y-116213193D01*
X179073242Y-116196828D01*
X179093204Y-116006900D01*
X179073242Y-115816972D01*
X179014227Y-115635344D01*
X178918740Y-115469956D01*
X178790953Y-115328034D01*
X178636452Y-115215782D01*
X178461988Y-115138106D01*
X178461986Y-115138105D01*
X178275187Y-115098400D01*
X178202700Y-115098400D01*
X178135661Y-115078715D01*
X178089906Y-115025911D01*
X178078700Y-114974400D01*
X178078700Y-111997056D01*
X178098385Y-111930017D01*
X178110546Y-111914088D01*
X178184240Y-111832244D01*
X178279727Y-111666856D01*
X178338742Y-111485228D01*
X178358704Y-111295300D01*
X178338742Y-111105372D01*
X178279727Y-110923744D01*
X178184240Y-110758356D01*
X178056453Y-110616434D01*
X177901952Y-110504182D01*
X177727488Y-110426506D01*
X177727486Y-110426505D01*
X177540687Y-110386800D01*
X177349713Y-110386800D01*
X177162914Y-110426505D01*
X177139331Y-110437005D01*
X176996047Y-110500799D01*
X176988446Y-110504183D01*
X176833945Y-110616435D01*
X176706159Y-110758357D01*
X176610673Y-110923743D01*
X176610670Y-110923750D01*
X176551659Y-111105368D01*
X176551658Y-111105372D01*
X176531696Y-111295300D01*
X176551658Y-111485228D01*
X176551659Y-111485231D01*
X176610670Y-111666849D01*
X176610673Y-111666856D01*
X176687262Y-111799513D01*
X176706160Y-111832244D01*
X176779849Y-111914084D01*
X176810080Y-111977075D01*
X176811700Y-111997056D01*
X176811700Y-123880666D01*
X176809961Y-123896413D01*
X176810232Y-123896439D01*
X176809498Y-123904205D01*
X176811700Y-123974257D01*
X176811700Y-124004159D01*
X176812584Y-124011156D01*
X176813042Y-124016979D01*
X176814526Y-124064189D01*
X176814527Y-124064191D01*
X176820222Y-124083795D01*
X176824167Y-124102842D01*
X176826726Y-124123097D01*
X176826727Y-124123100D01*
X176826728Y-124123103D01*
X176844114Y-124167016D01*
X176846006Y-124172544D01*
X176859181Y-124217892D01*
X176869572Y-124235462D01*
X176878132Y-124252935D01*
X176885647Y-124271917D01*
X176913409Y-124310127D01*
X176916616Y-124315010D01*
X176940658Y-124355662D01*
X176940662Y-124355666D01*
X176955089Y-124370093D01*
X176967726Y-124384888D01*
X176979728Y-124401407D01*
X177016131Y-124431522D01*
X177020431Y-124435435D01*
X177419313Y-124834317D01*
X177804878Y-125219882D01*
X177838363Y-125281205D01*
X177840518Y-125294601D01*
X177846164Y-125348312D01*
X177857958Y-125460528D01*
X177857959Y-125460531D01*
X177916970Y-125642149D01*
X177916973Y-125642156D01*
X178012460Y-125807544D01*
X178140247Y-125949466D01*
X178294748Y-126061718D01*
X178469212Y-126139394D01*
X178656013Y-126179100D01*
X178762500Y-126179100D01*
X178829539Y-126198785D01*
X178875294Y-126251589D01*
X178886500Y-126303100D01*
X178886500Y-131231400D01*
X178866815Y-131298439D01*
X178814011Y-131344194D01*
X178762500Y-131355400D01*
X176618309Y-131355400D01*
X176551270Y-131335715D01*
X176526160Y-131314373D01*
X176522254Y-131310035D01*
X176516891Y-131306138D01*
X176367752Y-131197782D01*
X176193288Y-131120106D01*
X176193286Y-131120105D01*
X176006487Y-131080400D01*
X175815513Y-131080400D01*
X175628714Y-131120105D01*
X175454246Y-131197783D01*
X175299745Y-131310035D01*
X175171959Y-131451957D01*
X175076473Y-131617343D01*
X175076470Y-131617350D01*
X175020587Y-131789342D01*
X175017458Y-131798972D01*
X174997496Y-131988900D01*
X162202126Y-131988900D01*
X162213726Y-131938079D01*
X162232767Y-131684004D01*
X162232767Y-131683995D01*
X162213726Y-131429920D01*
X162157031Y-131181522D01*
X162157026Y-131181505D01*
X162063941Y-130944328D01*
X162063942Y-130944328D01*
X161936544Y-130723671D01*
X161894546Y-130671006D01*
X161090772Y-131474779D01*
X161052099Y-131381412D01*
X160955925Y-131256075D01*
X160830588Y-131159901D01*
X160737220Y-131121227D01*
X161541185Y-130317261D01*
X161380377Y-130207624D01*
X161380376Y-130207623D01*
X161215491Y-130128220D01*
X161163631Y-130081398D01*
X161145318Y-130013971D01*
X161166366Y-129947347D01*
X161220092Y-129902679D01*
X161269292Y-129892500D01*
X161776638Y-129892500D01*
X161776654Y-129892499D01*
X161803692Y-129889591D01*
X161837201Y-129885989D01*
X161974204Y-129834889D01*
X162091261Y-129747261D01*
X162178889Y-129630204D01*
X162229989Y-129493201D01*
X162233591Y-129459692D01*
X162236499Y-129432654D01*
X162236500Y-129432637D01*
X162236500Y-126935362D01*
X162236499Y-126935345D01*
X162233157Y-126904270D01*
X162229989Y-126874799D01*
X162229583Y-126873711D01*
X162196423Y-126784806D01*
X162178889Y-126737796D01*
X162091261Y-126620739D01*
X161974204Y-126533111D01*
X161837203Y-126482011D01*
X161776654Y-126475500D01*
X161776638Y-126475500D01*
X161756643Y-126475500D01*
X161689604Y-126455815D01*
X161643849Y-126403011D01*
X161633905Y-126333853D01*
X161662930Y-126270297D01*
X161668962Y-126263819D01*
X161948873Y-125983908D01*
X162839380Y-125093399D01*
X162853006Y-125081623D01*
X162872558Y-125067069D01*
X162906515Y-125026600D01*
X162910175Y-125022605D01*
X162916081Y-125016700D01*
X162936635Y-124990704D01*
X162986532Y-124931240D01*
X162986533Y-124931237D01*
X162990504Y-124925201D01*
X162990545Y-124925228D01*
X162994719Y-124918676D01*
X162994676Y-124918650D01*
X162998462Y-124912511D01*
X162998467Y-124912505D01*
X163031275Y-124842147D01*
X163066109Y-124772788D01*
X163066110Y-124772782D01*
X163068577Y-124766005D01*
X163068624Y-124766022D01*
X163071175Y-124758683D01*
X163071129Y-124758668D01*
X163073400Y-124751810D01*
X163073403Y-124751806D01*
X163089107Y-124675749D01*
X163107000Y-124600256D01*
X163107000Y-124600253D01*
X163107839Y-124593083D01*
X163107886Y-124593088D01*
X163108677Y-124585357D01*
X163108630Y-124585353D01*
X163109259Y-124578162D01*
X163107000Y-124500520D01*
X163107000Y-118500663D01*
X163123613Y-118438663D01*
X163136935Y-118415589D01*
X163183027Y-118335756D01*
X163242042Y-118154128D01*
X163262004Y-117964200D01*
X163242042Y-117774272D01*
X163183027Y-117592644D01*
X163087540Y-117427256D01*
X162959753Y-117285334D01*
X162805252Y-117173082D01*
X162630788Y-117095406D01*
X162630786Y-117095405D01*
X162443987Y-117055700D01*
X162253013Y-117055700D01*
X162066214Y-117095405D01*
X161891746Y-117173083D01*
X161737245Y-117285335D01*
X161609459Y-117427257D01*
X161513973Y-117592643D01*
X161513970Y-117592650D01*
X161455241Y-117773400D01*
X161454958Y-117774272D01*
X161434996Y-117964200D01*
X161454958Y-118154128D01*
X161454959Y-118154131D01*
X161513970Y-118335749D01*
X161513973Y-118335756D01*
X161557038Y-118410347D01*
X161573387Y-118438663D01*
X161590000Y-118500663D01*
X161590000Y-124146056D01*
X161570315Y-124213095D01*
X161553681Y-124233737D01*
X160037122Y-125750295D01*
X160023495Y-125762073D01*
X160003941Y-125776631D01*
X159969977Y-125817106D01*
X159966330Y-125821087D01*
X159960418Y-125827000D01*
X159939863Y-125852996D01*
X159889967Y-125912460D01*
X159886001Y-125918491D01*
X159885963Y-125918466D01*
X159881782Y-125925028D01*
X159881821Y-125925052D01*
X159878032Y-125931194D01*
X159845220Y-126001559D01*
X159810391Y-126070910D01*
X159807923Y-126077693D01*
X159807878Y-126077676D01*
X159805322Y-126085032D01*
X159805366Y-126085047D01*
X159803096Y-126091895D01*
X159795244Y-126129922D01*
X159787392Y-126167950D01*
X159780084Y-126198785D01*
X159769498Y-126243451D01*
X159768661Y-126250619D01*
X159768613Y-126250613D01*
X159767823Y-126258344D01*
X159767870Y-126258349D01*
X159767240Y-126265538D01*
X159769500Y-126343179D01*
X159769500Y-126351500D01*
X159749815Y-126418539D01*
X159697011Y-126464294D01*
X159645500Y-126475500D01*
X159279345Y-126475500D01*
X159218797Y-126482011D01*
X159218795Y-126482011D01*
X159081795Y-126533111D01*
X158964739Y-126620739D01*
X158877111Y-126737795D01*
X158826011Y-126874795D01*
X158826011Y-126874797D01*
X158819500Y-126935345D01*
X158819500Y-129432654D01*
X158826011Y-129493202D01*
X158826011Y-129493204D01*
X158871312Y-129614656D01*
X158877111Y-129630204D01*
X158964739Y-129747261D01*
X159081796Y-129834889D01*
X159193661Y-129876613D01*
X159201224Y-129879434D01*
X159218799Y-129885989D01*
X159246050Y-129888918D01*
X159279345Y-129892499D01*
X159279362Y-129892500D01*
X159786708Y-129892500D01*
X159853747Y-129912185D01*
X159899502Y-129964989D01*
X159909446Y-130034147D01*
X159880421Y-130097703D01*
X159840509Y-130128220D01*
X159675624Y-130207623D01*
X159675616Y-130207628D01*
X159514813Y-130317261D01*
X160318779Y-131121227D01*
X160225412Y-131159901D01*
X160100075Y-131256075D01*
X160003901Y-131381411D01*
X159965226Y-131474779D01*
X159161453Y-130671006D01*
X159119455Y-130723670D01*
X158992058Y-130944328D01*
X158898973Y-131181505D01*
X158898968Y-131181522D01*
X158842273Y-131429920D01*
X158823233Y-131683995D01*
X158823233Y-131684004D01*
X158842273Y-131938079D01*
X158898968Y-132186477D01*
X158898973Y-132186494D01*
X158992058Y-132423671D01*
X158992057Y-132423671D01*
X159119457Y-132644332D01*
X159161452Y-132696993D01*
X159161453Y-132696993D01*
X159965226Y-131893219D01*
X160003901Y-131986588D01*
X160100075Y-132111925D01*
X160225412Y-132208099D01*
X160318779Y-132246772D01*
X159514813Y-133050737D01*
X159675623Y-133160375D01*
X159675624Y-133160376D01*
X159905176Y-133270921D01*
X159905174Y-133270921D01*
X160035304Y-133311061D01*
X160093563Y-133349631D01*
X160121721Y-133413576D01*
X160110837Y-133482593D01*
X160064368Y-133534770D01*
X160035304Y-133548043D01*
X159902061Y-133589143D01*
X159671362Y-133700241D01*
X159671361Y-133700242D01*
X159459780Y-133844495D01*
X159272072Y-134018661D01*
X159112413Y-134218869D01*
X158984378Y-134440630D01*
X158890828Y-134678993D01*
X158890822Y-134679012D01*
X158833844Y-134928651D01*
X158833843Y-134928656D01*
X158814709Y-135183995D01*
X158814709Y-135184004D01*
X158833843Y-135439343D01*
X158833844Y-135439348D01*
X158833844Y-135439352D01*
X158833845Y-135439353D01*
X158837566Y-135455656D01*
X158890822Y-135688987D01*
X158890824Y-135688994D01*
X158890826Y-135689001D01*
X158972112Y-135896116D01*
X158978280Y-135965711D01*
X158945842Y-136027594D01*
X158885097Y-136062117D01*
X158815330Y-136058317D01*
X158769002Y-136029097D01*
X158553620Y-135813715D01*
X158520135Y-135752392D01*
X158517982Y-135739012D01*
X158500542Y-135573072D01*
X158441527Y-135391444D01*
X158346040Y-135226056D01*
X158218253Y-135084134D01*
X158063752Y-134971882D01*
X157889288Y-134894206D01*
X157889286Y-134894205D01*
X157702487Y-134854500D01*
X157511513Y-134854500D01*
X157324714Y-134894205D01*
X157150246Y-134971883D01*
X156995745Y-135084135D01*
X156867959Y-135226057D01*
X156772473Y-135391443D01*
X156772470Y-135391450D01*
X156713459Y-135573068D01*
X156713458Y-135573072D01*
X156693496Y-135763000D01*
X154723211Y-135763000D01*
X154736185Y-135718817D01*
X154748346Y-135702888D01*
X154822040Y-135621044D01*
X154917527Y-135455656D01*
X154976542Y-135274028D01*
X154996504Y-135084100D01*
X154976542Y-134894172D01*
X154917527Y-134712544D01*
X154822040Y-134547156D01*
X154726614Y-134441175D01*
X154696385Y-134378185D01*
X154705010Y-134308849D01*
X154711378Y-134296204D01*
X154714290Y-134291161D01*
X154770527Y-134193756D01*
X154829542Y-134012128D01*
X154846981Y-133846197D01*
X154873564Y-133781587D01*
X154882611Y-133771491D01*
X158044315Y-130609787D01*
X158056680Y-130599883D01*
X158056506Y-130599673D01*
X158062512Y-130594703D01*
X158062518Y-130594700D01*
X158110499Y-130543604D01*
X158131634Y-130522470D01*
X158135963Y-130516887D01*
X158139742Y-130512463D01*
X158172086Y-130478021D01*
X158181923Y-130460124D01*
X158192597Y-130443874D01*
X158205113Y-130427741D01*
X158223872Y-130384389D01*
X158226433Y-130379162D01*
X158249195Y-130337760D01*
X158254274Y-130317974D01*
X158260572Y-130299582D01*
X158268681Y-130280845D01*
X158276068Y-130234201D01*
X158277248Y-130228494D01*
X158289000Y-130182730D01*
X158289000Y-130162309D01*
X158290527Y-130142909D01*
X158290937Y-130140324D01*
X158293719Y-130122757D01*
X158289275Y-130075740D01*
X158289000Y-130069903D01*
X158289000Y-128663456D01*
X158308685Y-128596417D01*
X158320846Y-128580488D01*
X158394540Y-128498644D01*
X158490027Y-128333256D01*
X158549042Y-128151628D01*
X158569004Y-127961700D01*
X158549042Y-127771772D01*
X158490027Y-127590144D01*
X158394540Y-127424756D01*
X158266753Y-127282834D01*
X158112252Y-127170582D01*
X157937788Y-127092906D01*
X157937786Y-127092905D01*
X157750987Y-127053200D01*
X157560013Y-127053200D01*
X157373214Y-127092905D01*
X157373212Y-127092906D01*
X157205543Y-127167557D01*
X157198746Y-127170583D01*
X157044245Y-127282835D01*
X156916459Y-127424757D01*
X156820973Y-127590143D01*
X156820970Y-127590150D01*
X156761959Y-127771768D01*
X156761958Y-127771772D01*
X156741996Y-127961700D01*
X156761958Y-128151628D01*
X156761959Y-128151631D01*
X156820970Y-128333249D01*
X156820973Y-128333256D01*
X156916459Y-128498643D01*
X156916645Y-128498850D01*
X156990149Y-128580484D01*
X157020380Y-128643475D01*
X157022000Y-128663456D01*
X157022000Y-129788932D01*
X157002315Y-129855971D01*
X156985681Y-129876613D01*
X155202402Y-131659891D01*
X155141079Y-131693376D01*
X155071387Y-131688392D01*
X155015454Y-131646520D01*
X154991037Y-131581056D01*
X154991400Y-131559253D01*
X154996504Y-131510700D01*
X154976542Y-131320772D01*
X154917527Y-131139144D01*
X154854757Y-131030423D01*
X154822041Y-130973757D01*
X154822036Y-130973750D01*
X154748350Y-130891913D01*
X154718120Y-130828921D01*
X154716500Y-130808941D01*
X154716500Y-128662340D01*
X154736185Y-128595301D01*
X154788989Y-128549546D01*
X154814719Y-128541050D01*
X154827519Y-128538329D01*
X154902488Y-128522394D01*
X155076952Y-128444718D01*
X155231453Y-128332466D01*
X155359240Y-128190544D01*
X155454727Y-128025156D01*
X155513742Y-127843528D01*
X155533704Y-127653600D01*
X155513742Y-127463672D01*
X155454727Y-127282044D01*
X155359240Y-127116656D01*
X155231453Y-126974734D01*
X155076952Y-126862482D01*
X154902488Y-126784806D01*
X154902486Y-126784805D01*
X154715687Y-126745100D01*
X154524713Y-126745100D01*
X154337914Y-126784805D01*
X154163446Y-126862483D01*
X154008945Y-126974735D01*
X153881159Y-127116657D01*
X153785673Y-127282043D01*
X153785670Y-127282050D01*
X153729085Y-127456201D01*
X153726658Y-127463672D01*
X153722604Y-127502244D01*
X153709579Y-127626166D01*
X153682994Y-127690781D01*
X153676651Y-127698087D01*
X153668777Y-127706472D01*
X153628015Y-127749879D01*
X153617441Y-127760452D01*
X153606871Y-127771023D01*
X153606857Y-127771039D01*
X153602531Y-127776614D01*
X153598747Y-127781044D01*
X153566419Y-127815471D01*
X153566412Y-127815481D01*
X153556579Y-127833367D01*
X153545903Y-127849620D01*
X153533386Y-127865757D01*
X153533385Y-127865759D01*
X153514625Y-127909110D01*
X153512055Y-127914356D01*
X153489303Y-127955741D01*
X153489303Y-127955742D01*
X153484225Y-127975520D01*
X153477925Y-127993922D01*
X153469818Y-128012657D01*
X153462431Y-128059295D01*
X153461246Y-128065016D01*
X153449500Y-128110765D01*
X153449500Y-128131184D01*
X153447973Y-128150583D01*
X153444780Y-128170741D01*
X153444780Y-128170742D01*
X153449225Y-128217766D01*
X153449500Y-128223604D01*
X153449500Y-129890733D01*
X153429815Y-129957772D01*
X153377011Y-130003527D01*
X153307853Y-130013471D01*
X153244297Y-129984446D01*
X153237819Y-129978414D01*
X151976620Y-128717215D01*
X151943135Y-128655892D01*
X151940982Y-128642512D01*
X151923542Y-128476572D01*
X151864527Y-128294944D01*
X151769040Y-128129556D01*
X151641253Y-127987634D01*
X151486752Y-127875382D01*
X151312288Y-127797706D01*
X151312286Y-127797705D01*
X151125487Y-127758000D01*
X150934513Y-127758000D01*
X150819281Y-127782493D01*
X150749614Y-127777177D01*
X150693880Y-127735040D01*
X150669775Y-127669460D01*
X150669500Y-127661203D01*
X150669500Y-124901356D01*
X150689185Y-124834317D01*
X150701346Y-124818388D01*
X150775040Y-124736544D01*
X150870527Y-124571156D01*
X150929542Y-124389528D01*
X150949504Y-124199600D01*
X150929542Y-124009672D01*
X150870527Y-123828044D01*
X150775040Y-123662656D01*
X150647253Y-123520734D01*
X150492752Y-123408482D01*
X150318288Y-123330806D01*
X150318286Y-123330805D01*
X150131487Y-123291100D01*
X149940513Y-123291100D01*
X149753714Y-123330805D01*
X149579246Y-123408483D01*
X149424745Y-123520735D01*
X149296959Y-123662657D01*
X149201473Y-123828043D01*
X149201470Y-123828050D01*
X149142459Y-124009668D01*
X149142458Y-124009672D01*
X149122496Y-124199600D01*
X149142458Y-124389528D01*
X149142459Y-124389531D01*
X149201470Y-124571149D01*
X149201473Y-124571156D01*
X149287407Y-124719999D01*
X149296960Y-124736544D01*
X149370649Y-124818384D01*
X149400880Y-124881375D01*
X149402500Y-124901356D01*
X149402500Y-129540483D01*
X149382815Y-129607522D01*
X149330011Y-129653277D01*
X149260853Y-129663221D01*
X149252720Y-129661774D01*
X149251370Y-129661487D01*
X149196387Y-129649800D01*
X149005413Y-129649800D01*
X148818614Y-129689505D01*
X148799300Y-129698104D01*
X148679890Y-129751269D01*
X148644146Y-129767183D01*
X148489645Y-129879435D01*
X148361859Y-130021357D01*
X148266373Y-130186743D01*
X148266370Y-130186750D01*
X148213602Y-130349155D01*
X148207358Y-130368372D01*
X148187396Y-130558300D01*
X148207358Y-130748228D01*
X148207359Y-130748231D01*
X148266370Y-130929849D01*
X148266373Y-130929856D01*
X148353811Y-131081304D01*
X148361860Y-131095244D01*
X148435549Y-131177084D01*
X148465780Y-131240075D01*
X148467400Y-131260056D01*
X148467400Y-132016855D01*
X148447715Y-132083894D01*
X148416287Y-132117172D01*
X148385646Y-132139434D01*
X148257859Y-132281357D01*
X148162373Y-132446743D01*
X148162370Y-132446750D01*
X148103359Y-132628368D01*
X148103358Y-132628372D01*
X148083396Y-132818300D01*
X145582025Y-132818300D01*
X145562242Y-132630072D01*
X145503227Y-132448444D01*
X145443811Y-132345533D01*
X145427200Y-132283535D01*
X145427200Y-130158294D01*
X145428509Y-130140324D01*
X145432041Y-130116208D01*
X145428246Y-130072832D01*
X145427435Y-130063573D01*
X145427200Y-130058172D01*
X145427200Y-130049824D01*
X145427199Y-130049813D01*
X145423352Y-130016903D01*
X145420893Y-129988800D01*
X145416587Y-129939574D01*
X145416585Y-129939570D01*
X145415127Y-129932503D01*
X145415173Y-129932493D01*
X145413490Y-129924902D01*
X145413444Y-129924914D01*
X145411780Y-129917895D01*
X145411779Y-129917887D01*
X145385226Y-129844934D01*
X145360814Y-129771262D01*
X145360813Y-129771260D01*
X145357761Y-129764715D01*
X145357805Y-129764694D01*
X145354417Y-129757695D01*
X145354374Y-129757717D01*
X145351136Y-129751269D01*
X145308466Y-129686394D01*
X145267730Y-129620349D01*
X145263253Y-129614687D01*
X145263290Y-129614656D01*
X145258381Y-129608629D01*
X145258345Y-129608660D01*
X145253705Y-129603131D01*
X145253703Y-129603129D01*
X145253701Y-129603126D01*
X145222591Y-129573775D01*
X145197217Y-129549835D01*
X144364885Y-128717504D01*
X144334635Y-128668141D01*
X144332750Y-128662340D01*
X144279627Y-128498844D01*
X144220211Y-128395933D01*
X144203600Y-128333935D01*
X144203600Y-124248843D01*
X144223285Y-124181804D01*
X144239919Y-124161162D01*
X150741362Y-117659719D01*
X150802685Y-117626234D01*
X150829043Y-117623400D01*
X150948363Y-117623400D01*
X151015402Y-117643085D01*
X151021249Y-117647082D01*
X151033549Y-117656019D01*
X151100520Y-117685835D01*
X151208012Y-117733694D01*
X151394813Y-117773400D01*
X151585787Y-117773400D01*
X151772588Y-117733694D01*
X151947052Y-117656018D01*
X152101553Y-117543766D01*
X152229340Y-117401844D01*
X152324827Y-117236456D01*
X152383842Y-117054828D01*
X152403804Y-116864900D01*
X152383842Y-116674972D01*
X152324827Y-116493344D01*
X152229340Y-116327956D01*
X152101553Y-116186034D01*
X151947052Y-116073782D01*
X151772588Y-115996106D01*
X151772586Y-115996105D01*
X151585787Y-115956400D01*
X151394813Y-115956400D01*
X151208014Y-115996105D01*
X151033549Y-116073780D01*
X151021249Y-116082718D01*
X150955442Y-116106198D01*
X150948363Y-116106400D01*
X150829043Y-116106400D01*
X150762004Y-116086715D01*
X150741362Y-116070081D01*
X150397653Y-115726372D01*
X150364168Y-115665049D01*
X150369152Y-115595357D01*
X150393180Y-115555724D01*
X150437672Y-115506312D01*
X150533159Y-115340924D01*
X150592174Y-115159296D01*
X150609613Y-114993367D01*
X150636196Y-114928756D01*
X150645243Y-114918660D01*
X152681917Y-112881986D01*
X152694278Y-112872085D01*
X152694104Y-112871875D01*
X152700113Y-112866902D01*
X152700118Y-112866900D01*
X152748083Y-112815821D01*
X152769235Y-112794670D01*
X152773561Y-112789092D01*
X152777350Y-112784655D01*
X152809686Y-112750221D01*
X152819519Y-112732332D01*
X152830202Y-112716069D01*
X152842714Y-112699941D01*
X152861471Y-112656591D01*
X152864041Y-112651347D01*
X152886793Y-112609964D01*
X152886793Y-112609963D01*
X152886795Y-112609960D01*
X152891874Y-112590173D01*
X152898170Y-112571785D01*
X152906281Y-112553045D01*
X152913669Y-112506397D01*
X152914851Y-112500686D01*
X152926600Y-112454930D01*
X152926600Y-112434515D01*
X152928127Y-112415114D01*
X152931320Y-112394957D01*
X152926875Y-112347933D01*
X152926600Y-112342095D01*
X152926600Y-111202556D01*
X152946285Y-111135517D01*
X152958446Y-111119588D01*
X153032140Y-111037744D01*
X153127627Y-110872356D01*
X153186642Y-110690728D01*
X153206604Y-110500800D01*
X153198629Y-110424919D01*
X153198486Y-110423561D01*
X153211056Y-110354831D01*
X153258788Y-110303808D01*
X153321807Y-110286600D01*
X157557991Y-110286600D01*
X157625030Y-110306285D01*
X157650140Y-110327627D01*
X157654047Y-110331966D01*
X157808548Y-110444218D01*
X157983012Y-110521894D01*
X158169813Y-110561600D01*
X158360787Y-110561600D01*
X158547588Y-110521894D01*
X158722052Y-110444218D01*
X158876553Y-110331966D01*
X159004340Y-110190044D01*
X159099827Y-110024656D01*
X159158842Y-109843028D01*
X159178804Y-109653100D01*
X159158842Y-109463172D01*
X159099827Y-109281544D01*
X159004340Y-109116156D01*
X158876553Y-108974234D01*
X158722052Y-108861982D01*
X158547588Y-108784306D01*
X158547586Y-108784305D01*
X158360787Y-108744600D01*
X158169813Y-108744600D01*
X157983014Y-108784305D01*
X157808546Y-108861983D01*
X157654045Y-108974235D01*
X157650140Y-108978573D01*
X157590654Y-109015221D01*
X157557991Y-109019600D01*
X151662434Y-109019600D01*
X151646686Y-109017861D01*
X151646661Y-109018132D01*
X151638894Y-109017398D01*
X151638891Y-109017398D01*
X151568842Y-109019600D01*
X151538937Y-109019600D01*
X151531943Y-109020484D01*
X151526120Y-109020942D01*
X151478911Y-109022426D01*
X151478908Y-109022427D01*
X151459305Y-109028122D01*
X151440259Y-109032066D01*
X151420003Y-109034626D01*
X151420001Y-109034626D01*
X151419999Y-109034627D01*
X151376082Y-109052014D01*
X151370556Y-109053906D01*
X151325206Y-109067082D01*
X151307633Y-109077474D01*
X151290170Y-109086029D01*
X151271185Y-109093546D01*
X151271183Y-109093547D01*
X151232979Y-109121304D01*
X151228096Y-109124512D01*
X151187437Y-109148558D01*
X151172996Y-109162998D01*
X151158208Y-109175627D01*
X151141697Y-109187623D01*
X151141692Y-109187628D01*
X151111590Y-109224014D01*
X151107658Y-109228336D01*
X148741443Y-111594550D01*
X148680120Y-111628035D01*
X148679544Y-111628159D01*
X148561713Y-111653205D01*
X148387244Y-111730884D01*
X148232745Y-111843135D01*
X148104959Y-111985057D01*
X148009473Y-112150443D01*
X148009470Y-112150450D01*
X147950459Y-112332068D01*
X147950458Y-112332072D01*
X147930496Y-112522000D01*
X147950458Y-112711928D01*
X147950459Y-112711931D01*
X148009470Y-112893549D01*
X148009473Y-112893556D01*
X148104960Y-113058944D01*
X148232747Y-113200866D01*
X148387248Y-113313118D01*
X148561712Y-113390794D01*
X148748513Y-113430500D01*
X148939487Y-113430500D01*
X149126288Y-113390794D01*
X149300752Y-113313118D01*
X149455253Y-113200866D01*
X149583040Y-113058944D01*
X149678527Y-112893556D01*
X149737542Y-112711928D01*
X149757504Y-112522000D01*
X149749258Y-112443545D01*
X149761828Y-112374817D01*
X149784895Y-112342907D01*
X151269957Y-110857845D01*
X151331278Y-110824362D01*
X151400970Y-110829346D01*
X151456903Y-110871218D01*
X151465023Y-110883528D01*
X151485572Y-110919120D01*
X151554060Y-111037744D01*
X151627749Y-111119584D01*
X151657980Y-111182575D01*
X151659600Y-111202556D01*
X151659600Y-112061133D01*
X151639915Y-112128172D01*
X151623281Y-112148814D01*
X149747546Y-114024549D01*
X149686223Y-114058034D01*
X149659865Y-114060868D01*
X149603145Y-114060868D01*
X149416346Y-114100573D01*
X149241875Y-114178252D01*
X149100313Y-114281103D01*
X149034507Y-114304583D01*
X148966453Y-114288757D01*
X148939747Y-114268466D01*
X146887448Y-112216167D01*
X146853963Y-112154844D01*
X146858947Y-112085152D01*
X146900819Y-112029219D01*
X146949346Y-112007196D01*
X147060388Y-111983594D01*
X147234852Y-111905918D01*
X147389353Y-111793666D01*
X147517140Y-111651744D01*
X147612627Y-111486356D01*
X147671642Y-111304728D01*
X147691604Y-111114800D01*
X147671642Y-110924872D01*
X147612627Y-110743244D01*
X147553211Y-110640333D01*
X147536600Y-110578335D01*
X147536600Y-108265900D01*
X161561996Y-108265900D01*
X161581958Y-108455828D01*
X161581959Y-108455831D01*
X161640970Y-108637449D01*
X161640973Y-108637456D01*
X161702832Y-108744600D01*
X161736460Y-108802844D01*
X161800349Y-108873800D01*
X161830580Y-108936791D01*
X161832200Y-108956772D01*
X161832200Y-112337935D01*
X161815588Y-112399933D01*
X161773494Y-112472844D01*
X161756172Y-112502846D01*
X161756170Y-112502850D01*
X161697159Y-112684468D01*
X161697158Y-112684472D01*
X161677196Y-112874400D01*
X161697158Y-113064328D01*
X161697159Y-113064331D01*
X161756170Y-113245949D01*
X161756173Y-113245956D01*
X161851660Y-113411344D01*
X161896349Y-113460976D01*
X161973248Y-113546382D01*
X161979447Y-113553266D01*
X162133948Y-113665518D01*
X162308412Y-113743194D01*
X162308414Y-113743194D01*
X162308415Y-113743195D01*
X162372047Y-113756720D01*
X162433529Y-113789912D01*
X162433948Y-113790329D01*
X166203581Y-117559962D01*
X166237066Y-117621285D01*
X166239900Y-117647643D01*
X166239900Y-119939106D01*
X166238591Y-119957076D01*
X166235058Y-119981191D01*
X166239664Y-120033820D01*
X166239900Y-120039227D01*
X166239900Y-120047578D01*
X166243747Y-120080496D01*
X166250512Y-120157827D01*
X166251972Y-120164894D01*
X166251926Y-120164903D01*
X166253609Y-120172494D01*
X166253654Y-120172484D01*
X166255319Y-120179510D01*
X166271485Y-120223924D01*
X166281873Y-120252465D01*
X166306112Y-120325614D01*
X166306286Y-120326137D01*
X166309340Y-120332686D01*
X166309296Y-120332706D01*
X166312684Y-120339704D01*
X166312727Y-120339683D01*
X166315968Y-120346137D01*
X166350662Y-120398887D01*
X166358633Y-120411005D01*
X166399370Y-120477051D01*
X166399372Y-120477053D01*
X166403851Y-120482718D01*
X166403813Y-120482747D01*
X166408720Y-120488772D01*
X166408757Y-120488742D01*
X166413402Y-120494278D01*
X166469882Y-120547563D01*
X168036430Y-122114111D01*
X168069915Y-122175434D01*
X168072325Y-122212032D01*
X168054844Y-122422994D01*
X168054844Y-122423005D01*
X168073434Y-122647359D01*
X168073436Y-122647371D01*
X168128703Y-122865614D01*
X168219140Y-123071792D01*
X168342276Y-123260265D01*
X168342284Y-123260276D01*
X168492465Y-123423413D01*
X168494760Y-123425906D01*
X168672424Y-123564189D01*
X168672425Y-123564189D01*
X168672427Y-123564191D01*
X168779457Y-123622112D01*
X168870426Y-123671342D01*
X169083365Y-123744444D01*
X169305431Y-123781500D01*
X169530569Y-123781500D01*
X169752635Y-123744444D01*
X169965574Y-123671342D01*
X170163576Y-123564189D01*
X170341240Y-123425906D01*
X170480299Y-123274849D01*
X170493715Y-123260276D01*
X170493716Y-123260274D01*
X170493722Y-123260268D01*
X170616860Y-123071791D01*
X170707296Y-122865616D01*
X170762564Y-122647368D01*
X170762565Y-122647359D01*
X170781156Y-122423005D01*
X170781156Y-122422994D01*
X170762565Y-122198640D01*
X170762563Y-122198628D01*
X170707296Y-121980385D01*
X170668251Y-121891371D01*
X170616860Y-121774209D01*
X170493722Y-121585732D01*
X170493719Y-121585729D01*
X170493715Y-121585723D01*
X170341243Y-121420097D01*
X170341238Y-121420092D01*
X170170000Y-121286811D01*
X170163576Y-121281811D01*
X170127070Y-121262055D01*
X170077479Y-121212836D01*
X170062371Y-121144619D01*
X170086541Y-121079064D01*
X170127070Y-121043945D01*
X170127084Y-121043936D01*
X170163576Y-121024189D01*
X170341240Y-120885906D01*
X170493722Y-120720268D01*
X170616860Y-120531791D01*
X170707296Y-120325616D01*
X170762564Y-120107368D01*
X170764791Y-120080495D01*
X170781156Y-119883005D01*
X170781156Y-119882994D01*
X170762565Y-119658640D01*
X170762563Y-119658628D01*
X170707296Y-119440385D01*
X170698630Y-119420629D01*
X170616860Y-119234209D01*
X170493722Y-119045732D01*
X170493719Y-119045729D01*
X170493715Y-119045723D01*
X170341243Y-118880097D01*
X170341238Y-118880092D01*
X170163577Y-118741812D01*
X170163577Y-118741811D01*
X170120303Y-118718393D01*
X170070713Y-118669173D01*
X170055605Y-118600957D01*
X170079775Y-118535401D01*
X170108198Y-118507763D01*
X170289079Y-118381108D01*
X170456105Y-118214082D01*
X170591600Y-118020578D01*
X170691429Y-117806492D01*
X170691432Y-117806486D01*
X170748636Y-117593000D01*
X169851686Y-117593000D01*
X169877493Y-117552844D01*
X169918000Y-117414889D01*
X169918000Y-117271111D01*
X169877493Y-117133156D01*
X169851686Y-117093000D01*
X170748636Y-117093000D01*
X170748635Y-117092999D01*
X170691432Y-116879513D01*
X170691429Y-116879507D01*
X170591600Y-116665422D01*
X170591599Y-116665420D01*
X170456113Y-116471926D01*
X170456108Y-116471920D01*
X170289082Y-116304894D01*
X170108197Y-116178236D01*
X170064572Y-116123659D01*
X170057380Y-116054160D01*
X170088902Y-115991806D01*
X170120300Y-115967608D01*
X170163576Y-115944189D01*
X170341240Y-115805906D01*
X170489119Y-115645268D01*
X170493715Y-115640276D01*
X170493716Y-115640274D01*
X170493722Y-115640268D01*
X170616860Y-115451791D01*
X170707296Y-115245616D01*
X170762564Y-115027368D01*
X170762685Y-115025911D01*
X170781156Y-114803005D01*
X170781156Y-114802994D01*
X170762565Y-114578640D01*
X170762563Y-114578628D01*
X170707296Y-114360385D01*
X170685459Y-114310602D01*
X170616860Y-114154209D01*
X170493722Y-113965732D01*
X170493719Y-113965729D01*
X170493715Y-113965723D01*
X170341243Y-113800097D01*
X170341238Y-113800092D01*
X170222797Y-113707905D01*
X170163577Y-113661811D01*
X170120303Y-113638393D01*
X170070713Y-113589173D01*
X170055605Y-113520957D01*
X170079775Y-113455401D01*
X170108198Y-113427763D01*
X170289079Y-113301108D01*
X170456105Y-113134082D01*
X170591600Y-112940578D01*
X170691429Y-112726492D01*
X170691432Y-112726486D01*
X170748636Y-112513000D01*
X169851686Y-112513000D01*
X169877493Y-112472844D01*
X169918000Y-112334889D01*
X169918000Y-112191111D01*
X169877493Y-112053156D01*
X169851686Y-112013000D01*
X170748636Y-112013000D01*
X170748635Y-112012999D01*
X170691432Y-111799513D01*
X170691429Y-111799507D01*
X170591600Y-111585422D01*
X170591599Y-111585420D01*
X170456113Y-111391926D01*
X170456108Y-111391920D01*
X170289082Y-111224894D01*
X170108197Y-111098236D01*
X170064572Y-111043659D01*
X170057380Y-110974160D01*
X170088902Y-110911806D01*
X170120300Y-110887608D01*
X170163576Y-110864189D01*
X170341240Y-110725906D01*
X170493722Y-110560268D01*
X170578354Y-110430727D01*
X170631498Y-110385373D01*
X170700729Y-110375949D01*
X170707907Y-110377254D01*
X170781513Y-110392900D01*
X170781514Y-110392900D01*
X170972487Y-110392900D01*
X171159288Y-110353194D01*
X171333752Y-110275518D01*
X171488253Y-110163266D01*
X171616040Y-110021344D01*
X171711527Y-109855956D01*
X171770542Y-109674328D01*
X171790504Y-109484400D01*
X171770542Y-109294472D01*
X171714276Y-109121304D01*
X171711529Y-109112850D01*
X171711528Y-109112849D01*
X171711527Y-109112844D01*
X171652111Y-109009933D01*
X171635500Y-108947935D01*
X171635500Y-108706294D01*
X171636809Y-108688324D01*
X171640341Y-108664208D01*
X171636020Y-108614821D01*
X171635735Y-108611573D01*
X171635500Y-108606172D01*
X171635500Y-108597824D01*
X171635499Y-108597813D01*
X171631652Y-108564903D01*
X171624887Y-108487576D01*
X171623427Y-108480503D01*
X171623473Y-108480493D01*
X171621790Y-108472902D01*
X171621744Y-108472914D01*
X171620080Y-108465895D01*
X171620079Y-108465887D01*
X171593526Y-108392934D01*
X171569114Y-108319262D01*
X171569113Y-108319260D01*
X171566061Y-108312715D01*
X171566105Y-108312694D01*
X171562717Y-108305695D01*
X171562674Y-108305717D01*
X171559436Y-108299269D01*
X171516766Y-108234394D01*
X171476030Y-108168349D01*
X171471553Y-108162687D01*
X171471590Y-108162656D01*
X171466681Y-108156629D01*
X171466645Y-108156660D01*
X171462005Y-108151131D01*
X171462003Y-108151129D01*
X171462001Y-108151126D01*
X171430891Y-108121775D01*
X171405517Y-108097835D01*
X170812819Y-107505137D01*
X170779334Y-107443814D01*
X170776500Y-107417456D01*
X170776500Y-106284362D01*
X170776499Y-106284345D01*
X170773157Y-106253270D01*
X170769989Y-106223799D01*
X170760323Y-106197885D01*
X170747522Y-106163564D01*
X170718889Y-106086796D01*
X170631261Y-105969739D01*
X170514204Y-105882111D01*
X170377203Y-105831011D01*
X170316654Y-105824500D01*
X170316638Y-105824500D01*
X168519362Y-105824500D01*
X168519345Y-105824500D01*
X168458797Y-105831011D01*
X168458795Y-105831011D01*
X168321795Y-105882111D01*
X168204739Y-105969739D01*
X168117111Y-106086795D01*
X168066011Y-106223795D01*
X168066011Y-106223797D01*
X168059500Y-106284345D01*
X168059500Y-108081654D01*
X168066011Y-108142202D01*
X168066011Y-108142204D01*
X168103370Y-108242363D01*
X168117111Y-108279204D01*
X168204739Y-108396261D01*
X168321796Y-108483889D01*
X168370742Y-108502145D01*
X168439595Y-108527827D01*
X168495528Y-108569699D01*
X168519944Y-108635163D01*
X168505092Y-108703436D01*
X168487490Y-108727991D01*
X168342279Y-108885730D01*
X168342276Y-108885734D01*
X168219140Y-109074207D01*
X168128703Y-109280385D01*
X168073436Y-109498628D01*
X168073434Y-109498640D01*
X168054844Y-109722994D01*
X168054844Y-109723000D01*
X168073434Y-109947359D01*
X168073436Y-109947371D01*
X168128703Y-110165614D01*
X168219140Y-110371792D01*
X168342276Y-110560265D01*
X168342284Y-110560276D01*
X168494756Y-110725902D01*
X168494761Y-110725907D01*
X168536758Y-110758595D01*
X168672424Y-110864189D01*
X168715693Y-110887605D01*
X168715695Y-110887606D01*
X168765286Y-110936825D01*
X168780394Y-111005042D01*
X168756224Y-111070597D01*
X168727802Y-111098236D01*
X168546922Y-111224890D01*
X168546920Y-111224891D01*
X168379891Y-111391920D01*
X168379886Y-111391926D01*
X168244400Y-111585420D01*
X168244399Y-111585422D01*
X168144570Y-111799507D01*
X168144567Y-111799513D01*
X168087364Y-112012999D01*
X168087364Y-112013000D01*
X168984314Y-112013000D01*
X168958507Y-112053156D01*
X168918000Y-112191111D01*
X168918000Y-112334889D01*
X168958507Y-112472844D01*
X168984314Y-112513000D01*
X168075267Y-112513000D01*
X168008228Y-112493315D01*
X167987586Y-112476681D01*
X166305819Y-110794914D01*
X166272334Y-110733591D01*
X166269500Y-110707233D01*
X166269500Y-108668456D01*
X166289185Y-108601417D01*
X166301346Y-108585488D01*
X166375040Y-108503644D01*
X166470527Y-108338256D01*
X166529542Y-108156628D01*
X166549504Y-107966700D01*
X166529542Y-107776772D01*
X166470527Y-107595144D01*
X166375040Y-107429756D01*
X166247253Y-107287834D01*
X166092752Y-107175582D01*
X165918288Y-107097906D01*
X165918286Y-107097905D01*
X165731487Y-107058200D01*
X165540513Y-107058200D01*
X165353714Y-107097905D01*
X165179246Y-107175583D01*
X165024745Y-107287835D01*
X164896959Y-107429757D01*
X164801473Y-107595143D01*
X164801470Y-107595150D01*
X164756493Y-107733577D01*
X164742458Y-107776772D01*
X164722496Y-107966700D01*
X164742458Y-108156628D01*
X164742459Y-108156631D01*
X164801470Y-108338249D01*
X164801473Y-108338256D01*
X164896094Y-108502145D01*
X164896960Y-108503644D01*
X164970649Y-108585484D01*
X165000880Y-108648475D01*
X165002500Y-108668456D01*
X165002500Y-110937366D01*
X165000761Y-110953113D01*
X165001032Y-110953139D01*
X165000298Y-110960905D01*
X165002500Y-111030957D01*
X165002500Y-111060859D01*
X165003384Y-111067856D01*
X165003842Y-111073679D01*
X165005326Y-111120889D01*
X165005327Y-111120891D01*
X165011022Y-111140495D01*
X165014967Y-111159542D01*
X165017526Y-111179797D01*
X165017527Y-111179800D01*
X165017528Y-111179803D01*
X165034914Y-111223716D01*
X165036806Y-111229244D01*
X165049981Y-111274592D01*
X165060372Y-111292162D01*
X165068932Y-111309635D01*
X165076447Y-111328617D01*
X165104209Y-111366827D01*
X165107416Y-111371710D01*
X165131458Y-111412362D01*
X165131462Y-111412366D01*
X165145889Y-111426793D01*
X165158526Y-111441588D01*
X165170528Y-111458107D01*
X165206931Y-111488222D01*
X165211231Y-111492135D01*
X166659674Y-112940578D01*
X168068936Y-114349840D01*
X168102421Y-114411163D01*
X168101461Y-114467960D01*
X168073435Y-114578633D01*
X168054844Y-114802994D01*
X168054844Y-114803005D01*
X168073434Y-115027359D01*
X168073436Y-115027371D01*
X168128703Y-115245614D01*
X168219140Y-115451792D01*
X168342276Y-115640265D01*
X168342284Y-115640276D01*
X168447028Y-115754056D01*
X168494760Y-115805906D01*
X168672424Y-115944189D01*
X168715693Y-115967605D01*
X168715695Y-115967606D01*
X168765286Y-116016825D01*
X168780394Y-116085042D01*
X168756224Y-116150597D01*
X168727802Y-116178236D01*
X168546922Y-116304890D01*
X168546920Y-116304891D01*
X168379891Y-116471920D01*
X168379886Y-116471926D01*
X168244400Y-116665420D01*
X168244399Y-116665422D01*
X168144570Y-116879507D01*
X168144567Y-116879513D01*
X168087364Y-117092999D01*
X168087364Y-117093000D01*
X168984314Y-117093000D01*
X168958507Y-117133156D01*
X168918000Y-117271111D01*
X168918000Y-117414889D01*
X168958507Y-117552844D01*
X168984314Y-117593000D01*
X168087364Y-117593000D01*
X168144567Y-117806486D01*
X168144570Y-117806492D01*
X168244399Y-118020578D01*
X168379894Y-118214082D01*
X168546917Y-118381105D01*
X168727802Y-118507763D01*
X168771427Y-118562340D01*
X168778619Y-118631839D01*
X168747097Y-118694193D01*
X168715697Y-118718392D01*
X168672427Y-118741809D01*
X168672422Y-118741812D01*
X168494761Y-118880092D01*
X168494756Y-118880097D01*
X168342284Y-119045723D01*
X168342276Y-119045734D01*
X168219140Y-119234207D01*
X168128703Y-119440385D01*
X168073436Y-119658628D01*
X168073435Y-119658638D01*
X168068964Y-119712587D01*
X168043810Y-119777771D01*
X167987407Y-119819008D01*
X167917664Y-119823206D01*
X167857707Y-119790026D01*
X167793219Y-119725538D01*
X167759734Y-119664215D01*
X167756900Y-119637857D01*
X167756900Y-117346393D01*
X167758209Y-117328422D01*
X167759786Y-117317655D01*
X167761741Y-117304311D01*
X167761342Y-117299754D01*
X167757136Y-117251678D01*
X167756900Y-117246271D01*
X167756900Y-117237924D01*
X167756899Y-117237913D01*
X167753052Y-117205004D01*
X167750259Y-117173082D01*
X167746287Y-117127673D01*
X167746285Y-117127668D01*
X167744827Y-117120604D01*
X167744875Y-117120593D01*
X167743194Y-117113009D01*
X167743146Y-117113021D01*
X167741479Y-117105993D01*
X167741479Y-117105987D01*
X167714928Y-117033038D01*
X167690514Y-116959362D01*
X167690511Y-116959358D01*
X167687461Y-116952815D01*
X167687505Y-116952794D01*
X167684117Y-116945795D01*
X167684074Y-116945817D01*
X167680836Y-116939369D01*
X167638166Y-116874494D01*
X167597430Y-116808449D01*
X167592953Y-116802787D01*
X167592990Y-116802756D01*
X167588081Y-116796729D01*
X167588045Y-116796760D01*
X167583405Y-116791231D01*
X167583403Y-116791229D01*
X167583401Y-116791226D01*
X167552291Y-116761875D01*
X167526917Y-116737935D01*
X163510485Y-112721504D01*
X163480235Y-112672141D01*
X163475348Y-112657101D01*
X163447622Y-112571767D01*
X163425229Y-112502849D01*
X163425228Y-112502847D01*
X163425227Y-112502844D01*
X163365811Y-112399933D01*
X163349200Y-112337935D01*
X163349200Y-108536534D01*
X163355269Y-108498215D01*
X163358726Y-108487576D01*
X163369042Y-108455828D01*
X163389004Y-108265900D01*
X163369042Y-108075972D01*
X163310027Y-107894344D01*
X163250611Y-107791433D01*
X163234000Y-107729435D01*
X163234000Y-104977863D01*
X163250613Y-104915863D01*
X163310027Y-104812956D01*
X163369042Y-104631328D01*
X163389004Y-104441400D01*
X163369042Y-104251472D01*
X163310027Y-104069844D01*
X163310024Y-104069838D01*
X163265476Y-103992678D01*
X163249003Y-103924778D01*
X163271856Y-103858751D01*
X163285176Y-103843004D01*
X163830176Y-103298004D01*
X184114429Y-103298004D01*
X184134683Y-103568289D01*
X184134684Y-103568294D01*
X184134684Y-103568298D01*
X184134685Y-103568299D01*
X184139884Y-103591079D01*
X184194997Y-103832545D01*
X184194999Y-103832554D01*
X184195001Y-103832559D01*
X184294029Y-104084879D01*
X184429557Y-104319621D01*
X184475447Y-104377165D01*
X184501855Y-104441850D01*
X184502500Y-104454477D01*
X184502500Y-112714141D01*
X184482815Y-112781180D01*
X184470650Y-112797113D01*
X184396963Y-112878950D01*
X184396958Y-112878957D01*
X184301473Y-113044343D01*
X184301470Y-113044350D01*
X184248362Y-113207800D01*
X184242458Y-113225972D01*
X184222496Y-113415900D01*
X184242458Y-113605828D01*
X184242459Y-113605831D01*
X184301470Y-113787449D01*
X184301473Y-113787456D01*
X184396960Y-113952844D01*
X184462101Y-114025190D01*
X184522462Y-114092229D01*
X184524747Y-114094766D01*
X184679248Y-114207018D01*
X184853712Y-114284694D01*
X185040513Y-114324400D01*
X185231487Y-114324400D01*
X185418288Y-114284694D01*
X185592752Y-114207018D01*
X185747253Y-114094766D01*
X185875040Y-113952844D01*
X185970527Y-113787456D01*
X186029542Y-113605828D01*
X186049504Y-113415900D01*
X186029542Y-113225972D01*
X185970527Y-113044344D01*
X185896884Y-112916791D01*
X185875041Y-112878957D01*
X185875036Y-112878950D01*
X185801350Y-112797113D01*
X185771120Y-112734121D01*
X185769500Y-112714141D01*
X185769500Y-105230500D01*
X185789185Y-105163461D01*
X185841989Y-105117706D01*
X185893500Y-105106500D01*
X186063527Y-105106500D01*
X186063528Y-105106500D01*
X186086504Y-105103037D01*
X186331553Y-105066102D01*
X186331554Y-105066101D01*
X186331558Y-105066101D01*
X186590572Y-104986206D01*
X186785585Y-104892293D01*
X186834778Y-104868603D01*
X186834778Y-104868602D01*
X186834786Y-104868599D01*
X187058743Y-104715907D01*
X187257442Y-104531542D01*
X187426443Y-104319621D01*
X187561971Y-104084879D01*
X187660999Y-103832559D01*
X187721315Y-103568299D01*
X187725426Y-103513442D01*
X187741571Y-103298004D01*
X187741571Y-103297995D01*
X187721316Y-103027710D01*
X187721315Y-103027705D01*
X187721315Y-103027701D01*
X187660999Y-102763441D01*
X187561971Y-102511121D01*
X187426443Y-102276379D01*
X187257442Y-102064458D01*
X187058743Y-101880093D01*
X186834786Y-101727401D01*
X186834780Y-101727398D01*
X186834779Y-101727397D01*
X186834778Y-101727396D01*
X186590574Y-101609795D01*
X186590576Y-101609795D01*
X186331559Y-101529899D01*
X186331553Y-101529897D01*
X186063535Y-101489500D01*
X186063528Y-101489500D01*
X185792472Y-101489500D01*
X185792464Y-101489500D01*
X185524446Y-101529897D01*
X185524440Y-101529899D01*
X185265427Y-101609794D01*
X185021219Y-101727398D01*
X184797256Y-101880093D01*
X184598560Y-102064456D01*
X184598558Y-102064458D01*
X184429557Y-102276379D01*
X184294029Y-102511120D01*
X184195003Y-102763435D01*
X184194997Y-102763454D01*
X184134684Y-103027705D01*
X184134683Y-103027710D01*
X184114429Y-103297995D01*
X184114429Y-103298004D01*
X163830176Y-103298004D01*
X168830175Y-98298004D01*
X184122953Y-98298004D01*
X184143113Y-98567026D01*
X184143113Y-98567028D01*
X184203142Y-98830033D01*
X184203148Y-98830052D01*
X184301709Y-99081181D01*
X184301708Y-99081181D01*
X184436602Y-99314822D01*
X184490294Y-99382151D01*
X185325452Y-98546992D01*
X185335188Y-98576956D01*
X185423186Y-98715619D01*
X185542903Y-98828040D01*
X185677510Y-98902041D01*
X184842848Y-99736702D01*
X185025483Y-99861220D01*
X185025485Y-99861221D01*
X185268539Y-99978269D01*
X185268537Y-99978269D01*
X185526337Y-100057790D01*
X185526343Y-100057792D01*
X185793101Y-100097999D01*
X185793110Y-100098000D01*
X186062890Y-100098000D01*
X186062898Y-100097999D01*
X186329656Y-100057792D01*
X186329662Y-100057790D01*
X186587461Y-99978269D01*
X186830521Y-99861218D01*
X187013150Y-99736702D01*
X186175534Y-98899086D01*
X186243629Y-98872126D01*
X186376492Y-98775595D01*
X186481175Y-98649055D01*
X186529631Y-98546079D01*
X187365703Y-99382151D01*
X187365704Y-99382150D01*
X187419393Y-99314828D01*
X187419400Y-99314817D01*
X187554290Y-99081181D01*
X187652851Y-98830052D01*
X187652857Y-98830033D01*
X187712886Y-98567028D01*
X187712886Y-98567026D01*
X187733047Y-98298004D01*
X187733047Y-98297995D01*
X187712886Y-98028973D01*
X187712886Y-98028971D01*
X187652857Y-97765966D01*
X187652851Y-97765947D01*
X187554290Y-97514818D01*
X187554291Y-97514818D01*
X187419397Y-97281177D01*
X187365704Y-97213847D01*
X186530546Y-98049004D01*
X186520812Y-98019044D01*
X186432814Y-97880381D01*
X186313097Y-97767960D01*
X186178489Y-97693958D01*
X187013150Y-96859296D01*
X186830517Y-96734779D01*
X186830516Y-96734778D01*
X186587460Y-96617730D01*
X186587462Y-96617730D01*
X186329662Y-96538209D01*
X186329656Y-96538207D01*
X186062898Y-96498000D01*
X185793101Y-96498000D01*
X185526343Y-96538207D01*
X185526337Y-96538209D01*
X185268538Y-96617730D01*
X185025485Y-96734778D01*
X185025476Y-96734783D01*
X184842848Y-96859296D01*
X185680465Y-97696913D01*
X185612371Y-97723874D01*
X185479508Y-97820405D01*
X185374825Y-97946945D01*
X185326368Y-98049921D01*
X184490295Y-97213848D01*
X184436600Y-97281180D01*
X184301709Y-97514818D01*
X184203148Y-97765947D01*
X184203142Y-97765966D01*
X184143113Y-98028971D01*
X184143113Y-98028973D01*
X184122953Y-98297995D01*
X184122953Y-98298004D01*
X168830175Y-98298004D01*
X169692752Y-97435427D01*
X169754073Y-97401944D01*
X169754290Y-97401897D01*
X169818288Y-97388294D01*
X169992752Y-97310618D01*
X170147253Y-97198366D01*
X170275040Y-97056444D01*
X170370527Y-96891056D01*
X170429542Y-96709428D01*
X170449504Y-96519500D01*
X170429542Y-96329572D01*
X170370527Y-96147944D01*
X170275040Y-95982556D01*
X170147253Y-95840634D01*
X169992752Y-95728382D01*
X169818288Y-95650706D01*
X169818286Y-95650705D01*
X169631487Y-95611000D01*
X169440513Y-95611000D01*
X169253714Y-95650705D01*
X169253712Y-95650706D01*
X169109660Y-95714842D01*
X169079246Y-95728383D01*
X168924745Y-95840635D01*
X168796959Y-95982557D01*
X168701473Y-96147943D01*
X168701470Y-96147950D01*
X168646465Y-96317239D01*
X168616215Y-96366602D01*
X161984622Y-102998195D01*
X161970995Y-103009973D01*
X161951441Y-103024531D01*
X161917477Y-103065006D01*
X161913830Y-103068987D01*
X161907918Y-103074900D01*
X161887363Y-103100896D01*
X161837467Y-103160360D01*
X161833501Y-103166391D01*
X161833463Y-103166366D01*
X161829282Y-103172928D01*
X161829321Y-103172952D01*
X161825532Y-103179094D01*
X161792720Y-103249459D01*
X161757891Y-103318810D01*
X161755423Y-103325593D01*
X161755378Y-103325576D01*
X161752822Y-103332932D01*
X161752866Y-103332947D01*
X161750596Y-103339795D01*
X161748413Y-103350370D01*
X161734892Y-103415850D01*
X161723941Y-103462056D01*
X161716998Y-103491351D01*
X161716161Y-103498519D01*
X161716113Y-103498513D01*
X161715323Y-103506244D01*
X161715370Y-103506249D01*
X161714740Y-103513438D01*
X161717000Y-103591079D01*
X161717000Y-103904935D01*
X161700388Y-103966933D01*
X161640977Y-104069838D01*
X161640972Y-104069846D01*
X161640970Y-104069850D01*
X161581959Y-104251468D01*
X161581958Y-104251472D01*
X161561996Y-104441400D01*
X161581958Y-104631328D01*
X161581959Y-104631331D01*
X161640970Y-104812949D01*
X161640973Y-104812956D01*
X161686908Y-104892518D01*
X161700387Y-104915863D01*
X161717000Y-104977863D01*
X161717000Y-107729435D01*
X161700388Y-107791433D01*
X161683064Y-107821441D01*
X161640972Y-107894346D01*
X161640970Y-107894350D01*
X161600442Y-108019084D01*
X161581958Y-108075972D01*
X161561996Y-108265900D01*
X147536600Y-108265900D01*
X147536600Y-107578842D01*
X147556285Y-107511803D01*
X147572914Y-107491166D01*
X150192752Y-104871327D01*
X150254073Y-104837844D01*
X150254290Y-104837797D01*
X150318288Y-104824194D01*
X150492752Y-104746518D01*
X150647253Y-104634266D01*
X150775040Y-104492344D01*
X150870527Y-104326956D01*
X150929542Y-104145328D01*
X150949504Y-103955400D01*
X150929542Y-103765472D01*
X150870527Y-103583844D01*
X150775040Y-103418456D01*
X150647253Y-103276534D01*
X150492752Y-103164282D01*
X150318288Y-103086606D01*
X150318286Y-103086605D01*
X150131487Y-103046900D01*
X149940513Y-103046900D01*
X149753714Y-103086605D01*
X149579246Y-103164283D01*
X149424745Y-103276535D01*
X149296959Y-103418457D01*
X149201473Y-103583843D01*
X149201471Y-103583847D01*
X149146463Y-103753143D01*
X149116213Y-103802505D01*
X146287222Y-106631495D01*
X146273595Y-106643273D01*
X146254041Y-106657831D01*
X146220077Y-106698306D01*
X146216430Y-106702287D01*
X146210518Y-106708200D01*
X146189963Y-106734196D01*
X146140067Y-106793660D01*
X146136101Y-106799691D01*
X146136063Y-106799666D01*
X146131882Y-106806228D01*
X146131921Y-106806252D01*
X146128132Y-106812394D01*
X146095320Y-106882759D01*
X146060491Y-106952110D01*
X146058023Y-106958893D01*
X146057978Y-106958876D01*
X146055422Y-106966232D01*
X146055466Y-106966247D01*
X146053196Y-106973094D01*
X146047938Y-106998561D01*
X146015103Y-107060235D01*
X145954137Y-107094366D01*
X145884397Y-107090118D01*
X145828024Y-107048841D01*
X145802916Y-106983638D01*
X145802500Y-106973485D01*
X145802500Y-94646654D01*
X184119500Y-94646654D01*
X184126011Y-94707202D01*
X184126011Y-94707204D01*
X184148645Y-94767885D01*
X184177111Y-94844204D01*
X184264739Y-94961261D01*
X184381796Y-95048889D01*
X184518799Y-95099989D01*
X184546050Y-95102918D01*
X184579345Y-95106499D01*
X184579362Y-95106500D01*
X187276638Y-95106500D01*
X187276654Y-95106499D01*
X187303692Y-95103591D01*
X187337201Y-95099989D01*
X187474204Y-95048889D01*
X187591261Y-94961261D01*
X187678889Y-94844204D01*
X187729989Y-94707201D01*
X187734900Y-94661523D01*
X187736499Y-94646654D01*
X187736500Y-94646637D01*
X187736500Y-91949362D01*
X187736499Y-91949345D01*
X187733157Y-91918270D01*
X187729989Y-91888799D01*
X187678889Y-91751796D01*
X187591261Y-91634739D01*
X187474204Y-91547111D01*
X187337203Y-91496011D01*
X187276654Y-91489500D01*
X187276638Y-91489500D01*
X184579362Y-91489500D01*
X184579345Y-91489500D01*
X184518797Y-91496011D01*
X184518795Y-91496011D01*
X184381795Y-91547111D01*
X184264739Y-91634739D01*
X184177111Y-91751795D01*
X184126011Y-91888795D01*
X184126011Y-91888797D01*
X184119500Y-91949345D01*
X184119500Y-94646654D01*
X145802500Y-94646654D01*
X145802500Y-90615657D01*
X145822185Y-90548618D01*
X145855377Y-90514082D01*
X145914110Y-90472957D01*
X146080957Y-90306110D01*
X146216296Y-90112826D01*
X146316016Y-89898976D01*
X146377086Y-89671059D01*
X146397651Y-89436000D01*
X146377086Y-89200941D01*
X146316016Y-88973024D01*
X146216296Y-88759175D01*
X146216294Y-88759172D01*
X146216293Y-88759170D01*
X146080956Y-88565888D01*
X145914111Y-88399044D01*
X145914104Y-88399039D01*
X145720830Y-88263706D01*
X145720826Y-88263704D01*
X145506976Y-88163984D01*
X145506972Y-88163983D01*
X145506968Y-88163981D01*
X145279064Y-88102915D01*
X145279060Y-88102914D01*
X145279059Y-88102914D01*
X145279058Y-88102913D01*
X145279053Y-88102913D01*
X145044002Y-88082349D01*
X145043998Y-88082349D01*
X144808946Y-88102913D01*
X144808935Y-88102915D01*
X144581031Y-88163981D01*
X144581022Y-88163985D01*
X144367174Y-88263704D01*
X144367170Y-88263706D01*
X144173888Y-88399043D01*
X144007046Y-88565885D01*
X143890386Y-88732493D01*
X143835809Y-88776118D01*
X143766310Y-88783310D01*
X143703956Y-88751788D01*
X143687236Y-88732492D01*
X143651745Y-88681806D01*
X143651745Y-88681805D01*
X143078385Y-89255166D01*
X143076627Y-89246704D01*
X143005804Y-89110023D01*
X142900732Y-88997518D01*
X142769202Y-88917533D01*
X142722109Y-88904338D01*
X143298193Y-88328253D01*
X143216559Y-88271093D01*
X143004059Y-88172003D01*
X143004053Y-88172000D01*
X142777578Y-88111316D01*
X142777571Y-88111315D01*
X142544002Y-88090881D01*
X142543998Y-88090881D01*
X142310428Y-88111315D01*
X142310421Y-88111316D01*
X142083938Y-88172003D01*
X141871438Y-88271094D01*
X141789805Y-88328252D01*
X142364830Y-88903277D01*
X142250297Y-88953027D01*
X142130884Y-89050177D01*
X142042110Y-89175941D01*
X142012815Y-89258368D01*
X141436252Y-88681805D01*
X141436252Y-88681806D01*
X141400762Y-88732492D01*
X141346186Y-88776117D01*
X141276687Y-88783311D01*
X141214332Y-88751789D01*
X141197612Y-88732492D01*
X141080957Y-88565890D01*
X140914110Y-88399043D01*
X140875288Y-88371860D01*
X140720830Y-88263706D01*
X140720826Y-88263704D01*
X140506976Y-88163984D01*
X140506972Y-88163983D01*
X140506968Y-88163981D01*
X140279064Y-88102915D01*
X140279060Y-88102914D01*
X140279059Y-88102914D01*
X140279058Y-88102913D01*
X140279053Y-88102913D01*
X140044002Y-88082349D01*
X140043998Y-88082349D01*
X139808946Y-88102913D01*
X139808935Y-88102915D01*
X139581031Y-88163981D01*
X139581022Y-88163985D01*
X139367174Y-88263704D01*
X139367170Y-88263706D01*
X139173888Y-88399043D01*
X139007043Y-88565888D01*
X138871706Y-88759170D01*
X138871704Y-88759174D01*
X138771985Y-88973022D01*
X138771981Y-88973031D01*
X138710915Y-89200935D01*
X138710913Y-89200946D01*
X138690349Y-89435998D01*
X138690349Y-89436001D01*
X138710913Y-89671053D01*
X138710915Y-89671064D01*
X138771981Y-89898968D01*
X138771983Y-89898972D01*
X138771984Y-89898976D01*
X138817227Y-89996000D01*
X138871704Y-90112826D01*
X138871706Y-90112830D01*
X138925877Y-90190193D01*
X139007043Y-90306110D01*
X139173890Y-90472957D01*
X139232623Y-90514082D01*
X139367169Y-90608293D01*
X139367171Y-90608294D01*
X139367174Y-90608296D01*
X139581024Y-90708016D01*
X139808941Y-90769086D01*
X139976840Y-90783775D01*
X140043998Y-90789651D01*
X140044000Y-90789651D01*
X140044002Y-90789651D01*
X140102764Y-90784509D01*
X140279059Y-90769086D01*
X140506976Y-90708016D01*
X140720826Y-90608296D01*
X140914110Y-90472957D01*
X141080957Y-90306110D01*
X141197613Y-90139507D01*
X141252190Y-90095883D01*
X141321688Y-90088689D01*
X141384043Y-90120212D01*
X141400763Y-90139508D01*
X141436253Y-90190193D01*
X142009614Y-89616832D01*
X142011373Y-89625296D01*
X142082196Y-89761977D01*
X142187268Y-89874482D01*
X142318798Y-89954467D01*
X142365890Y-89967661D01*
X141789805Y-90543745D01*
X141871440Y-90600906D01*
X142083940Y-90699996D01*
X142083946Y-90699999D01*
X142310421Y-90760683D01*
X142310428Y-90760684D01*
X142543998Y-90781119D01*
X142544002Y-90781119D01*
X142777571Y-90760684D01*
X142777578Y-90760683D01*
X143004053Y-90699999D01*
X143004059Y-90699996D01*
X143216560Y-90600906D01*
X143216566Y-90600902D01*
X143298193Y-90543746D01*
X142723169Y-89968722D01*
X142837703Y-89918973D01*
X142957116Y-89821823D01*
X143045890Y-89696059D01*
X143075184Y-89613631D01*
X143651746Y-90190193D01*
X143687236Y-90139508D01*
X143741813Y-90095883D01*
X143811311Y-90088689D01*
X143873666Y-90120212D01*
X143890386Y-90139507D01*
X144007043Y-90306110D01*
X144007044Y-90306111D01*
X144173887Y-90472955D01*
X144232623Y-90514082D01*
X144276248Y-90568658D01*
X144285500Y-90615657D01*
X144285500Y-111381106D01*
X144284191Y-111399076D01*
X144280658Y-111423191D01*
X144285264Y-111475820D01*
X144285500Y-111481227D01*
X144285500Y-111489578D01*
X144289347Y-111522496D01*
X144296112Y-111599827D01*
X144297572Y-111606894D01*
X144297526Y-111606903D01*
X144299209Y-111614494D01*
X144299254Y-111614484D01*
X144300919Y-111621510D01*
X144317424Y-111666856D01*
X144327473Y-111694465D01*
X144350183Y-111763000D01*
X144351886Y-111768137D01*
X144354940Y-111774686D01*
X144354896Y-111774706D01*
X144358284Y-111781704D01*
X144358327Y-111781683D01*
X144361568Y-111788137D01*
X144397740Y-111843134D01*
X144404233Y-111853005D01*
X144444970Y-111919051D01*
X144444972Y-111919053D01*
X144449451Y-111924718D01*
X144449413Y-111924747D01*
X144454320Y-111930772D01*
X144454357Y-111930742D01*
X144459002Y-111936278D01*
X144515482Y-111989563D01*
X149303137Y-116777219D01*
X149336622Y-116838542D01*
X149331638Y-116908234D01*
X149303137Y-116952581D01*
X142954222Y-123301495D01*
X142940595Y-123313273D01*
X142921041Y-123327831D01*
X142887077Y-123368306D01*
X142883430Y-123372287D01*
X142877518Y-123378200D01*
X142856963Y-123404196D01*
X142817990Y-123450643D01*
X142759819Y-123489346D01*
X142689958Y-123490455D01*
X142630588Y-123453618D01*
X142600558Y-123390531D01*
X142599000Y-123370938D01*
X142599000Y-116827463D01*
X142615613Y-116765463D01*
X142631506Y-116737936D01*
X142675027Y-116662556D01*
X142734042Y-116480928D01*
X142754004Y-116291000D01*
X142734042Y-116101072D01*
X142675027Y-115919444D01*
X142579540Y-115754056D01*
X142451753Y-115612134D01*
X142297252Y-115499882D01*
X142122788Y-115422206D01*
X142122786Y-115422205D01*
X141935987Y-115382500D01*
X141745013Y-115382500D01*
X141558214Y-115422205D01*
X141383746Y-115499883D01*
X141229245Y-115612135D01*
X141101459Y-115754057D01*
X141005973Y-115919443D01*
X141005970Y-115919450D01*
X140951623Y-116086715D01*
X140946958Y-116101072D01*
X140926996Y-116291000D01*
X140946958Y-116480928D01*
X140946959Y-116480931D01*
X141005970Y-116662549D01*
X141005973Y-116662556D01*
X141049493Y-116737935D01*
X141065387Y-116765463D01*
X141082000Y-116827463D01*
X141082000Y-124323256D01*
X141062315Y-124390295D01*
X141045681Y-124410937D01*
X139562181Y-125894437D01*
X139500858Y-125927922D01*
X139431166Y-125922938D01*
X139375233Y-125881066D01*
X139350816Y-125815602D01*
X139350500Y-125806756D01*
X139350500Y-125780126D01*
X139352238Y-125764381D01*
X139351967Y-125764356D01*
X139352701Y-125756593D01*
X139350500Y-125686559D01*
X139350500Y-125656650D01*
X139350500Y-125656644D01*
X139349615Y-125649640D01*
X139349156Y-125643811D01*
X139347673Y-125596609D01*
X139341979Y-125577014D01*
X139338032Y-125557957D01*
X139335474Y-125537703D01*
X139318088Y-125493791D01*
X139316196Y-125488264D01*
X139308138Y-125460531D01*
X139303018Y-125442906D01*
X139292625Y-125425333D01*
X139284063Y-125407855D01*
X139276552Y-125388883D01*
X139276550Y-125388880D01*
X139276549Y-125388878D01*
X139248794Y-125350677D01*
X139245586Y-125345793D01*
X139237633Y-125332347D01*
X139221542Y-125305137D01*
X139207108Y-125290703D01*
X139194469Y-125275906D01*
X139182472Y-125259393D01*
X139181779Y-125258820D01*
X139146084Y-125229290D01*
X139141762Y-125225357D01*
X133330319Y-119413914D01*
X133296834Y-119352591D01*
X133294000Y-119326233D01*
X133294000Y-118622002D01*
X135134693Y-118622002D01*
X135152711Y-118827962D01*
X135153885Y-118841371D01*
X135210880Y-119054076D01*
X135303944Y-119253654D01*
X135430251Y-119434038D01*
X135585962Y-119589749D01*
X135766346Y-119716056D01*
X135965924Y-119809120D01*
X136178629Y-119866115D01*
X136335322Y-119879823D01*
X136397998Y-119885307D01*
X136398000Y-119885307D01*
X136398002Y-119885307D01*
X136452842Y-119880509D01*
X136617371Y-119866115D01*
X136830076Y-119809120D01*
X137029654Y-119716056D01*
X137210038Y-119589749D01*
X137365749Y-119434038D01*
X137492056Y-119253654D01*
X137585120Y-119054076D01*
X137642115Y-118841371D01*
X137661307Y-118622000D01*
X137642115Y-118402629D01*
X137585120Y-118189924D01*
X137492056Y-117990347D01*
X137492054Y-117990344D01*
X137492053Y-117990342D01*
X137378155Y-117827680D01*
X137365749Y-117809962D01*
X137210038Y-117654251D01*
X137101959Y-117578573D01*
X137058337Y-117523998D01*
X137051144Y-117454499D01*
X137082666Y-117392145D01*
X137101956Y-117375429D01*
X137210038Y-117299749D01*
X137365749Y-117144038D01*
X137492056Y-116963654D01*
X137585120Y-116764076D01*
X137642115Y-116551371D01*
X137661307Y-116332000D01*
X137660953Y-116327957D01*
X137648537Y-116186034D01*
X137642115Y-116112629D01*
X137585120Y-115899924D01*
X137492056Y-115700347D01*
X137492054Y-115700344D01*
X137492053Y-115700342D01*
X137377526Y-115536782D01*
X137365749Y-115519962D01*
X137210038Y-115364251D01*
X137029654Y-115237944D01*
X137029311Y-115237784D01*
X136830081Y-115144882D01*
X136830079Y-115144881D01*
X136830076Y-115144880D01*
X136656613Y-115098400D01*
X136617372Y-115087885D01*
X136617365Y-115087884D01*
X136398002Y-115068693D01*
X136397998Y-115068693D01*
X136178634Y-115087884D01*
X136178627Y-115087885D01*
X135965920Y-115144881D01*
X135766346Y-115237944D01*
X135766342Y-115237946D01*
X135585967Y-115364247D01*
X135585960Y-115364252D01*
X135430252Y-115519960D01*
X135430247Y-115519967D01*
X135303946Y-115700342D01*
X135303944Y-115700346D01*
X135210881Y-115899920D01*
X135153885Y-116112627D01*
X135153884Y-116112634D01*
X135134693Y-116331997D01*
X135134693Y-116332002D01*
X135146934Y-116471926D01*
X135153885Y-116551371D01*
X135210880Y-116764076D01*
X135210881Y-116764079D01*
X135210882Y-116764081D01*
X135303942Y-116963650D01*
X135303944Y-116963654D01*
X135430251Y-117144038D01*
X135585962Y-117299749D01*
X135585968Y-117299753D01*
X135585969Y-117299754D01*
X135694038Y-117375426D01*
X135737663Y-117430003D01*
X135744855Y-117499501D01*
X135713333Y-117561856D01*
X135694038Y-117578575D01*
X135585962Y-117654251D01*
X135585960Y-117654252D01*
X135430252Y-117809960D01*
X135430247Y-117809967D01*
X135303946Y-117990342D01*
X135303944Y-117990346D01*
X135210881Y-118189920D01*
X135153885Y-118402627D01*
X135153884Y-118402634D01*
X135134693Y-118621997D01*
X135134693Y-118622002D01*
X133294000Y-118622002D01*
X133294000Y-109732002D01*
X135134693Y-109732002D01*
X135153884Y-109951365D01*
X135153885Y-109951372D01*
X135155523Y-109957484D01*
X135210880Y-110164076D01*
X135210881Y-110164079D01*
X135210882Y-110164081D01*
X135281814Y-110316196D01*
X135303944Y-110363654D01*
X135430251Y-110544038D01*
X135585962Y-110699749D01*
X135766346Y-110826056D01*
X135965924Y-110919120D01*
X136178629Y-110976115D01*
X136335322Y-110989823D01*
X136397998Y-110995307D01*
X136398000Y-110995307D01*
X136398002Y-110995307D01*
X136452842Y-110990509D01*
X136617371Y-110976115D01*
X136830076Y-110919120D01*
X137029654Y-110826056D01*
X137210038Y-110699749D01*
X137365749Y-110544038D01*
X137492056Y-110363654D01*
X137585120Y-110164076D01*
X137642115Y-109951371D01*
X137661307Y-109732000D01*
X137658301Y-109697646D01*
X137654110Y-109649735D01*
X137642115Y-109512629D01*
X137585120Y-109299924D01*
X137492056Y-109100347D01*
X137492054Y-109100344D01*
X137492053Y-109100342D01*
X137403751Y-108974235D01*
X137365749Y-108919962D01*
X137210038Y-108764251D01*
X137101959Y-108688573D01*
X137058337Y-108633998D01*
X137051144Y-108564499D01*
X137082666Y-108502145D01*
X137101956Y-108485429D01*
X137210038Y-108409749D01*
X137365749Y-108254038D01*
X137492056Y-108073654D01*
X137585120Y-107874076D01*
X137642115Y-107661371D01*
X137661307Y-107442000D01*
X137642115Y-107222629D01*
X137585120Y-107009924D01*
X137492056Y-106810347D01*
X137492054Y-106810344D01*
X137492053Y-106810342D01*
X137420531Y-106708199D01*
X137365749Y-106629962D01*
X137210038Y-106474251D01*
X137029654Y-106347944D01*
X136893301Y-106284362D01*
X136830081Y-106254882D01*
X136830079Y-106254881D01*
X136830076Y-106254880D01*
X136678777Y-106214339D01*
X136617372Y-106197885D01*
X136617365Y-106197884D01*
X136398002Y-106178693D01*
X136397998Y-106178693D01*
X136178634Y-106197884D01*
X136178627Y-106197885D01*
X135965920Y-106254881D01*
X135766346Y-106347944D01*
X135766342Y-106347946D01*
X135585967Y-106474247D01*
X135585960Y-106474252D01*
X135430252Y-106629960D01*
X135430247Y-106629967D01*
X135303946Y-106810342D01*
X135303944Y-106810346D01*
X135210881Y-107009920D01*
X135153885Y-107222627D01*
X135153884Y-107222634D01*
X135134693Y-107441997D01*
X135134693Y-107442002D01*
X135153884Y-107661365D01*
X135153885Y-107661372D01*
X135161690Y-107690499D01*
X135210880Y-107874076D01*
X135210881Y-107874079D01*
X135210882Y-107874081D01*
X135303942Y-108073650D01*
X135303944Y-108073654D01*
X135430251Y-108254038D01*
X135585962Y-108409749D01*
X135585968Y-108409753D01*
X135585969Y-108409754D01*
X135694038Y-108485426D01*
X135737663Y-108540003D01*
X135744855Y-108609501D01*
X135713333Y-108671856D01*
X135694038Y-108688575D01*
X135585962Y-108764251D01*
X135585960Y-108764252D01*
X135430252Y-108919960D01*
X135430247Y-108919967D01*
X135303946Y-109100342D01*
X135303944Y-109100346D01*
X135210881Y-109299920D01*
X135153885Y-109512627D01*
X135153884Y-109512634D01*
X135134693Y-109731997D01*
X135134693Y-109732002D01*
X133294000Y-109732002D01*
X133294000Y-100486131D01*
X133295738Y-100470381D01*
X133295468Y-100470356D01*
X133296201Y-100462594D01*
X133296202Y-100462591D01*
X133294000Y-100392541D01*
X133294000Y-100362644D01*
X133293114Y-100355636D01*
X133292656Y-100349814D01*
X133291173Y-100302610D01*
X133291172Y-100302608D01*
X133285479Y-100283014D01*
X133281532Y-100263957D01*
X133278974Y-100243703D01*
X133261584Y-100199784D01*
X133259693Y-100194257D01*
X133246518Y-100148908D01*
X133246518Y-100148907D01*
X133236124Y-100131332D01*
X133227564Y-100113856D01*
X133220054Y-100094888D01*
X133220054Y-100094887D01*
X133220053Y-100094885D01*
X133220052Y-100094883D01*
X133192289Y-100056671D01*
X133189087Y-100051797D01*
X133165042Y-100011137D01*
X133150606Y-99996701D01*
X133137969Y-99981906D01*
X133125971Y-99965392D01*
X133089584Y-99935290D01*
X133085262Y-99931357D01*
X132845510Y-99691605D01*
X132812025Y-99630282D01*
X132813416Y-99571831D01*
X132822115Y-99539371D01*
X132841307Y-99320000D01*
X132822115Y-99100629D01*
X132765120Y-98887924D01*
X132672056Y-98688347D01*
X132672054Y-98688344D01*
X132672053Y-98688342D01*
X132587106Y-98567026D01*
X132545749Y-98507962D01*
X132390038Y-98352251D01*
X132318275Y-98302002D01*
X135134693Y-98302002D01*
X135152711Y-98507962D01*
X135153885Y-98521371D01*
X135210880Y-98734076D01*
X135210881Y-98734079D01*
X135210882Y-98734081D01*
X135303942Y-98933650D01*
X135303944Y-98933654D01*
X135430251Y-99114038D01*
X135585962Y-99269749D01*
X135766346Y-99396056D01*
X135965924Y-99489120D01*
X136178629Y-99546115D01*
X136335322Y-99559823D01*
X136397998Y-99565307D01*
X136398000Y-99565307D01*
X136398002Y-99565307D01*
X136452842Y-99560509D01*
X136617371Y-99546115D01*
X136830076Y-99489120D01*
X137029654Y-99396056D01*
X137210038Y-99269749D01*
X137365749Y-99114038D01*
X137492056Y-98933654D01*
X137585120Y-98734076D01*
X137642115Y-98521371D01*
X137661307Y-98302000D01*
X137660957Y-98298004D01*
X137646511Y-98132880D01*
X137642115Y-98082629D01*
X137585120Y-97869924D01*
X137492056Y-97670347D01*
X137492054Y-97670344D01*
X137492053Y-97670342D01*
X137383153Y-97514818D01*
X137365749Y-97489962D01*
X137210038Y-97334251D01*
X137101959Y-97258573D01*
X137058337Y-97203998D01*
X137051144Y-97134499D01*
X137082666Y-97072145D01*
X137101956Y-97055429D01*
X137210038Y-96979749D01*
X137365749Y-96824038D01*
X137492056Y-96643654D01*
X137585120Y-96444076D01*
X137642115Y-96231371D01*
X137658301Y-96046358D01*
X137661307Y-96012002D01*
X137661307Y-96011997D01*
X137642115Y-95792634D01*
X137642115Y-95792629D01*
X137585120Y-95579924D01*
X137492056Y-95380347D01*
X137492054Y-95380344D01*
X137492053Y-95380342D01*
X137377526Y-95216782D01*
X137365749Y-95199962D01*
X137210038Y-95044251D01*
X137029654Y-94917944D01*
X137029311Y-94917784D01*
X136830081Y-94824882D01*
X136830079Y-94824881D01*
X136830076Y-94824880D01*
X136678777Y-94784339D01*
X136617372Y-94767885D01*
X136617365Y-94767884D01*
X136398002Y-94748693D01*
X136397998Y-94748693D01*
X136178634Y-94767884D01*
X136178627Y-94767885D01*
X135965920Y-94824881D01*
X135766346Y-94917944D01*
X135766342Y-94917946D01*
X135585967Y-95044247D01*
X135585960Y-95044252D01*
X135430252Y-95199960D01*
X135430247Y-95199967D01*
X135303946Y-95380342D01*
X135303944Y-95380346D01*
X135210881Y-95579920D01*
X135153885Y-95792627D01*
X135153884Y-95792634D01*
X135134693Y-96011997D01*
X135134693Y-96012002D01*
X135146586Y-96147950D01*
X135153885Y-96231371D01*
X135210880Y-96444076D01*
X135210881Y-96444079D01*
X135210882Y-96444081D01*
X135303942Y-96643650D01*
X135303944Y-96643654D01*
X135430251Y-96824038D01*
X135585962Y-96979749D01*
X135585968Y-96979753D01*
X135585969Y-96979754D01*
X135694038Y-97055426D01*
X135737663Y-97110003D01*
X135744855Y-97179501D01*
X135713333Y-97241856D01*
X135694038Y-97258575D01*
X135585962Y-97334251D01*
X135585960Y-97334252D01*
X135430252Y-97489960D01*
X135430247Y-97489967D01*
X135303946Y-97670342D01*
X135303944Y-97670346D01*
X135210881Y-97869920D01*
X135153885Y-98082627D01*
X135153884Y-98082634D01*
X135134693Y-98301997D01*
X135134693Y-98302002D01*
X132318275Y-98302002D01*
X132209654Y-98225944D01*
X132207006Y-98224709D01*
X132010081Y-98132882D01*
X132010079Y-98132881D01*
X132010076Y-98132880D01*
X131851332Y-98090344D01*
X131797372Y-98075885D01*
X131797365Y-98075884D01*
X131578002Y-98056693D01*
X131577998Y-98056693D01*
X131358634Y-98075884D01*
X131358627Y-98075885D01*
X131145920Y-98132881D01*
X130946346Y-98225944D01*
X130946342Y-98225946D01*
X130765967Y-98352247D01*
X130765960Y-98352252D01*
X130610252Y-98507960D01*
X130610247Y-98507967D01*
X130483946Y-98688342D01*
X130483944Y-98688346D01*
X130390880Y-98887924D01*
X130346961Y-99051826D01*
X130310596Y-99111486D01*
X130247749Y-99142014D01*
X130195093Y-99139506D01*
X130017372Y-99091885D01*
X130017365Y-99091884D01*
X129798002Y-99072693D01*
X129797998Y-99072693D01*
X129578634Y-99091884D01*
X129578627Y-99091885D01*
X129365920Y-99148881D01*
X129166346Y-99241944D01*
X129166342Y-99241946D01*
X128985967Y-99368247D01*
X128985960Y-99368252D01*
X128830252Y-99523960D01*
X128830247Y-99523967D01*
X128703946Y-99704342D01*
X128703944Y-99704346D01*
X128610881Y-99903920D01*
X128553885Y-100116627D01*
X128553884Y-100116634D01*
X128534693Y-100335997D01*
X128534693Y-100336002D01*
X128546629Y-100472441D01*
X128553885Y-100555371D01*
X128610880Y-100768076D01*
X128610881Y-100768079D01*
X128610882Y-100768081D01*
X128703942Y-100967650D01*
X128703943Y-100967652D01*
X128830251Y-101148038D01*
X128946532Y-101264319D01*
X128980017Y-101325642D01*
X128975033Y-101395334D01*
X128946532Y-101439681D01*
X128830255Y-101555957D01*
X128830252Y-101555960D01*
X128830251Y-101555962D01*
X128742260Y-101681625D01*
X128687684Y-101725249D01*
X128640687Y-101734500D01*
X128093634Y-101734500D01*
X128077886Y-101732761D01*
X128077861Y-101733032D01*
X128070094Y-101732298D01*
X128070091Y-101732298D01*
X128000042Y-101734500D01*
X127970137Y-101734500D01*
X127963143Y-101735384D01*
X127957320Y-101735842D01*
X127910111Y-101737326D01*
X127910108Y-101737327D01*
X127890505Y-101743022D01*
X127871459Y-101746966D01*
X127851203Y-101749526D01*
X127851201Y-101749526D01*
X127851199Y-101749527D01*
X127807282Y-101766914D01*
X127801756Y-101768806D01*
X127756406Y-101781982D01*
X127738831Y-101792375D01*
X127721373Y-101800928D01*
X127702383Y-101808448D01*
X127664172Y-101836208D01*
X127659290Y-101839415D01*
X127618637Y-101863457D01*
X127604201Y-101877894D01*
X127589415Y-101890523D01*
X127572893Y-101902528D01*
X127572891Y-101902529D01*
X127572891Y-101902530D01*
X127572888Y-101902532D01*
X127542780Y-101938925D01*
X127538849Y-101943246D01*
X124599479Y-104882614D01*
X124587120Y-104892518D01*
X124587293Y-104892727D01*
X124581283Y-104897699D01*
X124533316Y-104948778D01*
X124512172Y-104969922D01*
X124512157Y-104969939D01*
X124507831Y-104975514D01*
X124504047Y-104979944D01*
X124471719Y-105014371D01*
X124471712Y-105014381D01*
X124461879Y-105032267D01*
X124451203Y-105048520D01*
X124438686Y-105064657D01*
X124438685Y-105064659D01*
X124419925Y-105108010D01*
X124417355Y-105113256D01*
X124394603Y-105154641D01*
X124394603Y-105154642D01*
X124389525Y-105174420D01*
X124383225Y-105192822D01*
X124375118Y-105211557D01*
X124367731Y-105258195D01*
X124366546Y-105263916D01*
X124354800Y-105309665D01*
X124354800Y-105330084D01*
X124353273Y-105349483D01*
X124350080Y-105369641D01*
X124350080Y-105369642D01*
X120918176Y-105369642D01*
X120908227Y-96590678D01*
X125378737Y-96590678D01*
X125408762Y-96863559D01*
X125408763Y-96863569D01*
X125478202Y-97129178D01*
X125565348Y-97334251D01*
X125585577Y-97381852D01*
X125666725Y-97514818D01*
X125728592Y-97616191D01*
X125728599Y-97616201D01*
X125904199Y-97827207D01*
X125904204Y-97827212D01*
X125904209Y-97827218D01*
X125904216Y-97827224D01*
X126108672Y-98010419D01*
X126108674Y-98010420D01*
X126108677Y-98010423D01*
X126337641Y-98161904D01*
X126586221Y-98278433D01*
X126849119Y-98357527D01*
X127120731Y-98397500D01*
X127120736Y-98397500D01*
X127326552Y-98397500D01*
X127378744Y-98393679D01*
X127531805Y-98382477D01*
X127799775Y-98322784D01*
X128056198Y-98224711D01*
X128295609Y-98090347D01*
X128512904Y-97922557D01*
X128703454Y-97724916D01*
X128863196Y-97501637D01*
X128988727Y-97257479D01*
X129077370Y-96997646D01*
X129127236Y-96727674D01*
X129137262Y-96453320D01*
X129107236Y-96180429D01*
X129037796Y-95914818D01*
X128930423Y-95662148D01*
X128787405Y-95427804D01*
X128730663Y-95359621D01*
X128611800Y-95216792D01*
X128611795Y-95216787D01*
X128611791Y-95216782D01*
X128488710Y-95106500D01*
X128407327Y-95033580D01*
X128407324Y-95033578D01*
X128407323Y-95033577D01*
X128178359Y-94882096D01*
X127929779Y-94765567D01*
X127851445Y-94742000D01*
X129032898Y-94742000D01*
X129053274Y-95000912D01*
X129113901Y-95253445D01*
X129113906Y-95253462D01*
X129213290Y-95493397D01*
X129213292Y-95493400D01*
X129348992Y-95714842D01*
X129348993Y-95714843D01*
X129354801Y-95721644D01*
X129982217Y-95094228D01*
X130070379Y-95234536D01*
X130195464Y-95359621D01*
X130335770Y-95447781D01*
X129708354Y-96075197D01*
X129715157Y-96081007D01*
X129936599Y-96216707D01*
X129936602Y-96216709D01*
X130176537Y-96316093D01*
X130176554Y-96316098D01*
X130429088Y-96376725D01*
X130429087Y-96376725D01*
X130688000Y-96397101D01*
X130946912Y-96376725D01*
X131199445Y-96316098D01*
X131199462Y-96316093D01*
X131439397Y-96216709D01*
X131439400Y-96216707D01*
X131660844Y-96081005D01*
X131667644Y-96075197D01*
X131040229Y-95447782D01*
X131180536Y-95359621D01*
X131305621Y-95234536D01*
X131393782Y-95094229D01*
X132021197Y-95721644D01*
X132027005Y-95714844D01*
X132162707Y-95493400D01*
X132162709Y-95493397D01*
X132262093Y-95253462D01*
X132262098Y-95253445D01*
X132322725Y-95000912D01*
X132343101Y-94742000D01*
X132322725Y-94483087D01*
X132262098Y-94230554D01*
X132262093Y-94230537D01*
X132162709Y-93990602D01*
X132162707Y-93990599D01*
X132027007Y-93769157D01*
X132021197Y-93762354D01*
X131393781Y-94389769D01*
X131305621Y-94249464D01*
X131180536Y-94124379D01*
X131040229Y-94036217D01*
X131667645Y-93408801D01*
X131660843Y-93402993D01*
X131660842Y-93402992D01*
X131439400Y-93267292D01*
X131439397Y-93267290D01*
X131199462Y-93167906D01*
X131199445Y-93167901D01*
X130946911Y-93107274D01*
X130946912Y-93107274D01*
X130688000Y-93086898D01*
X130429087Y-93107274D01*
X130176554Y-93167901D01*
X130176537Y-93167906D01*
X129936602Y-93267290D01*
X129936599Y-93267292D01*
X129715155Y-93402993D01*
X129708353Y-93408800D01*
X130335770Y-94036217D01*
X130195464Y-94124379D01*
X130070379Y-94249464D01*
X129982217Y-94389770D01*
X129354800Y-93762353D01*
X129348993Y-93769155D01*
X129213292Y-93990599D01*
X129213290Y-93990602D01*
X129113906Y-94230537D01*
X129113901Y-94230554D01*
X129053274Y-94483087D01*
X129032898Y-94742000D01*
X127851445Y-94742000D01*
X127782362Y-94721216D01*
X127666879Y-94686472D01*
X127533915Y-94666904D01*
X127395269Y-94646500D01*
X127189453Y-94646500D01*
X127189448Y-94646500D01*
X126984195Y-94661523D01*
X126984185Y-94661524D01*
X126716229Y-94721214D01*
X126716224Y-94721216D01*
X126459799Y-94819290D01*
X126220392Y-94953652D01*
X126220387Y-94953655D01*
X126003097Y-95121441D01*
X126003088Y-95121450D01*
X125812549Y-95319080D01*
X125812547Y-95319082D01*
X125652805Y-95542361D01*
X125652802Y-95542366D01*
X125527275Y-95786515D01*
X125527271Y-95786525D01*
X125438632Y-96046344D01*
X125438629Y-96046358D01*
X125388765Y-96316314D01*
X125388763Y-96316334D01*
X125378737Y-96590678D01*
X120908227Y-96590678D01*
X120904000Y-92861032D01*
X120904000Y-84236005D01*
X170930673Y-84236005D01*
X170949948Y-84468622D01*
X171007251Y-84694907D01*
X171101015Y-84908668D01*
X171228686Y-85104084D01*
X171386776Y-85275814D01*
X171386780Y-85275818D01*
X171570983Y-85419190D01*
X171570985Y-85419191D01*
X171570988Y-85419193D01*
X171690331Y-85483777D01*
X171776273Y-85530287D01*
X171890914Y-85569643D01*
X171997045Y-85606079D01*
X171997047Y-85606079D01*
X171997049Y-85606080D01*
X172227288Y-85644500D01*
X172227289Y-85644500D01*
X172460711Y-85644500D01*
X172460712Y-85644500D01*
X172690951Y-85606080D01*
X172911727Y-85530287D01*
X173117017Y-85419190D01*
X173301220Y-85275818D01*
X173459314Y-85104083D01*
X173586984Y-84908669D01*
X173680749Y-84694907D01*
X173738051Y-84468626D01*
X173757327Y-84236000D01*
X173738051Y-84003374D01*
X173680749Y-83777093D01*
X173586984Y-83563331D01*
X173459314Y-83367917D01*
X173459313Y-83367915D01*
X173301223Y-83196185D01*
X173301222Y-83196184D01*
X173301220Y-83196182D01*
X173117017Y-83052810D01*
X173117015Y-83052809D01*
X173117014Y-83052808D01*
X173117011Y-83052806D01*
X172911733Y-82941716D01*
X172911730Y-82941715D01*
X172911727Y-82941713D01*
X172911721Y-82941711D01*
X172911719Y-82941710D01*
X172690954Y-82865920D01*
X172518271Y-82837105D01*
X172460712Y-82827500D01*
X172227288Y-82827500D01*
X172181240Y-82835184D01*
X171997045Y-82865920D01*
X171776280Y-82941710D01*
X171776266Y-82941716D01*
X171570988Y-83052806D01*
X171570985Y-83052808D01*
X171386781Y-83196181D01*
X171386776Y-83196185D01*
X171228686Y-83367915D01*
X171101015Y-83563331D01*
X171007251Y-83777092D01*
X170949948Y-84003377D01*
X170930673Y-84235994D01*
X170930673Y-84236005D01*
X120904000Y-84236005D01*
X120904000Y-70866001D01*
X122708390Y-70866001D01*
X122728804Y-71151433D01*
X122789628Y-71431037D01*
X122889635Y-71699166D01*
X123026770Y-71950309D01*
X123026775Y-71950317D01*
X123198254Y-72179387D01*
X123198270Y-72179405D01*
X123400594Y-72381729D01*
X123400612Y-72381745D01*
X123629682Y-72553224D01*
X123629690Y-72553229D01*
X123880833Y-72690364D01*
X123880832Y-72690364D01*
X123880836Y-72690365D01*
X123880839Y-72690367D01*
X124148954Y-72790369D01*
X124148960Y-72790370D01*
X124148962Y-72790371D01*
X124428566Y-72851195D01*
X124428568Y-72851195D01*
X124428572Y-72851196D01*
X124642552Y-72866500D01*
X124785448Y-72866500D01*
X124999428Y-72851196D01*
X125279046Y-72790369D01*
X125547161Y-72690367D01*
X125798315Y-72553226D01*
X126027395Y-72381739D01*
X126173129Y-72236005D01*
X141930673Y-72236005D01*
X141949948Y-72468622D01*
X142007251Y-72694907D01*
X142101015Y-72908668D01*
X142228686Y-73104084D01*
X142386776Y-73275814D01*
X142386780Y-73275818D01*
X142570983Y-73419190D01*
X142570985Y-73419191D01*
X142570988Y-73419193D01*
X142690331Y-73483777D01*
X142776273Y-73530287D01*
X142890914Y-73569643D01*
X142997045Y-73606079D01*
X142997047Y-73606079D01*
X142997049Y-73606080D01*
X143227288Y-73644500D01*
X143227289Y-73644500D01*
X143460711Y-73644500D01*
X143460712Y-73644500D01*
X143690951Y-73606080D01*
X143911727Y-73530287D01*
X144117017Y-73419190D01*
X144301220Y-73275818D01*
X144459314Y-73104083D01*
X144586984Y-72908669D01*
X144680749Y-72694907D01*
X144738051Y-72468626D01*
X144757327Y-72236000D01*
X144752637Y-72179405D01*
X144738051Y-72003377D01*
X144738051Y-72003374D01*
X144680749Y-71777093D01*
X144586984Y-71563331D01*
X144459314Y-71367917D01*
X144459313Y-71367915D01*
X144301223Y-71196185D01*
X144301222Y-71196184D01*
X144301220Y-71196182D01*
X144117017Y-71052810D01*
X144117015Y-71052809D01*
X144117014Y-71052808D01*
X144117011Y-71052806D01*
X143911733Y-70941716D01*
X143911730Y-70941715D01*
X143911727Y-70941713D01*
X143911721Y-70941711D01*
X143911719Y-70941710D01*
X143691190Y-70866001D01*
X184938390Y-70866001D01*
X184958804Y-71151433D01*
X185019628Y-71431037D01*
X185119635Y-71699166D01*
X185256770Y-71950309D01*
X185256775Y-71950317D01*
X185428254Y-72179387D01*
X185428270Y-72179405D01*
X185630594Y-72381729D01*
X185630612Y-72381745D01*
X185859682Y-72553224D01*
X185859690Y-72553229D01*
X186110833Y-72690364D01*
X186110832Y-72690364D01*
X186110836Y-72690365D01*
X186110839Y-72690367D01*
X186378954Y-72790369D01*
X186378960Y-72790370D01*
X186378962Y-72790371D01*
X186658566Y-72851195D01*
X186658568Y-72851195D01*
X186658572Y-72851196D01*
X186872552Y-72866500D01*
X187015448Y-72866500D01*
X187229428Y-72851196D01*
X187509046Y-72790369D01*
X187777161Y-72690367D01*
X188028315Y-72553226D01*
X188257395Y-72381739D01*
X188459739Y-72179395D01*
X188631226Y-71950315D01*
X188768367Y-71699161D01*
X188868369Y-71431046D01*
X188929196Y-71151428D01*
X188949610Y-70866000D01*
X188946856Y-70827500D01*
X188938712Y-70713627D01*
X188929196Y-70580572D01*
X188909055Y-70487987D01*
X188868371Y-70300962D01*
X188868370Y-70300960D01*
X188868369Y-70300954D01*
X188768367Y-70032839D01*
X188722658Y-69949130D01*
X188631229Y-69781690D01*
X188631224Y-69781682D01*
X188459745Y-69552612D01*
X188459729Y-69552594D01*
X188257405Y-69350270D01*
X188257387Y-69350254D01*
X188028317Y-69178775D01*
X188028309Y-69178770D01*
X187777166Y-69041635D01*
X187777167Y-69041635D01*
X187669915Y-69001632D01*
X187509046Y-68941631D01*
X187509043Y-68941630D01*
X187509037Y-68941628D01*
X187229433Y-68880804D01*
X187015448Y-68865500D01*
X186872552Y-68865500D01*
X186658566Y-68880804D01*
X186378962Y-68941628D01*
X186110833Y-69041635D01*
X185859690Y-69178770D01*
X185859682Y-69178775D01*
X185630612Y-69350254D01*
X185630594Y-69350270D01*
X185428270Y-69552594D01*
X185428254Y-69552612D01*
X185256775Y-69781682D01*
X185256770Y-69781690D01*
X185119635Y-70032833D01*
X185019628Y-70300962D01*
X184958804Y-70580566D01*
X184938390Y-70865998D01*
X184938390Y-70866001D01*
X143691190Y-70866001D01*
X143690954Y-70865920D01*
X143518271Y-70837105D01*
X143460712Y-70827500D01*
X143227288Y-70827500D01*
X143181240Y-70835184D01*
X142997045Y-70865920D01*
X142776280Y-70941710D01*
X142776266Y-70941716D01*
X142570988Y-71052806D01*
X142570985Y-71052808D01*
X142386781Y-71196181D01*
X142386776Y-71196185D01*
X142228686Y-71367915D01*
X142101015Y-71563331D01*
X142007251Y-71777092D01*
X141949948Y-72003377D01*
X141930673Y-72235994D01*
X141930673Y-72236005D01*
X126173129Y-72236005D01*
X126229739Y-72179395D01*
X126401226Y-71950315D01*
X126538367Y-71699161D01*
X126638369Y-71431046D01*
X126699196Y-71151428D01*
X126719610Y-70866000D01*
X126716856Y-70827500D01*
X126708712Y-70713627D01*
X126699196Y-70580572D01*
X126679055Y-70487987D01*
X126638371Y-70300962D01*
X126638370Y-70300960D01*
X126638369Y-70300954D01*
X126538367Y-70032839D01*
X126492658Y-69949130D01*
X126401229Y-69781690D01*
X126401224Y-69781682D01*
X126229745Y-69552612D01*
X126229729Y-69552594D01*
X126027405Y-69350270D01*
X126027387Y-69350254D01*
X125798317Y-69178775D01*
X125798309Y-69178770D01*
X125547166Y-69041635D01*
X125547167Y-69041635D01*
X125439915Y-69001632D01*
X125279046Y-68941631D01*
X125279043Y-68941630D01*
X125279037Y-68941628D01*
X124999433Y-68880804D01*
X124785448Y-68865500D01*
X124642552Y-68865500D01*
X124428566Y-68880804D01*
X124148962Y-68941628D01*
X123880833Y-69041635D01*
X123629690Y-69178770D01*
X123629682Y-69178775D01*
X123400612Y-69350254D01*
X123400594Y-69350270D01*
X123198270Y-69552594D01*
X123198254Y-69552612D01*
X123026775Y-69781682D01*
X123026770Y-69781690D01*
X122889635Y-70032833D01*
X122789628Y-70300962D01*
X122728804Y-70580566D01*
X122708390Y-70865998D01*
X122708390Y-70866001D01*
X120904000Y-70866001D01*
X120904000Y-70501849D01*
X120905454Y-70482914D01*
X120929059Y-70330147D01*
X120933861Y-70300962D01*
X120961164Y-70135029D01*
X120962282Y-70129712D01*
X120969768Y-70100524D01*
X121008636Y-69948974D01*
X121059585Y-69762974D01*
X121061108Y-69758186D01*
X121125651Y-69580719D01*
X121195027Y-69402715D01*
X121196819Y-69398580D01*
X121278965Y-69227031D01*
X121296707Y-69192609D01*
X121366056Y-69058060D01*
X121368094Y-69054416D01*
X121467008Y-68891014D01*
X121570999Y-68732353D01*
X121573126Y-68729316D01*
X121687854Y-68575898D01*
X121719683Y-68536894D01*
X121807731Y-68428998D01*
X121809911Y-68426473D01*
X121938296Y-68285827D01*
X121940353Y-68283682D01*
X121981830Y-68242481D01*
X122073874Y-68151047D01*
X122076029Y-68149009D01*
X122217532Y-68021561D01*
X122220036Y-68019428D01*
X122367742Y-67900522D01*
X122521900Y-67786836D01*
X122525025Y-67784680D01*
X122684337Y-67681773D01*
X122848404Y-67583945D01*
X122852040Y-67581943D01*
X123021604Y-67495973D01*
X123193658Y-67414992D01*
X123197856Y-67413204D01*
X123376285Y-67345029D01*
X123554244Y-67281647D01*
X123558960Y-67280181D01*
X123745351Y-67230460D01*
X123926401Y-67185310D01*
X123931685Y-67184237D01*
X124126929Y-67153445D01*
X124306411Y-67126936D01*
X124312218Y-67126357D01*
X124534890Y-67114736D01*
X124687108Y-67107290D01*
X124690138Y-67107216D01*
X124740025Y-67107216D01*
X124740401Y-67107173D01*
X186942457Y-67056501D01*
X186945515Y-67056574D01*
G37*
%TD.AperFunction*%
%TD*%
M02*
