%TF.GenerationSoftware,KiCad,Pcbnew,7.0.9*%
%TF.CreationDate,2024-04-08T18:15:02-04:00*%
%TF.ProjectId,WIRED-pH-EZO-Carrier-revA1,57495245-442d-4704-982d-455a4f2d4361,revA1*%
%TF.SameCoordinates,Original*%
%TF.FileFunction,Legend,Bot*%
%TF.FilePolarity,Positive*%
%FSLAX46Y46*%
G04 Gerber Fmt 4.6, Leading zero omitted, Abs format (unit mm)*
G04 Created by KiCad (PCBNEW 7.0.9) date 2024-04-08 18:15:02*
%MOMM*%
%LPD*%
G01*
G04 APERTURE LIST*
%ADD10C,3.250000*%
%ADD11R,1.500000X1.500000*%
%ADD12C,1.500000*%
%ADD13C,2.300000*%
%ADD14R,1.700000X1.700000*%
%ADD15O,1.700000X1.700000*%
%ADD16R,2.500000X2.500000*%
%ADD17C,2.500000*%
%ADD18C,3.500000*%
G04 APERTURE END LIST*
%TO.C,G1*%
G36*
X190236585Y-104843055D02*
G01*
X190284506Y-104877101D01*
X190332051Y-104949308D01*
X190345400Y-105033604D01*
X190325804Y-105118528D01*
X190274512Y-105192621D01*
X190192777Y-105244422D01*
X190136576Y-105251550D01*
X190055468Y-105229208D01*
X189980120Y-105176814D01*
X189974554Y-105171145D01*
X189928934Y-105095433D01*
X189921825Y-105015246D01*
X189946730Y-104939038D01*
X189997154Y-104875261D01*
X190066601Y-104832370D01*
X190148576Y-104818817D01*
X190236585Y-104843055D01*
G37*
G36*
X192056218Y-99370873D02*
G01*
X192230242Y-99378848D01*
X192284033Y-99381114D01*
X192389792Y-99384502D01*
X192458772Y-99383990D01*
X192498600Y-99378875D01*
X192516902Y-99368454D01*
X192521308Y-99352024D01*
X192529675Y-99318486D01*
X192560632Y-99269063D01*
X192586065Y-99247177D01*
X192650680Y-99227050D01*
X192714499Y-99242065D01*
X192763252Y-99286679D01*
X192782674Y-99355347D01*
X192785938Y-99382152D01*
X192810557Y-99409745D01*
X192870086Y-99426805D01*
X192873117Y-99427403D01*
X192956837Y-99461519D01*
X193036410Y-99522116D01*
X193076101Y-99566109D01*
X193107246Y-99625213D01*
X193115321Y-99698446D01*
X193115537Y-99726525D01*
X193115594Y-99733876D01*
X193122486Y-99777347D01*
X193148306Y-99793493D01*
X193205611Y-99795864D01*
X193221955Y-99796134D01*
X193299020Y-99810946D01*
X193340526Y-99852508D01*
X193352927Y-99926547D01*
X193352622Y-99941045D01*
X193335925Y-100009409D01*
X193289073Y-100046229D01*
X193205611Y-100057230D01*
X193152216Y-100060094D01*
X193121689Y-100075282D01*
X193120118Y-100081927D01*
X193113316Y-100110691D01*
X193111164Y-100142557D01*
X193104089Y-100215589D01*
X193094244Y-100300775D01*
X193088103Y-100360768D01*
X193086000Y-100416064D01*
X193090417Y-100437398D01*
X193103928Y-100425913D01*
X193148429Y-100383702D01*
X193220964Y-100313274D01*
X193318532Y-100217591D01*
X193438131Y-100099617D01*
X193576757Y-99962314D01*
X193731410Y-99808644D01*
X193899087Y-99641570D01*
X194076785Y-99464054D01*
X194185871Y-99354969D01*
X194375209Y-99165868D01*
X194535035Y-99006770D01*
X194667999Y-98875240D01*
X194776754Y-98768841D01*
X194863952Y-98685139D01*
X194932242Y-98621697D01*
X194984278Y-98576079D01*
X195022711Y-98545849D01*
X195050192Y-98528572D01*
X195069372Y-98521812D01*
X195082903Y-98523133D01*
X195093437Y-98530099D01*
X195093443Y-98530104D01*
X195101022Y-98539442D01*
X195103075Y-98551843D01*
X195097258Y-98569846D01*
X195081227Y-98595992D01*
X195052638Y-98632823D01*
X195009146Y-98682877D01*
X194948407Y-98748696D01*
X194868076Y-98832820D01*
X194765810Y-98937789D01*
X194639264Y-99066144D01*
X194486093Y-99220425D01*
X194303953Y-99403173D01*
X194090501Y-99616928D01*
X194059647Y-99647817D01*
X193839554Y-99868623D01*
X193651156Y-100058593D01*
X193492446Y-100219851D01*
X193361413Y-100354521D01*
X193256047Y-100464727D01*
X193174339Y-100552594D01*
X193114280Y-100620245D01*
X193073858Y-100669804D01*
X193051066Y-100703397D01*
X193043892Y-100723146D01*
X193043817Y-100725621D01*
X193040600Y-100766741D01*
X193039422Y-100779579D01*
X193032942Y-100850206D01*
X193021263Y-100971812D01*
X193005981Y-101127355D01*
X192987514Y-101312630D01*
X192966282Y-101523432D01*
X192942704Y-101755558D01*
X192917196Y-102004801D01*
X192890180Y-102266958D01*
X192736614Y-103751991D01*
X192807847Y-103823273D01*
X193936171Y-104952365D01*
X194146701Y-105163110D01*
X194347678Y-105364563D01*
X194519217Y-105536986D01*
X194663524Y-105682743D01*
X194782806Y-105804202D01*
X194879270Y-105903727D01*
X194955120Y-105983685D01*
X195012564Y-106046441D01*
X195053807Y-106094361D01*
X195081057Y-106129811D01*
X195096518Y-106155158D01*
X195102397Y-106172766D01*
X195100901Y-106185002D01*
X195094235Y-106194232D01*
X195088230Y-106199215D01*
X195077132Y-106202772D01*
X195061424Y-106199588D01*
X195038696Y-106187422D01*
X195006537Y-106164028D01*
X194962535Y-106127164D01*
X194904280Y-106074585D01*
X194829362Y-106004048D01*
X194735368Y-105913309D01*
X194619888Y-105800125D01*
X194480512Y-105662251D01*
X194314828Y-105497444D01*
X194120425Y-105303460D01*
X193894892Y-105078055D01*
X193768671Y-104951978D01*
X193580727Y-104764725D01*
X193404454Y-104589669D01*
X193242585Y-104429494D01*
X193097854Y-104286883D01*
X192972994Y-104164521D01*
X192870739Y-104065091D01*
X192793821Y-103991276D01*
X192744974Y-103945761D01*
X192726931Y-103931230D01*
X192724816Y-103938919D01*
X192717695Y-103986221D01*
X192707285Y-104070492D01*
X192694374Y-104184889D01*
X192679747Y-104322568D01*
X192664193Y-104476687D01*
X192656839Y-104549396D01*
X192640079Y-104702181D01*
X192623406Y-104838394D01*
X192607854Y-104950345D01*
X192594460Y-105030344D01*
X192584257Y-105070700D01*
X192583052Y-105073208D01*
X192540995Y-105124431D01*
X192480242Y-105165742D01*
X192471088Y-105170031D01*
X192432929Y-105191833D01*
X192412708Y-105219912D01*
X192404660Y-105268014D01*
X192403020Y-105349886D01*
X192402506Y-105498389D01*
X192093619Y-105498389D01*
X192093619Y-105189503D01*
X190582093Y-105189503D01*
X190509841Y-105292008D01*
X190442434Y-105368289D01*
X190325997Y-105444863D01*
X190193322Y-105482411D01*
X190053493Y-105478794D01*
X189915592Y-105431874D01*
X189882840Y-105413080D01*
X189781934Y-105323999D01*
X189714667Y-105211610D01*
X189683613Y-105089953D01*
X189850912Y-105089953D01*
X189859801Y-105117522D01*
X189894937Y-105179904D01*
X189943727Y-105241855D01*
X189994407Y-105289417D01*
X190035213Y-105308630D01*
X190057101Y-105310383D01*
X190109615Y-105319008D01*
X190179907Y-105322597D01*
X190270551Y-105293176D01*
X190345734Y-105231634D01*
X190398380Y-105146887D01*
X190421411Y-105047849D01*
X190407750Y-104943435D01*
X190378705Y-104880051D01*
X190308960Y-104802407D01*
X190220458Y-104757685D01*
X190123293Y-104746376D01*
X190027558Y-104768971D01*
X189943345Y-104825958D01*
X189880746Y-104917830D01*
X189853803Y-104999596D01*
X189850912Y-105089953D01*
X189683613Y-105089953D01*
X189682430Y-105085317D01*
X189686614Y-104954528D01*
X189728612Y-104828649D01*
X189809816Y-104717085D01*
X189895830Y-104631071D01*
X189862815Y-104274693D01*
X189856820Y-104211442D01*
X189844930Y-104094194D01*
X189834217Y-103998781D01*
X189825664Y-103933706D01*
X189820259Y-103907469D01*
X189811181Y-103914169D01*
X189771530Y-103950536D01*
X189702944Y-104016042D01*
X189608144Y-104108017D01*
X189489844Y-104223790D01*
X189350764Y-104360691D01*
X189193621Y-104516050D01*
X189021132Y-104687198D01*
X188836016Y-104871462D01*
X188640989Y-105066175D01*
X188471396Y-105235696D01*
X188267723Y-105439049D01*
X188093433Y-105612610D01*
X187946128Y-105758612D01*
X187823411Y-105879290D01*
X187722884Y-105976876D01*
X187642149Y-106053602D01*
X187578809Y-106111704D01*
X187530464Y-106153413D01*
X187494718Y-106180963D01*
X187469173Y-106196586D01*
X187451432Y-106202517D01*
X187439095Y-106200987D01*
X187429766Y-106194232D01*
X187423245Y-106185297D01*
X187421599Y-106173200D01*
X187427238Y-106155798D01*
X187442359Y-106130736D01*
X187469156Y-106095657D01*
X187509824Y-106048207D01*
X187566560Y-105986028D01*
X187641557Y-105906765D01*
X187737012Y-105808062D01*
X187855120Y-105687562D01*
X187998075Y-105542911D01*
X188168073Y-105371751D01*
X188367310Y-105171728D01*
X188597980Y-104940484D01*
X189736557Y-103799512D01*
X189904532Y-103799512D01*
X189916971Y-103906434D01*
X189923064Y-103961876D01*
X189933072Y-104058145D01*
X189944850Y-104175111D01*
X189956941Y-104298483D01*
X189984472Y-104583609D01*
X190130205Y-104583748D01*
X190206000Y-104586683D01*
X190291105Y-104603479D01*
X190365834Y-104639638D01*
X190465210Y-104722186D01*
X190546396Y-104842524D01*
X190587779Y-104981015D01*
X190596645Y-105047849D01*
X190602828Y-105094461D01*
X192474806Y-105094461D01*
X192497324Y-105040999D01*
X192502998Y-105018750D01*
X192514293Y-104951797D01*
X192528559Y-104849798D01*
X192544864Y-104719942D01*
X192562273Y-104569415D01*
X192579854Y-104405405D01*
X192639866Y-103823273D01*
X191262106Y-102445369D01*
X190583319Y-103122441D01*
X189904532Y-103799512D01*
X189736557Y-103799512D01*
X189807689Y-103728230D01*
X189657817Y-102290719D01*
X189656246Y-102275649D01*
X189629601Y-102020339D01*
X189604438Y-101779661D01*
X189581184Y-101557694D01*
X189560271Y-101358518D01*
X189542126Y-101186211D01*
X189527181Y-101044854D01*
X189515864Y-100938524D01*
X189508605Y-100871302D01*
X189505834Y-100847267D01*
X189484769Y-100844351D01*
X189428346Y-100842163D01*
X189349278Y-100841327D01*
X189194835Y-100841327D01*
X189194835Y-100802171D01*
X189606239Y-100802171D01*
X189607046Y-100821309D01*
X189612231Y-100883857D01*
X189621559Y-100985825D01*
X189634624Y-101123051D01*
X189651020Y-101291374D01*
X189670342Y-101486634D01*
X189692184Y-101704669D01*
X189716140Y-101941318D01*
X189741805Y-102192419D01*
X189764435Y-102413100D01*
X189788946Y-102652795D01*
X189811573Y-102874802D01*
X189831891Y-103074895D01*
X189849472Y-103248847D01*
X189863889Y-103392432D01*
X189874716Y-103501425D01*
X189881525Y-103571599D01*
X189883890Y-103598728D01*
X189884251Y-103603226D01*
X189901879Y-103621308D01*
X189902469Y-103621137D01*
X189925924Y-103601701D01*
X189978685Y-103552611D01*
X190056955Y-103477562D01*
X190156939Y-103380247D01*
X190274840Y-103264359D01*
X190406859Y-103133591D01*
X190549201Y-102991638D01*
X191178535Y-102361968D01*
X191345460Y-102361968D01*
X191986680Y-103003518D01*
X192011339Y-103028176D01*
X192153584Y-103169890D01*
X192284896Y-103299839D01*
X192401515Y-103414366D01*
X192499683Y-103509810D01*
X192575641Y-103582515D01*
X192625628Y-103628820D01*
X192645886Y-103645069D01*
X192656059Y-103636993D01*
X192663871Y-103599321D01*
X192663979Y-103595766D01*
X192667320Y-103551994D01*
X192674882Y-103468711D01*
X192686040Y-103352328D01*
X192700173Y-103209255D01*
X192716657Y-103045904D01*
X192734868Y-102868685D01*
X192747916Y-102742799D01*
X192773107Y-102499682D01*
X192800450Y-102235722D01*
X192828218Y-101967594D01*
X192854684Y-101711973D01*
X192878121Y-101485530D01*
X192883874Y-101429672D01*
X192901271Y-101257310D01*
X192916350Y-101102680D01*
X192928572Y-100971688D01*
X192937396Y-100870237D01*
X192942282Y-100804232D01*
X192942691Y-100779579D01*
X192925159Y-100794049D01*
X192877366Y-100838972D01*
X192802624Y-100911123D01*
X192704236Y-101007263D01*
X192585501Y-101124153D01*
X192449721Y-101258554D01*
X192300198Y-101407226D01*
X192140233Y-101566930D01*
X191345461Y-102361967D01*
X191345460Y-102361968D01*
X191178535Y-102361968D01*
X191178536Y-102361967D01*
X190395647Y-101578809D01*
X190247432Y-101430779D01*
X190098413Y-101282451D01*
X189962997Y-101148185D01*
X189844507Y-101031250D01*
X189746265Y-100934913D01*
X189671591Y-100862442D01*
X189623809Y-100817105D01*
X189606239Y-100802171D01*
X189194835Y-100802171D01*
X189194835Y-100746285D01*
X189289877Y-100746285D01*
X189396799Y-100746285D01*
X189414654Y-100746056D01*
X189481593Y-100737242D01*
X189503722Y-100715466D01*
X189502208Y-100708862D01*
X189478185Y-100671109D01*
X189434362Y-100619347D01*
X189382999Y-100566443D01*
X189336357Y-100525265D01*
X189306696Y-100508679D01*
X189300642Y-100516684D01*
X189292904Y-100559698D01*
X189289877Y-100627482D01*
X189289877Y-100746285D01*
X189194835Y-100746285D01*
X189194835Y-100392323D01*
X189386809Y-100392323D01*
X189413432Y-100432646D01*
X189441778Y-100455531D01*
X189464861Y-100454195D01*
X189463085Y-100413637D01*
X189449704Y-100386023D01*
X189417789Y-100366116D01*
X189399109Y-100369006D01*
X189386809Y-100392323D01*
X189194835Y-100392323D01*
X189194835Y-100378225D01*
X188290810Y-99473971D01*
X188269932Y-99453087D01*
X188075841Y-99258798D01*
X187912674Y-99095016D01*
X187777926Y-98958991D01*
X187669089Y-98847974D01*
X187583657Y-98759217D01*
X187519124Y-98689968D01*
X187472984Y-98637480D01*
X187442729Y-98599002D01*
X187425854Y-98571785D01*
X187419852Y-98553080D01*
X187422217Y-98540138D01*
X187430442Y-98530209D01*
X187441139Y-98522968D01*
X187454935Y-98521310D01*
X187474398Y-98527971D01*
X187502312Y-98545487D01*
X187541463Y-98576396D01*
X187594635Y-98623235D01*
X187664613Y-98688541D01*
X187754181Y-98774852D01*
X187866124Y-98884704D01*
X188003226Y-99020636D01*
X188168273Y-99185185D01*
X188364049Y-99380887D01*
X188483269Y-99500128D01*
X188660320Y-99677031D01*
X188808491Y-99824564D01*
X188930745Y-99945393D01*
X189030047Y-100042184D01*
X189109362Y-100117603D01*
X189171655Y-100174316D01*
X189219891Y-100214990D01*
X189257035Y-100242290D01*
X189286051Y-100258882D01*
X189309904Y-100267433D01*
X189331558Y-100270608D01*
X189353980Y-100271074D01*
X189453962Y-100271074D01*
X189439557Y-100146331D01*
X189432161Y-100098411D01*
X189421130Y-100057230D01*
X189521344Y-100057230D01*
X189536738Y-100205733D01*
X189543093Y-100270292D01*
X189552009Y-100366564D01*
X189560878Y-100443453D01*
X189562983Y-100454195D01*
X189573321Y-100506964D01*
X189592955Y-100563099D01*
X189623398Y-100617863D01*
X189668270Y-100677259D01*
X189702596Y-100715466D01*
X189731188Y-100747291D01*
X189815771Y-100833963D01*
X189925637Y-100943279D01*
X190064405Y-101081241D01*
X190549185Y-101565588D01*
X190549185Y-101292777D01*
X191713450Y-101292777D01*
X191713450Y-101554143D01*
X191143198Y-101554143D01*
X191031670Y-101554493D01*
X190883844Y-101556139D01*
X190757566Y-101558946D01*
X190659328Y-101562707D01*
X190595623Y-101567218D01*
X190572945Y-101572270D01*
X190573618Y-101574086D01*
X190595863Y-101601684D01*
X190645867Y-101656263D01*
X190718569Y-101732504D01*
X190808910Y-101825082D01*
X190911830Y-101928678D01*
X190933801Y-101950585D01*
X191035220Y-102051053D01*
X191124010Y-102137959D01*
X191194953Y-102206268D01*
X191242829Y-102250947D01*
X191262422Y-102266958D01*
X191264064Y-102265900D01*
X191290560Y-102241611D01*
X191346557Y-102187612D01*
X191428840Y-102107079D01*
X191534196Y-102003187D01*
X191659413Y-101879110D01*
X191801278Y-101738023D01*
X191956577Y-101583101D01*
X192122096Y-101417519D01*
X192970064Y-100568081D01*
X192995172Y-100337352D01*
X193001724Y-100276285D01*
X193011272Y-100183618D01*
X193017837Y-100114962D01*
X193020279Y-100081927D01*
X193000017Y-100076686D01*
X192937868Y-100072045D01*
X192833125Y-100068055D01*
X192685085Y-100064706D01*
X192493044Y-100061988D01*
X192256300Y-100059891D01*
X191974149Y-100058406D01*
X191645888Y-100057522D01*
X191270812Y-100057230D01*
X189521344Y-100057230D01*
X189421130Y-100057230D01*
X189416266Y-100039074D01*
X189399096Y-100011830D01*
X189387430Y-100005109D01*
X189345663Y-99971580D01*
X189299602Y-99928453D01*
X189637239Y-99928453D01*
X189641378Y-99934871D01*
X189656913Y-99940434D01*
X189686856Y-99945201D01*
X189734216Y-99949232D01*
X189802004Y-99952585D01*
X189893230Y-99955322D01*
X190010905Y-99957500D01*
X190158038Y-99959180D01*
X190337641Y-99960422D01*
X190552723Y-99961283D01*
X190806295Y-99961825D01*
X191101367Y-99962107D01*
X191440950Y-99962187D01*
X191515169Y-99962184D01*
X191845712Y-99962063D01*
X192132394Y-99961723D01*
X192378245Y-99961105D01*
X192586296Y-99960149D01*
X192759578Y-99958797D01*
X192901122Y-99956988D01*
X193013960Y-99954662D01*
X193101122Y-99951762D01*
X193165639Y-99948226D01*
X193210543Y-99943997D01*
X193238865Y-99939013D01*
X193253635Y-99933216D01*
X193257884Y-99926547D01*
X193257791Y-99925441D01*
X193252092Y-99918889D01*
X193235380Y-99913207D01*
X193204614Y-99908334D01*
X193156751Y-99904211D01*
X193088749Y-99900777D01*
X192997564Y-99897973D01*
X192880156Y-99895737D01*
X192733481Y-99894010D01*
X192554498Y-99892732D01*
X192340163Y-99891843D01*
X192087434Y-99891282D01*
X191793270Y-99890990D01*
X191454627Y-99890906D01*
X191422363Y-99890906D01*
X191087375Y-99891010D01*
X190796570Y-99891333D01*
X190546886Y-99891935D01*
X190335257Y-99892877D01*
X190158622Y-99894219D01*
X190013917Y-99896020D01*
X189898078Y-99898341D01*
X189808042Y-99901242D01*
X189740746Y-99904782D01*
X189693126Y-99909023D01*
X189662119Y-99914024D01*
X189644663Y-99919845D01*
X189637692Y-99926547D01*
X189637239Y-99928453D01*
X189299602Y-99928453D01*
X189292778Y-99922064D01*
X189274693Y-99903712D01*
X189234933Y-99854410D01*
X189221347Y-99807600D01*
X189225967Y-99741776D01*
X189232546Y-99707418D01*
X189276331Y-99615307D01*
X189319967Y-99579893D01*
X189623280Y-99579893D01*
X189631689Y-99599244D01*
X189658921Y-99640022D01*
X189679429Y-99677688D01*
X189693806Y-99741004D01*
X189693806Y-99795864D01*
X192521308Y-99795864D01*
X192782674Y-99795864D01*
X192901477Y-99795864D01*
X192958701Y-99795095D01*
X193001078Y-99788053D01*
X193017521Y-99767580D01*
X193020279Y-99726525D01*
X193013485Y-99649445D01*
X192984001Y-99589285D01*
X192923538Y-99545499D01*
X192900639Y-99533986D01*
X192839020Y-99510948D01*
X192803268Y-99519750D01*
X192786710Y-99565499D01*
X192782674Y-99653301D01*
X192782674Y-99795864D01*
X192521308Y-99795864D01*
X192521308Y-99490759D01*
X192372805Y-99477812D01*
X192319908Y-99473581D01*
X192210798Y-99465959D01*
X192083845Y-99458005D01*
X191956996Y-99450883D01*
X191841115Y-99445571D01*
X191763187Y-99444486D01*
X191717165Y-99448387D01*
X191695261Y-99457942D01*
X191689690Y-99473820D01*
X191688572Y-99480603D01*
X191677066Y-99491864D01*
X191648176Y-99499973D01*
X191595874Y-99505422D01*
X191514135Y-99508703D01*
X191396932Y-99510311D01*
X191238240Y-99510737D01*
X191224214Y-99510735D01*
X191066837Y-99510095D01*
X190950839Y-99508047D01*
X190870529Y-99504169D01*
X190820212Y-99498040D01*
X190794197Y-99489238D01*
X190786790Y-99477343D01*
X190786689Y-99472213D01*
X190784003Y-99463288D01*
X190773845Y-99456837D01*
X190751221Y-99452922D01*
X190711134Y-99451604D01*
X190648592Y-99452946D01*
X190558599Y-99457008D01*
X190436162Y-99463852D01*
X190276285Y-99473540D01*
X190073974Y-99486133D01*
X189964473Y-99494296D01*
X189818757Y-99510783D01*
X189711259Y-99530973D01*
X189645071Y-99554224D01*
X189623280Y-99579893D01*
X189319967Y-99579893D01*
X189349790Y-99555689D01*
X189446608Y-99534498D01*
X189523126Y-99520804D01*
X189593900Y-99486816D01*
X189603324Y-99480246D01*
X189658063Y-99452895D01*
X189734375Y-99430413D01*
X189837448Y-99412032D01*
X189972468Y-99396989D01*
X190144623Y-99384516D01*
X190359101Y-99373848D01*
X190493503Y-99368174D01*
X190881832Y-99368174D01*
X190882098Y-99376247D01*
X190887365Y-99392223D01*
X190904855Y-99403183D01*
X190941629Y-99410069D01*
X191004745Y-99413822D01*
X191101262Y-99415384D01*
X191238240Y-99415695D01*
X191298788Y-99415660D01*
X191418604Y-99414958D01*
X191500804Y-99412626D01*
X191552450Y-99407722D01*
X191580599Y-99399307D01*
X191592312Y-99386438D01*
X191594648Y-99368174D01*
X191594382Y-99360101D01*
X191589115Y-99344126D01*
X191571624Y-99333166D01*
X191534851Y-99326280D01*
X191471735Y-99322526D01*
X191375218Y-99320965D01*
X191238240Y-99320653D01*
X191177691Y-99320689D01*
X191057876Y-99321391D01*
X190975676Y-99323723D01*
X190924030Y-99328626D01*
X190895881Y-99337042D01*
X190884168Y-99349911D01*
X190881832Y-99368174D01*
X190493503Y-99368174D01*
X190774910Y-99356294D01*
X190782428Y-99290953D01*
X190789946Y-99225611D01*
X191689690Y-99225611D01*
X191689690Y-99283303D01*
X191690791Y-99299120D01*
X191699351Y-99318954D01*
X191721260Y-99334298D01*
X191762211Y-99346155D01*
X191827893Y-99355533D01*
X191923998Y-99363437D01*
X192008227Y-99368174D01*
X192056218Y-99370873D01*
G37*
%TD*%
%LPC*%
D10*
%TO.C,J1*%
X112520000Y-78736000D03*
X112520000Y-91436000D03*
D11*
X115060000Y-88646000D03*
D12*
X116840000Y-87630000D03*
X115060000Y-86614000D03*
X116840000Y-85598000D03*
X115060000Y-84582000D03*
X116840000Y-83566000D03*
X115060000Y-82550000D03*
X116840000Y-81534000D03*
X121660000Y-91946000D03*
X121660000Y-89656000D03*
X121660000Y-80516000D03*
X121660000Y-78226000D03*
D13*
X115950000Y-93216000D03*
X115950000Y-76956000D03*
%TD*%
D14*
%TO.C,J4*%
X178642000Y-81788000D03*
D15*
X178642000Y-79248000D03*
X178642000Y-76708000D03*
%TD*%
D16*
%TO.C,J5*%
X195072000Y-81708000D03*
D17*
X195072000Y-76708000D03*
%TD*%
D14*
%TO.C,J3*%
X160862000Y-81788000D03*
D15*
X160862000Y-79248000D03*
X160862000Y-76708000D03*
%TD*%
D14*
%TO.C,J2*%
X163576000Y-102108000D03*
D15*
X166116000Y-102108000D03*
X168656000Y-102108000D03*
X171196000Y-102108000D03*
X173736000Y-102108000D03*
X176276000Y-102108000D03*
X178816000Y-102108000D03*
%TD*%
D18*
%TO.C,H1*%
X109982000Y-62992000D03*
%TD*%
%TO.C,H3*%
X202438000Y-107188000D03*
%TD*%
%TO.C,H2*%
X202438000Y-62992000D03*
%TD*%
D11*
%TO.C,U2*%
X173339500Y-90752500D03*
D12*
X170799500Y-90752500D03*
X168259500Y-90752500D03*
X165719500Y-90752500D03*
%TD*%
D18*
%TO.C,H4*%
X109982000Y-107188000D03*
%TD*%
%LPD*%
M02*
