%TF.GenerationSoftware,KiCad,Pcbnew,7.0.9*%
%TF.CreationDate,2024-04-08T18:15:02-04:00*%
%TF.ProjectId,WIRED-pH-EZO-Carrier-revA1,57495245-442d-4704-982d-455a4f2d4361,revA1*%
%TF.SameCoordinates,Original*%
%TF.FileFunction,Soldermask,Top*%
%TF.FilePolarity,Negative*%
%FSLAX46Y46*%
G04 Gerber Fmt 4.6, Leading zero omitted, Abs format (unit mm)*
G04 Created by KiCad (PCBNEW 7.0.9) date 2024-04-08 18:15:02*
%MOMM*%
%LPD*%
G01*
G04 APERTURE LIST*
G04 Aperture macros list*
%AMRoundRect*
0 Rectangle with rounded corners*
0 $1 Rounding radius*
0 $2 $3 $4 $5 $6 $7 $8 $9 X,Y pos of 4 corners*
0 Add a 4 corners polygon primitive as box body*
4,1,4,$2,$3,$4,$5,$6,$7,$8,$9,$2,$3,0*
0 Add four circle primitives for the rounded corners*
1,1,$1+$1,$2,$3*
1,1,$1+$1,$4,$5*
1,1,$1+$1,$6,$7*
1,1,$1+$1,$8,$9*
0 Add four rect primitives between the rounded corners*
20,1,$1+$1,$2,$3,$4,$5,0*
20,1,$1+$1,$4,$5,$6,$7,0*
20,1,$1+$1,$6,$7,$8,$9,0*
20,1,$1+$1,$8,$9,$2,$3,0*%
G04 Aperture macros list end*
%ADD10C,0.010000*%
%ADD11C,3.250000*%
%ADD12R,1.500000X1.500000*%
%ADD13C,1.500000*%
%ADD14C,2.300000*%
%ADD15RoundRect,0.250000X0.250000X0.475000X-0.250000X0.475000X-0.250000X-0.475000X0.250000X-0.475000X0*%
%ADD16RoundRect,0.250000X-0.475000X0.250000X-0.475000X-0.250000X0.475000X-0.250000X0.475000X0.250000X0*%
%ADD17RoundRect,0.250000X0.475000X-0.250000X0.475000X0.250000X-0.475000X0.250000X-0.475000X-0.250000X0*%
%ADD18R,1.700000X1.700000*%
%ADD19O,1.700000X1.700000*%
%ADD20RoundRect,0.250000X-0.450000X0.262500X-0.450000X-0.262500X0.450000X-0.262500X0.450000X0.262500X0*%
%ADD21R,2.500000X2.500000*%
%ADD22C,2.500000*%
%ADD23RoundRect,0.250000X-0.650000X0.325000X-0.650000X-0.325000X0.650000X-0.325000X0.650000X0.325000X0*%
%ADD24RoundRect,0.102000X-1.700000X0.490000X-1.700000X-0.490000X1.700000X-0.490000X1.700000X0.490000X0*%
%ADD25RoundRect,0.250000X-0.262500X-0.450000X0.262500X-0.450000X0.262500X0.450000X-0.262500X0.450000X0*%
%ADD26C,3.500000*%
%ADD27RoundRect,0.250000X-0.312500X-0.625000X0.312500X-0.625000X0.312500X0.625000X-0.312500X0.625000X0*%
%ADD28RoundRect,0.250000X0.312500X0.625000X-0.312500X0.625000X-0.312500X-0.625000X0.312500X-0.625000X0*%
%ADD29RoundRect,0.150000X-0.150000X0.825000X-0.150000X-0.825000X0.150000X-0.825000X0.150000X0.825000X0*%
G04 APERTURE END LIST*
%TO.C,U1*%
D10*
X143434500Y-96224500D02*
X142734500Y-96224500D01*
X142734500Y-95874500D01*
X143434500Y-95874500D01*
X143434500Y-96224500D01*
G36*
X143434500Y-96224500D02*
G01*
X142734500Y-96224500D01*
X142734500Y-95874500D01*
X143434500Y-95874500D01*
X143434500Y-96224500D01*
G37*
X143434500Y-96724500D02*
X142734500Y-96724500D01*
X142734500Y-96374500D01*
X143434500Y-96374500D01*
X143434500Y-96724500D01*
G36*
X143434500Y-96724500D02*
G01*
X142734500Y-96724500D01*
X142734500Y-96374500D01*
X143434500Y-96374500D01*
X143434500Y-96724500D01*
G37*
X143434500Y-97224500D02*
X142734500Y-97224500D01*
X142734500Y-96874500D01*
X143434500Y-96874500D01*
X143434500Y-97224500D01*
G36*
X143434500Y-97224500D02*
G01*
X142734500Y-97224500D01*
X142734500Y-96874500D01*
X143434500Y-96874500D01*
X143434500Y-97224500D01*
G37*
X143434500Y-97724500D02*
X142734500Y-97724500D01*
X142734500Y-97374500D01*
X143434500Y-97374500D01*
X143434500Y-97724500D01*
G36*
X143434500Y-97724500D02*
G01*
X142734500Y-97724500D01*
X142734500Y-97374500D01*
X143434500Y-97374500D01*
X143434500Y-97724500D01*
G37*
X143684500Y-95749500D02*
X143334500Y-95749500D01*
X143334500Y-95049500D01*
X143684500Y-95049500D01*
X143684500Y-95749500D01*
G36*
X143684500Y-95749500D02*
G01*
X143334500Y-95749500D01*
X143334500Y-95049500D01*
X143684500Y-95049500D01*
X143684500Y-95749500D01*
G37*
X143684500Y-98549500D02*
X143334500Y-98549500D01*
X143334500Y-97849500D01*
X143684500Y-97849500D01*
X143684500Y-98549500D01*
G36*
X143684500Y-98549500D02*
G01*
X143334500Y-98549500D01*
X143334500Y-97849500D01*
X143684500Y-97849500D01*
X143684500Y-98549500D01*
G37*
X144184500Y-95749500D02*
X143834500Y-95749500D01*
X143834500Y-95049500D01*
X144184500Y-95049500D01*
X144184500Y-95749500D01*
G36*
X144184500Y-95749500D02*
G01*
X143834500Y-95749500D01*
X143834500Y-95049500D01*
X144184500Y-95049500D01*
X144184500Y-95749500D01*
G37*
X144184500Y-98549500D02*
X143834500Y-98549500D01*
X143834500Y-97849500D01*
X144184500Y-97849500D01*
X144184500Y-98549500D01*
G36*
X144184500Y-98549500D02*
G01*
X143834500Y-98549500D01*
X143834500Y-97849500D01*
X144184500Y-97849500D01*
X144184500Y-98549500D01*
G37*
X145684500Y-96924500D02*
X143984500Y-96924500D01*
X143984500Y-96674500D01*
X145684500Y-96674500D01*
X145684500Y-96924500D01*
G36*
X145684500Y-96924500D02*
G01*
X143984500Y-96924500D01*
X143984500Y-96674500D01*
X145684500Y-96674500D01*
X145684500Y-96924500D01*
G37*
X145684500Y-96424500D02*
X144334500Y-96424500D01*
X144334500Y-96174500D01*
X145684500Y-96174500D01*
X145684500Y-96424500D01*
G36*
X145684500Y-96424500D02*
G01*
X144334500Y-96424500D01*
X144334500Y-96174500D01*
X145684500Y-96174500D01*
X145684500Y-96424500D01*
G37*
X145684500Y-97424500D02*
X144334500Y-97424500D01*
X144334500Y-97174500D01*
X145684500Y-97174500D01*
X145684500Y-97424500D01*
G36*
X145684500Y-97424500D02*
G01*
X144334500Y-97424500D01*
X144334500Y-97174500D01*
X145684500Y-97174500D01*
X145684500Y-97424500D01*
G37*
X145134500Y-98499500D02*
X144884500Y-98499500D01*
X144884500Y-98149500D01*
X144634500Y-98149500D01*
X144634500Y-98499500D01*
X144384500Y-98499500D01*
X144384500Y-97899500D01*
X145134500Y-97899500D01*
X145134500Y-98499500D01*
G36*
X145134500Y-98499500D02*
G01*
X144884500Y-98499500D01*
X144884500Y-98149500D01*
X144634500Y-98149500D01*
X144634500Y-98499500D01*
X144384500Y-98499500D01*
X144384500Y-97899500D01*
X145134500Y-97899500D01*
X145134500Y-98499500D01*
G37*
X144634500Y-95449500D02*
X144884500Y-95449500D01*
X144884500Y-95099500D01*
X145134500Y-95099500D01*
X145134500Y-95699500D01*
X144384500Y-95699500D01*
X144384500Y-95099500D01*
X144634500Y-95099500D01*
X144634500Y-95449500D01*
G36*
X144634500Y-95449500D02*
G01*
X144884500Y-95449500D01*
X144884500Y-95099500D01*
X145134500Y-95099500D01*
X145134500Y-95699500D01*
X144384500Y-95699500D01*
X144384500Y-95099500D01*
X144634500Y-95099500D01*
X144634500Y-95449500D01*
G37*
%TD*%
D11*
%TO.C,J1*%
X112520000Y-78736000D03*
X112520000Y-91436000D03*
D12*
X115060000Y-88646000D03*
D13*
X116840000Y-87630000D03*
X115060000Y-86614000D03*
X116840000Y-85598000D03*
X115060000Y-84582000D03*
X116840000Y-83566000D03*
X115060000Y-82550000D03*
X116840000Y-81534000D03*
X121660000Y-91946000D03*
X121660000Y-89656000D03*
X121660000Y-80516000D03*
X121660000Y-78226000D03*
D14*
X115950000Y-93216000D03*
X115950000Y-76956000D03*
%TD*%
D15*
%TO.C,C6*%
X136742000Y-96909500D03*
X134842000Y-96909500D03*
%TD*%
D16*
%TO.C,C8*%
X150332700Y-101007000D03*
X150332700Y-102907000D03*
%TD*%
D17*
%TO.C,C2*%
X144433500Y-92139500D03*
X144433500Y-90239500D03*
%TD*%
%TO.C,C3*%
X149876000Y-92139500D03*
X149876000Y-90239500D03*
%TD*%
D18*
%TO.C,J4*%
X178642000Y-81788000D03*
D19*
X178642000Y-79248000D03*
X178642000Y-76708000D03*
%TD*%
D20*
%TO.C,R4*%
X140716000Y-71731500D03*
X140716000Y-73556500D03*
%TD*%
D21*
%TO.C,J5*%
X195072000Y-81708000D03*
D22*
X195072000Y-76708000D03*
%TD*%
D20*
%TO.C,R3*%
X144851300Y-71731500D03*
X144851300Y-73556500D03*
%TD*%
D16*
%TO.C,C7*%
X144889300Y-101007000D03*
X144889300Y-102907000D03*
%TD*%
D18*
%TO.C,J3*%
X160862000Y-81788000D03*
D19*
X160862000Y-79248000D03*
X160862000Y-76708000D03*
%TD*%
D18*
%TO.C,J2*%
X163576000Y-102108000D03*
D19*
X166116000Y-102108000D03*
X168656000Y-102108000D03*
X171196000Y-102108000D03*
X173736000Y-102108000D03*
X176276000Y-102108000D03*
X178816000Y-102108000D03*
%TD*%
D23*
%TO.C,C11*%
X132577300Y-78913000D03*
X132577300Y-81863000D03*
%TD*%
D24*
%TO.C,L1*%
X150114000Y-95758000D03*
X150114000Y-98128000D03*
%TD*%
D20*
%TO.C,R5*%
X136580700Y-71731500D03*
X136580700Y-73556500D03*
%TD*%
D17*
%TO.C,C1*%
X138991100Y-92139500D03*
X138991100Y-90239500D03*
%TD*%
D25*
%TO.C,R7*%
X110847500Y-72898000D03*
X112672500Y-72898000D03*
%TD*%
D23*
%TO.C,C10*%
X136509300Y-78913000D03*
X136509300Y-81863000D03*
%TD*%
D26*
%TO.C,H1*%
X109982000Y-62992000D03*
%TD*%
%TO.C,H3*%
X202438000Y-107188000D03*
%TD*%
D20*
%TO.C,R6*%
X132445300Y-71731500D03*
X132445300Y-73556500D03*
%TD*%
D27*
%TO.C,R2*%
X132141500Y-101537500D03*
X135066500Y-101537500D03*
%TD*%
D28*
%TO.C,R1*%
X135190900Y-91951500D03*
X132265900Y-91951500D03*
%TD*%
D26*
%TO.C,H2*%
X202438000Y-62992000D03*
%TD*%
D16*
%TO.C,C9*%
X155776000Y-101007000D03*
X155776000Y-102907000D03*
%TD*%
D17*
%TO.C,C4*%
X155318400Y-92139500D03*
X155318400Y-90239500D03*
%TD*%
D29*
%TO.C,U3*%
X145272300Y-78043000D03*
X144002300Y-78043000D03*
X142732300Y-78043000D03*
X141462300Y-78043000D03*
X141462300Y-82993000D03*
X142732300Y-82993000D03*
X144002300Y-82993000D03*
X145272300Y-82993000D03*
%TD*%
D16*
%TO.C,C5*%
X139446000Y-101007000D03*
X139446000Y-102907000D03*
%TD*%
D12*
%TO.C,U2*%
X173339500Y-90752500D03*
D13*
X170799500Y-90752500D03*
X168259500Y-90752500D03*
X165719500Y-90752500D03*
%TD*%
D26*
%TO.C,H4*%
X109982000Y-107188000D03*
%TD*%
M02*
