%TF.GenerationSoftware,KiCad,Pcbnew,7.0.9*%
%TF.CreationDate,2024-04-08T18:15:02-04:00*%
%TF.ProjectId,WIRED-pH-EZO-Carrier-revA1,57495245-442d-4704-982d-455a4f2d4361,revA1*%
%TF.SameCoordinates,Original*%
%TF.FileFunction,Copper,L2,Bot*%
%TF.FilePolarity,Positive*%
%FSLAX46Y46*%
G04 Gerber Fmt 4.6, Leading zero omitted, Abs format (unit mm)*
G04 Created by KiCad (PCBNEW 7.0.9) date 2024-04-08 18:15:02*
%MOMM*%
%LPD*%
G01*
G04 APERTURE LIST*
%TA.AperFunction,ComponentPad*%
%ADD10R,1.500000X1.500000*%
%TD*%
%TA.AperFunction,ComponentPad*%
%ADD11C,1.500000*%
%TD*%
%TA.AperFunction,ComponentPad*%
%ADD12C,2.300000*%
%TD*%
%TA.AperFunction,ComponentPad*%
%ADD13R,1.700000X1.700000*%
%TD*%
%TA.AperFunction,ComponentPad*%
%ADD14O,1.700000X1.700000*%
%TD*%
%TA.AperFunction,ComponentPad*%
%ADD15R,2.500000X2.500000*%
%TD*%
%TA.AperFunction,ComponentPad*%
%ADD16C,2.500000*%
%TD*%
%TA.AperFunction,ViaPad*%
%ADD17C,0.800000*%
%TD*%
%TA.AperFunction,Conductor*%
%ADD18C,0.500000*%
%TD*%
%TA.AperFunction,Conductor*%
%ADD19C,0.250000*%
%TD*%
G04 APERTURE END LIST*
D10*
%TO.P,J1,1*%
%TO.N,+5V*%
X115060000Y-88646000D03*
D11*
%TO.P,J1,2*%
X116840000Y-87630000D03*
%TO.P,J1,3*%
%TO.N,GND*%
X115060000Y-86614000D03*
%TO.P,J1,4*%
X116840000Y-85598000D03*
%TO.P,J1,5*%
%TO.N,/SDA*%
X115060000Y-84582000D03*
%TO.P,J1,6*%
X116840000Y-83566000D03*
%TO.P,J1,7*%
%TO.N,/SCL*%
X115060000Y-82550000D03*
%TO.P,J1,8*%
X116840000Y-81534000D03*
%TO.P,J1,9*%
%TO.N,unconnected-(J1-Pad9)*%
X121660000Y-91946000D03*
%TO.P,J1,10*%
%TO.N,unconnected-(J1-Pad10)*%
X121660000Y-89656000D03*
%TO.P,J1,11*%
%TO.N,GND*%
X121660000Y-80516000D03*
%TO.P,J1,12*%
%TO.N,Net-(J1-Pad12)*%
X121660000Y-78226000D03*
D12*
%TO.P,J1,SH*%
%TO.N,GND*%
X115950000Y-93216000D03*
X115950000Y-76956000D03*
%TD*%
D13*
%TO.P,J4,1,Pin_1*%
%TO.N,VCCQ*%
X178642000Y-81788000D03*
D14*
%TO.P,J4,2,Pin_2*%
%TO.N,Net-(J4-Pin_2)*%
X178642000Y-79248000D03*
%TO.P,J4,3,Pin_3*%
%TO.N,Net-(J4-Pin_3)*%
X178642000Y-76708000D03*
%TD*%
D15*
%TO.P,J5,1,Pin_1*%
%TO.N,Net-(J4-Pin_2)*%
X195072000Y-81708000D03*
D16*
%TO.P,J5,2,Pin_2*%
%TO.N,Net-(J4-Pin_3)*%
X195072000Y-76708000D03*
%TD*%
D13*
%TO.P,J3,1,Pin_1*%
%TO.N,GNDS*%
X160862000Y-81788000D03*
D14*
%TO.P,J3,2,Pin_2*%
%TO.N,/ISO-SDA*%
X160862000Y-79248000D03*
%TO.P,J3,3,Pin_3*%
%TO.N,/ISO-SCL*%
X160862000Y-76708000D03*
%TD*%
D13*
%TO.P,J2,1,Pin_1*%
%TO.N,VCC*%
X163576000Y-102108000D03*
D14*
%TO.P,J2,2,Pin_2*%
%TO.N,PG*%
X166116000Y-102108000D03*
%TO.P,J2,3,Pin_3*%
%TO.N,GND*%
X168656000Y-102108000D03*
%TO.P,J2,4,Pin_4*%
%TO.N,PS*%
X171196000Y-102108000D03*
%TO.P,J2,5,Pin_5*%
%TO.N,GND*%
X173736000Y-102108000D03*
%TO.P,J2,6,Pin_6*%
%TO.N,EN*%
X176276000Y-102108000D03*
%TO.P,J2,7,Pin_7*%
%TO.N,+5V*%
X178816000Y-102108000D03*
%TD*%
D10*
%TO.P,U2,1,-Vin*%
%TO.N,GND*%
X173339500Y-90752500D03*
D11*
%TO.P,U2,2,+Vin*%
%TO.N,VCC*%
X170799500Y-90752500D03*
%TO.P,U2,3,-Vout*%
%TO.N,GNDS*%
X168259500Y-90752500D03*
%TO.P,U2,4,+Vout*%
%TO.N,VCCQ*%
X165719500Y-90752500D03*
%TD*%
D17*
%TO.N,GND*%
X142558700Y-94892000D03*
X140516700Y-78459300D03*
X134998500Y-81918500D03*
X133714200Y-96955700D03*
%TO.N,/SDA*%
X137610000Y-75790700D03*
%TO.N,/SCL*%
X124264900Y-79538200D03*
%TO.N,VCC*%
X141498400Y-98457700D03*
X144018000Y-99568000D03*
X142612000Y-71375800D03*
X136865800Y-80388000D03*
X170688000Y-94234000D03*
X142330400Y-73685600D03*
%TO.N,/ISO-SCL*%
X145299100Y-80216500D03*
X147392600Y-72099200D03*
%TO.N,PG*%
X138832900Y-96294000D03*
X141696400Y-101957000D03*
%TO.N,EN*%
X140456000Y-93737100D03*
X138493400Y-94262600D03*
%TD*%
D18*
%TO.N,+5V*%
X116840000Y-87630000D02*
X116261900Y-88208100D01*
X116261900Y-88208100D02*
X116261900Y-88646000D01*
X115060000Y-88646000D02*
X116261900Y-88646000D01*
%TO.N,GND*%
X115060000Y-86614000D02*
X115824000Y-86614000D01*
X115824000Y-86614000D02*
X116840000Y-85598000D01*
D19*
%TO.N,/SDA*%
X115824000Y-84582000D02*
X116840000Y-83566000D01*
X116840000Y-83566000D02*
X129834700Y-83566000D01*
X129834700Y-83566000D02*
X137610000Y-75790700D01*
X115060000Y-84582000D02*
X115824000Y-84582000D01*
%TO.N,/SCL*%
X124264900Y-79538200D02*
X124097700Y-79371000D01*
X116076000Y-81534000D02*
X115060000Y-82550000D01*
X116840000Y-81534000D02*
X116076000Y-81534000D01*
X124097700Y-79371000D02*
X119003000Y-79371000D01*
X119003000Y-79371000D02*
X116840000Y-81534000D01*
D18*
%TO.N,GNDS*%
X166086000Y-81788000D02*
X160782000Y-81788000D01*
X168259500Y-83961500D02*
X166086000Y-81788000D01*
X168259500Y-83961500D02*
X168259500Y-90752500D01*
%TO.N,VCC*%
X164222700Y-99326700D02*
X163576000Y-99326700D01*
X142330400Y-71657400D02*
X142330400Y-73685600D01*
X142367400Y-99326700D02*
X143776700Y-99326700D01*
X169315400Y-94234000D02*
X164222700Y-99326700D01*
X142367400Y-99326700D02*
X141498400Y-98457700D01*
X136865800Y-80388000D02*
X136865800Y-79150200D01*
X142612000Y-71375800D02*
X142330400Y-71657400D01*
X170688000Y-94234000D02*
X169315400Y-94234000D01*
X163576000Y-99326700D02*
X163576000Y-102362000D01*
X143776700Y-99326700D02*
X144018000Y-99568000D01*
X141498400Y-85020600D02*
X136865800Y-80388000D01*
X136865800Y-79150200D02*
X142330400Y-73685600D01*
X141498400Y-98457700D02*
X141498400Y-85020600D01*
D19*
%TO.N,/ISO-SCL*%
X145299100Y-80216500D02*
X148383500Y-80216500D01*
X148383500Y-80216500D02*
X151892000Y-76708000D01*
X145299100Y-74192700D02*
X145299100Y-80216500D01*
X147392600Y-72099200D02*
X145299100Y-74192700D01*
X151892000Y-76708000D02*
X160782000Y-76708000D01*
D18*
%TO.N,VCCQ*%
X172139500Y-88464500D02*
X178642000Y-81962000D01*
X167931000Y-92964000D02*
X170434000Y-92964000D01*
X172139500Y-91258500D02*
X172139500Y-88464500D01*
X170434000Y-92964000D02*
X172139500Y-91258500D01*
X178642000Y-81962000D02*
X178642000Y-81788000D01*
X165719500Y-90752500D02*
X167931000Y-92964000D01*
D19*
%TO.N,PG*%
X138832900Y-96294000D02*
X138832900Y-99093500D01*
X138832900Y-99093500D02*
X141696400Y-101957000D01*
%TO.N,EN*%
X175099100Y-102729900D02*
X172927000Y-104902000D01*
X139930500Y-94262600D02*
X140456000Y-93737100D01*
X176276000Y-102362000D02*
X175099100Y-102362000D01*
X138493400Y-94262600D02*
X139930500Y-94262600D01*
X175099100Y-102362000D02*
X175099100Y-102729900D01*
X146883700Y-104902000D02*
X140456000Y-98474300D01*
X140456000Y-98474300D02*
X140456000Y-93737100D01*
X172927000Y-104902000D02*
X146883700Y-104902000D01*
%TD*%
%TA.AperFunction,Conductor*%
%TO.N,GND*%
G36*
X204414490Y-65805685D02*
G01*
X204460245Y-65858489D01*
X204471441Y-65908539D01*
X204937514Y-105524709D01*
X204976524Y-108840541D01*
X204957630Y-108907808D01*
X204905368Y-108954181D01*
X204852533Y-108966000D01*
X203773616Y-108966000D01*
X203706577Y-108946315D01*
X203660822Y-108893511D01*
X203650878Y-108824353D01*
X203679903Y-108760797D01*
X203699305Y-108742733D01*
X203751395Y-108703739D01*
X203953739Y-108501395D01*
X204125226Y-108272315D01*
X204262367Y-108021161D01*
X204362369Y-107753046D01*
X204423196Y-107473428D01*
X204443610Y-107188000D01*
X204423196Y-106902572D01*
X204362369Y-106622954D01*
X204262367Y-106354839D01*
X204125226Y-106103685D01*
X204125224Y-106103682D01*
X203953745Y-105874612D01*
X203953729Y-105874594D01*
X203751405Y-105672270D01*
X203751387Y-105672254D01*
X203522317Y-105500775D01*
X203522309Y-105500770D01*
X203271166Y-105363635D01*
X203271167Y-105363635D01*
X203110949Y-105303877D01*
X203003046Y-105263631D01*
X203003043Y-105263630D01*
X203003037Y-105263628D01*
X202723433Y-105202804D01*
X202509448Y-105187500D01*
X202366552Y-105187500D01*
X202152566Y-105202804D01*
X201872962Y-105263628D01*
X201604833Y-105363635D01*
X201353690Y-105500770D01*
X201353682Y-105500775D01*
X201124612Y-105672254D01*
X201124594Y-105672270D01*
X200922270Y-105874594D01*
X200922254Y-105874612D01*
X200750775Y-106103682D01*
X200750770Y-106103690D01*
X200613635Y-106354833D01*
X200513628Y-106622962D01*
X200452804Y-106902566D01*
X200432390Y-107187998D01*
X200432390Y-107188001D01*
X200452804Y-107473433D01*
X200513628Y-107753037D01*
X200613635Y-108021166D01*
X200750770Y-108272309D01*
X200750775Y-108272317D01*
X200922254Y-108501387D01*
X200922270Y-108501405D01*
X201124594Y-108703729D01*
X201124600Y-108703734D01*
X201124605Y-108703739D01*
X201176695Y-108742733D01*
X201218566Y-108798667D01*
X201223550Y-108868358D01*
X201190065Y-108929681D01*
X201128742Y-108963166D01*
X201102384Y-108966000D01*
X111317616Y-108966000D01*
X111250577Y-108946315D01*
X111204822Y-108893511D01*
X111194878Y-108824353D01*
X111223903Y-108760797D01*
X111243305Y-108742733D01*
X111295395Y-108703739D01*
X111497739Y-108501395D01*
X111669226Y-108272315D01*
X111806367Y-108021161D01*
X111906369Y-107753046D01*
X111967196Y-107473428D01*
X111987610Y-107188000D01*
X111967196Y-106902572D01*
X111906369Y-106622954D01*
X111806367Y-106354839D01*
X111669226Y-106103685D01*
X111669224Y-106103682D01*
X111497745Y-105874612D01*
X111497729Y-105874594D01*
X111295405Y-105672270D01*
X111295387Y-105672254D01*
X111066317Y-105500775D01*
X111066309Y-105500770D01*
X110815166Y-105363635D01*
X110815167Y-105363635D01*
X110654949Y-105303877D01*
X110547046Y-105263631D01*
X110547043Y-105263630D01*
X110547037Y-105263628D01*
X110267433Y-105202804D01*
X110053448Y-105187500D01*
X109910552Y-105187500D01*
X109696566Y-105202804D01*
X109416962Y-105263628D01*
X109148833Y-105363635D01*
X108897690Y-105500770D01*
X108897682Y-105500775D01*
X108668612Y-105672254D01*
X108668594Y-105672270D01*
X108466270Y-105874594D01*
X108466254Y-105874612D01*
X108294775Y-106103682D01*
X108294770Y-106103690D01*
X108157635Y-106354833D01*
X108057628Y-106622962D01*
X107996804Y-106902566D01*
X107976390Y-107187998D01*
X107976390Y-107188001D01*
X107996804Y-107473433D01*
X108057628Y-107753037D01*
X108157635Y-108021166D01*
X108294770Y-108272309D01*
X108294775Y-108272317D01*
X108466254Y-108501387D01*
X108466270Y-108501405D01*
X108668594Y-108703729D01*
X108668600Y-108703734D01*
X108668605Y-108703739D01*
X108720695Y-108742733D01*
X108762566Y-108798667D01*
X108767550Y-108868358D01*
X108734065Y-108929681D01*
X108672742Y-108963166D01*
X108646384Y-108966000D01*
X107310549Y-108966000D01*
X107243510Y-108946315D01*
X107197755Y-108893511D01*
X107186558Y-108843459D01*
X107186333Y-108824353D01*
X106982572Y-91504678D01*
X110640737Y-91504678D01*
X110670762Y-91777559D01*
X110670763Y-91777569D01*
X110740202Y-92043178D01*
X110822292Y-92236353D01*
X110847577Y-92295852D01*
X110930057Y-92431000D01*
X110990592Y-92530191D01*
X110990599Y-92530201D01*
X111166199Y-92741207D01*
X111166204Y-92741212D01*
X111166209Y-92741218D01*
X111166216Y-92741224D01*
X111370672Y-92924419D01*
X111370674Y-92924420D01*
X111370677Y-92924423D01*
X111599641Y-93075904D01*
X111848221Y-93192433D01*
X112111119Y-93271527D01*
X112382731Y-93311500D01*
X112382736Y-93311500D01*
X112588552Y-93311500D01*
X112640744Y-93307679D01*
X112793805Y-93296477D01*
X113061775Y-93236784D01*
X113116117Y-93216000D01*
X114294898Y-93216000D01*
X114315274Y-93474912D01*
X114375901Y-93727445D01*
X114375906Y-93727462D01*
X114475290Y-93967397D01*
X114475292Y-93967400D01*
X114610992Y-94188842D01*
X114610993Y-94188843D01*
X114616801Y-94195644D01*
X115244217Y-93568228D01*
X115332379Y-93708536D01*
X115457464Y-93833621D01*
X115597770Y-93921781D01*
X114970354Y-94549197D01*
X114977157Y-94555007D01*
X115198599Y-94690707D01*
X115198602Y-94690709D01*
X115438537Y-94790093D01*
X115438554Y-94790098D01*
X115691088Y-94850725D01*
X115691087Y-94850725D01*
X115950000Y-94871101D01*
X116208912Y-94850725D01*
X116461445Y-94790098D01*
X116461462Y-94790093D01*
X116701397Y-94690709D01*
X116701400Y-94690707D01*
X116922844Y-94555005D01*
X116929644Y-94549197D01*
X116302229Y-93921782D01*
X116442536Y-93833621D01*
X116567621Y-93708536D01*
X116655782Y-93568229D01*
X117283197Y-94195644D01*
X117289005Y-94188844D01*
X117424707Y-93967400D01*
X117424709Y-93967397D01*
X117524093Y-93727462D01*
X117524098Y-93727445D01*
X117584725Y-93474912D01*
X117605101Y-93216000D01*
X117584725Y-92957087D01*
X117524098Y-92704554D01*
X117524093Y-92704537D01*
X117424709Y-92464602D01*
X117424707Y-92464599D01*
X117289007Y-92243157D01*
X117283197Y-92236354D01*
X116655781Y-92863769D01*
X116567621Y-92723464D01*
X116442536Y-92598379D01*
X116302229Y-92510217D01*
X116866444Y-91946002D01*
X120404723Y-91946002D01*
X120423793Y-92163975D01*
X120423793Y-92163979D01*
X120480422Y-92375322D01*
X120480424Y-92375326D01*
X120480425Y-92375330D01*
X120513304Y-92445839D01*
X120572897Y-92573638D01*
X120572898Y-92573639D01*
X120698402Y-92752877D01*
X120853123Y-92907598D01*
X121032361Y-93033102D01*
X121230670Y-93125575D01*
X121442023Y-93182207D01*
X121624926Y-93198208D01*
X121659998Y-93201277D01*
X121660000Y-93201277D01*
X121660002Y-93201277D01*
X121688254Y-93198805D01*
X121877977Y-93182207D01*
X122089330Y-93125575D01*
X122287639Y-93033102D01*
X122466877Y-92907598D01*
X122621598Y-92752877D01*
X122747102Y-92573639D01*
X122839575Y-92375330D01*
X122896207Y-92163977D01*
X122915277Y-91946000D01*
X122914694Y-91939341D01*
X122907726Y-91859687D01*
X122896207Y-91728023D01*
X122848593Y-91550327D01*
X122839577Y-91516677D01*
X122839576Y-91516676D01*
X122839575Y-91516670D01*
X122747102Y-91318362D01*
X122747100Y-91318359D01*
X122747099Y-91318357D01*
X122621599Y-91139124D01*
X122565773Y-91083298D01*
X122466877Y-90984402D01*
X122350013Y-90902573D01*
X122306390Y-90847998D01*
X122299198Y-90778499D01*
X122330720Y-90716145D01*
X122350010Y-90699429D01*
X122466877Y-90617598D01*
X122621598Y-90462877D01*
X122747102Y-90283639D01*
X122839575Y-90085330D01*
X122896207Y-89873977D01*
X122915277Y-89656000D01*
X122896207Y-89438023D01*
X122839575Y-89226670D01*
X122747102Y-89028362D01*
X122747100Y-89028359D01*
X122747099Y-89028357D01*
X122621599Y-88849124D01*
X122547842Y-88775367D01*
X122466877Y-88694402D01*
X122287639Y-88568898D01*
X122287640Y-88568898D01*
X122287638Y-88568897D01*
X122188484Y-88522661D01*
X122089330Y-88476425D01*
X122089326Y-88476424D01*
X122089322Y-88476422D01*
X121877977Y-88419793D01*
X121660002Y-88400723D01*
X121659998Y-88400723D01*
X121514682Y-88413436D01*
X121442023Y-88419793D01*
X121442020Y-88419793D01*
X121230677Y-88476422D01*
X121230668Y-88476426D01*
X121032361Y-88568898D01*
X121032357Y-88568900D01*
X120853121Y-88694402D01*
X120698402Y-88849121D01*
X120572900Y-89028357D01*
X120572898Y-89028361D01*
X120480426Y-89226668D01*
X120480422Y-89226677D01*
X120423793Y-89438020D01*
X120423793Y-89438023D01*
X120423281Y-89443872D01*
X120405457Y-89647613D01*
X120404723Y-89656000D01*
X120416979Y-89796096D01*
X120423793Y-89873975D01*
X120423793Y-89873979D01*
X120480422Y-90085322D01*
X120480424Y-90085326D01*
X120480425Y-90085330D01*
X120526661Y-90184484D01*
X120572897Y-90283638D01*
X120572898Y-90283639D01*
X120698402Y-90462877D01*
X120698406Y-90462881D01*
X120853122Y-90617597D01*
X120969984Y-90699426D01*
X121013609Y-90754003D01*
X121020801Y-90823501D01*
X120989278Y-90885856D01*
X120969984Y-90902575D01*
X120853118Y-90984405D01*
X120698402Y-91139121D01*
X120572900Y-91318357D01*
X120572898Y-91318361D01*
X120480426Y-91516668D01*
X120480422Y-91516677D01*
X120423793Y-91728020D01*
X120423793Y-91728024D01*
X120404723Y-91945997D01*
X120404723Y-91946002D01*
X116866444Y-91946002D01*
X116929645Y-91882801D01*
X116922843Y-91876993D01*
X116922842Y-91876992D01*
X116701400Y-91741292D01*
X116701397Y-91741290D01*
X116461462Y-91641906D01*
X116461445Y-91641901D01*
X116208911Y-91581274D01*
X116208912Y-91581274D01*
X115950000Y-91560898D01*
X115691087Y-91581274D01*
X115438554Y-91641901D01*
X115438537Y-91641906D01*
X115198602Y-91741290D01*
X115198599Y-91741292D01*
X114977155Y-91876993D01*
X114970353Y-91882800D01*
X115597770Y-92510217D01*
X115457464Y-92598379D01*
X115332379Y-92723464D01*
X115244217Y-92863770D01*
X114616800Y-92236353D01*
X114610993Y-92243155D01*
X114475292Y-92464599D01*
X114475290Y-92464602D01*
X114375906Y-92704537D01*
X114375901Y-92704554D01*
X114315274Y-92957087D01*
X114294898Y-93216000D01*
X113116117Y-93216000D01*
X113318198Y-93138711D01*
X113557609Y-93004347D01*
X113774904Y-92836557D01*
X113965454Y-92638916D01*
X114125196Y-92415637D01*
X114250727Y-92171479D01*
X114339370Y-91911646D01*
X114389236Y-91641674D01*
X114399262Y-91367320D01*
X114369236Y-91094429D01*
X114307660Y-90858898D01*
X114299797Y-90828821D01*
X114297536Y-90823501D01*
X114192423Y-90576148D01*
X114049405Y-90341804D01*
X114037466Y-90327458D01*
X113873800Y-90130792D01*
X113873795Y-90130787D01*
X113873791Y-90130782D01*
X113767385Y-90035441D01*
X113669327Y-89947580D01*
X113669324Y-89947578D01*
X113669323Y-89947577D01*
X113440359Y-89796096D01*
X113191779Y-89679567D01*
X113044362Y-89635216D01*
X112928879Y-89600472D01*
X112795915Y-89580904D01*
X112657269Y-89560500D01*
X112451453Y-89560500D01*
X112451448Y-89560500D01*
X112246195Y-89575523D01*
X112246185Y-89575524D01*
X111978229Y-89635214D01*
X111978224Y-89635216D01*
X111721799Y-89733290D01*
X111482392Y-89867652D01*
X111482387Y-89867655D01*
X111265097Y-90035441D01*
X111265088Y-90035450D01*
X111074549Y-90233080D01*
X111074547Y-90233082D01*
X110914805Y-90456361D01*
X110914802Y-90456366D01*
X110789275Y-90700515D01*
X110789271Y-90700525D01*
X110700632Y-90960344D01*
X110700629Y-90960358D01*
X110650765Y-91230314D01*
X110650763Y-91230334D01*
X110640737Y-91504678D01*
X106982572Y-91504678D01*
X106901129Y-84582002D01*
X113804723Y-84582002D01*
X113823793Y-84799975D01*
X113823793Y-84799979D01*
X113880422Y-85011322D01*
X113880424Y-85011326D01*
X113880425Y-85011330D01*
X113894994Y-85042573D01*
X113972897Y-85209638D01*
X113972898Y-85209639D01*
X114098402Y-85388877D01*
X114253123Y-85543598D01*
X114432361Y-85669102D01*
X114480555Y-85691575D01*
X114515826Y-85716273D01*
X114976163Y-86176610D01*
X114927353Y-86183967D01*
X114806491Y-86242171D01*
X114708156Y-86333413D01*
X114641083Y-86449587D01*
X114622676Y-86530228D01*
X114016875Y-85924427D01*
X114016875Y-85924428D01*
X113973333Y-85986612D01*
X113973332Y-85986614D01*
X113880898Y-86184840D01*
X113880894Y-86184849D01*
X113824289Y-86396105D01*
X113824287Y-86396115D01*
X113805225Y-86613999D01*
X113805225Y-86614000D01*
X113824287Y-86831884D01*
X113824289Y-86831894D01*
X113880894Y-87043150D01*
X113880898Y-87043159D01*
X113973333Y-87241387D01*
X114033724Y-87327634D01*
X114056051Y-87393840D01*
X114039041Y-87461608D01*
X114006461Y-87498024D01*
X113952452Y-87538455D01*
X113866206Y-87653664D01*
X113866202Y-87653671D01*
X113815908Y-87788517D01*
X113809501Y-87848116D01*
X113809500Y-87848135D01*
X113809500Y-89443870D01*
X113809501Y-89443876D01*
X113815908Y-89503483D01*
X113866202Y-89638328D01*
X113866206Y-89638335D01*
X113952452Y-89753544D01*
X113952455Y-89753547D01*
X114067664Y-89839793D01*
X114067671Y-89839797D01*
X114202517Y-89890091D01*
X114202516Y-89890091D01*
X114209444Y-89890835D01*
X114262127Y-89896500D01*
X115857872Y-89896499D01*
X115917483Y-89890091D01*
X116052331Y-89839796D01*
X116167546Y-89753546D01*
X116253796Y-89638331D01*
X116299313Y-89516293D01*
X116304090Y-89503486D01*
X116304090Y-89503485D01*
X116304091Y-89503483D01*
X116305139Y-89493732D01*
X116331874Y-89429184D01*
X116389265Y-89389334D01*
X116414030Y-89383826D01*
X116436155Y-89381241D01*
X116446682Y-89377408D01*
X116467572Y-89371811D01*
X116478611Y-89369865D01*
X116537455Y-89344482D01*
X116540776Y-89343161D01*
X116601017Y-89321237D01*
X116610388Y-89315072D01*
X116629406Y-89304818D01*
X116639704Y-89300377D01*
X116691133Y-89262087D01*
X116694028Y-89260060D01*
X116747596Y-89224830D01*
X116755291Y-89216672D01*
X116771434Y-89202306D01*
X116780430Y-89195610D01*
X116821651Y-89146482D01*
X116823990Y-89143855D01*
X116867992Y-89097218D01*
X116873600Y-89087502D01*
X116885993Y-89069803D01*
X116893202Y-89061214D01*
X116921980Y-89003909D01*
X116923641Y-89000826D01*
X116955712Y-88945281D01*
X116955713Y-88945276D01*
X116957828Y-88940374D01*
X117002452Y-88886611D01*
X117052934Y-88868768D01*
X117052649Y-88867146D01*
X117057969Y-88866207D01*
X117057977Y-88866207D01*
X117269330Y-88809575D01*
X117467639Y-88717102D01*
X117646877Y-88591598D01*
X117801598Y-88436877D01*
X117927102Y-88257639D01*
X118019575Y-88059330D01*
X118076207Y-87847977D01*
X118095277Y-87630000D01*
X118076207Y-87412023D01*
X118019575Y-87200670D01*
X117927102Y-87002362D01*
X117927100Y-87002359D01*
X117927099Y-87002357D01*
X117801599Y-86823124D01*
X117756888Y-86778413D01*
X117646877Y-86668402D01*
X117467639Y-86542898D01*
X117467640Y-86542898D01*
X117467638Y-86542897D01*
X117419446Y-86520425D01*
X117384171Y-86495724D01*
X116923836Y-86035389D01*
X116972647Y-86028033D01*
X117093509Y-85969829D01*
X117191844Y-85878587D01*
X117258917Y-85762413D01*
X117277323Y-85681771D01*
X117883124Y-86287572D01*
X117926666Y-86225387D01*
X118019101Y-86027159D01*
X118019105Y-86027150D01*
X118075710Y-85815894D01*
X118075712Y-85815884D01*
X118094775Y-85598000D01*
X118094775Y-85597999D01*
X118075712Y-85380115D01*
X118075710Y-85380105D01*
X118019105Y-85168849D01*
X118019101Y-85168840D01*
X117926668Y-84970615D01*
X117883123Y-84908428D01*
X117279785Y-85511766D01*
X117278743Y-85497860D01*
X117229734Y-85372987D01*
X117146095Y-85268108D01*
X117035259Y-85192541D01*
X116925700Y-85158746D01*
X117384170Y-84700275D01*
X117419447Y-84675574D01*
X117434495Y-84668557D01*
X117467630Y-84653107D01*
X117467633Y-84653104D01*
X117467639Y-84653102D01*
X117646877Y-84527598D01*
X117801598Y-84372877D01*
X117891575Y-84244375D01*
X117946151Y-84200752D01*
X117993149Y-84191500D01*
X129751957Y-84191500D01*
X129767577Y-84193224D01*
X129767604Y-84192939D01*
X129775360Y-84193671D01*
X129775367Y-84193673D01*
X129844514Y-84191500D01*
X129874050Y-84191500D01*
X129880928Y-84190630D01*
X129886741Y-84190172D01*
X129933327Y-84188709D01*
X129952569Y-84183117D01*
X129971612Y-84179174D01*
X129991492Y-84176664D01*
X130034822Y-84159507D01*
X130040346Y-84157617D01*
X130044096Y-84156527D01*
X130085090Y-84144618D01*
X130102329Y-84134422D01*
X130119803Y-84125862D01*
X130138427Y-84118488D01*
X130138427Y-84118487D01*
X130138432Y-84118486D01*
X130176149Y-84091082D01*
X130181005Y-84087892D01*
X130221120Y-84064170D01*
X130235289Y-84049999D01*
X130250079Y-84037368D01*
X130266287Y-84025594D01*
X130295999Y-83989676D01*
X130299912Y-83985376D01*
X137557771Y-76727519D01*
X137619094Y-76694034D01*
X137645452Y-76691200D01*
X137704644Y-76691200D01*
X137704646Y-76691200D01*
X137889803Y-76651844D01*
X138023028Y-76592527D01*
X138092274Y-76583242D01*
X138155551Y-76612870D01*
X138192765Y-76672005D01*
X138192101Y-76741871D01*
X138161142Y-76793488D01*
X136380158Y-78574472D01*
X136366529Y-78586251D01*
X136347268Y-78600590D01*
X136313698Y-78640597D01*
X136310053Y-78644576D01*
X136304209Y-78650422D01*
X136283859Y-78676159D01*
X136234495Y-78734989D01*
X136230529Y-78741019D01*
X136230482Y-78740988D01*
X136226430Y-78747347D01*
X136226479Y-78747377D01*
X136222689Y-78753521D01*
X136190224Y-78823141D01*
X136155760Y-78891766D01*
X136153288Y-78898557D01*
X136153232Y-78898536D01*
X136150760Y-78905650D01*
X136150815Y-78905669D01*
X136148542Y-78912527D01*
X136142526Y-78941665D01*
X136133007Y-78987765D01*
X136119801Y-79043484D01*
X136115298Y-79062486D01*
X136114461Y-79069654D01*
X136114401Y-79069647D01*
X136113635Y-79077145D01*
X136113695Y-79077151D01*
X136113065Y-79084340D01*
X136115300Y-79161116D01*
X136115300Y-79853677D01*
X136098687Y-79915677D01*
X136038621Y-80019714D01*
X135983279Y-80190039D01*
X135980126Y-80199744D01*
X135960340Y-80388000D01*
X135980126Y-80576256D01*
X135980127Y-80576259D01*
X136038618Y-80756277D01*
X136038621Y-80756284D01*
X136133267Y-80920216D01*
X136238870Y-81037500D01*
X136259929Y-81060888D01*
X136413065Y-81172148D01*
X136413070Y-81172151D01*
X136585991Y-81249142D01*
X136585993Y-81249142D01*
X136585997Y-81249144D01*
X136651129Y-81262987D01*
X136712609Y-81296178D01*
X136713028Y-81296596D01*
X140711581Y-85295149D01*
X140745066Y-85356472D01*
X140747900Y-85382830D01*
X140747900Y-92725400D01*
X140728215Y-92792439D01*
X140675411Y-92838194D01*
X140606253Y-92848138D01*
X140598121Y-92846691D01*
X140595530Y-92846140D01*
X140550646Y-92836600D01*
X140361354Y-92836600D01*
X140328897Y-92843498D01*
X140176197Y-92875955D01*
X140176192Y-92875957D01*
X140003270Y-92952948D01*
X140003265Y-92952951D01*
X139850129Y-93064211D01*
X139723466Y-93204885D01*
X139628821Y-93368815D01*
X139628818Y-93368821D01*
X139569490Y-93551418D01*
X139530053Y-93609093D01*
X139465694Y-93636292D01*
X139451559Y-93637100D01*
X139197148Y-93637100D01*
X139130109Y-93617415D01*
X139105000Y-93596074D01*
X139099273Y-93589714D01*
X139099269Y-93589710D01*
X138946134Y-93478451D01*
X138946129Y-93478448D01*
X138773207Y-93401457D01*
X138773202Y-93401455D01*
X138619666Y-93368821D01*
X138588046Y-93362100D01*
X138398754Y-93362100D01*
X138367162Y-93368815D01*
X138213597Y-93401455D01*
X138213592Y-93401457D01*
X138040670Y-93478448D01*
X138040665Y-93478451D01*
X137887529Y-93589711D01*
X137760866Y-93730385D01*
X137666221Y-93894315D01*
X137666218Y-93894322D01*
X137607727Y-94074340D01*
X137607726Y-94074344D01*
X137587940Y-94262600D01*
X137607726Y-94450856D01*
X137607727Y-94450859D01*
X137666218Y-94630877D01*
X137666221Y-94630884D01*
X137760867Y-94794816D01*
X137862585Y-94907785D01*
X137887529Y-94935488D01*
X138040665Y-95046748D01*
X138040670Y-95046751D01*
X138213592Y-95123742D01*
X138213597Y-95123744D01*
X138398754Y-95163100D01*
X138398755Y-95163100D01*
X138588044Y-95163100D01*
X138588046Y-95163100D01*
X138773203Y-95123744D01*
X138946130Y-95046751D01*
X139099271Y-94935488D01*
X139102188Y-94932247D01*
X139105000Y-94929126D01*
X139164487Y-94892479D01*
X139197148Y-94888100D01*
X139706500Y-94888100D01*
X139773539Y-94907785D01*
X139819294Y-94960589D01*
X139830500Y-95012100D01*
X139830500Y-95758119D01*
X139810815Y-95825158D01*
X139758011Y-95870913D01*
X139688853Y-95880857D01*
X139625297Y-95851832D01*
X139599113Y-95820119D01*
X139565434Y-95761785D01*
X139438770Y-95621111D01*
X139285634Y-95509851D01*
X139285629Y-95509848D01*
X139112707Y-95432857D01*
X139112702Y-95432855D01*
X138966901Y-95401865D01*
X138927546Y-95393500D01*
X138738254Y-95393500D01*
X138705797Y-95400398D01*
X138553097Y-95432855D01*
X138553092Y-95432857D01*
X138380170Y-95509848D01*
X138380165Y-95509851D01*
X138227029Y-95621111D01*
X138100366Y-95761785D01*
X138005721Y-95925715D01*
X138005718Y-95925722D01*
X137947227Y-96105740D01*
X137947226Y-96105744D01*
X137927440Y-96294000D01*
X137947226Y-96482256D01*
X137947227Y-96482259D01*
X138005718Y-96662277D01*
X138005721Y-96662284D01*
X138100367Y-96826216D01*
X138143672Y-96874310D01*
X138175550Y-96909715D01*
X138205780Y-96972706D01*
X138207400Y-96992687D01*
X138207400Y-99010755D01*
X138205675Y-99026372D01*
X138205961Y-99026399D01*
X138205226Y-99034165D01*
X138207400Y-99103314D01*
X138207400Y-99132843D01*
X138207401Y-99132860D01*
X138208268Y-99139731D01*
X138208726Y-99145550D01*
X138210190Y-99192124D01*
X138210191Y-99192127D01*
X138215780Y-99211367D01*
X138219724Y-99230411D01*
X138220807Y-99238979D01*
X138222236Y-99250291D01*
X138239390Y-99293619D01*
X138241282Y-99299147D01*
X138254281Y-99343888D01*
X138264480Y-99361134D01*
X138273038Y-99378603D01*
X138280414Y-99397232D01*
X138307798Y-99434923D01*
X138311006Y-99439807D01*
X138334727Y-99479916D01*
X138334733Y-99479924D01*
X138348890Y-99494080D01*
X138361528Y-99508876D01*
X138373305Y-99525086D01*
X138373306Y-99525087D01*
X138409209Y-99554788D01*
X138413520Y-99558710D01*
X139592625Y-100737815D01*
X140757438Y-101902628D01*
X140790923Y-101963951D01*
X140793078Y-101977347D01*
X140798000Y-102024177D01*
X140810726Y-102145256D01*
X140810727Y-102145259D01*
X140869218Y-102325277D01*
X140869221Y-102325284D01*
X140963867Y-102489216D01*
X141057027Y-102592680D01*
X141090529Y-102629888D01*
X141243665Y-102741148D01*
X141243670Y-102741151D01*
X141416592Y-102818142D01*
X141416597Y-102818144D01*
X141601754Y-102857500D01*
X141601755Y-102857500D01*
X141791044Y-102857500D01*
X141791046Y-102857500D01*
X141976203Y-102818144D01*
X142149130Y-102741151D01*
X142302271Y-102629888D01*
X142428933Y-102489216D01*
X142523579Y-102325284D01*
X142582074Y-102145256D01*
X142601860Y-101957000D01*
X142585345Y-101799874D01*
X142597914Y-101731150D01*
X142645646Y-101680126D01*
X142713386Y-101663008D01*
X142779628Y-101685230D01*
X142796347Y-101699237D01*
X146382894Y-105285784D01*
X146392719Y-105298048D01*
X146392940Y-105297866D01*
X146397910Y-105303873D01*
X146397913Y-105303876D01*
X146397914Y-105303877D01*
X146448351Y-105351241D01*
X146469230Y-105372120D01*
X146474704Y-105376366D01*
X146479142Y-105380156D01*
X146513118Y-105412062D01*
X146513122Y-105412064D01*
X146530673Y-105421713D01*
X146546931Y-105432392D01*
X146562764Y-105444674D01*
X146584715Y-105454172D01*
X146605537Y-105463183D01*
X146610781Y-105465752D01*
X146651608Y-105488197D01*
X146671012Y-105493179D01*
X146689410Y-105499478D01*
X146707805Y-105507438D01*
X146753829Y-105514726D01*
X146759532Y-105515907D01*
X146804681Y-105527500D01*
X146824716Y-105527500D01*
X146844113Y-105529026D01*
X146863896Y-105532160D01*
X146910284Y-105527775D01*
X146916122Y-105527500D01*
X172844257Y-105527500D01*
X172859877Y-105529224D01*
X172859904Y-105528939D01*
X172867660Y-105529671D01*
X172867667Y-105529673D01*
X172936814Y-105527500D01*
X172966350Y-105527500D01*
X172973228Y-105526630D01*
X172979041Y-105526172D01*
X173025627Y-105524709D01*
X173044869Y-105519117D01*
X173063912Y-105515174D01*
X173083792Y-105512664D01*
X173127122Y-105495507D01*
X173132646Y-105493617D01*
X173136396Y-105492527D01*
X173177390Y-105480618D01*
X173194629Y-105470422D01*
X173212103Y-105461862D01*
X173230727Y-105454488D01*
X173230727Y-105454487D01*
X173230732Y-105454486D01*
X173268449Y-105427082D01*
X173273305Y-105423892D01*
X173313420Y-105400170D01*
X173327589Y-105385999D01*
X173342379Y-105373368D01*
X173358587Y-105361594D01*
X173388299Y-105325676D01*
X173392212Y-105321376D01*
X175426601Y-103286988D01*
X175487922Y-103253505D01*
X175557614Y-103258489D01*
X175585403Y-103273095D01*
X175598170Y-103282035D01*
X175812337Y-103381903D01*
X176040592Y-103443063D01*
X176217034Y-103458500D01*
X176275999Y-103463659D01*
X176276000Y-103463659D01*
X176276001Y-103463659D01*
X176334966Y-103458500D01*
X176511408Y-103443063D01*
X176739663Y-103381903D01*
X176953830Y-103282035D01*
X177147401Y-103146495D01*
X177314495Y-102979401D01*
X177444425Y-102793842D01*
X177499002Y-102750217D01*
X177568500Y-102743023D01*
X177630855Y-102774546D01*
X177647575Y-102793842D01*
X177777500Y-102979395D01*
X177777505Y-102979401D01*
X177944599Y-103146495D01*
X178041384Y-103214265D01*
X178138165Y-103282032D01*
X178138167Y-103282033D01*
X178138170Y-103282035D01*
X178352337Y-103381903D01*
X178580592Y-103443063D01*
X178757034Y-103458500D01*
X178815999Y-103463659D01*
X178816000Y-103463659D01*
X178816001Y-103463659D01*
X178874966Y-103458500D01*
X179051408Y-103443063D01*
X179279663Y-103381903D01*
X179493830Y-103282035D01*
X179687401Y-103146495D01*
X179854495Y-102979401D01*
X179990035Y-102785830D01*
X180089903Y-102571663D01*
X180151063Y-102343408D01*
X180171659Y-102108000D01*
X180151063Y-101872592D01*
X180089903Y-101644337D01*
X179990035Y-101430171D01*
X179984731Y-101422595D01*
X179854494Y-101236597D01*
X179687402Y-101069506D01*
X179687395Y-101069501D01*
X179493834Y-100933967D01*
X179493830Y-100933965D01*
X179463204Y-100919684D01*
X179279663Y-100834097D01*
X179279659Y-100834096D01*
X179279655Y-100834094D01*
X179051413Y-100772938D01*
X179051403Y-100772936D01*
X178816001Y-100752341D01*
X178815999Y-100752341D01*
X178580596Y-100772936D01*
X178580586Y-100772938D01*
X178352344Y-100834094D01*
X178352335Y-100834098D01*
X178138171Y-100933964D01*
X178138169Y-100933965D01*
X177944597Y-101069505D01*
X177777505Y-101236597D01*
X177647575Y-101422158D01*
X177592998Y-101465783D01*
X177523500Y-101472977D01*
X177461145Y-101441454D01*
X177444425Y-101422158D01*
X177314494Y-101236597D01*
X177147402Y-101069506D01*
X177147395Y-101069501D01*
X176953834Y-100933967D01*
X176953830Y-100933965D01*
X176923204Y-100919684D01*
X176739663Y-100834097D01*
X176739659Y-100834096D01*
X176739655Y-100834094D01*
X176511413Y-100772938D01*
X176511403Y-100772936D01*
X176276001Y-100752341D01*
X176275999Y-100752341D01*
X176040596Y-100772936D01*
X176040586Y-100772938D01*
X175812344Y-100834094D01*
X175812335Y-100834098D01*
X175598171Y-100933964D01*
X175598169Y-100933965D01*
X175404597Y-101069505D01*
X175237508Y-101236594D01*
X175107269Y-101422595D01*
X175052692Y-101466219D01*
X174983193Y-101473412D01*
X174920839Y-101441890D01*
X174904119Y-101422594D01*
X174774113Y-101236926D01*
X174774108Y-101236920D01*
X174607082Y-101069894D01*
X174413578Y-100934399D01*
X174199492Y-100834570D01*
X174199486Y-100834567D01*
X173986000Y-100777364D01*
X173986000Y-101672498D01*
X173878315Y-101623320D01*
X173771763Y-101608000D01*
X173700237Y-101608000D01*
X173593685Y-101623320D01*
X173486000Y-101672498D01*
X173486000Y-100777364D01*
X173485999Y-100777364D01*
X173272513Y-100834567D01*
X173272507Y-100834570D01*
X173058422Y-100934399D01*
X173058420Y-100934400D01*
X172864926Y-101069886D01*
X172864920Y-101069891D01*
X172697891Y-101236920D01*
X172697890Y-101236922D01*
X172567880Y-101422595D01*
X172513303Y-101466219D01*
X172443804Y-101473412D01*
X172381450Y-101441890D01*
X172364730Y-101422594D01*
X172234494Y-101236597D01*
X172067402Y-101069506D01*
X172067395Y-101069501D01*
X171873834Y-100933967D01*
X171873830Y-100933965D01*
X171843204Y-100919684D01*
X171659663Y-100834097D01*
X171659659Y-100834096D01*
X171659655Y-100834094D01*
X171431413Y-100772938D01*
X171431403Y-100772936D01*
X171196001Y-100752341D01*
X171195999Y-100752341D01*
X170960596Y-100772936D01*
X170960586Y-100772938D01*
X170732344Y-100834094D01*
X170732335Y-100834098D01*
X170518171Y-100933964D01*
X170518169Y-100933965D01*
X170324597Y-101069505D01*
X170157508Y-101236594D01*
X170027269Y-101422595D01*
X169972692Y-101466219D01*
X169903193Y-101473412D01*
X169840839Y-101441890D01*
X169824119Y-101422594D01*
X169694113Y-101236926D01*
X169694108Y-101236920D01*
X169527082Y-101069894D01*
X169333578Y-100934399D01*
X169119492Y-100834570D01*
X169119486Y-100834567D01*
X168906000Y-100777364D01*
X168906000Y-101672498D01*
X168798315Y-101623320D01*
X168691763Y-101608000D01*
X168620237Y-101608000D01*
X168513685Y-101623320D01*
X168406000Y-101672498D01*
X168406000Y-100777364D01*
X168405999Y-100777364D01*
X168192513Y-100834567D01*
X168192507Y-100834570D01*
X167978422Y-100934399D01*
X167978420Y-100934400D01*
X167784926Y-101069886D01*
X167784920Y-101069891D01*
X167617891Y-101236920D01*
X167617890Y-101236922D01*
X167487880Y-101422595D01*
X167433303Y-101466219D01*
X167363804Y-101473412D01*
X167301450Y-101441890D01*
X167284730Y-101422594D01*
X167154494Y-101236597D01*
X166987402Y-101069506D01*
X166987395Y-101069501D01*
X166793834Y-100933967D01*
X166793830Y-100933965D01*
X166763204Y-100919684D01*
X166579663Y-100834097D01*
X166579659Y-100834096D01*
X166579655Y-100834094D01*
X166351413Y-100772938D01*
X166351403Y-100772936D01*
X166116001Y-100752341D01*
X166115999Y-100752341D01*
X165880596Y-100772936D01*
X165880586Y-100772938D01*
X165652344Y-100834094D01*
X165652335Y-100834098D01*
X165438171Y-100933964D01*
X165438169Y-100933965D01*
X165244600Y-101069503D01*
X165122673Y-101191430D01*
X165061350Y-101224914D01*
X164991658Y-101219930D01*
X164935725Y-101178058D01*
X164918810Y-101147081D01*
X164869797Y-101015671D01*
X164869793Y-101015664D01*
X164783547Y-100900455D01*
X164783544Y-100900452D01*
X164668335Y-100814206D01*
X164668328Y-100814202D01*
X164533482Y-100763908D01*
X164533483Y-100763908D01*
X164473883Y-100757501D01*
X164473881Y-100757500D01*
X164473873Y-100757500D01*
X164473865Y-100757500D01*
X164450500Y-100757500D01*
X164383461Y-100737815D01*
X164337706Y-100685011D01*
X164326500Y-100633500D01*
X164326500Y-100174410D01*
X164346185Y-100107371D01*
X164398989Y-100061616D01*
X164408091Y-100057888D01*
X164469123Y-100035674D01*
X164542034Y-100011514D01*
X164542043Y-100011507D01*
X164548582Y-100008460D01*
X164548608Y-100008516D01*
X164555390Y-100005232D01*
X164555363Y-100005178D01*
X164561806Y-100001940D01*
X164561817Y-100001937D01*
X164625983Y-99959734D01*
X164691356Y-99919412D01*
X164691362Y-99919405D01*
X164697025Y-99914929D01*
X164697062Y-99914977D01*
X164702904Y-99910218D01*
X164702864Y-99910171D01*
X164708391Y-99905532D01*
X164708396Y-99905530D01*
X164761086Y-99849681D01*
X169589948Y-95020819D01*
X169651271Y-94987334D01*
X169677629Y-94984500D01*
X170148663Y-94984500D01*
X170215702Y-95004185D01*
X170221548Y-95008182D01*
X170235265Y-95018148D01*
X170235270Y-95018151D01*
X170408192Y-95095142D01*
X170408197Y-95095144D01*
X170593354Y-95134500D01*
X170593355Y-95134500D01*
X170782644Y-95134500D01*
X170782646Y-95134500D01*
X170967803Y-95095144D01*
X171140730Y-95018151D01*
X171293871Y-94906888D01*
X171420533Y-94766216D01*
X171515179Y-94602284D01*
X171573674Y-94422256D01*
X171593460Y-94234000D01*
X171573674Y-94045744D01*
X171515179Y-93865716D01*
X171420533Y-93701784D01*
X171293871Y-93561112D01*
X171293870Y-93561111D01*
X171182190Y-93479971D01*
X171139524Y-93424641D01*
X171133545Y-93355028D01*
X171166151Y-93293233D01*
X171167330Y-93292036D01*
X172423151Y-92036214D01*
X172484470Y-92002732D01*
X172524089Y-92000609D01*
X172541668Y-92002499D01*
X172541672Y-92002500D01*
X173089500Y-92002500D01*
X173089500Y-91188001D01*
X173197185Y-91237180D01*
X173303737Y-91252500D01*
X173375263Y-91252500D01*
X173481815Y-91237180D01*
X173589500Y-91188001D01*
X173589500Y-92002500D01*
X174137328Y-92002500D01*
X174137344Y-92002499D01*
X174196872Y-91996098D01*
X174196879Y-91996096D01*
X174331586Y-91945854D01*
X174331593Y-91945850D01*
X174446687Y-91859690D01*
X174446690Y-91859687D01*
X174532850Y-91744593D01*
X174532854Y-91744586D01*
X174583096Y-91609879D01*
X174583098Y-91609872D01*
X174589499Y-91550344D01*
X174589500Y-91550327D01*
X174589500Y-91002500D01*
X173773186Y-91002500D01*
X173798993Y-90962344D01*
X173839500Y-90824389D01*
X173839500Y-90680611D01*
X173798993Y-90542656D01*
X173773186Y-90502500D01*
X174589500Y-90502500D01*
X174589500Y-89954672D01*
X174589499Y-89954655D01*
X174583098Y-89895127D01*
X174583096Y-89895120D01*
X174532854Y-89760413D01*
X174532850Y-89760406D01*
X174446690Y-89645312D01*
X174446687Y-89645309D01*
X174331593Y-89559149D01*
X174331586Y-89559145D01*
X174196879Y-89508903D01*
X174196872Y-89508901D01*
X174137344Y-89502500D01*
X173589500Y-89502500D01*
X173589500Y-90316998D01*
X173481815Y-90267820D01*
X173375263Y-90252500D01*
X173303737Y-90252500D01*
X173197185Y-90267820D01*
X173089500Y-90316998D01*
X173089500Y-89502500D01*
X173014000Y-89502500D01*
X172946961Y-89482815D01*
X172901206Y-89430011D01*
X172890000Y-89378500D01*
X172890000Y-88826728D01*
X172909685Y-88759689D01*
X172926314Y-88739052D01*
X178490548Y-83174817D01*
X178551871Y-83141333D01*
X178578229Y-83138499D01*
X179539871Y-83138499D01*
X179539872Y-83138499D01*
X179599483Y-83132091D01*
X179734331Y-83081796D01*
X179835755Y-83005870D01*
X193321500Y-83005870D01*
X193321501Y-83005876D01*
X193327908Y-83065483D01*
X193378202Y-83200328D01*
X193378206Y-83200335D01*
X193464452Y-83315544D01*
X193464455Y-83315547D01*
X193579664Y-83401793D01*
X193579671Y-83401797D01*
X193714517Y-83452091D01*
X193714516Y-83452091D01*
X193721444Y-83452835D01*
X193774127Y-83458500D01*
X196369872Y-83458499D01*
X196429483Y-83452091D01*
X196564331Y-83401796D01*
X196679546Y-83315546D01*
X196765796Y-83200331D01*
X196816091Y-83065483D01*
X196822500Y-83005873D01*
X196822499Y-80410128D01*
X196816091Y-80350517D01*
X196806959Y-80326034D01*
X196765797Y-80215671D01*
X196765793Y-80215664D01*
X196679547Y-80100455D01*
X196679544Y-80100452D01*
X196564335Y-80014206D01*
X196564328Y-80014202D01*
X196429482Y-79963908D01*
X196429483Y-79963908D01*
X196369883Y-79957501D01*
X196369881Y-79957500D01*
X196369873Y-79957500D01*
X196369864Y-79957500D01*
X193774129Y-79957500D01*
X193774123Y-79957501D01*
X193714516Y-79963908D01*
X193579671Y-80014202D01*
X193579664Y-80014206D01*
X193464455Y-80100452D01*
X193464452Y-80100455D01*
X193378206Y-80215664D01*
X193378202Y-80215671D01*
X193327908Y-80350517D01*
X193322659Y-80399344D01*
X193321501Y-80410123D01*
X193321500Y-80410135D01*
X193321500Y-83005870D01*
X179835755Y-83005870D01*
X179849546Y-82995546D01*
X179935796Y-82880331D01*
X179986091Y-82745483D01*
X179992500Y-82685873D01*
X179992499Y-80890128D01*
X179986091Y-80830517D01*
X179985776Y-80829673D01*
X179935797Y-80695671D01*
X179935793Y-80695664D01*
X179849547Y-80580455D01*
X179849544Y-80580452D01*
X179734335Y-80494206D01*
X179734328Y-80494202D01*
X179602917Y-80445189D01*
X179546983Y-80403318D01*
X179522566Y-80337853D01*
X179537418Y-80269580D01*
X179558563Y-80241332D01*
X179680495Y-80119401D01*
X179816035Y-79925830D01*
X179915903Y-79711663D01*
X179977063Y-79483408D01*
X179997659Y-79248000D01*
X179977063Y-79012592D01*
X179915903Y-78784337D01*
X179816035Y-78570171D01*
X179788136Y-78530326D01*
X179680494Y-78376597D01*
X179513402Y-78209506D01*
X179513396Y-78209501D01*
X179327842Y-78079575D01*
X179284217Y-78024998D01*
X179277023Y-77955500D01*
X179308546Y-77893145D01*
X179327842Y-77876425D01*
X179350026Y-77860891D01*
X179513401Y-77746495D01*
X179680495Y-77579401D01*
X179816035Y-77385830D01*
X179915903Y-77171663D01*
X179977063Y-76943408D01*
X179997659Y-76708004D01*
X193316592Y-76708004D01*
X193336196Y-76969620D01*
X193336197Y-76969625D01*
X193336197Y-76969629D01*
X193336198Y-76969630D01*
X193338466Y-76979567D01*
X193394576Y-77225402D01*
X193394578Y-77225411D01*
X193394580Y-77225416D01*
X193490432Y-77469643D01*
X193621614Y-77696857D01*
X193701218Y-77796677D01*
X193785198Y-77901985D01*
X193891396Y-78000521D01*
X193977521Y-78080433D01*
X194194296Y-78228228D01*
X194194301Y-78228230D01*
X194194302Y-78228231D01*
X194194303Y-78228232D01*
X194319843Y-78288688D01*
X194430673Y-78342061D01*
X194430674Y-78342061D01*
X194430677Y-78342063D01*
X194681385Y-78419396D01*
X194940818Y-78458500D01*
X195203182Y-78458500D01*
X195462615Y-78419396D01*
X195713323Y-78342063D01*
X195949704Y-78228228D01*
X196166479Y-78080433D01*
X196327528Y-77931002D01*
X196358801Y-77901985D01*
X196358801Y-77901983D01*
X196358805Y-77901981D01*
X196522386Y-77696857D01*
X196653568Y-77469643D01*
X196749420Y-77225416D01*
X196807802Y-76969630D01*
X196807803Y-76969620D01*
X196827408Y-76708004D01*
X196827408Y-76707995D01*
X196807803Y-76446379D01*
X196807802Y-76446374D01*
X196807802Y-76446370D01*
X196749420Y-76190584D01*
X196653568Y-75946357D01*
X196522386Y-75719143D01*
X196358805Y-75514019D01*
X196358804Y-75514018D01*
X196358801Y-75514014D01*
X196166479Y-75335567D01*
X196115629Y-75300898D01*
X195949704Y-75187772D01*
X195949700Y-75187770D01*
X195949697Y-75187768D01*
X195949696Y-75187767D01*
X195713325Y-75073938D01*
X195713327Y-75073938D01*
X195462623Y-74996606D01*
X195462619Y-74996605D01*
X195462615Y-74996604D01*
X195337823Y-74977794D01*
X195203187Y-74957500D01*
X195203182Y-74957500D01*
X194940818Y-74957500D01*
X194940812Y-74957500D01*
X194779247Y-74981853D01*
X194681385Y-74996604D01*
X194681382Y-74996605D01*
X194681376Y-74996606D01*
X194430673Y-75073938D01*
X194194303Y-75187767D01*
X194194302Y-75187768D01*
X193977520Y-75335567D01*
X193785198Y-75514014D01*
X193621614Y-75719143D01*
X193490432Y-75946356D01*
X193394582Y-76190578D01*
X193394576Y-76190597D01*
X193336197Y-76446374D01*
X193336196Y-76446379D01*
X193316592Y-76707995D01*
X193316592Y-76708004D01*
X179997659Y-76708004D01*
X179997659Y-76708000D01*
X179977063Y-76472592D01*
X179926614Y-76284310D01*
X179915905Y-76244344D01*
X179915904Y-76244343D01*
X179915903Y-76244337D01*
X179816035Y-76030171D01*
X179815652Y-76029623D01*
X179680494Y-75836597D01*
X179513402Y-75669506D01*
X179513395Y-75669501D01*
X179319834Y-75533967D01*
X179319830Y-75533965D01*
X179277045Y-75514014D01*
X179105663Y-75434097D01*
X179105659Y-75434096D01*
X179105655Y-75434094D01*
X178877413Y-75372938D01*
X178877403Y-75372936D01*
X178642001Y-75352341D01*
X178641999Y-75352341D01*
X178406596Y-75372936D01*
X178406586Y-75372938D01*
X178178344Y-75434094D01*
X178178335Y-75434098D01*
X177964171Y-75533964D01*
X177964169Y-75533965D01*
X177770597Y-75669505D01*
X177603505Y-75836597D01*
X177467965Y-76030169D01*
X177467964Y-76030171D01*
X177368098Y-76244335D01*
X177368094Y-76244344D01*
X177306938Y-76472586D01*
X177306936Y-76472596D01*
X177286341Y-76707999D01*
X177286341Y-76708000D01*
X177306936Y-76943403D01*
X177306938Y-76943413D01*
X177368094Y-77171655D01*
X177368096Y-77171659D01*
X177368097Y-77171663D01*
X177443563Y-77333500D01*
X177467965Y-77385830D01*
X177467967Y-77385834D01*
X177571071Y-77533080D01*
X177603501Y-77579396D01*
X177603506Y-77579402D01*
X177770597Y-77746493D01*
X177770603Y-77746498D01*
X177956158Y-77876425D01*
X177999783Y-77931002D01*
X178006977Y-78000500D01*
X177975454Y-78062855D01*
X177956158Y-78079575D01*
X177770597Y-78209505D01*
X177603505Y-78376597D01*
X177467965Y-78570169D01*
X177467964Y-78570171D01*
X177368098Y-78784335D01*
X177368094Y-78784344D01*
X177306938Y-79012586D01*
X177306936Y-79012596D01*
X177286341Y-79247999D01*
X177286341Y-79248000D01*
X177306936Y-79483403D01*
X177306938Y-79483413D01*
X177368094Y-79711655D01*
X177368096Y-79711659D01*
X177368097Y-79711663D01*
X177449813Y-79886903D01*
X177467965Y-79925830D01*
X177467967Y-79925834D01*
X177548765Y-80041224D01*
X177603501Y-80119396D01*
X177603506Y-80119402D01*
X177725430Y-80241326D01*
X177758915Y-80302649D01*
X177753931Y-80372341D01*
X177712059Y-80428274D01*
X177681083Y-80445189D01*
X177549669Y-80494203D01*
X177549664Y-80494206D01*
X177434455Y-80580452D01*
X177434452Y-80580455D01*
X177348206Y-80695664D01*
X177348202Y-80695671D01*
X177297908Y-80830517D01*
X177293712Y-80869553D01*
X177291501Y-80890123D01*
X177291500Y-80890135D01*
X177291500Y-82199769D01*
X177271815Y-82266808D01*
X177255181Y-82287450D01*
X171653858Y-87888772D01*
X171640229Y-87900551D01*
X171620968Y-87914890D01*
X171587398Y-87954897D01*
X171583753Y-87958876D01*
X171577909Y-87964722D01*
X171557559Y-87990459D01*
X171508195Y-88049289D01*
X171504229Y-88055319D01*
X171504182Y-88055288D01*
X171500130Y-88061647D01*
X171500179Y-88061677D01*
X171496389Y-88067821D01*
X171463924Y-88137441D01*
X171429460Y-88206066D01*
X171426988Y-88212857D01*
X171426932Y-88212836D01*
X171424460Y-88219950D01*
X171424515Y-88219969D01*
X171422242Y-88226827D01*
X171414475Y-88264446D01*
X171406707Y-88302065D01*
X171393501Y-88357784D01*
X171388998Y-88376786D01*
X171388161Y-88383954D01*
X171388101Y-88383947D01*
X171387335Y-88391445D01*
X171387395Y-88391451D01*
X171386765Y-88398640D01*
X171389000Y-88475416D01*
X171389000Y-89454242D01*
X171369315Y-89521281D01*
X171316511Y-89567036D01*
X171247353Y-89576980D01*
X171232907Y-89574017D01*
X171017477Y-89516293D01*
X170799502Y-89497223D01*
X170799498Y-89497223D01*
X170666016Y-89508901D01*
X170581523Y-89516293D01*
X170581520Y-89516293D01*
X170370177Y-89572922D01*
X170370170Y-89572924D01*
X170370170Y-89572925D01*
X170361474Y-89576980D01*
X170171861Y-89665398D01*
X170171857Y-89665400D01*
X169992621Y-89790902D01*
X169837902Y-89945621D01*
X169712400Y-90124857D01*
X169712398Y-90124861D01*
X169641882Y-90276083D01*
X169595709Y-90328522D01*
X169528516Y-90347674D01*
X169461635Y-90327458D01*
X169417118Y-90276083D01*
X169349367Y-90130792D01*
X169346602Y-90124862D01*
X169346600Y-90124859D01*
X169346599Y-90124857D01*
X169221099Y-89945624D01*
X169149450Y-89873975D01*
X169066377Y-89790902D01*
X169062874Y-89788449D01*
X169019251Y-89733872D01*
X169010000Y-89686876D01*
X169010000Y-84025205D01*
X169011309Y-84007235D01*
X169014789Y-83983474D01*
X169010236Y-83931439D01*
X169010000Y-83926032D01*
X169010000Y-83917796D01*
X169010000Y-83917791D01*
X169006191Y-83885205D01*
X168999498Y-83808703D01*
X168999495Y-83808694D01*
X168998038Y-83801635D01*
X168998098Y-83801622D01*
X168996466Y-83794264D01*
X168996408Y-83794278D01*
X168994741Y-83787247D01*
X168994741Y-83787245D01*
X168968469Y-83715063D01*
X168944315Y-83642168D01*
X168941262Y-83635621D01*
X168941315Y-83635595D01*
X168938031Y-83628811D01*
X168937979Y-83628838D01*
X168934736Y-83622382D01*
X168892534Y-83558216D01*
X168852214Y-83492847D01*
X168847734Y-83487181D01*
X168847780Y-83487143D01*
X168843019Y-83481299D01*
X168842974Y-83481338D01*
X168838334Y-83475808D01*
X168782482Y-83423113D01*
X166661729Y-81302361D01*
X166649949Y-81288730D01*
X166642482Y-81278701D01*
X166635612Y-81269472D01*
X166635610Y-81269470D01*
X166595587Y-81235886D01*
X166591612Y-81232244D01*
X166588690Y-81229322D01*
X166585780Y-81226411D01*
X166560040Y-81206059D01*
X166519630Y-81172151D01*
X166501214Y-81156698D01*
X166501213Y-81156697D01*
X166501209Y-81156694D01*
X166495180Y-81152729D01*
X166495212Y-81152680D01*
X166488853Y-81148628D01*
X166488822Y-81148679D01*
X166482680Y-81144891D01*
X166482678Y-81144890D01*
X166482677Y-81144889D01*
X166443474Y-81126608D01*
X166413058Y-81112424D01*
X166378894Y-81095267D01*
X166344433Y-81077960D01*
X166344431Y-81077959D01*
X166344430Y-81077959D01*
X166337645Y-81075489D01*
X166337665Y-81075433D01*
X166330549Y-81072959D01*
X166330531Y-81073015D01*
X166323671Y-81070742D01*
X166295841Y-81064996D01*
X166248434Y-81055207D01*
X166199472Y-81043603D01*
X166173719Y-81037499D01*
X166166547Y-81036661D01*
X166166553Y-81036601D01*
X166159055Y-81035835D01*
X166159050Y-81035895D01*
X166151860Y-81035265D01*
X166075083Y-81037500D01*
X162336499Y-81037500D01*
X162269460Y-81017815D01*
X162223705Y-80965011D01*
X162212499Y-80913500D01*
X162212499Y-80890129D01*
X162212498Y-80890123D01*
X162212497Y-80890116D01*
X162206091Y-80830517D01*
X162205776Y-80829673D01*
X162155797Y-80695671D01*
X162155793Y-80695664D01*
X162069547Y-80580455D01*
X162069544Y-80580452D01*
X161954335Y-80494206D01*
X161954328Y-80494202D01*
X161822917Y-80445189D01*
X161766983Y-80403318D01*
X161742566Y-80337853D01*
X161757418Y-80269580D01*
X161778563Y-80241332D01*
X161900495Y-80119401D01*
X162036035Y-79925830D01*
X162135903Y-79711663D01*
X162197063Y-79483408D01*
X162217659Y-79248000D01*
X162197063Y-79012592D01*
X162135903Y-78784337D01*
X162036035Y-78570171D01*
X162008136Y-78530326D01*
X161900494Y-78376597D01*
X161733402Y-78209506D01*
X161733396Y-78209501D01*
X161547842Y-78079575D01*
X161504217Y-78024998D01*
X161497023Y-77955500D01*
X161528546Y-77893145D01*
X161547842Y-77876425D01*
X161570026Y-77860891D01*
X161733401Y-77746495D01*
X161900495Y-77579401D01*
X162036035Y-77385830D01*
X162135903Y-77171663D01*
X162197063Y-76943408D01*
X162217659Y-76708000D01*
X162197063Y-76472592D01*
X162146614Y-76284310D01*
X162135905Y-76244344D01*
X162135904Y-76244343D01*
X162135903Y-76244337D01*
X162036035Y-76030171D01*
X162035652Y-76029623D01*
X161900494Y-75836597D01*
X161733402Y-75669506D01*
X161733395Y-75669501D01*
X161539834Y-75533967D01*
X161539830Y-75533965D01*
X161497045Y-75514014D01*
X161325663Y-75434097D01*
X161325659Y-75434096D01*
X161325655Y-75434094D01*
X161097413Y-75372938D01*
X161097403Y-75372936D01*
X160862001Y-75352341D01*
X160861999Y-75352341D01*
X160626596Y-75372936D01*
X160626586Y-75372938D01*
X160398344Y-75434094D01*
X160398335Y-75434098D01*
X160184171Y-75533964D01*
X160184169Y-75533965D01*
X159990597Y-75669505D01*
X159823505Y-75836597D01*
X159688348Y-76029623D01*
X159633771Y-76073248D01*
X159586773Y-76082500D01*
X151974737Y-76082500D01*
X151959120Y-76080776D01*
X151959093Y-76081062D01*
X151951331Y-76080327D01*
X151882203Y-76082500D01*
X151852650Y-76082500D01*
X151851929Y-76082590D01*
X151845757Y-76083369D01*
X151839945Y-76083826D01*
X151793373Y-76085290D01*
X151793372Y-76085290D01*
X151774129Y-76090881D01*
X151755079Y-76094825D01*
X151735211Y-76097334D01*
X151735209Y-76097335D01*
X151691884Y-76114488D01*
X151686357Y-76116380D01*
X151641610Y-76129381D01*
X151641609Y-76129382D01*
X151624367Y-76139579D01*
X151606899Y-76148137D01*
X151588269Y-76155513D01*
X151588267Y-76155514D01*
X151550576Y-76182898D01*
X151545694Y-76186105D01*
X151505579Y-76209830D01*
X151491408Y-76224000D01*
X151476623Y-76236628D01*
X151460412Y-76248407D01*
X151430709Y-76284310D01*
X151426776Y-76288631D01*
X149779765Y-77935644D01*
X148160728Y-79554681D01*
X148099405Y-79588166D01*
X148073047Y-79591000D01*
X146048600Y-79591000D01*
X145981561Y-79571315D01*
X145935806Y-79518511D01*
X145924600Y-79467000D01*
X145924600Y-74503152D01*
X145944285Y-74436113D01*
X145960919Y-74415471D01*
X147340372Y-73036019D01*
X147401695Y-73002534D01*
X147428053Y-72999700D01*
X147487244Y-72999700D01*
X147487246Y-72999700D01*
X147672403Y-72960344D01*
X147845330Y-72883351D01*
X147998471Y-72772088D01*
X148125133Y-72631416D01*
X148219779Y-72467484D01*
X148278274Y-72287456D01*
X148298060Y-72099200D01*
X148278274Y-71910944D01*
X148219779Y-71730916D01*
X148125133Y-71566984D01*
X147998471Y-71426312D01*
X147998470Y-71426311D01*
X147845334Y-71315051D01*
X147845329Y-71315048D01*
X147672407Y-71238057D01*
X147672402Y-71238055D01*
X147526601Y-71207065D01*
X147487246Y-71198700D01*
X147297954Y-71198700D01*
X147265497Y-71205598D01*
X147112797Y-71238055D01*
X147112792Y-71238057D01*
X146939870Y-71315048D01*
X146939865Y-71315051D01*
X146786729Y-71426311D01*
X146660066Y-71566985D01*
X146565421Y-71730915D01*
X146565418Y-71730922D01*
X146507878Y-71908014D01*
X146506926Y-71910944D01*
X146492449Y-72048688D01*
X146489279Y-72078849D01*
X146462694Y-72143463D01*
X146453639Y-72153568D01*
X144915308Y-73691899D01*
X144903051Y-73701720D01*
X144903234Y-73701941D01*
X144897223Y-73706913D01*
X144849872Y-73757336D01*
X144828989Y-73778219D01*
X144828977Y-73778232D01*
X144824721Y-73783717D01*
X144820937Y-73788147D01*
X144789037Y-73822118D01*
X144789036Y-73822120D01*
X144779384Y-73839676D01*
X144768710Y-73855926D01*
X144756429Y-73871761D01*
X144756424Y-73871768D01*
X144737915Y-73914538D01*
X144735345Y-73919784D01*
X144712903Y-73960606D01*
X144707922Y-73980007D01*
X144701621Y-73998410D01*
X144693662Y-74016802D01*
X144693661Y-74016805D01*
X144686371Y-74062827D01*
X144685187Y-74068546D01*
X144673601Y-74113672D01*
X144673600Y-74113682D01*
X144673600Y-74133716D01*
X144672073Y-74153115D01*
X144668940Y-74172894D01*
X144668940Y-74172895D01*
X144673325Y-74219283D01*
X144673600Y-74225121D01*
X144673600Y-79517812D01*
X144653915Y-79584851D01*
X144641750Y-79600784D01*
X144566566Y-79684284D01*
X144471921Y-79848215D01*
X144471918Y-79848222D01*
X144413427Y-80028240D01*
X144413426Y-80028244D01*
X144393640Y-80216500D01*
X144413426Y-80404756D01*
X144413427Y-80404759D01*
X144471918Y-80584777D01*
X144471921Y-80584784D01*
X144566567Y-80748716D01*
X144687501Y-80883026D01*
X144693229Y-80889388D01*
X144846365Y-81000648D01*
X144846370Y-81000651D01*
X145019292Y-81077642D01*
X145019297Y-81077644D01*
X145204454Y-81117000D01*
X145204455Y-81117000D01*
X145393744Y-81117000D01*
X145393746Y-81117000D01*
X145578903Y-81077644D01*
X145751830Y-81000651D01*
X145904971Y-80889388D01*
X145907888Y-80886147D01*
X145910700Y-80883026D01*
X145970187Y-80846379D01*
X146002848Y-80842000D01*
X148300757Y-80842000D01*
X148316377Y-80843724D01*
X148316404Y-80843439D01*
X148324160Y-80844171D01*
X148324167Y-80844173D01*
X148393314Y-80842000D01*
X148422850Y-80842000D01*
X148429728Y-80841130D01*
X148435541Y-80840672D01*
X148482127Y-80839209D01*
X148501369Y-80833617D01*
X148520412Y-80829674D01*
X148540292Y-80827164D01*
X148583622Y-80810007D01*
X148589146Y-80808117D01*
X148592896Y-80807027D01*
X148633890Y-80795118D01*
X148651129Y-80784922D01*
X148668603Y-80776362D01*
X148687227Y-80768988D01*
X148687227Y-80768987D01*
X148687232Y-80768986D01*
X148724949Y-80741582D01*
X148729805Y-80738392D01*
X148769920Y-80714670D01*
X148784089Y-80700499D01*
X148798879Y-80687868D01*
X148815087Y-80676094D01*
X148844799Y-80640176D01*
X148848712Y-80635876D01*
X152114772Y-77369819D01*
X152176095Y-77336334D01*
X152202453Y-77333500D01*
X159586773Y-77333500D01*
X159653812Y-77353185D01*
X159688348Y-77386377D01*
X159823501Y-77579396D01*
X159823506Y-77579402D01*
X159990597Y-77746493D01*
X159990603Y-77746498D01*
X160176158Y-77876425D01*
X160219783Y-77931002D01*
X160226977Y-78000500D01*
X160195454Y-78062855D01*
X160176158Y-78079575D01*
X159990597Y-78209505D01*
X159823505Y-78376597D01*
X159687965Y-78570169D01*
X159687964Y-78570171D01*
X159588098Y-78784335D01*
X159588094Y-78784344D01*
X159526938Y-79012586D01*
X159526936Y-79012596D01*
X159506341Y-79247999D01*
X159506341Y-79248000D01*
X159526936Y-79483403D01*
X159526938Y-79483413D01*
X159588094Y-79711655D01*
X159588096Y-79711659D01*
X159588097Y-79711663D01*
X159669813Y-79886903D01*
X159687965Y-79925830D01*
X159687967Y-79925834D01*
X159768765Y-80041224D01*
X159823501Y-80119396D01*
X159823506Y-80119402D01*
X159945430Y-80241326D01*
X159978915Y-80302649D01*
X159973931Y-80372341D01*
X159932059Y-80428274D01*
X159901083Y-80445189D01*
X159769669Y-80494203D01*
X159769664Y-80494206D01*
X159654455Y-80580452D01*
X159654452Y-80580455D01*
X159568206Y-80695664D01*
X159568202Y-80695671D01*
X159517908Y-80830517D01*
X159513712Y-80869553D01*
X159511501Y-80890123D01*
X159511500Y-80890135D01*
X159511500Y-82685870D01*
X159511501Y-82685876D01*
X159517908Y-82745483D01*
X159568202Y-82880328D01*
X159568206Y-82880335D01*
X159654452Y-82995544D01*
X159654455Y-82995547D01*
X159769664Y-83081793D01*
X159769671Y-83081797D01*
X159904517Y-83132091D01*
X159904516Y-83132091D01*
X159911444Y-83132835D01*
X159964127Y-83138500D01*
X161759872Y-83138499D01*
X161819483Y-83132091D01*
X161954331Y-83081796D01*
X162069546Y-82995546D01*
X162155796Y-82880331D01*
X162206091Y-82745483D01*
X162212500Y-82685873D01*
X162212500Y-82662500D01*
X162232185Y-82595461D01*
X162284989Y-82549706D01*
X162336500Y-82538500D01*
X165723770Y-82538500D01*
X165790809Y-82558185D01*
X165811451Y-82574819D01*
X167472681Y-84236048D01*
X167506166Y-84297371D01*
X167509000Y-84323729D01*
X167509000Y-89686876D01*
X167489315Y-89753915D01*
X167456125Y-89788450D01*
X167452625Y-89790900D01*
X167297900Y-89945624D01*
X167172400Y-90124857D01*
X167172398Y-90124861D01*
X167101882Y-90276083D01*
X167055709Y-90328522D01*
X166988516Y-90347674D01*
X166921635Y-90327458D01*
X166877118Y-90276083D01*
X166809367Y-90130792D01*
X166806602Y-90124862D01*
X166806600Y-90124859D01*
X166806599Y-90124857D01*
X166681099Y-89945624D01*
X166609450Y-89873975D01*
X166526377Y-89790902D01*
X166377813Y-89686876D01*
X166347138Y-89665397D01*
X166247984Y-89619161D01*
X166148830Y-89572925D01*
X166148826Y-89572924D01*
X166148822Y-89572922D01*
X165937477Y-89516293D01*
X165719502Y-89497223D01*
X165719498Y-89497223D01*
X165586016Y-89508901D01*
X165501523Y-89516293D01*
X165501520Y-89516293D01*
X165290177Y-89572922D01*
X165290170Y-89572924D01*
X165290170Y-89572925D01*
X165281474Y-89576980D01*
X165091861Y-89665398D01*
X165091857Y-89665400D01*
X164912621Y-89790902D01*
X164757902Y-89945621D01*
X164632400Y-90124857D01*
X164632398Y-90124861D01*
X164539926Y-90323168D01*
X164539922Y-90323177D01*
X164483293Y-90534520D01*
X164483293Y-90534523D01*
X164479651Y-90576148D01*
X164464223Y-90752497D01*
X164464223Y-90752502D01*
X164468466Y-90801000D01*
X164482581Y-90962344D01*
X164483293Y-90970475D01*
X164483293Y-90970479D01*
X164539922Y-91181822D01*
X164539924Y-91181826D01*
X164539925Y-91181830D01*
X164562539Y-91230326D01*
X164632397Y-91380138D01*
X164632398Y-91380139D01*
X164757902Y-91559377D01*
X164912623Y-91714098D01*
X165091861Y-91839602D01*
X165290170Y-91932075D01*
X165501523Y-91988707D01*
X165684426Y-92004708D01*
X165719498Y-92007777D01*
X165719500Y-92007777D01*
X165719501Y-92007777D01*
X165734766Y-92006441D01*
X165840208Y-91997216D01*
X165908706Y-92010982D01*
X165938695Y-92033063D01*
X167355267Y-93449634D01*
X167367048Y-93463266D01*
X167381390Y-93482530D01*
X167421420Y-93516119D01*
X167425392Y-93519759D01*
X167431223Y-93525590D01*
X167431222Y-93525590D01*
X167456944Y-93545927D01*
X167515786Y-93595302D01*
X167515794Y-93595306D01*
X167521824Y-93599273D01*
X167521790Y-93599323D01*
X167528137Y-93603366D01*
X167528169Y-93603316D01*
X167534318Y-93607108D01*
X167534320Y-93607109D01*
X167534323Y-93607111D01*
X167603930Y-93639569D01*
X167672567Y-93674040D01*
X167672576Y-93674042D01*
X167679355Y-93676510D01*
X167679334Y-93676567D01*
X167686451Y-93679040D01*
X167686470Y-93678984D01*
X167693330Y-93681257D01*
X167768532Y-93696784D01*
X167843279Y-93714500D01*
X167843288Y-93714500D01*
X167850452Y-93715338D01*
X167850445Y-93715397D01*
X167857946Y-93716163D01*
X167857952Y-93716104D01*
X167865140Y-93716733D01*
X167865143Y-93716732D01*
X167865144Y-93716733D01*
X167941898Y-93714500D01*
X168474171Y-93714500D01*
X168541210Y-93734185D01*
X168586965Y-93786989D01*
X168596909Y-93856147D01*
X168567884Y-93919703D01*
X168561852Y-93926181D01*
X163948151Y-98539881D01*
X163886828Y-98573366D01*
X163860470Y-98576200D01*
X163599641Y-98576200D01*
X163596040Y-98576095D01*
X163532065Y-98572369D01*
X163532062Y-98572369D01*
X163468943Y-98583498D01*
X163465375Y-98584021D01*
X163401750Y-98591458D01*
X163401743Y-98591459D01*
X163391201Y-98595296D01*
X163370335Y-98600886D01*
X163359297Y-98602832D01*
X163359285Y-98602836D01*
X163300450Y-98628214D01*
X163297100Y-98629545D01*
X163236885Y-98651461D01*
X163236881Y-98651463D01*
X163227502Y-98657631D01*
X163208498Y-98667877D01*
X163198204Y-98672318D01*
X163198189Y-98672326D01*
X163146794Y-98710589D01*
X163143841Y-98712657D01*
X163090306Y-98747868D01*
X163082606Y-98756029D01*
X163066469Y-98770389D01*
X163057470Y-98777088D01*
X163016274Y-98826183D01*
X163013878Y-98828876D01*
X162969905Y-98875484D01*
X162964300Y-98885193D01*
X162951909Y-98902891D01*
X162944699Y-98911483D01*
X162915940Y-98968747D01*
X162914229Y-98971920D01*
X162882188Y-99027417D01*
X162882187Y-99027419D01*
X162878968Y-99038170D01*
X162870996Y-99058237D01*
X162865960Y-99068265D01*
X162865959Y-99068269D01*
X162851182Y-99130612D01*
X162850249Y-99134093D01*
X162831869Y-99195492D01*
X162831217Y-99206690D01*
X162828087Y-99228061D01*
X162825500Y-99238979D01*
X162825500Y-99303058D01*
X162825395Y-99306663D01*
X162821669Y-99370634D01*
X162821669Y-99370635D01*
X162823616Y-99381677D01*
X162825500Y-99403209D01*
X162825500Y-100633500D01*
X162805815Y-100700539D01*
X162753011Y-100746294D01*
X162701505Y-100757500D01*
X162678132Y-100757500D01*
X162678123Y-100757501D01*
X162618516Y-100763908D01*
X162483671Y-100814202D01*
X162483664Y-100814206D01*
X162368455Y-100900452D01*
X162368452Y-100900455D01*
X162282206Y-101015664D01*
X162282202Y-101015671D01*
X162231908Y-101150517D01*
X162225501Y-101210116D01*
X162225500Y-101210135D01*
X162225500Y-103005870D01*
X162225501Y-103005876D01*
X162231908Y-103065483D01*
X162282202Y-103200328D01*
X162282206Y-103200335D01*
X162368452Y-103315544D01*
X162368455Y-103315547D01*
X162483664Y-103401793D01*
X162483671Y-103401797D01*
X162618517Y-103452091D01*
X162618516Y-103452091D01*
X162625444Y-103452835D01*
X162678127Y-103458500D01*
X164473872Y-103458499D01*
X164533483Y-103452091D01*
X164668331Y-103401796D01*
X164783546Y-103315546D01*
X164869796Y-103200331D01*
X164918810Y-103068916D01*
X164960681Y-103012984D01*
X165026145Y-102988566D01*
X165094418Y-103003417D01*
X165122673Y-103024569D01*
X165244599Y-103146495D01*
X165341384Y-103214265D01*
X165438165Y-103282032D01*
X165438167Y-103282033D01*
X165438170Y-103282035D01*
X165652337Y-103381903D01*
X165880592Y-103443063D01*
X166057034Y-103458500D01*
X166115999Y-103463659D01*
X166116000Y-103463659D01*
X166116001Y-103463659D01*
X166174966Y-103458500D01*
X166351408Y-103443063D01*
X166579663Y-103381903D01*
X166793830Y-103282035D01*
X166987401Y-103146495D01*
X167154495Y-102979401D01*
X167284730Y-102793405D01*
X167339307Y-102749781D01*
X167408805Y-102742587D01*
X167471160Y-102774110D01*
X167487879Y-102793405D01*
X167617890Y-102979078D01*
X167784917Y-103146105D01*
X167978421Y-103281600D01*
X168192507Y-103381429D01*
X168192516Y-103381433D01*
X168406000Y-103438634D01*
X168406000Y-102543501D01*
X168513685Y-102592680D01*
X168620237Y-102608000D01*
X168691763Y-102608000D01*
X168798315Y-102592680D01*
X168906000Y-102543501D01*
X168906000Y-103438633D01*
X169119483Y-103381433D01*
X169119492Y-103381429D01*
X169333578Y-103281600D01*
X169527082Y-103146105D01*
X169694105Y-102979082D01*
X169824119Y-102793405D01*
X169878696Y-102749781D01*
X169948195Y-102742588D01*
X170010549Y-102774110D01*
X170027269Y-102793405D01*
X170157505Y-102979401D01*
X170324599Y-103146495D01*
X170421384Y-103214265D01*
X170518165Y-103282032D01*
X170518167Y-103282033D01*
X170518170Y-103282035D01*
X170732337Y-103381903D01*
X170960592Y-103443063D01*
X171137034Y-103458500D01*
X171195999Y-103463659D01*
X171196000Y-103463659D01*
X171196001Y-103463659D01*
X171254966Y-103458500D01*
X171431408Y-103443063D01*
X171659663Y-103381903D01*
X171873830Y-103282035D01*
X172067401Y-103146495D01*
X172234495Y-102979401D01*
X172364730Y-102793405D01*
X172419307Y-102749781D01*
X172488805Y-102742587D01*
X172551160Y-102774110D01*
X172567879Y-102793405D01*
X172697890Y-102979078D01*
X172864917Y-103146105D01*
X173058421Y-103281600D01*
X173272507Y-103381429D01*
X173272521Y-103381435D01*
X173294135Y-103387226D01*
X173353796Y-103423589D01*
X173384327Y-103486436D01*
X173376033Y-103555811D01*
X173349725Y-103594682D01*
X172704228Y-104240181D01*
X172642905Y-104273666D01*
X172616547Y-104276500D01*
X147194153Y-104276500D01*
X147127114Y-104256815D01*
X147106472Y-104240181D01*
X143410670Y-100544379D01*
X143377185Y-100483056D01*
X143382169Y-100413364D01*
X143424041Y-100357431D01*
X143489505Y-100333014D01*
X143557778Y-100347866D01*
X143560349Y-100349309D01*
X143565263Y-100352145D01*
X143565270Y-100352151D01*
X143565277Y-100352154D01*
X143738192Y-100429142D01*
X143738197Y-100429144D01*
X143923354Y-100468500D01*
X143923355Y-100468500D01*
X144112644Y-100468500D01*
X144112646Y-100468500D01*
X144297803Y-100429144D01*
X144470730Y-100352151D01*
X144623871Y-100240888D01*
X144750533Y-100100216D01*
X144845179Y-99936284D01*
X144903674Y-99756256D01*
X144923460Y-99568000D01*
X144903674Y-99379744D01*
X144845179Y-99199716D01*
X144750533Y-99035784D01*
X144623871Y-98895112D01*
X144623870Y-98895111D01*
X144470734Y-98783851D01*
X144470729Y-98783848D01*
X144297807Y-98706857D01*
X144297803Y-98706856D01*
X144174662Y-98680681D01*
X144148040Y-98671773D01*
X144103757Y-98651124D01*
X144035130Y-98616658D01*
X144028345Y-98614189D01*
X144028365Y-98614133D01*
X144021249Y-98611659D01*
X144021231Y-98611715D01*
X144014371Y-98609442D01*
X143982371Y-98602835D01*
X143939134Y-98593907D01*
X143890172Y-98582303D01*
X143864419Y-98576199D01*
X143857247Y-98575361D01*
X143857253Y-98575301D01*
X143849755Y-98574535D01*
X143849750Y-98574595D01*
X143842560Y-98573965D01*
X143765783Y-98576200D01*
X142729629Y-98576200D01*
X142662590Y-98556515D01*
X142641948Y-98539881D01*
X142411170Y-98309102D01*
X142380921Y-98259741D01*
X142325579Y-98089416D01*
X142265513Y-97985377D01*
X142248900Y-97923377D01*
X142248900Y-85084305D01*
X142250209Y-85066335D01*
X142251268Y-85059105D01*
X142253689Y-85042577D01*
X142249135Y-84990531D01*
X142248900Y-84985128D01*
X142248900Y-84976897D01*
X142248900Y-84976891D01*
X142245093Y-84944324D01*
X142238399Y-84867803D01*
X142238399Y-84867801D01*
X142236939Y-84860729D01*
X142236997Y-84860716D01*
X142235365Y-84853357D01*
X142235306Y-84853372D01*
X142233642Y-84846353D01*
X142233641Y-84846345D01*
X142207374Y-84774176D01*
X142183214Y-84701266D01*
X142183209Y-84701259D01*
X142180160Y-84694718D01*
X142180215Y-84694691D01*
X142176933Y-84687913D01*
X142176880Y-84687940D01*
X142173635Y-84681480D01*
X142131428Y-84617308D01*
X142091110Y-84551942D01*
X142086634Y-84546282D01*
X142086681Y-84546244D01*
X142081919Y-84540399D01*
X142081874Y-84540438D01*
X142077234Y-84534908D01*
X142021364Y-84482196D01*
X137778570Y-80239402D01*
X137748321Y-80190041D01*
X137692979Y-80019716D01*
X137692978Y-80019714D01*
X137632913Y-79915677D01*
X137616300Y-79853677D01*
X137616300Y-79512428D01*
X137635985Y-79445389D01*
X137652614Y-79424752D01*
X142483170Y-74594195D01*
X142544491Y-74560712D01*
X142544827Y-74560639D01*
X142610203Y-74546744D01*
X142783130Y-74469751D01*
X142936271Y-74358488D01*
X143062933Y-74217816D01*
X143157579Y-74053884D01*
X143216074Y-73873856D01*
X143235860Y-73685600D01*
X143216074Y-73497344D01*
X143157579Y-73317316D01*
X143097513Y-73213277D01*
X143080900Y-73151277D01*
X143080900Y-72211384D01*
X143100585Y-72144345D01*
X143132015Y-72111066D01*
X143176357Y-72078849D01*
X143217871Y-72048688D01*
X143344533Y-71908016D01*
X143439179Y-71744084D01*
X143497674Y-71564056D01*
X143517460Y-71375800D01*
X143497674Y-71187544D01*
X143439179Y-71007516D01*
X143344533Y-70843584D01*
X143217871Y-70702912D01*
X143217870Y-70702911D01*
X143064734Y-70591651D01*
X143064729Y-70591648D01*
X142891807Y-70514657D01*
X142891802Y-70514655D01*
X142746001Y-70483665D01*
X142706646Y-70475300D01*
X142517354Y-70475300D01*
X142484897Y-70482198D01*
X142332197Y-70514655D01*
X142332192Y-70514657D01*
X142159270Y-70591648D01*
X142159265Y-70591651D01*
X142006129Y-70702911D01*
X141879466Y-70843585D01*
X141784821Y-71007515D01*
X141784818Y-71007522D01*
X141724318Y-71193724D01*
X141723327Y-71193402D01*
X141702618Y-71235861D01*
X141703065Y-71236155D01*
X141700785Y-71239620D01*
X141700141Y-71240942D01*
X141699100Y-71242182D01*
X141695131Y-71248217D01*
X141695083Y-71248185D01*
X141691030Y-71254547D01*
X141691079Y-71254577D01*
X141687289Y-71260721D01*
X141654824Y-71330341D01*
X141620360Y-71398966D01*
X141617888Y-71405757D01*
X141617832Y-71405736D01*
X141615360Y-71412850D01*
X141615415Y-71412869D01*
X141613142Y-71419727D01*
X141605375Y-71457346D01*
X141597607Y-71494965D01*
X141584401Y-71550684D01*
X141579898Y-71569686D01*
X141579061Y-71576854D01*
X141579001Y-71576847D01*
X141578235Y-71584345D01*
X141578295Y-71584351D01*
X141577665Y-71591540D01*
X141579900Y-71668316D01*
X141579900Y-73151277D01*
X141563287Y-73213277D01*
X141503221Y-73317313D01*
X141447878Y-73487641D01*
X141417628Y-73537003D01*
X138613505Y-76341125D01*
X138552182Y-76374610D01*
X138482490Y-76369626D01*
X138426557Y-76327754D01*
X138402140Y-76262290D01*
X138416992Y-76194017D01*
X138418388Y-76191530D01*
X138437179Y-76158984D01*
X138495674Y-75978956D01*
X138515460Y-75790700D01*
X138495674Y-75602444D01*
X138437179Y-75422416D01*
X138342533Y-75258484D01*
X138215871Y-75117812D01*
X138215870Y-75117811D01*
X138062734Y-75006551D01*
X138062729Y-75006548D01*
X137889807Y-74929557D01*
X137889802Y-74929555D01*
X137744001Y-74898565D01*
X137704646Y-74890200D01*
X137515354Y-74890200D01*
X137482897Y-74897098D01*
X137330197Y-74929555D01*
X137330192Y-74929557D01*
X137157270Y-75006548D01*
X137157265Y-75006551D01*
X137004129Y-75117811D01*
X136877466Y-75258485D01*
X136782821Y-75422415D01*
X136782818Y-75422422D01*
X136724327Y-75602440D01*
X136724326Y-75602444D01*
X136717278Y-75669501D01*
X136706678Y-75770351D01*
X136680093Y-75834966D01*
X136671038Y-75845070D01*
X129611928Y-82904181D01*
X129550605Y-82937666D01*
X129524247Y-82940500D01*
X117993150Y-82940500D01*
X117926111Y-82920815D01*
X117891575Y-82887623D01*
X117801597Y-82759121D01*
X117680156Y-82637680D01*
X117646671Y-82576357D01*
X117651655Y-82506665D01*
X117680152Y-82462322D01*
X117801598Y-82340877D01*
X117927102Y-82161639D01*
X118019575Y-81963330D01*
X118076207Y-81751977D01*
X118095277Y-81534000D01*
X118076207Y-81316023D01*
X118066494Y-81279774D01*
X118068157Y-81209925D01*
X118098586Y-81160002D01*
X119225772Y-80032819D01*
X119287095Y-79999334D01*
X119313453Y-79996500D01*
X120343504Y-79996500D01*
X120410543Y-80016185D01*
X120456298Y-80068989D01*
X120466242Y-80138147D01*
X120463279Y-80152593D01*
X120424289Y-80298105D01*
X120424287Y-80298115D01*
X120405225Y-80515999D01*
X120405225Y-80516000D01*
X120424287Y-80733884D01*
X120424289Y-80733894D01*
X120480894Y-80945150D01*
X120480898Y-80945159D01*
X120573335Y-81143391D01*
X120616873Y-81205571D01*
X120616874Y-81205572D01*
X121220214Y-80602231D01*
X121221257Y-80616140D01*
X121270266Y-80741013D01*
X121353905Y-80845892D01*
X121464741Y-80921459D01*
X121574298Y-80955253D01*
X120970426Y-81559124D01*
X121032611Y-81602666D01*
X121032613Y-81602667D01*
X121230840Y-81695101D01*
X121230849Y-81695105D01*
X121442105Y-81751710D01*
X121442115Y-81751712D01*
X121659999Y-81770775D01*
X121660001Y-81770775D01*
X121877884Y-81751712D01*
X121877894Y-81751710D01*
X122089150Y-81695105D01*
X122089159Y-81695101D01*
X122287387Y-81602666D01*
X122349572Y-81559124D01*
X121743837Y-80953389D01*
X121792647Y-80946033D01*
X121913509Y-80887829D01*
X122011844Y-80796587D01*
X122078917Y-80680413D01*
X122097323Y-80599771D01*
X122703124Y-81205572D01*
X122746666Y-81143387D01*
X122839101Y-80945159D01*
X122839105Y-80945150D01*
X122895710Y-80733894D01*
X122895712Y-80733884D01*
X122914775Y-80516000D01*
X122914775Y-80515999D01*
X122895712Y-80298115D01*
X122895710Y-80298105D01*
X122856721Y-80152593D01*
X122858384Y-80082743D01*
X122897547Y-80024881D01*
X122961775Y-79997377D01*
X122976496Y-79996500D01*
X123418100Y-79996500D01*
X123485139Y-80016185D01*
X123525487Y-80058500D01*
X123532367Y-80070416D01*
X123606360Y-80152593D01*
X123659029Y-80211088D01*
X123812165Y-80322348D01*
X123812170Y-80322351D01*
X123985092Y-80399342D01*
X123985097Y-80399344D01*
X124170254Y-80438700D01*
X124170255Y-80438700D01*
X124359544Y-80438700D01*
X124359546Y-80438700D01*
X124544703Y-80399344D01*
X124717630Y-80322351D01*
X124870771Y-80211088D01*
X124997433Y-80070416D01*
X125092079Y-79906484D01*
X125150574Y-79726456D01*
X125170360Y-79538200D01*
X125150574Y-79349944D01*
X125092079Y-79169916D01*
X124997433Y-79005984D01*
X124870771Y-78865312D01*
X124870770Y-78865311D01*
X124717634Y-78754051D01*
X124717629Y-78754048D01*
X124544707Y-78677057D01*
X124544702Y-78677055D01*
X124391895Y-78644576D01*
X124359546Y-78637700D01*
X124170254Y-78637700D01*
X124156625Y-78640597D01*
X123985097Y-78677055D01*
X123985092Y-78677057D01*
X123855450Y-78734779D01*
X123805014Y-78745500D01*
X122977014Y-78745500D01*
X122909975Y-78725815D01*
X122864220Y-78673011D01*
X122854276Y-78603853D01*
X122857239Y-78589406D01*
X122896207Y-78443977D01*
X122915277Y-78226000D01*
X122896207Y-78008023D01*
X122839575Y-77796670D01*
X122747102Y-77598362D01*
X122747100Y-77598359D01*
X122747099Y-77598357D01*
X122621599Y-77419124D01*
X122555660Y-77353185D01*
X122466877Y-77264402D01*
X122287639Y-77138898D01*
X122287640Y-77138898D01*
X122287638Y-77138897D01*
X122188484Y-77092661D01*
X122089330Y-77046425D01*
X122089326Y-77046424D01*
X122089322Y-77046422D01*
X121877977Y-76989793D01*
X121660002Y-76970723D01*
X121659998Y-76970723D01*
X121514682Y-76983436D01*
X121442023Y-76989793D01*
X121442020Y-76989793D01*
X121230677Y-77046422D01*
X121230668Y-77046426D01*
X121032361Y-77138898D01*
X121032357Y-77138900D01*
X120853121Y-77264402D01*
X120698402Y-77419121D01*
X120572900Y-77598357D01*
X120572898Y-77598361D01*
X120480426Y-77796668D01*
X120480422Y-77796677D01*
X120423793Y-78008020D01*
X120423793Y-78008024D01*
X120404723Y-78225997D01*
X120404723Y-78226002D01*
X120407729Y-78260358D01*
X120423793Y-78443977D01*
X120461915Y-78586251D01*
X120462761Y-78589406D01*
X120461098Y-78659256D01*
X120421936Y-78717119D01*
X120357707Y-78744623D01*
X120342986Y-78745500D01*
X119085743Y-78745500D01*
X119070122Y-78743775D01*
X119070096Y-78744061D01*
X119062334Y-78743327D01*
X119062333Y-78743327D01*
X118993186Y-78745500D01*
X118963649Y-78745500D01*
X118956766Y-78746369D01*
X118950949Y-78746826D01*
X118904373Y-78748290D01*
X118885129Y-78753881D01*
X118866079Y-78757825D01*
X118846211Y-78760334D01*
X118802884Y-78777488D01*
X118797358Y-78779379D01*
X118752614Y-78792379D01*
X118752610Y-78792381D01*
X118735366Y-78802579D01*
X118717905Y-78811133D01*
X118699274Y-78818510D01*
X118699262Y-78818517D01*
X118661570Y-78845902D01*
X118656687Y-78849109D01*
X118616580Y-78872829D01*
X118602414Y-78886995D01*
X118587624Y-78899627D01*
X118571414Y-78911404D01*
X118571411Y-78911407D01*
X118541710Y-78947309D01*
X118537777Y-78951631D01*
X117213996Y-80275411D01*
X117152673Y-80308896D01*
X117094222Y-80307505D01*
X117057977Y-80297793D01*
X116928837Y-80286495D01*
X116840002Y-80278723D01*
X116839998Y-80278723D01*
X116699818Y-80290987D01*
X116622023Y-80297793D01*
X116622020Y-80297793D01*
X116410677Y-80354422D01*
X116410668Y-80354426D01*
X116212361Y-80446898D01*
X116212357Y-80446900D01*
X116033121Y-80572402D01*
X115878402Y-80727121D01*
X115752898Y-80906360D01*
X115752894Y-80906367D01*
X115704337Y-81010496D01*
X115679648Y-81045761D01*
X115677789Y-81047619D01*
X115675422Y-81049986D01*
X115660624Y-81062627D01*
X115644414Y-81074404D01*
X115644411Y-81074407D01*
X115614710Y-81110309D01*
X115610777Y-81114631D01*
X115433997Y-81291411D01*
X115372674Y-81324896D01*
X115314223Y-81323505D01*
X115277977Y-81313793D01*
X115060002Y-81294723D01*
X115059998Y-81294723D01*
X114914682Y-81307436D01*
X114842023Y-81313793D01*
X114842020Y-81313793D01*
X114630677Y-81370422D01*
X114630668Y-81370426D01*
X114432361Y-81462898D01*
X114432357Y-81462900D01*
X114253121Y-81588402D01*
X114098402Y-81743121D01*
X113972900Y-81922357D01*
X113972898Y-81922361D01*
X113880426Y-82120668D01*
X113880422Y-82120677D01*
X113823793Y-82332020D01*
X113823793Y-82332024D01*
X113804749Y-82549706D01*
X113804723Y-82550000D01*
X113823018Y-82759123D01*
X113823793Y-82767975D01*
X113823793Y-82767979D01*
X113880422Y-82979322D01*
X113880424Y-82979326D01*
X113880425Y-82979330D01*
X113892804Y-83005876D01*
X113972897Y-83177638D01*
X113972898Y-83177639D01*
X114098402Y-83356877D01*
X114098406Y-83356881D01*
X114219843Y-83478318D01*
X114253328Y-83539641D01*
X114248344Y-83609333D01*
X114219844Y-83653680D01*
X114098400Y-83775124D01*
X113972900Y-83954357D01*
X113972898Y-83954361D01*
X113880426Y-84152668D01*
X113880422Y-84152677D01*
X113823793Y-84364020D01*
X113823793Y-84364024D01*
X113804723Y-84581997D01*
X113804723Y-84582002D01*
X106901129Y-84582002D01*
X106833161Y-78804678D01*
X110640737Y-78804678D01*
X110670762Y-79077559D01*
X110670763Y-79077569D01*
X110740202Y-79343178D01*
X110844310Y-79588166D01*
X110847577Y-79595852D01*
X110990592Y-79830191D01*
X110990599Y-79830201D01*
X111166199Y-80041207D01*
X111166204Y-80041212D01*
X111166209Y-80041218D01*
X111216152Y-80085967D01*
X111370672Y-80224419D01*
X111370674Y-80224420D01*
X111370677Y-80224423D01*
X111599641Y-80375904D01*
X111848221Y-80492433D01*
X112111119Y-80571527D01*
X112382731Y-80611500D01*
X112382736Y-80611500D01*
X112588552Y-80611500D01*
X112640744Y-80607679D01*
X112793805Y-80596477D01*
X113061775Y-80536784D01*
X113318198Y-80438711D01*
X113557609Y-80304347D01*
X113774904Y-80136557D01*
X113965454Y-79938916D01*
X114125196Y-79715637D01*
X114250727Y-79471479D01*
X114339370Y-79211646D01*
X114389236Y-78941674D01*
X114399262Y-78667320D01*
X114369236Y-78394429D01*
X114299796Y-78128818D01*
X114192423Y-77876148D01*
X114049405Y-77641804D01*
X114013252Y-77598362D01*
X113873800Y-77430792D01*
X113873795Y-77430787D01*
X113873791Y-77430782D01*
X113767385Y-77335441D01*
X113669327Y-77247580D01*
X113669324Y-77247578D01*
X113669323Y-77247577D01*
X113440359Y-77096096D01*
X113191779Y-76979567D01*
X113113445Y-76956000D01*
X114294898Y-76956000D01*
X114315274Y-77214912D01*
X114375901Y-77467445D01*
X114375906Y-77467462D01*
X114475290Y-77707397D01*
X114475292Y-77707400D01*
X114610992Y-77928842D01*
X114610993Y-77928843D01*
X114616801Y-77935644D01*
X115244217Y-77308228D01*
X115332379Y-77448536D01*
X115457464Y-77573621D01*
X115597770Y-77661781D01*
X114970354Y-78289197D01*
X114977157Y-78295007D01*
X115198599Y-78430707D01*
X115198602Y-78430709D01*
X115438537Y-78530093D01*
X115438554Y-78530098D01*
X115691088Y-78590725D01*
X115691087Y-78590725D01*
X115950000Y-78611101D01*
X116208912Y-78590725D01*
X116461445Y-78530098D01*
X116461462Y-78530093D01*
X116701397Y-78430709D01*
X116701400Y-78430707D01*
X116922844Y-78295005D01*
X116929644Y-78289197D01*
X116302229Y-77661782D01*
X116442536Y-77573621D01*
X116567621Y-77448536D01*
X116655782Y-77308229D01*
X117283197Y-77935644D01*
X117289005Y-77928844D01*
X117424707Y-77707400D01*
X117424709Y-77707397D01*
X117524093Y-77467462D01*
X117524098Y-77467445D01*
X117584725Y-77214912D01*
X117605101Y-76956000D01*
X117584725Y-76697087D01*
X117524098Y-76444554D01*
X117524093Y-76444537D01*
X117424709Y-76204602D01*
X117424707Y-76204599D01*
X117289007Y-75983157D01*
X117283197Y-75976354D01*
X116655781Y-76603769D01*
X116567621Y-76463464D01*
X116442536Y-76338379D01*
X116302229Y-76250217D01*
X116929645Y-75622801D01*
X116922843Y-75616993D01*
X116922842Y-75616992D01*
X116701400Y-75481292D01*
X116701397Y-75481290D01*
X116461462Y-75381906D01*
X116461445Y-75381901D01*
X116208911Y-75321274D01*
X116208912Y-75321274D01*
X115950000Y-75300898D01*
X115691087Y-75321274D01*
X115438554Y-75381901D01*
X115438537Y-75381906D01*
X115198602Y-75481290D01*
X115198599Y-75481292D01*
X114977155Y-75616993D01*
X114970353Y-75622800D01*
X115597770Y-76250217D01*
X115457464Y-76338379D01*
X115332379Y-76463464D01*
X115244217Y-76603770D01*
X114616800Y-75976353D01*
X114610993Y-75983155D01*
X114475292Y-76204599D01*
X114475290Y-76204602D01*
X114375906Y-76444537D01*
X114375901Y-76444554D01*
X114315274Y-76697087D01*
X114294898Y-76956000D01*
X113113445Y-76956000D01*
X113044362Y-76935216D01*
X112928879Y-76900472D01*
X112795915Y-76880904D01*
X112657269Y-76860500D01*
X112451453Y-76860500D01*
X112451448Y-76860500D01*
X112246195Y-76875523D01*
X112246185Y-76875524D01*
X111978229Y-76935214D01*
X111978224Y-76935216D01*
X111721799Y-77033290D01*
X111482392Y-77167652D01*
X111482387Y-77167655D01*
X111265097Y-77335441D01*
X111265088Y-77335450D01*
X111074549Y-77533080D01*
X111074547Y-77533082D01*
X110914805Y-77756361D01*
X110914802Y-77756366D01*
X110789275Y-78000515D01*
X110789271Y-78000525D01*
X110700632Y-78260344D01*
X110700629Y-78260358D01*
X110650765Y-78530314D01*
X110650763Y-78530334D01*
X110640737Y-78804678D01*
X106833161Y-78804678D01*
X106681476Y-65911459D01*
X106700370Y-65844192D01*
X106752632Y-65797819D01*
X106805467Y-65786000D01*
X204347451Y-65786000D01*
X204414490Y-65805685D01*
G37*
%TD.AperFunction*%
%TD*%
M02*
