M48
; DRILL file {KiCad 7.0.9} date Mon Apr  8 18:15:03 2024
; FORMAT={-:-/ absolute / inch / decimal}
; #@! TF.CreationDate,2024-04-08T18:15:03-04:00
; #@! TF.GenerationSoftware,Kicad,Pcbnew,7.0.9
; #@! TF.FileFunction,Plated,1,2,PTH
FMAT,2
INCH
; #@! TA.AperFunction,Plated,PTH,ViaDrill
T1C0.0157
; #@! TA.AperFunction,Plated,PTH,ComponentDrill
T2C0.0350
; #@! TA.AperFunction,Plated,PTH,ComponentDrill
T3C0.0394
; #@! TA.AperFunction,Plated,PTH,ComponentDrill
T4C0.0512
; #@! TA.AperFunction,Plated,PTH,ComponentDrill
T5C0.0618
%
G90
G05
T1
X4.8923Y-3.1314
X5.2643Y-3.8172
X5.3149Y-3.2251
X5.3884Y-3.1649
X5.4177Y-2.9839
X5.4525Y-3.7111
X5.4659Y-3.7911
X5.5298Y-3.6904
X5.5322Y-3.0889
X5.5708Y-3.8763
X5.5786Y-4.0141
X5.6036Y-2.901
X5.6125Y-3.7359
X5.6146Y-2.8101
X5.67Y-3.92
X5.7204Y-3.1581
X5.8029Y-2.8386
X6.72Y-3.71
T2
X4.5299Y-3.25
X4.5299Y-3.33
X4.5299Y-3.41
X4.5299Y-3.49
X4.6Y-3.21
X4.6Y-3.29
X4.6Y-3.37
X4.6Y-3.45
X4.7898Y-3.0798
X4.7898Y-3.1699
X4.7898Y-3.5298
X4.7898Y-3.6199
T3
X6.3331Y-3.02
X6.3331Y-3.12
X6.3331Y-3.22
X6.44Y-4.02
X6.5244Y-3.5729
X6.54Y-4.02
X6.6244Y-3.5729
X6.64Y-4.02
X6.7244Y-3.5729
X6.74Y-4.02
X6.8244Y-3.5729
X6.84Y-4.02
X6.94Y-4.02
X7.0331Y-3.02
X7.0331Y-3.12
X7.0331Y-3.22
X7.04Y-4.02
T4
X7.68Y-3.02
X7.68Y-3.2169
T5
X4.565Y-3.0298
X4.565Y-3.6699
T0
M30
